<?xml version="1.0" standalone="no"?>
<!DOCTYPE svg PUBLIC "-//W3C//DTD SVG 1.1//EN" "http://www.w3.org/Graphics/SVG/1.1/DTD/svg11.dtd" >
<svg xmlns="http://www.w3.org/2000/svg" xmlns:xlink="http://www.w3.org/1999/xlink" version="1.1">
<metadata>
Created by FontForge 20141024 at Tue Jun  2 15:00:37 2015
 By System Administrator
Smoolthan (c) Situjuh Font. 2014. All Rights Reserved
</metadata>
<defs>
<font id="Smoolthan-Thin" horiz-adv-x="0" >
  <font-face 
    font-family="Smoolthan"
    font-weight="100"
    font-stretch="normal"
    units-per-em="2048"
    panose-1="2 0 5 0 0 0 0 0 0 0"
    ascent="1638"
    descent="-410"
    x-height="1016"
    cap-height="1393"
    bbox="-1055 -413 2909 1783"
    underline-thickness="150"
    underline-position="-142"
    unicode-range="U+001D-FB06"
  />
<missing-glyph horiz-adv-x="1499" 
d="M787 1404q-50 -13 -130 -101q-27 -29 -70 -97q-51 -73 -72 -101q-64 -80 -104 -113q-64 -51 -135 -51q-56 0 -94 28q-45 32 -53 88q-1 14 -1 29q0 49 24 92q33 60 93 70q16 3 29 3q20 0 36 -5q27 -13 27 -17q2 -2 2 -4q0 -5 -14 -5q-13 0 -26 -12t-13 -28q0 -39 39 -39h1
q37 0 57 40q9 19 9 40q0 19 -9 39q-14 39 -51 58q-37 20 -91 20q-13 0 -27 -1q-113 -9 -164 -72v139h737zM50 875q50 -51 161 -51q16 0 32 2q92 6 212 128q33 33 92 97q52 59 73 78q50 47 102 47q29 0 57 -14q91 -41 184 -41q62 0 125 18q124 37 212 118q-11 -134 -116 -271
q-20 -24 -222 -233h-49q-36 0 -67 37l-112 -112h159q-178 -197 -212 -366q-10 -47 -10 -88q0 -68 25 -120q40 -84 82 -98h-123v679l36 19v49h-641v122zM275 678q72 0 101 -29q30 -29 30 -101v-542h-356v672h225zM483 681h15v-675h-15v675zM1209 6q119 27 240 134v-134h-240z
M1449 183q-123 -69 -236 -83q-22 -2 -46 -2q-76 0 -120 35q-41 36 -41 98q0 24 7 54q24 115 154 281q61 77 84 112h138v-48h60v-447zM1302 753q92 151 92 345q0 42 -5 86q-16 141 -17 141q4 33 77 55v-627h-147zM656 1043q-86 0 -139 -44q-45 -42 -54 -100q-3 -15 -3 -29
q0 -41 23 -69q28 -38 81 -38q9 0 17 1q65 6 86 67q4 17 4 29q0 42 -39 69q-25 19 -25 40q0 4 1 8q5 26 48 35v31z" />
    <glyph glyph-name=".notdef" horiz-adv-x="1499" 
d="M787 1404q-50 -13 -130 -101q-27 -29 -70 -97q-51 -73 -72 -101q-64 -80 -104 -113q-64 -51 -135 -51q-56 0 -94 28q-45 32 -53 88q-1 14 -1 29q0 49 24 92q33 60 93 70q16 3 29 3q20 0 36 -5q27 -13 27 -17q2 -2 2 -4q0 -5 -14 -5q-13 0 -26 -12t-13 -28q0 -39 39 -39h1
q37 0 57 40q9 19 9 40q0 19 -9 39q-14 39 -51 58q-37 20 -91 20q-13 0 -27 -1q-113 -9 -164 -72v139h737zM50 875q50 -51 161 -51q16 0 32 2q92 6 212 128q33 33 92 97q52 59 73 78q50 47 102 47q29 0 57 -14q91 -41 184 -41q62 0 125 18q124 37 212 118q-11 -134 -116 -271
q-20 -24 -222 -233h-49q-36 0 -67 37l-112 -112h159q-178 -197 -212 -366q-10 -47 -10 -88q0 -68 25 -120q40 -84 82 -98h-123v679l36 19v49h-641v122zM275 678q72 0 101 -29q30 -29 30 -101v-542h-356v672h225zM483 681h15v-675h-15v675zM1209 6q119 27 240 134v-134h-240z
M1449 183q-123 -69 -236 -83q-22 -2 -46 -2q-76 0 -120 35q-41 36 -41 98q0 24 7 54q24 115 154 281q61 77 84 112h138v-48h60v-447zM1302 753q92 151 92 345q0 42 -5 86q-16 141 -17 141q4 33 77 55v-627h-147zM656 1043q-86 0 -139 -44q-45 -42 -54 -100q-3 -15 -3 -29
q0 -41 23 -69q28 -38 81 -38q9 0 17 1q65 6 86 67q4 17 4 29q0 42 -39 69q-25 19 -25 40q0 4 1 8q5 26 48 35v31z" />
    <glyph glyph-name=".null" 
 />
    <glyph glyph-name=".null" 
 />
    <glyph glyph-name="nonmarkingreturn" horiz-adv-x="1200" 
 />
    <glyph glyph-name="space" unicode=" " horiz-adv-x="533" 
 />
    <glyph glyph-name="space" unicode="&#xa0;" horiz-adv-x="533" 
 />
    <glyph glyph-name="exclam" unicode="!" horiz-adv-x="636" 
d="M200 1324q0 29 20 49q20 19 48 19h124l-47 -964q0 -29 -20 -49q-20 -19 -48 -19h-29zM224 124q0 29 21 48q21 20 52 20h72v-104q0 -29 -21 -49q-21 -19 -51 -19h-73v104z" />
    <glyph glyph-name="quotedbl" unicode="&#x22;" horiz-adv-x="795" 
d="M162 1387q0 25 40 25h78l-32 -484q0 -25 -40 -25h-15zM550 903h-15q-40 0 -40 25l-31 483h77q40 0 40 -25z" />
    <glyph glyph-name="numbersign" unicode="#" horiz-adv-x="1036" 
d="M239 521l66 324h-224q-19 0 -33 13q-13 14 -13 33v16h283l90 433q5 23 19 38q14 14 39 14h24l-100 -485h305l90 433q5 23 19 38q14 14 39 14h24l-100 -485h141q20 0 34 -13q12 -14 12 -33v-16h-200l-67 -324h221q20 0 33 -13t13 -33v-16h-280l-80 -387q-5 -23 -19 -38
q-14 -14 -39 -14h-24l90 439h-305l-80 -387q-5 -23 -19 -38q-14 -14 -39 -14h-24l90 439h-144q-20 0 -33 14q-13 13 -13 32v16h204zM377 845l-67 -324h306l66 324h-305z" />
    <glyph glyph-name="dollar" unicode="$" horiz-adv-x="1128" 
d="M578 780q32 -4 47 -6q192 -30 278 -92q118 -87 118 -273v-12q-4 -183 -148 -291q-116 -85 -295 -98v-127q0 -28 -19 -48q-20 -20 -49 -20h-28v196q-203 16 -390 83v45q0 31 21 52t47 21q162 -51 322 -65v511q-28 6 -40 8q-196 30 -280 86q-123 83 -123 267t137 293
q117 92 306 100v128q0 29 20 48q19 20 48 20h28v-197q195 -18 373 -81v-46q0 -31 -21 -52t-47 -21q-152 47 -305 63v-492zM482 1277q-123 -10 -198 -64q-100 -73 -100 -196q0 -137 146 -188q27 -11 152 -32v480zM578 144q113 11 186 59q112 72 112 193q0 149 -143 207
q-36 16 -155 38v-497z" />
    <glyph glyph-name="percent" unicode="%" horiz-adv-x="1435" 
d="M657 942q0 -223.5 -273 -223.5q-274 0 -274 223.5v168.75q0 223.5 274 223.5q273 0 273 -223.5v-168.75zM592 1110.75q0 81 -40 124.5q-51 54 -168 54t-168 -54q-40 -43.5 -40 -124.5v-168.75q0 -81.75 40 -124.5q51 -54.75 168 -54.75t168 54.75q40 42.75 40 124.5
v168.75zM627 72q-5 -23 -19 -38q-14 -14 -39 -14h-24l273 1320q5 23 19 38q14 14 39 14h24zM1335 306.75q0 -223.5 -273 -223.5q-274 0 -274 223.5v168.75q0 223.5 274 223.5q273 0 273 -223.5v-168.75zM1270 475.5q0 81 -40 124.5q-51 54 -168 54t-168 -54
q-40 -43.5 -40 -124.5v-168.75q0 -81.75 40 -124.5q51 -54.75 168 -54.75t168 54.75q40 42.75 40 124.5v168.75z" />
    <glyph glyph-name="ampersand" unicode="&#x26;" horiz-adv-x="1206" 
d="M584 1411q128 0 362 -83v-46q0 -31 -21 -52t-48 -21q-214 67 -293 67q-137 0 -223 -57q-99 -66 -99 -190q0 -160 142 -209q53 -20 286 -40q187 -16 271 -75q120 -86 120 -301v-384h-77q-28 0 -48 19q-20 20 -20 49v99q-228 -176 -431 -180h-13q-187 0 -300 86
q-135 103 -135 311q0 234 268 328q-208 95 -208 297q0 183 141 287q128 95 325 95h1zM320 619q-118 -61 -118 -215q0 -137 88 -210q75 -64 200 -64h11q115 2 248 72q140 75 187 171v31q0 124 -68 183q-85 72 -298 74q-166 0 -250 -42z" />
    <glyph glyph-name="quotesingle" unicode="'" horiz-adv-x="517" 
d="M176 1386q0 25 40 25h78l-32 -483q0 -25 -40 -25h-15z" />
    <glyph glyph-name="parenleft" unicode="(" horiz-adv-x="728" 
d="M222 872q0 342 141 535q130 179 326 184v-96q-141 -23 -236 -154q-102 -141 -102 -469v-517q0 -328 102 -469q95 -131 236 -154v-96q-196 5 -326 184q-141 193 -141 535v517z" />
    <glyph glyph-name="parenright" unicode=")" horiz-adv-x="745" 
d="M469 355q0 -342 -141 -535q-130 -179 -326 -184v96q141 23 236 154q102 141 102 469v517q0 328 -102 469q-95 131 -236 154v96q196 -5 326 -184q141 -193 141 -535v-517z" />
    <glyph glyph-name="asterisk" unicode="*" horiz-adv-x="978" 
d="M492 1071l253 119q17 7 31 7q57 0 74 -103l-340 -70l192 -204q18 -22 18 -42q0 -47 -77 -87l-171 299l-136 -243q-21 -33 -48 -33q-42 0 -91 49l231 255l-273 54q-50 13 -50 58q0 38 22 80l314 -141l-34 276v8q0 64 87 64q24 0 36 -2z" />
    <glyph glyph-name="plus" unicode="+" horiz-adv-x="1200" 
d="M506 644h-364q-17 0 -31 18q-15 22 -15 53v29h410v364q0 18 18 32q21 14 52 14h30v-410h363q18 0 32 -18q14 -21 14 -52v-30h-409v-363q0 -17 -18 -31q-22 -15 -53 -15h-29v409z" />
    <glyph glyph-name="comma" unicode="," horiz-adv-x="498" 
d="M79 -332q83 135 83 456q0 29 21 48q21 20 51 20h73v-11q0 -253 -176 -486q-20 -27 -34 -27h-18z" />
    <glyph glyph-name="hyphen" unicode="-" horiz-adv-x="898" 
d="M190 461q-17 0 -31 18q-15 22 -15 53v29h516q18 0 32 -18q14 -21 14 -52v-30h-516z" />
    <glyph glyph-name="hyphen" unicode="&#xad;" horiz-adv-x="898" 
d="M190 461q-17 0 -31 18q-15 22 -15 53v29h516q18 0 32 -18q14 -21 14 -52v-30h-516z" />
    <glyph glyph-name="period" unicode="." horiz-adv-x="496" 
d="M162 124q0 29 21 48q21 20 51 20h73v-104q0 -29 -21 -49q-21 -19 -52 -19h-72v104z" />
    <glyph glyph-name="slash" unicode="/" horiz-adv-x="625" 
d="M232 72q-5 -23 -19 -38q-14 -14 -39 -14h-24l273 1320q5 23 19 38q14 14 39 14h24z" />
    <glyph glyph-name="zero" unicode="0" horiz-adv-x="1210" 
d="M1102 518q0 -510 -469 -510q-470 0 -470 510v375q0 510 470 510q469 0 469 -510v-375zM966 893q0 177 -64 269q-81 114 -269 114t-269 -114q-65 -92 -65 -269v-375q0 -177 65 -269q81 -115 269 -115t269 115q64 92 64 269v375z" />
    <glyph glyph-name="one" unicode="1" horiz-adv-x="944" 
d="M565 148h300q28 0 48 -20t20 -48v-60h-813q-28 0 -48 19q-20 20 -20 49v59h368v1109l-232 -234h-28q-34 0 -53 29q-10 16 -10 29q0 10 6 22l173 206q64 79 136 84h85q28 0 48 -19q20 -20 20 -49v-1176z" />
    <glyph glyph-name="two" unicode="2" horiz-adv-x="1098" 
d="M181 20q-28 0 -48 19q-20 20 -20 49v41q0 143 108 259q70 74 248 189q188 118 255 186q120 120 120 266q0 124 -98 190q-87 57 -224 57q-108 0 -322 -67q-27 0 -48 21t-21 52v46q234 83 391 83q196 0 324 -93q143 -104 143 -289q0 -271 -330 -486q-220 -141 -246 -162
q-123 -100 -145 -234l658 1q28 0 48 -20t20 -48v-60h-813z" />
    <glyph glyph-name="three" unicode="3" horiz-adv-x="1098" 
d="M476 1411q197 0 326 -95q140 -104 140 -287q0 -202 -210 -299q270 -83 270 -326q0 -396 -527 -396q-171 0 -405 84v45q0 31 21 52t48 21q237 -74 336 -74q221 0 312 77q70 65 70 191t-72 185q-87 72 -310 72h-149v129h149q189 8 262 70q60 53 60 169q0 124 -99 190
q-86 57 -223 57q-79 0 -293 -67q-27 0 -48 21t-21 52v46q234 83 362 83h1z" />
    <glyph glyph-name="four" unicode="4" horiz-adv-x="1131" 
d="M920 491h108q29 0 50 -21q21 -20 21 -50v-60h-179v-340h-76q-29 0 -49 19q-19 20 -19 49v272h-605q-30 0 -50 21q-21 21 -21 50v96l542 783q53 82 136 82h74q29 0 49 -19q19 -20 19 -49v-833zM243 491h533v768z" />
    <glyph glyph-name="five" unicode="5" horiz-adv-x="1188" 
d="M315 824q193 90 327 90q244 0 348 -101q105 -104 105 -351q0 -451 -497 -454q-193 0 -427 84v46q0 30 21 51t47 21q238 -74 359 -74q353 2 353 326q0 180 -67 248t-242 68q-164 0 -327 -81v-74q0 -28 -19 -48q-20 -20 -49 -20h-76v769q0 29 19 49q20 19 49 19h856v-59
q0 -30 -20 -50q-21 -21 -51 -21h-709v-438z" />
    <glyph glyph-name="six" unicode="6" horiz-adv-x="1203" 
d="M1092 462q0 -454 -457 -454h-6q-242 1 -351 106q-111 107 -111 348v498q2 236 125 342q115 101 362 101q171 0 405 -84v-46q0 -30 -21 -52q-21 -21 -48 -21q-214 68 -336 68q-180 0 -258 -67q-84 -73 -84 -250v-129q210 92 327 92q244 0 347 -101q106 -104 106 -351z
M312 462q0 -170 69 -245q73 -80 248 -81q175 1 249 81q69 75 69 245q0 180 -67 248t-241 68q-143 0 -327 -84v-232z" />
    <glyph glyph-name="seven" unicode="7" horiz-adv-x="977" 
d="M849 1392q30 0 51 -21q20 -20 20 -50v-98l-541 -1203h-167l560 1241h-710q-30 0 -50 21q-21 21 -21 51v59h858z" />
    <glyph glyph-name="eight" unicode="8" horiz-adv-x="1291" 
d="M944 730q259 -85 259 -332q0 -390 -528 -390q-527 0 -527 390q0 247 259 332q-199 93 -199 319q0 179 144 276q128 86 323 86q196 0 323 -86q144 -97 144 -276q0 -226 -198 -319zM985 210q73 61 73 188q0 128 -73 188q-87 75 -310 75q-222 0 -309 -75q-73 -60 -73 -188
q0 -127 73 -188q87 -74 309 -74q223 0 310 74zM938 872q60 59 60 177q0 119 -105 181q-84 50 -217 51q-133 0 -218 -50q-105 -62 -105 -182q0 -118 60 -177q75 -74 262 -82q187 8 263 82z" />
    <glyph glyph-name="nine" unicode="9" horiz-adv-x="1169" 
d="M124 948q0 455 458 455h4q243 -2 352 -107q111 -107 111 -348v-498q-2 -236 -125 -341q-116 -101 -362 -101q-171 0 -405 84v45q0 31 21 52t48 21q214 -67 336 -67q180 0 258 66q84 73 84 250v130q-211 -92 -327 -92q-244 0 -347 101q-106 103 -106 350zM904 948
q0 171 -69 246q-74 79 -249 81q-175 -2 -248 -81q-69 -75 -69 -246q0 -179 67 -248q66 -68 241 -68q142 0 327 84v232z" />
    <glyph glyph-name="colon" unicode=":" horiz-adv-x="338" 
d="M72 124q0 29 21 48q21 20 51 20h73v-104q0 -29 -21 -49q-21 -19 -52 -19h-72v104zM72 742q0 28 21 48t52 20h72v-105q0 -28 -21 -48t-51 -20h-73v105z" />
    <glyph glyph-name="semicolon" unicode=";" horiz-adv-x="343" 
d="M-5 -332q83 135 83 456q0 29 21 48q21 20 51 20h73v-11q0 -253 -176 -486q-20 -27 -34 -27h-18zM78 742q0 28 21 48t51 20h73v-105q0 -28 -21 -48t-52 -20h-72v105z" />
    <glyph glyph-name="semicolon" unicode="&#x37e;" horiz-adv-x="343" 
d="M-5 -332q83 135 83 456q0 29 21 48q21 20 51 20h73v-11q0 -253 -176 -486q-20 -27 -34 -27h-18zM78 742q0 28 21 48t51 20h73v-105q0 -28 -21 -48t-52 -20h-72v105z" />
    <glyph glyph-name="less" unicode="&#x3c;" horiz-adv-x="1009" 
d="M-13 745l926 466q4 -13 4 -45q0 -91 -85 -119l-662 -331l662 -332q85 -28 85 -119q0 -32 -4 -45l-926 466v59z" />
    <glyph glyph-name="equal" unicode="=" horiz-adv-x="1084" 
d="M105 807q-17 0 -31 18q-15 22 -15 53v29h873q18 0 32 -18q14 -22 14 -53v-29h-873zM105 461q-17 0 -31 18q-15 22 -15 53v29h873q18 0 32 -18q14 -21 14 -52v-30h-873z" />
    <glyph glyph-name="greater" unicode="&#x3e;" horiz-adv-x="1034" 
d="M973 686l-926 -466q-4 13 -4 45q0 91 85 119l662 331l-662 332q-85 28 -85 119q0 32 4 45l926 -466v-59z" />
    <glyph glyph-name="question" unicode="?" horiz-adv-x="921" 
d="M337 428q0 -29 -20 -49q-20 -19 -48 -19h-31l-23 361q0 30 20 50q21 21 50 21q410 0 410 225q0 123 -101 196q-88 63 -212 63q-172 0 -386 -67q-27 0 -48 21t-21 52v46q234 83 455 83q193 0 320 -101q137 -109 137 -293q0 -201 -149 -283q-84 -46 -342 -83zM214 124
q0 29 21 48q21 20 51 20h73v-104q0 -29 -21 -49q-21 -19 -52 -19h-72v104z" />
    <glyph glyph-name="at" unicode="@" horiz-adv-x="1631" 
d="M1091 509q0 335 -292 335t-292 -335q0 -156 53 -235q69 -100 232 -100q228 0 299 239v96zM1515 -108q0 -60 -60 -77q-345 -88 -656 -88q-377 0 -552 205q-164 190 -164 577t164 577q175 205 552 205t552 -205q164 -190 164 -577q0 -169 -69 -280q-60 -92 -149 -123
q-39 -12 -72 -12q-39 0 -72 18q-62 32 -62 193q-113 -235 -322 -235q-375 0 -375 439t405 439q404 0 404 -439v-219q0 -54 33 -76q16 -11 33 -11q21 0 44 17q86 67 86 289q0 682 -600 682q-601 0 -601 -682t601 -682q321 0 716 109v-44z" />
    <glyph glyph-name="A" unicode="A" horiz-adv-x="1203" 
d="M543 1270l-231 -801h556l-231 801h-94zM273 341l-65 -226q-24 -95 -117 -95h-65l376 1289q24 94 117 94h142q93 0 117 -95l376 -1288h-65q-93 0 -118 96l-65 225h-633z" />
    <glyph glyph-name="B" unicode="B" horiz-adv-x="1243" 
d="M95 20v1009q0 183 151 288q136 95 334 95h4q200 -1 335 -96q150 -105 150 -287q0 -197 -208 -299q158 -49 218 -143q50 -83 50 -183q0 -181 -104 -271q-129 -113 -443 -113h-487zM240 662v-514h342q223 0 320 71q82 62 82 185q0 124 -82 186q-97 72 -320 72h-342z
M521 789q227 0 321 63q82 56 82 177q0 125 -110 193q-91 55 -231 55h-5q-137 0 -227 -55q-111 -67 -111 -193v-240h281z" />
    <glyph glyph-name="C" unicode="C" horiz-adv-x="1115" 
d="M46 897q0 244 153 382q147 133 395 133q221 0 455 -84v-46q0 -30 -22 -51q-21 -21 -47 -21q-215 67 -386 67q-179 0 -289 -100q-114 -104 -114 -280v-374q0 -177 114 -280q110 -100 289 -100q171 0 386 67q26 0 47 -21q22 -21 22 -51v-46q-234 -84 -455 -84
q-248 0 -395 133q-153 137 -153 382v374z" />
    <glyph glyph-name="D" unicode="D" horiz-adv-x="1326" 
d="M1175 535q0 -245 -153 -382q-147 -133 -394 -133h-548v877q0 244 153 382q147 133 395 133q247 0 394 -133q153 -138 153 -382v-362zM628 148q178 0 288 100q114 103 114 279v370q0 176 -114 280q-110 100 -288 100q-179 0 -289 -100q-114 -104 -114 -280v-749h403z" />
    <glyph glyph-name="E" unicode="E" horiz-adv-x="1103" 
d="M35 897q0 244 153 382q147 133 394 133q222 0 456 -84v-46q0 -30 -22 -51q-21 -21 -47 -21q-214 67 -387 67q-178 0 -288 -100q-114 -104 -114 -280v-108h697q29 0 48 -19q20 -20 20 -49v-59h-765v-139q0 -177 114 -280q110 -100 288 -100q173 0 387 67q26 0 47 -21
q22 -21 22 -51v-46q-234 -84 -456 -84q-247 0 -394 133q-153 137 -153 382v374z" />
    <glyph glyph-name="F" unicode="F" horiz-adv-x="1119" 
d="M89 897q0 244 153 382q147 133 395 133q221 0 455 -84v-46q0 -30 -21 -51q-22 -21 -48 -21q-215 67 -386 67q-179 0 -289 -100q-114 -104 -114 -280v-108h697q29 0 48 -19q20 -20 20 -49v-59h-765v-570q0 -30 -21 -51t-52 -21h-72v877z" />
    <glyph glyph-name="G" unicode="G" horiz-adv-x="1236" 
d="M1100 20h-76q-29 0 -49 20q-19 20 -19 48v161q-179 -241 -432 -241q-241 0 -365 133q-122 131 -122 382v374q0 244 153 382q147 133 394 133q222 0 456 -84v-46q0 -30 -22 -51q-21 -21 -47 -21q-214 67 -387 67q-178 0 -288 -100q-114 -104 -114 -280v-374
q0 -380 342 -380q235 0 432 214v265q0 28 19 48q20 20 49 20h76v-670z" />
    <glyph glyph-name="H" unicode="H" horiz-adv-x="1271" 
d="M249 88q0 -28 -20 -48t-48 -20h-77v1373h77q28 0 48 -20t20 -48v-555h708v555q0 28 20 48t48 20h77v-1373h-77q-28 0 -48 20t-20 48v554h-708v-554z" />
    <glyph glyph-name="I" unicode="I" horiz-adv-x="419" 
d="M104 1325q0 28 20 48t48 20h77v-1305q0 -28 -20 -48t-48 -20h-77v1305z" />
    <glyph glyph-name="J" unicode="J" horiz-adv-x="888" 
d="M589 1325q0 28 19 48q20 20 49 20h76v-870q0 -245 -152 -382q-148 -133 -395 -133q-83 0 -166 14v58q0 29 20 49t47 20q55 -6 99 -6q178 0 288 100q115 103 115 280v802z" />
    <glyph glyph-name="K" unicode="K" horiz-adv-x="1157" 
d="M571 770q107 1 145 27q47 30 77 136l117 409q13 51 81 51h69l-144 -524q-20 -75 -90 -120q87 -58 131 -223l139 -506h-69q-68 0 -81 50l-130 457q-24 76 -64 99q-33 16 -119 16h-384v-554q0 -28 -20 -48t-48 -20h-77v1373h77q28 0 48 -20t20 -48v-555h322z" />
    <glyph glyph-name="L" unicode="L" horiz-adv-x="1138" 
d="M80 1400h72q31 0 52 -21t21 -51v-805q0 -177 114 -280q110 -100 289 -100q171 0 386 67q26 0 48 -21q21 -21 21 -51v-46q-234 -84 -455 -84q-248 0 -395 133q-153 137 -153 382v877z" />
    <glyph glyph-name="M" unicode="M" horiz-adv-x="1761" 
d="M103 20v1308q0 30 21 51t51 21h75q80 -1 113 -83l485 -1201l486 1201q33 82 113 83h75q30 0 51 -21t21 -51v-1308h-72q-31 0 -52 21t-21 51v1184l-474 -1182q-29 -74 -94 -74h-65q-65 0 -94 74l-474 1182v-1184q0 -30 -21 -51t-52 -21h-72z" />
    <glyph glyph-name="N" unicode="N" horiz-adv-x="1367" 
d="M103 1328q0 30 21 51t51 21h138l740 -1238v1238h145v-1308q0 -30 -21 -51t-51 -21h-138l-740 1238v-1166q0 -30 -21 -51t-52 -21h-72v1308z" />
    <glyph glyph-name="O" unicode="O" horiz-adv-x="1294" 
d="M1141 523q0 -245 -153 -382q-147 -133 -395 -133q-247 0 -394 133q-153 137 -153 382v374q0 244 153 382q147 133 394 133q248 0 395 -133q153 -138 153 -382v-374zM305 1177q-114 -104 -114 -280v-374q0 -177 114 -280q110 -100 288 -100q179 0 289 100q114 103 114 280
v374q0 176 -114 280q-110 100 -289 100q-178 0 -288 -100z" />
    <glyph glyph-name="P" unicode="P" horiz-adv-x="1141" 
d="M242 20h-145v1009q0 183 151 288q136 95 334 95h4q200 -1 335 -96q150 -105 150 -287q0 -424 -548 -424h-281v-585zM242 733h281q403 0 403 296q0 125 -110 193q-91 55 -231 55h-5q-137 0 -227 -55q-111 -67 -111 -193v-296z" />
    <glyph glyph-name="Q" unicode="Q" horiz-adv-x="1294" 
d="M1141 523q0 -245 -153 -382q-147 -133 -394 -133q-248 0 -395 133q-153 137 -153 382v374q0 244 153 382q147 133 395 133q247 0 394 -133q153 -138 153 -382v-374zM305 1177q-114 -104 -114 -280v-374q0 -177 114 -280q110 -100 289 -100q178 0 288 100q114 103 114 280
v374q0 176 -114 280q-110 100 -288 100q-179 0 -289 -100z" />
    <glyph glyph-name="R" unicode="R" horiz-adv-x="1166" 
d="M242 20h-145v1009q0 183 151 288q136 95 334 95h4q200 -1 335 -96q150 -105 150 -287q0 -286 -279 -393q89 -56 160 -234l173 -382h-90q-60 0 -83 52l-188 419q-43 114 -216 114h-306v-585zM242 733h281q403 0 403 296q0 125 -110 193q-91 55 -231 55h-5q-137 0 -227 -55
q-111 -67 -111 -193v-296z" />
    <glyph glyph-name="S" unicode="S" horiz-adv-x="1110" 
d="M760 204q112 71 112 192q0 149 -143 207q-60 26 -292 61q-195 30 -279 86q-123 83 -123 267q0 185 137 293q128 102 320 102q221 0 455 -84v-46q0 -30 -21 -51t-47 -21q-215 67 -387 67q-123 0 -212 -64q-100 -73 -100 -196q0 -136 146 -187q45 -18 295 -55
q192 -30 278 -93q118 -86 118 -273v-12q-4 -183 -148 -290q-132 -99 -326 -99q-221 0 -455 84v46q0 30 21 51t47 21q215 -67 387 -67q125 0 217 61z" />
    <glyph glyph-name="T" unicode="T" horiz-adv-x="946" 
d="M86 1265q-28 0 -48 20q-20 19 -20 48v60h899q28 0 48 -20t20 -48v-60h-411v-1177q0 -28 -20 -48t-48 -20h-77v1245h-343z" />
    <glyph glyph-name="U" unicode="U" horiz-adv-x="1207" 
d="M1066 391q0 -182 -150 -287q-135 -95 -335 -96q-201 0 -338 95q-151 105 -151 288v1002h145v-1002q0 -126 111 -193q90 -55 227 -55h5q140 0 231 55q110 68 110 193v1002h145v-1002z" />
    <glyph glyph-name="V" unicode="V" horiz-adv-x="1144" 
d="M646 150l326 1147q25 95 118 95h65l-376 -1287q-24 -96 -117 -96h-142q-93 0 -117 94l-376 1289h65q93 0 117 -94l328 -1148h109z" />
    <glyph glyph-name="W" unicode="W" horiz-adv-x="2044" 
d="M1031 1295l-336 -1190q-24 -96 -113 -96h-78q-90 0 -113 94l-364 1289h62q90 0 113 -94l324 -1148h34l324 1147q23 95 112 95h89q89 0 112 -94l324 -1148h34l324 1147q24 95 113 95h62l-363 -1287q-24 -96 -114 -96h-78q-89 0 -112 94l-336 1192h-20z" />
    <glyph glyph-name="X" unicode="X" horiz-adv-x="1139" 
d="M714 797q47 30 77 136l117 409q13 51 81 51h69l-143 -524q-20 -75 -91 -120q87 -58 131 -223l139 -506h-69q-68 0 -81 50l-130 457q-24 76 -64 99q-33 16 -118 16h-125q-86 0 -119 -16q-42 -23 -63 -99l-130 -457q-14 -50 -82 -50h-69l139 506q45 165 131 223
q-70 45 -90 120l-144 524h69q68 0 82 -51l116 -409q30 -106 78 -136q38 -26 144 -27q107 1 145 27z" />
    <glyph glyph-name="Y" unicode="Y" horiz-adv-x="1097" 
d="M624 88q0 -28 -20 -48t-48 -20h-77v623q-169 1 -216 38q-55 42 -98 206l-139 506h69q68 0 82 -51l130 -456q23 -77 63 -99q31 -17 119 -17h125q87 0 118 17q40 22 64 99l130 456q13 51 81 51h69l-139 -506q-42 -157 -96 -201q-51 -39 -217 -43v-555z" />
    <glyph glyph-name="Z" unicode="Z" horiz-adv-x="1070" 
d="M944 1392q30 0 50 -20q21 -21 21 -51v-96l-828 -1075h756q30 0 50 -20q21 -21 21 -51v-59h-895q-30 0 -50 21q-21 20 -21 50v96l828 1075h-757q-30 0 -50 21q-21 20 -21 50v59h896z" />
    <glyph glyph-name="bracketleft" unicode="[" horiz-adv-x="501" 
d="M110 -364v1955h291v-93h-162v-1769h162v-93h-291z" />
    <glyph glyph-name="backslash" unicode="\" horiz-adv-x="566" 
d="M112 1392h24q25 0 39 -14q14 -15 19 -38l273 -1320h-24q-25 0 -39 14q-14 15 -19 38z" />
    <glyph glyph-name="bracketright" unicode="]" horiz-adv-x="501" 
d="M110 -364v93h162v1769h-162v93h291v-1955h-291z" />
    <glyph glyph-name="asciicircum" unicode="^" horiz-adv-x="944" 
d="M725 825l-245 426l-243 -426h-120l334 581h59l335 -581h-120z" />
    <glyph glyph-name="underscore" unicode="_" horiz-adv-x="1207" 
d="M156 -202q-17 0 -31 18q-15 22 -15 53v29h951q18 0 32 -18q14 -21 14 -52v-30h-951z" />
    <glyph glyph-name="grave" unicode="`" horiz-adv-x="584" 
d="M111 1313q15 93 65 93q19 0 38 -9l270 -237l-24 -28z" />
    <glyph glyph-name="a" unicode="a" horiz-adv-x="1139" 
d="M881 518q0 177 -64 269q-81 115 -269 115t-269 -115q-65 -92 -65 -269q0 -179 61 -269q78 -115 265 -115q261 0 341 288v96zM881 269q-124 -261 -368 -261q-435 0 -435 510t470 510q469 0 469 -510v-498h-68q-28 0 -48 20q-20 19 -20 48v181z" />
    <glyph glyph-name="b" unicode="b" horiz-adv-x="1149" 
d="M236 518q0 -177 65 -269q81 -115 269 -115t269 115q64 92 64 269q0 179 -61 269q-78 115 -265 115q-260 0 -341 -278v-106zM236 767q125 261 368 261q435 0 435 -510t-469 -510q-470 0 -470 510v875h68q28 0 48 -20t20 -48v-558z" />
    <glyph glyph-name="c" unicode="c" horiz-adv-x="971" 
d="M929 96q-146 -88 -381 -88q-470 0 -470 510t470 510q235 0 381 -88v-72q0 -31 -27 -31q-14 0 -30 5q-164 60 -324 60q-188 0 -269 -115q-65 -92 -65 -269t65 -269q81 -115 269 -115q160 0 324 60q16 5 30 5q27 0 27 -31v-72z" />
    <glyph glyph-name="d" unicode="d" horiz-adv-x="1150" 
d="M881 838q-176 64 -333 64q-183 0 -265 -109q-69 -92 -69 -275q0 -184 65 -275q79 -109 261 -109q260 0 341 278v426zM881 269q-124 -261 -368 -261q-435 0 -435 510t470 510q166 0 333 -62v359q0 28 20 48t48 20h68v-1373h-68q-28 0 -48 20q-20 19 -20 48v181z" />
    <glyph glyph-name="e" unicode="e" horiz-adv-x="1035" 
d="M800 586q-13 165 -58 227q-65 89 -223 89q-160 0 -233 -88q-57 -68 -69 -228h583zM79 518q0 510 440 510q239 0 338 -147q81 -119 81 -362q0 -61 -68 -61h-651q8 -324 330 -324q160 0 324 60q16 5 30 5q27 0 27 -31v-72q-146 -88 -381 -88q-470 0 -470 510z" />
    <glyph glyph-name="f" unicode="f" horiz-adv-x="652" 
d="M577 1016q29 0 48 -20q20 -19 20 -48v-60h-345v-800q0 -29 -20 -48q-20 -20 -48 -20h-68v868h-74q-29 0 -48 20q-20 19 -20 48v60h142v40q0 198 102 277q89 70 293 70q95 0 178 -19v-69q0 -48 -63 -48q-60 10 -115 10q-132 0 -189 -41q-70 -50 -70 -180v-40h277z" />
    <glyph glyph-name="g" unicode="g" horiz-adv-x="1138" 
d="M881 518q0 177 -64 269q-81 115 -269 115t-269 -115q-65 -92 -65 -269q0 -179 61 -269q78 -115 265 -115q260 0 341 278v106zM881 269q-124 -261 -368 -261q-435 0 -435 510t470 510q469 0 469 -510v-375q0 -510 -469 -510q-236 0 -382 89v71q0 32 27 32q12 0 30 -5
q164 -61 325 -61q188 0 269 115q64 92 64 269v126z" />
    <glyph glyph-name="h" unicode="h" horiz-adv-x="1114" 
d="M979 20h-68q-28 0 -48 20q-20 19 -20 48v590q0 224 -238 224q-260 0 -341 -267v-547q0 -29 -20 -48q-20 -20 -48 -20h-68v1373h68q28 0 48 -20t20 -48v-558q125 261 368 261q347 0 347 -327v-681z" />
    <glyph glyph-name="i" unicode="i" horiz-adv-x="378" 
d="M126 948q0 29 20 48q20 20 48 20h68v-928q0 -29 -20 -48q-20 -20 -48 -20h-68v928zM126 1325q0 28 20 48t48 20h68v-105q0 -28 -20 -48t-48 -20h-68v105z" />
    <glyph glyph-name="j" unicode="j" horiz-adv-x="405" 
d="M265 -22q0 -179 -81 -260q-72 -72 -231 -85q-26 0 -45 18q-18 19 -18 45v60q112 0 169 41q70 50 70 181v970q0 29 20 48q20 20 48 20h68v-1038zM129 1325q0 28 20 48t48 20h68v-105q0 -28 -20 -48q-19 -20 -48 -20h-68v105z" />
    <glyph glyph-name="k" unicode="k" horiz-adv-x="998" 
d="M130 1393h68q28 0 48 -20t20 -48v-743h278q104 0 130 70l105 309q19 55 93 55h60l-113 -337q-29 -85 -86 -124q78 -55 105 -134l135 -401h-60q-74 0 -91 49l-107 314q-23 71 -111 71h-338v-366q0 -29 -20 -48q-20 -20 -48 -20h-68v1373z" />
    <glyph glyph-name="l" unicode="l" horiz-adv-x="502" 
d="M123 1393h68q28 0 48 -20t20 -48v-978q0 -176 60 -196q29 -8 65 -8q25 0 52 4q63 0 63 -49v-69q-59 -14 -135 -14q-24 0 -46 2q-94 7 -144.5 71.5t-50.5 258.5v1046z" />
    <glyph glyph-name="m" unicode="m" horiz-adv-x="1646" 
d="M748 678q0 127 -53 178q-46 46 -150 46q-207 0 -288 -267v-547q0 -29 -20 -48q-20 -20 -48 -20h-68v996h68q28 0 48 -20q20 -19 20 -48v-181q125 261 315 261q244 0 311 -247q133 247 316 247q313 0 313 -327v-681h-68q-29 0 -48 20q-20 19 -20 48v590q0 127 -53 178
q-47 46 -151 46q-207 0 -288 -267v-547q0 -29 -19 -48q-20 -20 -49 -20h-68v658z" />
    <glyph glyph-name="n" unicode="n" horiz-adv-x="1104" 
d="M972 20h-68q-28 0 -48 20q-20 19 -20 48v590q0 224 -238 224q-260 0 -341 -268v-546q0 -29 -20 -48q-20 -20 -48 -20h-68v996h68q28 0 48 -20q20 -19 20 -48v-181q125 261 368 261q347 0 347 -327v-681z" />
    <glyph glyph-name="o" unicode="o" horiz-adv-x="1121" 
d="M548 901q-188 0 -269 -114q-65 -92 -65 -269t65 -270q81 -114 269 -114t269 114q64 93 64 270t-64 269q-81 114 -269 114zM1017 518q0 -510 -469 -510q-470 0 -470 510t470 510q469 0 469 -510z" />
    <glyph glyph-name="p" unicode="p" horiz-adv-x="1164" 
d="M258 198q177 -64 334 -64q183 0 264 108q69 93 69 276q0 184 -65 275q-78 108 -261 108q-266 0 -341 -250v-453zM258 767q125 261 368 261q435 0 435 -510t-469 -510q-166 0 -334 62v-359q0 -28 -20 -48t-48 -20h-68v1373h68q28 0 48 -20t20 -48v-181z" />
    <glyph glyph-name="q" unicode="q" horiz-adv-x="1141" 
d="M881 518q0 177 -64 269q-81 114 -269 114t-269 -114q-65 -92 -65 -269q0 -179 61 -270q78 -114 265 -114q267 0 341 251v133zM881 268q-124 -260 -368 -260q-435 0 -435 510t470 510q469 0 469 -510v-875h-68q-28 0 -48 20t-20 48v557z" />
    <glyph glyph-name="r" unicode="r" horiz-adv-x="810" 
d="M121 1016h68q28 0 48 -20t20 -48v-181q125 261 315 261q94 0 178 -19v-69q0 -48 -63 -48q-61 9 -142 9q-207 0 -288 -267v-546q0 -29 -20 -49q-20 -19 -48 -19h-68v996z" />
    <glyph glyph-name="s" unicode="s" horiz-adv-x="877" 
d="M757 939v-71q0 -32 -27 -32q-12 0 -30 5q-165 60 -299 60q-94 0 -149 -51q-51 -46 -51 -112q0 -86 105 -119q3 -2 207 -41q133 -23 194 -75q80 -66 80 -197v-9q-2 -118 -89 -199q-96 -90 -261 -90q-211 0 -357 88v71q0 32 28 32q13 0 29 -5q165 -60 300 -60q94 0 153 49
q58 47 58 114q0 96 -104 134q-28 12 -205 44q-133 23 -193 69q-84 63 -84 194q0 119 82 199q92 91 257 91q210 0 356 -89z" />
    <glyph glyph-name="t" unicode="t" horiz-adv-x="783" 
d="M111 888q-28 0 -48 20q-20 19 -20 48v60h145v203q0 29 20 48q20 20 48 20h68v-271h349q28 0 48 -20t20 -48v-60h-417v-533q0 -131 70 -181q58 -40 190 -40q55 0 115 9q63 0 63 -48v-69q-83 -18 -178 -18q-205 0 -294 70q-102 79 -102 277v533h-77z" />
    <glyph glyph-name="u" unicode="u" horiz-adv-x="1108" 
d="M834 268q-124 -260 -368 -260q-347 0 -347 327v681h68q28 0 48 -20t20 -48v-590q0 -224 238 -224q267 0 341 261v553q0 28 20 48t48 20h68v-996h-68q-28 0 -48 19q-20 20 -20 49v180z" />
    <glyph glyph-name="v" unicode="v" horiz-adv-x="897" 
d="M456 123l245 817q20 76 97 76h64l-276 -920q-20 -76 -97 -76h-102q-77 0 -97 76l-276 920h64q77 0 97 -76l245 -817h36z" />
    <glyph glyph-name="w" unicode="w" horiz-adv-x="1501" 
d="M376 136h44l180 806q20 74 96 74h76q76 0 96 -76l204 -804h44l171 806q20 74 97 74h45l-187 -922q-20 -74 -97 -74h-103q-76 0 -96 76l-203 804h-33l-163 -806q-20 -74 -97 -74h-102q-77 0 -97 75l-231 921h64q77 0 97 -74z" />
    <glyph glyph-name="x" unicode="x" horiz-adv-x="925" 
d="M416 454q-88 0 -111 -72l-105 -310q-19 -52 -93 -52h-60l135 401q27 79 108 133q-60 40 -88 125l-114 337h60q74 0 94 -58l105 -307q25 -68 111 -69h22q86 1 111 69l105 307q20 58 94 58h60l-114 -337q-28 -85 -88 -125q81 -54 108 -133l135 -401h-60q-74 0 -93 52
l-105 310q-23 72 -111 72h-106z" />
    <glyph glyph-name="y" unicode="y" horiz-adv-x="1111" 
d="M969 143q0 -510 -469 -510q-236 0 -382 88v71q0 32 28 32q13 0 29 -5q164 -60 325 -60q188 0 269 115q64 92 64 269v125q-124 -260 -368 -260q-347 0 -347 327v681h68q28 0 48 -20t20 -48v-590q0 -224 238 -224q260 0 341 278v536q0 28 20 48t48 20h68v-873z" />
    <glyph glyph-name="z" unicode="z" horiz-adv-x="844" 
d="M721 1016q28 0 48 -20t20 -48v-72l-584 -729h516q28 0 48 -19q20 -20 20 -49v-59h-668q-28 0 -48 19q-20 20 -20 49v71l584 729h-516q-28 0 -48 20q-20 19 -20 48v60h668z" />
    <glyph glyph-name="braceleft" unicode="{" horiz-adv-x="768" 
d="M367 561q81 -112 81 -293q0 -55 -7 -117q-13 -106 -13 -180q0 -124 36 -164q64 -77 166 -77q29 0 38 2v-92q-22 -4 -57 -4q-132 0 -220 107q-81 112 -81 293q0 55 8 118q13 104 13 178q0 124 -37 165q-45 55 -114 72l-70 3v91l70 3q69 17 114 72q37 41 37 165
q0 74 -13 179q-8 62 -8 117q0 181 81 293q88 107 220 107q35 0 57 -4v-92q-9 2 -38 2q-102 0 -166 -77q-36 -40 -36 -163q0 -75 13 -180q8 -63 8 -117q0 -182 -82 -294q-18 -23 -57 -57q39 -33 57 -56z" />
    <glyph glyph-name="bar" unicode="|" horiz-adv-x="306" 
d="M110 1608q0 29 20 49q20 19 48 19h28v-1863q0 -29 -19 -49q-20 -19 -49 -19h-28v1863z" />
    <glyph glyph-name="braceright" unicode="}" horiz-adv-x="768" 
d="M468 617q-39 34 -57 57q-82 112 -82 294q0 54 8 117q13 105 13 180q0 123 -36 163q-64 77 -166 77q-29 0 -38 -2v92q22 4 57 4q132 0 220 -107q81 -112 81 -293q0 -55 -8 -117q-13 -105 -13 -179q0 -124 37 -165q45 -55 114 -72l70 -3v-91l-70 -3q-69 -17 -114 -72
q-37 -41 -37 -165q0 -74 13 -178q8 -63 8 -118q0 -181 -81 -293q-88 -107 -220 -107q-35 0 -57 4v92q9 -2 38 -2q102 0 166 77q36 40 36 164q0 74 -12 180q-8 62 -8 117q0 181 81 293q18 23 57 56z" />
    <glyph glyph-name="asciitilde" unicode="~" horiz-adv-x="980" 
d="M328 716q-55 0 -115 -30q-31 -15 -63 -43l-4 -4q-11 -11 -26 -11q-9 0 -9 -1v77q56 65 111 89t106 24q59 0 168 -44t167 -44q55 0 115 30q31 15 63 43l4 4q11 11 26 11q9 0 9 1v-77q-56 -65 -111 -89t-106 -24q-53 0 -165 44t-170 44z" />
    <glyph glyph-name="exclamdown" unicode="&#xa1;" horiz-adv-x="902" 
d="M722 -288q0 -29 -20 -49q-20 -19 -48 -19h-124l47 964q0 29 20 49q20 19 48 19h29zM698 912q0 -29 -21 -48q-21 -20 -52 -20h-72v104q0 29 21 49q21 19 51 19h73v-104z" />
    <glyph glyph-name="cent" unicode="&#xa2;" horiz-adv-x="1061" 
d="M468 146l154 756h-42q-188 0 -269 -115q-65 -92 -65 -269t65 -269q48 -67 157 -103zM537 134h43q160 0 324 60q16 5 30 5q27 0 27 -31v-72q-146 -88 -381 -88q-27 0 -69 4l-27 -128q-5 -23 -19 -38q-14 -14 -39 -14h-24l40 188q-332 80 -332 498q0 510 470 510
q27 0 69 -1l26 125q5 23 19 38q14 14 39 14h24l-39 -184q152 -26 243 -80v-72q0 -31 -27 -31q-14 0 -30 5q-97 35 -212 52z" />
    <glyph glyph-name="sterling" unicode="&#xa3;" horiz-adv-x="1257" 
d="M300 681q-7 42 -11 60q-27 130 -27 232q0 218 123 304q139 135 367 135q171 0 405 -84v-46q0 -30 -21 -51q-22 -21 -48 -21q-215 67 -336 67q-159 0 -259 -100q-82 -66 -82 -228q0 -92 27 -216q4 -18 11 -52h534q18 0 32 -18q14 -21 14 -52v-30h-567q1 -46 1 -71
q1 -21 1 -41q0 -175 -99 -321h697q28 0 48 -20t20 -48v-60h-1047v74q0 49 71 49q164 93 164 304q0 36 -4 73q0 19 -1 61h-157q-17 0 -31 18q-15 22 -15 53v29h190z" />
    <glyph glyph-name="currency" unicode="&#xa4;" horiz-adv-x="1072" 
d="M550 1029q-150 0 -215 -88q-52 -70 -52 -205t52 -206q65 -88 215 -88t215 88q52 71 52 206t-52 205q-65 88 -215 88zM871 517l61 -61q13 -13 13 -34q0 -4 -1 -9q-7 -33 -33 -60l-27 -27l-95 94q-99 -63 -239 -63q-146 0 -246 69l-60 -60q-13 -13 -34 -13q-4 0 -9 1
q-33 7 -60 33l-27 27l111 111q-40 93 -40 211q0 137 53 237l-83 82q-14 14 -14 36q0 4 1 8q7 31 33 58l27 27l122 -122q97 53 226 53q128 0 223 -53l21 31l49 50q14 14 36 14q4 0 8 -1q31 -7 58 -33l27 -27l-114 -114q57 -104 57 -246q0 -124 -44 -219z" />
    <glyph glyph-name="yen" unicode="&#xa5;" horiz-adv-x="1263" 
d="M566 512v131q-169 1 -216 38q-55 42 -98 206l-139 506h69q68 0 82 -51l130 -456q23 -77 63 -99q31 -17 119 -17h125q87 0 118 17q40 22 64 99l130 456q13 51 81 51h69l-139 -506q-42 -157 -96 -201q-51 -39 -217 -43v-131h290q18 0 32 -18q14 -22 14 -53v-29h-336v-157
h290q18 0 32 -18q14 -21 14 -52v-30h-336v-67q0 -28 -20 -48t-48 -20h-77v135h-290q-17 0 -31 18q-15 22 -15 53v29h336v157h-290q-17 0 -31 18q-15 22 -15 53v29h336z" />
    <glyph glyph-name="brokenbar" unicode="&#xa6;" horiz-adv-x="336" 
d="M110 1038q0 12.4697 20 21.0703q20 8.16992 48 8.16992h28v-801.077q0 -12.4697 -19 -21.0693q-20 -8.16992 -49 -8.16992h-28v801.076zM110 529.321q0 12.4697 20 21.0693q20 8.16992 48 8.16992h28v-801.076q0 -12.4697 -19 -21.0703q-20 -8.16992 -49 -8.16992h-28
v801.077z" />
    <glyph glyph-name="section" unicode="&#xa7;" horiz-adv-x="1081" 
d="M844 247q27 -17 32 -21q105 -76 105 -241v-11q-4 -162 -131 -257q-117 -87 -290 -87q-196 0 -403 74v39q0 26 18 44t40 18q192 -59 345 -59q112 0 195 54q101 64 101 173q0 135 -129 187q-54 23 -260 54q-174 27 -249 77q-108 73 -108 236q0 164 143 277q-29 18 -34 22
q-109 73 -109 236q0 164 121 260q113 90 284 90q197 0 404 -74v-40q0 -26 -18 -44q-19 -18 -40 -18q-192 60 -346 60q-110 0 -190 -57q-90 -66 -90 -177q0 -123 132 -169q40 -16 262 -49q171 -27 248 -82q104 -76 104 -242v-11q-4 -152 -137 -262zM683 300q42 14 73 36
q100 64 100 173q0 134 -129 186q-53 23 -260 55q-13 2 -28 3q-64 -14 -114 -50q-90 -65 -90 -176q0 -123 131 -169q42 -16 262 -49q26 -4 55 -9z" />
    <glyph glyph-name="dieresis" unicode="&#xa8;" horiz-adv-x="688" 
d="M110 1229q0 28 21 48t52 20h72v-105q0 -28 -21 -48t-51 -20h-73v105zM588 1124h-73q-30 0 -51 20t-21 48v105h72q31 0 52 -20t21 -48v-105z" />
    <glyph glyph-name="copyright" unicode="&#xa9;" horiz-adv-x="1652" 
d="M506 818q0 143 89 223q85 77 230 77q131 0 265 -48v-22q0 -35 -32 -35q-128 40 -233 40q-110 0 -178 -62q-71 -64 -71 -173v-224q0 -109 71 -173q68 -62 178 -62q105 0 233 40q32 0 32 -36v-21q-134 -48 -265 -48q-145 0 -230 77q-89 80 -89 223v224zM798 1382
q326 0 476 -175q141 -166 141 -501q0 -336 -141 -500q-150 -176 -476 -176q-327 0 -477 176q-141 164 -141 500q0 335 141 501q150 175 477 175zM798 1321q-543 0 -543 -615t543 -615q542 0 542 615t-542 615z" />
    <glyph glyph-name="ordfeminine" unicode="&#xaa;" horiz-adv-x="820" 
d="M599.256 782.368q0 106.195 -42.2383 161.394q-53.458 68.9971 -177.533 68.9971t-177.532 -68.9971q-42.8984 -55.1982 -42.8984 -161.394q0 -107.396 40.2578 -161.394q51.4785 -68.9971 174.894 -68.9971q172.253 0 225.051 172.793v57.5977zM599.256 632.975
q-81.8369 -156.594 -242.87 -156.594q-287.089 0 -287.089 305.987t310.188 305.987q309.527 0 309.527 -305.987v-298.788h-44.8779q-18.4795 0 -31.6787 12q-13.1992 11.3994 -13.1992 28.7988v108.596z" />
    <glyph glyph-name="guillemotleft" unicode="&#xab;" horiz-adv-x="813" 
d="M372 324q24 -43 24 -139l-286 312v66l286 312q0 -96 -24 -139l-141 -206zM659 324q24 -43 24 -139l-286 312v66l286 312q0 -96 -24 -139l-141 -206z" />
    <glyph glyph-name="logicalnot" unicode="&#xac;" horiz-adv-x="950" 
d="M750 644h-594q-17 0 -31 18q-15 22 -15 53v29h740v-346q0 -17 -18 -31q-22 -15 -53 -15h-29v292z" />
    <glyph glyph-name="registered" unicode="&#xae;" horiz-adv-x="1445" 
d="M728 1382q326 0 476 -175q141 -166 141 -501q0 -336 -141 -500q-150 -176 -476 -176q-327 0 -477 176q-141 164 -141 500q0 335 141 501q150 175 477 175zM728 1321q-543 0 -543 -615t543 -615q542 0 542 615t-542 615zM494 293h-72v602q0 106 88 168q79 55 196 55h4
q118 0 197 -56q87 -61 87 -167q0 -167 -177 -236q64 -41 107 -146l99 -220h-42q-32 0 -44 27l-113 253q-27 74 -137 74h-193v-354zM494 708h178q251 0 251 187q0 80 -71 122q-56 36 -143 36t-144 -34q-71 -43 -71 -124v-187z" />
    <glyph glyph-name="macron" unicode="&#xaf;" horiz-adv-x="1066" 
d="M156 1150q-17 0 -31 18q-15 22 -15 53v29h810q18 0 32 -18q14 -21 14 -52v-30h-810z" />
    <glyph glyph-name="degree" unicode="&#xb0;" horiz-adv-x="786" 
d="M398 1382q-122 0 -175 -75q-42 -60 -42 -173q0 -114 42 -175q53 -75 175 -75t176 75q41 61 41 175q0 113 -41 173q-54 75 -176 75zM686 1134q0 -314 -288 -314t-288 314q0 313 288 313t288 -313z" />
    <glyph glyph-name="plusminus" unicode="&#xb1;" horiz-adv-x="1159" 
d="M520 644h-364q-17 0 -31 18q-15 22 -15 53v29h410v364q0 18 18 32q21 14 52 14h30v-410h363q18 0 32 -18q14 -21 14 -52v-30h-409v-363q0 -17 -18 -31q-22 -15 -53 -15h-29v409zM156 20q-17 0 -31 18q-15 22 -15 53v29h873q18 0 32 -18q14 -21 14 -52v-30h-873z" />
    <glyph glyph-name="uni00B2" unicode="&#xb2;" horiz-adv-x="723" 
d="M143 570q-13 0 -23 9q-10 10 -10 24v24q0 83 63 150q41 44 147 113q114 71 155 112q74 75 74 165q0 79 -62 121q-55 36 -139 36q-67 0 -195 -41q-11 0 -22 11q-10 10 -10 25v22q134 48 227 48q115 0 189 -55q83 -60 83 -167q0 -158 -194 -285q-133 -84 -148 -97
q-77 -62 -92 -155l404 1q14 0 23 -10q10 -9 10 -23v-28h-480z" />
    <glyph glyph-name="uni00B3" unicode="&#xb3;" horiz-adv-x="754" 
d="M346 1389q116 0 191 -56q81 -60 81 -166q0 -116 -141 -181q177 -53 177 -194q0 -229 -309 -229q-101 0 -235 48v21q0 16 11 26q10 10 21 10q142 -44 203 -44q136 0 193 47q45 43 45 121q0 80 -47 118q-54 45 -191 45h-81v61h81q117 5 163 44q39 34 39 107q0 79 -63 121
q-54 36 -139 36q-49 0 -177 -41q-11 0 -22 11q-10 10 -10 25v22q134 48 209 48h1z" />
    <glyph glyph-name="acute" unicode="&#xb4;" horiz-adv-x="587" 
d="M138 1132l-24 28l270 237q19 9 38 9q50 0 65 -93z" />
    <glyph glyph-name="mu" unicode="&#xb5;" horiz-adv-x="1061" 
d="M110 1016h68q28 0 48 -20t20 -48v-590q0 -224 238 -224q267 0 341 211v603q0 28 20 48t48 20h68v-996h-68q-28 0 -48 19q-20 20 -20 49v180q-124 -260 -368 -260q-109 0 -211 43v-288h-68q-28 0 -48 20t-20 48v1185z" />
    <glyph glyph-name="paragraph" unicode="&#xb6;" horiz-adv-x="1161" 
d="M911 88q0 -30 -16 -50q-14 -18 -32 -18h-55v1270h-202v-1202q0 -30 -16 -50q-14 -18 -32 -18h-55v694q-59 -10 -99 -10q-168 0 -237 98q-57 81 -57 246t57 245q69 98 237 98h23v2h634v-55q0 -18 -18 -32q-20 -16 -50 -16h-82v-1202z" />
    <glyph glyph-name="periodcentered" unicode="&#xb7;" horiz-adv-x="357" 
d="M158.096 628.982q0 24.6484 17.8496 40.7988q17.8496 16.999 43.3486 16.999h62.0479v-88.3975q0 -24.6494 -17.8496 -41.6484q-17.8496 -16.1504 -44.1982 -16.1504h-61.1982v88.3984z" />
    <glyph glyph-name="periodcentered" unicode="&#x2219;" horiz-adv-x="357" 
d="M158.096 628.982q0 24.6484 17.8496 40.7988q17.8496 16.999 43.3486 16.999h62.0479v-88.3975q0 -24.6494 -17.8496 -41.6484q-17.8496 -16.1504 -44.1982 -16.1504h-61.1982v88.3984z" />
    <glyph glyph-name="cedilla" unicode="&#xb8;" horiz-adv-x="551" 
d="M323 -18l-31 -46q159 -78 159 -164q0 -46 -39 -98q-46 -44 -114 -44q-81 0 -184 60l-4 39v4q0 9 5 9h4q5 0 11 -2q97 -38 156 -38q49 0 78 29q9 24 9 43q0 87 -143 127l43 81h50z" />
    <glyph glyph-name="uni00B9" unicode="&#xb9;" horiz-adv-x="723" 
d="M402 631h188q14 0 23 -10q10 -9 10 -23v-28h-480q-13 0 -23 9q-10 10 -10 24v27h221v734l-151 -193h-13q-15 0 -25 15q-5 7 -5 12q0 4 2 7l85 127q29 45 75 45h70q14 0 24 -9q9 -9 9 -24v-713z" />
    <glyph glyph-name="ordmasculine" unicode="&#xba;" horiz-adv-x="846" 
d="M407.203 1010.96q-124.074 0 -177.532 -68.3975q-42.8984 -55.1973 -42.8984 -161.394q0 -106.195 42.8984 -161.993q53.458 -68.3975 177.532 -68.3975q124.075 0 177.533 68.3975q42.2383 55.7979 42.2383 161.993q0 106.196 -42.2383 161.394
q-53.458 68.3975 -177.533 68.3975zM716.73 781.168q0 -305.987 -309.527 -305.987q-310.188 0 -310.188 305.987q0 305.988 310.188 305.988q309.527 0 309.527 -305.988zM133.5 517q-8.5 0 -15.5 18q-7.5 22 -7.5 53v29h475.5q9 0 16 -18q7 -21 7 -52v-30h-475.5z" />
    <glyph glyph-name="guillemotright" unicode="&#xbb;" horiz-adv-x="813" 
d="M275 530l-141 206q-24 43 -24 139l286 -312v-66l-286 -312q0 96 24 139zM562 530l-141 206q-24 43 -24 139l286 -312v-66l-286 -312q0 96 24 139z" />
    <glyph glyph-name="onequarter" unicode="&#xbc;" horiz-adv-x="1982" 
d="M402 631h188q14 0 23 -10q10 -9 10 -23v-28h-480q-13 0 -23 9q-10 10 -10 24v27h221v734l-151 -193h-13q-15 0 -25 15q-5 7 -5 12q0 4 2 7l85 127q29 45 75 45h70q14 0 24 -9q9 -9 9 -24v-713zM867 72q-5 -23 -19 -38q-14 -14 -39 -14h-24l273 1320q5 23 19 38
q14 14 39 14h24zM1775 267h73q14 0 24 -11q10 -9 10 -24v-28h-107v-204h-38q-14 0 -23 9q-9 10 -9 24v171h-371q-15 0 -25 10t-10 25v55l298 468q30 45 76 45h69q14 0 24 -9q9 -9 9 -24v-507zM1362 267h343v537z" />
    <glyph glyph-name="onehalf" unicode="&#xbd;" horiz-adv-x="1912" 
d="M402 631h188q14 0 23 -10q10 -9 10 -23v-28h-480q-13 0 -23 9q-10 10 -10 24v27h221v734l-151 -193h-13q-15 0 -25 15q-5 7 -5 12q0 4 2 7l85 127q29 45 75 45h70q14 0 24 -9q9 -9 9 -24v-713zM867 72q-5 -23 -19 -38q-14 -14 -39 -14h-24l273 1320q5 23 19 38
q14 14 39 14h24zM1332 0q-13 0 -23 9q-10 10 -10 24v24q0 83 63 150q41 44 147 113q114 71 155 112q74 75 74 165q0 79 -62 121q-55 36 -139 36q-67 0 -195 -41q-11 0 -22 11q-10 10 -10 25v22q134 48 227 48q115 0 189 -55q83 -60 83 -167q0 -158 -194 -285
q-133 -84 -148 -97q-77 -62 -92 -155l404 1q14 0 23 -10q10 -9 10 -23v-28h-480z" />
    <glyph glyph-name="threequarters" unicode="&#xbe;" horiz-adv-x="2013" 
d="M346 1389q116 0 191 -56q81 -60 81 -166q0 -116 -141 -181q177 -53 177 -194q0 -229 -309 -229q-101 0 -235 48v21q0 16 11 26q10 10 21 10q142 -44 203 -44q136 0 193 47q45 43 45 121q0 80 -47 118q-54 45 -191 45h-81v61h81q117 5 163 44q39 34 39 107q0 79 -63 121
q-54 36 -139 36q-49 0 -177 -41q-11 0 -22 11q-10 10 -10 25v22q134 48 209 48h1zM898 72q-5 -23 -19 -38q-14 -14 -39 -14h-24l273 1320q5 23 19 38q14 14 39 14h24zM1806 267h73q14 0 24 -11q10 -9 10 -24v-28h-107v-204h-38q-14 0 -23 9q-9 10 -9 24v171h-371
q-15 0 -25 10t-10 25v55l298 468q30 45 76 45h69q14 0 24 -9q9 -9 9 -24v-507zM1393 267h343v537z" />
    <glyph glyph-name="questiondown" unicode="&#xbf;" horiz-adv-x="1152" 
d="M1026 608q0 29 20 49q20 19 48 19h31l23 -361q0 -30 -20 -50q-21 -21 -50 -21q-410 0 -410 -225q0 -123 101 -196q88 -63 212 -63q172 0 386 67q27 0 48 -21t21 -52v-46q-234 -83 -455 -83q-193 0 -320 101q-137 109 -137 293q0 201 149 283q84 46 342 83zM1149 912
q0 -29 -21 -48q-21 -20 -51 -20h-73v104q0 29 21 49q21 19 52 19h72v-104z" />
    <glyph glyph-name="Agrave" unicode="&#xc0;" horiz-adv-x="1243" 
d="M543 1270l-231 -801h556l-231 801h-94zM273 341l-65 -226q-24 -95 -117 -95h-65l376 1289q24 94 117 94h142q93 0 117 -95l376 -1288h-65q-93 0 -118 96l-65 225h-633zM330 1690q15 93 65 93q19 0 38 -9l270 -237l-24 -28z" />
    <glyph glyph-name="Aacute" unicode="&#xc1;" horiz-adv-x="1243" 
d="M543 1270l-231 -801h556l-231 801h-94zM273 341l-65 -226q-24 -95 -117 -95h-65l376 1289q24 94 117 94h142q93 0 117 -95l376 -1288h-65q-93 0 -118 96l-65 225h-633zM501 1509l-24 28l270 237q19 9 38 9q50 0 65 -93z" />
    <glyph glyph-name="Acircumflex" unicode="&#xc2;" horiz-adv-x="1243" 
d="M543 1270l-231 -801h556l-231 801h-94zM273 341l-65 -226q-24 -95 -117 -95h-65l376 1289q24 94 117 94h142q93 0 117 -95l376 -1288h-65q-93 0 -118 96l-65 225h-633zM591 1648l-270 -140l-25 29q117 100 266 233h57l266 -233l-24 -28z" />
    <glyph glyph-name="Atilde" unicode="&#xc3;" horiz-adv-x="1243" 
d="M543 1270l-231 -801h556l-231 801h-94zM273 341l-65 -226q-24 -95 -117 -95h-65l376 1289q24 94 117 94h142q93 0 117 -95l376 -1288h-65q-93 0 -118 96l-65 225h-633zM877 1624q-78 -92 -167 -92q-52 0 -109 36q-86 52 -163 52q-78 0 -120 -36l-14 36q72 82 156 82
q53 0 113 -37q82 -49 157 -49q85 0 134 44z" />
    <glyph glyph-name="Adieresis" unicode="&#xc4;" horiz-adv-x="1243" 
d="M543 1270l-231 -801h556l-231 801h-94zM273 341l-65 -226q-24 -95 -117 -95h-65l376 1289q24 94 117 94h142q93 0 117 -95l376 -1288h-65q-93 0 -118 96l-65 225h-633zM351 1606q0 28 21 48t52 20h72v-105q0 -28 -21 -48t-51 -20h-73v105zM829 1501h-73q-30 0 -51 20
t-21 48v105h72q31 0 52 -20t21 -48v-105z" />
    <glyph glyph-name="Aring" unicode="&#xc5;" horiz-adv-x="1243" 
d="M543 1270l-231 -801h556l-231 801h-94zM273 341l-65 -226q-24 -95 -117 -95h-65l376 1289q24 94 117 94h142q93 0 117 -95l376 -1288h-65q-93 0 -118 96l-65 225h-633zM703.5 1723.5q46.5 -46.5 46.5 -113.5q0 -66 -46.5 -113t-113.5 -47t-113.5 47t-46.5 113
q0 67 46.5 113.5t113.5 46.5t113.5 -46.5zM590 1714q-43 0 -73 -30.5t-30 -73.5q0 -42 30 -72.5t73 -30.5t73.5 30.5t30.5 72.5q0 43 -30.5 73.5t-73.5 30.5z" />
    <glyph glyph-name="AE" unicode="&#xc6;" horiz-adv-x="1851" 
d="M1209 1403q58 9 121 9q222 0 456 -84v-46q0 -30 -22 -51q-21 -21 -47 -21q-214 67 -387 67q-178 0 -288 -100q-114 -104 -114 -280v-108h697q29 0 48 -19q20 -20 20 -49v-59h-765v-139q0 -177 114 -280q110 -100 288 -100q173 0 387 67q26 0 47 -21q22 -21 22 -51v-46
q-234 -84 -456 -84q-247 0 -394 133q-85 78 -128 200h-535l-65 -226q-24 -95 -117 -95h-65l376 1289q24 94 117 94h690zM924 1270h-381l-231 -801h474q-3 37 -3 54v374q0 208 141 373z" />
    <glyph glyph-name="Ccedilla" unicode="&#xc7;" horiz-adv-x="1115" 
d="M608 8l-49 -72q159 -78 159 -164q0 -46 -39 -98q-46 -44 -114 -44q-81 0 -184 60l-4 39v4q0 9 5 9h4q5 0 11 -2q97 -38 156 -38q49 0 78 29q9 24 9 43q0 87 -143 127l57 108q-230 19 -355 132q-153 137 -153 382v374q0 244 153 382q147 133 395 133q221 0 455 -84v-46
q0 -30 -22 -51q-21 -21 -47 -21q-215 67 -386 67q-179 0 -289 -100q-114 -104 -114 -280v-374q0 -177 114 -280q110 -100 289 -100q171 0 386 67q26 0 47 -21q22 -21 22 -51v-46q-221 -79 -441 -84z" />
    <glyph glyph-name="Egrave" unicode="&#xc8;" horiz-adv-x="1133" 
d="M35 897q0 244 153 382q147 133 394 133q222 0 456 -84v-46q0 -30 -22 -51q-21 -21 -47 -21q-214 67 -387 67q-178 0 -288 -100q-114 -104 -114 -280v-108h697q29 0 48 -19q20 -20 20 -49v-59h-765v-139q0 -177 114 -280q110 -100 288 -100q173 0 387 67q26 0 47 -21
q22 -21 22 -51v-46q-234 -84 -456 -84q-247 0 -394 133q-153 137 -153 382v374zM277 1690q15 93 65 93q19 0 38 -9l270 -237l-24 -28z" />
    <glyph glyph-name="Eacute" unicode="&#xc9;" horiz-adv-x="1133" 
d="M35 897q0 244 153 382q147 133 394 133q222 0 456 -84v-46q0 -30 -22 -51q-21 -21 -47 -21q-214 67 -387 67q-178 0 -288 -100q-114 -104 -114 -280v-108h697q29 0 48 -19q20 -20 20 -49v-59h-765v-139q0 -177 114 -280q110 -100 288 -100q173 0 387 67q26 0 47 -21
q22 -21 22 -51v-46q-234 -84 -456 -84q-247 0 -394 133q-153 137 -153 382v374zM448 1509l-24 28l270 237q19 9 38 9q50 0 65 -93z" />
    <glyph glyph-name="Ecircumflex" unicode="&#xca;" horiz-adv-x="1133" 
d="M35 897q0 244 153 382q147 133 394 133q222 0 456 -84v-46q0 -30 -22 -51q-21 -21 -47 -21q-214 67 -387 67q-178 0 -288 -100q-114 -104 -114 -280v-108h697q29 0 48 -19q20 -20 20 -49v-59h-765v-139q0 -177 114 -280q110 -100 288 -100q173 0 387 67q26 0 47 -21
q22 -21 22 -51v-46q-234 -84 -456 -84q-247 0 -394 133q-153 137 -153 382v374zM537 1648l-270 -140l-25 29q117 100 266 233h57l266 -233l-24 -28z" />
    <glyph glyph-name="Edieresis" unicode="&#xcb;" horiz-adv-x="1133" 
d="M35 897q0 244 153 382q147 133 394 133q222 0 456 -84v-46q0 -30 -22 -51q-21 -21 -47 -21q-214 67 -387 67q-178 0 -288 -100q-114 -104 -114 -280v-108h697q29 0 48 -19q20 -20 20 -49v-59h-765v-139q0 -177 114 -280q110 -100 288 -100q173 0 387 67q26 0 47 -21
q22 -21 22 -51v-46q-234 -84 -456 -84q-247 0 -394 133q-153 137 -153 382v374zM298 1606q0 28 21 48t52 20h72v-105q0 -28 -21 -48t-51 -20h-73v105zM776 1501h-73q-30 0 -51 20t-21 48v105h72q31 0 52 -20t21 -48v-105z" />
    <glyph glyph-name="Igrave" unicode="&#xcc;" horiz-adv-x="449" 
d="M292 1325q0 28 20 48t48 20h77v-1305q0 -28 -20 -48t-48 -20h-77v1305zM105 1690q15 93 65 93q19 0 38 -9l270 -237l-24 -28z" />
    <glyph glyph-name="Iacute" unicode="&#xcd;" horiz-adv-x="449" 
d="M148 1325q0 28 20 48t48 20h77v-1305q0 -28 -20 -48t-48 -20h-77v1305zM132 1509l-24 28l270 237q19 9 38 9q50 0 65 -93z" />
    <glyph glyph-name="Icircumflex" unicode="&#xce;" horiz-adv-x="449" 
d="M330 1325q0 28 20 48t48 20h77v-1305q0 -28 -20 -48t-48 -20h-77v1305zM403 1648l-270 -140l-25 29q117 100 266 233h57l266 -233l-24 -28z" />
    <glyph glyph-name="Idieresis" unicode="&#xcf;" horiz-adv-x="449" 
d="M270 1325q0 28 20 48t48 20h77v-1305q0 -28 -20 -48t-48 -20h-77v1305zM104 1606q0 28 21 48t52 20h72v-105q0 -28 -21 -48t-51 -20h-73v105zM582 1501h-73q-30 0 -51 20t-21 48v105h72q31 0 52 -20t21 -48v-105z" />
    <glyph glyph-name="Eth" unicode="&#xd0;" horiz-adv-x="1371" 
d="M270 666v-518h403q178 0 288 100q114 103 114 279v370q0 176 -114 280q-110 100 -288 100q-179 0 -289 -100q-114 -104 -114 -280v-131h246q18 0 32 -18q14 -21 14 -52v-30h-292zM125 766v131q0 244 153 382q147 133 395 133q247 0 394 -133q153 -138 153 -382v-362
q0 -245 -153 -382q-147 -133 -394 -133h-548v646h-104q-17 0 -31 18q-15 22 -15 53v29h150z" />
    <glyph glyph-name="Ntilde" unicode="&#xd1;" horiz-adv-x="1397" 
d="M103 1328q0 30 21 51t51 21h138l740 -1238v1238h145v-1308q0 -30 -21 -51t-51 -21h-138l-740 1238v-1166q0 -30 -21 -51t-52 -21h-72v1308zM937 1624q-78 -92 -167 -92q-52 0 -109 36q-86 52 -163 52q-78 0 -120 -36l-14 36q72 82 156 82q53 0 113 -37q82 -49 157 -49
q85 0 134 44z" />
    <glyph glyph-name="Ograve" unicode="&#xd2;" horiz-adv-x="1324" 
d="M1141 523q0 -245 -153 -382q-147 -133 -395 -133q-247 0 -394 133q-153 137 -153 382v374q0 244 153 382q147 133 394 133q248 0 395 -133q153 -138 153 -382v-374zM305 1177q-114 -104 -114 -280v-374q0 -177 114 -280q110 -100 288 -100q179 0 289 100q114 103 114 280
v374q0 176 -114 280q-110 100 -289 100q-178 0 -288 -100zM334 1690q15 93 65 93q19 0 38 -9l270 -237l-24 -28z" />
    <glyph glyph-name="Oacute" unicode="&#xd3;" horiz-adv-x="1324" 
d="M1141 523q0 -245 -153 -382q-147 -133 -395 -133q-247 0 -394 133q-153 137 -153 382v374q0 244 153 382q147 133 394 133q248 0 395 -133q153 -138 153 -382v-374zM305 1177q-114 -104 -114 -280v-374q0 -177 114 -280q110 -100 288 -100q179 0 289 100q114 103 114 280
v374q0 176 -114 280q-110 100 -289 100q-178 0 -288 -100zM505 1509l-24 28l270 237q19 9 38 9q50 0 65 -93z" />
    <glyph glyph-name="Ocircumflex" unicode="&#xd4;" horiz-adv-x="1324" 
d="M1141 523q0 -245 -153 -382q-147 -133 -395 -133q-247 0 -394 133q-153 137 -153 382v374q0 244 153 382q147 133 394 133q248 0 395 -133q153 -138 153 -382v-374zM305 1177q-114 -104 -114 -280v-374q0 -177 114 -280q110 -100 288 -100q179 0 289 100q114 103 114 280
v374q0 176 -114 280q-110 100 -289 100q-178 0 -288 -100zM594 1648l-270 -140l-25 29q117 100 266 233h57l266 -233l-24 -28z" />
    <glyph glyph-name="Otilde" unicode="&#xd5;" horiz-adv-x="1324" 
d="M1141 523q0 -245 -153 -382q-147 -133 -395 -133q-247 0 -394 133q-153 137 -153 382v374q0 244 153 382q147 133 394 133q248 0 395 -133q153 -138 153 -382v-374zM305 1177q-114 -104 -114 -280v-374q0 -177 114 -280q110 -100 288 -100q179 0 289 100q114 103 114 280
v374q0 176 -114 280q-110 100 -289 100q-178 0 -288 -100zM880 1624q-78 -92 -167 -92q-52 0 -109 36q-86 52 -163 52q-78 0 -120 -36l-14 36q72 82 156 82q53 0 113 -37q82 -49 157 -49q85 0 134 44z" />
    <glyph glyph-name="Odieresis" unicode="&#xd6;" horiz-adv-x="1324" 
d="M1141 523q0 -245 -153 -382q-147 -133 -395 -133q-247 0 -394 133q-153 137 -153 382v374q0 244 153 382q147 133 394 133q248 0 395 -133q153 -138 153 -382v-374zM305 1177q-114 -104 -114 -280v-374q0 -177 114 -280q110 -100 288 -100q179 0 289 100q114 103 114 280
v374q0 176 -114 280q-110 100 -289 100q-178 0 -288 -100zM355 1606q0 28 21 48t52 20h72v-105q0 -28 -21 -48t-51 -20h-73v105zM833 1501h-73q-30 0 -51 20t-21 48v105h72q31 0 52 -20t21 -48v-105z" />
    <glyph glyph-name="multiply" unicode="&#xd7;" horiz-adv-x="935" 
d="M475 624l-257 -258q-10 -10 -27 -10q-3 0 -7 1q-27 5 -49 27l-21 21l290 290l-257 257q-11 11 -11 28q0 3 1 6q5 26 27 48l21 21l290 -290l257 257q11 11 28 11q3 0 6 -1q26 -5 48 -27l21 -21l-289 -289l257 -257q10 -10 10 -27q0 -3 -1 -7q-5 -27 -27 -49l-21 -21z" />
    <glyph glyph-name="Oslash" unicode="&#xd8;" horiz-adv-x="1294" 
d="M548 143h45q179 0 289 100q114 103 114 280v374q0 176 -114 280q-60 54 -161 86zM479 153l173 1121q-41 3 -59 3q-178 0 -288 -100q-114 -104 -114 -280v-374q0 -177 114 -280q65 -59 174 -90zM742 1398q152 -34 246 -119q153 -138 153 -382v-374q0 -245 -153 -382
q-147 -133 -395 -133q-24 0 -66 1l-29 -194q-5 -35 -21 -56q-14 -19 -37 -19h-24l42 279q-161 33 -259 122q-153 137 -153 382v374q0 244 153 382q147 133 394 133q32 0 80 -4l16 111q5 35 21 56q14 19 37 19h24z" />
    <glyph glyph-name="Ugrave" unicode="&#xd9;" horiz-adv-x="1237" 
d="M1066 391q0 -182 -150 -287q-135 -95 -335 -96q-201 0 -338 95q-151 105 -151 288v1002h145v-1002q0 -126 111 -193q90 -55 227 -55h5q140 0 231 55q110 68 110 193v1002h145v-1002zM319 1690q15 93 65 93q19 0 38 -9l270 -237l-24 -28z" />
    <glyph glyph-name="Uacute" unicode="&#xda;" horiz-adv-x="1237" 
d="M1066 391q0 -182 -150 -287q-135 -95 -335 -96q-201 0 -338 95q-151 105 -151 288v1002h145v-1002q0 -126 111 -193q90 -55 227 -55h5q140 0 231 55q110 68 110 193v1002h145v-1002zM490 1509l-24 28l270 237q19 9 38 9q50 0 65 -93z" />
    <glyph glyph-name="Ucircumflex" unicode="&#xdb;" horiz-adv-x="1237" 
d="M1066 391q0 -182 -150 -287q-135 -95 -335 -96q-201 0 -338 95q-151 105 -151 288v1002h145v-1002q0 -126 111 -193q90 -55 227 -55h5q140 0 231 55q110 68 110 193v1002h145v-1002zM580 1648l-270 -140l-25 29q117 100 266 233h57l266 -233l-24 -28z" />
    <glyph glyph-name="Udieresis" unicode="&#xdc;" horiz-adv-x="1237" 
d="M1066 391q0 -182 -150 -287q-135 -95 -335 -96q-201 0 -338 95q-151 105 -151 288v1002h145v-1002q0 -126 111 -193q90 -55 227 -55h5q140 0 231 55q110 68 110 193v1002h145v-1002zM340 1606q0 28 21 48t52 20h72v-105q0 -28 -21 -48t-51 -20h-73v105zM818 1501h-73
q-30 0 -51 20t-21 48v105h72q31 0 52 -20t21 -48v-105z" />
    <glyph glyph-name="Yacute" unicode="&#xdd;" horiz-adv-x="1136" 
d="M624 88q0 -28 -20 -48t-48 -20h-77v623q-169 1 -216 38q-55 42 -98 206l-139 506h69q68 0 82 -51l130 -456q23 -77 63 -99q31 -17 119 -17h125q87 0 118 17q40 22 64 99l130 456q13 51 81 51h69l-139 -506q-42 -157 -96 -201q-51 -39 -217 -43v-555zM462 1509l-24 28
l270 237q19 9 38 9q50 0 65 -93z" />
    <glyph glyph-name="Thorn" unicode="&#xde;" horiz-adv-x="1141" 
d="M242 1114q160 98 340 98h4q200 -1 335 -96q150 -105 150 -287q0 -424 -548 -424h-281v-585h-145v1505q0 28 20 48t48 20h77v-279zM242 533h281q403 0 403 296q0 125 -110 193q-91 55 -231 55h-5q-137 0 -227 -55q-111 -67 -111 -193v-296z" />
    <glyph glyph-name="germandbls" unicode="&#xdf;" horiz-adv-x="1243" 
d="M521 789q227 0 321 63q82 56 82 177q0 125 -110 193q-91 55 -231 55h-5q-137 0 -227 -55q-111 -67 -111 -193v-240h281zM695 20q-221 0 -302 132q-37 67 -37 232h128q0 -99 33 -159q43 -77 167 -77q121 0 218 71q82 62 82 185q0 124 -82 186q-97 72 -320 72h-342v-732
q0 -28 -20 -48t-48 -20h-77v1167q0 183 151 288q136 95 334 95h4q200 -1 335 -96q150 -105 150 -287q0 -197 -208 -299q158 -49 218 -143q50 -83 50 -183q0 -181 -104 -271q-129 -113 -329 -113h-1z" />
    <glyph glyph-name="agrave" unicode="&#xe0;" horiz-adv-x="1169" 
d="M881 518q0 177 -64 269q-81 115 -269 115t-269 -115q-65 -92 -65 -269q0 -179 61 -269q78 -115 265 -115q261 0 341 288v96zM881 269q-124 -261 -368 -261q-435 0 -435 510t470 510q469 0 469 -510v-498h-68q-28 0 -48 20q-20 19 -20 48v181zM288 1313q15 93 65 93
q19 0 38 -9l270 -237l-24 -28z" />
    <glyph glyph-name="aacute" unicode="&#xe1;" horiz-adv-x="1169" 
d="M881 518q0 177 -64 269q-81 115 -269 115t-269 -115q-65 -92 -65 -269q0 -179 61 -269q78 -115 265 -115q261 0 341 288v96zM881 269q-124 -261 -368 -261q-435 0 -435 510t470 510q469 0 469 -510v-498h-68q-28 0 -48 20q-20 19 -20 48v181zM459 1132l-24 28l270 237
q19 9 38 9q50 0 65 -93z" />
    <glyph glyph-name="acircumflex" unicode="&#xe2;" horiz-adv-x="1169" 
d="M881 518q0 177 -64 269q-81 115 -269 115t-269 -115q-65 -92 -65 -269q0 -179 61 -269q78 -115 265 -115q261 0 341 288v96zM881 269q-124 -261 -368 -261q-435 0 -435 510t470 510q469 0 469 -510v-498h-68q-28 0 -48 20q-20 19 -20 48v181zM548 1271l-270 -140l-25 29
q117 100 266 233h57l266 -233l-24 -28z" />
    <glyph glyph-name="atilde" unicode="&#xe3;" horiz-adv-x="1169" 
d="M881 518q0 177 -64 269q-81 115 -269 115t-269 -115q-65 -92 -65 -269q0 -179 61 -269q78 -115 265 -115q261 0 341 288v96zM881 269q-124 -261 -368 -261q-435 0 -435 510t470 510q469 0 469 -510v-498h-68q-28 0 -48 20q-20 19 -20 48v181zM834 1247q-78 -92 -167 -92
q-52 0 -109 36q-86 52 -163 52q-78 0 -120 -36l-14 36q72 82 156 82q53 0 113 -37q82 -49 157 -49q85 0 134 44z" />
    <glyph glyph-name="adieresis" unicode="&#xe4;" horiz-adv-x="1169" 
d="M881 518q0 177 -64 269q-81 115 -269 115t-269 -115q-65 -92 -65 -269q0 -179 61 -269q78 -115 265 -115q261 0 341 288v96zM881 269q-124 -261 -368 -261q-435 0 -435 510t470 510q469 0 469 -510v-498h-68q-28 0 -48 20q-20 19 -20 48v181zM309 1229q0 28 21 48t52 20
h72v-105q0 -28 -21 -48t-51 -20h-73v105zM787 1124h-73q-30 0 -51 20t-21 48v105h72q31 0 52 -20t21 -48v-105z" />
    <glyph glyph-name="aring" unicode="&#xe5;" horiz-adv-x="1169" 
d="M881 518q0 177 -64 269q-81 115 -269 115t-269 -115q-65 -92 -65 -269q0 -179 61 -269q78 -115 265 -115q261 0 341 288v96zM881 269q-124 -261 -368 -261q-435 0 -435 510t470 510q469 0 469 -510v-498h-68q-28 0 -48 20q-20 19 -20 48v181zM661.5 1346.5
q46.5 -46.5 46.5 -113.5q0 -66 -46.5 -113t-113.5 -47t-113.5 47t-46.5 113q0 67 46.5 113.5t113.5 46.5t113.5 -46.5zM548 1337q-43 0 -73 -30.5t-30 -73.5q0 -42 30 -72.5t73 -30.5t73.5 30.5t30.5 72.5q0 43 -30.5 73.5t-73.5 30.5z" />
    <glyph glyph-name="ae" unicode="&#xe6;" horiz-adv-x="1753" 
d="M1518 586q-13 165 -58 227q-65 89 -223 89q-160 0 -233 -88q-57 -68 -69 -228h583zM217 450q13 -165 58 -227q65 -89 223 -89q160 0 233 88q57 68 69 228h-583zM865 844q123 184 372 184q239 0 338 -147q81 -119 81 -362q0 -61 -68 -61h-651q8 -324 330 -324
q160 0 324 60q16 5 30 5q27 0 27 -31v-72q-146 -88 -381 -88q-266 0 -397 184q-123 -184 -372 -184q-239 0 -338 147q-81 119 -81 362q0 61 68 61h651q-8 324 -330 324q-160 0 -324 -60q-16 -5 -30 -5q-27 0 -27 31v72q146 88 381 88q266 0 397 -184z" />
    <glyph glyph-name="ccedilla" unicode="&#xe7;" horiz-adv-x="971" 
d="M510 9q-432 36 -432 509q0 510 470 510q235 0 381 -88v-72q0 -31 -27 -31q-14 0 -30 5q-164 60 -324 60q-188 0 -269 -115q-65 -92 -65 -269t65 -269q81 -115 269 -115q160 0 324 60q16 5 30 5q27 0 27 -31v-72q-137 -83 -365 -88l-49 -72q159 -78 159 -164
q0 -46 -39 -98q-46 -44 -114 -44q-81 0 -184 60l-4 39v4q0 9 5 9h4q5 0 11 -2q97 -38 156 -38q49 0 78 29q9 24 9 43q0 87 -143 127z" />
    <glyph glyph-name="egrave" unicode="&#xe8;" horiz-adv-x="1065" 
d="M800 586q-13 165 -58 227q-65 89 -223 89q-160 0 -233 -88q-57 -68 -69 -228h583zM79 518q0 510 440 510q239 0 338 -147q81 -119 81 -362q0 -61 -68 -61h-651q8 -324 330 -324q160 0 324 60q16 5 30 5q27 0 27 -31v-72q-146 -88 -381 -88q-470 0 -470 510zM249 1313
q15 93 65 93q19 0 38 -9l270 -237l-24 -28z" />
    <glyph glyph-name="eacute" unicode="&#xe9;" horiz-adv-x="1065" 
d="M800 586q-13 165 -58 227q-65 89 -223 89q-160 0 -233 -88q-57 -68 -69 -228h583zM79 518q0 510 440 510q239 0 338 -147q81 -119 81 -362q0 -61 -68 -61h-651q8 -324 330 -324q160 0 324 60q16 5 30 5q27 0 27 -31v-72q-146 -88 -381 -88q-470 0 -470 510zM420 1132
l-24 28l270 237q19 9 38 9q50 0 65 -93z" />
    <glyph glyph-name="ecircumflex" unicode="&#xea;" horiz-adv-x="1065" 
d="M800 586q-13 165 -58 227q-65 89 -223 89q-160 0 -233 -88q-57 -68 -69 -228h583zM79 518q0 510 440 510q239 0 338 -147q81 -119 81 -362q0 -61 -68 -61h-651q8 -324 330 -324q160 0 324 60q16 5 30 5q27 0 27 -31v-72q-146 -88 -381 -88q-470 0 -470 510zM509 1271
l-270 -140l-25 29q117 100 266 233h57l266 -233l-24 -28z" />
    <glyph glyph-name="edieresis" unicode="&#xeb;" horiz-adv-x="1065" 
d="M800 586q-13 165 -58 227q-65 89 -223 89q-160 0 -233 -88q-57 -68 -69 -228h583zM79 518q0 510 440 510q239 0 338 -147q81 -119 81 -362q0 -61 -68 -61h-651q8 -324 330 -324q160 0 324 60q16 5 30 5q27 0 27 -31v-72q-146 -88 -381 -88q-470 0 -470 510zM270 1229
q0 28 21 48t52 20h72v-105q0 -28 -21 -48t-51 -20h-73v105zM748 1124h-73q-30 0 -51 20t-21 48v105h72q31 0 52 -20t21 -48v-105z" />
    <glyph glyph-name="igrave" unicode="&#xec;" horiz-adv-x="376" 
d="M303 948q0 29 20 48q20 20 48 20h68v-928q0 -29 -20 -48q-20 -20 -48 -20h-68v928zM111 1313q15 93 65 93q19 0 38 -9l270 -237l-24 -28z" />
    <glyph glyph-name="iacute" unicode="&#xed;" horiz-adv-x="376" 
d="M159 948q0 29 20 48q20 20 48 20h68v-928q0 -29 -20 -48q-20 -20 -48 -20h-68v928zM138 1132l-24 28l270 237q19 9 38 9q50 0 65 -93z" />
    <glyph glyph-name="icircumflex" unicode="&#xee;" horiz-adv-x="376" 
d="M340 948q0 29 20 48q20 20 48 20h68v-928q0 -29 -20 -48q-20 -20 -48 -20h-68v928zM409 1271l-270 -140l-25 29q117 100 266 233h57l266 -233l-24 -28z" />
    <glyph glyph-name="idieresis" unicode="&#xef;" horiz-adv-x="376" 
d="M281 948q0 29 20 48q20 20 48 20h68v-928q0 -29 -20 -48q-20 -20 -48 -20h-68v928zM110 1229q0 28 21 48t52 20h72v-105q0 -28 -21 -48t-51 -20h-73v105zM588 1124h-73q-30 0 -51 20t-21 48v105h72q31 0 52 -20t21 -48v-105z" />
    <glyph glyph-name="eth" unicode="&#xf0;" horiz-adv-x="1102" 
d="M849 586q-81 228 -341 228q-187 0 -265 -115q-61 -90 -61 -169q0 -177 65 -269q81 -115 269 -115t269 115q64 92 64 269v56zM635 1203q-84 35 -141 35h-8q-38 22 -38 80q0 31 7 57q155 -8 282 -99l114 79q9 5 36 8q9 1 20 1q28 0 67 -4l28 -2l-203 -141
q186 -227 186 -687q0 -510 -469 -510q-470 0 -470 510q20 388 435 410q244 0 392 -312q-67 387 -173 520l-163 -115q-9 -5 -36 -8q-9 -1 -20 -1q-28 0 -67 4l-28 2z" />
    <glyph glyph-name="ntilde" unicode="&#xf1;" horiz-adv-x="1134" 
d="M972 20h-68q-28 0 -48 20q-20 19 -20 48v590q0 224 -238 224q-260 0 -341 -268v-546q0 -29 -20 -48q-20 -20 -48 -20h-68v996h68q28 0 48 -20q20 -19 20 -48v-181q125 261 368 261q347 0 347 -327v-681zM833 1247q-78 -92 -167 -92q-52 0 -109 36q-86 52 -163 52
q-78 0 -120 -36l-14 36q72 82 156 82q53 0 113 -37q82 -49 157 -49q85 0 134 44z" />
    <glyph glyph-name="ograve" unicode="&#xf2;" horiz-adv-x="1151" 
d="M548 901q-188 0 -269 -114q-65 -92 -65 -269t65 -270q81 -114 269 -114t269 114q64 93 64 270t-64 269q-81 114 -269 114zM1017 518q0 -510 -469 -510q-470 0 -470 510t470 510q469 0 469 -510zM288 1313q15 93 65 93q19 0 38 -9l270 -237l-24 -28z" />
    <glyph glyph-name="oacute" unicode="&#xf3;" horiz-adv-x="1151" 
d="M548 901q-188 0 -269 -114q-65 -92 -65 -269t65 -270q81 -114 269 -114t269 114q64 93 64 270t-64 269q-81 114 -269 114zM1017 518q0 -510 -469 -510q-470 0 -470 510t470 510q469 0 469 -510zM459 1132l-24 28l270 237q19 9 38 9q50 0 65 -93z" />
    <glyph glyph-name="ocircumflex" unicode="&#xf4;" horiz-adv-x="1151" 
d="M548 901q-188 0 -269 -114q-65 -92 -65 -269t65 -270q81 -114 269 -114t269 114q64 93 64 270t-64 269q-81 114 -269 114zM1017 518q0 -510 -469 -510q-470 0 -470 510t470 510q469 0 469 -510zM548 1271l-270 -140l-25 29q117 100 266 233h57l266 -233l-24 -28z" />
    <glyph glyph-name="otilde" unicode="&#xf5;" horiz-adv-x="1151" 
d="M548 901q-188 0 -269 -114q-65 -92 -65 -269t65 -270q81 -114 269 -114t269 114q64 93 64 270t-64 269q-81 114 -269 114zM1017 518q0 -510 -469 -510q-470 0 -470 510t470 510q469 0 469 -510zM834 1247q-78 -92 -167 -92q-52 0 -109 36q-86 52 -163 52q-78 0 -120 -36
l-14 36q72 82 156 82q53 0 113 -37q82 -49 157 -49q85 0 134 44z" />
    <glyph glyph-name="odieresis" unicode="&#xf6;" horiz-adv-x="1151" 
d="M548 901q-188 0 -269 -114q-65 -92 -65 -269t65 -270q81 -114 269 -114t269 114q64 93 64 270t-64 269q-81 114 -269 114zM1017 518q0 -510 -469 -510q-470 0 -470 510t470 510q469 0 469 -510zM309 1229q0 28 21 48t52 20h72v-105q0 -28 -21 -48t-51 -20h-73v105z
M787 1124h-73q-30 0 -51 20t-21 48v105h72q31 0 52 -20t21 -48v-105z" />
    <glyph glyph-name="divide" unicode="&#xf7;" horiz-adv-x="1159" 
d="M156 644q-17 0 -31 18q-15 22 -15 53v29h873q18 0 32 -18q14 -21 14 -52v-30h-873zM497 403q0 29 21 48q21 20 51 20h73v-104q0 -29 -21 -49q-21 -19 -52 -19h-72v104zM497 1021q0 28 21 48t52 20h72v-105q0 -28 -21 -48t-51 -20h-73v105z" />
    <glyph glyph-name="oslash" unicode="&#xf8;" horiz-adv-x="1121" 
d="M686 1016q331 -81 331 -498q0 -510 -469 -510q-27 0 -69 4l-27 -132q-5 -23 -19 -38q-14 -14 -39 -14h-24l41 191q-333 81 -333 499q0 510 470 510q27 0 69 -4l26 124q5 23 19 38q14 14 39 14h24zM437 145l154 756h-43q-188 0 -269 -114q-65 -92 -65 -269t65 -270
q49 -69 158 -103zM660 890l-155 -756h43q188 0 269 114q64 93 64 270t-64 269q-49 67 -157 103z" />
    <glyph glyph-name="ugrave" unicode="&#xf9;" horiz-adv-x="1138" 
d="M834 268q-124 -260 -368 -260q-347 0 -347 327v681h68q28 0 48 -20t20 -48v-590q0 -224 238 -224q267 0 341 261v553q0 28 20 48t48 20h68v-996h-68q-28 0 -48 19q-20 20 -20 49v180zM285 1313q15 93 65 93q19 0 38 -9l270 -237l-24 -28z" />
    <glyph glyph-name="uacute" unicode="&#xfa;" horiz-adv-x="1138" 
d="M834 268q-124 -260 -368 -260q-347 0 -347 327v681h68q28 0 48 -20t20 -48v-590q0 -224 238 -224q267 0 341 261v553q0 28 20 48t48 20h68v-996h-68q-28 0 -48 19q-20 20 -20 49v180zM456 1132l-24 28l270 237q19 9 38 9q50 0 65 -93z" />
    <glyph glyph-name="ucircumflex" unicode="&#xfb;" horiz-adv-x="1138" 
d="M834 268q-124 -260 -368 -260q-347 0 -347 327v681h68q28 0 48 -20t20 -48v-590q0 -224 238 -224q267 0 341 261v553q0 28 20 48t48 20h68v-996h-68q-28 0 -48 19q-20 20 -20 49v180zM545 1271l-270 -140l-25 29q117 100 266 233h57l266 -233l-24 -28z" />
    <glyph glyph-name="udieresis" unicode="&#xfc;" horiz-adv-x="1138" 
d="M834 268q-124 -260 -368 -260q-347 0 -347 327v681h68q28 0 48 -20t20 -48v-590q0 -224 238 -224q267 0 341 261v553q0 28 20 48t48 20h68v-996h-68q-28 0 -48 19q-20 20 -20 49v180zM306 1229q0 28 21 48t52 20h72v-105q0 -28 -21 -48t-51 -20h-73v105zM784 1124h-73
q-30 0 -51 20t-21 48v105h72q31 0 52 -20t21 -48v-105z" />
    <glyph glyph-name="yacute" unicode="&#xfd;" horiz-adv-x="1141" 
d="M969 143q0 -510 -469 -510q-236 0 -382 88v71q0 32 28 32q13 0 29 -5q164 -60 325 -60q188 0 269 115q64 92 64 269v125q-124 -260 -368 -260q-347 0 -347 327v681h68q28 0 48 -20t20 -48v-590q0 -224 238 -224q260 0 341 278v536q0 28 20 48t48 20h68v-873zM455 1132
l-24 28l270 237q19 9 38 9q50 0 65 -93z" />
    <glyph glyph-name="thorn" unicode="&#xfe;" horiz-adv-x="1164" 
d="M258 198q177 -64 334 -64q183 0 264 108q69 93 69 276q0 184 -65 275q-78 108 -261 108q-266 0 -341 -210v-493zM258 767q125 261 368 261q435 0 435 -510t-469 -510q-166 0 -334 62v-359q0 -28 -20 -48t-48 -20h-68v1750h68q28 0 48 -20t20 -48v-558z" />
    <glyph glyph-name="ydieresis" unicode="&#xff;" horiz-adv-x="1141" 
d="M969 143q0 -510 -469 -510q-236 0 -382 88v71q0 32 28 32q13 0 29 -5q164 -60 325 -60q188 0 269 115q64 92 64 269v125q-124 -260 -368 -260q-347 0 -347 327v681h68q28 0 48 -20t20 -48v-590q0 -224 238 -224q260 0 341 278v536q0 28 20 48t48 20h68v-873zM305 1229
q0 28 21 48t52 20h72v-105q0 -28 -21 -48t-51 -20h-73v105zM783 1124h-73q-30 0 -51 20t-21 48v105h72q31 0 52 -20t21 -48v-105z" />
    <glyph glyph-name="dotlessi" unicode="&#x131;" horiz-adv-x="346" 
d="M110 948q0 29 20 48q20 20 48 20h68v-928q0 -29 -20 -48q-20 -20 -48 -20h-68v928z" />
    <glyph glyph-name="circumflex" unicode="&#x2c6;" horiz-adv-x="803" 
d="M409 1271l-270 -140l-25 29q117 100 266 233h57l266 -233l-24 -28z" />
    <glyph glyph-name="caron" unicode="&#x2c7;" horiz-adv-x="803" 
d="M679 1387l24 -28l-266 -233h-57q-149 133 -266 233l25 29l270 -140z" />
    <glyph glyph-name="uni02C9" unicode="&#x2c9;" horiz-adv-x="772" 
d="M156 1150q-17 0 -31 18q-15 22 -15 53v29h516q18 0 32 -18q14 -21 14 -52v-30h-516z" />
    <glyph glyph-name="breve" unicode="&#x2d8;" horiz-adv-x="810" 
d="M687 1381l23 -28q-95 -227 -302 -227q-208 0 -296 227l24 28q129 -175 276 -175t275 175z" />
    <glyph glyph-name="dotaccent" unicode="&#x2d9;" horiz-adv-x="355" 
d="M110 1229q0 28 21 48t52 20h72v-105q0 -28 -21 -48t-51 -20h-73v105z" />
    <glyph glyph-name="ring" unicode="&#x2da;" horiz-adv-x="530" 
d="M383.5 1346.5q46.5 -46.5 46.5 -113.5q0 -66 -46.5 -113t-113.5 -47t-113.5 47t-46.5 113q0 67 46.5 113.5t113.5 46.5t113.5 -46.5zM270 1337q-43 0 -73 -30.5t-30 -73.5q0 -42 30 -72.5t73 -30.5t73.5 30.5t30.5 72.5q0 43 -30.5 73.5t-73.5 30.5z" />
    <glyph glyph-name="ogonek" unicode="&#x2db;" horiz-adv-x="547" 
d="M313 -20q-131 -113 -131 -205q0 -38 30 -68q29 -15 62 -15q61 0 153 45q8 2 14 2t6 -8v-35q-106 -67 -193 -67q-38 0 -69 14q-75 44 -75 104q0 94 174 233h29z" />
    <glyph glyph-name="tilde" unicode="&#x2dc;" horiz-adv-x="783" 
d="M684 1247q-78 -92 -167 -92q-52 0 -109 36q-86 52 -163 52q-78 0 -120 -36l-14 36q72 82 156 82q53 0 113 -37q82 -49 157 -49q85 0 134 44z" />
    <glyph glyph-name="hungarumlaut" unicode="&#x2dd;" horiz-adv-x="1046" 
d="M138 1132l-24 28l270 237q19 9 38 9q50 0 65 -93zM561 1132l-24 28l270 237q19 9 38 9q50 0 65 -93z" />
    <glyph glyph-name="endash" unicode="&#x2013;" horiz-adv-x="1269" 
d="M156 461q-17 0 -31 18q-15 22 -15 53v29h1013q18 0 32 -18q14 -21 14 -52v-30h-1013z" />
    <glyph glyph-name="emdash" unicode="&#x2014;" horiz-adv-x="1920" 
d="M156 461q-17 0 -31 18q-15 22 -15 53v29h1664q18 0 32 -18q14 -21 14 -52v-30h-1664z" />
    <glyph glyph-name="quoteleft" unicode="&#x2018;" horiz-adv-x="438" 
d="M338 1411q-83 -135 -83 -456q0 -29 -21 -48q-21 -20 -51 -20h-73v11q0 253 176 486q20 27 34 27h18z" />
    <glyph glyph-name="quoteright" unicode="&#x2019;" horiz-adv-x="446" 
d="M118 887q83 135 83 456q0 29 21 48q21 20 51 20h73v-11q0 -253 -176 -486q-20 -27 -34 -27h-18z" />
    <glyph glyph-name="quotesinglbase" unicode="&#x201a;" horiz-adv-x="446" 
d="M118 -332q83 135 83 456q0 29 21 48q21 20 51 20h73v-11q0 -253 -176 -486q-20 -27 -34 -27h-18z" />
    <glyph glyph-name="quotedblleft" unicode="&#x201c;" horiz-adv-x="882" 
d="M338 1411q-83 -135 -83 -456q0 -29 -21 -48q-21 -20 -51 -20h-73v11q0 253 176 486q20 27 34 27h18zM736 1411q-83 -135 -83 -456q0 -29 -21 -48q-21 -20 -51 -20h-73v11q0 253 176 486q20 27 34 27h18z" />
    <glyph glyph-name="quotedblright" unicode="&#x201d;" horiz-adv-x="882" 
d="M118 887q83 135 83 456q0 29 21 48q21 20 51 20h73v-11q0 -253 -176 -486q-20 -27 -34 -27h-18zM516 887q83 135 83 456q0 29 21 48q21 20 51 20h73v-11q0 -253 -176 -486q-20 -27 -34 -27h-18z" />
    <glyph glyph-name="quotedblbase" unicode="&#x201e;" horiz-adv-x="882" 
d="M118 -262q83 135 83 456q0 29 21 48q21 20 51 20h73v-11q0 -253 -176 -486q-20 -27 -34 -27h-18zM516 -262q83 135 83 456q0 29 21 48q21 20 51 20h73v-11q0 -253 -176 -486q-20 -27 -34 -27h-18z" />
    <glyph glyph-name="dagger" unicode="&#x2020;" horiz-adv-x="1123" 
d="M494 1078v247q0 28 20 48t48 20h77v-315h316q28 0 48 -20t20 -48v-77h-384v-845q0 -28 -20 -48t-48 -20h-77v913h-316q-28 0 -48 20t-20 48v77h384z" />
    <glyph glyph-name="daggerdbl" unicode="&#x2021;" horiz-adv-x="1124" 
d="M495 375h-317q-28 0 -48 20t-20 48v77h385v413h-316q-28 0 -48 20t-20 48v77h384v247q0 28 20 48t48 20h77v-315h316q28 0 48 -20t20 -48v-77h-384v-413h315q28 0 48 -20t20 -48v-77h-383v-287q0 -28 -20 -48t-48 -20h-77v355z" />
    <glyph glyph-name="bullet" unicode="&#x2022;" horiz-adv-x="936" 
d="M730 794q106 -106 106 -257q0 -150 -106 -256.5t-257 -106.5t-257 106.5t-106 256.5q0 151 106 257t257 106t257 -106z" />
    <glyph glyph-name="ellipsis" unicode="&#x2026;" horiz-adv-x="1751" 
d="M110 124q0 29 21 48q21 20 51 20h73v-104q0 -29 -21 -49q-21 -19 -52 -19h-72v104zM793 124q0 29 21 48q21 20 51 20h73v-104q0 -29 -21 -49q-21 -19 -52 -19h-72v104zM1476 124q0 29 21 48q21 20 51 20h73v-104q0 -29 -21 -49q-21 -19 -52 -19h-72v104z" />
    <glyph glyph-name="guilsinglleft" unicode="&#x2039;" horiz-adv-x="496" 
d="M372 324q24 -43 24 -139l-286 312v66l286 312q0 -96 -24 -139l-141 -206z" />
    <glyph glyph-name="guilsinglright" unicode="&#x203a;" horiz-adv-x="496" 
d="M275 530l-141 206q-24 43 -24 139l286 -312v-66l-286 -312q0 96 24 139z" />
    <glyph glyph-name="fraction" unicode="&#x2044;" horiz-adv-x="466" 
d="M144 72q-5 -23 -19 -38q-14 -14 -39 -14h-24l273 1320q5 23 19 38q14 14 39 14h24z" />
    <glyph glyph-name="fraction" unicode="&#x2215;" horiz-adv-x="466" 
d="M144 72q-5 -23 -19 -38q-14 -14 -39 -14h-24l273 1320q5 23 19 38q14 14 39 14h24z" />
    <glyph glyph-name="franc" unicode="&#x20a3;" horiz-adv-x="1330" 
d="M227 403v494q0 244 153 382q147 133 395 133q221 0 455 -84v-46q0 -30 -21 -51q-22 -21 -48 -21q-215 67 -386 67q-179 0 -289 -100q-114 -104 -114 -280v-108h697q29 0 48 -19q20 -20 20 -49v-59h-765v-259h395q10 0 20 -16q13 -23 13 -54v-30h-428v-211q0 -30 -21 -51
t-52 -21h-72v283h-134q-10 0 -20 16q-13 24 -13 55v29h167z" />
    <glyph glyph-name="lira" unicode="&#x20a4;" horiz-adv-x="1257" 
d="M460 392q-19 -130 -95 -244h697q28 0 48 -20t20 -48v-60h-1047v74q0 49 71 49q132 76 162 249h-180q-17 0 -31 18q-15 22 -15 53v29h233q-9 27 -9 26q0 21 -1 45l-12 100h-165q-17 0 -31 18q-15 22 -15 53v29h194q-22 126 -22 210q0 218 123 304q139 135 367 135
q171 0 405 -84v-46q0 -30 -21 -51q-22 -21 -48 -21q-215 67 -336 67q-159 0 -259 -100q-82 -66 -82 -228q0 -75 22 -186h530q18 0 32 -18q14 -21 14 -52v-30h-559l12 -104q1 -23 1 -67h500q18 0 32 -18q14 -21 14 -52v-30h-549z" />
    <glyph glyph-name="peseta" unicode="&#x20a7;" horiz-adv-x="2334" 
d="M236 733h255q365 0 365 296q0 123 -98 191q-84 57 -211 57h-5q-123 0 -207 -57q-99 -67 -99 -191v-296zM965 888q-82 -283 -474 -283h-255v-585h-126v1009q0 183 135 288q122 95 299 95h4q179 -1 300 -96q131 -103 134 -300h118v203q0 29 20 48q20 20 48 20h68v-271h349
q28 0 48 -20l12 -17q92 49 203 49q210 0 356 -89v-71q0 -32 -27 -32q-12 0 -30 5q-165 60 -299 60q-94 0 -149 -51q-51 -46 -51 -112q0 -86 105 -119q3 -2 207 -41q133 -23 194 -75q80 -66 80 -197v-9q-2 -118 -89 -199q-96 -90 -352 -120q-51 -6 -101 -6q-210 0 -434 98
q-158 89 -158 335v483h-135zM1549 888h-313v-483q0 -185 134 -243q167 -76 322 -76q84 0 167 23q236 66 236 188q0 96 -104 134q-28 12 -205 44q-133 23 -193 69q-84 63 -84 194q0 67 40 150z" />
    <glyph glyph-name="Euro" unicode="&#x20ac;" horiz-adv-x="1102" 
d="M315 498q13 -165 76 -253q96 -102 250 -102q146 0 328 67q19 0 36 -21q20 -21 20 -51v-46q-197 -84 -384 -84q-210 0 -334 133q-127 124 -138 357h-103q-15 0 -28 18q-14 22 -14 53v29h144v200h-102q-15 0 -28 18q-14 22 -14 53v29h144q6 249 139 381q124 133 334 133
q187 0 384 -84v-46q0 -30 -20 -51q-17 -21 -36 -21q-182 67 -328 67q-154 0 -250 -102q-70 -98 -76 -277h603q16 0 29 -18q13 -21 13 -52v-30h-645v-200h603q16 0 29 -18q13 -21 13 -52v-30h-645z" />
    <glyph glyph-name="uni2116" unicode="&#x2116;" horiz-adv-x="2302" 
d="M110 1328q0 30 21 51t51 21h138l740 -1238v1238h145v-1308q0 -30 -21 -51t-51 -21h-138l-740 1238v-1166q0 -30 -21 -51t-52 -21h-72v1308zM1863.2 1010.96q-124.074 0 -177.532 -68.3975q-42.8984 -55.1973 -42.8984 -161.394q0 -106.195 42.8984 -161.993
q53.458 -68.3975 177.532 -68.3975q124.075 0 177.533 68.3975q42.2383 55.7979 42.2383 161.993q0 106.196 -42.2383 161.394q-53.458 68.3975 -177.533 68.3975zM2172.73 781.168q0 -305.987 -309.527 -305.987q-310.188 0 -310.188 305.987q0 305.988 310.188 305.988
q309.527 0 309.527 -305.988zM1589.5 517q-8.5 0 -15.5 18q-7.5 22 -7.5 53v29h475.5q9 0 16 -18q7 -21 7 -52v-30h-475.5z" />
    <glyph glyph-name="trademark" unicode="&#x2122;" horiz-adv-x="1595" 
d="M108.903 845.252q-12.6006 0 -21.6006 8q-9.00098 7.60059 -9.00098 19.2012v24.002h404.562q12.6006 0 21.6006 -8.00098q9 -8 9 -19.2012v-24.001h-184.955v-470.829q0 -11.2002 -9 -19.2012t-21.6006 -8.00098h-34.6514v498.031h-154.354zM331.209 347.221v523.232
q0 12.001 9.4502 20.4014t22.9502 8.40039h33.751q36.001 -0.400391 50.8516 -33.2021l218.256 -480.43l218.706 480.43q14.8506 32.8018 50.8516 33.2021h33.751q13.5 0 22.9502 -8.40039t9.4502 -20.4014v-523.232h-32.4004q-13.9502 0 -23.4004 8.40137
q-9.4502 8.40039 -9.4502 20.4014v473.629l-213.307 -472.829q-13.0498 -29.6025 -42.3008 -29.6025h-29.251q-29.251 0 -42.3008 29.6025l-213.306 472.829v-473.629q0 -12.001 -9.4502 -20.4014q-9.4502 -8.40137 -23.4014 -8.40137h-32.4004z" />
    <glyph glyph-name="minus" unicode="&#x2212;" horiz-adv-x="1129" 
d="M156 644q-17 0 -31 18q-15 22 -15 53v29h873q18 0 32 -18q14 -21 14 -52v-30h-873z" />
    <glyph glyph-name="approxequal" unicode="&#x2248;" horiz-adv-x="1009" 
d="M328 626q-55 0 -115 -30q-31 -15 -63 -43l-4 -4q-11 -11 -26 -11q-9 0 -9 -1v77q56 65 111 89t106 24q59 0 168 -44t167 -44q55 0 115 30q31 15 63 43l4 4q11 11 26 11q9 0 9 1v-77q-56 -65 -111 -89t-106 -24q-53 0 -165 44t-170 44zM328 397q-55 0 -115 -30
q-31 -15 -63 -43l-4 -4q-11 -11 -26 -11q-9 0 -9 -1v77q56 65 111 89t106 24q59 0 168 -44t167 -44q55 0 115 30q31 15 63 43l4 4q11 11 26 11q9 0 9 1v-77q-56 -65 -111 -89t-106 -24q-53 0 -165 44t-170 44z" />
    <glyph glyph-name="lessequal" unicode="&#x2264;" horiz-adv-x="1170" 
d="M110 765l926 466q4 -13 4 -45q0 -91 -85 -119l-662 -331l662 -332q85 -28 85 -119q0 -32 -4 -45l-926 466v59zM157 20q-17 0 -31 18q-15 22 -15 53v29h873q18 0 32 -18q14 -21 14 -52v-30h-873z" />
    <glyph glyph-name="greaterequal" unicode="&#x2265;" horiz-adv-x="1170" 
d="M1040 706l-926 -466q-4 13 -4 45q0 91 85 119l662 331l-662 332q-85 28 -85 119q0 32 4 45l926 -466v-59zM157 20q-17 0 -31 18q-15 22 -15 53v29h873q18 0 32 -18q14 -21 14 -52v-30h-873z" />
    <glyph glyph-name="uniF001" unicode="&#xf001;" horiz-adv-x="1117" 
d="M933 1016q29 0 48 -20q20 -19 20 -48v-928h-68q-28 0 -48 20q-20 19 -20 48v800h-565v-800q0 -29 -20 -48q-20 -20 -48 -20h-68v868h-74q-29 0 -48 20q-20 19 -20 48v60h142v40q0 198 102 277q89 70 293 70q95 0 178 -19v-69q0 -48 -63 -48q-60 10 -115 10
q-132 0 -189 -41q-70 -50 -70 -180v-40h633zM865 1325q0 28 20 48t48 20h68v-105q0 -28 -20 -48t-48 -20h-68v105z" />
    <glyph glyph-name="uniF001" unicode="&#xfb01;" horiz-adv-x="1117" 
d="M933 1016q29 0 48 -20q20 -19 20 -48v-928h-68q-28 0 -48 20q-20 19 -20 48v800h-565v-800q0 -29 -20 -48q-20 -20 -48 -20h-68v868h-74q-29 0 -48 20q-20 19 -20 48v60h142v40q0 198 102 277q89 70 293 70q95 0 178 -19v-69q0 -48 -63 -48q-60 10 -115 10
q-132 0 -189 -41q-70 -50 -70 -180v-40h633zM865 1325q0 28 20 48t48 20h68v-105q0 -28 -20 -48t-48 -20h-68v105z" />
    <glyph glyph-name="uniF002" unicode="&#xf002;" horiz-adv-x="1184" 
d="M805 1266q-195 11 -246 11q-132 0 -189 -41q-70 -50 -70 -180v-40h277q29 0 48 -20q20 -19 20 -48v-60h-345v-800q0 -29 -20 -48q-20 -20 -48 -20h-68v868h-74q-29 0 -48 20q-20 19 -20 48v60h142v40q0 198 102 277q89 70 293 70q95 0 326 -23q19 -3 36 -26
q20 -20 20 -48v-959q0 -176 60 -196q29 -8 65 -8q25 0 52 4q63 0 63 -49v-69q-59 -14 -135 -14q-24 0 -46 2q-94 7 -144.5 71.5t-50.5 258.5v919z" />
    <glyph glyph-name="uniF002" unicode="&#xfb02;" horiz-adv-x="1184" 
d="M805 1266q-195 11 -246 11q-132 0 -189 -41q-70 -50 -70 -180v-40h277q29 0 48 -20q20 -19 20 -48v-60h-345v-800q0 -29 -20 -48q-20 -20 -48 -20h-68v868h-74q-29 0 -48 20q-20 19 -20 48v60h142v40q0 198 102 277q89 70 293 70q95 0 326 -23q19 -3 36 -26
q20 -20 20 -48v-959q0 -176 60 -196q29 -8 65 -8q25 0 52 4q63 0 63 -49v-69q-59 -14 -135 -14q-24 0 -46 2q-94 7 -144.5 71.5t-50.5 258.5v919z" />
    <glyph glyph-name="perthousand" unicode="&#x2030;" horiz-adv-x="2172" 
d="M657 1036q0 -219 -273 -219q-274 0 -274 219v169q0 218 274 218q273 0 273 -218v-169zM592 1205q0 84 -42 129q-51 54 -166 54t-166 -54q-42 -45 -42 -129v-169q0 -85 42 -130q51 -54 166 -54t166 54q42 45 42 130v169zM652 72q-5 -23 -19 -38q-14 -14 -39 -14h-24
l273 1320q5 23 19 38q14 14 39 14h24zM1386 208q0 -218 -274 -218t-274 218v169q0 219 274 219t274 -219v-169zM1320 377q0 85 -42 130q-51 54 -166 54q-114 0 -165 -54q-43 -45 -43 -130v-169q0 -84 43 -129q51 -54 165 -54q115 0 166 54q42 45 42 129v169zM2072 208
q0 -218 -274 -218t-274 218v169q0 219 274 219t274 -219v-169zM2006 377q0 85 -42 130q-51 54 -166 54q-114 0 -165 -54q-43 -45 -43 -130v-169q0 -84 43 -129q51 -54 165 -54q115 0 166 54q42 45 42 129v169z" />
    <glyph glyph-name="uni2031" unicode="&#x2031;" horiz-adv-x="2876" 
d="M657 1036q0 -219 -273 -219q-274 0 -274 219v169q0 218 274 218q273 0 273 -218v-169zM592 1205q0 84 -42 129q-51 54 -166 54t-166 -54q-42 -45 -42 -129v-169q0 -85 42 -130q51 -54 166 -54t166 54q42 45 42 130v169zM652 72q-5 -23 -19 -38q-14 -14 -39 -14h-24
l273 1320q5 23 19 38q14 14 39 14h24zM1386 208q0 -218 -274 -218t-274 218v169q0 219 274 219t274 -219v-169zM1320 377q0 85 -42 130q-51 54 -166 54q-114 0 -165 -54q-43 -45 -43 -130v-169q0 -84 43 -129q51 -54 165 -54q115 0 166 54q42 45 42 129v169zM2072 208
q0 -218 -274 -218t-274 218v169q0 219 274 219t274 -219v-169zM2006 377q0 85 -42 130q-51 54 -166 54q-114 0 -165 -54q-43 -45 -43 -130v-169q0 -84 43 -129q51 -54 165 -54q115 0 166 54q42 45 42 129v169zM2710 378q0 85 -42 129q-51 54 -166 54q-114 0 -165 -54
q-43 -44 -43 -129v-169q0 -85 43 -130q51 -54 165 -54q115 0 166 54q42 45 42 130v169zM2776 209q0 -219 -274 -219t-274 219v169q0 218 274 218t274 -218v-169z" />
    <glyph glyph-name="uni2070" unicode="&#x2070;" horiz-adv-x="757" 
d="M657 861q0 -298 -273 -298q-274 0 -274 298v225q0 298 274 298q273 0 273 -298v-225zM592 1086q0 108 -40 166q-51 72 -168 72t-168 -72q-40 -58 -40 -166v-225q0 -109 40 -166q51 -73 168 -73t168 73q40 57 40 166v225z" />
    <glyph glyph-name="uni2074" unicode="&#x2074;" horiz-adv-x="793" 
d="M586 837h73q14 0 24 -11q10 -9 10 -24v-28h-107v-204h-38q-14 0 -23 9q-9 10 -9 24v171h-371q-15 0 -25 10t-10 25v55l298 468q30 45 76 45h69q14 0 24 -9q9 -9 9 -24v-507zM173 837h343v537z" />
    <glyph glyph-name="uni2075" unicode="&#x2075;" horiz-adv-x="748" 
d="M180 1034q126 56 204 56q144 0 204 -58q60 -60 60 -205q0 -262 -290 -264q-114 0 -248 48v22q0 15 10 25t21 10q143 -44 217 -44q220 1 220 203q0 111 -43 155q-42 43 -151 43q-100 0 -204 -52v-49q0 -14 -9 -23q-9 -10 -24 -10h-37v453q0 15 9 24t24 9h505v-27
q0 -15 -9 -25q-11 -10 -25 -10h-434v-281z" />
    <glyph glyph-name="uni2076" unicode="&#x2076;" horiz-adv-x="749" 
d="M649 827q0 -264 -266 -264h-4q-142 0 -205 61q-64 62 -64 203v299q1 138 73 199q66 59 211 59q101 0 235 -48v-22q0 -15 -10 -26q-10 -10 -21 -10q-129 41 -204 41q-111 0 -160 -42q-53 -46 -53 -156v-90q136 59 204 59q144 0 203 -58q61 -60 61 -205zM181 827
q0 -105 44 -152q46 -51 154 -51q109 0 155 51q44 47 44 152q0 111 -42 155q-43 43 -151 43q-87 0 -204 -54v-144z" />
    <glyph glyph-name="uni2077" unicode="&#x2077;" horiz-adv-x="751" 
d="M617 1377q15 0 25 -10q9 -10 9 -24v-58l-321 -715h-83l336 745h-438q-15 0 -25 10t-10 25v27h507z" />
    <glyph glyph-name="uni2078" unicode="&#x2078;" horiz-adv-x="827" 
d="M558 986q169 -55 169 -197q0 -226 -309 -226q-308 0 -308 226q0 142 169 197q-133 63 -133 193q0 104 83 160q75 50 189 50q116 0 189 -50q84 -56 84 -160q0 -130 -133 -193zM609 670q47 39 47 119q0 81 -47 119q-54 47 -191 47q-136 0 -190 -47q-47 -38 -47 -119
q0 -80 47 -119q54 -46 190 -46q137 0 191 46zM582 1068q38 37 38 111q0 77 -67 116q-52 31 -134 32q-82 0 -135 -31q-67 -40 -67 -117q0 -74 39 -111q47 -47 162 -52q116 5 164 52z" />
    <glyph glyph-name="uni2079" unicode="&#x2079;" horiz-adv-x="749" 
d="M110 1119q0 265 267 265h2q143 -1 206 -62q64 -62 64 -203v-299q-1 -138 -70 -198q-70 -59 -214 -59q-101 0 -235 48v21q0 16 10 26t22 10q128 -40 203 -40q111 0 159 41q54 46 54 156v90q-136 -59 -204 -59q-143 0 -203 58q-61 60 -61 205zM578 1119q0 106 -44 153
q-46 50 -155 51q-108 -1 -154 -51q-44 -47 -44 -153q0 -111 43 -155q42 -43 150 -43q87 0 204 54v144z" />
    <glyph glyph-name="uni207A" unicode="&#x207a;" horiz-adv-x="745" 
d="M356 944h-226q-7 0 -13 8q-7 11 -7 27v9h246v227q0 7 8 13q10 6 26 6h10v-246h226q7 0 13 -7q6 -10 6 -27v-10h-245v-225q0 -7 -8 -13q-10 -7 -27 -7h-9v245z" />
    <glyph glyph-name="uni207B" unicode="&#x207b;" horiz-adv-x="745" 
d="M130 944q-7 0 -13 8q-7 11 -7 27v9h516q7 0 13 -7q6 -10 6 -27v-10h-515z" />
    <glyph glyph-name="uni207C" unicode="&#x207c;" horiz-adv-x="745" 
d="M130 1042q-7 0 -13 8q-7 11 -7 27v9h516q7 0 13 -7q6 -11 6 -27v-10h-515zM130 835q-7 0 -13 7q-7 11 -7 27v10h516q7 0 13 -8q6 -10 6 -26v-10h-515z" />
    <glyph glyph-name="uni207D" unicode="&#x207d;" horiz-adv-x="474" 
d="M110 1073q0 203 83 316q75 105 181 108v-43q-82 -14 -140 -95q-63 -87 -63 -286v-310q0 -199 63 -286q58 -81 140 -95v-42q-106 3 -181 107q-83 113 -83 316v310z" />
    <glyph glyph-name="uni207E" unicode="&#x207e;" horiz-adv-x="474" 
d="M374 763q0 -203 -83 -316q-76 -104 -181 -107v43q81 13 140 94q62 87 62 286v310q0 199 -62 286q-59 81 -140 94v44q105 -3 181 -108q83 -113 83 -316v-310z" />
    <glyph glyph-name="uni207F" unicode="&#x207f;" horiz-adv-x="705" 
d="M605 570h-33q-13 0 -23 10q-10 9 -10 23v354q0 142 -150 142q-162 0 -213 -143v-353q0 -14 -10 -23q-9 -10 -23 -10h-33v582h33q14 0 23 -10q10 -9 10 -23v-144q88 184 229 184q200 0 200 -188v-401z" />
    <glyph glyph-name="uni2080" unicode="&#x2080;" horiz-adv-x="757" 
d="M657 -112q0 -298 -273 -298q-274 0 -274 298v224q0 298 274 298q273 0 273 -298v-224zM592 112q0 109 -40 167q-51 71 -168 71t-168 -71q-40 -58 -40 -167v-224q0 -109 40 -167q51 -72 168 -72t168 72q40 58 40 167v224z" />
    <glyph glyph-name="uni2081" unicode="&#x2081;" horiz-adv-x="723" 
d="M402 -343h188q14 0 23 -9q10 -10 10 -24v-28h-480q-13 0 -23 9q-10 10 -10 24v28h221v733l-151 -192h-13q-16 0 -25 14q-5 7 -5 12t3 10l84 123q30 47 75 47h70q14 0 24 -9q9 -10 9 -24v-714z" />
    <glyph glyph-name="uni2082" unicode="&#x2082;" horiz-adv-x="723" 
d="M143 -409q-13 0 -23 9t-10 24v24q0 83 63 150q41 44 147 113q114 70 155 112q74 74 74 165q0 78 -62 120q-55 36 -139 36q-67 0 -195 -40q-11 0 -22 10q-10 10 -10 26v22q134 47 227 47q115 0 189 -54q83 -60 83 -167q0 -159 -194 -285q-133 -85 -148 -97
q-77 -63 -92 -155l404 1q14 0 23 -10q10 -10 10 -23v-28h-480z" />
    <glyph glyph-name="uni2083" unicode="&#x2083;" horiz-adv-x="754" 
d="M346 413q116 0 191 -56q81 -60 81 -165q0 -117 -141 -181q177 -54 177 -194q0 -230 -309 -230q-101 0 -235 48v22q0 15 11 25q10 10 21 10q142 -44 203 -44q136 0 193 48q45 40 45 121q0 79 -47 117q-54 45 -191 45h-81v61h81q117 5 163 44q39 34 39 108q0 78 -63 120
q-54 36 -139 36q-49 0 -177 -40q-11 0 -22 10q-10 10 -10 25v22q134 48 209 48h1z" />
    <glyph glyph-name="uni2084" unicode="&#x2084;" horiz-adv-x="793" 
d="M586 -137h73q14 0 24 -10t10 -25v-28h-107v-204h-38q-14 0 -23 9q-9 10 -9 24v171h-371q-15 0 -25 11q-10 10 -10 24v55l298 468q30 46 76 46h69q14 0 24 -9q9 -10 9 -24v-508zM173 -137h343v537z" />
    <glyph glyph-name="uni2085" unicode="&#x2085;" horiz-adv-x="748" 
d="M180 64q126 56 204 56q144 0 204 -58q60 -60 60 -205q0 -262 -290 -264q-114 0 -248 48v22q0 15 10 25t21 10q143 -44 217 -44q220 1 220 203q0 111 -43 155q-42 43 -151 43q-100 0 -204 -52v-49q0 -14 -9 -23q-9 -10 -24 -10h-37v453q0 15 9 24t24 9h505v-27
q0 -15 -9 -25q-11 -10 -25 -10h-434v-281z" />
    <glyph glyph-name="uni2086" unicode="&#x2086;" horiz-adv-x="749" 
d="M649 -146q0 -264 -266 -264h-4q-142 0 -205 61q-64 62 -64 203v299q1 137 73 198q66 59 211 59q101 0 235 -48v-22q0 -14 -10 -25q-10 -10 -21 -10q-129 40 -204 40q-111 0 -160 -41q-53 -47 -53 -157v-89q136 59 204 59q144 0 203 -58q61 -60 61 -205zM181 -146
q0 -105 44 -153q46 -50 154 -51q109 1 155 51q44 48 44 153q0 111 -42 154q-43 43 -151 43q-87 0 -204 -53v-144z" />
    <glyph glyph-name="uni2087" unicode="&#x2087;" horiz-adv-x="751" 
d="M617 404q15 0 25 -11q9 -9 9 -24v-57l-321 -716h-83l336 745h-438q-15 0 -25 10t-10 25v28h507z" />
    <glyph glyph-name="uni2088" unicode="&#x2088;" horiz-adv-x="827" 
d="M558 11q169 -55 169 -198q0 -226 -309 -226q-308 0 -308 226q0 143 169 198q-133 62 -133 193q0 103 83 159q75 50 189 50q116 0 189 -50q84 -56 84 -159q0 -131 -133 -193zM609 -306q47 39 47 119q0 81 -47 119q-54 47 -191 47q-136 0 -190 -47q-47 -38 -47 -119
q0 -80 47 -119q54 -46 190 -46q137 0 191 46zM582 92q38 38 38 112q0 76 -67 115q-52 31 -134 32q-82 0 -135 -31q-67 -40 -67 -116q0 -74 39 -112q47 -47 162 -52q116 5 164 52z" />
    <glyph glyph-name="uni2089" unicode="&#x2089;" horiz-adv-x="749" 
d="M110 145q0 265 267 265h2q143 -1 206 -61q64 -62 64 -204v-298q-1 -138 -70 -198q-70 -59 -214 -59q-101 0 -235 48v21q0 15 10 26q10 10 22 10q128 -40 203 -40q111 0 159 41q54 46 54 156v90q-136 -59 -204 -59q-143 0 -203 58q-61 60 -61 204zM578 145q0 106 -44 154
q-46 49 -155 51q-108 -2 -154 -51q-44 -48 -44 -154q0 -110 43 -154q42 -43 150 -43q87 0 204 53v144z" />
    <glyph glyph-name="uni208A" unicode="&#x208a;" horiz-adv-x="745" 
d="M356 -22h-226q-7 0 -13 7q-7 11 -7 27v10h246v226q0 7 8 13q10 7 26 7h10v-246h226q7 0 13 -8q6 -10 6 -26v-10h-245v-226q0 -6 -8 -12q-10 -8 -27 -8h-9v246z" />
    <glyph glyph-name="uni208B" unicode="&#x208b;" horiz-adv-x="745" 
d="M130 -22q-7 0 -13 8q-7 10 -7 27v9h516q7 0 13 -8q6 -10 6 -26v-10h-515z" />
    <glyph glyph-name="uni208C" unicode="&#x208c;" horiz-adv-x="745" 
d="M130 82q-7 0 -13 7q-7 11 -7 27v10h516q7 0 13 -8q6 -11 6 -27v-9h-515zM130 -126q-7 0 -13 8q-7 11 -7 27v9h516q7 0 13 -7q6 -11 6 -27v-10h-515z" />
    <glyph glyph-name="uni208D" unicode="&#x208d;" horiz-adv-x="474" 
d="M110 340q0 203 83 316q75 104 181 107v-42q-82 -14 -140 -95q-63 -87 -63 -286v-310q0 -200 63 -287q58 -81 140 -95v-42q-106 3 -181 107q-83 114 -83 317v310z" />
    <glyph glyph-name="uni208E" unicode="&#x208e;" horiz-adv-x="474" 
d="M374 30q0 -203 -83 -317q-76 -104 -181 -107v43q81 13 140 94q62 87 62 287v310q0 199 -62 286q-59 81 -140 94v43q105 -3 181 -107q83 -113 83 -316v-310z" />
    <glyph glyph-name="uni0237" unicode="&#x237;" horiz-adv-x="405" 
d="M265 -22q0 -179 -81 -260q-72 -72 -231 -85q-26 0 -45 18q-18 19 -18 45v60q112 0 169 41q70 50 70 181v970q0 29 20 48q20 20 48 20h68v-1038z" />
    <glyph glyph-name="uni02BB" unicode="&#x2bb;" horiz-adv-x="353" 
d="M253 1545q-53 -86 -53 -313q0 -17 -13 -29t-32 -12h-45v1q0 176 122 337q12 16 19 16h2z" />
    <glyph glyph-name="uni02BC" unicode="&#x2bc;" horiz-adv-x="361" 
d="M118 1191q53 86 53 313q0 17 13 29t32 12h45v-1q0 -176 -122 -337q-12 -16 -19 -16h-2z" />
    <glyph glyph-name="uni02CA" unicode="&#x2ca;" horiz-adv-x="587" 
d="M138 1132l-24 28l270 237q19 9 38 9q50 0 65 -93z" />
    <glyph glyph-name="uni02CB" unicode="&#x2cb;" horiz-adv-x="584" 
d="M111 1313q15 93 65 93q19 0 38 -9l270 -237l-24 -28z" />
    <glyph glyph-name="uni02CD" unicode="&#x2cd;" horiz-adv-x="1066" 
d="M156 -303q-17 0 -31 18q-15 22 -15 53v29h810q18 0 32 -18q14 -21 14 -52v-30h-810z" />
    <glyph glyph-name="uni02F7" unicode="&#x2f7;" horiz-adv-x="783" 
d="M684 -245q-78 -93 -167 -93q-52 0 -109 34q-86 55 -163 55q-78 0 -121 -37l-13 36q72 82 156 82q53 0 113 -36q82 -50 157 -50q85 0 134 45z" />
    <glyph glyph-name="gravecomb" unicode="&#x300;" 
d="M-689 1313q15 93 65 93q19 0 38 -9l270 -237l-24 -28z" />
    <glyph glyph-name="acutecomb" unicode="&#x301;" 
d="M-632 1132l-24 28l270 237q19 9 38 9q50 0 65 -93z" />
    <glyph glyph-name="uni0302" unicode="&#x302;" 
d="M-481 1271l-270 -140l-25 29q117 100 266 233h57l266 -233l-24 -28z" />
    <glyph glyph-name="tildecomb" unicode="&#x303;" 
d="M-176 1247q-78 -92 -167 -92q-52 0 -109 36q-86 52 -163 52q-78 0 -120 -36l-14 36q72 82 156 82q53 0 113 -37q82 -49 157 -49q85 0 134 44z" />
    <glyph glyph-name="uni0304" unicode="&#x304;" 
d="M-684 1150q-17 0 -31 18q-15 22 -15 53v29h516q18 0 32 -18q14 -21 14 -52v-30h-516z" />
    <glyph glyph-name="uni0305" unicode="&#x305;" 
d="M1293 1573q-17 0 -31 18q-15 22 -15 53v29h951q18 0 32 -18q14 -21 14 -52v-30h-951z" />
    <glyph glyph-name="uni0306" unicode="&#x306;" 
d="M-173 1381l23 -28q-95 -227 -302 -227q-208 0 -296 227l24 28q129 -175 276 -175t275 175z" />
    <glyph glyph-name="uni0307" unicode="&#x307;" 
d="M-600 1229q0 28 21 48t52 20h72v-105q0 -28 -21 -48t-51 -20h-73v105z" />
    <glyph glyph-name="uni0308" unicode="&#x308;" 
d="M-760 1229q0 28 21 48t52 20h72v-105q0 -28 -21 -48t-51 -20h-73v105zM-282 1124h-73q-30 0 -51 20t-21 48v105h72q31 0 52 -20t21 -48v-105z" />
    <glyph glyph-name="uni0310" unicode="&#x310;" 
d="M-480 1381l23 -28q-95 -227 -302 -227q-208 0 -296 227l24 28q129 -175 276 -175t275 175zM-828 1538q0 28 21 48t52 20h72v-105q0 -28 -21 -48t-51 -20h-73v105z" />
    <glyph glyph-name="uni0315" unicode="&#x315;" horiz-adv-x="361" 
d="M68 1038q53 87 53 313q0 18 13 30t32 12h45v-2q0 -175 -122 -336q-12 -17 -19 -17h-2z" />
    <glyph glyph-name="dotbelowcomb" unicode="&#x323;" 
d="M-550 -237q0 23 17 38q17 17 41 17h59v-86q0 -23 -17 -39t-42 -16h-58v86z" />
    <glyph glyph-name="uni0324" unicode="&#x324;" 
d="M-690 -234q0 28 21 48t52 20h72v-105q0 -28 -21 -48t-51 -20h-73v105zM-212 -339h-73q-30 0 -51 20t-21 48v105h72q31 0 52 -20t21 -48v-105z" />
    <glyph glyph-name="uni0325" unicode="&#x325;" 
d="M-316.5 -124.5q46.5 -46.5 46.5 -113.5q0 -66 -46.5 -113t-113.5 -47t-113.5 47t-46.5 113q0 67 46.5 113.5t113.5 46.5t113.5 -46.5zM-430 -134q-43 0 -73 -30.5t-30 -73.5q0 -42 30 -72.5t73 -30.5t73.5 30.5t30.5 72.5q0 43 -30.5 73.5t-73.5 30.5z" />
    <glyph glyph-name="uni0326" unicode="&#x326;" 
d="M-509 -398q57 69 57 266q0 12 14 21q15 11 40 11h54v2q0 -148 -138 -285q-15 -15 -26 -15h-1z" />
    <glyph glyph-name="Amacron" unicode="&#x100;" horiz-adv-x="1243" 
d="M543 1270l-231 -801h556l-231 801h-94zM273 341l-65 -226q-24 -95 -117 -95h-65l376 1289q24 94 117 94h142q93 0 117 -95l376 -1288h-65q-93 0 -118 96l-65 225h-633zM355 1527q-17 0 -31 18q-15 22 -15 53v29h516q18 0 32 -18q14 -21 14 -52v-30h-516z" />
    <glyph glyph-name="amacron" unicode="&#x101;" horiz-adv-x="1169" 
d="M881 518q0 177 -64 269q-81 115 -269 115t-269 -115q-65 -92 -65 -269q0 -179 61 -269q78 -115 265 -115q261 0 341 288v96zM881 269q-124 -261 -368 -261q-435 0 -435 510t470 510q469 0 469 -510v-498h-68q-28 0 -48 20q-20 19 -20 48v181zM313 1150q-17 0 -31 18
q-15 22 -15 53v29h516q18 0 32 -18q14 -21 14 -52v-30h-516z" />
    <glyph glyph-name="Abreve" unicode="&#x102;" horiz-adv-x="1243" 
d="M543 1270l-231 -801h556l-231 801h-94zM273 341l-65 -226q-24 -95 -117 -95h-65l376 1289q24 94 117 94h142q93 0 117 -95l376 -1288h-65q-93 0 -118 96l-65 225h-633zM866 1758l23 -28q-95 -227 -302 -227q-208 0 -296 227l24 28q129 -175 276 -175t275 175z" />
    <glyph glyph-name="abreve" unicode="&#x103;" horiz-adv-x="1169" 
d="M881 518q0 177 -64 269q-81 115 -269 115t-269 -115q-65 -92 -65 -269q0 -179 61 -269q78 -115 265 -115q261 0 341 288v96zM881 269q-124 -261 -368 -261q-435 0 -435 510t470 510q469 0 469 -510v-498h-68q-28 0 -48 20q-20 19 -20 48v181zM823 1381l23 -28
q-95 -227 -302 -227q-208 0 -296 227l24 28q129 -175 276 -175t275 175z" />
    <glyph glyph-name="Aogonek" unicode="&#x104;" horiz-adv-x="1243" 
d="M543 1270l-231 -801h556l-231 801h-94zM273 341l-65 -226q-24 -95 -117 -95h-65l376 1289q24 94 117 94h142q93 0 117 -95l376 -1288h-65q-93 0 -118 96l-65 225h-633zM1126 -20q-131 -113 -131 -205q0 -38 30 -68q29 -15 62 -15q61 0 153 45q8 2 14 2t6 -8v-35
q-106 -67 -193 -67q-38 0 -69 14q-75 44 -75 104q0 94 174 233h29z" />
    <glyph glyph-name="aogonek" unicode="&#x105;" horiz-adv-x="1169" 
d="M881 518q0 177 -64 269q-81 115 -269 115t-269 -115q-65 -92 -65 -269q0 -179 61 -269q78 -115 265 -115q261 0 341 288v96zM881 269q-124 -261 -368 -261q-435 0 -435 510t470 510q469 0 469 -510v-498h-68q-28 0 -48 20q-20 19 -20 48v181zM983 -20
q-131 -113 -131 -205q0 -38 30 -68q29 -15 62 -15q61 0 153 45q8 2 14 2t6 -8v-35q-106 -67 -193 -67q-38 0 -69 14q-75 44 -75 104q0 94 174 233h29z" />
    <glyph glyph-name="Cacute" unicode="&#x106;" horiz-adv-x="1145" 
d="M46 897q0 244 153 382q147 133 395 133q221 0 455 -84v-46q0 -30 -22 -51q-21 -21 -47 -21q-215 67 -386 67q-179 0 -289 -100q-114 -104 -114 -280v-374q0 -177 114 -280q110 -100 289 -100q171 0 386 67q26 0 47 -21q22 -21 22 -51v-46q-234 -84 -455 -84
q-248 0 -395 133q-153 137 -153 382v374zM459 1509l-24 28l270 237q19 9 38 9q50 0 65 -93z" />
    <glyph glyph-name="cacute" unicode="&#x107;" horiz-adv-x="1001" 
d="M929 96q-146 -88 -381 -88q-470 0 -470 510t470 510q235 0 381 -88v-72q0 -31 -27 -31q-14 0 -30 5q-164 60 -324 60q-188 0 -269 -115q-65 -92 -65 -269t65 -269q81 -115 269 -115q160 0 324 60q16 5 30 5q27 0 27 -31v-72zM415 1132l-24 28l270 237q19 9 38 9
q50 0 65 -93z" />
    <glyph glyph-name="Ccircumflex" unicode="&#x108;" horiz-adv-x="1145" 
d="M46 897q0 244 153 382q147 133 395 133q221 0 455 -84v-46q0 -30 -22 -51q-21 -21 -47 -21q-215 67 -386 67q-179 0 -289 -100q-114 -104 -114 -280v-374q0 -177 114 -280q110 -100 289 -100q171 0 386 67q26 0 47 -21q22 -21 22 -51v-46q-234 -84 -455 -84
q-248 0 -395 133q-153 137 -153 382v374zM548 1648l-270 -140l-25 29q117 100 266 233h57l266 -233l-24 -28z" />
    <glyph glyph-name="ccircumflex" unicode="&#x109;" horiz-adv-x="1001" 
d="M929 96q-146 -88 -381 -88q-470 0 -470 510t470 510q235 0 381 -88v-72q0 -31 -27 -31q-14 0 -30 5q-164 60 -324 60q-188 0 -269 -115q-65 -92 -65 -269t65 -269q81 -115 269 -115q160 0 324 60q16 5 30 5q27 0 27 -31v-72zM504 1271l-270 -140l-25 29q117 100 266 233
h57l266 -233l-24 -28z" />
    <glyph glyph-name="Cdotaccent" unicode="&#x10a;" horiz-adv-x="1145" 
d="M46 897q0 244 153 382q147 133 395 133q221 0 455 -84v-46q0 -30 -22 -51q-21 -21 -47 -21q-215 67 -386 67q-179 0 -289 -100q-114 -104 -114 -280v-374q0 -177 114 -280q110 -100 289 -100q171 0 386 67q26 0 47 -21q22 -21 22 -51v-46q-234 -84 -455 -84
q-248 0 -395 133q-153 137 -153 382v374zM475 1606q0 28 21 48t52 20h72v-105q0 -28 -21 -48t-51 -20h-73v105z" />
    <glyph glyph-name="cdotaccent" unicode="&#x10b;" horiz-adv-x="1001" 
d="M929 96q-146 -88 -381 -88q-470 0 -470 510t470 510q235 0 381 -88v-72q0 -31 -27 -31q-14 0 -30 5q-164 60 -324 60q-188 0 -269 -115q-65 -92 -65 -269t65 -269q81 -115 269 -115q160 0 324 60q16 5 30 5q27 0 27 -31v-72zM431 1229q0 28 21 48t52 20h72v-105
q0 -28 -21 -48t-51 -20h-73v105z" />
    <glyph glyph-name="Ccaron" unicode="&#x10c;" horiz-adv-x="1145" 
d="M46 897q0 244 153 382q147 133 395 133q221 0 455 -84v-46q0 -30 -22 -51q-21 -21 -47 -21q-215 67 -386 67q-179 0 -289 -100q-114 -104 -114 -280v-374q0 -177 114 -280q110 -100 289 -100q171 0 386 67q26 0 47 -21q22 -21 22 -51v-46q-234 -84 -455 -84
q-248 0 -395 133q-153 137 -153 382v374zM818 1764l24 -28l-266 -233h-57q-149 133 -266 233l25 29l270 -140z" />
    <glyph glyph-name="ccaron" unicode="&#x10d;" horiz-adv-x="1001" 
d="M929 96q-146 -88 -381 -88q-470 0 -470 510t470 510q235 0 381 -88v-72q0 -31 -27 -31q-14 0 -30 5q-164 60 -324 60q-188 0 -269 -115q-65 -92 -65 -269t65 -269q81 -115 269 -115q160 0 324 60q16 5 30 5q27 0 27 -31v-72zM774 1387l24 -28l-266 -233h-57
q-149 133 -266 233l25 29l270 -140z" />
    <glyph glyph-name="Dcaron" unicode="&#x10e;" horiz-adv-x="1356" 
d="M1175 535q0 -245 -153 -382q-147 -133 -394 -133h-548v877q0 244 153 382q147 133 395 133q247 0 394 -133q153 -138 153 -382v-362zM628 148q178 0 288 100q114 103 114 279v370q0 176 -114 280q-110 100 -288 100q-179 0 -289 -100q-114 -104 -114 -280v-749h403z
M898 1764l24 -28l-266 -233h-57q-149 133 -266 233l25 29l270 -140z" />
    <glyph glyph-name="dcaron" unicode="&#x10f;" horiz-adv-x="1579" 
d="M881 838q-176 64 -333 64q-183 0 -265 -109q-69 -92 -69 -275q0 -184 65 -275q79 -109 261 -109q260 0 341 278v426zM881 269q-124 -261 -368 -261q-435 0 -435 510t470 510q166 0 333 -62v359q0 28 20 48t48 20h68v-1373h-68q-28 0 -48 20q-20 19 -20 48v181zM1256 1038
q53 87 53 313q0 18 13 30t32 12h45v-2q0 -175 -122 -336q-12 -17 -19 -17h-2z" />
    <glyph glyph-name="Dcroat" unicode="&#x110;" horiz-adv-x="1401" 
d="M270 666v-518h403q178 0 288 100q114 103 114 279v370q0 176 -114 280q-110 100 -288 100q-179 0 -289 -100q-114 -104 -114 -280v-131h246q18 0 32 -18q14 -21 14 -52v-30h-292zM125 766v131q0 244 153 382q147 133 395 133q247 0 394 -133q153 -138 153 -382v-362
q0 -245 -153 -382q-147 -133 -394 -133h-548v646h-104q-17 0 -31 18q-15 22 -15 53v29h150z" />
    <glyph glyph-name="dcroat" unicode="&#x111;" horiz-adv-x="1180" 
d="M939 838q-176 64 -333 64q-183 0 -265 -109q-69 -92 -69 -275q0 -184 65 -275q79 -109 261 -109q260 0 341 278v426zM939 269q-124 -261 -368 -261q-435 0 -435 510t470 510q166 0 333 -62v359q0 28 20 48t48 20h68v-1373h-68q-28 0 -48 20q-20 19 -20 48v181zM281 1123
q-17 0 -31 18q-15 22 -15 53v29h951q18 0 32 -18q14 -21 14 -52v-30h-951z" />
    <glyph glyph-name="Emacron" unicode="&#x112;" horiz-adv-x="1133" 
d="M35 897q0 244 153 382q147 133 394 133q222 0 456 -84v-46q0 -30 -22 -51q-21 -21 -47 -21q-214 67 -387 67q-178 0 -288 -100q-114 -104 -114 -280v-108h697q29 0 48 -19q20 -20 20 -49v-59h-765v-139q0 -177 114 -280q110 -100 288 -100q173 0 387 67q26 0 47 -21
q22 -21 22 -51v-46q-234 -84 -456 -84q-247 0 -394 133q-153 137 -153 382v374zM302 1527q-17 0 -31 18q-15 22 -15 53v29h516q18 0 32 -18q14 -21 14 -52v-30h-516z" />
    <glyph glyph-name="emacron" unicode="&#x113;" horiz-adv-x="1065" 
d="M800 586q-13 165 -58 227q-65 89 -223 89q-160 0 -233 -88q-57 -68 -69 -228h583zM79 518q0 510 440 510q239 0 338 -147q81 -119 81 -362q0 -61 -68 -61h-651q8 -324 330 -324q160 0 324 60q16 5 30 5q27 0 27 -31v-72q-146 -88 -381 -88q-470 0 -470 510zM274 1150
q-17 0 -31 18q-15 22 -15 53v29h516q18 0 32 -18q14 -21 14 -52v-30h-516z" />
    <glyph glyph-name="Ebreve" unicode="&#x114;" horiz-adv-x="1133" 
d="M35 897q0 244 153 382q147 133 394 133q222 0 456 -84v-46q0 -30 -22 -51q-21 -21 -47 -21q-214 67 -387 67q-178 0 -288 -100q-114 -104 -114 -280v-108h697q29 0 48 -19q20 -20 20 -49v-59h-765v-139q0 -177 114 -280q110 -100 288 -100q173 0 387 67q26 0 47 -21
q22 -21 22 -51v-46q-234 -84 -456 -84q-247 0 -394 133q-153 137 -153 382v374zM812 1758l23 -28q-95 -227 -302 -227q-208 0 -296 227l24 28q129 -175 276 -175t275 175z" />
    <glyph glyph-name="ebreve" unicode="&#x115;" horiz-adv-x="1065" 
d="M800 586q-13 165 -58 227q-65 89 -223 89q-160 0 -233 -88q-57 -68 -69 -228h583zM79 518q0 510 440 510q239 0 338 -147q81 -119 81 -362q0 -61 -68 -61h-651q8 -324 330 -324q160 0 324 60q16 5 30 5q27 0 27 -31v-72q-146 -88 -381 -88q-470 0 -470 510zM784 1381
l23 -28q-95 -227 -302 -227q-208 0 -296 227l24 28q129 -175 276 -175t275 175z" />
    <glyph glyph-name="Edotaccent" unicode="&#x116;" horiz-adv-x="1133" 
d="M35 897q0 244 153 382q147 133 394 133q222 0 456 -84v-46q0 -30 -22 -51q-21 -21 -47 -21q-214 67 -387 67q-178 0 -288 -100q-114 -104 -114 -280v-108h697q29 0 48 -19q20 -20 20 -49v-59h-765v-139q0 -177 114 -280q110 -100 288 -100q173 0 387 67q26 0 47 -21
q22 -21 22 -51v-46q-234 -84 -456 -84q-247 0 -394 133q-153 137 -153 382v374zM464 1606q0 28 21 48t52 20h72v-105q0 -28 -21 -48t-51 -20h-73v105z" />
    <glyph glyph-name="edotaccent" unicode="&#x117;" horiz-adv-x="1065" 
d="M800 586q-13 165 -58 227q-65 89 -223 89q-160 0 -233 -88q-57 -68 -69 -228h583zM79 518q0 510 440 510q239 0 338 -147q81 -119 81 -362q0 -61 -68 -61h-651q8 -324 330 -324q160 0 324 60q16 5 30 5q27 0 27 -31v-72q-146 -88 -381 -88q-470 0 -470 510zM436 1229
q0 28 21 48t52 20h72v-105q0 -28 -21 -48t-51 -20h-73v105z" />
    <glyph glyph-name="Eogonek" unicode="&#x118;" horiz-adv-x="1133" 
d="M35 897q0 244 153 382q147 133 394 133q222 0 456 -84v-46q0 -30 -22 -51q-21 -21 -47 -21q-214 67 -387 67q-178 0 -288 -100q-114 -104 -114 -280v-108h697q29 0 48 -19q20 -20 20 -49v-59h-765v-139q0 -177 114 -280q110 -100 288 -100q173 0 387 67q26 0 47 -21
q22 -21 22 -51v-46q-234 -84 -456 -84q-247 0 -394 133q-153 137 -153 382v374zM956 42q-131 -113 -131 -205q0 -38 30 -68q29 -15 62 -15q61 0 153 45q8 2 14 2t6 -8v-35q-106 -67 -193 -67q-38 0 -69 14q-75 44 -75 104q0 94 174 233h29z" />
    <glyph glyph-name="eogonek" unicode="&#x119;" horiz-adv-x="1065" 
d="M800 586q-13 165 -58 227q-65 89 -223 89q-160 0 -233 -88q-57 -68 -69 -228h583zM79 518q0 510 440 510q239 0 338 -147q81 -119 81 -362q0 -61 -68 -61h-651q8 -324 330 -324q160 0 324 60q16 5 30 5q27 0 27 -31v-72q-146 -88 -381 -88q-470 0 -470 510zM835 33
q-131 -113 -131 -205q0 -38 30 -68q29 -15 62 -15q61 0 153 45q8 2 14 2t6 -8v-35q-106 -67 -193 -67q-38 0 -69 14q-75 44 -75 104q0 94 174 233h29z" />
    <glyph glyph-name="Ecaron" unicode="&#x11a;" horiz-adv-x="1133" 
d="M35 897q0 244 153 382q147 133 394 133q222 0 456 -84v-46q0 -30 -22 -51q-21 -21 -47 -21q-214 67 -387 67q-178 0 -288 -100q-114 -104 -114 -280v-108h697q29 0 48 -19q20 -20 20 -49v-59h-765v-139q0 -177 114 -280q110 -100 288 -100q173 0 387 67q26 0 47 -21
q22 -21 22 -51v-46q-234 -84 -456 -84q-247 0 -394 133q-153 137 -153 382v374zM807 1764l24 -28l-266 -233h-57q-149 133 -266 233l25 29l270 -140z" />
    <glyph glyph-name="ecaron" unicode="&#x11b;" horiz-adv-x="1065" 
d="M800 586q-13 165 -58 227q-65 89 -223 89q-160 0 -233 -88q-57 -68 -69 -228h583zM79 518q0 510 440 510q239 0 338 -147q81 -119 81 -362q0 -61 -68 -61h-651q8 -324 330 -324q160 0 324 60q16 5 30 5q27 0 27 -31v-72q-146 -88 -381 -88q-470 0 -470 510zM779 1387
l24 -28l-266 -233h-57q-149 133 -266 233l25 29l270 -140z" />
    <glyph glyph-name="Gcircumflex" unicode="&#x11c;" horiz-adv-x="1266" 
d="M1100 20h-76q-29 0 -49 20q-19 20 -19 48v161q-179 -241 -432 -241q-241 0 -365 133q-122 131 -122 382v374q0 244 153 382q147 133 394 133q222 0 456 -84v-46q0 -30 -22 -51q-21 -21 -47 -21q-214 67 -387 67q-178 0 -288 -100q-114 -104 -114 -280v-374
q0 -380 342 -380q235 0 432 214v265q0 28 19 48q20 20 49 20h76v-670zM569 1648l-270 -140l-25 29q117 100 266 233h57l266 -233l-24 -28z" />
    <glyph glyph-name="gcircumflex" unicode="&#x11d;" horiz-adv-x="1168" 
d="M881 518q0 177 -64 269q-81 115 -269 115t-269 -115q-65 -92 -65 -269q0 -179 61 -269q78 -115 265 -115q260 0 341 278v106zM881 269q-124 -261 -368 -261q-435 0 -435 510t470 510q469 0 469 -510v-375q0 -510 -469 -510q-236 0 -382 89v71q0 32 27 32q12 0 30 -5
q164 -61 325 -61q188 0 269 115q64 92 64 269v126zM548 1271l-270 -140l-25 29q117 100 266 233h57l266 -233l-24 -28z" />
    <glyph glyph-name="Gbreve" unicode="&#x11e;" horiz-adv-x="1266" 
d="M1100 20h-76q-29 0 -49 20q-19 20 -19 48v161q-179 -241 -432 -241q-241 0 -365 133q-122 131 -122 382v374q0 244 153 382q147 133 394 133q222 0 456 -84v-46q0 -30 -22 -51q-21 -21 -47 -21q-214 67 -387 67q-178 0 -288 -100q-114 -104 -114 -280v-374
q0 -380 342 -380q235 0 432 214v265q0 28 19 48q20 20 49 20h76v-670zM844 1758l23 -28q-95 -227 -302 -227q-208 0 -296 227l24 28q129 -175 276 -175t275 175z" />
    <glyph glyph-name="gbreve" unicode="&#x11f;" horiz-adv-x="1168" 
d="M881 518q0 177 -64 269q-81 115 -269 115t-269 -115q-65 -92 -65 -269q0 -179 61 -269q78 -115 265 -115q260 0 341 278v106zM881 269q-124 -261 -368 -261q-435 0 -435 510t470 510q469 0 469 -510v-375q0 -510 -469 -510q-236 0 -382 89v71q0 32 27 32q12 0 30 -5
q164 -61 325 -61q188 0 269 115q64 92 64 269v126zM823 1381l23 -28q-95 -227 -302 -227q-208 0 -296 227l24 28q129 -175 276 -175t275 175z" />
    <glyph glyph-name="Gdotaccent" unicode="&#x120;" horiz-adv-x="1266" 
d="M1100 20h-76q-29 0 -49 20q-19 20 -19 48v161q-179 -241 -432 -241q-241 0 -365 133q-122 131 -122 382v374q0 244 153 382q147 133 394 133q222 0 456 -84v-46q0 -30 -22 -51q-21 -21 -47 -21q-214 67 -387 67q-178 0 -288 -100q-114 -104 -114 -280v-374
q0 -380 342 -380q235 0 432 214v265q0 28 19 48q20 20 49 20h76v-670zM496 1606q0 28 21 48t52 20h72v-105q0 -28 -21 -48t-51 -20h-73v105z" />
    <glyph glyph-name="gdotaccent" unicode="&#x121;" horiz-adv-x="1168" 
d="M881 518q0 177 -64 269q-81 115 -269 115t-269 -115q-65 -92 -65 -269q0 -179 61 -269q78 -115 265 -115q260 0 341 278v106zM881 269q-124 -261 -368 -261q-435 0 -435 510t470 510q469 0 469 -510v-375q0 -510 -469 -510q-236 0 -382 89v71q0 32 27 32q12 0 30 -5
q164 -61 325 -61q188 0 269 115q64 92 64 269v126zM475 1229q0 28 21 48t52 20h72v-105q0 -28 -21 -48t-51 -20h-73v105z" />
    <glyph glyph-name="uni0122" unicode="&#x122;" horiz-adv-x="1266" 
d="M1100 20h-76q-29 0 -49 20q-19 20 -19 48v161q-179 -241 -432 -241q-241 0 -365 133q-122 131 -122 382v374q0 244 153 382q147 133 394 133q222 0 456 -84v-46q0 -30 -22 -51q-21 -21 -47 -21q-214 67 -387 67q-178 0 -288 -100q-114 -104 -114 -280v-374
q0 -380 342 -380q235 0 432 214v265q0 28 19 48q20 20 49 20h76v-670zM497 -398q57 69 57 266q0 12 14 21q15 11 40 11h54v2q0 -148 -138 -285q-15 -15 -26 -15h-1z" />
    <glyph glyph-name="uni0123" unicode="&#x123;" horiz-adv-x="1168" 
d="M881 518q0 177 -64 269q-81 115 -269 115t-269 -115q-65 -92 -65 -269q0 -179 61 -269q78 -115 265 -115q260 0 341 278v106zM881 269q-124 -261 -368 -261q-435 0 -435 510t470 510q469 0 469 -510v-375q0 -510 -469 -510q-236 0 -382 89v71q0 32 27 32q12 0 30 -5
q164 -61 325 -61q188 0 269 115q64 92 64 269v126zM611 1545q-53 -86 -53 -313q0 -17 -13 -29t-32 -12h-45v1q0 176 122 337q12 16 19 16h2z" />
    <glyph glyph-name="Hcircumflex" unicode="&#x124;" horiz-adv-x="1301" 
d="M249 88q0 -28 -20 -48t-48 -20h-77v1373h77q28 0 48 -20t20 -48v-555h708v555q0 28 20 48t48 20h77v-1373h-77q-28 0 -48 20t-20 48v554h-708v-554zM604 1648l-270 -140l-25 29q117 100 266 233h57l266 -233l-24 -28z" />
    <glyph glyph-name="hcircumflex" unicode="&#x125;" horiz-adv-x="1144" 
d="M979 20h-68q-28 0 -48 20q-20 19 -20 48v590q0 224 -238 224q-260 0 -341 -267v-547q0 -29 -20 -48q-20 -20 -48 -20h-68v1373h68q28 0 48 -20t20 -48v-558q125 261 368 261q347 0 347 -327v-681zM554 1630l-270 -140l-25 29q117 100 266 233h57l266 -233l-24 -28z" />
    <glyph glyph-name="Hbar" unicode="&#x126;" horiz-adv-x="1301" 
d="M249 88q0 -28 -20 -48t-48 -20h-77v1373h77q28 0 48 -20t20 -48v-555h708v555q0 28 20 48t48 20h77v-1373h-77q-28 0 -48 20t-20 48v554h-708v-554zM-96.1992 998q-22.0996 0 -40.2998 18q-19.499 22 -19.499 53v29h1236.29q23.3994 0 41.5996 -18
q18.1992 -21 18.1992 -52v-30h-1236.29z" />
    <glyph glyph-name="hbar" unicode="&#x127;" horiz-adv-x="1144" 
d="M979 20h-68q-28 0 -48 20q-20 19 -20 48v590q0 224 -238 224q-260 0 -341 -267v-547q0 -29 -20 -48q-20 -20 -48 -20h-68v1373h68q28 0 48 -20t20 -48v-558q125 261 368 261q347 0 347 -327v-681zM-25 1123q-17 0 -31 18q-15 22 -15 53v29h951q18 0 32 -18q14 -21 14 -52
v-30h-951z" />
    <glyph glyph-name="Itilde" unicode="&#x128;" horiz-adv-x="449" 
d="M319 1325q0 28 20 48t48 20h77v-1305q0 -28 -20 -48t-48 -20h-77v1305zM678 1624q-78 -92 -167 -92q-52 0 -109 36q-86 52 -163 52q-78 0 -120 -36l-14 36q72 82 156 82q53 0 113 -37q82 -49 157 -49q85 0 134 44z" />
    <glyph glyph-name="itilde" unicode="&#x129;" horiz-adv-x="376" 
d="M329 948q0 29 20 48q20 20 48 20h68v-928q0 -29 -20 -48q-20 -20 -48 -20h-68v928zM684 1247q-78 -92 -167 -92q-52 0 -109 36q-86 52 -163 52q-78 0 -120 -36l-14 36q72 82 156 82q53 0 113 -37q82 -49 157 -49q85 0 134 44z" />
    <glyph glyph-name="Imacron" unicode="&#x12a;" horiz-adv-x="449" 
d="M312 1325q0 28 20 48t48 20h77v-1305q0 -28 -20 -48t-48 -20h-77v1305zM150 1527q-17 0 -31 18q-15 22 -15 53v29h516q18 0 32 -18q14 -21 14 -52v-30h-516z" />
    <glyph glyph-name="imacron" unicode="&#x12b;" horiz-adv-x="376" 
d="M323 948q0 29 20 48q20 20 48 20h68v-928q0 -29 -20 -48q-20 -20 -48 -20h-68v928zM156 1150q-17 0 -31 18q-15 22 -15 53v29h516q18 0 32 -18q14 -21 14 -52v-30h-516z" />
    <glyph glyph-name="Ibreve" unicode="&#x12c;" horiz-adv-x="449" 
d="M333 1325q0 28 20 48t48 20h77v-1305q0 -28 -20 -48t-48 -20h-77v1305zM681 1758l23 -28q-95 -227 -302 -227q-208 0 -296 227l24 28q129 -175 276 -175t275 175z" />
    <glyph glyph-name="ibreve" unicode="&#x12d;" horiz-adv-x="376" 
d="M343 948q0 29 20 48q20 20 48 20h68v-928q0 -29 -20 -48q-20 -20 -48 -20h-68v928zM687 1381l23 -28q-95 -227 -302 -227q-208 0 -296 227l24 28q129 -175 276 -175t275 175z" />
    <glyph glyph-name="Iogonek" unicode="&#x12e;" horiz-adv-x="449" 
d="M296 1325q0 28 20 48t48 20h77v-1305q0 -28 -20 -48t-48 -20h-77v1305zM313 -20q-131 -113 -131 -205q0 -38 30 -68q29 -15 62 -15q61 0 153 45q8 2 14 2t6 -8v-35q-106 -67 -193 -67q-38 0 -69 14q-75 44 -75 104q0 94 174 233h29z" />
    <glyph glyph-name="iogonek" unicode="&#x12f;" horiz-adv-x="408" 
d="M327 948q0 29 20 48q20 20 48 20h68v-928q0 -29 -20 -48q-20 -20 -48 -20h-68v928zM327 1325q0 28 20 48t48 20h68v-105q0 -28 -20 -48t-48 -20h-68v105zM344 -20q-131 -113 -131 -205q0 -38 30 -68q29 -15 62 -15q61 0 153 45q8 2 14 2t6 -8v-35q-106 -67 -193 -67
q-38 0 -69 14q-75 44 -75 104q0 94 174 233h29z" />
    <glyph glyph-name="Idotaccent" unicode="&#x130;" horiz-adv-x="449" 
d="M104 1325q0 28 20 48t48 20h77v-1305q0 -28 -20 -48t-48 -20h-77v1305zM104 1606q0 28 21 48t52 20h72v-105q0 -28 -21 -48t-51 -20h-73v105z" />
    <glyph glyph-name="IJ" unicode="&#x132;" horiz-adv-x="1367" 
d="M104 1325q0 28 20 48t48 20h77v-1305q0 -28 -20 -48t-48 -20h-77v1305zM1038 1325q0 28 19 48q20 20 49 20h76v-870q0 -245 -152 -382q-148 -133 -395 -133q-83 0 -166 14v58q0 29 20 49t47 20q55 -6 99 -6q178 0 288 100q115 103 115 280v802z" />
    <glyph glyph-name="ij" unicode="&#x133;" horiz-adv-x="843" 
d="M126 948q0 29 20 48q20 20 48 20h68v-928q0 -29 -20 -48q-20 -20 -48 -20h-68v928zM126 1325q0 28 20 48t48 20h68v-105q0 -28 -20 -48t-48 -20h-68v105zM673 -22q0 -179 -81 -260q-72 -72 -231 -85q-26 0 -45 18q-18 19 -18 45v60q112 0 169 41q70 50 70 181v970
q0 29 20 48q20 20 48 20h68v-1038zM537 1325q0 28 20 48t48 20h68v-105q0 -28 -20 -48q-19 -20 -48 -20h-68v105z" />
    <glyph glyph-name="Jcircumflex" unicode="&#x134;" horiz-adv-x="918" 
d="M589 1325q0 28 19 48q20 20 49 20h76v-870q0 -245 -152 -382q-148 -133 -395 -133q-83 0 -166 14v58q0 29 20 49t47 20q55 -6 99 -6q178 0 288 100q115 103 115 280v802zM648 1648l-270 -140l-25 29q117 100 266 233h57l266 -233l-24 -28z" />
    <glyph glyph-name="jcircumflex" unicode="&#x135;" horiz-adv-x="435" 
d="M276 -22q0 -179 -81 -260q-72 -72 -231 -85q-26 0 -45 18q-18 19 -18 45v60q112 0 169 41q70 50 70 181v970q0 29 20 48q20 20 48 20h68v-1038zM189 1271l-270 -140l-25 29q117 100 266 233h57l266 -233l-24 -28z" />
    <glyph glyph-name="uni0136" unicode="&#x136;" horiz-adv-x="1193" 
d="M571 770q107 1 145 27q47 30 77 136l117 409q13 51 81 51h69l-144 -524q-20 -75 -90 -120q87 -58 131 -223l139 -506h-69q-68 0 -81 50l-130 457q-24 76 -64 99q-33 16 -119 16h-384v-554q0 -28 -20 -48t-48 -20h-77v1373h77q28 0 48 -20t20 -48v-555h322zM531 -398
q57 69 57 266q0 12 14 21q15 11 40 11h54v2q0 -148 -138 -285q-15 -15 -26 -15h-1z" />
    <glyph glyph-name="uni0137" unicode="&#x137;" horiz-adv-x="1036" 
d="M130 1393h68q28 0 48 -20t20 -48v-743h278q104 0 130 70l105 309q19 55 93 55h60l-113 -337q-29 -85 -86 -124q78 -55 105 -134l135 -401h-60q-74 0 -91 49l-107 314q-23 71 -111 71h-338v-366q0 -29 -20 -48q-20 -20 -48 -20h-68v1373zM484 -398q57 69 57 266
q0 12 14 21q15 11 40 11h54v2q0 -148 -138 -285q-15 -15 -26 -15h-1z" />
    <glyph glyph-name="kgreenlandic" unicode="&#x138;" horiz-adv-x="1036" 
d="M130 1393h68q28 0 48 -20t20 -48v-743h278q104 0 130 70l105 309q19 55 93 55h60l-113 -337q-29 -85 -86 -124q78 -55 105 -134l135 -401h-60q-74 0 -91 49l-107 314q-23 71 -111 71h-338v-366q0 -29 -20 -48q-20 -20 -48 -20h-68v1373z" />
    <glyph glyph-name="Lacute" unicode="&#x139;" horiz-adv-x="1168" 
d="M80 1400h72q31 0 52 -21t21 -51v-805q0 -177 114 -280q110 -100 289 -100q171 0 386 67q26 0 48 -21q21 -21 21 -51v-46q-234 -84 -455 -84q-248 0 -395 133q-153 137 -153 382v877zM493 1509l-24 28l270 237q19 9 38 9q50 0 65 -93z" />
    <glyph glyph-name="lacute" unicode="&#x13a;" horiz-adv-x="532" 
d="M126 1393h68q28 0 48 -20t20 -48v-978q0 -176 60 -196q29 -8 65 -8q25 0 52 4q63 0 63 -49v-69q-59 -14 -135 -14q-24 0 -46 2q-94 7 -144.5 71.5t-50.5 258.5v1046zM155 1478l-24 28l270 237q19 9 38 9q50 0 65 -93z" />
    <glyph glyph-name="uni013B" unicode="&#x13b;" horiz-adv-x="1168" 
d="M80 1400h72q31 0 52 -21t21 -51v-805q0 -177 114 -280q110 -100 289 -100q171 0 386 67q26 0 48 -21q21 -21 21 -51v-46q-234 -84 -455 -84q-248 0 -395 133q-153 137 -153 382v877zM510 -398q57 69 57 266q0 12 14 21q15 11 40 11h54v2q0 -148 -138 -285
q-15 -15 -26 -15h-1z" />
    <glyph glyph-name="uni013C" unicode="&#x13c;" horiz-adv-x="532" 
d="M123 1393h68q28 0 48 -20t20 -48v-978q0 -176 60 -196q29 -8 65 -8q25 0 52 4q63 0 63 -49v-69q-59 -14 -135 -14q-24 0 -46 2q-94 7 -144.5 71.5t-50.5 258.5v1046zM239 -398q57 69 57 266q0 12 14 21q15 11 40 11h54v2q0 -148 -138 -285q-15 -15 -26 -15h-1z" />
    <glyph glyph-name="Lcaron" unicode="&#x13d;" horiz-adv-x="1168" 
d="M80 1400h72q31 0 52 -21t21 -51v-805q0 -177 114 -280q110 -100 289 -100q171 0 386 67q26 0 48 -21q21 -21 21 -51v-46q-234 -84 -455 -84q-248 0 -395 133q-153 137 -153 382v877zM940 1038q53 87 53 313q0 18 13 30t32 12h45v-2q0 -175 -122 -336q-12 -17 -19 -17h-2z
" />
    <glyph glyph-name="lcaron" unicode="&#x13e;" horiz-adv-x="931" 
d="M123 1393h68q28 0 48 -20t20 -48v-978q0 -176 60 -196q29 -8 65 -8q25 0 52 4q63 0 63 -49v-69q-59 -14 -135 -14q-24 0 -46 2q-94 7 -144.5 71.5t-50.5 258.5v1046zM608 1038q53 87 53 313q0 18 13 30t32 12h45v-2q0 -175 -122 -336q-12 -17 -19 -17h-2z" />
    <glyph glyph-name="Ldot" unicode="&#x13f;" horiz-adv-x="1168" 
d="M80 1400h72q31 0 52 -21t21 -51v-805q0 -177 114 -280q110 -100 289 -100q171 0 386 67q26 0 48 -21q21 -21 21 -51v-46q-234 -84 -455 -84q-248 0 -395 133q-153 137 -153 382v877zM913.096 626.982q0 24.6484 17.8496 40.7988q17.8496 16.999 43.3486 16.999h62.0479
v-88.3975q0 -24.6494 -17.8496 -41.6484q-17.8496 -16.1504 -44.1982 -16.1504h-61.1982v88.3984z" />
    <glyph glyph-name="ldot" unicode="&#x140;" horiz-adv-x="689" 
d="M123 1393h68q28 0 48 -20t20 -48v-978q0 -176 60 -196q29 -8 65 -8q25 0 52 4q63 0 63 -49v-69q-59 -14 -135 -14q-24 0 -46 2q-94 7 -144.5 71.5t-50.5 258.5v1046zM534.096 626.982q0 24.6484 17.8496 40.7988q17.8496 16.999 43.3486 16.999h62.0479v-88.3975
q0 -24.6494 -17.8496 -41.6484q-17.8496 -16.1504 -44.1982 -16.1504h-61.1982v88.3984z" />
    <glyph glyph-name="Lslash" unicode="&#x141;" horiz-adv-x="1135" 
d="M77 1400h72q31 0 52 -21t21 -51v-805q0 -177 114 -280q110 -100 289 -100q171 0 386 67q26 0 48 -21q21 -21 21 -51v-46q-234 -84 -455 -84q-248 0 -395 133q-153 137 -153 382v877zM-150 571q-6 -2 -13 -2q-10 0 -22 7q-23 14 -36 41l-12 27l870 385q7 3 14 3
q10 0 22 -7q22 -14 35 -41l12 -28z" />
    <glyph glyph-name="lslash" unicode="&#x142;" horiz-adv-x="492" 
d="M431 1393h68q28 0 48 -20t20 -48v-978q0 -176 60 -196q29 -8 65 -8q25 0 52 4q63 0 63 -49v-69q-59 -14 -135 -14q-24 0 -46 2q-94 7 -144.5 71.5t-50.5 258.5v1046zM158 465q-7 -3 -14 -3q-10 0 -21 6q-25 12 -38 39l-14 28l851 424q8 4 16 4q9 0 20 -6q23 -12 37 -40
l14 -27z" />
    <glyph glyph-name="Nacute" unicode="&#x143;" horiz-adv-x="1397" 
d="M103 1328q0 30 21 51t51 21h138l740 -1238v1238h145v-1308q0 -30 -21 -51t-51 -21h-138l-740 1238v-1166q0 -30 -21 -51t-52 -21h-72v1308zM562 1509l-24 28l270 237q19 9 38 9q50 0 65 -93z" />
    <glyph glyph-name="nacute" unicode="&#x144;" horiz-adv-x="1134" 
d="M972 20h-68q-28 0 -48 20q-20 19 -20 48v590q0 224 -238 224q-260 0 -341 -268v-546q0 -29 -20 -48q-20 -20 -48 -20h-68v996h68q28 0 48 -20q20 -19 20 -48v-181q125 261 368 261q347 0 347 -327v-681zM458 1132l-24 28l270 237q19 9 38 9q50 0 65 -93z" />
    <glyph glyph-name="uni0145" unicode="&#x145;" horiz-adv-x="1397" 
d="M103 1328q0 30 21 51t51 21h138l740 -1238v1238h145v-1308q0 -30 -21 -51t-51 -21h-138l-740 1238v-1166q0 -30 -21 -51t-52 -21h-72v1308zM579 -398q57 69 57 266q0 12 14 21q15 11 40 11h54v2q0 -148 -138 -285q-15 -15 -26 -15h-1z" />
    <glyph glyph-name="uni0146" unicode="&#x146;" horiz-adv-x="1134" 
d="M972 20h-68q-28 0 -48 20q-20 19 -20 48v590q0 224 -238 224q-260 0 -341 -268v-546q0 -29 -20 -48q-20 -20 -48 -20h-68v996h68q28 0 48 -20q20 -19 20 -48v-181q125 261 368 261q347 0 347 -327v-681zM475 -398q57 69 57 266q0 12 14 21q15 11 40 11h54v2
q0 -148 -138 -285q-15 -15 -26 -15h-1z" />
    <glyph glyph-name="Ncaron" unicode="&#x147;" horiz-adv-x="1397" 
d="M103 1328q0 30 21 51t51 21h138l740 -1238v1238h145v-1308q0 -30 -21 -51t-51 -21h-138l-740 1238v-1166q0 -30 -21 -51t-52 -21h-72v1308zM921 1764l24 -28l-266 -233h-57q-149 133 -266 233l25 29l270 -140z" />
    <glyph glyph-name="ncaron" unicode="&#x148;" horiz-adv-x="1134" 
d="M972 20h-68q-28 0 -48 20q-20 19 -20 48v590q0 224 -238 224q-260 0 -341 -268v-546q0 -29 -20 -48q-20 -20 -48 -20h-68v996h68q28 0 48 -20q20 -19 20 -48v-181q125 261 368 261q347 0 347 -327v-681zM817 1387l24 -28l-266 -233h-57q-149 133 -266 233l25 29l270 -140
z" />
    <glyph glyph-name="napostrophe" unicode="&#x149;" horiz-adv-x="1222" 
d="M118 1191q53 86 53 313q0 17 13 29t32 12h45v-1q0 -176 -122 -337q-12 -16 -19 -16h-2zM1052 20h-68q-28 0 -48 20q-20 19 -20 48v590q0 224 -238 224q-260 0 -341 -268v-546q0 -29 -20 -48q-20 -20 -48 -20h-68v996h68q28 0 48 -20q20 -19 20 -48v-181q125 261 368 261
q347 0 347 -327v-681z" />
    <glyph glyph-name="Eng" unicode="&#x14a;" horiz-adv-x="1367" 
d="M1052 20h-9l-795 1300v-1228q0 -30 -21 -51t-52 -21h-72v1308q0 30 21 51t51 21h178l700 -1158v1158h145v-1308q0 -9 -3 -18q-18 -222 -173 -429q-20 -27 -34 -27h-18q71 116 82 402z" />
    <glyph glyph-name="eng" unicode="&#x14b;" horiz-adv-x="1104" 
d="M836 83v595q0 224 -238 224q-260 0 -341 -228v-586q0 -29 -20 -48q-20 -20 -48 -20h-68v996h68q28 0 48 -20q20 -19 20 -48v-181q125 261 368 261q347 0 347 -327v-576q0 -253 -176 -486q-20 -27 -34 -27h-18q83 135 91 456q0 7 1 15z" />
    <glyph glyph-name="Omacron" unicode="&#x14c;" horiz-adv-x="1324" 
d="M1141 523q0 -245 -153 -382q-147 -133 -395 -133q-247 0 -394 133q-153 137 -153 382v374q0 244 153 382q147 133 394 133q248 0 395 -133q153 -138 153 -382v-374zM305 1177q-114 -104 -114 -280v-374q0 -177 114 -280q110 -100 288 -100q179 0 289 100q114 103 114 280
v374q0 176 -114 280q-110 100 -289 100q-178 0 -288 -100zM359 1527q-17 0 -31 18q-15 22 -15 53v29h516q18 0 32 -18q14 -21 14 -52v-30h-516z" />
    <glyph glyph-name="omacron" unicode="&#x14d;" horiz-adv-x="1151" 
d="M548 901q-188 0 -269 -114q-65 -92 -65 -269t65 -270q81 -114 269 -114t269 114q64 93 64 270t-64 269q-81 114 -269 114zM1017 518q0 -510 -469 -510q-470 0 -470 510t470 510q469 0 469 -510zM313 1150q-17 0 -31 18q-15 22 -15 53v29h516q18 0 32 -18q14 -21 14 -52
v-30h-516z" />
    <glyph glyph-name="Obreve" unicode="&#x14e;" horiz-adv-x="1324" 
d="M1141 523q0 -245 -153 -382q-147 -133 -395 -133q-247 0 -394 133q-153 137 -153 382v374q0 244 153 382q147 133 394 133q248 0 395 -133q153 -138 153 -382v-374zM305 1177q-114 -104 -114 -280v-374q0 -177 114 -280q110 -100 288 -100q179 0 289 100q114 103 114 280
v374q0 176 -114 280q-110 100 -289 100q-178 0 -288 -100zM869 1758l23 -28q-95 -227 -302 -227q-208 0 -296 227l24 28q129 -175 276 -175t275 175z" />
    <glyph glyph-name="obreve" unicode="&#x14f;" horiz-adv-x="1151" 
d="M548 901q-188 0 -269 -114q-65 -92 -65 -269t65 -270q81 -114 269 -114t269 114q64 93 64 270t-64 269q-81 114 -269 114zM1017 518q0 -510 -469 -510q-470 0 -470 510t470 510q469 0 469 -510zM823 1381l23 -28q-95 -227 -302 -227q-208 0 -296 227l24 28
q129 -175 276 -175t275 175z" />
    <glyph glyph-name="Ohungarumlaut" unicode="&#x150;" horiz-adv-x="1324" 
d="M1141 523q0 -245 -153 -382q-147 -133 -395 -133q-247 0 -394 133q-153 137 -153 382v374q0 244 153 382q147 133 394 133q248 0 395 -133q153 -138 153 -382v-374zM305 1177q-114 -104 -114 -280v-374q0 -177 114 -280q110 -100 288 -100q179 0 289 100q114 103 114 280
v374q0 176 -114 280q-110 100 -289 100q-178 0 -288 -100zM223 1509l-24 28l270 237q19 9 38 9q50 0 65 -93zM646 1509l-24 28l270 237q19 9 38 9q50 0 65 -93z" />
    <glyph glyph-name="ohungarumlaut" unicode="&#x151;" horiz-adv-x="1151" 
d="M548 901q-188 0 -269 -114q-65 -92 -65 -269t65 -270q81 -114 269 -114t269 114q64 93 64 270t-64 269q-81 114 -269 114zM1017 518q0 -510 -469 -510q-470 0 -470 510t470 510q469 0 469 -510zM177 1132l-24 28l270 237q19 9 38 9q50 0 65 -93zM600 1132l-24 28l270 237
q19 9 38 9q50 0 65 -93z" />
    <glyph glyph-name="OE" unicode="&#x152;" horiz-adv-x="2064" 
d="M1068 235q-44 -60 -80 -94q-147 -133 -395 -133q-247 0 -394 133q-153 137 -153 382v374q0 244 153 382q147 133 394 133q248 0 395 -133q36 -34 80 -94q43 60 81 94q147 133 394 133q222 0 456 -84v-46q0 -30 -22 -51q-21 -21 -47 -21q-214 67 -387 67q-178 0 -288 -100
q-114 -104 -114 -280v-108h697q29 0 48 -19q20 -20 20 -49v-59h-765v-139q0 -177 114 -280q110 -100 288 -100q173 0 387 67q26 0 47 -21q22 -21 22 -51v-46q-234 -84 -456 -84q-247 0 -394 133q-38 34 -81 94zM996 897q0 176 -114 280q-110 100 -289 100q-178 0 -288 -100
q-114 -104 -114 -280v-374q0 -177 114 -280q110 -100 288 -100q179 0 289 100q114 103 114 280v374z" />
    <glyph glyph-name="oe" unicode="&#x153;" horiz-adv-x="1833" 
d="M1598 586q-13 165 -58 227q-65 89 -223 89q-160 0 -233 -88q-57 -68 -69 -228h583zM947 197q-130 -189 -399 -189q-470 0 -470 510t470 510q266 0 396 -185q123 185 373 185q239 0 338 -147q81 -119 81 -362q0 -61 -68 -61h-651q8 -324 330 -324q160 0 324 60q16 5 30 5
q27 0 27 -31v-72q-146 -88 -381 -88q-270 0 -400 189zM879 456q-2 30 -2 62q0 33 2 63q-10 131 -62 206q-81 114 -269 114t-269 -114q-65 -92 -65 -269t65 -270q81 -114 269 -114t269 114q53 76 62 208z" />
    <glyph glyph-name="Racute" unicode="&#x154;" horiz-adv-x="1206" 
d="M242 20h-145v1009q0 183 151 288q136 95 334 95h4q200 -1 335 -96q150 -105 150 -287q0 -286 -279 -393q89 -56 160 -234l173 -382h-90q-60 0 -83 52l-188 419q-43 114 -216 114h-306v-585zM242 733h281q403 0 403 296q0 125 -110 193q-91 55 -231 55h-5q-137 0 -227 -55
q-111 -67 -111 -193v-296zM527 1509l-24 28l270 237q19 9 38 9q50 0 65 -93z" />
    <glyph glyph-name="racute" unicode="&#x155;" horiz-adv-x="840" 
d="M121 1016h68q28 0 48 -20t20 -48v-181q125 261 315 261q94 0 178 -19v-69q0 -48 -63 -48q-61 9 -142 9q-207 0 -288 -267v-546q0 -29 -20 -49q-20 -19 -48 -19h-68v996zM347 1132l-24 28l270 237q19 9 38 9q50 0 65 -93z" />
    <glyph glyph-name="uni0156" unicode="&#x156;" horiz-adv-x="1206" 
d="M242 20h-145v1009q0 183 151 288q136 95 334 95h4q200 -1 335 -96q150 -105 150 -287q0 -286 -279 -393q89 -56 160 -234l173 -382h-90q-60 0 -83 52l-188 419q-43 114 -216 114h-306v-585zM242 733h281q403 0 403 296q0 125 -110 193q-91 55 -231 55h-5q-137 0 -227 -55
q-111 -67 -111 -193v-296zM544 -398q57 69 57 266q0 12 14 21q15 11 40 11h54v2q0 -148 -138 -285q-15 -15 -26 -15h-1z" />
    <glyph glyph-name="uni0157" unicode="&#x157;" horiz-adv-x="840" 
d="M121 1016h68q28 0 48 -20t20 -48v-181q125 261 315 261q94 0 178 -19v-69q0 -48 -63 -48q-61 9 -142 9q-207 0 -288 -267v-546q0 -29 -20 -49q-20 -19 -48 -19h-68v996zM364 -398q57 69 57 266q0 12 14 21q15 11 40 11h54v2q0 -148 -138 -285q-15 -15 -26 -15h-1z" />
    <glyph glyph-name="Rcaron" unicode="&#x158;" horiz-adv-x="1206" 
d="M242 20h-145v1009q0 183 151 288q136 95 334 95h4q200 -1 335 -96q150 -105 150 -287q0 -286 -279 -393q89 -56 160 -234l173 -382h-90q-60 0 -83 52l-188 419q-43 114 -216 114h-306v-585zM242 733h281q403 0 403 296q0 125 -110 193q-91 55 -231 55h-5q-137 0 -227 -55
q-111 -67 -111 -193v-296zM887 1764l24 -28l-266 -233h-57q-149 133 -266 233l25 29l270 -140z" />
    <glyph glyph-name="rcaron" unicode="&#x159;" horiz-adv-x="840" 
d="M121 1016h68q28 0 48 -20t20 -48v-181q125 261 315 261q94 0 178 -19v-69q0 -48 -63 -48q-61 9 -142 9q-207 0 -288 -267v-546q0 -29 -20 -49q-20 -19 -48 -19h-68v996zM706 1387l24 -28l-266 -233h-57q-149 133 -266 233l25 29l270 -140z" />
    <glyph glyph-name="Sacute" unicode="&#x15a;" horiz-adv-x="1140" 
d="M760 204q112 71 112 192q0 149 -143 207q-60 26 -292 61q-195 30 -279 86q-123 83 -123 267q0 185 137 293q128 102 320 102q221 0 455 -84v-46q0 -30 -21 -51t-47 -21q-215 67 -387 67q-123 0 -212 -64q-100 -73 -100 -196q0 -136 146 -187q45 -18 295 -55
q192 -30 278 -93q118 -86 118 -273v-12q-4 -183 -148 -290q-132 -99 -326 -99q-221 0 -455 84v46q0 30 21 51t47 21q215 -67 387 -67q125 0 217 61zM437 1509l-24 28l270 237q19 9 38 9q50 0 65 -93z" />
    <glyph glyph-name="sacute" unicode="&#x15b;" horiz-adv-x="907" 
d="M757 939v-71q0 -32 -27 -32q-12 0 -30 5q-165 60 -299 60q-94 0 -149 -51q-51 -46 -51 -112q0 -86 105 -119q3 -2 207 -41q133 -23 194 -75q80 -66 80 -197v-9q-2 -118 -89 -199q-96 -90 -261 -90q-211 0 -357 88v71q0 32 28 32q13 0 29 -5q165 -60 300 -60q94 0 153 49
q58 47 58 114q0 96 -104 134q-28 12 -205 44q-133 23 -193 69q-84 63 -84 194q0 119 82 199q92 91 257 91q210 0 356 -89zM336 1132l-24 28l270 237q19 9 38 9q50 0 65 -93z" />
    <glyph glyph-name="Scircumflex" unicode="&#x15c;" horiz-adv-x="1140" 
d="M760 204q112 71 112 192q0 149 -143 207q-60 26 -292 61q-195 30 -279 86q-123 83 -123 267q0 185 137 293q128 102 320 102q221 0 455 -84v-46q0 -30 -21 -51t-47 -21q-215 67 -387 67q-123 0 -212 -64q-100 -73 -100 -196q0 -136 146 -187q45 -18 295 -55
q192 -30 278 -93q118 -86 118 -273v-12q-4 -183 -148 -290q-132 -99 -326 -99q-221 0 -455 84v46q0 30 21 51t47 21q215 -67 387 -67q125 0 217 61zM527 1648l-270 -140l-25 29q117 100 266 233h57l266 -233l-24 -28z" />
    <glyph glyph-name="scircumflex" unicode="&#x15d;" horiz-adv-x="907" 
d="M757 939v-71q0 -32 -27 -32q-12 0 -30 5q-165 60 -299 60q-94 0 -149 -51q-51 -46 -51 -112q0 -86 105 -119q3 -2 207 -41q133 -23 194 -75q80 -66 80 -197v-9q-2 -118 -89 -199q-96 -90 -261 -90q-211 0 -357 88v71q0 32 28 32q13 0 29 -5q165 -60 300 -60q94 0 153 49
q58 47 58 114q0 96 -104 134q-28 12 -205 44q-133 23 -193 69q-84 63 -84 194q0 119 82 199q92 91 257 91q210 0 356 -89zM425 1271l-270 -140l-25 29q117 100 266 233h57l266 -233l-24 -28z" />
    <glyph glyph-name="Scedilla" unicode="&#x15e;" horiz-adv-x="1110" 
d="M532 7q-234 10 -444 85v46q0 30 21 51t47 21q215 -67 387 -67q125 0 217 61q112 71 112 192q0 149 -143 207q-60 26 -292 61q-195 30 -279 86q-123 83 -123 267q0 185 137 293q128 102 320 102q221 0 455 -84v-46q0 -30 -21 -51t-47 -21q-215 67 -387 67q-123 0 -212 -64
q-100 -73 -100 -196q0 -136 146 -187q45 -18 295 -55q192 -30 278 -93q118 -86 118 -273v-12q-4 -183 -148 -290q-115 -84 -283 -97l-48 -74q159 -78 159 -164q0 -46 -39 -98q-46 -44 -114 -44q-81 0 -184 60l-4 39v4q0 9 5 9h4q5 0 11 -2q97 -38 156 -38q49 0 78 29
q9 24 9 43q0 87 -143 127z" />
    <glyph glyph-name="scedilla" unicode="&#x15f;" horiz-adv-x="877" 
d="M430 7q-219 10 -350 89v71q0 32 28 32q13 0 29 -5q165 -60 300 -60q94 0 153 49q58 47 58 114q0 96 -104 134q-28 12 -205 44q-133 23 -193 69q-84 63 -84 194q0 119 82 199q92 91 257 91q210 0 356 -89v-71q0 -32 -27 -32q-12 0 -30 5q-165 60 -299 60q-94 0 -149 -51
q-51 -46 -51 -112q0 -86 105 -119q3 -2 207 -41q133 -23 194 -75q80 -66 80 -197v-9q-2 -118 -89 -199q-78 -73 -213 -89l-49 -73q159 -78 159 -164q0 -46 -39 -98q-46 -44 -114 -44q-81 0 -184 60l-4 39v4q0 9 5 9h4q5 0 11 -2q97 -38 156 -38q49 0 78 29q9 24 9 43
q0 87 -143 127z" />
    <glyph glyph-name="Scaron" unicode="&#x160;" horiz-adv-x="1140" 
d="M760 204q112 71 112 192q0 149 -143 207q-60 26 -292 61q-195 30 -279 86q-123 83 -123 267q0 185 137 293q128 102 320 102q221 0 455 -84v-46q0 -30 -21 -51t-47 -21q-215 67 -387 67q-123 0 -212 -64q-100 -73 -100 -196q0 -136 146 -187q45 -18 295 -55
q192 -30 278 -93q118 -86 118 -273v-12q-4 -183 -148 -290q-132 -99 -326 -99q-221 0 -455 84v46q0 30 21 51t47 21q215 -67 387 -67q125 0 217 61zM797 1764l24 -28l-266 -233h-57q-149 133 -266 233l25 29l270 -140z" />
    <glyph glyph-name="scaron" unicode="&#x161;" horiz-adv-x="907" 
d="M757 939v-71q0 -32 -27 -32q-12 0 -30 5q-165 60 -299 60q-94 0 -149 -51q-51 -46 -51 -112q0 -86 105 -119q3 -2 207 -41q133 -23 194 -75q80 -66 80 -197v-9q-2 -118 -89 -199q-96 -90 -261 -90q-211 0 -357 88v71q0 32 28 32q13 0 29 -5q165 -60 300 -60q94 0 153 49
q58 47 58 114q0 96 -104 134q-28 12 -205 44q-133 23 -193 69q-84 63 -84 194q0 119 82 199q92 91 257 91q210 0 356 -89zM695 1387l24 -28l-266 -233h-57q-149 133 -266 233l25 29l270 -140z" />
    <glyph glyph-name="uni0162" unicode="&#x162;" horiz-adv-x="976" 
d="M86 1265q-28 0 -48 20q-20 19 -20 48v60h899q28 0 48 -20t20 -48v-60h-411v-1177q0 -28 -20 -48t-48 -20h-77v1245h-343zM471 -19l-31 -46q159 -78 159 -164q0 -46 -39 -98q-46 -44 -114 -44q-81 0 -184 60l-4 39v4q0 9 5 9h4q5 0 11 -2q97 -38 156 -38q49 0 78 29
q9 24 9 43q0 87 -143 127l43 81h50z" />
    <glyph glyph-name="uni0163" unicode="&#x163;" horiz-adv-x="813" 
d="M111 888q-28 0 -48 20q-20 19 -20 48v60h145v203q0 29 20 48q20 20 48 20h68v-271h349q28 0 48 -20t20 -48v-60h-417v-533q0 -131 70 -181q58 -40 190 -40q55 0 115 9q63 0 63 -48v-69q-83 -18 -178 -18q-205 0 -294 70q-102 79 -102 277v533h-77zM581 -18l-31 -46
q159 -78 159 -164q0 -46 -39 -98q-46 -44 -114 -44q-81 0 -184 60l-4 39v4q0 9 5 9h4q5 0 11 -2q97 -38 156 -38q49 0 78 29q9 24 9 43q0 87 -143 127l43 81h50z" />
    <glyph glyph-name="Tcaron" unicode="&#x164;" horiz-adv-x="976" 
d="M86 1265q-28 0 -48 20q-20 19 -20 48v60h899q28 0 48 -20t20 -48v-60h-411v-1177q0 -28 -20 -48t-48 -20h-77v1245h-343zM772 1764l24 -28l-266 -233h-57q-149 133 -266 233l25 29l270 -140z" />
    <glyph glyph-name="tcaron" unicode="&#x165;" horiz-adv-x="1212" 
d="M111 888q-28 0 -48 20q-20 19 -20 48v60h145v203q0 29 20 48q20 20 48 20h68v-271h349q28 0 48 -20t20 -48v-60h-417v-533q0 -131 70 -181q58 -40 190 -40q55 0 115 9q63 0 63 -48v-69q-83 -18 -178 -18q-205 0 -294 70q-102 79 -102 277v533h-77zM889 1038q53 87 53 313
q0 18 13 30t32 12h45v-2q0 -175 -122 -336q-12 -17 -19 -17h-2z" />
    <glyph glyph-name="Tbar" unicode="&#x166;" horiz-adv-x="976" 
d="M101 1265q-28 0 -48 20q-20 19 -20 48v60h899q28 0 48 -20t20 -48v-60h-411v-1177q0 -28 -20 -48t-48 -20h-77v1245h-343zM64 657q-17 0 -31 18q-15 22 -15 53v29h951q18 0 32 -18q14 -21 14 -52v-30h-951z" />
    <glyph glyph-name="tbar" unicode="&#x167;" horiz-adv-x="813" 
d="M231 888q-28 0 -48 20q-20 19 -20 48v60h145v203q0 29 20 48q20 20 48 20h68v-271h349q28 0 48 -20t20 -48v-60h-417v-533q0 -131 70 -181q58 -40 190 -40q55 0 115 9q63 0 63 -48v-69q-83 -18 -178 -18q-205 0 -294 70q-102 79 -102 277v533h-77zM51 466q-17 0 -31 18
q-15 22 -15 53v29h951q18 0 32 -18q14 -21 14 -52v-30h-951z" />
    <glyph glyph-name="Utilde" unicode="&#x168;" horiz-adv-x="1237" 
d="M1066 391q0 -182 -150 -287q-135 -95 -335 -96q-201 0 -338 95q-151 105 -151 288v1002h145v-1002q0 -126 111 -193q90 -55 227 -55h5q140 0 231 55q110 68 110 193v1002h145v-1002zM866 1624q-78 -92 -167 -92q-52 0 -109 36q-86 52 -163 52q-78 0 -120 -36l-14 36
q72 82 156 82q53 0 113 -37q82 -49 157 -49q85 0 134 44z" />
    <glyph glyph-name="utilde" unicode="&#x169;" horiz-adv-x="1138" 
d="M834 268q-124 -260 -368 -260q-347 0 -347 327v681h68q28 0 48 -20t20 -48v-590q0 -224 238 -224q267 0 341 261v553q0 28 20 48t48 20h68v-996h-68q-28 0 -48 19q-20 20 -20 49v180zM831 1247q-78 -92 -167 -92q-52 0 -109 36q-86 52 -163 52q-78 0 -120 -36l-14 36
q72 82 156 82q53 0 113 -37q82 -49 157 -49q85 0 134 44z" />
    <glyph glyph-name="Umacron" unicode="&#x16a;" horiz-adv-x="1237" 
d="M1066 391q0 -182 -150 -287q-135 -95 -335 -96q-201 0 -338 95q-151 105 -151 288v1002h145v-1002q0 -126 111 -193q90 -55 227 -55h5q140 0 231 55q110 68 110 193v1002h145v-1002zM344 1527q-17 0 -31 18q-15 22 -15 53v29h516q18 0 32 -18q14 -21 14 -52v-30h-516z
" />
    <glyph glyph-name="umacron" unicode="&#x16b;" horiz-adv-x="1138" 
d="M834 268q-124 -260 -368 -260q-347 0 -347 327v681h68q28 0 48 -20t20 -48v-590q0 -224 238 -224q267 0 341 261v553q0 28 20 48t48 20h68v-996h-68q-28 0 -48 19q-20 20 -20 49v180zM310 1150q-17 0 -31 18q-15 22 -15 53v29h516q18 0 32 -18q14 -21 14 -52v-30h-516z
" />
    <glyph glyph-name="Ubreve" unicode="&#x16c;" horiz-adv-x="1237" 
d="M1066 391q0 -182 -150 -287q-135 -95 -335 -96q-201 0 -338 95q-151 105 -151 288v1002h145v-1002q0 -126 111 -193q90 -55 227 -55h5q140 0 231 55q110 68 110 193v1002h145v-1002zM855 1758l23 -28q-95 -227 -302 -227q-208 0 -296 227l24 28q129 -175 276 -175
t275 175z" />
    <glyph glyph-name="ubreve" unicode="&#x16d;" horiz-adv-x="1138" 
d="M834 268q-124 -260 -368 -260q-347 0 -347 327v681h68q28 0 48 -20t20 -48v-590q0 -224 238 -224q267 0 341 261v553q0 28 20 48t48 20h68v-996h-68q-28 0 -48 19q-20 20 -20 49v180zM820 1381l23 -28q-95 -227 -302 -227q-208 0 -296 227l24 28q129 -175 276 -175
t275 175z" />
    <glyph glyph-name="Uring" unicode="&#x16e;" horiz-adv-x="1237" 
d="M1066 391q0 -182 -150 -287q-135 -95 -335 -96q-201 0 -338 95q-151 105 -151 288v1002h145v-1002q0 -126 111 -193q90 -55 227 -55h5q140 0 231 55q110 68 110 193v1002h145v-1002zM692.5 1723.5q46.5 -46.5 46.5 -113.5q0 -66 -46.5 -113t-113.5 -47t-113.5 47
t-46.5 113q0 67 46.5 113.5t113.5 46.5t113.5 -46.5zM579 1714q-43 0 -73 -30.5t-30 -73.5q0 -42 30 -72.5t73 -30.5t73.5 30.5t30.5 72.5q0 43 -30.5 73.5t-73.5 30.5z" />
    <glyph glyph-name="uring" unicode="&#x16f;" horiz-adv-x="1138" 
d="M834 268q-124 -260 -368 -260q-347 0 -347 327v681h68q28 0 48 -20t20 -48v-590q0 -224 238 -224q267 0 341 261v553q0 28 20 48t48 20h68v-996h-68q-28 0 -48 19q-20 20 -20 49v180zM658.5 1346.5q46.5 -46.5 46.5 -113.5q0 -66 -46.5 -113t-113.5 -47t-113.5 47
t-46.5 113q0 67 46.5 113.5t113.5 46.5t113.5 -46.5zM545 1337q-43 0 -73 -30.5t-30 -73.5q0 -42 30 -72.5t73 -30.5t73.5 30.5t30.5 72.5q0 43 -30.5 73.5t-73.5 30.5z" />
    <glyph glyph-name="Uhungarumlaut" unicode="&#x170;" horiz-adv-x="1237" 
d="M1066 391q0 -182 -150 -287q-135 -95 -335 -96q-201 0 -338 95q-151 105 -151 288v1002h145v-1002q0 -126 111 -193q90 -55 227 -55h5q140 0 231 55q110 68 110 193v1002h145v-1002zM208 1509l-24 28l270 237q19 9 38 9q50 0 65 -93zM631 1509l-24 28l270 237q19 9 38 9
q50 0 65 -93z" />
    <glyph glyph-name="uhungarumlaut" unicode="&#x171;" horiz-adv-x="1138" 
d="M834 268q-124 -260 -368 -260q-347 0 -347 327v681h68q28 0 48 -20t20 -48v-590q0 -224 238 -224q267 0 341 261v553q0 28 20 48t48 20h68v-996h-68q-28 0 -48 19q-20 20 -20 49v180zM174 1132l-24 28l270 237q19 9 38 9q50 0 65 -93zM597 1132l-24 28l270 237q19 9 38 9
q50 0 65 -93z" />
    <glyph glyph-name="Uogonek" unicode="&#x172;" horiz-adv-x="1237" 
d="M1066 391q0 -182 -150 -287q-135 -95 -335 -96q-201 0 -338 95q-151 105 -151 288v1002h145v-1002q0 -126 111 -193q90 -55 227 -55h5q140 0 231 55q110 68 110 193v1002h145v-1002zM571 -20q-131 -113 -131 -205q0 -38 30 -68q29 -15 62 -15q61 0 153 45q8 2 14 2t6 -8
v-35q-106 -67 -193 -67q-38 0 -69 14q-75 44 -75 104q0 94 174 233h29z" />
    <glyph glyph-name="uogonek" unicode="&#x173;" horiz-adv-x="1138" 
d="M834 268q-124 -260 -368 -260q-347 0 -347 327v681h68q28 0 48 -20t20 -48v-590q0 -224 238 -224q267 0 341 261v553q0 28 20 48t48 20h68v-996h-68q-28 0 -48 19q-20 20 -20 49v180zM936 -20q-131 -113 -131 -205q0 -38 30 -68q29 -15 62 -15q61 0 153 45q8 2 14 2t6 -8
v-35q-106 -67 -193 -67q-38 0 -69 14q-75 44 -75 104q0 94 174 233h29z" />
    <glyph glyph-name="Wcircumflex" unicode="&#x174;" horiz-adv-x="2083" 
d="M1031 1295l-336 -1190q-24 -96 -113 -96h-78q-90 0 -113 94l-364 1289h62q90 0 113 -94l324 -1148h34l324 1147q23 95 112 95h89q89 0 112 -94l324 -1148h34l324 1147q24 95 113 95h62l-363 -1287q-24 -96 -114 -96h-78q-89 0 -112 94l-336 1192h-20zM1041 1648
l-270 -140l-25 29q117 100 266 233h57l266 -233l-24 -28z" />
    <glyph glyph-name="wcircumflex" unicode="&#x175;" horiz-adv-x="1538" 
d="M376 136h44l180 806q20 74 96 74h76q76 0 96 -76l204 -804h44l171 806q20 74 97 74h45l-187 -922q-20 -74 -97 -74h-103q-76 0 -96 76l-203 804h-33l-163 -806q-20 -74 -97 -74h-102q-77 0 -97 75l-231 921h64q77 0 97 -74zM724 1271l-270 -140l-25 29q117 100 266 233
h57l266 -233l-24 -28z" />
    <glyph glyph-name="Ycircumflex" unicode="&#x176;" horiz-adv-x="1136" 
d="M624 88q0 -28 -20 -48t-48 -20h-77v623q-169 1 -216 38q-55 42 -98 206l-139 506h69q68 0 82 -51l130 -456q23 -77 63 -99q31 -17 119 -17h125q87 0 118 17q40 22 64 99l130 456q13 51 81 51h69l-139 -506q-42 -157 -96 -201q-51 -39 -217 -43v-555zM552 1648l-270 -140
l-25 29q117 100 266 233h57l266 -233l-24 -28z" />
    <glyph glyph-name="ycircumflex" unicode="&#x177;" horiz-adv-x="1141" 
d="M969 143q0 -510 -469 -510q-236 0 -382 88v71q0 32 28 32q13 0 29 -5q164 -60 325 -60q188 0 269 115q64 92 64 269v125q-124 -260 -368 -260q-347 0 -347 327v681h68q28 0 48 -20t20 -48v-590q0 -224 238 -224q260 0 341 278v536q0 28 20 48t48 20h68v-873zM544 1271
l-270 -140l-25 29q117 100 266 233h57l266 -233l-24 -28z" />
    <glyph glyph-name="Ydieresis" unicode="&#x178;" horiz-adv-x="1136" 
d="M624 88q0 -28 -20 -48t-48 -20h-77v623q-169 1 -216 38q-55 42 -98 206l-139 506h69q68 0 82 -51l130 -456q23 -77 63 -99q31 -17 119 -17h125q87 0 118 17q40 22 64 99l130 456q13 51 81 51h69l-139 -506q-42 -157 -96 -201q-51 -39 -217 -43v-555zM312 1606q0 28 21 48
t52 20h72v-105q0 -28 -21 -48t-51 -20h-73v105zM790 1501h-73q-30 0 -51 20t-21 48v105h72q31 0 52 -20t21 -48v-105z" />
    <glyph glyph-name="Zacute" unicode="&#x179;" horiz-adv-x="1100" 
d="M944 1392q30 0 50 -20q21 -21 21 -51v-96l-828 -1075h756q30 0 50 -20q21 -21 21 -51v-59h-895q-30 0 -50 21q-21 20 -21 50v96l828 1075h-757q-30 0 -50 21q-21 20 -21 50v59h896zM443 1509l-24 28l270 237q19 9 38 9q50 0 65 -93z" />
    <glyph glyph-name="zacute" unicode="&#x17a;" horiz-adv-x="874" 
d="M721 1016q28 0 48 -20t20 -48v-72l-584 -729h516q28 0 48 -19q20 -20 20 -49v-59h-668q-28 0 -48 19q-20 20 -20 49v71l584 729h-516q-28 0 -48 20q-20 19 -20 48v60h668zM332 1132l-24 28l270 237q19 9 38 9q50 0 65 -93z" />
    <glyph glyph-name="Zdotaccent" unicode="&#x17b;" horiz-adv-x="1100" 
d="M944 1392q30 0 50 -20q21 -21 21 -51v-96l-828 -1075h756q30 0 50 -20q21 -21 21 -51v-59h-895q-30 0 -50 21q-21 20 -21 50v96l828 1075h-757q-30 0 -50 21q-21 20 -21 50v59h896zM459 1606q0 28 21 48t52 20h72v-105q0 -28 -21 -48t-51 -20h-73v105z" />
    <glyph glyph-name="zdotaccent" unicode="&#x17c;" horiz-adv-x="874" 
d="M721 1016q28 0 48 -20t20 -48v-72l-584 -729h516q28 0 48 -19q20 -20 20 -49v-59h-668q-28 0 -48 19q-20 20 -20 49v71l584 729h-516q-28 0 -48 20q-20 19 -20 48v60h668zM349 1229q0 28 21 48t52 20h72v-105q0 -28 -21 -48t-51 -20h-73v105z" />
    <glyph glyph-name="Zcaron" unicode="&#x17d;" horiz-adv-x="1100" 
d="M944 1392q30 0 50 -20q21 -21 21 -51v-96l-828 -1075h756q30 0 50 -20q21 -21 21 -51v-59h-895q-30 0 -50 21q-21 20 -21 50v96l828 1075h-757q-30 0 -50 21q-21 20 -21 50v59h896zM802 1764l24 -28l-266 -233h-57q-149 133 -266 233l25 29l270 -140z" />
    <glyph glyph-name="zcaron" unicode="&#x17e;" horiz-adv-x="874" 
d="M721 1016q28 0 48 -20t20 -48v-72l-584 -729h516q28 0 48 -19q20 -20 20 -49v-59h-668q-28 0 -48 19q-20 20 -20 49v71l584 729h-516q-28 0 -48 20q-20 19 -20 48v60h668zM692 1387l24 -28l-266 -233h-57q-149 133 -266 233l25 29l270 -140z" />
    <glyph glyph-name="longs" unicode="&#x17f;" horiz-adv-x="652" 
d="M300 88q0 -29 -20 -48q-20 -20 -48 -20h-68v1036q0 198 102 277q89 70 293 70q95 0 178 -19v-69q0 -48 -63 -48q-60 10 -115 10q-132 0 -189 -41q-70 -50 -70 -180v-968z" />
    <glyph glyph-name="uni0218" unicode="&#x218;" horiz-adv-x="1140" 
d="M760 204q112 71 112 192q0 149 -143 207q-60 26 -292 61q-195 30 -279 86q-123 83 -123 267q0 185 137 293q128 102 320 102q221 0 455 -84v-46q0 -30 -21 -51t-47 -21q-215 67 -387 67q-123 0 -212 -64q-100 -73 -100 -196q0 -136 146 -187q45 -18 295 -55
q192 -30 278 -93q118 -86 118 -273v-12q-4 -183 -148 -290q-132 -99 -326 -99q-221 0 -455 84v46q0 30 21 51t47 21q215 -67 387 -67q125 0 217 61zM454 -398q57 69 57 266q0 12 14 21q15 11 40 11h54v2q0 -148 -138 -285q-15 -15 -26 -15h-1z" />
    <glyph glyph-name="uni0219" unicode="&#x219;" horiz-adv-x="907" 
d="M757 939v-71q0 -32 -27 -32q-12 0 -30 5q-165 60 -299 60q-94 0 -149 -51q-51 -46 -51 -112q0 -86 105 -119q3 -2 207 -41q133 -23 194 -75q80 -66 80 -197v-9q-2 -118 -89 -199q-96 -90 -261 -90q-211 0 -357 88v71q0 32 28 32q13 0 29 -5q165 -60 300 -60q94 0 153 49
q58 47 58 114q0 96 -104 134q-28 12 -205 44q-133 23 -193 69q-84 63 -84 194q0 119 82 199q92 91 257 91q210 0 356 -89zM353 -398q57 69 57 266q0 12 14 21q15 11 40 11h54v2q0 -148 -138 -285q-15 -15 -26 -15h-1z" />
    <glyph glyph-name="uni021A" unicode="&#x21a;" horiz-adv-x="976" 
d="M86 1265q-28 0 -48 20q-20 19 -20 48v60h899q28 0 48 -20t20 -48v-60h-411v-1177q0 -28 -20 -48t-48 -20h-77v1245h-343zM430 -398q57 69 57 266q0 12 14 21q15 11 40 11h54v2q0 -148 -138 -285q-15 -15 -26 -15h-1z" />
    <glyph glyph-name="uni021B" unicode="&#x21b;" horiz-adv-x="813" 
d="M111 888q-28 0 -48 20q-20 19 -20 48v60h145v203q0 29 20 48q20 20 48 20h68v-271h349q28 0 48 -20t20 -48v-60h-417v-533q0 -131 70 -181q58 -40 190 -40q55 0 115 9q63 0 63 -48v-69q-83 -18 -178 -18q-205 0 -294 70q-102 79 -102 277v533h-77zM312 -398q57 69 57 266
q0 12 14 21q15 11 40 11h54v2q0 -148 -138 -285q-15 -15 -26 -15h-1z" />
    <glyph glyph-name="uni0232" unicode="&#x232;" horiz-adv-x="1136" 
d="M624 88q0 -28 -20 -48t-48 -20h-77v623q-169 1 -216 38q-55 42 -98 206l-139 506h69q68 0 82 -51l130 -456q23 -77 63 -99q31 -17 119 -17h125q87 0 118 17q40 22 64 99l130 456q13 51 81 51h69l-139 -506q-42 -157 -96 -201q-51 -39 -217 -43v-555zM316 1527
q-17 0 -31 18q-15 22 -15 53v29h516q18 0 32 -18q14 -21 14 -52v-30h-516z" />
    <glyph glyph-name="uni0233" unicode="&#x233;" horiz-adv-x="1141" 
d="M969 143q0 -510 -469 -510q-236 0 -382 88v71q0 32 28 32q13 0 29 -5q164 -60 325 -60q188 0 269 115q64 92 64 269v125q-124 -260 -368 -260q-347 0 -347 327v681h68q28 0 48 -20t20 -48v-590q0 -224 238 -224q260 0 341 278v536q0 28 20 48t48 20h68v-873zM309 1150
q-17 0 -31 18q-15 22 -15 53v29h516q18 0 32 -18q14 -21 14 -52v-30h-516z" />
    <glyph glyph-name="uni1E0C" unicode="&#x1e0c;" horiz-adv-x="1356" 
d="M1175 535q0 -245 -153 -382q-147 -133 -394 -133h-548v877q0 244 153 382q147 133 395 133q247 0 394 -133q153 -138 153 -382v-362zM628 148q178 0 288 100q114 103 114 279v370q0 176 -114 280q-110 100 -288 100q-179 0 -289 -100q-114 -104 -114 -280v-749h403z
M569 -237q0 23 17 38q17 17 41 17h59v-86q0 -23 -17 -39t-42 -16h-58v86z" />
    <glyph glyph-name="uni1E0D" unicode="&#x1e0d;" horiz-adv-x="1180" 
d="M881 838q-176 64 -333 64q-183 0 -265 -109q-69 -92 -69 -275q0 -184 65 -275q79 -109 261 -109q260 0 341 278v426zM881 269q-124 -261 -368 -261q-435 0 -435 510t470 510q166 0 333 -62v359q0 28 20 48t48 20h68v-1373h-68q-28 0 -48 20q-20 19 -20 48v181zM489 -237
q0 23 17 38q17 17 41 17h59v-86q0 -23 -17 -39t-42 -16h-58v86z" />
    <glyph glyph-name="uni1E24" unicode="&#x1e24;" horiz-adv-x="1301" 
d="M249 88q0 -28 -20 -48t-48 -20h-77v1373h77q28 0 48 -20t20 -48v-555h708v555q0 28 20 48t48 20h77v-1373h-77q-28 0 -48 20t-20 48v554h-708v-554zM544 -237q0 23 17 38q17 17 41 17h59v-86q0 -23 -17 -39t-42 -16h-58v86z" />
    <glyph glyph-name="uni1E25" unicode="&#x1e25;" horiz-adv-x="1144" 
d="M979 20h-68q-28 0 -48 20q-20 19 -20 48v590q0 224 -238 224q-260 0 -341 -267v-547q0 -29 -20 -48q-20 -20 -48 -20h-68v1373h68q28 0 48 -20t20 -48v-558q125 261 368 261q347 0 347 -327v-681zM495 -237q0 23 17 38q17 17 41 17h59v-86q0 -23 -17 -39t-42 -16h-58v86z
" />
    <glyph glyph-name="uni1E32" unicode="&#x1e32;" horiz-adv-x="1193" 
d="M571 770q107 1 145 27q47 30 77 136l117 409q13 51 81 51h69l-144 -524q-20 -75 -90 -120q87 -58 131 -223l139 -506h-69q-68 0 -81 50l-130 457q-24 76 -64 99q-33 16 -119 16h-384v-554q0 -28 -20 -48t-48 -20h-77v1373h77q28 0 48 -20t20 -48v-555h322zM544 -237
q0 23 17 38q17 17 41 17h59v-86q0 -23 -17 -39t-42 -16h-58v86z" />
    <glyph glyph-name="uni1E33" unicode="&#x1e33;" horiz-adv-x="1036" 
d="M130 1393h68q28 0 48 -20t20 -48v-743h278q104 0 130 70l105 309q19 55 93 55h60l-113 -337q-29 -85 -86 -124q78 -55 105 -134l135 -401h-60q-74 0 -91 49l-107 314q-23 71 -111 71h-338v-366q0 -29 -20 -48q-20 -20 -48 -20h-68v1373zM497 -237q0 23 17 38q17 17 41 17
h59v-86q0 -23 -17 -39t-42 -16h-58v86z" />
    <glyph glyph-name="uni1E36" unicode="&#x1e36;" horiz-adv-x="1168" 
d="M80 1400h72q31 0 52 -21t21 -51v-805q0 -177 114 -280q110 -100 289 -100q171 0 386 67q26 0 48 -21q21 -21 21 -51v-46q-234 -84 -455 -84q-248 0 -395 133q-153 137 -153 382v877zM523 -237q0 23 17 38q17 17 41 17h59v-86q0 -23 -17 -39t-42 -16h-58v86z" />
    <glyph glyph-name="uni1E37" unicode="&#x1e37;" horiz-adv-x="532" 
d="M123 1393h68q28 0 48 -20t20 -48v-978q0 -176 60 -196q29 -8 65 -8q25 0 52 4q63 0 63 -49v-69q-59 -14 -135 -14q-24 0 -46 2q-94 7 -144.5 71.5t-50.5 258.5v1046zM252 -237q0 23 17 38q17 17 41 17h59v-86q0 -23 -17 -39t-42 -16h-58v86z" />
    <glyph glyph-name="uni1E38" unicode="&#x1e38;" horiz-adv-x="1168" 
d="M80 1400h72q31 0 52 -21t21 -51v-805q0 -177 114 -280q110 -100 289 -100q171 0 386 67q26 0 48 -21q21 -21 21 -51v-46q-234 -84 -455 -84q-248 0 -395 133q-153 137 -153 382v877zM347 1527q-17 0 -31 18q-15 22 -15 53v29h516q18 0 32 -18q14 -21 14 -52v-30h-516z
M523 -237q0 23 17 38q17 17 41 17h59v-86q0 -23 -17 -39t-42 -16h-58v86z" />
    <glyph glyph-name="uni1E39" unicode="&#x1e39;" horiz-adv-x="532" 
d="M216 1393h68q28 0 48 -20t20 -48v-978q0 -176 60 -196q29 -8 65 -8q25 0 52 4q63 0 63 -49v-69q-59 -14 -135 -14q-24 0 -46 2q-94 7 -144.5 71.5t-50.5 258.5v1046zM169 1527q-17 0 -31 18q-15 22 -15 53v29h516q18 0 32 -18q14 -21 14 -52v-30h-516zM345 -237
q0 23 17 38q17 17 41 17h59v-86q0 -23 -17 -39t-42 -16h-58v86z" />
    <glyph glyph-name="uni1E3A" unicode="&#x1e3a;" horiz-adv-x="1168" 
d="M80 1400h72q31 0 52 -21t21 -51v-805q0 -177 114 -280q110 -100 289 -100q171 0 386 67q26 0 48 -21q21 -21 21 -51v-46q-234 -84 -455 -84q-248 0 -395 133q-153 137 -153 382v877zM200 -303q-17 0 -31 18q-15 22 -15 53v29h810q18 0 32 -18q14 -21 14 -52v-30h-810z
" />
    <glyph glyph-name="uni1E3B" unicode="&#x1e3b;" horiz-adv-x="532" 
d="M363 1393h68q28 0 48 -20t20 -48v-978q0 -176 60 -196q29 -8 65 -8q25 0 52 4q63 0 63 -49v-69q-59 -14 -135 -14q-24 0 -46 2q-94 7 -144.5 71.5t-50.5 258.5v1046zM169 -303q-17 0 -31 18q-15 22 -15 53v29h810q18 0 32 -18q14 -21 14 -52v-30h-810z" />
    <glyph glyph-name="uni1E40" unicode="&#x1e40;" horiz-adv-x="1791" 
d="M103 20v1308q0 30 21 51t51 21h75q80 -1 113 -83l485 -1201l486 1201q33 82 113 83h75q30 0 51 -21t21 -51v-1308h-72q-31 0 -52 21t-21 51v1184l-474 -1182q-29 -74 -94 -74h-65q-65 0 -94 74l-474 1182v-1184q0 -30 -21 -51t-52 -21h-72zM776 1606q0 28 21 48t52 20h72
v-105q0 -28 -21 -48t-51 -20h-73v105z" />
    <glyph glyph-name="uni1E41" unicode="&#x1e41;" horiz-adv-x="1676" 
d="M748 678q0 127 -53 178q-46 46 -150 46q-207 0 -288 -267v-547q0 -29 -20 -48q-20 -20 -48 -20h-68v996h68q28 0 48 -20q20 -19 20 -48v-181q125 261 315 261q244 0 311 -247q133 247 316 247q313 0 313 -327v-681h-68q-29 0 -48 20q-20 19 -20 48v590q0 127 -53 178
q-47 46 -151 46q-207 0 -288 -267v-547q0 -29 -19 -48q-20 -20 -49 -20h-68v658zM744 1229q0 28 21 48t52 20h72v-105q0 -28 -21 -48t-51 -20h-73v105z" />
    <glyph glyph-name="uni1E42" unicode="&#x1e42;" horiz-adv-x="1791" 
d="M103 20v1308q0 30 21 51t51 21h75q80 -1 113 -83l485 -1201l486 1201q33 82 113 83h75q30 0 51 -21t21 -51v-1308h-72q-31 0 -52 21t-21 51v1184l-474 -1182q-29 -74 -94 -74h-65q-65 0 -94 74l-474 1182v-1184q0 -30 -21 -51t-52 -21h-72zM790 -237q0 23 17 38
q17 17 41 17h59v-86q0 -23 -17 -39t-42 -16h-58v86z" />
    <glyph glyph-name="uni1E43" unicode="&#x1e43;" horiz-adv-x="1676" 
d="M748 678q0 127 -53 178q-46 46 -150 46q-207 0 -288 -267v-547q0 -29 -20 -48q-20 -20 -48 -20h-68v996h68q28 0 48 -20q20 -19 20 -48v-181q125 261 315 261q244 0 311 -247q133 247 316 247q313 0 313 -327v-681h-68q-29 0 -48 20q-20 19 -20 48v590q0 127 -53 178
q-47 46 -151 46q-207 0 -288 -267v-547q0 -29 -19 -48q-20 -20 -49 -20h-68v658zM758 -237q0 23 17 38q17 17 41 17h59v-86q0 -23 -17 -39t-42 -16h-58v86z" />
    <glyph glyph-name="uni1E44" unicode="&#x1e44;" horiz-adv-x="1397" 
d="M103 1328q0 30 21 51t51 21h138l740 -1238v1238h145v-1308q0 -30 -21 -51t-51 -21h-138l-740 1238v-1166q0 -30 -21 -51t-52 -21h-72v1308zM578 1606q0 28 21 48t52 20h72v-105q0 -28 -21 -48t-51 -20h-73v105z" />
    <glyph glyph-name="uni1E45" unicode="&#x1e45;" horiz-adv-x="1134" 
d="M972 20h-68q-28 0 -48 20q-20 19 -20 48v590q0 224 -238 224q-260 0 -341 -268v-546q0 -29 -20 -48q-20 -20 -48 -20h-68v996h68q28 0 48 -20q20 -19 20 -48v-181q125 261 368 261q347 0 347 -327v-681zM474 1229q0 28 21 48t52 20h72v-105q0 -28 -21 -48t-51 -20h-73
v105z" />
    <glyph glyph-name="uni1E46" unicode="&#x1e46;" horiz-adv-x="1397" 
d="M103 1328q0 30 21 51t51 21h138l740 -1238v1238h145v-1308q0 -30 -21 -51t-51 -21h-138l-740 1238v-1166q0 -30 -21 -51t-52 -21h-72v1308zM592 -237q0 23 17 38q17 17 41 17h59v-86q0 -23 -17 -39t-42 -16h-58v86z" />
    <glyph glyph-name="uni1E47" unicode="&#x1e47;" horiz-adv-x="1134" 
d="M972 20h-68q-28 0 -48 20q-20 19 -20 48v590q0 224 -238 224q-260 0 -341 -268v-546q0 -29 -20 -48q-20 -20 -48 -20h-68v996h68q28 0 48 -20q20 -19 20 -48v-181q125 261 368 261q347 0 347 -327v-681zM488 -237q0 23 17 38q17 17 41 17h59v-86q0 -23 -17 -39t-42 -16
h-58v86z" />
    <glyph glyph-name="uni1E48" unicode="&#x1e48;" horiz-adv-x="1397" 
d="M103 1328q0 30 21 51t51 21h138l740 -1238v1238h145v-1308q0 -30 -21 -51t-51 -21h-138l-740 1238v-1166q0 -30 -21 -51t-52 -21h-72v1308zM269 -303q-17 0 -31 18q-15 22 -15 53v29h810q18 0 32 -18q14 -21 14 -52v-30h-810z" />
    <glyph glyph-name="uni1E49" unicode="&#x1e49;" horiz-adv-x="1134" 
d="M974 20h-68q-28 0 -48 20q-20 19 -20 48v590q0 224 -238 224q-260 0 -341 -268v-546q0 -29 -20 -48q-20 -20 -48 -20h-68v996h68q28 0 48 -20q20 -19 20 -48v-181q125 261 368 261q347 0 347 -327v-681zM167 -303q-17 0 -31 18q-15 22 -15 53v29h810q18 0 32 -18
q14 -21 14 -52v-30h-810z" />
    <glyph glyph-name="uni1E58" unicode="&#x1e58;" horiz-adv-x="1206" 
d="M242 20h-145v1009q0 183 151 288q136 95 334 95h4q200 -1 335 -96q150 -105 150 -287q0 -286 -279 -393q89 -56 160 -234l173 -382h-90q-60 0 -83 52l-188 419q-43 114 -216 114h-306v-585zM242 733h281q403 0 403 296q0 125 -110 193q-91 55 -231 55h-5q-137 0 -227 -55
q-111 -67 -111 -193v-296zM544 1606q0 28 21 48t52 20h72v-105q0 -28 -21 -48t-51 -20h-73v105z" />
    <glyph glyph-name="uni1E59" unicode="&#x1e59;" horiz-adv-x="840" 
d="M121 1016h68q28 0 48 -20t20 -48v-181q125 261 315 261q94 0 178 -19v-69q0 -48 -63 -48q-61 9 -142 9q-207 0 -288 -267v-546q0 -29 -20 -49q-20 -19 -48 -19h-68v996zM363 1229q0 28 21 48t52 20h72v-105q0 -28 -21 -48t-51 -20h-73v105z" />
    <glyph glyph-name="uni1E5A" unicode="&#x1e5a;" horiz-adv-x="1206" 
d="M242 20h-145v1009q0 183 151 288q136 95 334 95h4q200 -1 335 -96q150 -105 150 -287q0 -286 -279 -393q89 -56 160 -234l173 -382h-90q-60 0 -83 52l-188 419q-43 114 -216 114h-306v-585zM242 733h281q403 0 403 296q0 125 -110 193q-91 55 -231 55h-5q-137 0 -227 -55
q-111 -67 -111 -193v-296zM557 -237q0 23 17 38q17 17 41 17h59v-86q0 -23 -17 -39t-42 -16h-58v86z" />
    <glyph glyph-name="uni1E5B" unicode="&#x1e5b;" horiz-adv-x="840" 
d="M121 1016h68q28 0 48 -20t20 -48v-181q125 261 315 261q94 0 178 -19v-69q0 -48 -63 -48q-61 9 -142 9q-207 0 -288 -267v-546q0 -29 -20 -49q-20 -19 -48 -19h-68v996zM263 -237q0 23 17 38q17 17 41 17h59v-86q0 -23 -17 -39t-42 -16h-58v86z" />
    <glyph glyph-name="uni1E5C" unicode="&#x1e5c;" horiz-adv-x="1206" 
d="M242 20h-145v1009q0 183 151 288q136 95 334 95h4q200 -1 335 -96q150 -105 150 -287q0 -286 -279 -393q89 -56 160 -234l173 -382h-90q-60 0 -83 52l-188 419q-43 114 -216 114h-306v-585zM242 733h281q403 0 403 296q0 125 -110 193q-91 55 -231 55h-5q-137 0 -227 -55
q-111 -67 -111 -193v-296zM381 1527q-17 0 -31 18q-15 22 -15 53v29h516q18 0 32 -18q14 -21 14 -52v-30h-516zM557 -237q0 23 17 38q17 17 41 17h59v-86q0 -23 -17 -39t-42 -16h-58v86z" />
    <glyph glyph-name="uni1E5D" unicode="&#x1e5d;" horiz-adv-x="840" 
d="M121 1016h68q28 0 48 -20t20 -48v-181q125 261 315 261q94 0 178 -19v-69q0 -48 -63 -48q-61 9 -142 9q-207 0 -288 -267v-546q0 -29 -20 -49q-20 -19 -48 -19h-68v996zM201 1150q-17 0 -31 18q-15 22 -15 53v29h516q18 0 32 -18q14 -21 14 -52v-30h-516zM263 -237
q0 23 17 38q17 17 41 17h59v-86q0 -23 -17 -39t-42 -16h-58v86z" />
    <glyph glyph-name="uni1E5E" unicode="&#x1e5e;" horiz-adv-x="1206" 
d="M242 20h-145v1009q0 183 151 288q136 95 334 95h4q200 -1 335 -96q150 -105 150 -287q0 -286 -279 -393q89 -56 160 -234l173 -382h-90q-60 0 -83 52l-188 419q-43 114 -216 114h-306v-585zM242 733h281q403 0 403 296q0 125 -110 193q-91 55 -231 55h-5q-137 0 -227 -55
q-111 -67 -111 -193v-296zM234 -303q-17 0 -31 18q-15 22 -15 53v29h810q18 0 32 -18q14 -21 14 -52v-30h-810z" />
    <glyph glyph-name="uni1E5F" unicode="&#x1e5f;" horiz-adv-x="840" 
d="M348 1016h68q28 0 48 -20t20 -48v-181q125 261 315 261q94 0 178 -19v-69q0 -48 -63 -48q-61 9 -142 9q-207 0 -288 -267v-546q0 -29 -20 -49q-20 -19 -48 -19h-68v996zM167 -303q-17 0 -31 18q-15 22 -15 53v29h810q18 0 32 -18q14 -21 14 -52v-30h-810z" />
    <glyph glyph-name="uni1E62" unicode="&#x1e62;" horiz-adv-x="1140" 
d="M760 204q112 71 112 192q0 149 -143 207q-60 26 -292 61q-195 30 -279 86q-123 83 -123 267q0 185 137 293q128 102 320 102q221 0 455 -84v-46q0 -30 -21 -51t-47 -21q-215 67 -387 67q-123 0 -212 -64q-100 -73 -100 -196q0 -136 146 -187q45 -18 295 -55
q192 -30 278 -93q118 -86 118 -273v-12q-4 -183 -148 -290q-132 -99 -326 -99q-221 0 -455 84v46q0 30 21 51t47 21q215 -67 387 -67q125 0 217 61zM467 -237q0 23 17 38q17 17 41 17h59v-86q0 -23 -17 -39t-42 -16h-58v86z" />
    <glyph glyph-name="uni1E63" unicode="&#x1e63;" horiz-adv-x="907" 
d="M757 939v-71q0 -32 -27 -32q-12 0 -30 5q-165 60 -299 60q-94 0 -149 -51q-51 -46 -51 -112q0 -86 105 -119q3 -2 207 -41q133 -23 194 -75q80 -66 80 -197v-9q-2 -118 -89 -199q-96 -90 -261 -90q-211 0 -357 88v71q0 32 28 32q13 0 29 -5q165 -60 300 -60q94 0 153 49
q58 47 58 114q0 96 -104 134q-28 12 -205 44q-133 23 -193 69q-84 63 -84 194q0 119 82 199q92 91 257 91q210 0 356 -89zM366 -237q0 23 17 38q17 17 41 17h59v-86q0 -23 -17 -39t-42 -16h-58v86z" />
    <glyph glyph-name="uni1E6C" unicode="&#x1e6c;" horiz-adv-x="976" 
d="M86 1265q-28 0 -48 20q-20 19 -20 48v60h899q28 0 48 -20t20 -48v-60h-411v-1177q0 -28 -20 -48t-48 -20h-77v1245h-343zM443 -237q0 23 17 38q17 17 41 17h59v-86q0 -23 -17 -39t-42 -16h-58v86z" />
    <glyph glyph-name="uni1E6D" unicode="&#x1e6d;" horiz-adv-x="813" 
d="M111 888q-28 0 -48 20q-20 19 -20 48v60h145v203q0 29 20 48q20 20 48 20h68v-271h349q28 0 48 -20t20 -48v-60h-417v-533q0 -131 70 -181q58 -40 190 -40q55 0 115 9q63 0 63 -48v-69q-83 -18 -178 -18q-205 0 -294 70q-102 79 -102 277v533h-77zM325 -237q0 23 17 38
q17 17 41 17h59v-86q0 -23 -17 -39t-42 -16h-58v86z" />
    <glyph glyph-name="Wgrave" unicode="&#x1e80;" horiz-adv-x="2083" 
d="M1031 1295l-336 -1190q-24 -96 -113 -96h-78q-90 0 -113 94l-364 1289h62q90 0 113 -94l324 -1148h34l324 1147q23 95 112 95h89q89 0 112 -94l324 -1148h34l324 1147q24 95 113 95h62l-363 -1287q-24 -96 -114 -96h-78q-89 0 -112 94l-336 1192h-20zM781 1690
q15 93 65 93q19 0 38 -9l270 -237l-24 -28z" />
    <glyph glyph-name="wgrave" unicode="&#x1e81;" horiz-adv-x="1538" 
d="M376 136h44l180 806q20 74 96 74h76q76 0 96 -76l204 -804h44l171 806q20 74 97 74h45l-187 -922q-20 -74 -97 -74h-103q-76 0 -96 76l-203 804h-33l-163 -806q-20 -74 -97 -74h-102q-77 0 -97 75l-231 921h64q77 0 97 -74zM464 1313q15 93 65 93q19 0 38 -9l270 -237
l-24 -28z" />
    <glyph glyph-name="Wacute" unicode="&#x1e82;" horiz-adv-x="2083" 
d="M1031 1295l-336 -1190q-24 -96 -113 -96h-78q-90 0 -113 94l-364 1289h62q90 0 113 -94l324 -1148h34l324 1147q23 95 112 95h89q89 0 112 -94l324 -1148h34l324 1147q24 95 113 95h62l-363 -1287q-24 -96 -114 -96h-78q-89 0 -112 94l-336 1192h-20zM952 1509l-24 28
l270 237q19 9 38 9q50 0 65 -93z" />
    <glyph glyph-name="wacute" unicode="&#x1e83;" horiz-adv-x="1538" 
d="M376 136h44l180 806q20 74 96 74h76q76 0 96 -76l204 -804h44l171 806q20 74 97 74h45l-187 -922q-20 -74 -97 -74h-103q-76 0 -96 76l-203 804h-33l-163 -806q-20 -74 -97 -74h-102q-77 0 -97 75l-231 921h64q77 0 97 -74zM635 1132l-24 28l270 237q19 9 38 9
q50 0 65 -93z" />
    <glyph glyph-name="Wdieresis" unicode="&#x1e84;" horiz-adv-x="2083" 
d="M1031 1295l-336 -1190q-24 -96 -113 -96h-78q-90 0 -113 94l-364 1289h62q90 0 113 -94l324 -1148h34l324 1147q23 95 112 95h89q89 0 112 -94l324 -1148h34l324 1147q24 95 113 95h62l-363 -1287q-24 -96 -114 -96h-78q-89 0 -112 94l-336 1192h-20zM802 1606
q0 28 21 48t52 20h72v-105q0 -28 -21 -48t-51 -20h-73v105zM1280 1501h-73q-30 0 -51 20t-21 48v105h72q31 0 52 -20t21 -48v-105z" />
    <glyph glyph-name="wdieresis" unicode="&#x1e85;" horiz-adv-x="1538" 
d="M376 136h44l180 806q20 74 96 74h76q76 0 96 -76l204 -804h44l171 806q20 74 97 74h45l-187 -922q-20 -74 -97 -74h-103q-76 0 -96 76l-203 804h-33l-163 -806q-20 -74 -97 -74h-102q-77 0 -97 75l-231 921h64q77 0 97 -74zM485 1229q0 28 21 48t52 20h72v-105
q0 -28 -21 -48t-51 -20h-73v105zM963 1124h-73q-30 0 -51 20t-21 48v105h72q31 0 52 -20t21 -48v-105z" />
    <glyph glyph-name="uni1E88" unicode="&#x1e88;" horiz-adv-x="2083" 
d="M1031 1295l-336 -1190q-24 -96 -113 -96h-78q-90 0 -113 94l-364 1289h62q90 0 113 -94l324 -1148h34l324 1147q23 95 112 95h89q89 0 112 -94l324 -1148h34l324 1147q24 95 113 95h62l-363 -1287q-24 -96 -114 -96h-78q-89 0 -112 94l-336 1192h-20zM982 -237
q0 23 17 38q17 17 41 17h59v-86q0 -23 -17 -39t-42 -16h-58v86z" />
    <glyph glyph-name="uni1E89" unicode="&#x1e89;" horiz-adv-x="1538" 
d="M376 136h44l180 806q20 74 96 74h76q76 0 96 -76l204 -804h44l171 806q20 74 97 74h45l-187 -922q-20 -74 -97 -74h-103q-76 0 -96 76l-203 804h-33l-163 -806q-20 -74 -97 -74h-102q-77 0 -97 75l-231 921h64q77 0 97 -74zM665 -237q0 23 17 38q17 17 41 17h59v-86
q0 -23 -17 -39t-42 -16h-58v86z" />
    <glyph glyph-name="uni1E92" unicode="&#x1e92;" horiz-adv-x="1100" 
d="M944 1392q30 0 50 -20q21 -21 21 -51v-96l-828 -1075h756q30 0 50 -20q21 -21 21 -51v-59h-895q-30 0 -50 21q-21 20 -21 50v96l828 1075h-757q-30 0 -50 21q-21 20 -21 50v59h896zM473 -237q0 23 17 38q17 17 41 17h59v-86q0 -23 -17 -39t-42 -16h-58v86z" />
    <glyph glyph-name="uni1E93" unicode="&#x1e93;" horiz-adv-x="874" 
d="M721 1016q28 0 48 -20t20 -48v-72l-584 -729h516q28 0 48 -19q20 -20 20 -49v-59h-668q-28 0 -48 19q-20 20 -20 49v71l584 729h-516q-28 0 -48 20q-20 19 -20 48v60h668zM362 -237q0 23 17 38q17 17 41 17h59v-86q0 -23 -17 -39t-42 -16h-58v86z" />
    <glyph glyph-name="uni1EBC" unicode="&#x1ebc;" horiz-adv-x="1133" 
d="M35 897q0 244 153 382q147 133 394 133q222 0 456 -84v-46q0 -30 -22 -51q-21 -21 -47 -21q-214 67 -387 67q-178 0 -288 -100q-114 -104 -114 -280v-108h697q29 0 48 -19q20 -20 20 -49v-59h-765v-139q0 -177 114 -280q110 -100 288 -100q173 0 387 67q26 0 47 -21
q22 -21 22 -51v-46q-234 -84 -456 -84q-247 0 -394 133q-153 137 -153 382v374zM823 1624q-78 -92 -167 -92q-52 0 -109 36q-86 52 -163 52q-78 0 -120 -36l-14 36q72 82 156 82q53 0 113 -37q82 -49 157 -49q85 0 134 44z" />
    <glyph glyph-name="uni1EBD" unicode="&#x1ebd;" horiz-adv-x="1065" 
d="M800 586q-13 165 -58 227q-65 89 -223 89q-160 0 -233 -88q-57 -68 -69 -228h583zM79 518q0 510 440 510q239 0 338 -147q81 -119 81 -362q0 -61 -68 -61h-651q8 -324 330 -324q160 0 324 60q16 5 30 5q27 0 27 -31v-72q-146 -88 -381 -88q-470 0 -470 510zM795 1247
q-78 -92 -167 -92q-52 0 -109 36q-86 52 -163 52q-78 0 -120 -36l-14 36q72 82 156 82q53 0 113 -37q82 -49 157 -49q85 0 134 44z" />
    <glyph glyph-name="Ygrave" unicode="&#x1ef2;" horiz-adv-x="1136" 
d="M624 88q0 -28 -20 -48t-48 -20h-77v623q-169 1 -216 38q-55 42 -98 206l-139 506h69q68 0 82 -51l130 -456q23 -77 63 -99q31 -17 119 -17h125q87 0 118 17q40 22 64 99l130 456q13 51 81 51h69l-139 -506q-42 -157 -96 -201q-51 -39 -217 -43v-555zM291 1690
q15 93 65 93q19 0 38 -9l270 -237l-24 -28z" />
    <glyph glyph-name="ygrave" unicode="&#x1ef3;" horiz-adv-x="1141" 
d="M969 143q0 -510 -469 -510q-236 0 -382 88v71q0 32 28 32q13 0 29 -5q164 -60 325 -60q188 0 269 115q64 92 64 269v125q-124 -260 -368 -260q-347 0 -347 327v681h68q28 0 48 -20t20 -48v-590q0 -224 238 -224q260 0 341 278v536q0 28 20 48t48 20h68v-873zM284 1313
q15 93 65 93q19 0 38 -9l270 -237l-24 -28z" />
    <glyph glyph-name="uni1EF4" unicode="&#x1ef4;" horiz-adv-x="1136" 
d="M624 88q0 -28 -20 -48t-48 -20h-77v623q-169 1 -216 38q-55 42 -98 206l-139 506h69q68 0 82 -51l130 -456q23 -77 63 -99q31 -17 119 -17h125q87 0 118 17q40 22 64 99l130 456q13 51 81 51h69l-139 -506q-42 -157 -96 -201q-51 -39 -217 -43v-555zM492 -237q0 23 17 38
q17 17 41 17h59v-86q0 -23 -17 -39t-42 -16h-58v86z" />
    <glyph glyph-name="_1" 
 />
    <glyph glyph-name="uni1EF5" unicode="&#x1ef5;" horiz-adv-x="1141" 
d="M969 143q0 -510 -469 -510q-236 0 -382 88v71q0 32 28 32q13 0 29 -5q164 -60 325 -60q188 0 269 115q64 92 64 269v125q-124 -260 -368 -260q-347 0 -347 327v681h68q28 0 48 -20t20 -48v-590q0 -224 238 -224q260 0 341 278v536q0 28 20 48t48 20h68v-873zM985 -237
q0 23 17 38q17 17 41 17h59v-86q0 -23 -17 -39t-42 -16h-58v86z" />
    <glyph glyph-name="uni2010" unicode="&#x2010;" horiz-adv-x="928" 
d="M190 461q-17 0 -31 18q-15 22 -15 53v29h516q18 0 32 -18q14 -21 14 -52v-30h-516z" />
    <glyph glyph-name="uni2011" unicode="&#x2011;" horiz-adv-x="928" 
d="M190 461q-17 0 -31 18q-15 22 -15 53v29h516q18 0 32 -18q14 -21 14 -52v-30h-516z" />
    <glyph glyph-name="figuredash" unicode="&#x2012;" horiz-adv-x="1240" 
d="M66 657q-17 0 -31 18q-15 22 -15 53v29h1013q18 0 32 -18q14 -21 14 -52v-30h-1013z" />
    <glyph glyph-name="twodotenleader" unicode="&#x2025;" horiz-adv-x="1365" 
d="M162 124q0 29 21 48q21 20 51 20h73v-104q0 -29 -21 -49q-21 -19 -52 -19h-72v104zM845 124q0 29 21 48q21 20 51 20h73v-104q0 -29 -21 -49q-21 -19 -52 -19h-72v104z" />
    <glyph glyph-name="uni203D" unicode="&#x203d;" horiz-adv-x="921" 
d="M204 1260q-111 -21 -208 -51q-27 0 -48 21t-21 52v46q234 83 455 83q193 0 320 -101q137 -109 137 -293q0 -201 -149 -283q-83 -45 -335 -82l-10 -224q0 -29 -20 -49q-20 -19 -48 -19h-37zM224 124q0 29 21 48q21 20 52 20h72v-104q0 -29 -21 -49q-21 -19 -51 -19h-73
v104zM362 794q333 28 333 223q0 123 -101 196q-80 57 -209 62z" />
    <glyph glyph-name="uni204C" unicode="&#x204c;" horiz-adv-x="966" 
d="M730 794q106 -106 106 -257q0 -150 -106 -256.5t-257 -106.5t-257 106.5t-106 256.5q0 151 106 257t257 106t257 -106z" />
    <glyph glyph-name="uni204D" unicode="&#x204d;" horiz-adv-x="966" 
d="M216 794q-106 -106 -106 -257q0 -150 106 -256.5t257 -106.5t257 106.5t106 256.5q0 151 -106 257t-257 106t-257 -106z" />
    <glyph glyph-name="uni2053" unicode="&#x2053;" horiz-adv-x="1413" 
d="M417 716q-82.5 0 -172.5 -30q-46.5 -15 -94.5 -43l-6 -4q-16.5 -11 -39 -11q-13.5 0 -13.5 -1v77q84 65 166.5 89t159 24q88.5 0 252 -44t250.5 -44q82.5 0 172.5 30q46.5 15 94.5 43l6 4q16.5 11 39 11q13.5 0 13.5 1v-77q-84 -65 -166.5 -89t-159 -24
q-79.5 0 -247.5 44t-255 44z" />
    <glyph glyph-name="uni20AF" unicode="&#x20af;" horiz-adv-x="2570" 
d="M1175 535q0 -245 -153 -382q-147 -133 -394 -133h-548v877q0 244 153 382q147 133 395 133q247 0 394 -133q153 -138 153 -382v-362zM628 148q178 0 288 100q114 103 114 279v370q0 176 -114 280q-110 100 -288 100q-179 0 -289 -100q-114 -104 -114 -280v-749h403z
M1634 198q177 -64 334 -64q183 0 264 108q69 93 69 276q0 184 -65 275q-78 108 -261 108q-266 0 -341 -250v-453zM1634 767q125 261 368 261q435 0 435 -510t-469 -510q-166 0 -334 62v-359q0 -28 -20 -48t-48 -20h-68v1373h68q28 0 48 -20t20 -48v-181z" />
    <glyph glyph-name="uni2100" unicode="&#x2100;" horiz-adv-x="2158" 
d="M674.25 858.75q0 132.75 -48 201.75q-60.75 86.25 -201.75 86.25t-201.75 -86.25q-48.75 -69 -48.75 -201.75q0 -134.25 45.75 -201.75q58.5 -86.25 198.75 -86.25q195.75 0 255.75 216v72zM674.25 672q-93 -195.75 -276 -195.75q-326.25 0 -326.25 382.5t352.5 382.5
q351.75 0 351.75 -382.5v-373.5h-51q-21 0 -36 15q-15 14.25 -15 36v135.75zM1041 72q-5 -23 -19 -38q-14 -14 -39 -14h-24l273 1320q5 23 19 38q14 14 39 14h24zM1745.25 72q-109.5 -66 -285.75 -66q-352.5 0 -352.5 382.5t352.5 382.5q176.25 0 285.75 -66v-54
q0 -23.25 -20.25 -23.25q-10.5 0 -22.5 3.75q-123 45 -243 45q-141 0 -201.75 -86.25q-48.75 -69 -48.75 -201.75t48.75 -201.75q60.75 -86.25 201.75 -86.25q120 0 243 45q12 3.75 22.5 3.75q20.25 0 20.25 -23.25v-54z" />
    <glyph glyph-name="uni2105" unicode="&#x2105;" horiz-adv-x="2160" 
d="M710.25 542.25q-109.5 -66 -285.75 -66q-352.5 0 -352.5 382.5t352.5 382.5q176.25 0 285.75 -66v-54q0 -23.25 -20.25 -23.25q-10.5 0 -22.5 3.75q-123 45 -243 45q-141 0 -201.75 -86.25q-48.75 -69 -48.75 -201.75t48.75 -201.75q60.75 -86.25 201.75 -86.25
q120 0 243 45q12 3.75 22.5 3.75q20.25 0 20.25 -23.25v-54zM915 72q-5 -23 -19 -38q-14 -14 -39 -14h-24l273 1320q5 23 19 38q14 14 39 14h24zM1365 675.75q-141 0 -201.75 -85.5q-48.75 -69 -48.75 -201.75t48.75 -202.5q60.75 -85.5 201.75 -85.5t201.75 85.5
q48 69.75 48 202.5t-48 201.75q-60.75 85.5 -201.75 85.5zM1716.75 388.5q0 -382.5 -351.75 -382.5q-352.5 0 -352.5 382.5t352.5 382.5q351.75 0 351.75 -382.5z" />
    <glyph glyph-name="uni2106" unicode="&#x2106;" horiz-adv-x="2159" 
d="M710.25 542.25q-109.5 -66 -285.75 -66q-352.5 0 -352.5 382.5t352.5 382.5q176.25 0 285.75 -66v-54q0 -23.25 -20.25 -23.25q-10.5 0 -22.5 3.75q-123 45 -243 45q-141 0 -201.75 -86.25q-48.75 -69 -48.75 -201.75t48.75 -201.75q60.75 -86.25 201.75 -86.25
q120 0 243 45q12 3.75 22.5 3.75q20.25 0 20.25 -23.25v-54zM915 72q-5 -23 -19 -38q-14 -14 -39 -14h-24l273 1320q5 23 19 38q14 14 39 14h24zM1579.5 201q-93 -195 -276 -195q-260.25 0 -260.25 245.25v510.75h51q21 0 36 -15t15 -36v-442.5q0 -168 178.5 -168
q200.25 0 255.75 195.75v414.75q0 21 15 36t36 15h51v-747h-51q-21 0 -36 14.25q-15 15 -15 36.75v135z" />
    <glyph glyph-name="estimated" unicode="&#x212e;" horiz-adv-x="1035" 
d="M269 586h475v224q-69 92 -225 92q-160 0 -233 -87q-7 -9 -17 -25v-204zM269 255q85 -121 280 -121q160 0 324 60q16 5 30 5q27 0 27 -31v-72q-146 -88 -381 -88q-470 0 -470 510t440 510q239 0 338 -147q81 -119 81 -362q0 -61 -68 -61h-601v-203z" />
    <glyph glyph-name="onethird" unicode="&#x2153;" horiz-adv-x="2041" 
d="M402 631h188q14 0 23 -10q10 -9 10 -23v-28h-480q-13 0 -23 9q-10 10 -10 24v27h221v734l-151 -193h-13q-15 0 -25 15q-5 7 -5 12q0 4 2 7l85 127q29 45 75 45h70q14 0 24 -9q9 -9 9 -24v-713zM899 72q-5 -23 -19 -38q-14 -14 -39 -14h-24l273 1320q5 23 19 38
q14 14 39 14h24zM1602 816q116 0 191 -56q81 -60 81 -166q0 -116 -141 -181q177 -53 177 -194q0 -229 -309 -229q-101 0 -235 48v21q0 16 11 26q10 10 21 10q142 -44 203 -44q136 0 193 47q45 43 45 121q0 80 -47 118q-54 45 -191 45h-81v61h81q117 5 163 44q39 34 39 107
q0 79 -63 121q-54 36 -139 36q-49 0 -177 -41q-11 0 -22 11q-10 10 -10 25v22q134 48 209 48h1z" />
    <glyph glyph-name="twothirds" unicode="&#x2154;" horiz-adv-x="2041" 
d="M143 570q-13 0 -23 9q-10 10 -10 24v24q0 83 63 150q41 44 147 113q114 71 155 112q74 75 74 165q0 79 -62 121q-55 36 -139 36q-67 0 -195 -41q-11 0 -22 11q-10 10 -10 25v22q134 48 227 48q115 0 189 -55q83 -60 83 -167q0 -158 -194 -285q-133 -84 -148 -97
q-77 -62 -92 -155l404 1q14 0 23 -10q10 -9 10 -23v-28h-480zM899 72q-5 -23 -19 -38q-14 -14 -39 -14h-24l273 1320q5 23 19 38q14 14 39 14h24zM1602 816q116 0 191 -56q81 -60 81 -166q0 -116 -141 -181q177 -53 177 -194q0 -229 -309 -229q-101 0 -235 48v21q0 16 11 26
q10 10 21 10q142 -44 203 -44q136 0 193 47q45 43 45 121q0 80 -47 118q-54 45 -191 45h-81v61h81q117 5 163 44q39 34 39 107q0 79 -63 121q-54 36 -139 36q-49 0 -177 -41q-11 0 -22 11q-10 10 -10 25v22q134 48 209 48h1z" />
    <glyph glyph-name="equivalence" unicode="&#x2261;" horiz-adv-x="1159" 
d="M156 644q-17 0 -31 18q-15 22 -15 53v29h873q18 0 32 -18q14 -21 14 -52v-30h-873zM156 364q-17 0 -31 18q-15 22 -15 53v29h873q18 0 32 -18q14 -21 14 -52v-30h-873zM156 924q-17 0 -31 18q-15 22 -15 53v29h873q18 0 32 -18q14 -21 14 -52v-30h-873z" />
    <glyph glyph-name="uniFB00" unicode="&#xfb00;" horiz-adv-x="1334" 
d="M300 888v-800q0 -29 -20 -48q-20 -20 -48 -20h-68v868h-74q-29 0 -48 20q-20 19 -20 48v60h142v40q0 198 102 277q89 70 293 70q95 0 178 -19v-69q0 -48 -63 -48q-60 10 -115 10q-132 0 -189 -41q-70 -50 -70 -180v-40h546v40q0 198 102 277q89 70 293 70q95 0 178 -19
v-69q0 -48 -63 -48q-60 10 -115 10q-132 0 -189 -41q-70 -50 -70 -180v-40h277q29 0 48 -20q20 -19 20 -48v-60h-345v-800q0 -29 -20 -48q-20 -20 -48 -20h-68v868h-546z" />
    <glyph glyph-name="uniFB03" unicode="&#xfb03;" horiz-adv-x="1839" 
d="M300 888v-800q0 -29 -20 -48q-20 -20 -48 -20h-68v868h-74q-29 0 -48 20q-20 19 -20 48v60h142v40q0 198 102 277q89 70 293 70q95 0 178 -19v-69q0 -48 -63 -48q-60 10 -115 10q-132 0 -189 -41q-70 -50 -70 -180v-40h546v40q0 198 102 277q89 70 293 70q95 0 178 -19
v-69q0 -48 -63 -48q-60 10 -115 10q-132 0 -189 -41q-70 -50 -70 -180v-40h673q29 0 48 -20q20 -19 20 -48v-928h-68q-28 0 -48 20q-20 19 -20 48v800h-605v-800q0 -29 -20 -48q-20 -20 -48 -20h-68v868h-546zM1587 1325q0 28 20 48t48 20h68v-105q0 -28 -20 -48t-48 -20
h-68v105z" />
    <glyph glyph-name="uniFB04" unicode="&#xfb04;" horiz-adv-x="1866" 
d="M300 888v-800q0 -29 -20 -48q-20 -20 -48 -20h-68v868h-74q-29 0 -48 20q-20 19 -20 48v60h142v40q0 198 102 277q89 70 293 70q95 0 178 -19v-69q0 -48 -63 -48q-60 10 -115 10q-132 0 -189 -41q-70 -50 -70 -180v-40h546v40q0 198 102 277q89 70 293 70q95 0 326 -23
q19 -3 36 -26q20 -20 20 -48v-959q0 -176 60 -196q29 -8 65 -8q25 0 52 4q63 0 63 -49v-69q-59 -14 -135 -14q-24 0 -46 2q-94 7 -144.5 71.5t-50.5 258.5v919q-195 11 -246 11q-132 0 -189 -41q-70 -50 -70 -180v-40h277q29 0 48 -20q20 -19 20 -48v-60h-345v-800
q0 -29 -20 -48q-20 -20 -48 -20h-68v868h-546z" />
    <glyph glyph-name="uniFB05" unicode="&#xfb05;" horiz-adv-x="1465" 
d="M300 888v-800q0 -29 -20 -48q-20 -20 -48 -20h-68v868h-74q-29 0 -48 20q-20 19 -20 48v60h142v40q0 198 102 277q89 70 293 70q95 0 178 -19v-69q0 -48 -63 -48q-60 10 -115 10q-132 0 -189 -41q-70 -50 -70 -180v-40h570v203q0 29 20 48q20 20 48 20h68v-271h349
q28 0 48 -20t20 -48v-60h-417v-533q0 -131 70 -181q58 -40 190 -40q55 0 115 9q63 0 63 -48v-69q-83 -18 -178 -18q-205 0 -294 70q-102 79 -102 277v533h-570z" />
    <glyph glyph-name="uniFB06" unicode="&#xfb06;" horiz-adv-x="1690" 
d="M409 901h-8q-94 0 -149 -51q-51 -46 -51 -112q0 -86 105 -119q3 -2 207 -41q133 -23 194 -75q80 -66 80 -197v-9q-2 -118 -89 -199q-96 -90 -261 -90q-211 0 -357 88v71q0 32 28 32q13 0 29 -5q165 -60 300 -60q94 0 153 49q58 47 58 114q0 96 -104 134q-28 12 -205 44
q-133 23 -193 69q-84 63 -84 194q0 119 82 199q92 91 257 91h8q91 -1 211 -28q-41 86 -48 142q-1 13 -1 26q0 103 78 166q81 65 201 65q278 0 381 -100v-283h349q28 0 48 -20t20 -48v-60h-417v-533q0 -131 70 -181q58 -40 190 -40q55 0 115 9q63 0 63 -48v-69
q-83 -18 -178 -18q-205 0 -294 70q-102 79 -102 277v533h-71q-28 0 -48 20q-20 19 -20 48v60h139v204q-59 78 -218 78q-93 0 -139 -39q-51 -45 -51 -123q0 -110 70 -193v-75q0 -32 -27 -32q-12 0 -30 5q-160 58 -291 60z" />
    <glyph glyph-name="uniEEC5" unicode="&#xeec5;" horiz-adv-x="1784" 
d="M483 901v-3q-135 -10 -204 -111q-65 -92 -65 -269t65 -269q81 -115 269 -115q160 0 324 60q16 5 30 5q27 0 27 -31v-72q-146 -88 -381 -88q-470 0 -470 510q0 487 435 510q81 -1 201 -28q-41 86 -48 142q-1 13 -1 26q0 103 78 166q81 65 201 65q278 0 381 -100v-283h349
q28 0 48 -20t20 -48v-60h-417v-533q0 -131 70 -181q58 -40 190 -40q55 0 115 9q63 0 63 -48v-69q-83 -18 -178 -18q-205 0 -294 70q-102 79 -102 277v533h-67q-28 0 -48 20q-20 19 -20 48v60h135v204q-59 78 -218 78q-93 0 -139 -39q-51 -45 -51 -123q0 -110 70 -193v-75
q0 -32 -27 -32q-12 0 -30 5q-160 58 -311 60z" />
    <glyph glyph-name="uniEEC8" unicode="&#xeec8;" horiz-adv-x="1821" 
d="M577 1016q29 0 48 -20q20 -19 20 -48v-60h-345v-800q0 -29 -20 -48q-20 -20 -48 -20h-68v868h-74q-29 0 -48 20q-20 19 -20 48v60h142v40q0 198 102 277q89 70 293 70q95 0 178 -19v-69q0 -48 -63 -48q-60 10 -115 10q-132 0 -189 -41q-70 -50 -70 -180v-40h277z
M1563 518q0 177 -64 269q-81 115 -269 115t-269 -115q-65 -92 -65 -269q0 -179 61 -269q78 -115 265 -115q261 0 341 228v156zM1563 269q-124 -261 -368 -261q-435 0 -435 510t470 510q469 0 469 -510v-498h-68q-28 0 -48 20q-20 19 -20 48v181zM991 1229q0 28 21 48t52 20
h72v-105q0 -28 -21 -48t-51 -20h-73v105zM1469 1124h-73q-30 0 -51 20t-21 48v105h72q31 0 52 -20t21 -48v-105z" />
    <glyph glyph-name="uniEEC9" unicode="&#xeec9;" horiz-adv-x="1087" 
d="M811 1325q0 28 20 48t48 20h68v-105q0 -28 -20 -48q-19 -20 -48 -20h-68v105zM811 888h-511v-800q0 -29 -20 -48q-20 -20 -48 -20h-68v868h-74q-29 0 -48 20q-20 19 -20 48v60h142v40q0 198 102 277q89 70 293 70q95 0 178 -19v-69q0 -48 -63 -48q-60 10 -115 10
q-132 0 -189 -41q-70 -50 -70 -180v-40h579q29 0 48 -20q20 -19 20 -48v-970q0 -179 -81 -260q-72 -72 -231 -85q-26 0 -45 18q-18 19 -18 45v60q112 0 169 41q70 50 70 181v910z" />
    <glyph glyph-name="uniEECA" unicode="&#xeeca;" horiz-adv-x="1492" 
d="M803 888h-503v-800q0 -29 -20 -48q-20 -20 -48 -20h-68v868h-74q-29 0 -48 20q-20 19 -20 48v60h142v40q0 198 102 277q89 70 293 70q95 0 178 -19v-69q0 -48 -63 -48q-60 10 -115 10q-132 0 -189 -41q-70 -50 -70 -180v-40h571q28 0 48 -20t20 -48v-181q125 261 315 261
q94 0 178 -19v-69q0 -48 -63 -48q-61 9 -142 9q-207 0 -288 -227v-586q0 -29 -20 -49q-20 -19 -48 -19h-68v868z" />
    <glyph glyph-name="uniEECB" unicode="&#xeecb;" horiz-adv-x="1465" 
d="M300 888v-800q0 -29 -20 -48q-20 -20 -48 -20h-68v868h-74q-29 0 -48 20q-20 19 -20 48v60h142v40q0 198 102 277q89 70 293 70q95 0 178 -19v-69q0 -48 -63 -48q-60 10 -115 10q-132 0 -189 -41q-70 -50 -70 -180v-40h570v203q0 29 20 48q20 20 48 20h68v-271h349
q28 0 48 -20t20 -48v-60h-417v-533q0 -131 70 -181q58 -40 190 -40q55 0 115 9q63 0 63 -48v-69q-83 -18 -178 -18q-205 0 -294 70q-102 79 -102 277v533h-570z" />
    <glyph glyph-name="uniEECC" unicode="&#xeecc;" horiz-adv-x="1790" 
d="M988 1229q0 28 21 48t52 20h72v-105q0 -28 -21 -48t-51 -20h-73v105zM1466 1124h-73q-30 0 -51 20t-21 48v105h72q31 0 52 -20t21 -48v-105zM801 888h-501v-800q0 -29 -20 -48q-20 -20 -48 -20h-68v868h-74q-29 0 -48 20q-20 19 -20 48v60h142v40q0 198 102 277
q89 70 293 70q95 0 178 -19v-69q0 -48 -63 -48q-60 10 -115 10q-132 0 -189 -41q-70 -50 -70 -180v-40h569q28 0 48 -20t20 -48v-590q0 -224 238 -224q267 0 341 211v603q0 28 20 48t48 20h68v-996h-68q-28 0 -48 19q-20 20 -20 49v180q-124 -260 -368 -260q-347 0 -347 327
v553z" />
    <glyph glyph-name="uniEECD" unicode="&#xeecd;" horiz-adv-x="1793" 
d="M800 888h-500v-800q0 -29 -20 -48q-20 -20 -48 -20h-68v868h-74q-29 0 -48 20q-20 19 -20 48v60h142v40q0 198 102 277q89 70 293 70q95 0 178 -19v-69q0 -48 -63 -48q-60 10 -115 10q-132 0 -189 -41q-70 -50 -70 -180v-40h568q28 0 48 -20t20 -48v-590q0 -224 238 -224
q260 0 341 228v586q0 28 20 48t48 20h68v-873q0 -510 -469 -510q-236 0 -382 88v71q0 32 28 32q13 0 29 -5q164 -60 325 -60q188 0 269 115q64 92 64 269v125q-124 -260 -368 -260q-347 0 -347 327v553z" />
    <glyph glyph-name="uniEECE" unicode="&#xeece;" horiz-adv-x="2147" 
d="M300 888v-800q0 -29 -20 -48q-20 -20 -48 -20h-68v868h-74q-29 0 -48 20q-20 19 -20 48v60h142v40q0 198 102 277q89 70 293 70q95 0 178 -19v-69q0 -48 -63 -48q-60 10 -115 10q-132 0 -189 -41q-70 -50 -70 -180v-40h546v40q0 198 102 277q89 70 293 70q95 0 178 -19
v-69q0 -48 -63 -48q-60 10 -115 10q-132 0 -189 -41q-70 -50 -70 -180v-40h570v203q0 29 20 48q20 20 48 20h68v-271h349q28 0 48 -20t20 -48v-60h-417v-533q0 -131 70 -181q58 -40 190 -40q55 0 115 9q63 0 63 -48v-69q-83 -18 -178 -18q-205 0 -294 70q-102 79 -102 277
v533h-570v-800q0 -29 -20 -48q-20 -20 -48 -20h-68v868h-546z" />
    <glyph glyph-name="uniEECF" unicode="&#xeecf;" horiz-adv-x="2475" 
d="M1550 1016q28 0 48 -20t20 -48v-590q0 -224 238 -224q260 0 341 228v586q0 28 20 48t48 20h68v-873q0 -510 -469 -510q-236 0 -382 88v71q0 32 28 32q13 0 29 -5q164 -60 325 -60q188 0 269 115q64 92 64 269v125q-124 -260 -368 -260q-347 0 -347 327v553h-500v-800
q0 -29 -20 -48q-20 -20 -48 -20h-68v868h-546v-800q0 -29 -20 -48q-20 -20 -48 -20h-68v868h-74q-29 0 -48 20q-20 19 -20 48v60h142v40q0 198 102 277q89 70 293 70q95 0 178 -19v-69q0 -48 -63 -48q-60 10 -115 10q-132 0 -189 -41q-70 -50 -70 -180v-40h546v40
q0 198 102 277q89 70 293 70q95 0 178 -19v-69q0 -48 -63 -48q-60 10 -115 10q-132 0 -189 -41q-70 -50 -70 -180v-40h568z" />
    <glyph glyph-name="uniEED0" unicode="&#xeed0;" horiz-adv-x="2606" 
d="M1681 1016q28 0 48 -20t20 -48v-590q0 -224 238 -224q260 0 341 228v586q0 28 20 48t48 20h68v-873q0 -510 -469 -510q-236 0 -382 88v71q0 32 28 32q13 0 29 -5q164 -60 325 -60q188 0 269 115q64 92 64 269v125q-124 -260 -368 -260q-347 0 -347 327v553h-607v-533
q0 -131 70 -181q58 -40 190 -40q55 0 115 9q63 0 63 -48v-69q-83 -18 -178 -18q-205 0 -294 70q-102 79 -102 277v533h-570v-800q0 -29 -20 -48q-20 -20 -48 -20h-68v868h-74q-29 0 -48 20q-20 19 -20 48v60h142v40q0 198 102 277q89 70 293 70q95 0 178 -19v-69
q0 -48 -63 -48q-60 10 -115 10q-132 0 -189 -41q-70 -50 -70 -180v-40h570v203q0 29 20 48q20 20 48 20h68v-271h675z" />
    <glyph glyph-name="uniEED9" unicode="&#xeed9;" horiz-adv-x="1506" 
d="M911 888h-587v-533q0 -131 70 -181q58 -40 190 -40q55 0 115 9q63 0 63 -48v-69q-83 -18 -178 -18q-205 0 -294 70q-102 79 -102 277v533h-91q-28 0 -48 20q-20 19 -20 48v60h159v203q0 29 20 48q20 20 48 20h68v-271h587v203q0 29 20 48q20 20 48 20h68v-271h349
q28 0 48 -20t20 -48v-60h-417v-533q0 -131 70 -181q58 -40 190 -40q55 0 115 9q63 0 63 -48v-69q-83 -18 -178 -18q-205 0 -294 70q-102 79 -102 277v533z" />
    <glyph glyph-name="uniEEDA" unicode="&#xeeda;" horiz-adv-x="2499" 
d="M1574 1016q28 0 48 -20t20 -48v-590q0 -224 238 -224q260 0 341 228v586q0 28 20 48t48 20h68v-873q0 -510 -469 -510q-236 0 -382 88v71q0 32 28 32q13 0 29 -5q164 -60 325 -60q188 0 269 115q64 92 64 269v125q-124 -260 -368 -260q-347 0 -347 327v553h-459v-533
q0 -131 70 -181q58 -40 190 -40q55 0 115 9q63 0 63 -48v-69q-83 -18 -178 -18q-205 0 -294 70q-102 79 -102 277v533h-587v-533q0 -131 70 -181q58 -40 190 -40q55 0 115 9q63 0 63 -48v-69q-83 -18 -178 -18q-205 0 -294 70q-102 79 -102 277v533h-88q-28 0 -48 20
q-20 19 -20 48v60h156v203q0 29 20 48q20 20 48 20h68v-271h587v203q0 29 20 48q20 20 48 20h68v-271h527z" />
    <glyph glyph-name="uniEEDB" unicode="&#xeedb;" horiz-adv-x="1924" 
d="M931 888h-607v-533q0 -131 70 -181q58 -40 190 -40q55 0 115 9q63 0 63 -48v-69q-83 -18 -178 -18q-205 0 -294 70q-102 79 -102 277v533h-75q-28 0 -48 20q-20 19 -20 48v60h143v203q0 29 20 48q20 20 48 20h68v-271h675q28 0 48 -20t20 -48v-590q0 -224 238 -224
q260 0 341 228v586q0 28 20 48t48 20h68v-873q0 -510 -469 -510q-236 0 -382 88v71q0 32 28 32q13 0 29 -5q164 -60 325 -60q188 0 269 115q64 92 64 269v125q-124 -260 -368 -260q-347 0 -347 327v553z" />
    <glyph glyph-name="uniEEDC" unicode="&#xeedc;" horiz-adv-x="1657" 
d="M324 888v-533q0 -131 70 -181q58 -40 190 -40q55 0 115 9q63 0 63 -48v-69q-83 -18 -178 -18q-205 0 -294 70q-102 79 -102 277v533h-85q-28 0 -48 20q-20 19 -20 48v60h153v203q0 29 20 48q20 20 48 20h68v-271h1210q28 0 48 -20t20 -48v-72l-584 -729h516q28 0 48 -19
q20 -20 20 -49v-59h-668q-28 0 -48 19q-20 20 -20 49v71l584 729h-1126z" />
    <glyph glyph-name="uni01C4" unicode="&#x1c4;" horiz-adv-x="2456" 
d="M1175 535q0 -245 -153 -382q-147 -133 -394 -133h-548v877q0 244 153 382q147 133 395 133q247 0 394 -133q153 -138 153 -382v-362zM628 148q178 0 288 100q114 103 114 279v370q0 176 -114 280q-110 100 -288 100q-179 0 -289 -100q-114 -104 -114 -280v-749h403z
M2300 1392q30 0 50 -20q21 -21 21 -51v-96l-828 -1075h756q30 0 50 -20q21 -21 21 -51v-59h-895q-30 0 -50 21q-21 20 -21 50v96l828 1075h-757q-30 0 -50 21q-21 20 -21 50v59h896zM2158 1764l24 -28l-266 -233h-57q-149 133 -266 233l25 29l270 -140z" />
    <glyph glyph-name="uni01C5" unicode="&#x1c5;" horiz-adv-x="2250" 
d="M1175 535q0 -245 -153 -382q-147 -133 -394 -133h-548v877q0 244 153 382q147 133 395 133q247 0 394 -133q153 -138 153 -382v-362zM628 148q178 0 288 100q114 103 114 279v370q0 176 -114 280q-110 100 -288 100q-179 0 -289 -100q-114 -104 -114 -280v-749h403z
M2097 1016q28 0 48 -20t20 -48v-72l-584 -729h516q28 0 48 -19q20 -20 20 -49v-59h-668q-28 0 -48 19q-20 20 -20 49v71l584 729h-516q-28 0 -48 20q-20 19 -20 48v60h668zM2068 1387l24 -28l-266 -233h-57q-149 133 -266 233l25 29l270 -140z" />
    <glyph glyph-name="uni01C6" unicode="&#x1c6;" horiz-adv-x="2054" 
d="M881 838q-176 64 -333 64q-183 0 -265 -109q-69 -92 -69 -275q0 -184 65 -275q79 -109 261 -109q260 0 341 278v426zM881 269q-124 -261 -368 -261q-435 0 -435 510t470 510q166 0 333 -62v359q0 28 20 48t48 20h68v-1373h-68q-28 0 -48 20q-20 19 -20 48v181zM1901 1016
q28 0 48 -20t20 -48v-72l-584 -729h516q28 0 48 -19q20 -20 20 -49v-59h-668q-28 0 -48 19q-20 20 -20 49v71l584 729h-516q-28 0 -48 20q-20 19 -20 48v60h668zM1872 1387l24 -28l-266 -233h-57q-149 133 -266 233l25 29l270 -140z" />
    <glyph glyph-name="uni01C7" unicode="&#x1c7;" horiz-adv-x="2086" 
d="M80 1400h72q31 0 52 -21t21 -51v-805q0 -177 114 -280q110 -100 289 -100q171 0 386 67q26 0 48 -21q21 -21 21 -51v-46q-234 -84 -455 -84q-248 0 -395 133q-153 137 -153 382v877zM1757 1325q0 28 19 48q20 20 49 20h76v-870q0 -245 -152 -382q-148 -133 -395 -133
q-83 0 -166 14v58q0 29 20 49t47 20q55 -6 99 -6q178 0 288 100q115 103 115 280v802z" />
    <glyph glyph-name="uni01C8" unicode="&#x1c8;" horiz-adv-x="1623" 
d="M80 1400h72q31 0 52 -21t21 -51v-805q0 -177 114 -280q110 -100 289 -100q171 0 386 67q26 0 48 -21q21 -21 21 -51v-46q-234 -84 -455 -84q-248 0 -395 133q-153 137 -153 382v877zM1453 -22q0 -179 -81 -260q-72 -72 -231 -85q-26 0 -45 18q-18 19 -18 45v60
q112 0 169 41q70 50 70 181v970q0 29 20 48q20 20 48 20h68v-1038zM1317 1325q0 28 20 48t48 20h68v-105q0 -28 -20 -48q-19 -20 -48 -20h-68v105z" />
    <glyph glyph-name="uni01C9" unicode="&#x1c9;" horiz-adv-x="967" 
d="M123 1393h68q28 0 48 -20t20 -48v-978q0 -176 60 -196q29 -8 65 -8q25 0 52 4q63 0 63 -49v-69q-59 -14 -135 -14q-24 0 -46 2q-94 7 -144.5 71.5t-50.5 258.5v1046zM797 -22q0 -179 -81 -260q-72 -72 -231 -85q-26 0 -45 18q-18 19 -18 45v60q112 0 169 41q70 50 70 181
v970q0 29 20 48q20 20 48 20h68v-1038zM661 1325q0 28 20 48t48 20h68v-105q0 -28 -20 -48q-19 -20 -48 -20h-68v105z" />
    <glyph glyph-name="uni01CA" unicode="&#x1ca;" horiz-adv-x="2315" 
d="M103 1328q0 30 21 51t51 21h138l740 -1238v1238h145v-1308q0 -30 -21 -51t-51 -21h-138l-740 1238v-1166q0 -30 -21 -51t-52 -21h-72v1308zM1986 1325q0 28 19 48q20 20 49 20h76v-870q0 -245 -152 -382q-148 -133 -395 -133q-83 0 -166 14v58q0 29 20 49t47 20
q55 -6 99 -6q178 0 288 100q115 103 115 280v802z" />
    <glyph glyph-name="uni01CB" unicode="&#x1cb;" horiz-adv-x="1852" 
d="M103 1328q0 30 21 51t51 21h138l740 -1238v1238h145v-1308q0 -30 -21 -51t-51 -21h-138l-740 1238v-1166q0 -30 -21 -51t-52 -21h-72v1308zM1682 -22q0 -179 -81 -260q-72 -72 -231 -85q-26 0 -45 18q-18 19 -18 45v60q112 0 169 41q70 50 70 181v970q0 29 20 48
q20 20 48 20h68v-1038zM1546 1325q0 28 20 48t48 20h68v-105q0 -28 -20 -48q-19 -20 -48 -20h-68v105z" />
    <glyph glyph-name="uni01CC" unicode="&#x1cc;" horiz-adv-x="1569" 
d="M972 20h-68q-28 0 -48 20q-20 19 -20 48v590q0 224 -238 224q-260 0 -341 -268v-546q0 -29 -20 -48q-20 -20 -48 -20h-68v996h68q28 0 48 -20q20 -19 20 -48v-181q125 261 368 261q347 0 347 -327v-681zM1399 -22q0 -179 -81 -260q-72 -72 -231 -85q-26 0 -45 18
q-18 19 -18 45v60q112 0 169 41q70 50 70 181v970q0 29 20 48q20 20 48 20h68v-1038zM1263 1325q0 28 20 48t48 20h68v-105q0 -28 -20 -48q-19 -20 -48 -20h-68v105z" />
    <glyph glyph-name="uni01CD" unicode="&#x1cd;" horiz-adv-x="1243" 
d="M543 1270l-231 -801h556l-231 801h-94zM273 341l-65 -226q-24 -95 -117 -95h-65l376 1289q24 94 117 94h142q93 0 117 -95l376 -1288h-65q-93 0 -118 96l-65 225h-633zM861 1764l24 -28l-266 -233h-57q-149 133 -266 233l25 29l270 -140z" />
    <glyph glyph-name="uni01CE" unicode="&#x1ce;" horiz-adv-x="1169" 
d="M881 518q0 177 -64 269q-81 115 -269 115t-269 -115q-65 -92 -65 -269q0 -179 61 -269q78 -115 265 -115q261 0 341 288v96zM881 269q-124 -261 -368 -261q-435 0 -435 510t470 510q469 0 469 -510v-498h-68q-28 0 -48 20q-20 19 -20 48v181zM818 1387l24 -28l-266 -233
h-57q-149 133 -266 233l25 29l270 -140z" />
    <glyph glyph-name="uni01CF" unicode="&#x1cf;" horiz-adv-x="449" 
d="M330 1325q0 28 20 48t48 20h77v-1305q0 -28 -20 -48t-48 -20h-77v1305zM673 1764l24 -28l-266 -233h-57q-149 133 -266 233l25 29l270 -140z" />
    <glyph glyph-name="uni2155" unicode="&#x2155;" horiz-adv-x="2034" 
d="M402 631h188q14 0 23 -10q10 -9 10 -23v-28h-480q-13 0 -23 9q-10 10 -10 24v27h221v734l-151 -193h-13q-15 0 -25 15q-5 7 -5 12q0 4 2 7l85 127q29 45 75 45h70q14 0 24 -9q9 -9 9 -24v-713zM899 72q-5 -23 -19 -38q-14 -14 -39 -14h-24l273 1320q5 23 19 38
q14 14 39 14h24zM1436 461q126 56 204 56q144 0 204 -58q60 -60 60 -205q0 -262 -290 -264q-114 0 -248 48v22q0 15 10 25t21 10q143 -44 217 -44q220 1 220 203q0 111 -43 155q-42 43 -151 43q-100 0 -204 -52v-49q0 -14 -9 -23q-9 -10 -24 -10h-37v453q0 15 9 24t24 9h505
v-27q0 -15 -9 -25q-11 -10 -25 -10h-434v-281z" />
    <glyph glyph-name="uni2156" unicode="&#x2156;" horiz-adv-x="2034" 
d="M143 570q-13 0 -23 9q-10 10 -10 24v24q0 83 63 150q41 44 147 113q114 71 155 112q74 75 74 165q0 79 -62 121q-55 36 -139 36q-67 0 -195 -41q-11 0 -22 11q-10 10 -10 25v22q134 48 227 48q115 0 189 -55q83 -60 83 -167q0 -158 -194 -285q-133 -84 -148 -97
q-77 -62 -92 -155l404 1q14 0 23 -10q10 -9 10 -23v-28h-480zM899 72q-5 -23 -19 -38q-14 -14 -39 -14h-24l273 1320q5 23 19 38q14 14 39 14h24zM1436 461q126 56 204 56q144 0 204 -58q60 -60 60 -205q0 -262 -290 -264q-114 0 -248 48v22q0 15 10 25t21 10
q143 -44 217 -44q220 1 220 203q0 111 -43 155q-42 43 -151 43q-100 0 -204 -52v-49q0 -14 -9 -23q-9 -10 -24 -10h-37v453q0 15 9 24t24 9h505v-27q0 -15 -9 -25q-11 -10 -25 -10h-434v-281z" />
    <glyph glyph-name="uni2157" unicode="&#x2157;" horiz-adv-x="2065" 
d="M346 1389q116 0 191 -56q81 -60 81 -166q0 -116 -141 -181q177 -53 177 -194q0 -229 -309 -229q-101 0 -235 48v21q0 16 11 26q10 10 21 10q142 -44 203 -44q136 0 193 47q45 43 45 121q0 80 -47 118q-54 45 -191 45h-81v61h81q117 5 163 44q39 34 39 107q0 79 -63 121
q-54 36 -139 36q-49 0 -177 -41q-11 0 -22 11q-10 10 -10 25v22q134 48 209 48h1zM930 72q-5 -23 -19 -38q-14 -14 -39 -14h-24l273 1320q5 23 19 38q14 14 39 14h24zM1467 461q126 56 204 56q144 0 204 -58q60 -60 60 -205q0 -262 -290 -264q-114 0 -248 48v22q0 15 10 25
t21 10q143 -44 217 -44q220 1 220 203q0 111 -43 155q-42 43 -151 43q-100 0 -204 -52v-49q0 -14 -9 -23q-9 -10 -24 -10h-37v453q0 15 9 24t24 9h505v-27q0 -15 -9 -25q-11 -10 -25 -10h-434v-281z" />
    <glyph glyph-name="uni2158" unicode="&#x2158;" horiz-adv-x="2104" 
d="M586 837h73q14 0 24 -11q10 -9 10 -24v-28h-107v-204h-38q-14 0 -23 9q-9 10 -9 24v171h-371q-15 0 -25 10t-10 25v55l298 468q30 45 76 45h69q14 0 24 -9q9 -9 9 -24v-507zM173 837h343v537zM969 72q-5 -23 -19 -38q-14 -14 -39 -14h-24l273 1320q5 23 19 38
q14 14 39 14h24zM1506 461q126 56 204 56q144 0 204 -58q60 -60 60 -205q0 -262 -290 -264q-114 0 -248 48v22q0 15 10 25t21 10q143 -44 217 -44q220 1 220 203q0 111 -43 155q-42 43 -151 43q-100 0 -204 -52v-49q0 -14 -9 -23q-9 -10 -24 -10h-37v453q0 15 9 24t24 9h505
v-27q0 -15 -9 -25q-11 -10 -25 -10h-434v-281z" />
    <glyph glyph-name="uni2159" unicode="&#x2159;" horiz-adv-x="2035" 
d="M402 631h188q14 0 23 -10q10 -9 10 -23v-28h-480q-13 0 -23 9q-10 10 -10 24v27h221v734l-151 -193h-13q-15 0 -25 15q-5 7 -5 12q0 4 2 7l85 127q29 45 75 45h70q14 0 24 -9q9 -9 9 -24v-713zM899 72q-5 -23 -19 -38q-14 -14 -39 -14h-24l273 1320q5 23 19 38
q14 14 39 14h24zM1905 254q0 -264 -266 -264h-4q-142 0 -205 61q-64 62 -64 203v299q1 138 73 199q66 59 211 59q101 0 235 -48v-22q0 -15 -10 -26q-10 -10 -21 -10q-129 41 -204 41q-111 0 -160 -42q-53 -46 -53 -156v-90q136 59 204 59q144 0 203 -58q61 -60 61 -205z
M1437 254q0 -105 44 -152q46 -51 154 -51q109 0 155 51q44 47 44 152q0 111 -42 155q-43 43 -151 43q-87 0 -204 -54v-144z" />
    <glyph glyph-name="uni215A" unicode="&#x215a;" horiz-adv-x="2060" 
d="M180 1034q126 56 204 56q144 0 204 -58q60 -60 60 -205q0 -262 -290 -264q-114 0 -248 48v22q0 15 10 25t21 10q143 -44 217 -44q220 1 220 203q0 111 -43 155q-42 43 -151 43q-100 0 -204 -52v-49q0 -14 -9 -23q-9 -10 -24 -10h-37v453q0 15 9 24t24 9h505v-27
q0 -15 -9 -25q-11 -10 -25 -10h-434v-281zM924 72q-5 -23 -19 -38q-14 -14 -39 -14h-24l273 1320q5 23 19 38q14 14 39 14h24zM1930 254q0 -264 -266 -264h-4q-142 0 -205 61q-64 62 -64 203v299q1 138 73 199q66 59 211 59q101 0 235 -48v-22q0 -15 -10 -26
q-10 -10 -21 -10q-129 41 -204 41q-111 0 -160 -42q-53 -46 -53 -156v-90q136 59 204 59q144 0 203 -58q61 -60 61 -205zM1462 254q0 -105 44 -152q46 -51 154 -51q109 0 155 51q44 47 44 152q0 111 -42 155q-43 43 -151 43q-87 0 -204 -54v-144z" />
    <glyph glyph-name="oneeighth" unicode="&#x215b;" horiz-adv-x="2113" 
d="M402 631h188q14 0 23 -10q10 -9 10 -23v-28h-480q-13 0 -23 9q-10 10 -10 24v27h221v734l-151 -193h-13q-15 0 -25 15q-5 7 -5 12q0 4 2 7l85 127q29 45 75 45h70q14 0 24 -9q9 -9 9 -24v-713zM899 72q-5 -23 -19 -38q-14 -14 -39 -14h-24l273 1320q5 23 19 38
q14 14 39 14h24zM1814 413q169 -55 169 -197q0 -226 -309 -226q-308 0 -308 226q0 142 169 197q-133 63 -133 193q0 104 83 160q75 50 189 50q116 0 189 -50q84 -56 84 -160q0 -130 -133 -193zM1865 97q47 39 47 119q0 81 -47 119q-54 47 -191 47q-136 0 -190 -47
q-47 -38 -47 -119q0 -80 47 -119q54 -46 190 -46q137 0 191 46zM1838 495q38 37 38 111q0 77 -67 116q-52 31 -134 32q-82 0 -135 -31q-67 -40 -67 -117q0 -74 39 -111q47 -47 162 -52q116 5 164 52z" />
    <glyph glyph-name="threeeighths" unicode="&#x215c;" horiz-adv-x="2144" 
d="M346 1389q116 0 191 -56q81 -60 81 -166q0 -116 -141 -181q177 -53 177 -194q0 -229 -309 -229q-101 0 -235 48v21q0 16 11 26q10 10 21 10q142 -44 203 -44q136 0 193 47q45 43 45 121q0 80 -47 118q-54 45 -191 45h-81v61h81q117 5 163 44q39 34 39 107q0 79 -63 121
q-54 36 -139 36q-49 0 -177 -41q-11 0 -22 11q-10 10 -10 25v22q134 48 209 48h1zM930 72q-5 -23 -19 -38q-14 -14 -39 -14h-24l273 1320q5 23 19 38q14 14 39 14h24zM1845 413q169 -55 169 -197q0 -226 -309 -226q-308 0 -308 226q0 142 169 197q-133 63 -133 193
q0 104 83 160q75 50 189 50q116 0 189 -50q84 -56 84 -160q0 -130 -133 -193zM1896 97q47 39 47 119q0 81 -47 119q-54 47 -191 47q-136 0 -190 -47q-47 -38 -47 -119q0 -80 47 -119q54 -46 190 -46q137 0 191 46zM1869 495q38 37 38 111q0 77 -67 116q-52 31 -134 32
q-82 0 -135 -31q-67 -40 -67 -117q0 -74 39 -111q47 -47 162 -52q116 5 164 52z" />
    <glyph glyph-name="fiveeighths" unicode="&#x215d;" horiz-adv-x="2138" 
d="M180 1034q126 56 204 56q144 0 204 -58q60 -60 60 -205q0 -262 -290 -264q-114 0 -248 48v22q0 15 10 25t21 10q143 -44 217 -44q220 1 220 203q0 111 -43 155q-42 43 -151 43q-100 0 -204 -52v-49q0 -14 -9 -23q-9 -10 -24 -10h-37v453q0 15 9 24t24 9h505v-27
q0 -15 -9 -25q-11 -10 -25 -10h-434v-281zM924 72q-5 -23 -19 -38q-14 -14 -39 -14h-24l273 1320q5 23 19 38q14 14 39 14h24zM1839 413q169 -55 169 -197q0 -226 -309 -226q-308 0 -308 226q0 142 169 197q-133 63 -133 193q0 104 83 160q75 50 189 50q116 0 189 -50
q84 -56 84 -160q0 -130 -133 -193zM1890 97q47 39 47 119q0 81 -47 119q-54 47 -191 47q-136 0 -190 -47q-47 -38 -47 -119q0 -80 47 -119q54 -46 190 -46q137 0 191 46zM1863 495q38 37 38 111q0 77 -67 116q-52 31 -134 32q-82 0 -135 -31q-67 -40 -67 -117q0 -74 39 -111
q47 -47 162 -52q116 5 164 52z" />
    <glyph glyph-name="seveneighths" unicode="&#x215e;" horiz-adv-x="2141" 
d="M617 1377q15 0 25 -10q9 -10 9 -24v-58l-321 -715h-83l336 745h-438q-15 0 -25 10t-10 25v27h507zM927 72q-5 -23 -19 -38q-14 -14 -39 -14h-24l273 1320q5 23 19 38q14 14 39 14h24zM1842 413q169 -55 169 -197q0 -226 -309 -226q-308 0 -308 226q0 142 169 197
q-133 63 -133 193q0 104 83 160q75 50 189 50q116 0 189 -50q84 -56 84 -160q0 -130 -133 -193zM1893 97q47 39 47 119q0 81 -47 119q-54 47 -191 47q-136 0 -190 -47q-47 -38 -47 -119q0 -80 47 -119q54 -46 190 -46q137 0 191 46zM1866 495q38 37 38 111q0 77 -67 116
q-52 31 -134 32q-82 0 -135 -31q-67 -40 -67 -117q0 -74 39 -111q47 -47 162 -52q116 5 164 52z" />
    <glyph glyph-name="uni215F" unicode="&#x215f;" horiz-adv-x="1256" 
d="M402 631h188q14 0 23 -10q10 -9 10 -23v-28h-480q-13 0 -23 9q-10 10 -10 24v27h221v734l-151 -193h-13q-15 0 -25 15q-5 7 -5 12q0 4 2 7l85 127q29 45 75 45h70q14 0 24 -9q9 -9 9 -24v-713zM899 72q-5 -23 -19 -38q-14 -14 -39 -14h-24l273 1320q5 23 19 38
q14 14 39 14h24z" />
    <glyph glyph-name="arrowleft" unicode="&#x2190;" horiz-adv-x="1412" 
d="M514 479q100 -73 100 -140l-488 207l488 206q0 -66 -100 -139l898 -67z" />
    <glyph glyph-name="arrowup" unicode="&#x2191;" horiz-adv-x="828" 
d="M354 909q-73 -100 -139 -100l207 488l206 -488q-66 0 -140 98l-67 -896z" />
    <glyph glyph-name="arrowright" unicode="&#x2192;" horiz-adv-x="1431" 
d="M134 546l898 67q-100 73 -100 139l488 -206l-488 -207q0 67 100 140z" />
    <glyph glyph-name="arrowdown" unicode="&#x2193;" horiz-adv-x="828" 
d="M421 1081l67 -896q74 98 140 98l-206 -488l-207 488q66 0 139 -100z" />
    <glyph glyph-name="arrowboth" unicode="&#x2194;" horiz-adv-x="1540" 
d="M1528 546l-488 -207q0 67 100 140l-363 27l-363 -27q100 -73 100 -140l-488 207l488 206q0 -66 -100 -139l363 -27l363 27q-100 73 -100 139z" />
    <glyph glyph-name="arrowupdn" unicode="&#x2195;" horiz-adv-x="828" 
d="M422 -205l-207 488q67 0 140 -100l26 363l-26 363q-73 -100 -140 -100l207 488l206 -488q-66 0 -139 100l-27 -363l27 -363q73 100 139 100z" />
    <glyph glyph-name="summation" unicode="&#x2211;" horiz-adv-x="1024" 
d="M512 677l-402 745v81q0 24 17 41q16 16 40 16h757v-47q0 -24 -17 -40q-16 -17 -40 -17h-642l426 -779l-426 -779h642q24 0 40 -17q17 -16 17 -40v-47h-757q-24 0 -40 16q-17 17 -17 41v81z" />
    <glyph glyph-name="product" unicode="&#x220f;" horiz-adv-x="1167" 
d="M340 88q0 -28 -20 -48t-48 -20h-77v1245h-67q-28 0 -48 20q-20 19 -20 48v60h989q28 0 48 -20t20 -48v-60h-114v-1245h-77q-28 0 -48 20t-20 48v1177h-518v-1177z" />
    <glyph glyph-name="radical" unicode="&#x221a;" horiz-adv-x="1089" 
d="M984 1588l-489 -1509l-65 -48q-14 -11 -33 -11q-4 0 -9 1q-22 3 -37 23l-337 464l38 28q14 10 31 10q5 0 12 -1q23 -2 37 -22l271 -374l500 1458q31 12 54 12q27 0 27 -29v-2z" />
    <glyph glyph-name="integral" unicode="&#x222b;" horiz-adv-x="717" 
d="M310 1399q0 160 41.5 212.5t118.5 58.5q19 2 38 2q63 0 109 -11v-55q0 -37 -49 -37q-23 3 -44 3q-30 0 -55 -7q-52 -15 -52 -166v-1409q0 -160 -41.5 -212.5t-118.5 -58.5q-19 -2 -38 -2q-63 0 -109 11v55q0 37 49 37q22 -3 44 -3q30 0 55 7q52 15 52 166v1409z" />
    <glyph glyph-name="Delta" unicode="&#x2206;" horiz-adv-x="1215" 
d="M1165 20h-1100l550 1335zM615 1040l-372 -901h744z" />
    <glyph glyph-name="uni21BC" unicode="&#x21bc;" horiz-adv-x="1418" 
d="M106 755l1312 -189h-1312v189z" />
    <glyph glyph-name="uni21BD" unicode="&#x21bd;" horiz-adv-x="1418" 
d="M106 759h1312l-1312 -189v189z" />
    <glyph glyph-name="uni21C0" unicode="&#x21c0;" horiz-adv-x="1547" 
d="M1451 566h-1312l1312 189v-189z" />
    <glyph glyph-name="uni21C1" unicode="&#x21c1;" horiz-adv-x="1547" 
d="M1451 570l-1312 189h1312v-189z" />
    <glyph glyph-name="uni21A4" unicode="&#x21a4;" horiz-adv-x="2883" 
d="M106 757l2777 -211l-2777 -211v422z" />
    <glyph glyph-name="uni21A6" unicode="&#x21a6;" horiz-adv-x="3005" 
d="M2909 335l-2777 211l2777 211v-422z" />
    </font>
</defs>
</svg>
