<?xml version="1.0" standalone="no"?>
<!DOCTYPE svg PUBLIC "-//W3C//DTD SVG 1.1//EN" "http://www.w3.org/Graphics/SVG/1.1/DTD/svg11.dtd" >
<svg xmlns="http://www.w3.org/2000/svg" xmlns:xlink="http://www.w3.org/1999/xlink" version="1.1">
<metadata>
Created by FontForge 20141024 at Tue Jun  2 15:00:35 2015
 By System Administrator
Smoolthan (c) Situjuh Font. 2014. All Rights Reserved
</metadata>
<defs>
<font id="Smoolthan-Bold" horiz-adv-x="1168" >
  <font-face 
    font-family="Smoolthan"
    font-weight="700"
    font-stretch="normal"
    units-per-em="2048"
    panose-1="2 0 5 0 0 0 0 0 0 0"
    ascent="1638"
    descent="-410"
    x-height="1056"
    cap-height="1433"
    bbox="-1094 -592 3421 1827"
    underline-thickness="150"
    underline-position="-142"
    unicode-range="U+001D-FB06"
  />
<missing-glyph horiz-adv-x="1519" 
d="M875 1414q-123 -32 -201 -118q-26 -28 -69 -96q-51 -73 -72 -101q-65 -81 -106 -115q-66 -53 -141 -53q-59 0 -100 30q-48 34 -57 95q-1 15 -1 30q0 52 25 97q36 64 100 75q17 3 31 3q22 0 40 -6q33 -15 34 -57q-9 12 -23 12q-9 0 -19 -9t-10 -21q0 -29 29 -29h1
q31 0 48 34q8 17 8 36q0 17 -8 35q-13 36 -47 53q-35 19 -86 19q-13 0 -26 -1q-109 -9 -175 -90v177h825zM50 899q64 -65 171 -65q15 0 31 2q89 6 206 125q33 33 92 97q52 59 73 78q53 50 109 50q31 0 61 -15q89 -40 180 -40q61 0 122 18q122 36 227 133q-13 -163 -120 -302
q-20 -25 -226 -237h-53q-41 0 -68 32l-87 -87h157q-191 -212 -224 -378q-10 -46 -10 -86q0 -66 24 -116q38 -80 135 -112h-195v695l36 19v33h-641v156zM285 688q76 0 108 -32q33 -32 33 -108v-552h-376v692h235zM483 691h35v-695h-35v695zM1129 -4q204 46 340 166v-166h-340
zM1469 177q-130 -73 -245 -87q-23 -2 -47 -2q-80 0 -126 37q-45 39 -45 106q0 25 7 56q25 117 156 285q61 77 87 116h153v-48h60v-463zM1294 743q100 164 100 355q0 41 -5 85q-15 132 -18 132q6 51 98 78v-650h-175zM656 1033q-72 0 -122 -42q-43 -39 -51 -94q-3 -14 -3 -27
q0 -37 21 -63q25 -34 73 -34q8 0 16 1q59 5 77 60q4 15 4 26q0 37 -35 61q-29 22 -29 48q0 5 1 10q6 32 48 41v13z" />
    <glyph glyph-name=".notdef" horiz-adv-x="1519" 
d="M875 1414q-123 -32 -201 -118q-26 -28 -69 -96q-51 -73 -72 -101q-65 -81 -106 -115q-66 -53 -141 -53q-59 0 -100 30q-48 34 -57 95q-1 15 -1 30q0 52 25 97q36 64 100 75q17 3 31 3q22 0 40 -6q33 -15 34 -57q-9 12 -23 12q-9 0 -19 -9t-10 -21q0 -29 29 -29h1
q31 0 48 34q8 17 8 36q0 17 -8 35q-13 36 -47 53q-35 19 -86 19q-13 0 -26 -1q-109 -9 -175 -90v177h825zM50 899q64 -65 171 -65q15 0 31 2q89 6 206 125q33 33 92 97q52 59 73 78q53 50 109 50q31 0 61 -15q89 -40 180 -40q61 0 122 18q122 36 227 133q-13 -163 -120 -302
q-20 -25 -226 -237h-53q-41 0 -68 32l-87 -87h157q-191 -212 -224 -378q-10 -46 -10 -86q0 -66 24 -116q38 -80 135 -112h-195v695l36 19v33h-641v156zM285 688q76 0 108 -32q33 -32 33 -108v-552h-376v692h235zM483 691h35v-695h-35v695zM1129 -4q204 46 340 166v-166h-340
zM1469 177q-130 -73 -245 -87q-23 -2 -47 -2q-80 0 -126 37q-45 39 -45 106q0 25 7 56q25 117 156 285q61 77 87 116h153v-48h60v-463zM1294 743q100 164 100 355q0 41 -5 85q-15 132 -18 132q6 51 98 78v-650h-175zM656 1033q-72 0 -122 -42q-43 -39 -51 -94q-3 -14 -3 -27
q0 -37 21 -63q25 -34 73 -34q8 0 16 1q59 5 77 60q4 15 4 26q0 37 -35 61q-29 22 -29 48q0 5 1 10q6 32 48 41v13z" />
    <glyph glyph-name=".null" horiz-adv-x="0" 
 />
    <glyph glyph-name=".null" horiz-adv-x="0" 
 />
    <glyph glyph-name="nonmarkingreturn" horiz-adv-x="1200" 
 />
    <glyph glyph-name="space" unicode=" " horiz-adv-x="533" 
 />
    <glyph glyph-name="space" unicode="&#xa0;" horiz-adv-x="533" 
 />
    <glyph glyph-name="exclam" unicode="!" horiz-adv-x="693" 
d="M165 1324q0 44 32 76q33 32 81 32h171l-49 -1004q0 -44 -32 -76q-33 -32 -81 -32h-73zM189 124q0 44 33 75q34 33 85 33h117v-144q0 -44 -33 -76q-35 -32 -84 -32h-118v144z" />
    <glyph glyph-name="quotedbl" unicode="&#x22;" horiz-adv-x="850" 
d="M127 1387q0 65 85 65h126l-35 -525q0 -64 -85 -64h-57zM602 863h-57q-85 0 -85 65l-34 523h125q85 0 85 -65z" />
    <glyph glyph-name="numbersign" unicode="#" horiz-adv-x="1091" 
d="M212 561l50 244h-171q-38 0 -66 27q-25 25 -25 59v56h291l82 400q9 34 30 57q28 28 73 28h77l-100 -485h215l82 400q9 34 30 57q28 28 73 28h77l-100 -485h88q39 0 68 -27q23 -26 23 -59v-56h-208l-51 -244h168q40 0 65 -25q26 -26 26 -61v-56h-288l-72 -354
q-9 -34 -30 -57q-28 -28 -73 -28h-77l90 439h-215l-72 -354q-9 -34 -30 -57q-28 -28 -73 -28h-77l90 439h-91q-40 0 -67 28q-24 24 -24 58v56h212zM424 805l-51 -244h216l50 244h-215z" />
    <glyph glyph-name="dollar" unicode="$" horiz-adv-x="1183" 
d="M633 815h-2l10 -1q205 -31 301 -101q134 -99 134 -304v-12q-4 -202 -164 -322q-127 -93 -279 -103v-91q0 -43 -30 -74q-34 -34 -83 -34h-73v200q-168 12 -390 92v72q0 46 34 80q33 33 88 33q163 -51 268 -61v434q-210 32 -303 96q-140 95 -140 298q0 202 153 323
q127 102 290 109v89q0 44 32 74q32 34 81 34h73v-201q160 -14 373 -90v-73q0 -46 -34 -80q-33 -33 -87 -33q-154 47 -252 58v-412zM447 1233q-60 -5 -125 -51q-83 -61 -83 -165q0 -110 117 -152q23 -8 91 -19v387zM633 189q52 5 116 46q92 59 92 161q0 123 -117 171
q-32 13 -91 25v-403z" />
    <glyph glyph-name="percent" unicode="%" horiz-adv-x="1602" 
d="M712 927q0 -253.5 -318 -253.5q-319 0 -319 253.5v168.75q0 253.5 319 253.5q318 0 318 -253.5v-168.75zM557 1095.75q0 72.75 -33 108q-37 40.5 -130 40.5t-130 -40.5q-33 -35.25 -33 -108v-168.75q0 -73.5 33 -108q38 -41.25 130 -41.25t130 41.25q33 34.5 33 108
v168.75zM738 65q-9 -34 -30 -57q-28 -28 -73 -28h-77l281 1367q9 34 30 57q28 28 73 28h77zM1502 329.25q0 -253.5 -318 -253.5q-319 0 -319 253.5v168.75q0 253.5 319 253.5q318 0 318 -253.5v-168.75zM1347 498q0 72.75 -33 108q-37 40.5 -130 40.5t-130 -40.5
q-33 -35.25 -33 -108v-168.75q0 -73.5 33 -108q38 -41.25 130 -41.25t130 41.25q33 34.5 33 108v168.75z" />
    <glyph glyph-name="ampersand" unicode="&#x26;" horiz-adv-x="1261" 
d="M594 1451q137 0 407 -96v-73q0 -46 -34 -80q-33 -33 -89 -33q-214 67 -284 67q-122 0 -195 -48q-82 -54 -82 -159q0 -133 113 -173q47 -16 275 -36q200 -17 294 -84q137 -98 137 -332v-424h-122q-48 0 -81 32q-32 32 -32 76v12q-167 -129 -386 -133h-13q-203 0 -329 96
q-151 115 -151 341q0 261 204 333q-144 67 -144 292q0 202 157 318q141 104 354 104h1zM353 584q-96 -49 -96 -180q0 -119 73 -180q64 -54 170 -54h11q101 2 224 67q128 67 166 144v23q0 106 -55 153q-72 62 -266 64q-155 0 -227 -37z" />
    <glyph glyph-name="quotesingle" unicode="'" horiz-adv-x="575" 
d="M141 1386q0 65 85 65h126l-35 -524q0 -64 -85 -64h-57z" />
    <glyph glyph-name="parenleft" unicode="(" horiz-adv-x="783" 
d="M187 872q0 353 148 557q144 197 409 203v-169q-158 -27 -243 -144q-95 -130 -95 -447v-517q0 -317 95 -447q85 -117 243 -144v-169q-265 6 -409 203q-148 204 -148 557v517z" />
    <glyph glyph-name="parenright" unicode=")" horiz-adv-x="800" 
d="M524 355q0 -353 -148 -557q-144 -197 -409 -203v169q158 27 243 144q95 130 95 447v517q0 317 -95 447q-85 117 -243 144v169q265 -6 409 -203q148 -204 148 -557v-517z" />
    <glyph glyph-name="asterisk" unicode="*" horiz-adv-x="1038" 
d="M555 1142l180 84q27 11 51 11q96 0 124 -174l-308 -63l145 -155q28 -33 28 -67q0 -70 -141 -142l-152 265l-95 -172q-35 -55 -89 -55q-62 0 -150 88l210 232l-204 39q-84 21 -84 97q0 46 44 135l283 -128l-25 205v11q0 104 132 104q28 0 85 -9z" />
    <glyph glyph-name="plus" unicode="+" horiz-adv-x="1255" 
d="M471 604h-319q-41 0 -69 36q-22 33 -22 75v69h410v324q0 36 35 63q34 23 80 23h75v-410h318q42 0 70 -36q21 -32 21 -74v-70h-409v-323q0 -35 -34 -62q-36 -24 -82 -24h-74v409z" />
    <glyph glyph-name="comma" unicode="," horiz-adv-x="561" 
d="M21 -372q114 185 114 496q0 44 33 75q34 33 84 33h118v-51q0 -264 -184 -508q-33 -45 -71 -45h-94z" />
    <glyph glyph-name="hyphen" unicode="-" horiz-adv-x="953" 
d="M200 421q-41 0 -69 36q-22 33 -22 75v69h561q42 0 70 -36q21 -32 21 -74v-70h-561z" />
    <glyph glyph-name="hyphen" unicode="&#xad;" horiz-adv-x="953" 
d="M200 421q-41 0 -69 36q-22 33 -22 75v69h561q42 0 70 -36q21 -32 21 -74v-70h-561z" />
    <glyph glyph-name="period" unicode="." horiz-adv-x="551" 
d="M127 124q0 44 33 75q34 33 84 33h118v-144q0 -44 -33 -76q-35 -32 -85 -32h-117v144z" />
    <glyph glyph-name="slash" unicode="/" horiz-adv-x="691" 
d="M289 65q-9 -34 -30 -57q-28 -28 -73 -28h-77l281 1367q9 34 30 57q28 28 73 28h77z" />
    <glyph glyph-name="zero" unicode="0" horiz-adv-x="1265" 
d="M1157 518q0 -550 -514 -550q-515 0 -515 550v375q0 550 515 550q514 0 514 -550v-375zM931 893q0 166 -57 247q-67 96 -231 96t-231 -96q-58 -81 -58 -247v-375q0 -166 58 -247q67 -97 231 -97t231 97q57 81 57 247v375z" />
    <glyph glyph-name="one" unicode="1" horiz-adv-x="999" 
d="M620 188h255q48 0 80 -32q33 -33 33 -76v-100h-858q-48 0 -81 32q-32 32 -32 76v99h368v1004l-163 -209h-52q-59 0 -91 49q-17 25 -17 49q0 20 12 41l142 208q66 103 174 103h117q48 0 81 -32q32 -32 32 -76v-1136z" />
    <glyph glyph-name="two" unicode="2" horiz-adv-x="1153" 
d="M191 -20q-48 0 -81 32q-32 32 -32 76v41q0 157 119 285q74 78 257 195q183 116 246 180q109 109 109 240q0 105 -81 159q-74 48 -196 48q-99 0 -313 -67q-56 0 -89 33q-34 34 -34 80v73q270 96 436 96q211 0 353 -102q159 -116 159 -320q0 -290 -349 -518
q-217 -140 -242 -160q-111 -89 -123 -164l606 1q48 0 80 -32q33 -33 33 -76v-100h-858z" />
    <glyph glyph-name="three" unicode="3" horiz-adv-x="1153" 
d="M486 1451q213 0 355 -104q156 -116 156 -318q0 -225 -142 -291q202 -63 202 -334q0 -436 -572 -436q-180 0 -450 97v72q0 46 34 80q33 33 89 33q237 -74 327 -74q202 0 280 66q57 51 57 162q0 108 -57 155q-75 62 -280 62h-194v209h193q171 8 231 59q47 42 47 140
q0 105 -82 159q-73 48 -195 48q-70 0 -284 -67q-56 0 -89 33q-34 34 -34 80v73q270 96 407 96h1z" />
    <glyph glyph-name="four" unicode="4" horiz-adv-x="1186" 
d="M975 531h63q49 0 83 -34q33 -32 33 -77v-100h-179v-340h-121q-49 0 -82 33q-31 31 -31 75v232h-560q-50 0 -84 35q-32 32 -32 76v107l507 791q66 103 174 103h116q49 0 82 -33q31 -31 31 -75v-793zM330 531h411v646z" />
    <glyph glyph-name="five" unicode="5" horiz-adv-x="1243" 
d="M370 891q138 63 282 63q264 0 381 -114q117 -116 117 -378q0 -491 -542 -494q-202 0 -472 97v73q0 45 34 79q33 33 88 33q238 -74 350 -74q308 2 308 286q0 165 -54 220q-55 56 -210 56q-153 0 -282 -64v-51q0 -43 -30 -74q-34 -34 -83 -34h-121v809q0 44 31 75
q33 33 82 33h901v-99q0 -45 -33 -78t-83 -33h-664v-331z" />
    <glyph glyph-name="six" unicode="6" horiz-adv-x="1258" 
d="M1147 462q0 -494 -502 -494h-6q-262 1 -384 119q-123 119 -123 375v498q2 254 138 371q128 112 394 112q180 0 450 -97v-73q0 -45 -32 -78q-35 -35 -91 -35q-214 68 -327 68q-161 0 -226 -56q-71 -62 -71 -221v-65q155 68 282 68q264 0 380 -114q118 -116 118 -378z
M367 462q0 -156 58 -219q60 -66 214 -67q154 1 215 67q58 63 58 219q0 165 -54 220q-55 56 -209 56q-133 0 -282 -68v-208z" />
    <glyph glyph-name="seven" unicode="7" horiz-adv-x="1032" 
d="M859 1432q50 0 83 -33t33 -78v-105l-557 -1236h-262l560 1241h-644q-50 0 -84 35q-32 32 -32 77v99h903z" />
    <glyph glyph-name="eight" unicode="8" horiz-adv-x="1346" 
d="M1064 737q194 -65 194 -339q0 -430 -573 -430q-572 0 -572 430q0 274 194 339q-134 63 -134 312q0 198 161 307q141 95 351 95q211 0 351 -95q161 -109 161 -307q0 -249 -133 -312zM965 240q58 49 58 158q0 110 -58 158q-76 65 -280 65q-203 0 -279 -65q-58 -48 -58 -158
q0 -109 58 -158q76 -64 279 -64q204 0 280 64zM915 899q48 47 48 150q0 97 -85 147q-73 44 -192 45q-119 0 -193 -44q-85 -50 -85 -148q0 -103 48 -150q62 -62 229 -69q167 7 230 69z" />
    <glyph glyph-name="nine" unicode="9" horiz-adv-x="1224" 
d="M89 948q0 495 503 495h4q263 -2 385 -120q123 -119 123 -375v-498q-2 -254 -140 -372q-127 -110 -392 -110q-180 0 -450 97v72q0 46 34 80q33 33 89 33q214 -67 327 -67q161 0 226 56q71 61 71 220v66q-156 -68 -282 -68q-264 0 -380 114q-118 115 -118 377zM869 948
q0 157 -58 220q-60 65 -215 67q-154 -2 -214 -67q-58 -63 -58 -220q0 -164 56 -222q52 -54 207 -54q132 0 282 68v208z" />
    <glyph glyph-name="colon" unicode=":" horiz-adv-x="393" 
d="M37 124q0 44 33 75q34 33 84 33h118v-144q0 -44 -33 -76q-35 -32 -85 -32h-117v144zM37 742q0 43 35 76q32 32 83 32h117v-145q0 -43 -35 -76q-32 -32 -82 -32h-118v145z" />
    <glyph glyph-name="semicolon" unicode=";" horiz-adv-x="406" 
d="M-63 -372q114 185 114 496q0 44 33 75q34 33 84 33h118v-51q0 -264 -184 -508q-33 -45 -71 -45h-94zM51 742q0 43 35 76q32 32 82 32h118v-145q0 -43 -35 -76q-32 -32 -83 -32h-117v145z" />
    <glyph glyph-name="semicolon" unicode="&#x37e;" horiz-adv-x="406" 
d="M-63 -372q114 185 114 496q0 44 33 75q34 33 84 33h118v-51q0 -264 -184 -508q-33 -45 -71 -45h-94zM51 742q0 43 35 76q32 32 82 32h118v-145q0 -43 -35 -76q-32 -32 -83 -32h-117v145z" />
    <glyph glyph-name="less" unicode="&#x3c;" horiz-adv-x="1064" 
d="M-48 768l1003 505q17 -71 17 -107q0 -118 -111 -155l-590 -295l590 -296q111 -37 111 -155q0 -36 -17 -107l-1003 505v105z" />
    <glyph glyph-name="equal" unicode="=" horiz-adv-x="1139" 
d="M115 767q-41 0 -69 36q-22 33 -22 75v69h918q42 0 70 -36q21 -33 21 -75v-69h-918zM115 421q-41 0 -69 36q-22 33 -22 75v69h918q42 0 70 -36q21 -32 21 -74v-70h-918z" />
    <glyph glyph-name="greater" unicode="&#x3e;" horiz-adv-x="1089" 
d="M1028 663l-1003 -505q-17 71 -17 107q0 118 111 155l590 295l-590 296q-111 37 -111 155q0 36 17 107l1003 -505v-105z" />
    <glyph glyph-name="question" unicode="?" horiz-adv-x="976" 
d="M392 428q0 -44 -32 -76q-33 -32 -81 -32h-73l-26 401q0 45 33 78t82 33q365 0 365 185q0 104 -85 165q-74 54 -183 54q-163 0 -377 -67q-56 0 -89 33q-34 34 -34 80v73q270 96 500 96q209 0 349 -111q153 -121 153 -323q0 -223 -170 -318q-93 -50 -322 -83zM179 124
q0 44 33 75q34 33 84 33h118v-144q0 -44 -33 -76q-35 -32 -85 -32h-117v144z" />
    <glyph glyph-name="at" unicode="@" horiz-adv-x="1686" 
d="M1056 509q0 295 -247 295t-247 -295q0 -145 46 -214q56 -81 194 -81q195 0 254 166v129zM1570 -108q0 -88 -91 -116q-353 -89 -670 -89q-400 0 -589 220q-172 201 -172 602t172 602q189 220 589 220t589 -220q172 -201 172 -602q0 -180 -76 -299q-66 -105 -171 -140
q-46 -16 -88 -16q-51 0 -95 23q-67 35 -81 35q-3 0 -3 -2q-39 -80 -277 -80q-420 0 -420 479t450 479q449 0 449 -479v-219q0 -35 15 -44q4 -3 6 -3q5 0 15 7q70 55 70 259q0 642 -555 642q-556 0 -556 -642t556 -642q315 0 761 123v-98z" />
    <glyph glyph-name="A" unicode="A" horiz-adv-x="1274" 
d="M592 1230l-210 -721h442l-210 721h-22zM322 301l-57 -196q-32 -125 -161 -125h-122l389 1339q32 124 161 124h142q129 0 161 -125l389 -1338h-122q-129 0 -162 126l-57 195h-561z" />
    <glyph glyph-name="B" unicode="B" horiz-adv-x="1298" 
d="M60 -20v1049q0 202 168 319q149 104 362 104h4q215 -1 363 -105q167 -117 167 -318q0 -220 -144 -291q80 -25 147 -132q57 -92 57 -202q0 -199 -117 -300q-142 -124 -475 -124h-532zM295 622v-434h297q207 0 291 62q66 49 66 154q0 106 -66 155q-84 63 -291 63h-297z
M531 829q212 0 293 54q65 44 65 146q0 103 -90 159q-80 49 -206 49h-5q-123 0 -202 -49q-91 -55 -91 -159v-200h236z" />
    <glyph glyph-name="C" unicode="C" horiz-adv-x="1170" 
d="M11 897q0 259 165 409q161 146 428 146q230 0 500 -97v-73q0 -45 -34 -78q-34 -34 -89 -34q-215 67 -377 67q-160 0 -256 -87q-102 -92 -102 -253v-374q0 -162 102 -253q96 -87 256 -87q162 0 377 67q55 0 89 -34q34 -33 34 -78v-73q-270 -97 -500 -97q-267 0 -428 146
q-165 149 -165 409v374z" />
    <glyph glyph-name="D" unicode="D" horiz-adv-x="1381" 
d="M1230 535q0 -260 -165 -409q-161 -146 -427 -146h-593v917q0 259 165 409q161 146 428 146q266 0 427 -146q165 -150 165 -409v-362zM638 188q159 0 255 87q102 91 102 252v370q0 161 -102 253q-96 87 -255 87q-160 0 -256 -87q-102 -92 -102 -253v-709h358z" />
    <glyph glyph-name="E" unicode="E" horiz-adv-x="1158" 
d="M0 897q0 259 165 409q161 146 427 146q231 0 501 -97v-73q0 -45 -34 -78q-34 -34 -89 -34q-214 67 -378 67q-159 0 -255 -87q-102 -92 -102 -253v-68h652q49 0 80 -31q33 -33 33 -77v-99h-765v-99q0 -162 102 -253q96 -87 255 -87q164 0 378 67q55 0 89 -34
q34 -33 34 -78v-73q-270 -97 -501 -97q-266 0 -427 146q-165 149 -165 409v374z" />
    <glyph glyph-name="F" unicode="F" horiz-adv-x="1174" 
d="M54 897q0 259 165 409q161 146 428 146q230 0 500 -97v-73q0 -45 -33 -78q-35 -34 -90 -34q-215 67 -377 67q-160 0 -256 -87q-102 -92 -102 -253v-68h652q49 0 80 -31q33 -33 33 -77v-99h-765v-530q0 -45 -34 -79q-33 -33 -84 -33h-117v917z" />
    <glyph glyph-name="G" unicode="G" horiz-adv-x="1291" 
d="M1155 -20h-121q-49 0 -83 34q-30 31 -30 74v28q-110 -148 -387 -148q-261 0 -399 147q-133 143 -133 408v374q0 259 165 409q161 146 427 146q231 0 501 -97v-73q0 -45 -34 -78q-34 -34 -89 -34q-214 67 -378 67q-159 0 -255 -87q-102 -92 -102 -253v-374
q0 -340 297 -340q215 0 387 188v251q0 43 30 74q34 34 83 34h121v-750z" />
    <glyph glyph-name="H" unicode="H" horiz-adv-x="1326" 
d="M304 88q0 -43 -33 -76q-32 -32 -80 -32h-122v1453h122q48 0 80 -32q33 -33 33 -76v-515h618v515q0 43 33 76q32 32 80 32h122v-1453h-122q-48 0 -80 32q-33 33 -33 76v514h-618v-514z" />
    <glyph glyph-name="I" unicode="I" horiz-adv-x="474" 
d="M69 1325q0 43 33 76q32 32 80 32h122v-1345q0 -43 -33 -76q-32 -32 -80 -32h-122v1345z" />
    <glyph glyph-name="J" unicode="J" horiz-adv-x="943" 
d="M554 1325q0 43 30 74q34 34 83 34h121v-910q0 -260 -164 -409q-162 -146 -428 -146q-87 0 -211 20v92q0 44 33 77q32 32 83 32q55 -6 95 -6q159 0 255 87q103 91 103 253v802z" />
    <glyph glyph-name="K" unicode="K" horiz-adv-x="1224" 
d="M581 810q92 1 118 18q33 22 60 115l117 409q21 81 125 81h126l-157 -574q-23 -88 -59 -110q53 -35 100 -213l152 -556h-126q-104 0 -125 80l-130 457q-18 60 -44 74q-20 11 -95 11h-339v-514q0 -43 -33 -76q-32 -32 -80 -32h-122v1453h122q48 0 80 -32q33 -33 33 -76
v-515h277z" />
    <glyph glyph-name="L" unicode="L" horiz-adv-x="1193" 
d="M45 1440h117q51 0 84 -33q34 -34 34 -79v-805q0 -162 102 -253q96 -87 256 -87q162 0 377 67q55 0 90 -34q33 -33 33 -78v-73q-270 -97 -500 -97q-267 0 -428 146q-165 149 -165 409v917z" />
    <glyph glyph-name="M" unicode="M" horiz-adv-x="1816" 
d="M68 -20v1348q0 45 34 79q33 33 83 33h95q112 -1 155 -109l423 -1092l424 1092q43 108 155 109h95q50 0 83 -33q34 -34 34 -79v-1348h-117q-51 0 -84 33q-34 34 -34 79v986l-387 -998q-39 -100 -136 -100h-65q-97 0 -136 100l-387 998v-986q0 -45 -34 -79q-33 -33 -84 -33
h-117z" />
    <glyph glyph-name="N" unicode="N" horiz-adv-x="1422" 
d="M68 1328q0 45 34 79q33 33 83 33h206l627 -1171v1171h235v-1348q0 -45 -34 -79q-33 -33 -83 -33h-206l-627 1171v-1059q0 -45 -34 -79q-33 -33 -84 -33h-117v1348z" />
    <glyph glyph-name="O" unicode="O" horiz-adv-x="1349" 
d="M1196 523q0 -260 -165 -409q-161 -146 -428 -146q-266 0 -427 146q-165 149 -165 409v374q0 259 165 409q161 146 427 146q267 0 428 -146q165 -150 165 -409v-374zM348 1150q-102 -92 -102 -253v-374q0 -162 102 -253q96 -87 255 -87q160 0 256 87q102 91 102 253v374
q0 161 -102 253q-96 87 -256 87q-159 0 -255 -87z" />
    <glyph glyph-name="P" unicode="P" horiz-adv-x="1196" 
d="M297 -20h-235v1049q0 202 168 319q149 104 362 104h4q215 -1 363 -105q167 -117 167 -318q0 -464 -593 -464h-236v-585zM297 773h236q358 0 358 256q0 103 -90 159q-80 49 -206 49h-5q-123 0 -202 -49q-91 -55 -91 -159v-256z" />
    <glyph glyph-name="Q" unicode="Q" horiz-adv-x="1349" 
d="M348 1150q-102 -92 -102 -253v-374q0 -162 102 -253q96 -87 256 -87q159 0 255 87q102 91 102 253v374q0 161 -102 253q-96 87 -255 87q-160 0 -256 -87zM513 -27q-204 21 -337 141q-165 149 -165 409v374q0 259 165 409q161 146 428 146q266 0 427 -146
q165 -150 165 -409v-374q0 -260 -165 -409q-113 -102 -276 -133l90 -200h-156q-89 0 -125 77z" />
    <glyph glyph-name="R" unicode="R" horiz-adv-x="1242" 
d="M297 773h236q358 0 358 256q0 103 -90 159q-80 49 -206 49h-5q-123 0 -202 -49q-91 -55 -91 -159v-256zM1044 328l157 -348h-156q-89 0 -125 77l-121 271l-67 149q-33 88 -174 88h-261v-585h-235v1049q0 202 168 319q149 104 362 104h4q215 -1 363 -105
q167 -117 167 -318q0 -313 -233 -401q35 -22 111 -212z" />
    <glyph glyph-name="S" unicode="S" horiz-adv-x="1165" 
d="M745 236q92 58 92 160q0 123 -117 171q-55 23 -280 57q-207 31 -300 95q-140 95 -140 298t153 323q140 112 349 112q230 0 500 -97v-73q0 -45 -34 -79q-33 -33 -88 -33q-215 67 -378 67q-108 0 -183 -55q-84 -61 -84 -165q0 -109 117 -151q41 -15 285 -51
q205 -31 301 -102q134 -98 134 -304v-12q-4 -202 -164 -321q-145 -108 -355 -108q-230 0 -500 97v73q0 45 34 79q33 33 88 33q215 -67 378 -67q110 0 192 53z" />
    <glyph glyph-name="T" unicode="T" horiz-adv-x="1001" 
d="M96 1225q-48 0 -81 33q-32 31 -32 75v100h944q48 0 80 -32q33 -33 33 -76v-100h-411v-1137q0 -43 -33 -76q-32 -32 -80 -32h-122v1245h-298z" />
    <glyph glyph-name="U" unicode="U" horiz-adv-x="1262" 
d="M1121 391q0 -201 -167 -318q-148 -104 -363 -105q-216 0 -366 104q-168 117 -168 319v1042h235v-1042q0 -104 91 -159q79 -49 202 -49h5q126 0 206 49q90 56 90 159v1042h235v-1042z" />
    <glyph glyph-name="V" unicode="V" horiz-adv-x="1215" 
d="M621 183l320 1124q33 125 162 125h122l-389 -1337q-32 -126 -161 -126h-142q-129 0 -161 124l-389 1339h122q129 0 161 -124l322 -1125h33z" />
    <glyph glyph-name="W" unicode="W" horiz-adv-x="2114" 
d="M556 254l297 1053q30 125 156 125h89q125 0 156 -124l297 -1054l297 1053q32 125 157 125h119l-376 -1337q-32 -126 -158 -126h-78q-125 0 -156 124l-302 1072l-302 -1070q-32 -126 -157 -126h-78q-126 0 -157 124l-377 1339h119q126 0 157 -124z" />
    <glyph glyph-name="X" unicode="X" horiz-adv-x="1209" 
d="M700 828q33 22 60 115l117 409q21 81 125 81h126l-156 -574q-23 -88 -59 -111q52 -34 99 -212l152 -556h-126q-104 0 -125 80l-130 457q-18 60 -44 74q-20 11 -94 11h-125q-75 0 -95 -11q-26 -14 -43 -74l-130 -457q-22 -80 -126 -80h-126l152 556q48 178 100 213
q-36 22 -59 110l-157 574h126q104 0 126 -81l116 -409q27 -93 60 -114q27 -18 118 -19q92 1 118 18z" />
    <glyph glyph-name="Y" unicode="Y" horiz-adv-x="1167" 
d="M682 88q0 -43 -33 -76q-32 -32 -80 -32h-122v623q-140 1 -200 48q-67 50 -113 226l-152 556h126q104 0 126 -81l130 -456q17 -61 43 -74q21 -12 95 -12h125q73 0 94 12q26 13 44 74l130 456q21 81 125 81h126l-152 -556q-45 -169 -111 -221q-63 -49 -201 -52v-516z" />
    <glyph glyph-name="Z" unicode="Z" horiz-adv-x="1125" 
d="M954 1432q50 0 82 -32q34 -34 34 -79v-107l-788 -1024h671q50 0 82 -32q34 -34 34 -79v-99h-940q-50 0 -83 35q-33 31 -33 76v107l788 1024h-672q-50 0 -83 35q-33 31 -33 76v99h941z" />
    <glyph glyph-name="bracketleft" unicode="[" horiz-adv-x="556" 
d="M75 -404v2035h381v-173h-162v-1689h162v-173h-381z" />
    <glyph glyph-name="backslash" unicode="\" horiz-adv-x="632" 
d="M71 1432h77q45 0 73 -28q21 -23 30 -57l281 -1367h-77q-45 0 -73 28q-21 23 -30 57z" />
    <glyph glyph-name="bracketright" unicode="]" horiz-adv-x="556" 
d="M75 -404v173h162v1689h-162v173h381v-2035h-381z" />
    <glyph glyph-name="asciicircum" unicode="^" horiz-adv-x="1035" 
d="M714 785l-217 378l-215 -378h-221l379 661h115l380 -661h-221z" />
    <glyph glyph-name="underscore" unicode="_" horiz-adv-x="1262" 
d="M166 -242q-41 0 -69 36q-22 33 -22 75v69h996q42 0 70 -36q21 -32 21 -74v-70h-996z" />
    <glyph glyph-name="grave" unicode="`" horiz-adv-x="655" 
d="M73 1291q24 155 114 155q30 0 66 -17l302 -265l-73 -85z" />
    <glyph glyph-name="a" unicode="a" horiz-adv-x="1194" 
d="M846 518q0 166 -57 247q-67 97 -231 97t-231 -97q-58 -81 -58 -247q0 -168 54 -248q65 -96 227 -96q228 0 296 195v149zM523 -32q-480 0 -480 550t515 550q514 0 514 -550v-538h-113q-48 0 -81 33q-32 31 -32 75q-90 -120 -323 -120z" />
    <glyph glyph-name="b" unicode="b" horiz-adv-x="1204" 
d="M291 518q0 -166 58 -247q67 -97 231 -97t231 97q57 81 57 247q0 168 -54 248q-65 96 -227 96q-227 0 -296 -195v-149zM291 952q91 116 323 116q480 0 480 -550t-514 -550q-515 0 -515 550v915h113q48 0 80 -32q33 -33 33 -76v-373z" />
    <glyph glyph-name="c" unicode="c" horiz-adv-x="1026" 
d="M984 74q-177 -106 -426 -106q-515 0 -515 550t515 550q249 0 426 -106v-94q0 -71 -72 -71q-20 0 -45 6q-158 59 -309 59q-164 0 -231 -97q-58 -81 -58 -247t58 -247q67 -97 231 -97q151 0 309 59q25 6 45 6q72 0 72 -71v-94z" />
    <glyph glyph-name="d" unicode="d" horiz-adv-x="1205" 
d="M846 811q-140 51 -288 51q-159 0 -228 -91q-61 -81 -61 -253q0 -173 58 -253q65 -91 223 -91q227 0 296 195v442zM523 -32q-480 0 -480 550t515 550q175 0 288 -43v300q0 43 33 76q32 32 80 32h113v-1453h-113q-48 0 -81 33q-32 31 -32 75q-80 -120 -323 -120z" />
    <glyph glyph-name="e" unicode="e" horiz-adv-x="1090" 
d="M761 626q-9 111 -47 165q-51 71 -185 71q-137 0 -196 -71q-49 -59 -57 -165h485zM44 518q0 550 485 550q264 0 376 -166q88 -129 88 -383q0 -101 -113 -101h-605q6 -244 284 -244q151 0 309 59q25 6 45 6q72 0 72 -71v-94q-177 -106 -426 -106q-515 0 -515 550z" />
    <glyph glyph-name="f" unicode="f" horiz-adv-x="707" 
d="M587 1056q49 0 81 -34q32 -30 32 -74v-100h-345v-760q0 -44 -32 -75q-33 -33 -81 -33h-113v868h-29q-49 0 -81 34q-32 30 -32 74v100h142q0 216 118 307q102 80 322 80q100 0 223 -28v-100q0 -88 -112 -88q-60 10 -111 10q-117 0 -161 -32q-53 -38 -53 -149h232z" />
    <glyph glyph-name="g" unicode="g" horiz-adv-x="1193" 
d="M846 518q0 166 -57 247q-67 97 -231 97t-231 -97q-58 -81 -58 -247q0 -168 54 -248q65 -96 227 -96q227 0 296 195v149zM523 -32q-480 0 -480 550t515 550q514 0 514 -550v-375q0 -550 -514 -550q-250 0 -427 107v93q0 72 72 72q19 0 45 -7q158 -59 310 -59q164 0 231 97
q57 81 57 247q-100 -175 -323 -175z" />
    <glyph glyph-name="h" unicode="h" horiz-adv-x="1169" 
d="M1034 -20h-113q-48 0 -81 33q-32 31 -32 75v590q0 184 -193 184q-227 0 -296 -194v-580q0 -44 -32 -75q-33 -33 -81 -33h-113v1453h113q48 0 80 -32q33 -33 33 -76v-383q101 126 323 126q392 0 392 -367v-721z" />
    <glyph glyph-name="i" unicode="i" horiz-adv-x="433" 
d="M91 948q0 44 32 75q33 33 81 33h113v-968q0 -44 -32 -75q-33 -33 -81 -33h-113v968zM91 1325q0 43 33 76q32 32 80 32h113v-145q0 -43 -33 -76q-32 -32 -80 -32h-113v145z" />
    <glyph glyph-name="j" unicode="j" horiz-adv-x="460" 
d="M320 -22q0 -194 -94 -288q-83 -83 -262 -97q-47 0 -79 32q-30 30 -30 71v100q142 0 186 32q53 38 53 150v970q0 44 32 75q33 33 81 33h113v-1078zM94 1325q0 43 33 76q32 32 80 32h113v-145q0 -43 -31 -74q-33 -34 -82 -34h-113v145z" />
    <glyph glyph-name="k" unicode="k" horiz-adv-x="1069" 
d="M95 1433h113q48 0 80 -32q33 -33 33 -76v-703h233q72 0 88 41l105 309q28 84 135 84h121l-132 -388q-33 -97 -56 -113q44 -32 75 -123l154 -452h-121q-107 0 -133 78l-107 314q-14 42 -69 42h-293v-326q0 -44 -32 -75q-33 -33 -81 -33h-113v1453z" />
    <glyph glyph-name="l" unicode="l" horiz-adv-x="557" 
d="M88 1433h113q48 0 80 -32q33 -33 33 -76v-978q0 -148 30 -157q21 -7 50 -7q21 0 48 4q112 0 112 -89v-100q-99 -23 -180 -23q-25 0 -50 2q-114 8 -175 86.5t-61 283.5v1086z" />
    <glyph glyph-name="m" unicode="m" horiz-adv-x="1701" 
d="M713 678q0 112 -41 151q-33 33 -117 33q-174 0 -243 -194v-580q0 -44 -32 -75q-33 -33 -81 -33h-113v1076h113q48 0 81 -33q32 -31 32 -75q91 120 270 120q280 0 325 -168q91 168 302 168q358 0 358 -367v-721h-113q-49 0 -81 34q-32 30 -32 74v590q0 112 -41 151
q-34 33 -118 33q-174 0 -243 -194v-580q0 -44 -32 -76t-81 -32h-113v698z" />
    <glyph glyph-name="n" unicode="n" horiz-adv-x="1159" 
d="M1027 -20h-113q-48 0 -81 33q-32 31 -32 75v590q0 184 -193 184q-227 0 -296 -195v-579q0 -44 -32 -75q-33 -33 -81 -33h-113v1076h113q48 0 81 -33q32 -31 32 -75q101 120 323 120q392 0 392 -367v-721z" />
    <glyph glyph-name="o" unicode="o" horiz-adv-x="1176" 
d="M558 861q-164 0 -231 -96q-58 -81 -58 -247t58 -248q67 -96 231 -96t231 96q57 82 57 248t-57 247q-67 96 -231 96zM1072 518q0 -550 -514 -550q-515 0 -515 550t515 550q514 0 514 -550z" />
    <glyph glyph-name="p" unicode="p" horiz-adv-x="1219" 
d="M313 225q141 -51 289 -51q159 0 227 90q61 82 61 254q0 173 -58 253q-64 90 -223 90q-233 0 -296 -177v-459zM636 1068q480 0 480 -550t-514 -550q-175 0 -289 43v-300q0 -43 -33 -76q-32 -32 -80 -32h-113v1453h113q48 0 80 -32q33 -33 33 -76q91 120 323 120z" />
    <glyph glyph-name="q" unicode="q" horiz-adv-x="1196" 
d="M846 518q0 166 -57 247q-67 96 -231 96t-231 -96q-58 -81 -58 -247q0 -168 54 -249q65 -95 227 -95q234 0 296 178v166zM846 92q-90 -124 -323 -124q-480 0 -480 550t515 550q514 0 514 -550v-915h-113q-48 0 -80 32q-33 33 -33 76v381z" />
    <glyph glyph-name="r" unicode="r" horiz-adv-x="865" 
d="M86 1056h113q48 0 80 -32q33 -33 33 -76q91 120 270 120q99 0 223 -28v-100q0 -88 -112 -88q-61 9 -138 9q-174 0 -243 -194v-579q0 -44 -32 -76q-33 -32 -81 -32h-113v1076z" />
    <glyph glyph-name="s" unicode="s" horiz-adv-x="932" 
d="M812 961v-93q0 -72 -72 -72q-19 0 -45 7q-159 58 -284 58q-75 0 -116 -38q-39 -34 -39 -85q0 -58 79 -83l197 -38q145 -26 215 -84q95 -78 95 -227v-9q-2 -133 -101 -226q-110 -103 -294 -103q-225 0 -402 106v93q0 72 73 72q19 0 44 -6q159 -59 285 -59q76 0 123 39
q43 35 43 84q0 69 -76 98q-25 9 -197 40q-144 27 -211 77q-102 77 -102 226q0 134 94 226q105 104 290 104q224 0 401 -107z" />
    <glyph glyph-name="t" unicode="t" horiz-adv-x="838" 
d="M121 848q-48 0 -81 33q-32 31 -32 75v100h145v163q0 44 32 75q33 33 81 33h113v-271h304q48 0 80 -32q33 -33 33 -76v-100h-417v-493q0 -112 53 -150q45 -31 162 -31q51 0 111 9q112 0 112 -88v-100q-123 -27 -223 -27q-221 0 -323 80q-118 91 -118 307v493h-32z" />
    <glyph glyph-name="u" unicode="u" horiz-adv-x="1163" 
d="M476 -32q-392 0 -392 367v721h113q48 0 80 -32q33 -33 33 -76v-590q0 -184 193 -184q234 0 296 178v596q0 43 33 76q32 32 80 32h113v-1076h-113q-48 0 -81 32q-32 32 -32 76q-90 -120 -323 -120z" />
    <glyph glyph-name="v" unicode="v" horiz-adv-x="969" 
d="M91 1056q113 0 141 -106l219 -734l219 734q28 106 141 106h122l-290 -970q-28 -106 -141 -106h-102q-113 0 -141 106l-290 970h122z" />
    <glyph glyph-name="w" unicode="w" horiz-adv-x="1567" 
d="M97 1056q113 0 142 -106l172 -711l157 711q29 106 141 106h76q112 0 141 -106l179 -711l150 711q29 106 142 106h98l-195 -969q-29 -107 -142 -107h-103q-112 0 -141 106l-171 684l-138 -683q-29 -107 -142 -107h-102q-113 0 -142 106l-242 970h120z" />
    <glyph glyph-name="x" unicode="x" horiz-adv-x="1000" 
d="M430 414q-55 0 -69 -43l-105 -310q-28 -81 -135 -81h-121l154 452q31 91 76 122q-24 17 -56 114l-133 388h121q107 0 136 -87l105 -307q15 -39 69 -40h22q54 1 69 40l105 307q29 87 136 87h121l-133 -388q-32 -97 -56 -114q45 -31 76 -122l154 -452h-121q-107 0 -135 81
l-105 310q-14 43 -69 43h-106z" />
    <glyph glyph-name="y" unicode="y" horiz-adv-x="1166" 
d="M1024 143q0 -550 -514 -550q-250 0 -427 106v93q0 72 73 72q19 0 44 -6q158 -59 310 -59q164 0 231 97q57 81 57 247q-100 -175 -323 -175q-392 0 -392 367v721h113q48 0 80 -32q33 -33 33 -76v-590q0 -184 193 -184q227 0 296 195v579q0 43 33 76q32 32 80 32h113v-913z
" />
    <glyph glyph-name="z" unicode="z" horiz-adv-x="899" 
d="M731 1056q48 0 80 -32q33 -33 33 -76v-86l-541 -675h428q48 0 81 -32q32 -32 32 -76v-99h-713q-48 0 -81 32q-32 32 -32 76v85l541 675h-428q-48 0 -81 33q-32 31 -32 75v100h713z" />
    <glyph glyph-name="braceleft" unicode="{" horiz-adv-x="823" 
d="M414 583q89 -123 89 -315q0 -58 -7 -121q-13 -105 -13 -176q0 -110 27 -139q51 -62 130 -62q24 0 83 11v-173q-62 -12 -102 -12q-155 0 -257 125q-89 123 -89 315q0 58 8 122q13 103 13 174q0 110 -28 140q-37 45 -84 57l-109 4v169l109 4q47 12 84 57q28 30 28 140
q0 71 -13 175q-8 63 -8 121q0 192 89 315q102 125 257 125q40 0 102 -12v-173q-59 11 -83 11q-79 0 -130 -62q-27 -29 -27 -138q0 -72 13 -176q8 -64 8 -121q0 -193 -90 -316q-21 -27 -30 -35q9 -7 30 -34z" />
    <glyph glyph-name="bar" unicode="|" horiz-adv-x="361" 
d="M75 1608q0 44 32 76q33 32 81 32h73v-1903q0 -44 -31 -75q-33 -33 -82 -33h-73v1903z" />
    <glyph glyph-name="braceright" unicode="}" horiz-adv-x="823" 
d="M414 617q-9 8 -30 35q-90 123 -90 316q0 57 8 121q13 104 13 176q0 109 -27 138q-51 62 -130 62q-24 0 -83 -11v173q62 12 102 12q155 0 257 -125q89 -123 89 -315q0 -58 -8 -121q-13 -104 -13 -175q0 -110 28 -140q37 -45 84 -57l109 -4v-169l-109 -4q-47 -12 -84 -57
q-28 -30 -28 -140q0 -71 13 -174q8 -64 8 -122q0 -192 -89 -315q-102 -125 -257 -125q-40 0 -102 12v173q59 -11 83 -11q79 0 130 62q27 29 27 139q0 71 -12 176q-8 63 -8 121q0 192 89 315q21 27 30 34z" />
    <glyph glyph-name="asciitilde" unicode="~" horiz-adv-x="1034" 
d="M337 676q-44 0 -94 -25q-24 -12 -51 -35l-5 -5q-23 -23 -58 -23q-24 0 -54 18v112q72 82 136.5 110.5t125.5 28.5q69 0 178 -44t157 -44q44 0 94 25q24 12 51 35l5 5q23 23 58 23q24 0 54 -18v-112q-72 -82 -136.5 -110.5t-125.5 -28.5q-63 0 -175 44t-160 44z" />
    <glyph glyph-name="exclamdown" unicode="&#xa1;" horiz-adv-x="902" 
d="M778 -288q0 -44 -32 -76q-33 -32 -81 -32h-171l49 1004q0 44 32 76q33 32 81 32h73zM754 912q0 -44 -33 -75q-34 -33 -85 -33h-117v144q0 44 33 76q35 32 84 32h118v-144z" />
    <glyph glyph-name="cent" unicode="&#xa2;" horiz-adv-x="1265" 
d="M1164 74q-177 -106 -426 -106q-515 0 -515 550t515 550q249 0 426 -106v-94q0 -71 -72 -71q-20 0 -45 6q-158 59 -309 59q-164 0 -231 -97q-58 -81 -58 -247t58 -247q67 -97 231 -97q151 0 309 59q25 6 45 6q72 0 72 -71v-94zM686 -109q-9 -34 -30 -57q-28 -28 -73 -28
h-77l281 1367q9 34 30 57q28 28 73 28h77z" />
    <glyph glyph-name="sterling" unicode="&#xa3;" horiz-adv-x="1312" 
d="M257 721l-3 13q-27 133 -27 239q0 237 138 334q149 145 397 145q180 0 450 -97v-73q0 -45 -33 -78q-35 -34 -90 -34q-215 67 -327 67q-139 0 -226 -87q-70 -57 -70 -201q0 -88 27 -209q4 -18 4 -19h496q42 0 70 -36q21 -32 21 -74v-70h-566v-31q1 -21 1 -41
q0 -186 -64 -281h617q48 0 80 -32q33 -33 33 -76v-100h-1137v114q0 89 102 89q133 75 133 264q0 33 -4 70v24h-113q-41 0 -69 36q-22 33 -22 75v69h182z" />
    <glyph glyph-name="currency" unicode="&#xa4;" horiz-adv-x="1146" 
d="M564 989q-126 0 -178 -70q-44 -59 -44 -183t45 -184q51 -70 177 -70t177 70q45 60 45 184t-44 183q-52 70 -178 70zM937 525l41 -41q26 -26 26 -62q0 -7 -1 -16q-10 -44 -44 -79l-61 -61l-101 100q-79 -49 -233 -49q-161 0 -241 55l-33 -34q-25 -25 -66 -25q-8 0 -18 1
q-48 11 -84 46l-54 54l119 119q-33 78 -33 203q0 146 45 230l-63 63q-26 25 -26 62q0 7 1 15q11 42 44 77l61 61l131 -131q74 42 217 42q109 0 198 -46l61 60q28 28 70 28q8 0 18 -2q45 -11 81 -45l54 -54l-121 -121q49 -87 49 -239q0 -131 -37 -211z" />
    <glyph glyph-name="yen" unicode="&#xa5;" horiz-adv-x="1333" 
d="M534 552v51q-140 1 -200 48q-67 50 -113 226l-152 556h126q104 0 126 -81l130 -456q17 -61 43 -74q21 -12 95 -12h125q73 0 94 12q26 13 44 74l130 456q21 81 125 81h126l-152 -556q-45 -169 -111 -221q-63 -49 -201 -52v-52h245q42 0 70 -36q21 -33 21 -75v-69h-336v-77
h245q42 0 70 -36q21 -32 21 -74v-70h-336v-27q0 -43 -33 -76q-32 -32 -80 -32h-122v135h-245q-41 0 -69 36q-22 33 -22 75v69h336v77h-245q-41 0 -69 36q-22 33 -22 75v69h336z" />
    <glyph glyph-name="brokenbar" unicode="&#xa6;" horiz-adv-x="336" 
d="M75 1038q0 18.9199 32 32.6797q33 13.7598 81 13.7598h73v-818.276q0 -18.9189 -31 -32.249q-33 -14.1895 -82 -14.1895h-73v818.275zM75 529.321q0 18.9189 32 32.6787q33 13.7598 81 13.7598h73v-818.275q0 -18.9199 -31 -32.25q-33 -14.1895 -82 -14.1895h-73v818.276
z" />
    <glyph glyph-name="section" unicode="&#xa7;" horiz-adv-x="1136" 
d="M926 251q-11 7 -13 7q0 -1 2 -2q121 -87 121 -271v-11q-4 -181 -147 -288q-130 -96 -319 -96q-205 0 -448 87v66q0 41 31 72q30 30 80 30q192 -59 337 -59q98 0 170 46q81 51 81 141q0 109 -103 151q-49 20 -249 50q-185 28 -269 86q-125 85 -125 267t117 274l11 -8l-2 2
q-126 85 -126 267t137 290q126 100 313 100q206 0 449 -87v-67q0 -41 -30 -71q-32 -31 -82 -31q-192 60 -337 60q-95 0 -161 -48q-74 -54 -74 -146q0 -96 103 -133q36 -13 253 -45q183 -28 270 -91q120 -88 120 -273v-11q-4 -170 -110 -258zM689 341q23 8 50 27
q82 51 82 141q0 108 -103 150q-48 20 -250 51l-15 3q-48 -10 -89 -41q-74 -53 -74 -145q0 -96 102 -133q37 -13 254 -45q27 -4 43 -8z" />
    <glyph glyph-name="dieresis" unicode="&#xa8;" horiz-adv-x="743" 
d="M75 1229q0 43 35 76q32 32 83 32h117v-145q0 -43 -35 -76q-32 -32 -82 -32h-118v145zM643 1084h-118q-50 0 -82 32q-35 33 -35 76v145h117q51 0 83 -32q35 -33 35 -76v-145z" />
    <glyph glyph-name="copyright" unicode="&#xa9;" horiz-adv-x="1707" 
d="M471 818q0 158 101 250q99 90 263 90q140 0 310 -61v-49q0 -75 -86 -75q-128 40 -224 40q-91 0 -145 -49q-59 -52 -59 -146v-224q0 -94 59 -146q54 -49 145 -49q96 0 224 40q86 0 86 -76v-48q-170 -61 -310 -61q-164 0 -263 90q-101 92 -101 250v224zM808 1422
q349 0 513 -192q149 -175 149 -524q0 -350 -149 -524q-164 -192 -513 -192q-350 0 -514 192q-149 174 -149 524q0 349 149 524q164 192 514 192zM808 1281q-498 0 -498 -575t498 -575q497 0 497 575t-497 575z" />
    <glyph glyph-name="ordfeminine" unicode="&#xaa;" horiz-adv-x="845" 
d="M568.237 773.969q0 99.5957 -37.6191 148.193q-44.2178 58.1982 -152.453 58.1982q-108.236 0 -152.454 -58.1982q-38.2783 -48.5977 -38.2783 -148.193q0 -100.796 35.6387 -148.794q42.8975 -57.5977 149.813 -57.5977q150.474 0 195.353 116.995v89.3965z
M355.065 443.982q-316.787 0 -316.787 329.986t339.887 329.986q339.226 0 339.226 -329.986v-322.787h-74.5771q-31.6787 0 -53.457 19.7988q-21.1191 18.5996 -21.1191 44.998q-59.3984 -71.9961 -213.172 -71.9961z" />
    <glyph glyph-name="guillemotleft" unicode="&#xab;" horiz-adv-x="813" 
d="M421 343q30 -52 30 -271l-376 411v94l376 411q0 -219 -30 -271l-128 -187zM708 343q30 -52 30 -271l-376 411v94l376 411q0 -219 -30 -271l-128 -187z" />
    <glyph glyph-name="logicalnot" unicode="&#xac;" horiz-adv-x="1005" 
d="M715 604h-549q-41 0 -69 36q-22 33 -22 75v69h830v-386q0 -35 -34 -62q-36 -24 -82 -24h-74v292z" />
    <glyph glyph-name="registered" unicode="&#xae;" horiz-adv-x="1500" 
d="M738 1422q349 0 513 -192q149 -175 149 -524q0 -350 -149 -524q-164 -192 -513 -192q-350 0 -514 192q-149 174 -149 524q0 349 149 524q164 192 514 192zM738 1281q-498 0 -498 -575t498 -575q497 0 497 575t-497 575zM549 298h-162v597q0 125 105 199q92 64 224 64h4
q133 0 225 -65q104 -73 104 -198q0 -193 -132 -244q11 -7 59 -124l102 -230h-107q-61 0 -86 52l-93 210q-18 48 -95 48h-148v-309zM549 748h133q206 0 206 147q0 58 -51 89q-45 29 -118 29t-119 -28q-51 -31 -51 -90v-147z" />
    <glyph glyph-name="macron" unicode="&#xaf;" horiz-adv-x="1121" 
d="M166 1110q-41 0 -69 36q-22 33 -22 75v69h855q42 0 70 -36q21 -32 21 -74v-70h-855z" />
    <glyph glyph-name="degree" unicode="&#xb0;" horiz-adv-x="841" 
d="M408 1342q-98 0 -137 -57q-35 -49 -35 -151q0 -103 35 -153q39 -57 137 -57t138 56q34 51 34 154q0 102 -34 151q-40 57 -138 57zM741 1134q0 -354 -333 -354t-333 354q0 353 333 353t333 -353z" />
    <glyph glyph-name="plusminus" unicode="&#xb1;" horiz-adv-x="1159" 
d="M485 604h-319q-41 0 -69 36q-22 33 -22 75v69h410v324q0 36 35 63q34 23 80 23h75v-410h318q42 0 70 -36q21 -32 21 -74v-70h-409v-323q0 -35 -34 -62q-36 -24 -82 -24h-74v409zM166 -20q-41 0 -69 36q-22 33 -22 75v69h918q42 0 70 -36q21 -32 21 -74v-70h-918z" />
    <glyph glyph-name="uni00B2" unicode="&#xb2;" horiz-adv-x="778" 
d="M153 530q-32 0 -56 22q-22 22 -22 51v24q0 98 74 176q45 48 156 119q109 69 146 106q63 64 63 139q0 60 -45 90q-42 27 -111 27q-58 0 -186 -41q-40 0 -63 23t-23 53v49q170 61 272 61q131 0 218 -64q99 -72 99 -198q0 -177 -214 -317q-129 -83 -143 -95q-65 -51 -70 -85
l352 1q34 0 56 -24q22 -20 22 -49v-68h-525z" />
    <glyph glyph-name="uni00B3" unicode="&#xb3;" horiz-adv-x="809" 
d="M356 1429q132 0 220 -65q97 -72 97 -197q0 -139 -72 -173q108 -33 108 -202q0 -269 -354 -269q-110 0 -280 61v48q0 31 23 53q23 23 63 23q142 -44 194 -44q117 0 161 36q32 29 32 92q0 62 -32 88q-42 35 -161 35h-126v141h125q99 5 132 34q26 22 26 77q0 60 -46 90
q-41 27 -111 27q-40 0 -168 -41q-40 0 -63 23t-23 53v49q170 61 254 61h1z" />
    <glyph glyph-name="acute" unicode="&#xb4;" horiz-adv-x="650" 
d="M141 1079l-73 85l302 265q36 17 66 17q90 0 114 -155z" />
    <glyph glyph-name="mu" unicode="&#xb5;" horiz-adv-x="1116" 
d="M75 1056h113q48 0 80 -32q33 -33 33 -76v-590q0 -184 193 -184q234 0 296 178v596q0 43 33 76q32 32 80 32h113v-1076h-113q-48 0 -81 32q-32 32 -32 76v-16q-50 -104 -323 -104q-119 0 -166 20v-265h-113q-48 0 -80 32q-33 33 -33 76v1225z" />
    <glyph glyph-name="paragraph" unicode="&#xb6;" horiz-adv-x="1216" 
d="M966 88q0 -41 -25 -74q-26 -34 -68 -34h-100v1270h-112v-1162q0 -41 -25 -74q-26 -34 -68 -34h-100v686q-10 -2 -54 -2q-192 0 -275 116q-64 92 -64 268t64 267q83 116 275 116h-22v2h724v-95q0 -36 -36 -64q-31 -24 -77 -24h-37v-1162z" />
    <glyph glyph-name="periodcentered" unicode="&#xb7;" horiz-adv-x="357" 
d="M128.347 628.982q0 37.3984 28.0488 63.748q28.8994 28.0488 71.3975 28.0488h100.298v-122.396q0 -37.3984 -28.0498 -64.5977q-29.749 -27.1992 -72.248 -27.1992h-99.4463v122.396z" />
    <glyph glyph-name="periodcentered" unicode="&#x2219;" horiz-adv-x="357" 
d="M128.347 628.982q0 37.3984 28.0488 63.748q28.8994 28.0488 71.3975 28.0488h100.298v-122.396q0 -37.3984 -28.0498 -64.5977q-29.749 -27.1992 -72.248 -27.1992h-99.4463v122.396z" />
    <glyph glyph-name="cedilla" unicode="&#xb8;" horiz-adv-x="606" 
d="M411 22l-46 -71q141 -70 141 -179q0 -57 -48 -123q-63 -59 -150 -59q-95 0 -227 77l-6 61v5q0 45 49 49h5q10 0 25 -3q93 -37 142 -37q28 0 38 10q4 10 4 22q0 57 -161 103l78 145h156z" />
    <glyph glyph-name="uni00B9" unicode="&#xb9;" horiz-adv-x="778" 
d="M457 671h143q34 0 56 -24q22 -20 22 -49v-68h-525q-32 0 -56 22q-22 22 -22 51v67h221v566l-82 -105h-37q-41 0 -63 34q-12 17 -12 33q0 15 9 28l85 125q42 66 113 66h70q33 0 57 -22q21 -21 21 -51v-673z" />
    <glyph glyph-name="ordmasculine" unicode="&#xba;" horiz-adv-x="846" 
d="M413.803 986.96q-108.235 0 -152.453 -57.5977q-38.2783 -48.5986 -38.2783 -148.194t38.2783 -148.794q44.2178 -57.5977 152.453 -57.5977q108.236 0 152.454 57.5977q37.6182 49.1982 37.6182 148.794t-37.6182 148.194q-44.2178 57.5977 -152.454 57.5977z
M753.029 781.168q0 -329.986 -339.227 -329.986q-339.886 0 -339.886 329.986t339.886 329.986q339.227 0 339.227 -329.986zM138.5 477q-20.5 0 -34.5 36q-11 33 -11 75v69h498q21 0 35 -36q10.5 -32 10.5 -74v-70h-498z" />
    <glyph glyph-name="guillemotright" unicode="&#xbb;" horiz-adv-x="813" 
d="M233 530l-128 187q-30 52 -30 271l376 -411v-94l-376 -411q0 219 30 271zM520 530l-128 187q-30 52 -30 271l376 -411v-94l-376 -411q0 219 30 271z" />
    <glyph glyph-name="onequarter" unicode="&#xbc;" horiz-adv-x="2079" 
d="M457 671h143q34 0 56 -24q22 -20 22 -49v-68h-525q-32 0 -56 22q-22 22 -22 51v67h221v566l-82 -105h-37q-41 0 -63 34q-12 17 -12 33q0 15 9 28l85 125q42 66 113 66h70q33 0 57 -22q21 -21 21 -51v-673zM954 65q-9 -34 -30 -57q-28 -28 -73 -28h-77l281 1367
q9 34 30 57q28 28 73 28h77zM1897 327h28q34 0 57 -25q22 -20 22 -50v-68h-107v-204h-83q-34 0 -57 23q-20 22 -20 50v131h-326q-35 0 -57 22q-23 23 -23 53v66l305 476q43 66 114 66h69q33 0 57 -22q21 -21 21 -51v-467zM1516 327h221v346z" />
    <glyph glyph-name="onehalf" unicode="&#xbd;" horiz-adv-x="2009" 
d="M457 671h143q34 0 56 -24q22 -20 22 -49v-68h-525q-32 0 -56 22q-22 22 -22 51v67h221v566l-82 -105h-37q-41 0 -63 34q-12 17 -12 33q0 15 9 28l85 125q42 66 113 66h70q33 0 57 -22q21 -21 21 -51v-673zM954 65q-9 -34 -30 -57q-28 -28 -73 -28h-77l281 1367
q9 34 30 57q28 28 73 28h77zM1409 -20q-32 0 -56 22q-22 22 -22 51v24q0 98 74 176q45 48 156 119q109 69 146 106q63 64 63 139q0 60 -45 90q-42 27 -111 27q-58 0 -186 -41q-40 0 -63 23t-23 53v49q170 61 272 61q131 0 218 -64q99 -72 99 -198q0 -177 -214 -317
q-129 -83 -143 -95q-65 -51 -70 -85l352 1q34 0 56 -24q22 -20 22 -49v-68h-525z" />
    <glyph glyph-name="threequarters" unicode="&#xbe;" horiz-adv-x="2110" 
d="M356 1429q132 0 220 -65q97 -72 97 -197q0 -139 -72 -173q108 -33 108 -202q0 -269 -354 -269q-110 0 -280 61v48q0 31 23 53q23 23 63 23q142 -44 194 -44q117 0 161 36q32 29 32 92q0 62 -32 88q-42 35 -161 35h-126v141h125q99 5 132 34q26 22 26 77q0 60 -46 90
q-41 27 -111 27q-40 0 -168 -41q-40 0 -63 23t-23 53v49q170 61 254 61h1zM985 65q-9 -34 -30 -57q-28 -28 -73 -28h-77l281 1367q9 34 30 57q28 28 73 28h77zM1928 327h28q34 0 57 -25q22 -20 22 -50v-68h-107v-204h-83q-34 0 -57 23q-20 22 -20 50v131h-326q-35 0 -57 22
q-23 23 -23 53v66l305 476q43 66 114 66h69q33 0 57 -22q21 -21 21 -51v-467zM1547 327h221v346z" />
    <glyph glyph-name="questiondown" unicode="&#xbf;" horiz-adv-x="1152" 
d="M991 608q0 44 32 76q33 32 81 32h73l26 -401q0 -45 -33 -78t-82 -33q-365 0 -365 -185q0 -104 85 -165q74 -54 183 -54q163 0 377 67q56 0 89 -33q34 -34 34 -80v-73q-270 -96 -500 -96q-209 0 -349 111q-153 121 -153 323q0 223 170 318q93 50 322 83zM1204 912
q0 -44 -33 -75q-34 -33 -84 -33h-118v144q0 44 33 76q35 32 85 32h117v-144z" />
    <glyph glyph-name="Agrave" unicode="&#xc0;" horiz-adv-x="1243" 
d="M592 1230l-210 -721h442l-210 721h-22zM322 301l-57 -196q-32 -125 -161 -125h-122l389 1339q32 124 161 124h142q129 0 161 -125l389 -1338h-122q-129 0 -162 126l-57 195h-561zM294 1668q24 155 114 155q30 0 66 -17l302 -265l-73 -85z" />
    <glyph glyph-name="Aacute" unicode="&#xc1;" horiz-adv-x="1243" 
d="M592 1230l-210 -721h442l-210 721h-22zM322 301l-57 -196q-32 -125 -161 -125h-122l389 1339q32 124 161 124h142q129 0 161 -125l389 -1338h-122q-129 0 -162 126l-57 195h-561zM503 1456l-73 85l302 265q36 17 66 17q90 0 114 -155z" />
    <glyph glyph-name="Acircumflex" unicode="&#xc2;" horiz-adv-x="1243" 
d="M592 1230l-210 -721h442l-210 721h-22zM322 301l-57 -196q-32 -125 -161 -125h-122l389 1339q32 124 161 124h142q129 0 161 -125l389 -1338h-122q-129 0 -162 126l-57 195h-561zM604 1602l-281 -146l-74 85q145 125 307 269h95l307 -269l-73 -85z" />
    <glyph glyph-name="Atilde" unicode="&#xc3;" horiz-adv-x="1243" 
d="M592 1230l-210 -721h442l-210 721h-22zM322 301l-57 -196q-32 -125 -161 -125h-122l389 1339q32 124 161 124h142q129 0 161 -125l389 -1338h-122q-129 0 -162 126l-57 195h-561zM939 1617q-104 -125 -216 -125q-66 0 -134 42q-75 46 -138 46q-59 0 -141 -69l-42 116
q98 115 205 115q67 0 138 -43t132 -43q66 0 153 78z" />
    <glyph glyph-name="Adieresis" unicode="&#xc4;" horiz-adv-x="1243" 
d="M592 1230l-210 -721h442l-210 721h-22zM322 301l-57 -196q-32 -125 -161 -125h-122l389 1339q32 124 161 124h142q129 0 161 -125l389 -1338h-122q-129 0 -162 126l-57 195h-561zM319 1606q0 43 35 76q32 32 83 32h117v-145q0 -43 -35 -76q-32 -32 -82 -32h-118v145z
M887 1461h-118q-50 0 -82 32q-35 33 -35 76v145h117q51 0 83 -32q35 -33 35 -76v-145z" />
    <glyph glyph-name="Aring" unicode="&#xc5;" horiz-adv-x="1243" 
d="M592 1230l-210 -721h442l-210 721h-22zM322 301l-57 -196q-32 -125 -161 -125h-122l389 1339q32 124 161 124h142q129 0 161 -125l389 -1338h-122q-129 0 -162 126l-57 195h-561zM749 1751q59 -59 59 -141q0 -81 -59 -140.5t-146 -59.5t-146 59.5t-59 140.5q0 82 59 141
t146 59t146 -59zM603 1674q-23 0 -40.5 -18t-17.5 -46q0 -27 17.5 -45t40.5 -18t41 18t18 45q0 28 -18 46t-41 18z" />
    <glyph glyph-name="AE" unicode="&#xc6;" horiz-adv-x="1909" 
d="M1218 1443q58 9 125 9q231 0 501 -97v-73q0 -45 -34 -78q-34 -34 -89 -34q-214 67 -378 67q-159 0 -255 -87q-102 -92 -102 -253v-68h652q49 0 80 -31q33 -33 33 -77v-99h-765v-99q0 -162 102 -253q96 -87 255 -87q164 0 378 67q55 0 89 -34q34 -33 34 -78v-73
q-270 -97 -501 -97q-266 0 -427 146q-93 83 -128 187h-466l-57 -196q-32 -125 -161 -125h-122l389 1339q32 124 161 124h686zM846 1230h-254l-210 -721h369v388q0 222 95 333z" />
    <glyph glyph-name="Ccedilla" unicode="&#xc7;" horiz-adv-x="1170" 
d="M643 -32l-11 -17q141 -70 141 -179q0 -57 -48 -123q-63 -59 -150 -59q-95 0 -227 77l-6 61v5q0 45 49 49h5q10 0 25 -3q93 -37 142 -37q28 0 38 10q4 10 4 22q0 57 -161 103l52 97q-182 15 -320 140q-165 149 -165 409v374q0 259 165 409q161 146 428 146q230 0 500 -97
v-73q0 -45 -34 -78q-34 -34 -89 -34q-215 67 -377 67q-160 0 -256 -87q-102 -92 -102 -253v-374q0 -162 102 -253q96 -87 256 -87q162 0 377 67q55 0 89 -34q34 -33 34 -78v-73q-256 -92 -461 -97z" />
    <glyph glyph-name="Egrave" unicode="&#xc8;" horiz-adv-x="1133" 
d="M0 897q0 259 165 409q161 146 427 146q231 0 501 -97v-73q0 -45 -34 -78q-34 -34 -89 -34q-214 67 -378 67q-159 0 -255 -87q-102 -92 -102 -253v-68h652q49 0 80 -31q33 -33 33 -77v-99h-765v-99q0 -162 102 -253q96 -87 255 -87q164 0 378 67q55 0 89 -34
q34 -33 34 -78v-73q-270 -97 -501 -97q-266 0 -427 146q-165 149 -165 409v374zM238 1668q24 155 114 155q30 0 66 -17l302 -265l-73 -85z" />
    <glyph glyph-name="Eacute" unicode="&#xc9;" horiz-adv-x="1133" 
d="M0 897q0 259 165 409q161 146 427 146q231 0 501 -97v-73q0 -45 -34 -78q-34 -34 -89 -34q-214 67 -378 67q-159 0 -255 -87q-102 -92 -102 -253v-68h652q49 0 80 -31q33 -33 33 -77v-99h-765v-99q0 -162 102 -253q96 -87 255 -87q164 0 378 67q55 0 89 -34
q34 -33 34 -78v-73q-270 -97 -501 -97q-266 0 -427 146q-165 149 -165 409v374zM447 1456l-73 85l302 265q36 17 66 17q90 0 114 -155z" />
    <glyph glyph-name="Ecircumflex" unicode="&#xca;" horiz-adv-x="1133" 
d="M0 897q0 259 165 409q161 146 427 146q231 0 501 -97v-73q0 -45 -34 -78q-34 -34 -89 -34q-214 67 -378 67q-159 0 -255 -87q-102 -92 -102 -253v-68h652q49 0 80 -31q33 -33 33 -77v-99h-765v-99q0 -162 102 -253q96 -87 255 -87q164 0 378 67q55 0 89 -34
q34 -33 34 -78v-73q-270 -97 -501 -97q-266 0 -427 146q-165 149 -165 409v374zM547 1602l-281 -146l-74 85q145 125 307 269h95l307 -269l-73 -85z" />
    <glyph glyph-name="Edieresis" unicode="&#xcb;" horiz-adv-x="1133" 
d="M0 897q0 259 165 409q161 146 427 146q231 0 501 -97v-73q0 -45 -34 -78q-34 -34 -89 -34q-214 67 -378 67q-159 0 -255 -87q-102 -92 -102 -253v-68h652q49 0 80 -31q33 -33 33 -77v-99h-765v-99q0 -162 102 -253q96 -87 255 -87q164 0 378 67q55 0 89 -34
q34 -33 34 -78v-73q-270 -97 -501 -97q-266 0 -427 146q-165 149 -165 409v374zM263 1606q0 43 35 76q32 32 83 32h117v-145q0 -43 -35 -76q-32 -32 -82 -32h-118v145zM831 1461h-118q-50 0 -82 32q-35 33 -35 76v145h117q51 0 83 -32q35 -33 35 -76v-145z" />
    <glyph glyph-name="Igrave" unicode="&#xcc;" horiz-adv-x="449" 
d="M258 1325q0 43 33 76q32 32 80 32h122v-1345q0 -43 -33 -76q-32 -32 -80 -32h-122v1345zM67 1668q24 155 114 155q30 0 66 -17l302 -265l-73 -85z" />
    <glyph glyph-name="Iacute" unicode="&#xcd;" horiz-adv-x="449" 
d="M117 1325q0 43 33 76q32 32 80 32h122v-1345q0 -43 -33 -76q-32 -32 -80 -32h-122v1345zM135 1456l-73 85l302 265q36 17 66 17q90 0 114 -155z" />
    <glyph glyph-name="Icircumflex" unicode="&#xce;" horiz-adv-x="449" 
d="M299 1325q0 43 33 76q32 32 80 32h122v-1345q0 -43 -33 -76q-32 -32 -80 -32h-122v1345zM417 1602l-281 -146l-74 85q145 125 307 269h95l307 -269l-73 -85z" />
    <glyph glyph-name="Idieresis" unicode="&#xcf;" horiz-adv-x="449" 
d="M235 1325q0 43 33 76q32 32 80 32h122v-1345q0 -43 -33 -76q-32 -32 -80 -32h-122v1345zM69 1606q0 43 35 76q32 32 83 32h117v-145q0 -43 -35 -76q-32 -32 -82 -32h-118v145zM637 1461h-118q-50 0 -82 32q-35 33 -35 76v145h117q51 0 83 -32q35 -33 35 -76v-145z" />
    <glyph glyph-name="Eth" unicode="&#xd0;" horiz-adv-x="1426" 
d="M325 626v-438h358q159 0 255 87q102 91 102 252v370q0 161 -102 253q-96 87 -255 87q-160 0 -256 -87q-102 -92 -102 -253v-91h201q42 0 70 -36q21 -32 21 -74v-70h-292zM90 806v91q0 259 165 409q161 146 428 146q266 0 427 -146q165 -150 165 -409v-362
q0 -260 -165 -409q-161 -146 -427 -146h-593v646h-59q-41 0 -69 36q-22 33 -22 75v69h150z" />
    <glyph glyph-name="Ntilde" unicode="&#xd1;" horiz-adv-x="1397" 
d="M68 1328q0 45 34 79q33 33 83 33h206l627 -1171v1171h235v-1348q0 -45 -34 -79q-33 -33 -83 -33h-206l-627 1171v-1059q0 -45 -34 -79q-33 -33 -84 -33h-117v1348zM996 1617q-104 -125 -216 -125q-66 0 -134 42q-75 46 -138 46q-59 0 -141 -69l-42 116q98 115 205 115
q67 0 138 -43t132 -43q66 0 153 78z" />
    <glyph glyph-name="Ograve" unicode="&#xd2;" horiz-adv-x="1324" 
d="M1196 523q0 -260 -165 -409q-161 -146 -428 -146q-266 0 -427 146q-165 149 -165 409v374q0 259 165 409q161 146 427 146q267 0 428 -146q165 -150 165 -409v-374zM348 1150q-102 -92 -102 -253v-374q0 -162 102 -253q96 -87 255 -87q160 0 256 87q102 91 102 253v374
q0 161 -102 253q-96 87 -256 87q-159 0 -255 -87zM295 1668q24 155 114 155q30 0 66 -17l302 -265l-73 -85z" />
    <glyph glyph-name="Oacute" unicode="&#xd3;" horiz-adv-x="1324" 
d="M1196 523q0 -260 -165 -409q-161 -146 -428 -146q-266 0 -427 146q-165 149 -165 409v374q0 259 165 409q161 146 427 146q267 0 428 -146q165 -150 165 -409v-374zM348 1150q-102 -92 -102 -253v-374q0 -162 102 -253q96 -87 255 -87q160 0 256 87q102 91 102 253v374
q0 161 -102 253q-96 87 -256 87q-159 0 -255 -87zM504 1456l-73 85l302 265q36 17 66 17q90 0 114 -155z" />
    <glyph glyph-name="Ocircumflex" unicode="&#xd4;" horiz-adv-x="1324" 
d="M1196 523q0 -260 -165 -409q-161 -146 -428 -146q-266 0 -427 146q-165 149 -165 409v374q0 259 165 409q161 146 427 146q267 0 428 -146q165 -150 165 -409v-374zM348 1150q-102 -92 -102 -253v-374q0 -162 102 -253q96 -87 255 -87q160 0 256 87q102 91 102 253v374
q0 161 -102 253q-96 87 -256 87q-159 0 -255 -87zM604 1602l-281 -146l-74 85q145 125 307 269h95l307 -269l-73 -85z" />
    <glyph glyph-name="Otilde" unicode="&#xd5;" horiz-adv-x="1324" 
d="M1196 523q0 -260 -165 -409q-161 -146 -428 -146q-266 0 -427 146q-165 149 -165 409v374q0 259 165 409q161 146 427 146q267 0 428 -146q165 -150 165 -409v-374zM348 1150q-102 -92 -102 -253v-374q0 -162 102 -253q96 -87 255 -87q160 0 256 87q102 91 102 253v374
q0 161 -102 253q-96 87 -256 87q-159 0 -255 -87zM939 1617q-104 -125 -216 -125q-66 0 -134 42q-75 46 -138 46q-59 0 -141 -69l-42 116q98 115 205 115q67 0 138 -43t132 -43q66 0 153 78z" />
    <glyph glyph-name="Odieresis" unicode="&#xd6;" horiz-adv-x="1324" 
d="M1196 523q0 -260 -165 -409q-161 -146 -428 -146q-266 0 -427 146q-165 149 -165 409v374q0 259 165 409q161 146 427 146q267 0 428 -146q165 -150 165 -409v-374zM348 1150q-102 -92 -102 -253v-374q0 -162 102 -253q96 -87 255 -87q160 0 256 87q102 91 102 253v374
q0 161 -102 253q-96 87 -256 87q-159 0 -255 -87zM320 1606q0 43 35 76q32 32 83 32h117v-145q0 -43 -35 -76q-32 -32 -82 -32h-118v145zM888 1461h-118q-50 0 -82 32q-35 33 -35 76v145h117q51 0 83 -32q35 -33 35 -76v-145z" />
    <glyph glyph-name="multiply" unicode="&#xd7;" horiz-adv-x="1009" 
d="M489 564l-224 -224q-23 -24 -60 -24q-7 0 -17 2q-41 8 -71 38l-49 49l290 290l-229 229q-24 24 -24 56q0 6 1 13q8 37 40 69l53 53l290 -290l225 225q23 23 60 23q8 0 16 -2q40 -8 70 -38l49 -49l-289 -289l229 -229q23 -23 23 -55q0 -6 -1 -14q-8 -38 -40 -70l-53 -53z
" />
    <glyph glyph-name="Oslash" unicode="&#xd8;" horiz-adv-x="1349" 
d="M610 183q153 0 249 87q102 91 102 253v374q0 161 -102 253q-51 46 -91 59zM452 206l158 1032l-7 -1q-159 0 -255 -87q-102 -92 -102 -253v-374q0 -162 102 -253q56 -51 104 -64zM801 1429q127 -29 230 -123q165 -150 165 -409v-374q0 -260 -165 -409q-161 -146 -428 -146
h-26l-24 -159q-8 -43 -28 -72q-28 -37 -75 -37h-76l44 288q-134 28 -242 126q-165 149 -165 409v374q0 259 165 409q161 146 427 146h40l11 73q8 43 28 72q28 37 75 37h76z" />
    <glyph glyph-name="Ugrave" unicode="&#xd9;" horiz-adv-x="1237" 
d="M1121 391q0 -201 -167 -318q-148 -104 -363 -105q-216 0 -366 104q-168 117 -168 319v1042h235v-1042q0 -104 91 -159q79 -49 202 -49h5q126 0 206 49q90 56 90 159v1042h235v-1042zM280 1668q24 155 114 155q30 0 66 -17l302 -265l-73 -85z" />
    <glyph glyph-name="Uacute" unicode="&#xda;" horiz-adv-x="1237" 
d="M1121 391q0 -201 -167 -318q-148 -104 -363 -105q-216 0 -366 104q-168 117 -168 319v1042h235v-1042q0 -104 91 -159q79 -49 202 -49h5q126 0 206 49q90 56 90 159v1042h235v-1042zM489 1456l-73 85l302 265q36 17 66 17q90 0 114 -155z" />
    <glyph glyph-name="Ucircumflex" unicode="&#xdb;" horiz-adv-x="1237" 
d="M1121 391q0 -201 -167 -318q-148 -104 -363 -105q-216 0 -366 104q-168 117 -168 319v1042h235v-1042q0 -104 91 -159q79 -49 202 -49h5q126 0 206 49q90 56 90 159v1042h235v-1042zM590 1602l-281 -146l-74 85q145 125 307 269h95l307 -269l-73 -85z" />
    <glyph glyph-name="Udieresis" unicode="&#xdc;" horiz-adv-x="1237" 
d="M1121 391q0 -201 -167 -318q-148 -104 -363 -105q-216 0 -366 104q-168 117 -168 319v1042h235v-1042q0 -104 91 -159q79 -49 202 -49h5q126 0 206 49q90 56 90 159v1042h235v-1042zM305 1606q0 43 35 76q32 32 83 32h117v-145q0 -43 -35 -76q-32 -32 -82 -32h-118v145z
M873 1461h-118q-50 0 -82 32q-35 33 -35 76v145h117q51 0 83 -32q35 -33 35 -76v-145z" />
    <glyph glyph-name="Yacute" unicode="&#xdd;" horiz-adv-x="1136" 
d="M682 88q0 -43 -33 -76q-32 -32 -80 -32h-122v623q-140 1 -200 48q-67 50 -113 226l-152 556h126q104 0 126 -81l130 -456q17 -61 43 -74q21 -12 95 -12h125q73 0 94 12q26 13 44 74l130 456q21 81 125 81h126l-152 -556q-45 -169 -111 -221q-63 -49 -201 -52v-516z
M464 1456l-73 85l302 265q36 17 66 17q90 0 114 -155z" />
    <glyph glyph-name="Thorn" unicode="&#xde;" horiz-adv-x="1196" 
d="M297 1190q101 62 295 62h4q215 -1 363 -105q167 -117 167 -318q0 -464 -593 -464h-236v-585h-235v1545q0 43 33 76q32 32 80 32h122v-243zM297 573h236q358 0 358 256q0 103 -90 159q-80 49 -206 49h-5q-123 0 -202 -49q-91 -55 -91 -159v-256z" />
    <glyph glyph-name="germandbls" unicode="&#xdf;" horiz-adv-x="1298" 
d="M531 829q212 0 293 54q65 44 65 146q0 103 -90 159q-80 49 -206 49h-5q-123 0 -202 -49q-91 -55 -91 -159v-200h236zM705 -20q-248 0 -343 154q-41 75 -41 290h218q0 -129 29 -181q30 -55 126 -55q105 0 189 62q66 49 66 154q0 106 -66 155q-84 63 -291 63h-297v-692
q0 -43 -33 -76q-32 -32 -80 -32h-122v1207q0 202 168 319q149 104 362 104h4q215 -1 363 -105q167 -117 167 -318q0 -220 -144 -291q80 -25 147 -132q57 -92 57 -202q0 -199 -117 -300q-142 -124 -361 -124h-1z" />
    <glyph glyph-name="agrave" unicode="&#xe0;" horiz-adv-x="1169" 
d="M846 518q0 166 -57 247q-67 97 -231 97t-231 -97q-58 -81 -58 -247q0 -168 54 -248q65 -96 227 -96q228 0 296 195v149zM523 -32q-480 0 -480 550t515 550q514 0 514 -550v-538h-113q-48 0 -81 33q-32 31 -32 75q-90 -120 -323 -120zM249 1291q24 155 114 155
q30 0 66 -17l302 -265l-73 -85z" />
    <glyph glyph-name="aacute" unicode="&#xe1;" horiz-adv-x="1169" 
d="M846 518q0 166 -57 247q-67 97 -231 97t-231 -97q-58 -81 -58 -247q0 -168 54 -248q65 -96 227 -96q228 0 296 195v149zM523 -32q-480 0 -480 550t515 550q514 0 514 -550v-538h-113q-48 0 -81 33q-32 31 -32 75q-90 -120 -323 -120zM458 1079l-73 85l302 265
q36 17 66 17q90 0 114 -155z" />
    <glyph glyph-name="acircumflex" unicode="&#xe2;" horiz-adv-x="1169" 
d="M846 518q0 166 -57 247q-67 97 -231 97t-231 -97q-58 -81 -58 -247q0 -168 54 -248q65 -96 227 -96q228 0 296 195v149zM523 -32q-480 0 -480 550t515 550q514 0 514 -550v-538h-113q-48 0 -81 33q-32 31 -32 75q-90 -120 -323 -120zM558 1225l-281 -146l-74 85
q145 125 307 269h95l307 -269l-73 -85z" />
    <glyph glyph-name="atilde" unicode="&#xe3;" horiz-adv-x="1169" 
d="M846 518q0 166 -57 247q-67 97 -231 97t-231 -97q-58 -81 -58 -247q0 -168 54 -248q65 -96 227 -96q228 0 296 195v149zM523 -32q-480 0 -480 550t515 550q514 0 514 -550v-538h-113q-48 0 -81 33q-32 31 -32 75q-90 -120 -323 -120zM893 1240q-104 -125 -216 -125
q-66 0 -134 42q-75 46 -138 46q-59 0 -141 -69l-42 116q98 115 205 115q67 0 138 -43t132 -43q66 0 153 78z" />
    <glyph glyph-name="adieresis" unicode="&#xe4;" horiz-adv-x="1169" 
d="M846 518q0 166 -57 247q-67 97 -231 97t-231 -97q-58 -81 -58 -247q0 -168 54 -248q65 -96 227 -96q228 0 296 195v149zM523 -32q-480 0 -480 550t515 550q514 0 514 -550v-538h-113q-48 0 -81 33q-32 31 -32 75q-90 -120 -323 -120zM274 1229q0 43 35 76q32 32 83 32
h117v-145q0 -43 -35 -76q-32 -32 -82 -32h-118v145zM842 1084h-118q-50 0 -82 32q-35 33 -35 76v145h117q51 0 83 -32q35 -33 35 -76v-145z" />
    <glyph glyph-name="aring" unicode="&#xe5;" horiz-adv-x="1169" 
d="M846 518q0 166 -57 247q-67 97 -231 97t-231 -97q-58 -81 -58 -247q0 -168 54 -248q65 -96 227 -96q228 0 296 195v149zM523 -32q-480 0 -480 550t515 550q514 0 514 -550v-538h-113q-48 0 -81 33q-32 31 -32 75q-90 -120 -323 -120zM704 1374q59 -59 59 -141
q0 -81 -59 -140.5t-146 -59.5t-146 59.5t-59 140.5q0 82 59 141t146 59t146 -59zM558 1297q-23 0 -40.5 -18t-17.5 -46q0 -27 17.5 -45t40.5 -18t41 18t18 45q0 28 -18 46t-41 18z" />
    <glyph glyph-name="ae" unicode="&#xe6;" horiz-adv-x="1803" 
d="M1474 626q-9 111 -47 165q-51 71 -185 71q-137 0 -196 -71q-49 -59 -57 -165h485zM275 410q9 -111 47 -165q51 -71 185 -71q137 0 196 71q49 59 57 165h-485zM871 922q121 146 371 146q264 0 376 -166q88 -129 88 -383q0 -101 -113 -101h-605q6 -244 284 -244
q151 0 309 59q25 6 45 6q72 0 72 -71v-94q-177 -106 -426 -106q-265 0 -394 146q-121 -146 -371 -146q-264 0 -376 166q-88 129 -88 383q0 101 113 101h605q-6 244 -284 244q-151 0 -309 -59q-25 -6 -45 -6q-72 0 -72 71v94q177 106 426 106q265 0 394 -146z" />
    <glyph glyph-name="ccedilla" unicode="&#xe7;" horiz-adv-x="1026" 
d="M452 -26q-409 35 -409 544q0 550 515 550q249 0 426 -106v-94q0 -71 -72 -71q-20 0 -45 6q-158 59 -309 59q-164 0 -231 -97q-58 -81 -58 -247t58 -247q67 -97 231 -97q151 0 309 59q25 6 45 6q72 0 72 -71v-94q-168 -101 -385 -106l-11 -17q141 -70 141 -179
q0 -57 -48 -123q-63 -59 -150 -59q-95 0 -227 77l-6 61v5q0 45 49 49h5q10 0 25 -3q93 -37 142 -37q28 0 38 10q4 10 4 22q0 57 -161 103z" />
    <glyph glyph-name="egrave" unicode="&#xe8;" horiz-adv-x="1065" 
d="M761 626q-9 111 -47 165q-51 71 -185 71q-137 0 -196 -71q-49 -59 -57 -165h485zM44 518q0 550 485 550q264 0 376 -166q88 -129 88 -383q0 -101 -113 -101h-605q6 -244 284 -244q151 0 309 59q25 6 45 6q72 0 72 -71v-94q-177 -106 -426 -106q-515 0 -515 550zM210 1291
q24 155 114 155q30 0 66 -17l302 -265l-73 -85z" />
    <glyph glyph-name="eacute" unicode="&#xe9;" horiz-adv-x="1065" 
d="M761 626q-9 111 -47 165q-51 71 -185 71q-137 0 -196 -71q-49 -59 -57 -165h485zM44 518q0 550 485 550q264 0 376 -166q88 -129 88 -383q0 -101 -113 -101h-605q6 -244 284 -244q151 0 309 59q25 6 45 6q72 0 72 -71v-94q-177 -106 -426 -106q-515 0 -515 550zM419 1079
l-73 85l302 265q36 17 66 17q90 0 114 -155z" />
    <glyph glyph-name="ecircumflex" unicode="&#xea;" horiz-adv-x="1065" 
d="M761 626q-9 111 -47 165q-51 71 -185 71q-137 0 -196 -71q-49 -59 -57 -165h485zM44 518q0 550 485 550q264 0 376 -166q88 -129 88 -383q0 -101 -113 -101h-605q6 -244 284 -244q151 0 309 59q25 6 45 6q72 0 72 -71v-94q-177 -106 -426 -106q-515 0 -515 550zM519 1225
l-281 -146l-74 85q145 125 307 269h95l307 -269l-73 -85z" />
    <glyph glyph-name="edieresis" unicode="&#xeb;" horiz-adv-x="1065" 
d="M761 626q-9 111 -47 165q-51 71 -185 71q-137 0 -196 -71q-49 -59 -57 -165h485zM44 518q0 550 485 550q264 0 376 -166q88 -129 88 -383q0 -101 -113 -101h-605q6 -244 284 -244q151 0 309 59q25 6 45 6q72 0 72 -71v-94q-177 -106 -426 -106q-515 0 -515 550zM235 1229
q0 43 35 76q32 32 83 32h117v-145q0 -43 -35 -76q-32 -32 -82 -32h-118v145zM803 1084h-118q-50 0 -82 32q-35 33 -35 76v145h117q51 0 83 -32q35 -33 35 -76v-145z" />
    <glyph glyph-name="igrave" unicode="&#xec;" horiz-adv-x="376" 
d="M269 948q0 44 32 75q33 33 81 33h113v-968q0 -44 -32 -75q-33 -33 -81 -33h-113v968zM73 1291q24 155 114 155q30 0 66 -17l302 -265l-73 -85z" />
    <glyph glyph-name="iacute" unicode="&#xed;" horiz-adv-x="376" 
d="M128 948q0 44 32 75q33 33 81 33h113v-968q0 -44 -32 -75q-33 -33 -81 -33h-113v968zM141 1079l-73 85l302 265q36 17 66 17q90 0 114 -155z" />
    <glyph glyph-name="icircumflex" unicode="&#xee;" horiz-adv-x="376" 
d="M309 948q0 44 32 75q33 33 81 33h113v-968q0 -44 -32 -75q-33 -33 -81 -33h-113v968zM423 1225l-281 -146l-74 85q145 125 307 269h95l307 -269l-73 -85z" />
    <glyph glyph-name="idieresis" unicode="&#xef;" horiz-adv-x="376" 
d="M246 948q0 44 32 75q33 33 81 33h113v-968q0 -44 -32 -75q-33 -33 -81 -33h-113v968zM75 1229q0 43 35 76q32 32 83 32h117v-145q0 -43 -35 -76q-32 -32 -82 -32h-118v145zM643 1084h-118q-50 0 -82 32q-35 33 -35 76v145h117q51 0 83 -32q35 -33 35 -76v-145z" />
    <glyph glyph-name="eth" unicode="&#xf0;" horiz-adv-x="1227" 
d="M814 579q-69 195 -296 195q-162 0 -227 -96q-54 -80 -54 -148q0 -166 58 -247q67 -97 231 -97t231 97q57 81 57 247v49zM570 1201q-55 20 -117 21q-40 16 -40 96q0 35 17 98q206 -9 317 -89l88 61q43 26 87 26q33 0 67 -14l79 -54l-196 -137q168 -205 168 -679
q0 -550 -514 -550q-515 0 -515 550q21 425 479 450q219 0 304 -85q-20 105 -93 195l-62 -43q-52 -25 -96 -25q-31 0 -58 12l-83 54z" />
    <glyph glyph-name="ntilde" unicode="&#xf1;" horiz-adv-x="1134" 
d="M1027 -20h-113q-48 0 -81 33q-32 31 -32 75v590q0 184 -193 184q-227 0 -296 -195v-579q0 -44 -32 -75q-33 -33 -81 -33h-113v1076h113q48 0 81 -33q32 -31 32 -75q101 120 323 120q392 0 392 -367v-721zM892 1240q-104 -125 -216 -125q-66 0 -134 42q-75 46 -138 46
q-59 0 -141 -69l-42 116q98 115 205 115q67 0 138 -43t132 -43q66 0 153 78z" />
    <glyph glyph-name="ograve" unicode="&#xf2;" horiz-adv-x="1151" 
d="M558 861q-164 0 -231 -96q-58 -81 -58 -247t58 -248q67 -96 231 -96t231 96q57 82 57 248t-57 247q-67 96 -231 96zM1072 518q0 -550 -514 -550q-515 0 -515 550t515 550q514 0 514 -550zM249 1291q24 155 114 155q30 0 66 -17l302 -265l-73 -85z" />
    <glyph glyph-name="oacute" unicode="&#xf3;" horiz-adv-x="1151" 
d="M558 861q-164 0 -231 -96q-58 -81 -58 -247t58 -248q67 -96 231 -96t231 96q57 82 57 248t-57 247q-67 96 -231 96zM1072 518q0 -550 -514 -550q-515 0 -515 550t515 550q514 0 514 -550zM458 1079l-73 85l302 265q36 17 66 17q90 0 114 -155z" />
    <glyph glyph-name="ocircumflex" unicode="&#xf4;" horiz-adv-x="1151" 
d="M558 861q-164 0 -231 -96q-58 -81 -58 -247t58 -248q67 -96 231 -96t231 96q57 82 57 248t-57 247q-67 96 -231 96zM1072 518q0 -550 -514 -550q-515 0 -515 550t515 550q514 0 514 -550zM558 1225l-281 -146l-74 85q145 125 307 269h95l307 -269l-73 -85z" />
    <glyph glyph-name="otilde" unicode="&#xf5;" horiz-adv-x="1151" 
d="M558 861q-164 0 -231 -96q-58 -81 -58 -247t58 -248q67 -96 231 -96t231 96q57 82 57 248t-57 247q-67 96 -231 96zM1072 518q0 -550 -514 -550q-515 0 -515 550t515 550q514 0 514 -550zM893 1240q-104 -125 -216 -125q-66 0 -134 42q-75 46 -138 46q-59 0 -141 -69
l-42 116q98 115 205 115q67 0 138 -43t132 -43q66 0 153 78z" />
    <glyph glyph-name="odieresis" unicode="&#xf6;" horiz-adv-x="1151" 
d="M558 861q-164 0 -231 -96q-58 -81 -58 -247t58 -248q67 -96 231 -96t231 96q57 82 57 248t-57 247q-67 96 -231 96zM1072 518q0 -550 -514 -550q-515 0 -515 550t515 550q514 0 514 -550zM274 1229q0 43 35 76q32 32 83 32h117v-145q0 -43 -35 -76q-32 -32 -82 -32h-118
v145zM842 1084h-118q-50 0 -82 32q-35 33 -35 76v145h117q51 0 83 -32q35 -33 35 -76v-145z" />
    <glyph glyph-name="divide" unicode="&#xf7;" horiz-adv-x="1159" 
d="M166 604q-41 0 -69 36q-22 33 -22 75v69h918q42 0 70 -36q21 -32 21 -74v-70h-918zM462 403q0 44 33 75q34 33 84 33h118v-144q0 -44 -33 -76q-35 -32 -85 -32h-117v144zM462 1021q0 43 35 76q32 32 83 32h117v-145q0 -43 -35 -76q-32 -32 -82 -32h-118v145z" />
    <glyph glyph-name="oslash" unicode="&#xf8;" horiz-adv-x="1176" 
d="M748 1044q324 -78 324 -526q0 -550 -514 -550h-32l-19 -95q-9 -34 -30 -57q-28 -28 -73 -28h-77l42 203q-326 78 -326 527q0 550 515 550h32l18 87q9 34 30 57q28 28 73 28h77zM411 199l137 662q-154 0 -221 -96q-58 -81 -58 -247t58 -248q40 -57 84 -71zM706 836
l-138 -662q154 0 221 96q57 82 57 248t-57 247q-40 57 -83 71z" />
    <glyph glyph-name="ugrave" unicode="&#xf9;" horiz-adv-x="1138" 
d="M476 -32q-392 0 -392 367v721h113q48 0 80 -32q33 -33 33 -76v-590q0 -184 193 -184q234 0 296 178v596q0 43 33 76q32 32 80 32h113v-1076h-113q-48 0 -81 32q-32 32 -32 76q-90 -120 -323 -120zM246 1291q24 155 114 155q30 0 66 -17l302 -265l-73 -85z" />
    <glyph glyph-name="uacute" unicode="&#xfa;" horiz-adv-x="1138" 
d="M476 -32q-392 0 -392 367v721h113q48 0 80 -32q33 -33 33 -76v-590q0 -184 193 -184q234 0 296 178v596q0 43 33 76q32 32 80 32h113v-1076h-113q-48 0 -81 32q-32 32 -32 76q-90 -120 -323 -120zM455 1079l-73 85l302 265q36 17 66 17q90 0 114 -155z" />
    <glyph glyph-name="ucircumflex" unicode="&#xfb;" horiz-adv-x="1138" 
d="M476 -32q-392 0 -392 367v721h113q48 0 80 -32q33 -33 33 -76v-590q0 -184 193 -184q234 0 296 178v596q0 43 33 76q32 32 80 32h113v-1076h-113q-48 0 -81 32q-32 32 -32 76q-90 -120 -323 -120zM555 1225l-281 -146l-74 85q145 125 307 269h95l307 -269l-73 -85z" />
    <glyph glyph-name="udieresis" unicode="&#xfc;" horiz-adv-x="1138" 
d="M476 -32q-392 0 -392 367v721h113q48 0 80 -32q33 -33 33 -76v-590q0 -184 193 -184q234 0 296 178v596q0 43 33 76q32 32 80 32h113v-1076h-113q-48 0 -81 32q-32 32 -32 76q-90 -120 -323 -120zM271 1229q0 43 35 76q32 32 83 32h117v-145q0 -43 -35 -76
q-32 -32 -82 -32h-118v145zM839 1084h-118q-50 0 -82 32q-35 33 -35 76v145h117q51 0 83 -32q35 -33 35 -76v-145z" />
    <glyph glyph-name="yacute" unicode="&#xfd;" horiz-adv-x="1141" 
d="M1024 143q0 -550 -514 -550q-250 0 -427 106v93q0 72 73 72q19 0 44 -6q158 -59 310 -59q164 0 231 97q57 81 57 247q-100 -175 -323 -175q-392 0 -392 367v721h113q48 0 80 -32q33 -33 33 -76v-590q0 -184 193 -184q227 0 296 195v579q0 43 33 76q32 32 80 32h113v-913z
M454 1079l-73 85l302 265q36 17 66 17q90 0 114 -155z" />
    <glyph glyph-name="thorn" unicode="&#xfe;" horiz-adv-x="1219" 
d="M313 225q141 -51 289 -51q159 0 227 90q61 82 61 254q0 173 -58 253q-64 90 -223 90q-233 0 -296 -177v-459zM313 962q51 106 323 106q480 0 480 -550t-514 -550q-175 0 -289 43v-300q0 -43 -33 -76q-32 -32 -80 -32h-113v1830h113q48 0 80 -32q33 -33 33 -76v-363z" />
    <glyph glyph-name="ydieresis" unicode="&#xff;" horiz-adv-x="1141" 
d="M1024 143q0 -550 -514 -550q-250 0 -427 106v93q0 72 73 72q19 0 44 -6q158 -59 310 -59q164 0 231 97q57 81 57 247q-100 -175 -323 -175q-392 0 -392 367v721h113q48 0 80 -32q33 -33 33 -76v-590q0 -184 193 -184q227 0 296 195v579q0 43 33 76q32 32 80 32h113v-913z
M270 1229q0 43 35 76q32 32 83 32h117v-145q0 -43 -35 -76q-32 -32 -82 -32h-118v145zM838 1084h-118q-50 0 -82 32q-35 33 -35 76v145h117q51 0 83 -32q35 -33 35 -76v-145z" />
    <glyph glyph-name="dotlessi" unicode="&#x131;" horiz-adv-x="401" 
d="M75 948q0 44 32 75q33 33 81 33h113v-968q0 -44 -32 -75q-33 -33 -81 -33h-113v968z" />
    <glyph glyph-name="circumflex" unicode="&#x2c6;" horiz-adv-x="877" 
d="M423 1225l-281 -146l-74 85q145 125 307 269h95l307 -269l-73 -85z" />
    <glyph glyph-name="caron" unicode="&#x2c7;" horiz-adv-x="877" 
d="M704 1440l73 -85l-307 -269h-95q-162 144 -307 269l74 85l281 -146z" />
    <glyph glyph-name="uni02C9" unicode="&#x2c9;" horiz-adv-x="827" 
d="M166 1110q-41 0 -69 36q-22 33 -22 75v69h561q42 0 70 -36q21 -32 21 -74v-70h-561z" />
    <glyph glyph-name="breve" unicode="&#x2d8;" horiz-adv-x="873" 
d="M695 1450l78 -90q-115 -274 -354 -274q-240 0 -346 274l78 90q149 -204 272 -204t272 204z" />
    <glyph glyph-name="dotaccent" unicode="&#x2d9;" horiz-adv-x="410" 
d="M75 1229q0 43 35 76q32 32 83 32h117v-145q0 -43 -35 -76q-32 -32 -82 -32h-118v145z" />
    <glyph glyph-name="ring" unicode="&#x2da;" horiz-adv-x="585" 
d="M426 1374q59 -59 59 -141q0 -81 -59 -140.5t-146 -59.5t-146 59.5t-59 140.5q0 82 59 141t146 59t146 -59zM280 1297q-23 0 -40.5 -18t-17.5 -46q0 -27 17.5 -45t40.5 -18t41 18t18 45q0 28 -18 46t-41 18z" />
    <glyph glyph-name="ogonek" unicode="&#x2db;" horiz-adv-x="602" 
d="M434 20q-197 -171 -197 -245q0 -23 14 -37q11 -6 33 -6q50 0 137 42q18 5 30 5q51 0 51 -48v-57q-137 -85 -238 -85q-48 0 -92 19q-97 57 -97 139q0 112 201 273h158z" />
    <glyph glyph-name="tilde" unicode="&#x2dc;" horiz-adv-x="844" 
d="M744 1240q-104 -125 -216 -125q-66 0 -134 42q-75 46 -138 46q-59 0 -141 -69l-42 116q98 115 205 115q67 0 138 -43t132 -43q66 0 153 78z" />
    <glyph glyph-name="hungarumlaut" unicode="&#x2dd;" horiz-adv-x="1046" 
d="M141 1079l-73 85l302 265q36 17 66 17q90 0 114 -155zM564 1079l-73 85l302 265q36 17 66 17q90 0 114 -155z" />
    <glyph glyph-name="endash" unicode="&#x2013;" horiz-adv-x="1324" 
d="M166 421q-41 0 -69 36q-22 33 -22 75v69h1058q42 0 70 -36q21 -32 21 -74v-70h-1058z" />
    <glyph glyph-name="emdash" unicode="&#x2014;" horiz-adv-x="1975" 
d="M166 421q-41 0 -69 36q-22 33 -22 75v69h1709q42 0 70 -36q21 -32 21 -74v-70h-1709z" />
    <glyph glyph-name="quoteleft" unicode="&#x2018;" horiz-adv-x="524" 
d="M424 1451q-114 -185 -114 -496q0 -44 -33 -75q-34 -33 -84 -33h-118v51q0 264 184 508q33 45 71 45h94z" />
    <glyph glyph-name="quoteright" unicode="&#x2019;" horiz-adv-x="509" 
d="M60 847q114 185 114 496q0 44 33 75q34 33 84 33h118v-51q0 -264 -184 -508q-33 -45 -71 -45h-94z" />
    <glyph glyph-name="quotesinglbase" unicode="&#x201a;" horiz-adv-x="509" 
d="M60 -372q114 185 114 496q0 44 33 75q34 33 84 33h118v-51q0 -264 -184 -508q-33 -45 -71 -45h-94z" />
    <glyph glyph-name="quotedblleft" unicode="&#x201c;" horiz-adv-x="882" 
d="M424 1451q-114 -185 -114 -496q0 -44 -33 -75q-34 -33 -84 -33h-118v51q0 264 184 508q33 45 71 45h94zM822 1451q-114 -185 -114 -496q0 -44 -33 -75q-34 -33 -84 -33h-118v51q0 264 184 508q33 45 71 45h94z" />
    <glyph glyph-name="quotedblright" unicode="&#x201d;" horiz-adv-x="882" 
d="M60 847q114 185 114 496q0 44 33 75q34 33 84 33h118v-51q0 -264 -184 -508q-33 -45 -71 -45h-94zM458 847q114 185 114 496q0 44 33 75q34 33 84 33h118v-51q0 -264 -184 -508q-33 -45 -71 -45h-94z" />
    <glyph glyph-name="quotedblbase" unicode="&#x201e;" horiz-adv-x="882" 
d="M60 -302q114 185 114 496q0 44 33 75q34 33 84 33h118v-51q0 -264 -184 -508q-33 -45 -71 -45h-94zM458 -302q114 185 114 496q0 44 33 75q34 33 84 33h118v-51q0 -264 -184 -508q-33 -45 -71 -45h-94z" />
    <glyph glyph-name="dagger" unicode="&#x2020;" horiz-adv-x="1178" 
d="M459 1118v207q0 43 33 76q32 32 80 32h122v-315h271q48 0 80 -32q33 -33 33 -76v-117h-384v-805q0 -43 -33 -76q-32 -32 -80 -32h-122v913h-271q-48 0 -80 32q-33 33 -33 76v117h384z" />
    <glyph glyph-name="daggerdbl" unicode="&#x2021;" horiz-adv-x="1179" 
d="M460 335h-272q-48 0 -80 32q-33 33 -33 76v117h385v333h-271q-48 0 -80 32q-33 33 -33 76v117h384v207q0 43 33 76q32 32 80 32h122v-315h271q48 0 80 -32q33 -33 33 -76v-117h-384v-333h270q48 0 80 -32q33 -33 33 -76v-117h-383v-247q0 -43 -33 -76q-32 -32 -80 -32
h-122v355z" />
    <glyph glyph-name="bullet" unicode="&#x2022;" horiz-adv-x="991" 
d="M772.5 821.5q118.5 -118.5 118.5 -284.5q0 -165 -118.5 -284t-289.5 -119t-289.5 119t-118.5 284q0 166 118.5 284.5t289.5 118.5t289.5 -118.5z" />
    <glyph glyph-name="ellipsis" unicode="&#x2026;" horiz-adv-x="1751" 
d="M75 124q0 44 33 75q34 33 84 33h118v-144q0 -44 -33 -76q-35 -32 -85 -32h-117v144zM758 124q0 44 33 75q34 33 84 33h118v-144q0 -44 -33 -76q-35 -32 -85 -32h-117v144zM1441 124q0 44 33 75q34 33 84 33h118v-144q0 -44 -33 -76q-35 -32 -85 -32h-117v144z" />
    <glyph glyph-name="guilsinglleft" unicode="&#x2039;" horiz-adv-x="551" 
d="M421 343q30 -52 30 -271l-376 411v94l376 411q0 -219 -30 -271l-128 -187z" />
    <glyph glyph-name="guilsinglright" unicode="&#x203a;" horiz-adv-x="551" 
d="M233 530l-128 187q-30 52 -30 271l376 -411v-94l-376 -411q0 219 30 271z" />
    <glyph glyph-name="fraction" unicode="&#x2044;" horiz-adv-x="532" 
d="M201 65q-9 -34 -30 -57q-28 -28 -73 -28h-77l281 1367q9 34 30 57q28 28 73 28h77z" />
    <glyph glyph-name="fraction" unicode="&#x2215;" horiz-adv-x="532" 
d="M201 65q-9 -34 -30 -57q-28 -28 -73 -28h-77l281 1367q9 34 30 57q28 28 73 28h77z" />
    <glyph glyph-name="franc" unicode="&#x20a3;" horiz-adv-x="1385" 
d="M192 443v454q0 259 165 409q161 146 428 146q230 0 500 -97v-73q0 -45 -33 -78q-35 -34 -90 -34q-215 67 -377 67q-160 0 -256 -87q-102 -92 -102 -253v-68h652q49 0 80 -31q33 -33 33 -77v-99h-765v-179h350q37 0 61 -38q17 -31 17 -72v-70h-428v-171q0 -45 -34 -79
q-33 -33 -84 -33h-117v283h-89q-37 0 -61 38q-17 32 -17 73v69h167z" />
    <glyph glyph-name="lira" unicode="&#x20a4;" horiz-adv-x="1312" 
d="M510 352q-15 -104 -55 -164h617q48 0 80 -32q33 -33 33 -76v-100h-1137v114q0 89 102 89q105 59 123 169h-127q-41 0 -69 36q-22 33 -22 75v69h218q5 -15 6 -15v1q0 21 -1 42l-8 63h-124q-41 0 -69 36q-22 33 -22 75v69h186q-14 83 -14 170q0 237 138 334
q149 145 397 145q180 0 450 -97v-73q0 -45 -33 -78q-35 -34 -90 -34q-215 67 -327 67q-139 0 -226 -87q-70 -57 -70 -201q0 -72 14 -146h493q42 0 70 -36q21 -32 21 -74v-70h-554l7 -61q1 -26 1 -30h455q42 0 70 -36q21 -32 21 -74v-70h-554z" />
    <glyph glyph-name="peseta" unicode="&#x20a7;" horiz-adv-x="2389" 
d="M291 773h210q320 0 320 256q0 104 -81 160q-71 48 -183 48h-5q-108 0 -179 -48q-82 -55 -82 -160v-256zM1011 848q-82 -283 -510 -283h-210v-585h-216v1049q0 201 151 318q135 105 328 105h4q195 -1 329 -106q147 -115 150 -290h28v163q0 44 32 75q33 33 81 33h113v-271
h304q48 0 80 -32q1 -1 2 -1q0 1 -7 11q66 34 188 34q224 0 401 -107v-93q0 -72 -72 -72q-19 0 -45 7q-159 58 -284 58q-75 0 -116 -38q-39 -34 -39 -85q0 -58 79 -83l197 -38q145 -26 215 -84q95 -78 95 -227v-9q-2 -133 -101 -226q-108 -102 -380 -133q-52 -6 -106 -6
q-220 0 -455 103q-182 102 -182 370v443h-54zM1491 848h-200v-443q0 -159 109 -208q157 -71 302 -71q78 0 153 22q205 57 205 149q0 69 -76 98q-25 9 -197 40q-144 27 -211 77q-102 77 -102 226q0 74 17 110z" />
    <glyph glyph-name="Euro" unicode="&#x20ac;" horiz-adv-x="1157" 
d="M374 458q9 -111 64 -190q79 -85 213 -85q137 0 319 67q51 0 81 -36q29 -32 29 -76v-72q-232 -98 -429 -98q-230 0 -368 147q-138 135 -148 343h-59q-39 0 -66 37q-21 32 -21 74v69h144v120h-57q-39 0 -66 37q-21 32 -21 74v69h145q5 224 149 367q138 147 368 147
q197 0 429 -98v-72q0 -44 -29 -76q-30 -36 -81 -36q-182 67 -319 67q-134 0 -213 -85q-62 -86 -67 -214h557q40 0 67 -37q20 -31 20 -73v-70h-645v-120h558q40 0 67 -37q20 -31 20 -73v-70h-641z" />
    <glyph glyph-name="uni2116" unicode="&#x2116;" horiz-adv-x="2302" 
d="M75 1328q0 45 34 79q33 33 83 33h206l627 -1171v1171h235v-1348q0 -45 -34 -79q-33 -33 -83 -33h-206l-627 1171v-1059q0 -45 -34 -79q-33 -33 -84 -33h-117v1348zM1869.8 986.96q-108.235 0 -152.453 -57.5977q-38.2783 -48.5986 -38.2783 -148.194t38.2783 -148.794
q44.2178 -57.5977 152.453 -57.5977q108.236 0 152.454 57.5977q37.6182 49.1982 37.6182 148.794t-37.6182 148.194q-44.2178 57.5977 -152.454 57.5977zM2209.03 781.168q0 -329.986 -339.227 -329.986q-339.886 0 -339.886 329.986t339.886 329.986
q339.227 0 339.227 -329.986zM1594.5 477q-20.5 0 -34.5 36q-11 33 -11 75v69h498q21 0 35 -36q10.5 -32 10.5 -74v-70h-498z" />
    <glyph glyph-name="trademark" unicode="&#x2122;" horiz-adv-x="1595" 
d="M113.403 829.251q-21.6006 0 -36.4512 13.2002q-14.4004 12.4014 -14.4004 30.002v40.0029h424.812q21.6006 0 36.001 -12.8008q14.8506 -13.2012 14.8506 -30.4023v-40.002h-184.955v-454.828q0 -17.2012 -14.8506 -30.4014q-14.4004 -12.8008 -36.001 -12.8008
h-54.9014v498.03h-134.104zM315.459 331.221v539.232q0 18.001 15.2998 31.6016q14.8506 13.2012 37.3516 13.2012h42.751q50.4014 -0.400391 69.752 -43.6025l190.354 -436.827l190.806 436.827q19.3506 43.2021 69.752 43.6025h42.751q22.501 0 37.3506 -13.2012
q15.3008 -13.6006 15.3008 -31.6016v-539.232h-52.6514q-22.9502 0 -37.8008 13.2002q-15.3008 13.6006 -15.3008 31.6025v394.424l-174.154 -399.225q-17.5508 -40.002 -61.2021 -40.002h-29.251q-43.6504 0 -61.2012 40.002l-174.155 399.225v-394.424
q0 -18.002 -15.2998 -31.6025q-14.8506 -13.2002 -37.8008 -13.2002h-52.6514z" />
    <glyph glyph-name="minus" unicode="&#x2212;" horiz-adv-x="1184" 
d="M166 604q-41 0 -69 36q-22 33 -22 75v69h918q42 0 70 -36q21 -32 21 -74v-70h-918z" />
    <glyph glyph-name="approxequal" unicode="&#x2248;" horiz-adv-x="1009" 
d="M337 586q-44 0 -94 -25q-24 -12 -51 -35l-5 -5q-23 -23 -58 -23q-24 0 -54 18v112q72 82 136.5 110.5t125.5 28.5q69 0 178 -44t157 -44q44 0 94 25q24 12 51 35l5 5q23 23 58 23q24 0 54 -18v-112q-72 -82 -136.5 -110.5t-125.5 -28.5q-63 0 -175 44t-160 44zM337 357
q-44 0 -94 -25q-24 -12 -51 -35l-5 -5q-23 -23 -58 -23q-24 0 -54 18v112q72 82 136.5 110.5t125.5 28.5q69 0 178 -44t157 -44q44 0 94 25q24 12 51 35l5 5q23 23 58 23q24 0 54 -18v-112q-72 -82 -136.5 -110.5t-125.5 -28.5q-63 0 -175 44t-160 44z" />
    <glyph glyph-name="lessequal" unicode="&#x2264;" horiz-adv-x="1170" 
d="M75 788l1003 505q17 -71 17 -107q0 -118 -111 -155l-590 -295l590 -296q111 -37 111 -155q0 -36 -17 -107l-1003 505v105zM167 -20q-41 0 -69 36q-22 33 -22 75v69h918q42 0 70 -36q21 -32 21 -74v-70h-918z" />
    <glyph glyph-name="greaterequal" unicode="&#x2265;" horiz-adv-x="1170" 
d="M1095 683l-1003 -505q-17 71 -17 107q0 118 111 155l590 295l-590 296q-111 37 -111 155q0 36 17 107l1003 -505v-105zM167 -20q-41 0 -69 36q-22 33 -22 75v69h918q42 0 70 -36q21 -32 21 -74v-70h-918z" />
    <glyph glyph-name="uniF001" unicode="&#xf001;" horiz-adv-x="1172" 
d="M943 1056q49 0 81 -34q32 -30 32 -74v-968h-113q-48 0 -81 33q-32 31 -32 75v760h-475v-760q0 -44 -32 -75q-33 -33 -81 -33h-113v868h-29q-49 0 -81 34q-32 30 -32 74v100h142q0 216 118 307q102 80 322 80q100 0 223 -28v-100q0 -88 -112 -88q-60 10 -111 10
q-117 0 -161 -32q-53 -38 -53 -149h588zM830 1325q0 43 33 76q32 32 80 32h113v-145q0 -43 -33 -76q-32 -32 -80 -32h-113v145z" />
    <glyph glyph-name="uniF001" unicode="&#xfb01;" horiz-adv-x="1172" 
d="M943 1056q49 0 81 -34q32 -30 32 -74v-968h-113q-48 0 -81 33q-32 31 -32 75v760h-475v-760q0 -44 -32 -75q-33 -33 -81 -33h-113v868h-29q-49 0 -81 34q-32 30 -32 74v100h142q0 216 118 307q102 80 322 80q100 0 223 -28v-100q0 -88 -112 -88q-60 10 -111 10
q-117 0 -161 -32q-53 -38 -53 -149h588zM830 1325q0 43 33 76q32 32 80 32h113v-145q0 -43 -33 -76q-32 -32 -80 -32h-113v145z" />
    <glyph glyph-name="uniF002" unicode="&#xf002;" horiz-adv-x="1239" 
d="M770 1229q-151 8 -201 8q-117 0 -161 -32q-53 -38 -53 -149h232q49 0 81 -34q32 -30 32 -74v-100h-345v-760q0 -44 -32 -75q-33 -33 -81 -33h-113v868h-29q-49 0 -81 34q-32 30 -32 74v100h142q0 216 118 307q102 80 322 80q96 0 332 -23q39 -7 67 -41q28 -31 28 -73
v-959q0 -148 30 -157q21 -7 50 -7q21 0 48 4q112 0 112 -89v-100q-99 -23 -180 -23q-25 0 -50 2q-114 8 -175 86.5t-61 283.5v882z" />
    <glyph glyph-name="uniF002" unicode="&#xfb02;" horiz-adv-x="1239" 
d="M770 1229q-151 8 -201 8q-117 0 -161 -32q-53 -38 -53 -149h232q49 0 81 -34q32 -30 32 -74v-100h-345v-760q0 -44 -32 -75q-33 -33 -81 -33h-113v868h-29q-49 0 -81 34q-32 30 -32 74v100h142q0 216 118 307q102 80 322 80q96 0 332 -23q39 -7 67 -41q28 -31 28 -73
v-959q0 -148 30 -157q21 -7 50 -7q21 0 48 4q112 0 112 -89v-100q-99 -23 -180 -23q-25 0 -50 2q-114 8 -175 86.5t-61 283.5v882z" />
    <glyph glyph-name="perthousand" unicode="&#x2030;" horiz-adv-x="2414" 
d="M712 927q0 -253.5 -318 -253.5q-319 0 -319 253.5v168.75q0 253.5 319 253.5q318 0 318 -253.5v-168.75zM557 1095.75q0 72.75 -33 108q-37 40.5 -130 40.5t-130 -40.5q-33 -35.25 -33 -108v-168.75q0 -73.5 33 -108q38 -41.25 130 -41.25t130 41.25q33 34.5 33 108
v168.75zM738 65q-9 -34 -30 -57q-28 -28 -73 -28h-77l281 1367q9 34 30 57q28 28 73 28h77zM1502 329.25q0 -253.5 -318 -253.5q-319 0 -319 253.5v168.75q0 253.5 319 253.5q318 0 318 -253.5v-168.75zM1347 498q0 72.75 -33 108q-37 40.5 -130 40.5t-130 -40.5
q-33 -35.25 -33 -108v-168.75q0 -73.5 33 -108q38 -41.25 130 -41.25t130 41.25q33 34.5 33 108v168.75zM2314 329.25q0 -253.5 -318 -253.5q-319 0 -319 253.5v168.75q0 253.5 319 253.5q318 0 318 -253.5v-168.75zM2159 498q0 72.75 -33 108q-37 40.5 -130 40.5
t-130 -40.5q-33 -35.25 -33 -108v-168.75q0 -73.5 33 -108q38 -41.25 130 -41.25t130 41.25q33 34.5 33 108v168.75z" />
    <glyph glyph-name="uni2031" unicode="&#x2031;" horiz-adv-x="3226" 
d="M712 927q0 -253.5 -318 -253.5q-319 0 -319 253.5v168.75q0 253.5 319 253.5q318 0 318 -253.5v-168.75zM557 1095.75q0 72.75 -33 108q-37 40.5 -130 40.5t-130 -40.5q-33 -35.25 -33 -108v-168.75q0 -73.5 33 -108q38 -41.25 130 -41.25t130 41.25q33 34.5 33 108
v168.75zM738 65q-9 -34 -30 -57q-28 -28 -73 -28h-77l281 1367q9 34 30 57q28 28 73 28h77zM1502 329.25q0 -253.5 -318 -253.5q-319 0 -319 253.5v168.75q0 253.5 319 253.5q318 0 318 -253.5v-168.75zM1347 498q0 72.75 -33 108q-37 40.5 -130 40.5t-130 -40.5
q-33 -35.25 -33 -108v-168.75q0 -73.5 33 -108q38 -41.25 130 -41.25t130 41.25q33 34.5 33 108v168.75zM2314 329.25q0 -253.5 -318 -253.5q-319 0 -319 253.5v168.75q0 253.5 319 253.5q318 0 318 -253.5v-168.75zM2159 498q0 72.75 -33 108q-37 40.5 -130 40.5
t-130 -40.5q-33 -35.25 -33 -108v-168.75q0 -73.5 33 -108q38 -41.25 130 -41.25t130 41.25q33 34.5 33 108v168.75zM3126 329.25q0 -253.5 -318 -253.5q-319 0 -319 253.5v168.75q0 253.5 319 253.5q318 0 318 -253.5v-168.75zM2971 498q0 72.75 -33 108
q-37 40.5 -130 40.5t-130 -40.5q-33 -35.25 -33 -108v-168.75q0 -73.5 33 -108q38 -41.25 130 -41.25t130 41.25q33 34.5 33 108v168.75z" />
    <glyph glyph-name="uni2070" unicode="&#x2070;" horiz-adv-x="812" 
d="M712 861q0 -338 -318 -338q-319 0 -319 338v225q0 338 319 338q318 0 318 -338v-225zM557 1086q0 97 -33 144q-37 54 -130 54t-130 -54q-33 -47 -33 -144v-225q0 -98 33 -144q38 -55 130 -55t130 55q33 46 33 144v225z" />
    <glyph glyph-name="uni2074" unicode="&#x2074;" horiz-adv-x="848" 
d="M641 877h28q34 0 57 -25q22 -20 22 -50v-68h-107v-204h-83q-34 0 -57 23q-20 22 -20 50v131h-326q-35 0 -57 22q-23 23 -23 53v66l305 476q43 66 114 66h69q33 0 57 -22q21 -21 21 -51v-467zM260 877h221v346z" />
    <glyph glyph-name="uni2075" unicode="&#x2075;" horiz-adv-x="803" 
d="M235 1098q71 32 159 32q164 0 237 -72q72 -71 72 -231q0 -302 -335 -304q-123 0 -293 61v49q0 30 23 53q22 22 61 22q143 -44 209 -44q175 1 175 163q0 96 -32 129q-28 29 -117 29t-159 -35v-26q0 -29 -20 -49q-23 -24 -58 -24h-82v493q0 30 22 52q21 21 56 21h550v-67
q0 -29 -21 -51q-25 -24 -58 -24h-389v-177z" />
    <glyph glyph-name="uni2076" unicode="&#x2076;" horiz-adv-x="804" 
d="M704 827q0 -304 -311 -304h-4q-162 0 -238 74t-76 230v299q1 156 86 228q79 70 243 70q110 0 280 -61v-49q0 -29 -21 -52q-24 -24 -64 -24q-129 41 -195 41q-92 0 -128 -31q-40 -35 -40 -127v-26q81 35 159 35q164 0 236 -72q73 -71 73 -231zM236 827q0 -91 33 -126
q33 -37 120 -37q88 0 121 37q33 35 33 126q0 96 -31 129q-29 29 -117 29q-77 0 -159 -38v-120z" />
    <glyph glyph-name="uni2077" unicode="&#x2077;" horiz-adv-x="806" 
d="M627 1417q35 0 59 -24q20 -22 20 -50v-65l-337 -748h-178l336 745h-372q-35 0 -57 22q-23 23 -23 53v67h552z" />
    <glyph glyph-name="uni2078" unicode="&#x2078;" horiz-adv-x="882" 
d="M677 993q105 -35 105 -204q0 -266 -354 -266q-353 0 -353 266q0 169 105 204q-69 33 -69 186q0 123 100 191q88 59 217 59q131 0 217 -59q101 -68 101 -191q0 -153 -69 -186zM589 700q32 27 32 89q0 63 -32 89q-43 37 -161 37q-117 0 -160 -37q-32 -26 -32 -89
q0 -62 32 -89q43 -36 160 -36q118 0 161 36zM559 1095q26 25 26 84q0 55 -47 82q-41 25 -109 26q-68 0 -110 -25q-47 -28 -47 -83q0 -59 27 -84q34 -35 129 -39q96 4 131 39z" />
    <glyph glyph-name="uni2079" unicode="&#x2079;" horiz-adv-x="804" 
d="M75 1119q0 305 312 305h2q163 -1 239 -75t76 -230v-299q-1 -156 -85 -228q-81 -69 -244 -69q-110 0 -280 61v48q0 31 23 54q22 22 63 22q128 -40 194 -40q92 0 128 31q40 34 40 126v26q-81 -35 -159 -35q-163 0 -236 71q-73 72 -73 232zM543 1119q0 92 -33 127
q-33 36 -121 37q-87 -1 -120 -37q-33 -35 -33 -127q0 -96 32 -129q28 -29 116 -29q77 0 159 38v120z" />
    <glyph glyph-name="uni207A" unicode="&#x207a;" horiz-adv-x="800" 
d="M321 904h-181q-31 0 -51 26q-14 22 -14 49v49h246v187q0 26 25 44q24 15 54 15h55v-246h181q31 0 51 -25q13 -21 13 -49v-50h-245v-185q0 -25 -24 -44q-24 -16 -56 -16h-54v245z" />
    <glyph glyph-name="uni207B" unicode="&#x207b;" horiz-adv-x="800" 
d="M140 904q-31 0 -51 26q-14 22 -14 49v49h561q31 0 51 -25q13 -21 13 -49v-50h-560z" />
    <glyph glyph-name="uni207C" unicode="&#x207c;" horiz-adv-x="800" 
d="M140 1002q-31 0 -51 26q-14 22 -14 49v49h561q31 0 51 -26q13 -22 13 -48v-50h-560zM140 795q-31 0 -51 25q-14 22 -14 49v50h561q31 0 51 -27q13 -20 13 -47v-50h-560z" />
    <glyph glyph-name="uni207D" unicode="&#x207d;" horiz-adv-x="529" 
d="M75 1073q0 214 90 338q88 123 264 127v-117q-99 -17 -147 -84q-56 -76 -56 -264v-310q0 -188 56 -264q48 -67 147 -84v-116q-175 4 -264 126q-90 124 -90 338v310z" />
    <glyph glyph-name="uni207E" unicode="&#x207e;" horiz-adv-x="529" 
d="M429 763q0 -214 -90 -338q-90 -122 -264 -126v116q98 17 147 84q55 76 55 264v310q0 188 -55 264q-49 67 -147 84v117q174 -4 264 -127q90 -124 90 -338v-310z" />
    <glyph glyph-name="uni207F" unicode="&#x207f;" horiz-adv-x="760" 
d="M660 530h-78q-33 0 -56 23q-22 21 -22 50v354q0 102 -105 102q-129 0 -168 -110v-346q0 -29 -22 -49q-22 -24 -56 -24h-78v662h78q34 0 56 -24q22 -20 22 -49v51q14 29 184 29q245 0 245 -228v-441z" />
    <glyph glyph-name="uni2080" unicode="&#x2080;" horiz-adv-x="812" 
d="M712 -112q0 -338 -318 -338q-319 0 -319 338v224q0 338 319 338q318 0 318 -338v-224zM557 112q0 98 -33 145q-37 53 -130 53t-130 -53q-33 -47 -33 -145v-224q0 -98 33 -145q37 -54 130 -54t130 54q33 47 33 145v224z" />
    <glyph glyph-name="uni2081" unicode="&#x2081;" horiz-adv-x="778" 
d="M457 -303h143q34 0 55 -21q23 -23 23 -52v-68h-525q-32 0 -56 22q-22 22 -22 51v68h221v566l-82 -105h-37q-41 0 -63 33q-12 17 -12 33q0 14 9 29l85 124q42 67 113 67h70q33 0 57 -23q21 -22 21 -50v-674z" />
    <glyph glyph-name="uni2082" unicode="&#x2082;" horiz-adv-x="778" 
d="M153 -449q-32 0 -54 20q-24 23 -24 53v24q0 98 74 176q45 48 156 119q109 68 146 106q63 63 63 139q0 59 -45 89q-42 27 -111 27q-58 0 -186 -40q-39 0 -64 23q-22 22 -22 53v49q170 60 272 60q130 0 218 -63q99 -72 99 -198q0 -178 -213 -317q-130 -84 -144 -95
q-65 -52 -70 -85l352 1q34 0 57 -24q21 -21 21 -49v-68h-525z" />
    <glyph glyph-name="uni2083" unicode="&#x2083;" horiz-adv-x="809" 
d="M356 453q132 0 220 -65q97 -72 97 -196q0 -141 -72 -174q108 -33 108 -201q0 -270 -354 -270q-110 0 -280 61v49q0 30 23 52q23 23 63 23q142 -44 194 -44q117 0 161 37q32 29 32 92q0 61 -32 87q-42 35 -161 35h-126v141h125q99 5 132 34q26 22 26 78q0 59 -46 89
q-41 27 -111 27q-40 0 -168 -40q-39 0 -64 23q-22 22 -22 52v49q170 61 254 61h1z" />
    <glyph glyph-name="uni2084" unicode="&#x2084;" horiz-adv-x="848" 
d="M641 -97h28q34 0 56 -22q23 -23 23 -53v-68h-107v-204h-83q-34 0 -57 23q-20 22 -20 50v131h-326q-35 0 -59 25q-21 21 -21 50v66l305 476q43 67 114 67h69q33 0 57 -23q21 -22 21 -50v-468zM260 -97h221v346z" />
    <glyph glyph-name="uni2085" unicode="&#x2085;" horiz-adv-x="803" 
d="M235 128q71 32 159 32q164 0 237 -72q72 -71 72 -231q0 -302 -335 -304q-123 0 -293 61v49q0 30 23 53q22 22 61 22q143 -44 209 -44q175 1 175 163q0 96 -32 129q-28 29 -117 29t-159 -35v-26q0 -29 -20 -49q-23 -24 -58 -24h-82v493q0 30 22 52q21 21 56 21h550v-67
q0 -29 -21 -51q-25 -24 -58 -24h-389v-177z" />
    <glyph glyph-name="uni2086" unicode="&#x2086;" horiz-adv-x="804" 
d="M704 -146q0 -304 -311 -304h-4q-162 0 -238 74t-76 230v299q1 155 86 227q79 70 243 70q110 0 280 -61v-49q0 -28 -21 -51q-24 -24 -64 -24q-129 40 -195 40q-92 0 -128 -30q-40 -36 -40 -128v-25q81 35 159 35q164 0 236 -72q73 -71 73 -231zM236 -146q0 -91 33 -127
t120 -37q88 1 121 37t33 127q0 96 -31 128q-29 29 -117 29q-77 0 -159 -37v-120z" />
    <glyph glyph-name="uni2087" unicode="&#x2087;" horiz-adv-x="806" 
d="M627 444q35 0 59 -25q20 -20 20 -50v-64l-337 -749h-178l336 745h-372q-35 0 -57 22q-23 23 -23 53v68h552z" />
    <glyph glyph-name="uni2088" unicode="&#x2088;" horiz-adv-x="882" 
d="M678 18q104 -35 104 -205q0 -266 -354 -266q-353 0 -353 266q0 170 104 205q-68 32 -68 186q0 122 100 190q88 59 217 59q131 0 217 -59q101 -68 101 -190q0 -154 -68 -186zM589 -276q32 27 32 89q0 63 -32 89q-43 37 -161 37q-117 0 -160 -37q-32 -26 -32 -89
q0 -62 32 -89q43 -36 160 -36q118 0 161 36zM559 118q26 27 26 86q0 54 -47 81q-41 25 -109 26q-68 0 -110 -25q-47 -28 -47 -82q0 -59 27 -86q34 -34 129 -38q96 4 131 38z" />
    <glyph glyph-name="uni2089" unicode="&#x2089;" horiz-adv-x="804" 
d="M75 145q0 305 312 305h2q163 -1 239 -74q76 -74 76 -231v-298q-1 -156 -85 -228q-81 -69 -244 -69q-110 0 -280 61v48q0 29 21 52q24 24 65 24q128 -40 194 -40q92 0 128 31q40 34 40 126v26q-81 -35 -159 -35q-163 0 -236 71q-73 72 -73 231zM543 145q0 92 -33 128
q-33 35 -121 37q-87 -2 -120 -37q-33 -36 -33 -128q0 -95 32 -128q28 -29 116 -29q77 0 159 37v120z" />
    <glyph glyph-name="uni208A" unicode="&#x208a;" horiz-adv-x="800" 
d="M321 -62h-181q-31 0 -51 25q-14 22 -14 49v50h246v186q0 26 24 44q24 16 55 16h55v-246h181q31 0 51 -27q13 -20 13 -47v-50h-245v-186q0 -24 -26 -44q-21 -16 -54 -16h-54v246z" />
    <glyph glyph-name="uni208B" unicode="&#x208b;" horiz-adv-x="800" 
d="M140 -62q-31 0 -51 26q-14 21 -14 49v49h561q31 0 51 -27q13 -20 13 -47v-50h-560z" />
    <glyph glyph-name="uni208C" unicode="&#x208c;" horiz-adv-x="800" 
d="M140 42q-31 0 -51 25q-14 22 -14 49v50h561q31 0 51 -27q13 -22 13 -48v-49h-560zM140 -166q-31 0 -51 26q-14 22 -14 49v49h561q31 0 51 -26q13 -22 13 -48v-50h-560z" />
    <glyph glyph-name="uni208D" unicode="&#x208d;" horiz-adv-x="529" 
d="M75 340q0 214 90 338q89 122 264 126v-116q-99 -17 -147 -84q-56 -76 -56 -264v-310q0 -189 56 -265q48 -67 147 -84v-116q-175 4 -264 126q-90 125 -90 339v310z" />
    <glyph glyph-name="uni208E" unicode="&#x208e;" horiz-adv-x="529" 
d="M429 30q0 -214 -90 -339q-90 -122 -264 -126v116q98 17 147 84q55 76 55 265v310q0 188 -55 264q-49 67 -147 84v116q174 -4 264 -126q90 -124 90 -338v-310z" />
    <glyph glyph-name="uni0237" unicode="&#x237;" horiz-adv-x="460" 
d="M320 -22q0 -194 -94 -288q-83 -83 -262 -97q-47 0 -79 32q-30 30 -30 71v100q142 0 186 32q53 38 53 150v970q0 44 32 75q33 33 81 33h113v-1078z" />
    <glyph glyph-name="uni02BB" unicode="&#x2bb;" horiz-adv-x="439" 
d="M339 1585q-84 -136 -84 -353q0 -33 -25 -56q-27 -25 -65 -25h-90v41q0 187 130 359q25 34 56 34h78z" />
    <glyph glyph-name="uni02BC" unicode="&#x2bc;" horiz-adv-x="424" 
d="M60 1151q84 136 84 353q0 33 25 56q27 25 65 25h90v-41q0 -187 -130 -359q-25 -34 -56 -34h-78z" />
    <glyph glyph-name="uni02CA" unicode="&#x2ca;" horiz-adv-x="650" 
d="M141 1079l-73 85l302 265q36 17 66 17q90 0 114 -155z" />
    <glyph glyph-name="uni02CB" unicode="&#x2cb;" horiz-adv-x="655" 
d="M73 1291q24 155 114 155q30 0 66 -17l302 -265l-73 -85z" />
    <glyph glyph-name="uni02CD" unicode="&#x2cd;" horiz-adv-x="1121" 
d="M166 -343q-41 0 -69 36q-22 33 -22 75v69h855q42 0 70 -36q21 -32 21 -74v-70h-855z" />
    <glyph glyph-name="uni02F7" unicode="&#x2f7;" horiz-adv-x="844" 
d="M744 -252q-104 -126 -216 -126q-66 0 -134 42q-75 47 -138 47q-59 0 -141 -70l-42 116q98 115 205 115q67 0 138 -42q71 -44 132 -44q66 0 153 79z" />
    <glyph glyph-name="gravecomb" unicode="&#x300;" horiz-adv-x="32" 
d="M-727 1291q24 155 114 155q30 0 66 -17l302 -265l-73 -85z" />
    <glyph glyph-name="acutecomb" unicode="&#x301;" horiz-adv-x="27" 
d="M-629 1079l-73 85l302 265q36 17 66 17q90 0 114 -155z" />
    <glyph glyph-name="uni0302" unicode="&#x302;" horiz-adv-x="32" 
d="M-467 1225l-281 -146l-74 85q145 125 307 269h95l307 -269l-73 -85z" />
    <glyph glyph-name="tildecomb" unicode="&#x303;" horiz-adv-x="27" 
d="M-116 1240q-104 -125 -216 -125q-66 0 -134 42q-75 46 -138 46q-59 0 -141 -69l-42 116q98 115 205 115q67 0 138 -43t132 -43q66 0 153 78z" />
    <glyph glyph-name="uni0304" unicode="&#x304;" horiz-adv-x="25" 
d="M-674 1110q-41 0 -69 36q-22 33 -22 75v69h561q42 0 70 -36q21 -32 21 -74v-70h-561z" />
    <glyph glyph-name="uni0305" unicode="&#x305;" horiz-adv-x="25" 
d="M1303 1533q-41 0 -69 36q-22 33 -22 75v69h996q42 0 70 -36q21 -32 21 -74v-70h-996z" />
    <glyph glyph-name="uni0306" unicode="&#x306;" horiz-adv-x="28" 
d="M-165 1450l78 -90q-115 -274 -354 -274q-240 0 -346 274l78 90q149 -204 272 -204t272 204z" />
    <glyph glyph-name="uni0307" unicode="&#x307;" horiz-adv-x="25" 
d="M-635 1229q0 43 35 76q32 32 83 32h117v-145q0 -43 -35 -76q-32 -32 -82 -32h-118v145z" />
    <glyph glyph-name="uni0308" unicode="&#x308;" horiz-adv-x="25" 
d="M-795 1229q0 43 35 76q32 32 83 32h117v-145q0 -43 -35 -76q-32 -32 -82 -32h-118v145zM-227 1084h-118q-50 0 -82 32q-35 33 -35 76v145h117q51 0 83 -32q35 -33 35 -76v-145z" />
    <glyph glyph-name="uni0310" unicode="&#x310;" horiz-adv-x="28" 
d="M-472 1450l78 -90q-115 -274 -354 -274q-240 0 -346 274l78 90q149 -204 272 -204t272 204zM-862 1538q0 43 35 76q32 32 83 32h117v-145q0 -43 -35 -76q-32 -32 -82 -32h-118v145z" />
    <glyph glyph-name="uni0315" unicode="&#x315;" horiz-adv-x="424" 
d="M10 998q84 137 84 353q0 33 27 59q25 23 63 23h90v-42q0 -186 -129 -358q-26 -35 -57 -35h-78z" />
    <glyph glyph-name="dotbelowcomb" unicode="&#x323;" horiz-adv-x="25" 
d="M-585 -237q0 38 29 65q30 30 74 30h104v-126q0 -38 -31 -67q-29 -28 -73 -28h-103v126z" />
    <glyph glyph-name="uni0324" unicode="&#x324;" horiz-adv-x="25" 
d="M-725 -234q0 43 35 76q32 32 83 32h117v-145q0 -43 -35 -76q-32 -32 -82 -32h-118v145zM-157 -379h-118q-50 0 -82 32q-35 33 -35 76v145h117q51 0 83 -32q35 -33 35 -76v-145z" />
    <glyph glyph-name="uni0325" unicode="&#x325;" horiz-adv-x="25" 
d="M-274 -97q59 -59 59 -141q0 -81 -59 -140.5t-146 -59.5t-146 59.5t-59 140.5q0 82 59 141t146 59t146 -59zM-420 -174q-23 0 -40.5 -18t-17.5 -46q0 -27 17.5 -45t40.5 -18t41 18t18 45q0 28 -18 46t-41 18z" />
    <glyph glyph-name="uni0326" unicode="&#x326;" horiz-adv-x="25" 
d="M-576 -438q100 123 100 306q0 31 31 52q28 20 68 20h99v-38q0 -163 -150 -311q-28 -29 -59 -29h-89z" />
    <glyph glyph-name="Amacron" unicode="&#x100;" horiz-adv-x="1243" 
d="M592 1230l-210 -721h442l-210 721h-22zM322 301l-57 -196q-32 -125 -161 -125h-122l389 1339q32 124 161 124h142q129 0 161 -125l389 -1338h-122q-129 0 -162 126l-57 195h-561zM368 1487q-41 0 -69 36q-22 33 -22 75v69h561q42 0 70 -36q21 -32 21 -74v-70h-561z" />
    <glyph glyph-name="amacron" unicode="&#x101;" horiz-adv-x="1169" 
d="M846 518q0 166 -57 247q-67 97 -231 97t-231 -97q-58 -81 -58 -247q0 -168 54 -248q65 -96 227 -96q228 0 296 195v149zM523 -32q-480 0 -480 550t515 550q514 0 514 -550v-538h-113q-48 0 -81 33q-32 31 -32 75q-90 -120 -323 -120zM323 1110q-41 0 -69 36
q-22 33 -22 75v69h561q42 0 70 -36q21 -32 21 -74v-70h-561z" />
    <glyph glyph-name="Abreve" unicode="&#x102;" horiz-adv-x="1243" 
d="M592 1230l-210 -721h442l-210 721h-22zM322 301l-57 -196q-32 -125 -161 -125h-122l389 1339q32 124 161 124h142q129 0 161 -125l389 -1338h-122q-129 0 -162 126l-57 195h-561zM876 1827l78 -90q-115 -274 -354 -274q-240 0 -346 274l78 90q149 -204 272 -204t272 204z
" />
    <glyph glyph-name="abreve" unicode="&#x103;" horiz-adv-x="1169" 
d="M846 518q0 166 -57 247q-67 97 -231 97t-231 -97q-58 -81 -58 -247q0 -168 54 -248q65 -96 227 -96q228 0 296 195v149zM523 -32q-480 0 -480 550t515 550q514 0 514 -550v-538h-113q-48 0 -81 33q-32 31 -32 75q-90 -120 -323 -120zM830 1450l78 -90
q-115 -274 -354 -274q-240 0 -346 274l78 90q149 -204 272 -204t272 204z" />
    <glyph glyph-name="Aogonek" unicode="&#x104;" horiz-adv-x="1243" 
d="M592 1230l-210 -721h442l-210 721h-22zM322 301l-57 -196q-32 -125 -161 -125h-122l389 1339q32 124 161 124h142q129 0 161 -125l389 -1338h-122q-129 0 -162 126l-57 195h-561zM1250 20q-197 -171 -197 -245q0 -23 14 -37q11 -6 33 -6q50 0 137 42q18 5 30 5
q51 0 51 -48v-57q-137 -85 -238 -85q-48 0 -92 19q-97 57 -97 139q0 112 201 273h158z" />
    <glyph glyph-name="aogonek" unicode="&#x105;" horiz-adv-x="1169" 
d="M846 518q0 166 -57 247q-67 97 -231 97t-231 -97q-58 -81 -58 -247q0 -168 54 -248q65 -96 227 -96q228 0 296 195v149zM523 -32q-480 0 -480 550t515 550q514 0 514 -550v-538h-113q-48 0 -81 33q-32 31 -32 75q-90 -120 -323 -120zM1104 20q-197 -171 -197 -245
q0 -23 14 -37q11 -6 33 -6q50 0 137 42q18 5 30 5q51 0 51 -48v-57q-137 -85 -238 -85q-48 0 -92 19q-97 57 -97 139q0 112 201 273h158z" />
    <glyph glyph-name="Cacute" unicode="&#x106;" horiz-adv-x="1145" 
d="M11 897q0 259 165 409q161 146 428 146q230 0 500 -97v-73q0 -45 -34 -78q-34 -34 -89 -34q-215 67 -377 67q-160 0 -256 -87q-102 -92 -102 -253v-374q0 -162 102 -253q96 -87 256 -87q162 0 377 67q55 0 89 -34q34 -33 34 -78v-73q-270 -97 -500 -97q-267 0 -428 146
q-165 149 -165 409v374zM458 1456l-73 85l302 265q36 17 66 17q90 0 114 -155z" />
    <glyph glyph-name="cacute" unicode="&#x107;" horiz-adv-x="1001" 
d="M984 74q-177 -106 -426 -106q-515 0 -515 550t515 550q249 0 426 -106v-94q0 -71 -72 -71q-20 0 -45 6q-158 59 -309 59q-164 0 -231 -97q-58 -81 -58 -247t58 -247q67 -97 231 -97q151 0 309 59q25 6 45 6q72 0 72 -71v-94zM414 1079l-73 85l302 265q36 17 66 17
q90 0 114 -155z" />
    <glyph glyph-name="Ccircumflex" unicode="&#x108;" horiz-adv-x="1145" 
d="M11 897q0 259 165 409q161 146 428 146q230 0 500 -97v-73q0 -45 -34 -78q-34 -34 -89 -34q-215 67 -377 67q-160 0 -256 -87q-102 -92 -102 -253v-374q0 -162 102 -253q96 -87 256 -87q162 0 377 67q55 0 89 -34q34 -33 34 -78v-73q-270 -97 -500 -97q-267 0 -428 146
q-165 149 -165 409v374zM558 1602l-281 -146l-74 85q145 125 307 269h95l307 -269l-73 -85z" />
    <glyph glyph-name="ccircumflex" unicode="&#x109;" horiz-adv-x="1001" 
d="M984 74q-177 -106 -426 -106q-515 0 -515 550t515 550q249 0 426 -106v-94q0 -71 -72 -71q-20 0 -45 6q-158 59 -309 59q-164 0 -231 -97q-58 -81 -58 -247t58 -247q67 -97 231 -97q151 0 309 59q25 6 45 6q72 0 72 -71v-94zM514 1225l-281 -146l-74 85q145 125 307 269
h95l307 -269l-73 -85z" />
    <glyph glyph-name="Cdotaccent" unicode="&#x10a;" horiz-adv-x="1145" 
d="M11 897q0 259 165 409q161 146 428 146q230 0 500 -97v-73q0 -45 -34 -78q-34 -34 -89 -34q-215 67 -377 67q-160 0 -256 -87q-102 -92 -102 -253v-374q0 -162 102 -253q96 -87 256 -87q162 0 377 67q55 0 89 -34q34 -33 34 -78v-73q-270 -97 -500 -97q-267 0 -428 146
q-165 149 -165 409v374zM440 1606q0 43 35 76q32 32 83 32h117v-145q0 -43 -35 -76q-32 -32 -82 -32h-118v145z" />
    <glyph glyph-name="cdotaccent" unicode="&#x10b;" horiz-adv-x="1001" 
d="M984 74q-177 -106 -426 -106q-515 0 -515 550t515 550q249 0 426 -106v-94q0 -71 -72 -71q-20 0 -45 6q-158 59 -309 59q-164 0 -231 -97q-58 -81 -58 -247t58 -247q67 -97 231 -97q151 0 309 59q25 6 45 6q72 0 72 -71v-94zM396 1229q0 43 35 76q32 32 83 32h117v-145
q0 -43 -35 -76q-32 -32 -82 -32h-118v145z" />
    <glyph glyph-name="Ccaron" unicode="&#x10c;" horiz-adv-x="1145" 
d="M11 897q0 259 165 409q161 146 428 146q230 0 500 -97v-73q0 -45 -34 -78q-34 -34 -89 -34q-215 67 -377 67q-160 0 -256 -87q-102 -92 -102 -253v-374q0 -162 102 -253q96 -87 256 -87q162 0 377 67q55 0 89 -34q34 -33 34 -78v-73q-270 -97 -500 -97q-267 0 -428 146
q-165 149 -165 409v374zM839 1817l73 -85l-307 -269h-95q-162 144 -307 269l74 85l281 -146z" />
    <glyph glyph-name="ccaron" unicode="&#x10d;" horiz-adv-x="1001" 
d="M984 74q-177 -106 -426 -106q-515 0 -515 550t515 550q249 0 426 -106v-94q0 -71 -72 -71q-20 0 -45 6q-158 59 -309 59q-164 0 -231 -97q-58 -81 -58 -247t58 -247q67 -97 231 -97q151 0 309 59q25 6 45 6q72 0 72 -71v-94zM795 1440l73 -85l-307 -269h-95
q-162 144 -307 269l74 85l281 -146z" />
    <glyph glyph-name="Dcaron" unicode="&#x10e;" horiz-adv-x="1356" 
d="M1230 535q0 -260 -165 -409q-161 -146 -427 -146h-593v917q0 259 165 409q161 146 428 146q266 0 427 -146q165 -150 165 -409v-362zM638 188q159 0 255 87q102 91 102 252v370q0 161 -102 253q-96 87 -255 87q-160 0 -256 -87q-102 -92 -102 -253v-709h358zM919 1817
l73 -85l-307 -269h-95q-162 144 -307 269l74 85l281 -146z" />
    <glyph glyph-name="dcaron" unicode="&#x10f;" horiz-adv-x="1579" 
d="M846 811q-140 51 -288 51q-159 0 -228 -91q-61 -81 -61 -253q0 -173 58 -253q65 -91 223 -91q227 0 296 195v442zM523 -32q-480 0 -480 550t515 550q175 0 288 -43v300q0 43 33 76q32 32 80 32h113v-1453h-113q-48 0 -81 33q-32 31 -32 75q-80 -120 -323 -120zM1190 998
q84 137 84 353q0 33 27 59q25 23 63 23h90v-42q0 -186 -129 -358q-26 -35 -57 -35h-78z" />
    <glyph glyph-name="Dcroat" unicode="&#x110;" horiz-adv-x="1401" 
d="M325 626v-438h358q159 0 255 87q102 91 102 252v370q0 161 -102 253q-96 87 -255 87q-160 0 -256 -87q-102 -92 -102 -253v-91h201q42 0 70 -36q21 -32 21 -74v-70h-292zM90 806v91q0 259 165 409q161 146 428 146q266 0 427 -146q165 -150 165 -409v-362
q0 -260 -165 -409q-161 -146 -427 -146h-593v646h-59q-41 0 -69 36q-22 33 -22 75v69h150z" />
    <glyph glyph-name="dcroat" unicode="&#x111;" horiz-adv-x="1180" 
d="M904 811q-140 51 -288 51q-159 0 -228 -91q-61 -81 -61 -253q0 -173 58 -253q65 -91 223 -91q227 0 296 195v442zM581 -32q-480 0 -480 550t515 550q175 0 288 -43v300q0 43 33 76q32 32 80 32h113v-1453h-113q-48 0 -81 33q-32 31 -32 75q-80 -120 -323 -120zM291 1083
q-41 0 -69 36q-22 33 -22 75v69h996q42 0 70 -36q21 -32 21 -74v-70h-996z" />
    <glyph glyph-name="Emacron" unicode="&#x112;" horiz-adv-x="1133" 
d="M0 897q0 259 165 409q161 146 427 146q231 0 501 -97v-73q0 -45 -34 -78q-34 -34 -89 -34q-214 67 -378 67q-159 0 -255 -87q-102 -92 -102 -253v-68h652q49 0 80 -31q33 -33 33 -77v-99h-765v-99q0 -162 102 -253q96 -87 255 -87q164 0 378 67q55 0 89 -34
q34 -33 34 -78v-73q-270 -97 -501 -97q-266 0 -427 146q-165 149 -165 409v374zM312 1487q-41 0 -69 36q-22 33 -22 75v69h561q42 0 70 -36q21 -32 21 -74v-70h-561z" />
    <glyph glyph-name="emacron" unicode="&#x113;" horiz-adv-x="1065" 
d="M761 626q-9 111 -47 165q-51 71 -185 71q-137 0 -196 -71q-49 -59 -57 -165h485zM44 518q0 550 485 550q264 0 376 -166q88 -129 88 -383q0 -101 -113 -101h-605q6 -244 284 -244q151 0 309 59q25 6 45 6q72 0 72 -71v-94q-177 -106 -426 -106q-515 0 -515 550zM284 1110
q-41 0 -69 36q-22 33 -22 75v69h561q42 0 70 -36q21 -32 21 -74v-70h-561z" />
    <glyph glyph-name="Ebreve" unicode="&#x114;" horiz-adv-x="1133" 
d="M0 897q0 259 165 409q161 146 427 146q231 0 501 -97v-73q0 -45 -34 -78q-34 -34 -89 -34q-214 67 -378 67q-159 0 -255 -87q-102 -92 -102 -253v-68h652q49 0 80 -31q33 -33 33 -77v-99h-765v-99q0 -162 102 -253q96 -87 255 -87q164 0 378 67q55 0 89 -34
q34 -33 34 -78v-73q-270 -97 -501 -97q-266 0 -427 146q-165 149 -165 409v374zM819 1827l78 -90q-115 -274 -354 -274q-240 0 -346 274l78 90q149 -204 272 -204t272 204z" />
    <glyph glyph-name="ebreve" unicode="&#x115;" horiz-adv-x="1065" 
d="M761 626q-9 111 -47 165q-51 71 -185 71q-137 0 -196 -71q-49 -59 -57 -165h485zM44 518q0 550 485 550q264 0 376 -166q88 -129 88 -383q0 -101 -113 -101h-605q6 -244 284 -244q151 0 309 59q25 6 45 6q72 0 72 -71v-94q-177 -106 -426 -106q-515 0 -515 550zM791 1450
l78 -90q-115 -274 -354 -274q-240 0 -346 274l78 90q149 -204 272 -204t272 204z" />
    <glyph glyph-name="Edotaccent" unicode="&#x116;" horiz-adv-x="1133" 
d="M0 897q0 259 165 409q161 146 427 146q231 0 501 -97v-73q0 -45 -34 -78q-34 -34 -89 -34q-214 67 -378 67q-159 0 -255 -87q-102 -92 -102 -253v-68h652q49 0 80 -31q33 -33 33 -77v-99h-765v-99q0 -162 102 -253q96 -87 255 -87q164 0 378 67q55 0 89 -34
q34 -33 34 -78v-73q-270 -97 -501 -97q-266 0 -427 146q-165 149 -165 409v374zM429 1606q0 43 35 76q32 32 83 32h117v-145q0 -43 -35 -76q-32 -32 -82 -32h-118v145z" />
    <glyph glyph-name="edotaccent" unicode="&#x117;" horiz-adv-x="1065" 
d="M761 626q-9 111 -47 165q-51 71 -185 71q-137 0 -196 -71q-49 -59 -57 -165h485zM44 518q0 550 485 550q264 0 376 -166q88 -129 88 -383q0 -101 -113 -101h-605q6 -244 284 -244q151 0 309 59q25 6 45 6q72 0 72 -71v-94q-177 -106 -426 -106q-515 0 -515 550zM401 1229
q0 43 35 76q32 32 83 32h117v-145q0 -43 -35 -76q-32 -32 -82 -32h-118v145z" />
    <glyph glyph-name="Eogonek" unicode="&#x118;" horiz-adv-x="1133" 
d="M0 897q0 259 165 409q161 146 427 146q231 0 501 -97v-73q0 -45 -34 -78q-34 -34 -89 -34q-214 67 -378 67q-159 0 -255 -87q-102 -92 -102 -253v-68h652q49 0 80 -31q33 -33 33 -77v-99h-765v-99q0 -162 102 -253q96 -87 255 -87q164 0 378 67q55 0 89 -34
q34 -33 34 -78v-73q-270 -97 -501 -97q-266 0 -427 146q-165 149 -165 409v374zM1077 82q-197 -171 -197 -245q0 -23 14 -37q11 -6 33 -6q50 0 137 42q18 5 30 5q51 0 51 -48v-57q-137 -85 -238 -85q-48 0 -92 19q-97 57 -97 139q0 112 201 273h158z" />
    <glyph glyph-name="eogonek" unicode="&#x119;" horiz-adv-x="1065" 
d="M761 626q-9 111 -47 165q-51 71 -185 71q-137 0 -196 -71q-49 -59 -57 -165h485zM44 518q0 550 485 550q264 0 376 -166q88 -129 88 -383q0 -101 -113 -101h-605q6 -244 284 -244q151 0 309 59q25 6 45 6q72 0 72 -71v-94q-177 -106 -426 -106q-515 0 -515 550zM956 73
q-197 -171 -197 -245q0 -23 14 -37q11 -6 33 -6q50 0 137 42q18 5 30 5q51 0 51 -48v-57q-137 -85 -238 -85q-48 0 -92 19q-97 57 -97 139q0 112 201 273h158z" />
    <glyph glyph-name="Ecaron" unicode="&#x11a;" horiz-adv-x="1133" 
d="M0 897q0 259 165 409q161 146 427 146q231 0 501 -97v-73q0 -45 -34 -78q-34 -34 -89 -34q-214 67 -378 67q-159 0 -255 -87q-102 -92 -102 -253v-68h652q49 0 80 -31q33 -33 33 -77v-99h-765v-99q0 -162 102 -253q96 -87 255 -87q164 0 378 67q55 0 89 -34
q34 -33 34 -78v-73q-270 -97 -501 -97q-266 0 -427 146q-165 149 -165 409v374zM828 1817l73 -85l-307 -269h-95q-162 144 -307 269l74 85l281 -146z" />
    <glyph glyph-name="ecaron" unicode="&#x11b;" horiz-adv-x="1065" 
d="M761 626q-9 111 -47 165q-51 71 -185 71q-137 0 -196 -71q-49 -59 -57 -165h485zM44 518q0 550 485 550q264 0 376 -166q88 -129 88 -383q0 -101 -113 -101h-605q6 -244 284 -244q151 0 309 59q25 6 45 6q72 0 72 -71v-94q-177 -106 -426 -106q-515 0 -515 550zM800 1440
l73 -85l-307 -269h-95q-162 144 -307 269l74 85l281 -146z" />
    <glyph glyph-name="Gcircumflex" unicode="&#x11c;" horiz-adv-x="1266" 
d="M1155 -20h-121q-49 0 -83 34q-30 31 -30 74v28q-110 -148 -387 -148q-261 0 -399 147q-133 143 -133 408v374q0 259 165 409q161 146 427 146q231 0 501 -97v-73q0 -45 -34 -78q-34 -34 -89 -34q-214 67 -378 67q-159 0 -255 -87q-102 -92 -102 -253v-374
q0 -340 297 -340q215 0 387 188v251q0 43 30 74q34 34 83 34h121v-750zM579 1602l-281 -146l-74 85q145 125 307 269h95l307 -269l-73 -85z" />
    <glyph glyph-name="gcircumflex" unicode="&#x11d;" 
d="M846 518q0 166 -57 247q-67 97 -231 97t-231 -97q-58 -81 -58 -247q0 -168 54 -248q65 -96 227 -96q227 0 296 195v149zM523 -32q-480 0 -480 550t515 550q514 0 514 -550v-375q0 -550 -514 -550q-250 0 -427 107v93q0 72 72 72q19 0 45 -7q158 -59 310 -59q164 0 231 97
q57 81 57 247q-100 -175 -323 -175zM558 1225l-281 -146l-74 85q145 125 307 269h95l307 -269l-73 -85z" />
    <glyph glyph-name="Gbreve" unicode="&#x11e;" horiz-adv-x="1266" 
d="M1155 -20h-121q-49 0 -83 34q-30 31 -30 74v28q-110 -148 -387 -148q-261 0 -399 147q-133 143 -133 408v374q0 259 165 409q161 146 427 146q231 0 501 -97v-73q0 -45 -34 -78q-34 -34 -89 -34q-214 67 -378 67q-159 0 -255 -87q-102 -92 -102 -253v-374
q0 -340 297 -340q215 0 387 188v251q0 43 30 74q34 34 83 34h121v-750zM851 1827l78 -90q-115 -274 -354 -274q-240 0 -346 274l78 90q149 -204 272 -204t272 204z" />
    <glyph glyph-name="gbreve" unicode="&#x11f;" 
d="M846 518q0 166 -57 247q-67 97 -231 97t-231 -97q-58 -81 -58 -247q0 -168 54 -248q65 -96 227 -96q227 0 296 195v149zM523 -32q-480 0 -480 550t515 550q514 0 514 -550v-375q0 -550 -514 -550q-250 0 -427 107v93q0 72 72 72q19 0 45 -7q158 -59 310 -59q164 0 231 97
q57 81 57 247q-100 -175 -323 -175zM830 1450l78 -90q-115 -274 -354 -274q-240 0 -346 274l78 90q149 -204 272 -204t272 204z" />
    <glyph glyph-name="Gdotaccent" unicode="&#x120;" horiz-adv-x="1266" 
d="M1155 -20h-121q-49 0 -83 34q-30 31 -30 74v28q-110 -148 -387 -148q-261 0 -399 147q-133 143 -133 408v374q0 259 165 409q161 146 427 146q231 0 501 -97v-73q0 -45 -34 -78q-34 -34 -89 -34q-214 67 -378 67q-159 0 -255 -87q-102 -92 -102 -253v-374
q0 -340 297 -340q215 0 387 188v251q0 43 30 74q34 34 83 34h121v-750zM461 1606q0 43 35 76q32 32 83 32h117v-145q0 -43 -35 -76q-32 -32 -82 -32h-118v145z" />
    <glyph glyph-name="gdotaccent" unicode="&#x121;" 
d="M846 518q0 166 -57 247q-67 97 -231 97t-231 -97q-58 -81 -58 -247q0 -168 54 -248q65 -96 227 -96q227 0 296 195v149zM523 -32q-480 0 -480 550t515 550q514 0 514 -550v-375q0 -550 -514 -550q-250 0 -427 107v93q0 72 72 72q19 0 45 -7q158 -59 310 -59q164 0 231 97
q57 81 57 247q-100 -175 -323 -175zM440 1229q0 43 35 76q32 32 83 32h117v-145q0 -43 -35 -76q-32 -32 -82 -32h-118v145z" />
    <glyph glyph-name="uni0122" unicode="&#x122;" horiz-adv-x="1266" 
d="M1155 -20h-121q-49 0 -83 34q-30 31 -30 74v28q-110 -148 -387 -148q-261 0 -399 147q-133 143 -133 408v374q0 259 165 409q161 146 427 146q231 0 501 -97v-73q0 -45 -34 -78q-34 -34 -89 -34q-214 67 -378 67q-159 0 -255 -87q-102 -92 -102 -253v-374
q0 -340 297 -340q215 0 387 188v251q0 43 30 74q34 34 83 34h121v-750zM419 -438q100 123 100 306q0 31 31 52q28 20 68 20h99v-38q0 -163 -150 -311q-28 -29 -59 -29h-89z" />
    <glyph glyph-name="uni0123" unicode="&#x123;" 
d="M846 518q0 166 -57 247q-67 97 -231 97t-231 -97q-58 -81 -58 -247q0 -168 54 -248q65 -96 227 -96q227 0 296 195v149zM523 -32q-480 0 -480 550t515 550q514 0 514 -550v-375q0 -550 -514 -550q-250 0 -427 107v93q0 72 72 72q19 0 45 -7q158 -59 310 -59q164 0 231 97
q57 81 57 247q-100 -175 -323 -175zM697 1585q-84 -136 -84 -353q0 -33 -25 -56q-27 -25 -65 -25h-90v41q0 187 130 359q25 34 56 34h78z" />
    <glyph glyph-name="Hcircumflex" unicode="&#x124;" horiz-adv-x="1301" 
d="M304 88q0 -43 -33 -76q-32 -32 -80 -32h-122v1453h122q48 0 80 -32q33 -33 33 -76v-515h618v515q0 43 33 76q32 32 80 32h122v-1453h-122q-48 0 -80 32q-33 33 -33 76v514h-618v-514zM614 1602l-281 -146l-74 85q145 125 307 269h95l307 -269l-73 -85z" />
    <glyph glyph-name="hcircumflex" unicode="&#x125;" horiz-adv-x="1144" 
d="M1034 -20h-113q-48 0 -81 33q-32 31 -32 75v590q0 184 -193 184q-227 0 -296 -194v-580q0 -44 -32 -75q-33 -33 -81 -33h-113v1453h113q48 0 80 -32q33 -33 33 -76v-383q101 126 323 126q392 0 392 -367v-721zM564 1584l-281 -146l-74 85q145 125 307 269h95l307 -269
l-73 -85z" />
    <glyph glyph-name="Hbar" unicode="&#x126;" horiz-adv-x="1301" 
d="M304 88q0 -43 -33 -76q-32 -32 -80 -32h-122v1453h122q48 0 80 -32q33 -33 33 -76v-515h618v515q0 43 33 76q32 32 80 32h122v-1453h-122q-48 0 -80 32q-33 33 -33 76v514h-618v-514zM-83.1992 958q-53.2998 0 -89.6992 36q-28.5996 33 -28.5996 75v69h1294.79
q54.5996 0 90.999 -36q27.2998 -32 27.2998 -74v-70h-1294.79z" />
    <glyph glyph-name="hbar" unicode="&#x127;" horiz-adv-x="1144" 
d="M1034 -20h-113q-48 0 -81 33q-32 31 -32 75v590q0 184 -193 184q-227 0 -296 -194v-580q0 -44 -32 -75q-33 -33 -81 -33h-113v1453h113q48 0 80 -32q33 -33 33 -76v-383q101 126 323 126q392 0 392 -367v-721zM-15 1083q-41 0 -69 36q-22 33 -22 75v69h996q42 0 70 -36
q21 -32 21 -74v-70h-996z" />
    <glyph glyph-name="Itilde" unicode="&#x128;" horiz-adv-x="449" 
d="M285 1325q0 43 33 76q32 32 80 32h122v-1345q0 -43 -33 -76q-32 -32 -80 -32h-122v1345zM738 1617q-104 -125 -216 -125q-66 0 -134 42q-75 46 -138 46q-59 0 -141 -69l-42 116q98 115 205 115q67 0 138 -43t132 -43q66 0 153 78z" />
    <glyph glyph-name="itilde" unicode="&#x129;" horiz-adv-x="376" 
d="M295 948q0 44 32 75q33 33 81 33h113v-968q0 -44 -32 -75q-33 -33 -81 -33h-113v968zM744 1240q-104 -125 -216 -125q-66 0 -134 42q-75 46 -138 46q-59 0 -141 -69l-42 116q98 115 205 115q67 0 138 -43t132 -43q66 0 153 78z" />
    <glyph glyph-name="Imacron" unicode="&#x12a;" horiz-adv-x="449" 
d="M277 1325q0 43 33 76q32 32 80 32h122v-1345q0 -43 -33 -76q-32 -32 -80 -32h-122v1345zM160 1487q-41 0 -69 36q-22 33 -22 75v69h561q42 0 70 -36q21 -32 21 -74v-70h-561z" />
    <glyph glyph-name="imacron" unicode="&#x12b;" horiz-adv-x="376" 
d="M288 948q0 44 32 75q33 33 81 33h113v-968q0 -44 -32 -75q-33 -33 -81 -33h-113v968zM166 1110q-41 0 -69 36q-22 33 -22 75v69h561q42 0 70 -36q21 -32 21 -74v-70h-561z" />
    <glyph glyph-name="Ibreve" unicode="&#x12c;" horiz-adv-x="449" 
d="M299 1325q0 43 33 76q32 32 80 32h122v-1345q0 -43 -33 -76q-32 -32 -80 -32h-122v1345zM689 1827l78 -90q-115 -274 -354 -274q-240 0 -346 274l78 90q149 -204 272 -204t272 204z" />
    <glyph glyph-name="ibreve" unicode="&#x12d;" horiz-adv-x="376" 
d="M309 948q0 44 32 75q33 33 81 33h113v-968q0 -44 -32 -75q-33 -33 -81 -33h-113v968zM695 1450l78 -90q-115 -274 -354 -274q-240 0 -346 274l78 90q149 -204 272 -204t272 204z" />
    <glyph glyph-name="Iogonek" unicode="&#x12e;" horiz-adv-x="449" 
d="M261 1325q0 43 33 76q32 32 80 32h122v-1345q0 -43 -33 -76q-32 -32 -80 -32h-122v1345zM434 20q-197 -171 -197 -245q0 -23 14 -37q11 -6 33 -6q50 0 137 42q18 5 30 5q51 0 51 -48v-57q-137 -85 -238 -85q-48 0 -92 19q-97 57 -97 139q0 112 201 273h158z" />
    <glyph glyph-name="iogonek" unicode="&#x12f;" horiz-adv-x="408" 
d="M292 948q0 44 32 75q33 33 81 33h113v-968q0 -44 -32 -75q-33 -33 -81 -33h-113v968zM292 1325q0 43 33 76q32 32 80 32h113v-145q0 -43 -33 -76q-32 -32 -80 -32h-113v145zM465 20q-197 -171 -197 -245q0 -23 14 -37q11 -6 33 -6q50 0 137 42q18 5 30 5q51 0 51 -48v-57
q-137 -85 -238 -85q-48 0 -92 19q-97 57 -97 139q0 112 201 273h158z" />
    <glyph glyph-name="Idotaccent" unicode="&#x130;" horiz-adv-x="449" 
d="M69 1325q0 43 33 76q32 32 80 32h122v-1345q0 -43 -33 -76q-32 -32 -80 -32h-122v1345zM69 1606q0 43 35 76q32 32 83 32h117v-145q0 -43 -35 -76q-32 -32 -82 -32h-118v145z" />
    <glyph glyph-name="IJ" unicode="&#x132;" horiz-adv-x="1367" 
d="M69 1325q0 43 33 76q32 32 80 32h122v-1345q0 -43 -33 -76q-32 -32 -80 -32h-122v1345zM1003 1325q0 43 30 74q34 34 83 34h121v-910q0 -260 -164 -409q-162 -146 -428 -146q-87 0 -211 20v92q0 44 33 77q32 32 83 32q55 -6 95 -6q159 0 255 87q103 91 103 253v802z" />
    <glyph glyph-name="ij" unicode="&#x133;" horiz-adv-x="843" 
d="M91 948q0 44 32 75q33 33 81 33h113v-968q0 -44 -32 -75q-33 -33 -81 -33h-113v968zM91 1325q0 43 33 76q32 32 80 32h113v-145q0 -43 -33 -76q-32 -32 -80 -32h-113v145zM728 -22q0 -194 -94 -288q-83 -83 -262 -97q-47 0 -79 32q-30 30 -30 71v100q142 0 186 32
q53 38 53 150v970q0 44 32 75q33 33 81 33h113v-1078zM502 1325q0 43 33 76q32 32 80 32h113v-145q0 -43 -31 -74q-33 -34 -82 -34h-113v145z" />
    <glyph glyph-name="Jcircumflex" unicode="&#x134;" horiz-adv-x="918" 
d="M554 1325q0 43 30 74q34 34 83 34h121v-910q0 -260 -164 -409q-162 -146 -428 -146q-87 0 -211 20v92q0 44 33 77q32 32 83 32q55 -6 95 -6q159 0 255 87q103 91 103 253v802zM658 1602l-281 -146l-74 85q145 125 307 269h95l307 -269l-73 -85z" />
    <glyph glyph-name="jcircumflex" unicode="&#x135;" horiz-adv-x="435" 
d="M335 -22q0 -194 -94 -288q-83 -83 -262 -97q-47 0 -79 32q-30 30 -30 71v100q142 0 186 32q53 38 53 150v970q0 44 32 75q33 33 81 33h113v-1078zM203 1225l-281 -146l-74 85q145 125 307 269h95l307 -269l-73 -85z" />
    <glyph glyph-name="uni0136" unicode="&#x136;" horiz-adv-x="1193" 
d="M581 810q92 1 118 18q33 22 60 115l117 409q21 81 125 81h126l-157 -574q-23 -88 -59 -110q53 -35 100 -213l152 -556h-126q-104 0 -125 80l-130 457q-18 60 -44 74q-20 11 -95 11h-339v-514q0 -43 -33 -76q-32 -32 -80 -32h-122v1453h122q48 0 80 -32q33 -33 33 -76
v-515h277zM453 -438q100 123 100 306q0 31 31 52q28 20 68 20h99v-38q0 -163 -150 -311q-28 -29 -59 -29h-89z" />
    <glyph glyph-name="uni0137" unicode="&#x137;" horiz-adv-x="1036" 
d="M95 1433h113q48 0 80 -32q33 -33 33 -76v-703h233q72 0 88 41l105 309q28 84 135 84h121l-132 -388q-33 -97 -56 -113q44 -32 75 -123l154 -452h-121q-107 0 -133 78l-107 314q-14 42 -69 42h-293v-326q0 -44 -32 -75q-33 -33 -81 -33h-113v1453zM406 -438
q100 123 100 306q0 31 31 52q28 20 68 20h99v-38q0 -163 -150 -311q-28 -29 -59 -29h-89z" />
    <glyph glyph-name="kgreenlandic" unicode="&#x138;" horiz-adv-x="1036" 
d="M95 1433h113q48 0 80 -32q33 -33 33 -76v-703h233q72 0 88 41l105 309q28 84 135 84h121l-132 -388q-33 -97 -56 -113q44 -32 75 -123l154 -452h-121q-107 0 -133 78l-107 314q-14 42 -69 42h-293v-326q0 -44 -32 -75q-33 -33 -81 -33h-113v1453z" />
    <glyph glyph-name="Lacute" unicode="&#x139;" 
d="M45 1440h117q51 0 84 -33q34 -34 34 -79v-805q0 -162 102 -253q96 -87 256 -87q162 0 377 67q55 0 90 -34q33 -33 33 -78v-73q-270 -97 -500 -97q-267 0 -428 146q-165 149 -165 409v917zM492 1456l-73 85l302 265q36 17 66 17q90 0 114 -155z" />
    <glyph glyph-name="lacute" unicode="&#x13a;" horiz-adv-x="532" 
d="M91 1433h113q48 0 80 -32q33 -33 33 -76v-978q0 -148 30 -157q21 -7 50 -7q21 0 48 4q112 0 112 -89v-100q-99 -23 -180 -23q-25 0 -50 2q-114 8 -175 86.5t-61 283.5v1086zM154 1425l-73 85l302 265q36 17 66 17q90 0 114 -155z" />
    <glyph glyph-name="uni013B" unicode="&#x13b;" 
d="M45 1440h117q51 0 84 -33q34 -34 34 -79v-805q0 -162 102 -253q96 -87 256 -87q162 0 377 67q55 0 90 -34q33 -33 33 -78v-73q-270 -97 -500 -97q-267 0 -428 146q-165 149 -165 409v917zM432 -438q100 123 100 306q0 31 31 52q28 20 68 20h99v-38q0 -163 -150 -311
q-28 -29 -59 -29h-89z" />
    <glyph glyph-name="uni013C" unicode="&#x13c;" horiz-adv-x="532" 
d="M88 1433h113q48 0 80 -32q33 -33 33 -76v-978q0 -148 30 -157q21 -7 50 -7q21 0 48 4q112 0 112 -89v-100q-99 -23 -180 -23q-25 0 -50 2q-114 8 -175 86.5t-61 283.5v1086zM161 -438q100 123 100 306q0 31 31 52q28 20 68 20h99v-38q0 -163 -150 -311q-28 -29 -59 -29
h-89z" />
    <glyph glyph-name="Lcaron" unicode="&#x13d;" 
d="M45 1440h117q51 0 84 -33q34 -34 34 -79v-805q0 -162 102 -253q96 -87 256 -87q162 0 377 67q55 0 90 -34q33 -33 33 -78v-73q-270 -97 -500 -97q-267 0 -428 146q-165 149 -165 409v917zM874 998q84 137 84 353q0 33 27 59q25 23 63 23h90v-42q0 -186 -129 -358
q-26 -35 -57 -35h-78z" />
    <glyph glyph-name="lcaron" unicode="&#x13e;" horiz-adv-x="931" 
d="M88 1433h113q48 0 80 -32q33 -33 33 -76v-978q0 -148 30 -157q21 -7 50 -7q21 0 48 4q112 0 112 -89v-100q-99 -23 -180 -23q-25 0 -50 2q-114 8 -175 86.5t-61 283.5v1086zM542 998q84 137 84 353q0 33 27 59q25 23 63 23h90v-42q0 -186 -129 -358q-26 -35 -57 -35h-78z
" />
    <glyph glyph-name="Ldot" unicode="&#x13f;" 
d="M45 1440h117q51 0 84 -33q34 -34 34 -79v-805q0 -162 102 -253q96 -87 256 -87q162 0 377 67q55 0 90 -34q33 -33 33 -78v-73q-270 -97 -500 -97q-267 0 -428 146q-165 149 -165 409v917zM883.347 626.982q0 37.3984 28.0488 63.748q28.8994 28.0488 71.3975 28.0488
h100.298v-122.396q0 -37.3984 -28.0498 -64.5977q-29.749 -27.1992 -72.248 -27.1992h-99.4463v122.396z" />
    <glyph glyph-name="ldot" unicode="&#x140;" horiz-adv-x="689" 
d="M88 1433h113q48 0 80 -32q33 -33 33 -76v-978q0 -148 30 -157q21 -7 50 -7q21 0 48 4q112 0 112 -89v-100q-99 -23 -180 -23q-25 0 -50 2q-114 8 -175 86.5t-61 283.5v1086zM504.347 626.982q0 37.3984 28.0488 63.748q28.8994 28.0488 71.3975 28.0488h100.298v-122.396
q0 -37.3984 -28.0498 -64.5977q-29.749 -27.1992 -72.248 -27.1992h-99.4463v122.396z" />
    <glyph glyph-name="Lslash" unicode="&#x141;" horiz-adv-x="1193" 
d="M45 1440h117q51 0 84 -33q34 -34 34 -79v-805q0 -162 102 -253q96 -87 256 -87q162 0 377 67q55 0 90 -34q33 -33 33 -78v-73q-270 -97 -500 -97q-267 0 -428 146q-165 149 -165 409v917zM-118 535q-15 -6 -32 -6q-22 0 -46 13q-36 22 -54 61l-27 60l907 401q17 8 34 8
q24 0 47 -13q34 -22 52 -61l26 -61z" />
    <glyph glyph-name="lslash" unicode="&#x142;" horiz-adv-x="563" 
d="M399 1433h113q48 0 80 -32q33 -33 33 -76v-978q0 -148 30 -157q21 -7 50 -7q21 0 48 4q112 0 112 -89v-100q-99 -23 -180 -23q-25 0 -50 2q-114 8 -175 86.5t-61 283.5v1086zM192 430q-18 -8 -35 -8q-22 0 -44 11q-37 20 -56 59l-30 59l887 443q18 9 37 9q21 0 44 -11
q34 -20 54 -59l30 -60z" />
    <glyph glyph-name="Nacute" unicode="&#x143;" horiz-adv-x="1397" 
d="M68 1328q0 45 34 79q33 33 83 33h206l627 -1171v1171h235v-1348q0 -45 -34 -79q-33 -33 -83 -33h-206l-627 1171v-1059q0 -45 -34 -79q-33 -33 -84 -33h-117v1348zM561 1456l-73 85l302 265q36 17 66 17q90 0 114 -155z" />
    <glyph glyph-name="nacute" unicode="&#x144;" horiz-adv-x="1134" 
d="M1027 -20h-113q-48 0 -81 33q-32 31 -32 75v590q0 184 -193 184q-227 0 -296 -195v-579q0 -44 -32 -75q-33 -33 -81 -33h-113v1076h113q48 0 81 -33q32 -31 32 -75q101 120 323 120q392 0 392 -367v-721zM457 1079l-73 85l302 265q36 17 66 17q90 0 114 -155z" />
    <glyph glyph-name="uni0145" unicode="&#x145;" horiz-adv-x="1397" 
d="M68 1328q0 45 34 79q33 33 83 33h206l627 -1171v1171h235v-1348q0 -45 -34 -79q-33 -33 -83 -33h-206l-627 1171v-1059q0 -45 -34 -79q-33 -33 -84 -33h-117v1348zM501 -438q100 123 100 306q0 31 31 52q28 20 68 20h99v-38q0 -163 -150 -311q-28 -29 -59 -29h-89z" />
    <glyph glyph-name="uni0146" unicode="&#x146;" horiz-adv-x="1134" 
d="M1027 -20h-113q-48 0 -81 33q-32 31 -32 75v590q0 184 -193 184q-227 0 -296 -195v-579q0 -44 -32 -75q-33 -33 -81 -33h-113v1076h113q48 0 81 -33q32 -31 32 -75q101 120 323 120q392 0 392 -367v-721zM397 -438q100 123 100 306q0 31 31 52q28 20 68 20h99v-38
q0 -163 -150 -311q-28 -29 -59 -29h-89z" />
    <glyph glyph-name="Ncaron" unicode="&#x147;" horiz-adv-x="1397" 
d="M68 1328q0 45 34 79q33 33 83 33h206l627 -1171v1171h235v-1348q0 -45 -34 -79q-33 -33 -83 -33h-206l-627 1171v-1059q0 -45 -34 -79q-33 -33 -84 -33h-117v1348zM942 1817l73 -85l-307 -269h-95q-162 144 -307 269l74 85l281 -146z" />
    <glyph glyph-name="ncaron" unicode="&#x148;" horiz-adv-x="1134" 
d="M1027 -20h-113q-48 0 -81 33q-32 31 -32 75v590q0 184 -193 184q-227 0 -296 -195v-579q0 -44 -32 -75q-33 -33 -81 -33h-113v1076h113q48 0 81 -33q32 -31 32 -75q101 120 323 120q392 0 392 -367v-721zM838 1440l73 -85l-307 -269h-95q-162 144 -307 269l74 85
l281 -146z" />
    <glyph glyph-name="napostrophe" unicode="&#x149;" horiz-adv-x="1222" 
d="M60 1151q84 136 84 353q0 33 25 56q27 25 65 25h90v-41q0 -187 -130 -359q-25 -34 -56 -34h-78zM1115 -20h-113q-48 0 -81 33q-32 31 -32 75v590q0 184 -193 184q-227 0 -296 -195v-579q0 -44 -32 -75q-33 -33 -81 -33h-113v1076h113q48 0 81 -33q32 -31 32 -75
q101 120 323 120q392 0 392 -367v-721z" />
    <glyph glyph-name="Eng" unicode="&#x14a;" horiz-adv-x="1422" 
d="M1016 -20h10l-723 1182v-1070q0 -45 -34 -79q-33 -33 -84 -33h-117v1348q0 45 34 79q33 33 83 33h206l627 -1039v1039h235v-1348q0 -14 -3 -25q-18 -229 -181 -444q-33 -45 -71 -45h-94q102 167 112 402z" />
    <glyph glyph-name="eng" unicode="&#x14b;" horiz-adv-x="1159" 
d="M801 86v592q0 184 -193 184q-227 0 -296 -195v-579q0 -44 -32 -75q-33 -33 -81 -33h-113v1076h113q48 0 81 -33q32 -31 32 -75v14q51 106 323 106q392 0 392 -367v-576q0 -264 -184 -508q-33 -45 -71 -45h-94q114 186 122 496q0 10 1 18z" />
    <glyph glyph-name="Omacron" unicode="&#x14c;" horiz-adv-x="1324" 
d="M1196 523q0 -260 -165 -409q-161 -146 -428 -146q-266 0 -427 146q-165 149 -165 409v374q0 259 165 409q161 146 427 146q267 0 428 -146q165 -150 165 -409v-374zM348 1150q-102 -92 -102 -253v-374q0 -162 102 -253q96 -87 255 -87q160 0 256 87q102 91 102 253v374
q0 161 -102 253q-96 87 -256 87q-159 0 -255 -87zM369 1487q-41 0 -69 36q-22 33 -22 75v69h561q42 0 70 -36q21 -32 21 -74v-70h-561z" />
    <glyph glyph-name="omacron" unicode="&#x14d;" horiz-adv-x="1151" 
d="M558 861q-164 0 -231 -96q-58 -81 -58 -247t58 -248q67 -96 231 -96t231 96q57 82 57 248t-57 247q-67 96 -231 96zM1072 518q0 -550 -514 -550q-515 0 -515 550t515 550q514 0 514 -550zM323 1110q-41 0 -69 36q-22 33 -22 75v69h561q42 0 70 -36q21 -32 21 -74v-70
h-561z" />
    <glyph glyph-name="Obreve" unicode="&#x14e;" horiz-adv-x="1324" 
d="M1196 523q0 -260 -165 -409q-161 -146 -428 -146q-266 0 -427 146q-165 149 -165 409v374q0 259 165 409q161 146 427 146q267 0 428 -146q165 -150 165 -409v-374zM348 1150q-102 -92 -102 -253v-374q0 -162 102 -253q96 -87 255 -87q160 0 256 87q102 91 102 253v374
q0 161 -102 253q-96 87 -256 87q-159 0 -255 -87zM876 1827l78 -90q-115 -274 -354 -274q-240 0 -346 274l78 90q149 -204 272 -204t272 204z" />
    <glyph glyph-name="obreve" unicode="&#x14f;" horiz-adv-x="1151" 
d="M558 861q-164 0 -231 -96q-58 -81 -58 -247t58 -248q67 -96 231 -96t231 96q57 82 57 248t-57 247q-67 96 -231 96zM1072 518q0 -550 -514 -550q-515 0 -515 550t515 550q514 0 514 -550zM830 1450l78 -90q-115 -274 -354 -274q-240 0 -346 274l78 90q149 -204 272 -204
t272 204z" />
    <glyph glyph-name="Ohungarumlaut" unicode="&#x150;" horiz-adv-x="1324" 
d="M1196 523q0 -260 -165 -409q-161 -146 -428 -146q-266 0 -427 146q-165 149 -165 409v374q0 259 165 409q161 146 427 146q267 0 428 -146q165 -150 165 -409v-374zM348 1150q-102 -92 -102 -253v-374q0 -162 102 -253q96 -87 255 -87q160 0 256 87q102 91 102 253v374
q0 161 -102 253q-96 87 -256 87q-159 0 -255 -87zM222 1456l-73 85l302 265q36 17 66 17q90 0 114 -155zM645 1456l-73 85l302 265q36 17 66 17q90 0 114 -155z" />
    <glyph glyph-name="ohungarumlaut" unicode="&#x151;" horiz-adv-x="1151" 
d="M558 861q-164 0 -231 -96q-58 -81 -58 -247t58 -248q67 -96 231 -96t231 96q57 82 57 248t-57 247q-67 96 -231 96zM1072 518q0 -550 -514 -550q-515 0 -515 550t515 550q514 0 514 -550zM176 1079l-73 85l302 265q36 17 66 17q90 0 114 -155zM599 1079l-73 85l302 265
q36 17 66 17q90 0 114 -155z" />
    <glyph glyph-name="OE" unicode="&#x152;" horiz-adv-x="2119" 
d="M1078 161q-8 -12 -47 -47q-161 -146 -428 -146q-266 0 -427 146q-165 149 -165 409v374q0 259 165 409q161 146 427 146q267 0 428 -146q39 -35 47 -47q9 12 48 47q161 146 427 146q231 0 501 -97v-73q0 -45 -34 -78q-34 -34 -89 -34q-214 67 -378 67q-159 0 -255 -87
q-102 -92 -102 -253v-68h652q49 0 80 -31q33 -33 33 -77v-99h-765v-99q0 -162 102 -253q96 -87 255 -87q164 0 378 67q55 0 89 -34q34 -33 34 -78v-73q-270 -97 -501 -97q-266 0 -427 146q-39 35 -48 47zM961 897q0 161 -102 253q-96 87 -256 87q-159 0 -255 -87
q-102 -92 -102 -253v-374q0 -162 102 -253q96 -87 255 -87q160 0 256 87q102 91 102 253v374z" />
    <glyph glyph-name="oe" unicode="&#x153;" horiz-adv-x="1888" 
d="M1559 626q-9 111 -47 165q-51 71 -185 71q-137 0 -196 -71q-49 -59 -57 -165h485zM957 120q-105 -152 -399 -152q-515 0 -515 550t515 550q290 0 395 -148q99 148 374 148q264 0 376 -166q88 -129 88 -383q0 -101 -113 -101h-605q6 -244 284 -244q151 0 309 59q25 6 45 6
q72 0 72 -71v-94q-177 -106 -426 -106q-295 0 -400 152zM844 456q-2 30 -2 62q0 33 2 63q-10 119 -55 184q-67 96 -231 96t-231 -96q-58 -81 -58 -247t58 -248q67 -96 231 -96t231 96q46 66 55 186z" />
    <glyph glyph-name="Racute" unicode="&#x154;" horiz-adv-x="1206" 
d="M297 773h236q358 0 358 256q0 103 -90 159q-80 49 -206 49h-5q-123 0 -202 -49q-91 -55 -91 -159v-256zM1044 328l157 -348h-156q-89 0 -125 77l-121 271l-67 149q-33 88 -174 88h-261v-585h-235v1049q0 202 168 319q149 104 362 104h4q215 -1 363 -105
q167 -117 167 -318q0 -313 -233 -401q35 -22 111 -212zM526 1456l-73 85l302 265q36 17 66 17q90 0 114 -155z" />
    <glyph glyph-name="racute" unicode="&#x155;" horiz-adv-x="840" 
d="M86 1056h113q48 0 80 -32q33 -33 33 -76q91 120 270 120q99 0 223 -28v-100q0 -88 -112 -88q-61 9 -138 9q-174 0 -243 -194v-579q0 -44 -32 -76q-33 -32 -81 -32h-113v1076zM346 1079l-73 85l302 265q36 17 66 17q90 0 114 -155z" />
    <glyph glyph-name="uni0156" unicode="&#x156;" horiz-adv-x="1206" 
d="M297 773h236q358 0 358 256q0 103 -90 159q-80 49 -206 49h-5q-123 0 -202 -49q-91 -55 -91 -159v-256zM1044 328l157 -348h-156q-89 0 -125 77l-121 271l-67 149q-33 88 -174 88h-261v-585h-235v1049q0 202 168 319q149 104 362 104h4q215 -1 363 -105
q167 -117 167 -318q0 -313 -233 -401q35 -22 111 -212zM466 -438q100 123 100 306q0 31 31 52q28 20 68 20h99v-38q0 -163 -150 -311q-28 -29 -59 -29h-89z" />
    <glyph glyph-name="uni0157" unicode="&#x157;" horiz-adv-x="840" 
d="M86 1056h113q48 0 80 -32q33 -33 33 -76q91 120 270 120q99 0 223 -28v-100q0 -88 -112 -88q-61 9 -138 9q-174 0 -243 -194v-579q0 -44 -32 -76q-33 -32 -81 -32h-113v1076zM286 -438q100 123 100 306q0 31 31 52q28 20 68 20h99v-38q0 -163 -150 -311q-28 -29 -59 -29
h-89z" />
    <glyph glyph-name="Rcaron" unicode="&#x158;" horiz-adv-x="1206" 
d="M297 773h236q358 0 358 256q0 103 -90 159q-80 49 -206 49h-5q-123 0 -202 -49q-91 -55 -91 -159v-256zM1044 328l157 -348h-156q-89 0 -125 77l-121 271l-67 149q-33 88 -174 88h-261v-585h-235v1049q0 202 168 319q149 104 362 104h4q215 -1 363 -105
q167 -117 167 -318q0 -313 -233 -401q35 -22 111 -212zM908 1817l73 -85l-307 -269h-95q-162 144 -307 269l74 85l281 -146z" />
    <glyph glyph-name="rcaron" unicode="&#x159;" horiz-adv-x="840" 
d="M86 1056h113q48 0 80 -32q33 -33 33 -76q91 120 270 120q99 0 223 -28v-100q0 -88 -112 -88q-61 9 -138 9q-174 0 -243 -194v-579q0 -44 -32 -76q-33 -32 -81 -32h-113v1076zM727 1440l73 -85l-307 -269h-95q-162 144 -307 269l74 85l281 -146z" />
    <glyph glyph-name="Sacute" unicode="&#x15a;" horiz-adv-x="1140" 
d="M745 236q92 58 92 160q0 123 -117 171q-55 23 -280 57q-207 31 -300 95q-140 95 -140 298t153 323q140 112 349 112q230 0 500 -97v-73q0 -45 -34 -79q-33 -33 -88 -33q-215 67 -378 67q-108 0 -183 -55q-84 -61 -84 -165q0 -109 117 -151q41 -15 285 -51
q205 -31 301 -102q134 -98 134 -304v-12q-4 -202 -164 -321q-145 -108 -355 -108q-230 0 -500 97v73q0 45 34 79q33 33 88 33q215 -67 378 -67q110 0 192 53zM436 1456l-73 85l302 265q36 17 66 17q90 0 114 -155z" />
    <glyph glyph-name="sacute" unicode="&#x15b;" horiz-adv-x="907" 
d="M812 961v-93q0 -72 -72 -72q-19 0 -45 7q-159 58 -284 58q-75 0 -116 -38q-39 -34 -39 -85q0 -58 79 -83l197 -38q145 -26 215 -84q95 -78 95 -227v-9q-2 -133 -101 -226q-110 -103 -294 -103q-225 0 -402 106v93q0 72 73 72q19 0 44 -6q159 -59 285 -59q76 0 123 39
q43 35 43 84q0 69 -76 98q-25 9 -197 40q-144 27 -211 77q-102 77 -102 226q0 134 94 226q105 104 290 104q224 0 401 -107zM335 1079l-73 85l302 265q36 17 66 17q90 0 114 -155z" />
    <glyph glyph-name="Scircumflex" unicode="&#x15c;" horiz-adv-x="1140" 
d="M745 236q92 58 92 160q0 123 -117 171q-55 23 -280 57q-207 31 -300 95q-140 95 -140 298t153 323q140 112 349 112q230 0 500 -97v-73q0 -45 -34 -79q-33 -33 -88 -33q-215 67 -378 67q-108 0 -183 -55q-84 -61 -84 -165q0 -109 117 -151q41 -15 285 -51
q205 -31 301 -102q134 -98 134 -304v-12q-4 -202 -164 -321q-145 -108 -355 -108q-230 0 -500 97v73q0 45 34 79q33 33 88 33q215 -67 378 -67q110 0 192 53zM537 1602l-281 -146l-74 85q145 125 307 269h95l307 -269l-73 -85z" />
    <glyph glyph-name="scircumflex" unicode="&#x15d;" horiz-adv-x="907" 
d="M812 961v-93q0 -72 -72 -72q-19 0 -45 7q-159 58 -284 58q-75 0 -116 -38q-39 -34 -39 -85q0 -58 79 -83l197 -38q145 -26 215 -84q95 -78 95 -227v-9q-2 -133 -101 -226q-110 -103 -294 -103q-225 0 -402 106v93q0 72 73 72q19 0 44 -6q159 -59 285 -59q76 0 123 39
q43 35 43 84q0 69 -76 98q-25 9 -197 40q-144 27 -211 77q-102 77 -102 226q0 134 94 226q105 104 290 104q224 0 401 -107zM435 1225l-281 -146l-74 85q145 125 307 269h95l307 -269l-73 -85z" />
    <glyph glyph-name="Scedilla" unicode="&#x15e;" horiz-adv-x="1165" 
d="M473 -30q-175 7 -420 95v73q0 45 34 79q33 33 88 33q215 -67 378 -67q110 0 192 53q92 58 92 160q0 123 -117 171q-55 23 -280 57q-207 31 -300 95q-140 95 -140 298t153 323q140 112 349 112q230 0 500 -97v-73q0 -45 -34 -79q-33 -33 -88 -33q-215 67 -378 67
q-108 0 -183 -55q-84 -61 -84 -165q0 -109 117 -151q41 -15 285 -51q205 -31 301 -102q134 -98 134 -304v-12q-4 -202 -164 -321q-125 -92 -284 -105l-13 -20q141 -70 141 -179q0 -57 -48 -123q-63 -59 -150 -59q-95 0 -227 77l-6 61v5q0 45 49 49h5q10 0 25 -3
q93 -37 142 -37q28 0 38 10q4 10 4 22q0 57 -161 103z" />
    <glyph glyph-name="scedilla" unicode="&#x15f;" horiz-adv-x="932" 
d="M371 -29q-165 6 -326 103v93q0 72 73 72q19 0 44 -6q159 -59 285 -59q76 0 123 39q43 35 43 84q0 69 -76 98q-25 9 -197 40q-144 27 -211 77q-102 77 -102 226q0 134 94 226q105 104 290 104q224 0 401 -107v-93q0 -72 -72 -72q-19 0 -45 7q-159 58 -284 58
q-75 0 -116 -38q-39 -34 -39 -85q0 -58 79 -83l197 -38q145 -26 215 -84q95 -78 95 -227v-9q-2 -133 -101 -226q-90 -85 -218 -98l-14 -22q141 -70 141 -179q0 -57 -48 -123q-63 -59 -150 -59q-95 0 -227 77l-6 61v5q0 45 49 49h5q10 0 25 -3q93 -37 142 -37q28 0 38 10
q4 10 4 22q0 57 -161 103z" />
    <glyph glyph-name="Scaron" unicode="&#x160;" horiz-adv-x="1140" 
d="M745 236q92 58 92 160q0 123 -117 171q-55 23 -280 57q-207 31 -300 95q-140 95 -140 298t153 323q140 112 349 112q230 0 500 -97v-73q0 -45 -34 -79q-33 -33 -88 -33q-215 67 -378 67q-108 0 -183 -55q-84 -61 -84 -165q0 -109 117 -151q41 -15 285 -51
q205 -31 301 -102q134 -98 134 -304v-12q-4 -202 -164 -321q-145 -108 -355 -108q-230 0 -500 97v73q0 45 34 79q33 33 88 33q215 -67 378 -67q110 0 192 53zM818 1817l73 -85l-307 -269h-95q-162 144 -307 269l74 85l281 -146z" />
    <glyph glyph-name="scaron" unicode="&#x161;" horiz-adv-x="907" 
d="M812 961v-93q0 -72 -72 -72q-19 0 -45 7q-159 58 -284 58q-75 0 -116 -38q-39 -34 -39 -85q0 -58 79 -83l197 -38q145 -26 215 -84q95 -78 95 -227v-9q-2 -133 -101 -226q-110 -103 -294 -103q-225 0 -402 106v93q0 72 73 72q19 0 44 -6q159 -59 285 -59q76 0 123 39
q43 35 43 84q0 69 -76 98q-25 9 -197 40q-144 27 -211 77q-102 77 -102 226q0 134 94 226q105 104 290 104q224 0 401 -107zM716 1440l73 -85l-307 -269h-95q-162 144 -307 269l74 85l281 -146z" />
    <glyph glyph-name="uni0162" unicode="&#x162;" horiz-adv-x="976" 
d="M96 1225q-48 0 -81 33q-32 31 -32 75v100h944q48 0 80 -32q33 -33 33 -76v-100h-411v-1137q0 -43 -33 -76q-32 -32 -80 -32h-122v1245h-298zM559 21l-46 -71q141 -70 141 -179q0 -57 -48 -123q-63 -59 -150 -59q-95 0 -227 77l-6 61v5q0 45 49 49h5q10 0 25 -3
q93 -37 142 -37q28 0 38 10q4 10 4 22q0 57 -161 103l78 145h156z" />
    <glyph glyph-name="uni0163" unicode="&#x163;" horiz-adv-x="813" 
d="M121 848q-48 0 -81 33q-32 31 -32 75v100h145v163q0 44 32 75q33 33 81 33h113v-271h304q48 0 80 -32q33 -33 33 -76v-100h-417v-493q0 -112 53 -150q45 -31 162 -31q51 0 111 9q112 0 112 -88v-100q-123 -27 -223 -27q-221 0 -323 80q-118 91 -118 307v493h-32zM669 22
l-46 -71q141 -70 141 -179q0 -57 -48 -123q-63 -59 -150 -59q-95 0 -227 77l-6 61v5q0 45 49 49h5q10 0 25 -3q93 -37 142 -37q28 0 38 10q4 10 4 22q0 57 -161 103l78 145h156z" />
    <glyph glyph-name="Tcaron" unicode="&#x164;" horiz-adv-x="976" 
d="M96 1225q-48 0 -81 33q-32 31 -32 75v100h944q48 0 80 -32q33 -33 33 -76v-100h-411v-1137q0 -43 -33 -76q-32 -32 -80 -32h-122v1245h-298zM793 1817l73 -85l-307 -269h-95q-162 144 -307 269l74 85l281 -146z" />
    <glyph glyph-name="tcaron" unicode="&#x165;" horiz-adv-x="1212" 
d="M121 848q-48 0 -81 33q-32 31 -32 75v100h145v163q0 44 32 75q33 33 81 33h113v-271h304q48 0 80 -32q33 -33 33 -76v-100h-417v-493q0 -112 53 -150q45 -31 162 -31q51 0 111 9q112 0 112 -88v-100q-123 -27 -223 -27q-221 0 -323 80q-118 91 -118 307v493h-32zM823 998
q84 137 84 353q0 33 27 59q25 23 63 23h90v-42q0 -186 -129 -358q-26 -35 -57 -35h-78z" />
    <glyph glyph-name="Tbar" unicode="&#x166;" horiz-adv-x="976" 
d="M111 1225q-48 0 -81 33q-32 31 -32 75v100h944q48 0 80 -32q33 -33 33 -76v-100h-411v-1137q0 -43 -33 -76q-32 -32 -80 -32h-122v1245h-298zM74 617q-41 0 -69 36q-22 33 -22 75v69h996q42 0 70 -36q21 -32 21 -74v-70h-996z" />
    <glyph glyph-name="tbar" unicode="&#x167;" horiz-adv-x="813" 
d="M241 848q-48 0 -81 33q-32 31 -32 75v100h145v163q0 44 32 75q33 33 81 33h113v-271h304q48 0 80 -32q33 -33 33 -76v-100h-417v-493q0 -112 53 -150q45 -31 162 -31q51 0 111 9q112 0 112 -88v-100q-123 -27 -223 -27q-221 0 -323 80q-118 91 -118 307v493h-32zM61 426
q-41 0 -69 36q-22 33 -22 75v69h996q42 0 70 -36q21 -32 21 -74v-70h-996z" />
    <glyph glyph-name="Utilde" unicode="&#x168;" horiz-adv-x="1237" 
d="M1121 391q0 -201 -167 -318q-148 -104 -363 -105q-216 0 -366 104q-168 117 -168 319v1042h235v-1042q0 -104 91 -159q79 -49 202 -49h5q126 0 206 49q90 56 90 159v1042h235v-1042zM925 1617q-104 -125 -216 -125q-66 0 -134 42q-75 46 -138 46q-59 0 -141 -69l-42 116
q98 115 205 115q67 0 138 -43t132 -43q66 0 153 78z" />
    <glyph glyph-name="utilde" unicode="&#x169;" horiz-adv-x="1138" 
d="M476 -32q-392 0 -392 367v721h113q48 0 80 -32q33 -33 33 -76v-590q0 -184 193 -184q234 0 296 178v596q0 43 33 76q32 32 80 32h113v-1076h-113q-48 0 -81 32q-32 32 -32 76q-90 -120 -323 -120zM890 1240q-104 -125 -216 -125q-66 0 -134 42q-75 46 -138 46
q-59 0 -141 -69l-42 116q98 115 205 115q67 0 138 -43t132 -43q66 0 153 78z" />
    <glyph glyph-name="Umacron" unicode="&#x16a;" horiz-adv-x="1237" 
d="M1121 391q0 -201 -167 -318q-148 -104 -363 -105q-216 0 -366 104q-168 117 -168 319v1042h235v-1042q0 -104 91 -159q79 -49 202 -49h5q126 0 206 49q90 56 90 159v1042h235v-1042zM354 1487q-41 0 -69 36q-22 33 -22 75v69h561q42 0 70 -36q21 -32 21 -74v-70h-561z
" />
    <glyph glyph-name="umacron" unicode="&#x16b;" horiz-adv-x="1138" 
d="M476 -32q-392 0 -392 367v721h113q48 0 80 -32q33 -33 33 -76v-590q0 -184 193 -184q234 0 296 178v596q0 43 33 76q32 32 80 32h113v-1076h-113q-48 0 -81 32q-32 32 -32 76q-90 -120 -323 -120zM320 1110q-41 0 -69 36q-22 33 -22 75v69h561q42 0 70 -36q21 -32 21 -74
v-70h-561z" />
    <glyph glyph-name="Ubreve" unicode="&#x16c;" horiz-adv-x="1237" 
d="M1121 391q0 -201 -167 -318q-148 -104 -363 -105q-216 0 -366 104q-168 117 -168 319v1042h235v-1042q0 -104 91 -159q79 -49 202 -49h5q126 0 206 49q90 56 90 159v1042h235v-1042zM862 1827l78 -90q-115 -274 -354 -274q-240 0 -346 274l78 90q149 -204 272 -204
t272 204z" />
    <glyph glyph-name="ubreve" unicode="&#x16d;" horiz-adv-x="1138" 
d="M476 -32q-392 0 -392 367v721h113q48 0 80 -32q33 -33 33 -76v-590q0 -184 193 -184q234 0 296 178v596q0 43 33 76q32 32 80 32h113v-1076h-113q-48 0 -81 32q-32 32 -32 76q-90 -120 -323 -120zM827 1450l78 -90q-115 -274 -354 -274q-240 0 -346 274l78 90
q149 -204 272 -204t272 204z" />
    <glyph glyph-name="Uring" unicode="&#x16e;" horiz-adv-x="1237" 
d="M1121 391q0 -201 -167 -318q-148 -104 -363 -105q-216 0 -366 104q-168 117 -168 319v1042h235v-1042q0 -104 91 -159q79 -49 202 -49h5q126 0 206 49q90 56 90 159v1042h235v-1042zM735 1751q59 -59 59 -141q0 -81 -59 -140.5t-146 -59.5t-146 59.5t-59 140.5
q0 82 59 141t146 59t146 -59zM589 1674q-23 0 -40.5 -18t-17.5 -46q0 -27 17.5 -45t40.5 -18t41 18t18 45q0 28 -18 46t-41 18z" />
    <glyph glyph-name="uring" unicode="&#x16f;" horiz-adv-x="1138" 
d="M476 -32q-392 0 -392 367v721h113q48 0 80 -32q33 -33 33 -76v-590q0 -184 193 -184q234 0 296 178v596q0 43 33 76q32 32 80 32h113v-1076h-113q-48 0 -81 32q-32 32 -32 76q-90 -120 -323 -120zM701 1374q59 -59 59 -141q0 -81 -59 -140.5t-146 -59.5t-146 59.5
t-59 140.5q0 82 59 141t146 59t146 -59zM555 1297q-23 0 -40.5 -18t-17.5 -46q0 -27 17.5 -45t40.5 -18t41 18t18 45q0 28 -18 46t-41 18z" />
    <glyph glyph-name="Uhungarumlaut" unicode="&#x170;" horiz-adv-x="1237" 
d="M1121 391q0 -201 -167 -318q-148 -104 -363 -105q-216 0 -366 104q-168 117 -168 319v1042h235v-1042q0 -104 91 -159q79 -49 202 -49h5q126 0 206 49q90 56 90 159v1042h235v-1042zM207 1456l-73 85l302 265q36 17 66 17q90 0 114 -155zM630 1456l-73 85l302 265
q36 17 66 17q90 0 114 -155z" />
    <glyph glyph-name="uhungarumlaut" unicode="&#x171;" horiz-adv-x="1138" 
d="M476 -32q-392 0 -392 367v721h113q48 0 80 -32q33 -33 33 -76v-590q0 -184 193 -184q234 0 296 178v596q0 43 33 76q32 32 80 32h113v-1076h-113q-48 0 -81 32q-32 32 -32 76q-90 -120 -323 -120zM173 1079l-73 85l302 265q36 17 66 17q90 0 114 -155zM596 1079l-73 85
l302 265q36 17 66 17q90 0 114 -155z" />
    <glyph glyph-name="Uogonek" unicode="&#x172;" horiz-adv-x="1237" 
d="M1121 391q0 -201 -167 -318q-148 -104 -363 -105q-216 0 -366 104q-168 117 -168 319v1042h235v-1042q0 -104 91 -159q79 -49 202 -49h5q126 0 206 49q90 56 90 159v1042h235v-1042zM692 20q-197 -171 -197 -245q0 -23 14 -37q11 -6 33 -6q50 0 137 42q18 5 30 5
q51 0 51 -48v-57q-137 -85 -238 -85q-48 0 -92 19q-97 57 -97 139q0 112 201 273h158z" />
    <glyph glyph-name="uogonek" unicode="&#x173;" horiz-adv-x="1138" 
d="M476 -32q-392 0 -392 367v721h113q48 0 80 -32q33 -33 33 -76v-590q0 -184 193 -184q234 0 296 178v596q0 43 33 76q32 32 80 32h113v-1076h-113q-48 0 -81 32q-32 32 -32 76q-90 -120 -323 -120zM1057 20q-197 -171 -197 -245q0 -23 14 -37q11 -6 33 -6q50 0 137 42
q18 5 30 5q51 0 51 -48v-57q-137 -85 -238 -85q-48 0 -92 19q-97 57 -97 139q0 112 201 273h158z" />
    <glyph glyph-name="Wcircumflex" unicode="&#x174;" horiz-adv-x="2083" 
d="M556 254l297 1053q30 125 156 125h89q125 0 156 -124l297 -1054l297 1053q32 125 157 125h119l-376 -1337q-32 -126 -158 -126h-78q-125 0 -156 124l-302 1072l-302 -1070q-32 -126 -157 -126h-78q-126 0 -157 124l-377 1339h119q126 0 157 -124zM1054 1602l-281 -146
l-74 85q145 125 307 269h95l307 -269l-73 -85z" />
    <glyph glyph-name="wcircumflex" unicode="&#x175;" horiz-adv-x="1538" 
d="M97 1056q113 0 142 -106l172 -711l157 711q29 106 141 106h76q112 0 141 -106l179 -711l150 711q29 106 142 106h98l-195 -969q-29 -107 -142 -107h-103q-112 0 -141 106l-171 684l-138 -683q-29 -107 -142 -107h-102q-113 0 -142 106l-242 970h120zM737 1225l-281 -146
l-74 85q145 125 307 269h95l307 -269l-73 -85z" />
    <glyph glyph-name="Ycircumflex" unicode="&#x176;" horiz-adv-x="1136" 
d="M682 88q0 -43 -33 -76q-32 -32 -80 -32h-122v623q-140 1 -200 48q-67 50 -113 226l-152 556h126q104 0 126 -81l130 -456q17 -61 43 -74q21 -12 95 -12h125q73 0 94 12q26 13 44 74l130 456q21 81 125 81h126l-152 -556q-45 -169 -111 -221q-63 -49 -201 -52v-516z
M565 1602l-281 -146l-74 85q145 125 307 269h95l307 -269l-73 -85z" />
    <glyph glyph-name="ycircumflex" unicode="&#x177;" horiz-adv-x="1141" 
d="M1024 143q0 -550 -514 -550q-250 0 -427 106v93q0 72 73 72q19 0 44 -6q158 -59 310 -59q164 0 231 97q57 81 57 247q-100 -175 -323 -175q-392 0 -392 367v721h113q48 0 80 -32q33 -33 33 -76v-590q0 -184 193 -184q227 0 296 195v579q0 43 33 76q32 32 80 32h113v-913z
M554 1225l-281 -146l-74 85q145 125 307 269h95l307 -269l-73 -85z" />
    <glyph glyph-name="Ydieresis" unicode="&#x178;" horiz-adv-x="1136" 
d="M682 88q0 -43 -33 -76q-32 -32 -80 -32h-122v623q-140 1 -200 48q-67 50 -113 226l-152 556h126q104 0 126 -81l130 -456q17 -61 43 -74q21 -12 95 -12h125q73 0 94 12q26 13 44 74l130 456q21 81 125 81h126l-152 -556q-45 -169 -111 -221q-63 -49 -201 -52v-516z
M280 1606q0 43 35 76q32 32 83 32h117v-145q0 -43 -35 -76q-32 -32 -82 -32h-118v145zM848 1461h-118q-50 0 -82 32q-35 33 -35 76v145h117q51 0 83 -32q35 -33 35 -76v-145z" />
    <glyph glyph-name="Zacute" unicode="&#x179;" horiz-adv-x="1100" 
d="M954 1432q50 0 82 -32q34 -34 34 -79v-107l-788 -1024h671q50 0 82 -32q34 -34 34 -79v-99h-940q-50 0 -83 35q-33 31 -33 76v107l788 1024h-672q-50 0 -83 35q-33 31 -33 76v99h941zM442 1456l-73 85l302 265q36 17 66 17q90 0 114 -155z" />
    <glyph glyph-name="zacute" unicode="&#x17a;" horiz-adv-x="874" 
d="M731 1056q48 0 80 -32q33 -33 33 -76v-86l-541 -675h428q48 0 81 -32q32 -32 32 -76v-99h-713q-48 0 -81 32q-32 32 -32 76v85l541 675h-428q-48 0 -81 33q-32 31 -32 75v100h713zM331 1079l-73 85l302 265q36 17 66 17q90 0 114 -155z" />
    <glyph glyph-name="Zdotaccent" unicode="&#x17b;" horiz-adv-x="1100" 
d="M954 1432q50 0 82 -32q34 -34 34 -79v-107l-788 -1024h671q50 0 82 -32q34 -34 34 -79v-99h-940q-50 0 -83 35q-33 31 -33 76v107l788 1024h-672q-50 0 -83 35q-33 31 -33 76v99h941zM424 1606q0 43 35 76q32 32 83 32h117v-145q0 -43 -35 -76q-32 -32 -82 -32h-118v145z
" />
    <glyph glyph-name="zdotaccent" unicode="&#x17c;" horiz-adv-x="874" 
d="M731 1056q48 0 80 -32q33 -33 33 -76v-86l-541 -675h428q48 0 81 -32q32 -32 32 -76v-99h-713q-48 0 -81 32q-32 32 -32 76v85l541 675h-428q-48 0 -81 33q-32 31 -32 75v100h713zM314 1229q0 43 35 76q32 32 83 32h117v-145q0 -43 -35 -76q-32 -32 -82 -32h-118v145z
" />
    <glyph glyph-name="Zcaron" unicode="&#x17d;" horiz-adv-x="1100" 
d="M954 1432q50 0 82 -32q34 -34 34 -79v-107l-788 -1024h671q50 0 82 -32q34 -34 34 -79v-99h-940q-50 0 -83 35q-33 31 -33 76v107l788 1024h-672q-50 0 -83 35q-33 31 -33 76v99h941zM823 1817l73 -85l-307 -269h-95q-162 144 -307 269l74 85l281 -146z" />
    <glyph glyph-name="zcaron" unicode="&#x17e;" horiz-adv-x="874" 
d="M731 1056q48 0 80 -32q33 -33 33 -76v-86l-541 -675h428q48 0 81 -32q32 -32 32 -76v-99h-713q-48 0 -81 32q-32 32 -32 76v85l541 675h-428q-48 0 -81 33q-32 31 -32 75v100h713zM713 1440l73 -85l-307 -269h-95q-162 144 -307 269l74 85l281 -146z" />
    <glyph glyph-name="longs" unicode="&#x17f;" horiz-adv-x="707" 
d="M355 88q0 -44 -32 -75q-33 -33 -81 -33h-113v1076q0 216 118 307q102 80 322 80q100 0 223 -28v-100q0 -88 -112 -88q-60 10 -111 10q-117 0 -161 -32q-53 -38 -53 -149v-968z" />
    <glyph glyph-name="uni0218" unicode="&#x218;" horiz-adv-x="1140" 
d="M745 236q92 58 92 160q0 123 -117 171q-55 23 -280 57q-207 31 -300 95q-140 95 -140 298t153 323q140 112 349 112q230 0 500 -97v-73q0 -45 -34 -79q-33 -33 -88 -33q-215 67 -378 67q-108 0 -183 -55q-84 -61 -84 -165q0 -109 117 -151q41 -15 285 -51
q205 -31 301 -102q134 -98 134 -304v-12q-4 -202 -164 -321q-145 -108 -355 -108q-230 0 -500 97v73q0 45 34 79q33 33 88 33q215 -67 378 -67q110 0 192 53zM376 -438q100 123 100 306q0 31 31 52q28 20 68 20h99v-38q0 -163 -150 -311q-28 -29 -59 -29h-89z" />
    <glyph glyph-name="uni0219" unicode="&#x219;" horiz-adv-x="907" 
d="M812 961v-93q0 -72 -72 -72q-19 0 -45 7q-159 58 -284 58q-75 0 -116 -38q-39 -34 -39 -85q0 -58 79 -83l197 -38q145 -26 215 -84q95 -78 95 -227v-9q-2 -133 -101 -226q-110 -103 -294 -103q-225 0 -402 106v93q0 72 73 72q19 0 44 -6q159 -59 285 -59q76 0 123 39
q43 35 43 84q0 69 -76 98q-25 9 -197 40q-144 27 -211 77q-102 77 -102 226q0 134 94 226q105 104 290 104q224 0 401 -107zM275 -438q100 123 100 306q0 31 31 52q28 20 68 20h99v-38q0 -163 -150 -311q-28 -29 -59 -29h-89z" />
    <glyph glyph-name="uni021A" unicode="&#x21a;" horiz-adv-x="976" 
d="M96 1225q-48 0 -81 33q-32 31 -32 75v100h944q48 0 80 -32q33 -33 33 -76v-100h-411v-1137q0 -43 -33 -76q-32 -32 -80 -32h-122v1245h-298zM352 -438q100 123 100 306q0 31 31 52q28 20 68 20h99v-38q0 -163 -150 -311q-28 -29 -59 -29h-89z" />
    <glyph glyph-name="uni021B" unicode="&#x21b;" horiz-adv-x="813" 
d="M121 848q-48 0 -81 33q-32 31 -32 75v100h145v163q0 44 32 75q33 33 81 33h113v-271h304q48 0 80 -32q33 -33 33 -76v-100h-417v-493q0 -112 53 -150q45 -31 162 -31q51 0 111 9q112 0 112 -88v-100q-123 -27 -223 -27q-221 0 -323 80q-118 91 -118 307v493h-32z
M234 -438q100 123 100 306q0 31 31 52q28 20 68 20h99v-38q0 -163 -150 -311q-28 -29 -59 -29h-89z" />
    <glyph glyph-name="uni0232" unicode="&#x232;" horiz-adv-x="1136" 
d="M682 88q0 -43 -33 -76q-32 -32 -80 -32h-122v623q-140 1 -200 48q-67 50 -113 226l-152 556h126q104 0 126 -81l130 -456q17 -61 43 -74q21 -12 95 -12h125q73 0 94 12q26 13 44 74l130 456q21 81 125 81h126l-152 -556q-45 -169 -111 -221q-63 -49 -201 -52v-516z
M329 1487q-41 0 -69 36q-22 33 -22 75v69h561q42 0 70 -36q21 -32 21 -74v-70h-561z" />
    <glyph glyph-name="uni0233" unicode="&#x233;" horiz-adv-x="1141" 
d="M1024 143q0 -550 -514 -550q-250 0 -427 106v93q0 72 73 72q19 0 44 -6q158 -59 310 -59q164 0 231 97q57 81 57 247q-100 -175 -323 -175q-392 0 -392 367v721h113q48 0 80 -32q33 -33 33 -76v-590q0 -184 193 -184q227 0 296 195v579q0 43 33 76q32 32 80 32h113v-913z
M319 1110q-41 0 -69 36q-22 33 -22 75v69h561q42 0 70 -36q21 -32 21 -74v-70h-561z" />
    <glyph glyph-name="uni1E0C" unicode="&#x1e0c;" horiz-adv-x="1356" 
d="M1230 535q0 -260 -165 -409q-161 -146 -427 -146h-593v917q0 259 165 409q161 146 428 146q266 0 427 -146q165 -150 165 -409v-362zM638 188q159 0 255 87q102 91 102 252v370q0 161 -102 253q-96 87 -255 87q-160 0 -256 -87q-102 -92 -102 -253v-709h358zM534 -237
q0 38 29 65q30 30 74 30h104v-126q0 -38 -31 -67q-29 -28 -73 -28h-103v126z" />
    <glyph glyph-name="uni1E0D" unicode="&#x1e0d;" horiz-adv-x="1180" 
d="M846 811q-140 51 -288 51q-159 0 -228 -91q-61 -81 -61 -253q0 -173 58 -253q65 -91 223 -91q227 0 296 195v442zM523 -32q-480 0 -480 550t515 550q175 0 288 -43v300q0 43 33 76q32 32 80 32h113v-1453h-113q-48 0 -81 33q-32 31 -32 75q-80 -120 -323 -120zM454 -237
q0 38 29 65q30 30 74 30h104v-126q0 -38 -31 -67q-29 -28 -73 -28h-103v126z" />
    <glyph glyph-name="uni1E24" unicode="&#x1e24;" horiz-adv-x="1301" 
d="M304 88q0 -43 -33 -76q-32 -32 -80 -32h-122v1453h122q48 0 80 -32q33 -33 33 -76v-515h618v515q0 43 33 76q32 32 80 32h122v-1453h-122q-48 0 -80 32q-33 33 -33 76v514h-618v-514zM509 -237q0 38 29 65q30 30 74 30h104v-126q0 -38 -31 -67q-29 -28 -73 -28h-103v126z
" />
    <glyph glyph-name="uni1E25" unicode="&#x1e25;" horiz-adv-x="1144" 
d="M1034 -20h-113q-48 0 -81 33q-32 31 -32 75v590q0 184 -193 184q-227 0 -296 -194v-580q0 -44 -32 -75q-33 -33 -81 -33h-113v1453h113q48 0 80 -32q33 -33 33 -76v-383q101 126 323 126q392 0 392 -367v-721zM460 -237q0 38 29 65q30 30 74 30h104v-126q0 -38 -31 -67
q-29 -28 -73 -28h-103v126z" />
    <glyph glyph-name="uni1E32" unicode="&#x1e32;" horiz-adv-x="1193" 
d="M581 810q92 1 118 18q33 22 60 115l117 409q21 81 125 81h126l-157 -574q-23 -88 -59 -110q53 -35 100 -213l152 -556h-126q-104 0 -125 80l-130 457q-18 60 -44 74q-20 11 -95 11h-339v-514q0 -43 -33 -76q-32 -32 -80 -32h-122v1453h122q48 0 80 -32q33 -33 33 -76
v-515h277zM509 -237q0 38 29 65q30 30 74 30h104v-126q0 -38 -31 -67q-29 -28 -73 -28h-103v126z" />
    <glyph glyph-name="uni1E33" unicode="&#x1e33;" horiz-adv-x="1036" 
d="M95 1433h113q48 0 80 -32q33 -33 33 -76v-703h233q72 0 88 41l105 309q28 84 135 84h121l-132 -388q-33 -97 -56 -113q44 -32 75 -123l154 -452h-121q-107 0 -133 78l-107 314q-14 42 -69 42h-293v-326q0 -44 -32 -75q-33 -33 -81 -33h-113v1453zM462 -237q0 38 29 65
q30 30 74 30h104v-126q0 -38 -31 -67q-29 -28 -73 -28h-103v126z" />
    <glyph glyph-name="uni1E36" unicode="&#x1e36;" 
d="M45 1440h117q51 0 84 -33q34 -34 34 -79v-805q0 -162 102 -253q96 -87 256 -87q162 0 377 67q55 0 90 -34q33 -33 33 -78v-73q-270 -97 -500 -97q-267 0 -428 146q-165 149 -165 409v917zM488 -237q0 38 29 65q30 30 74 30h104v-126q0 -38 -31 -67q-29 -28 -73 -28h-103
v126z" />
    <glyph glyph-name="uni1E37" unicode="&#x1e37;" horiz-adv-x="532" 
d="M88 1433h113q48 0 80 -32q33 -33 33 -76v-978q0 -148 30 -157q21 -7 50 -7q21 0 48 4q112 0 112 -89v-100q-99 -23 -180 -23q-25 0 -50 2q-114 8 -175 86.5t-61 283.5v1086zM217 -237q0 38 29 65q30 30 74 30h104v-126q0 -38 -31 -67q-29 -28 -73 -28h-103v126z" />
    <glyph glyph-name="uni1E38" unicode="&#x1e38;" 
d="M45 1440h117q51 0 84 -33q34 -34 34 -79v-805q0 -162 102 -253q96 -87 256 -87q162 0 377 67q55 0 90 -34q33 -33 33 -78v-73q-270 -97 -500 -97q-267 0 -428 146q-165 149 -165 409v917zM357 1487q-41 0 -69 36q-22 33 -22 75v69h561q42 0 70 -36q21 -32 21 -74v-70
h-561zM488 -237q0 38 29 65q30 30 74 30h104v-126q0 -38 -31 -67q-29 -28 -73 -28h-103v126z" />
    <glyph glyph-name="uni1E39" unicode="&#x1e39;" horiz-adv-x="532" 
d="M181 1433h113q48 0 80 -32q33 -33 33 -76v-978q0 -148 30 -157q21 -7 50 -7q21 0 48 4q112 0 112 -89v-100q-99 -23 -180 -23q-25 0 -50 2q-114 8 -175 86.5t-61 283.5v1086zM179 1487q-41 0 -69 36q-22 33 -22 75v69h561q42 0 70 -36q21 -32 21 -74v-70h-561zM310 -237
q0 38 29 65q30 30 74 30h104v-126q0 -38 -31 -67q-29 -28 -73 -28h-103v126z" />
    <glyph glyph-name="uni1E3A" unicode="&#x1e3a;" 
d="M45 1440h117q51 0 84 -33q34 -34 34 -79v-805q0 -162 102 -253q96 -87 256 -87q162 0 377 67q55 0 90 -34q33 -33 33 -78v-73q-270 -97 -500 -97q-267 0 -428 146q-165 149 -165 409v917zM210 -343q-41 0 -69 36q-22 33 -22 75v69h855q42 0 70 -36q21 -32 21 -74v-70
h-855z" />
    <glyph glyph-name="uni1E3B" unicode="&#x1e3b;" horiz-adv-x="532" 
d="M328 1433h113q48 0 80 -32q33 -33 33 -76v-978q0 -148 30 -157q21 -7 50 -7q21 0 48 4q112 0 112 -89v-100q-99 -23 -180 -23q-25 0 -50 2q-114 8 -175 86.5t-61 283.5v1086zM179 -343q-41 0 -69 36q-22 33 -22 75v69h855q42 0 70 -36q21 -32 21 -74v-70h-855z" />
    <glyph glyph-name="uni1E40" unicode="&#x1e40;" horiz-adv-x="1791" 
d="M68 -20v1348q0 45 34 79q33 33 83 33h95q112 -1 155 -109l423 -1092l424 1092q43 108 155 109h95q50 0 83 -33q34 -34 34 -79v-1348h-117q-51 0 -84 33q-34 34 -34 79v986l-387 -998q-39 -100 -136 -100h-65q-97 0 -136 100l-387 998v-986q0 -45 -34 -79q-33 -33 -84 -33
h-117zM741 1606q0 43 35 76q32 32 83 32h117v-145q0 -43 -35 -76q-32 -32 -82 -32h-118v145z" />
    <glyph glyph-name="uni1E41" unicode="&#x1e41;" horiz-adv-x="1676" 
d="M713 678q0 112 -41 151q-33 33 -117 33q-174 0 -243 -194v-580q0 -44 -32 -75q-33 -33 -81 -33h-113v1076h113q48 0 81 -33q32 -31 32 -75q91 120 270 120q280 0 325 -168q91 168 302 168q358 0 358 -367v-721h-113q-49 0 -81 34q-32 30 -32 74v590q0 112 -41 151
q-34 33 -118 33q-174 0 -243 -194v-580q0 -44 -32 -76t-81 -32h-113v698zM709 1229q0 43 35 76q32 32 83 32h117v-145q0 -43 -35 -76q-32 -32 -82 -32h-118v145z" />
    <glyph glyph-name="uni1E42" unicode="&#x1e42;" horiz-adv-x="1791" 
d="M68 -20v1348q0 45 34 79q33 33 83 33h95q112 -1 155 -109l423 -1092l424 1092q43 108 155 109h95q50 0 83 -33q34 -34 34 -79v-1348h-117q-51 0 -84 33q-34 34 -34 79v986l-387 -998q-39 -100 -136 -100h-65q-97 0 -136 100l-387 998v-986q0 -45 -34 -79q-33 -33 -84 -33
h-117zM755 -237q0 38 29 65q30 30 74 30h104v-126q0 -38 -31 -67q-29 -28 -73 -28h-103v126z" />
    <glyph glyph-name="uni1E43" unicode="&#x1e43;" horiz-adv-x="1676" 
d="M713 678q0 112 -41 151q-33 33 -117 33q-174 0 -243 -194v-580q0 -44 -32 -75q-33 -33 -81 -33h-113v1076h113q48 0 81 -33q32 -31 32 -75q91 120 270 120q280 0 325 -168q91 168 302 168q358 0 358 -367v-721h-113q-49 0 -81 34q-32 30 -32 74v590q0 112 -41 151
q-34 33 -118 33q-174 0 -243 -194v-580q0 -44 -32 -76t-81 -32h-113v698zM723 -237q0 38 29 65q30 30 74 30h104v-126q0 -38 -31 -67q-29 -28 -73 -28h-103v126z" />
    <glyph glyph-name="uni1E44" unicode="&#x1e44;" horiz-adv-x="1397" 
d="M68 1328q0 45 34 79q33 33 83 33h206l627 -1171v1171h235v-1348q0 -45 -34 -79q-33 -33 -83 -33h-206l-627 1171v-1059q0 -45 -34 -79q-33 -33 -84 -33h-117v1348zM543 1606q0 43 35 76q32 32 83 32h117v-145q0 -43 -35 -76q-32 -32 -82 -32h-118v145z" />
    <glyph glyph-name="uni1E45" unicode="&#x1e45;" horiz-adv-x="1134" 
d="M1027 -20h-113q-48 0 -81 33q-32 31 -32 75v590q0 184 -193 184q-227 0 -296 -195v-579q0 -44 -32 -75q-33 -33 -81 -33h-113v1076h113q48 0 81 -33q32 -31 32 -75q101 120 323 120q392 0 392 -367v-721zM439 1229q0 43 35 76q32 32 83 32h117v-145q0 -43 -35 -76
q-32 -32 -82 -32h-118v145z" />
    <glyph glyph-name="uni1E46" unicode="&#x1e46;" horiz-adv-x="1397" 
d="M68 1328q0 45 34 79q33 33 83 33h206l627 -1171v1171h235v-1348q0 -45 -34 -79q-33 -33 -83 -33h-206l-627 1171v-1059q0 -45 -34 -79q-33 -33 -84 -33h-117v1348zM557 -237q0 38 29 65q30 30 74 30h104v-126q0 -38 -31 -67q-29 -28 -73 -28h-103v126z" />
    <glyph glyph-name="uni1E47" unicode="&#x1e47;" horiz-adv-x="1134" 
d="M1027 -20h-113q-48 0 -81 33q-32 31 -32 75v590q0 184 -193 184q-227 0 -296 -195v-579q0 -44 -32 -75q-33 -33 -81 -33h-113v1076h113q48 0 81 -33q32 -31 32 -75q101 120 323 120q392 0 392 -367v-721zM453 -237q0 38 29 65q30 30 74 30h104v-126q0 -38 -31 -67
q-29 -28 -73 -28h-103v126z" />
    <glyph glyph-name="uni1E48" unicode="&#x1e48;" horiz-adv-x="1397" 
d="M68 1328q0 45 34 79q33 33 83 33h206l627 -1171v1171h235v-1348q0 -45 -34 -79q-33 -33 -83 -33h-206l-627 1171v-1059q0 -45 -34 -79q-33 -33 -84 -33h-117v1348zM279 -343q-41 0 -69 36q-22 33 -22 75v69h855q42 0 70 -36q21 -32 21 -74v-70h-855z" />
    <glyph glyph-name="uni1E49" unicode="&#x1e49;" horiz-adv-x="1134" 
d="M1029 -20h-113q-48 0 -81 33q-32 31 -32 75v590q0 184 -193 184q-227 0 -296 -195v-579q0 -44 -32 -75q-33 -33 -81 -33h-113v1076h113q48 0 81 -33q32 -31 32 -75q101 120 323 120q392 0 392 -367v-721zM177 -343q-41 0 -69 36q-22 33 -22 75v69h855q42 0 70 -36
q21 -32 21 -74v-70h-855z" />
    <glyph glyph-name="uni1E58" unicode="&#x1e58;" horiz-adv-x="1206" 
d="M297 773h236q358 0 358 256q0 103 -90 159q-80 49 -206 49h-5q-123 0 -202 -49q-91 -55 -91 -159v-256zM1044 328l157 -348h-156q-89 0 -125 77l-121 271l-67 149q-33 88 -174 88h-261v-585h-235v1049q0 202 168 319q149 104 362 104h4q215 -1 363 -105
q167 -117 167 -318q0 -313 -233 -401q35 -22 111 -212zM509 1606q0 43 35 76q32 32 83 32h117v-145q0 -43 -35 -76q-32 -32 -82 -32h-118v145z" />
    <glyph glyph-name="uni1E59" unicode="&#x1e59;" horiz-adv-x="840" 
d="M86 1056h113q48 0 80 -32q33 -33 33 -76q91 120 270 120q99 0 223 -28v-100q0 -88 -112 -88q-61 9 -138 9q-174 0 -243 -194v-579q0 -44 -32 -76q-33 -32 -81 -32h-113v1076zM328 1229q0 43 35 76q32 32 83 32h117v-145q0 -43 -35 -76q-32 -32 -82 -32h-118v145z" />
    <glyph glyph-name="uni1E5A" unicode="&#x1e5a;" horiz-adv-x="1206" 
d="M297 773h236q358 0 358 256q0 103 -90 159q-80 49 -206 49h-5q-123 0 -202 -49q-91 -55 -91 -159v-256zM1044 328l157 -348h-156q-89 0 -125 77l-121 271l-67 149q-33 88 -174 88h-261v-585h-235v1049q0 202 168 319q149 104 362 104h4q215 -1 363 -105
q167 -117 167 -318q0 -313 -233 -401q35 -22 111 -212zM522 -237q0 38 29 65q30 30 74 30h104v-126q0 -38 -31 -67q-29 -28 -73 -28h-103v126z" />
    <glyph glyph-name="uni1E5B" unicode="&#x1e5b;" horiz-adv-x="840" 
d="M86 1056h113q48 0 80 -32q33 -33 33 -76q91 120 270 120q99 0 223 -28v-100q0 -88 -112 -88q-61 9 -138 9q-174 0 -243 -194v-579q0 -44 -32 -76q-33 -32 -81 -32h-113v1076zM228 -237q0 38 29 65q30 30 74 30h104v-126q0 -38 -31 -67q-29 -28 -73 -28h-103v126z" />
    <glyph glyph-name="uni1E5C" unicode="&#x1e5c;" horiz-adv-x="1206" 
d="M297 773h236q358 0 358 256q0 103 -90 159q-80 49 -206 49h-5q-123 0 -202 -49q-91 -55 -91 -159v-256zM1044 328l157 -348h-156q-89 0 -125 77l-121 271l-67 149q-33 88 -174 88h-261v-585h-235v1049q0 202 168 319q149 104 362 104h4q215 -1 363 -105
q167 -117 167 -318q0 -313 -233 -401q35 -22 111 -212zM391 1487q-41 0 -69 36q-22 33 -22 75v69h561q42 0 70 -36q21 -32 21 -74v-70h-561zM522 -237q0 38 29 65q30 30 74 30h104v-126q0 -38 -31 -67q-29 -28 -73 -28h-103v126z" />
    <glyph glyph-name="uni1E5D" unicode="&#x1e5d;" horiz-adv-x="840" 
d="M86 1056h113q48 0 80 -32q33 -33 33 -76q91 120 270 120q99 0 223 -28v-100q0 -88 -112 -88q-61 9 -138 9q-174 0 -243 -194v-579q0 -44 -32 -76q-33 -32 -81 -32h-113v1076zM211 1110q-41 0 -69 36q-22 33 -22 75v69h561q42 0 70 -36q21 -32 21 -74v-70h-561zM228 -237
q0 38 29 65q30 30 74 30h104v-126q0 -38 -31 -67q-29 -28 -73 -28h-103v126z" />
    <glyph glyph-name="uni1E5E" unicode="&#x1e5e;" horiz-adv-x="1206" 
d="M297 773h236q358 0 358 256q0 103 -90 159q-80 49 -206 49h-5q-123 0 -202 -49q-91 -55 -91 -159v-256zM1044 328l157 -348h-156q-89 0 -125 77l-121 271l-67 149q-33 88 -174 88h-261v-585h-235v1049q0 202 168 319q149 104 362 104h4q215 -1 363 -105
q167 -117 167 -318q0 -313 -233 -401q35 -22 111 -212zM244 -343q-41 0 -69 36q-22 33 -22 75v69h855q42 0 70 -36q21 -32 21 -74v-70h-855z" />
    <glyph glyph-name="uni1E5F" unicode="&#x1e5f;" horiz-adv-x="840" 
d="M313 1056h113q48 0 80 -32q33 -33 33 -76q91 120 270 120q99 0 223 -28v-100q0 -88 -112 -88q-61 9 -138 9q-174 0 -243 -194v-579q0 -44 -32 -76q-33 -32 -81 -32h-113v1076zM177 -343q-41 0 -69 36q-22 33 -22 75v69h855q42 0 70 -36q21 -32 21 -74v-70h-855z" />
    <glyph glyph-name="uni1E62" unicode="&#x1e62;" horiz-adv-x="1140" 
d="M745 236q92 58 92 160q0 123 -117 171q-55 23 -280 57q-207 31 -300 95q-140 95 -140 298t153 323q140 112 349 112q230 0 500 -97v-73q0 -45 -34 -79q-33 -33 -88 -33q-215 67 -378 67q-108 0 -183 -55q-84 -61 -84 -165q0 -109 117 -151q41 -15 285 -51
q205 -31 301 -102q134 -98 134 -304v-12q-4 -202 -164 -321q-145 -108 -355 -108q-230 0 -500 97v73q0 45 34 79q33 33 88 33q215 -67 378 -67q110 0 192 53zM432 -237q0 38 29 65q30 30 74 30h104v-126q0 -38 -31 -67q-29 -28 -73 -28h-103v126z" />
    <glyph glyph-name="uni1E63" unicode="&#x1e63;" horiz-adv-x="907" 
d="M812 961v-93q0 -72 -72 -72q-19 0 -45 7q-159 58 -284 58q-75 0 -116 -38q-39 -34 -39 -85q0 -58 79 -83l197 -38q145 -26 215 -84q95 -78 95 -227v-9q-2 -133 -101 -226q-110 -103 -294 -103q-225 0 -402 106v93q0 72 73 72q19 0 44 -6q159 -59 285 -59q76 0 123 39
q43 35 43 84q0 69 -76 98q-25 9 -197 40q-144 27 -211 77q-102 77 -102 226q0 134 94 226q105 104 290 104q224 0 401 -107zM331 -237q0 38 29 65q30 30 74 30h104v-126q0 -38 -31 -67q-29 -28 -73 -28h-103v126z" />
    <glyph glyph-name="uni1E6C" unicode="&#x1e6c;" horiz-adv-x="976" 
d="M96 1225q-48 0 -81 33q-32 31 -32 75v100h944q48 0 80 -32q33 -33 33 -76v-100h-411v-1137q0 -43 -33 -76q-32 -32 -80 -32h-122v1245h-298zM408 -237q0 38 29 65q30 30 74 30h104v-126q0 -38 -31 -67q-29 -28 -73 -28h-103v126z" />
    <glyph glyph-name="uni1E6D" unicode="&#x1e6d;" horiz-adv-x="813" 
d="M121 848q-48 0 -81 33q-32 31 -32 75v100h145v163q0 44 32 75q33 33 81 33h113v-271h304q48 0 80 -32q33 -33 33 -76v-100h-417v-493q0 -112 53 -150q45 -31 162 -31q51 0 111 9q112 0 112 -88v-100q-123 -27 -223 -27q-221 0 -323 80q-118 91 -118 307v493h-32z
M290 -237q0 38 29 65q30 30 74 30h104v-126q0 -38 -31 -67q-29 -28 -73 -28h-103v126z" />
    <glyph glyph-name="Wgrave" unicode="&#x1e80;" horiz-adv-x="2083" 
d="M556 254l297 1053q30 125 156 125h89q125 0 156 -124l297 -1054l297 1053q32 125 157 125h119l-376 -1337q-32 -126 -158 -126h-78q-125 0 -156 124l-302 1072l-302 -1070q-32 -126 -157 -126h-78q-126 0 -157 124l-377 1339h119q126 0 157 -124zM745 1668
q24 155 114 155q30 0 66 -17l302 -265l-73 -85z" />
    <glyph glyph-name="wgrave" unicode="&#x1e81;" horiz-adv-x="1538" 
d="M97 1056q113 0 142 -106l172 -711l157 711q29 106 141 106h76q112 0 141 -106l179 -711l150 711q29 106 142 106h98l-195 -969q-29 -107 -142 -107h-103q-112 0 -141 106l-171 684l-138 -683q-29 -107 -142 -107h-102q-113 0 -142 106l-242 970h120zM428 1291
q24 155 114 155q30 0 66 -17l302 -265l-73 -85z" />
    <glyph glyph-name="Wacute" unicode="&#x1e82;" horiz-adv-x="2083" 
d="M556 254l297 1053q30 125 156 125h89q125 0 156 -124l297 -1054l297 1053q32 125 157 125h119l-376 -1337q-32 -126 -158 -126h-78q-125 0 -156 124l-302 1072l-302 -1070q-32 -126 -157 -126h-78q-126 0 -157 124l-377 1339h119q126 0 157 -124zM954 1456l-73 85
l302 265q36 17 66 17q90 0 114 -155z" />
    <glyph glyph-name="wacute" unicode="&#x1e83;" horiz-adv-x="1538" 
d="M97 1056q113 0 142 -106l172 -711l157 711q29 106 141 106h76q112 0 141 -106l179 -711l150 711q29 106 142 106h98l-195 -969q-29 -107 -142 -107h-103q-112 0 -141 106l-171 684l-138 -683q-29 -107 -142 -107h-102q-113 0 -142 106l-242 970h120zM637 1079l-73 85
l302 265q36 17 66 17q90 0 114 -155z" />
    <glyph glyph-name="Wdieresis" unicode="&#x1e84;" horiz-adv-x="2083" 
d="M556 254l297 1053q30 125 156 125h89q125 0 156 -124l297 -1054l297 1053q32 125 157 125h119l-376 -1337q-32 -126 -158 -126h-78q-125 0 -156 124l-302 1072l-302 -1070q-32 -126 -157 -126h-78q-126 0 -157 124l-377 1339h119q126 0 157 -124zM770 1606q0 43 35 76
q32 32 83 32h117v-145q0 -43 -35 -76q-32 -32 -82 -32h-118v145zM1338 1461h-118q-50 0 -82 32q-35 33 -35 76v145h117q51 0 83 -32q35 -33 35 -76v-145z" />
    <glyph glyph-name="wdieresis" unicode="&#x1e85;" horiz-adv-x="1538" 
d="M97 1056q113 0 142 -106l172 -711l157 711q29 106 141 106h76q112 0 141 -106l179 -711l150 711q29 106 142 106h98l-195 -969q-29 -107 -142 -107h-103q-112 0 -141 106l-171 684l-138 -683q-29 -107 -142 -107h-102q-113 0 -142 106l-242 970h120zM453 1229q0 43 35 76
q32 32 83 32h117v-145q0 -43 -35 -76q-32 -32 -82 -32h-118v145zM1021 1084h-118q-50 0 -82 32q-35 33 -35 76v145h117q51 0 83 -32q35 -33 35 -76v-145z" />
    <glyph glyph-name="uni1E88" unicode="&#x1e88;" horiz-adv-x="2083" 
d="M556 254l297 1053q30 125 156 125h89q125 0 156 -124l297 -1054l297 1053q32 125 157 125h119l-376 -1337q-32 -126 -158 -126h-78q-125 0 -156 124l-302 1072l-302 -1070q-32 -126 -157 -126h-78q-126 0 -157 124l-377 1339h119q126 0 157 -124zM950 -237q0 38 29 65
q30 30 74 30h104v-126q0 -38 -31 -67q-29 -28 -73 -28h-103v126z" />
    <glyph glyph-name="uni1E89" unicode="&#x1e89;" horiz-adv-x="1538" 
d="M97 1056q113 0 142 -106l172 -711l157 711q29 106 141 106h76q112 0 141 -106l179 -711l150 711q29 106 142 106h98l-195 -969q-29 -107 -142 -107h-103q-112 0 -141 106l-171 684l-138 -683q-29 -107 -142 -107h-102q-113 0 -142 106l-242 970h120zM633 -237q0 38 29 65
q30 30 74 30h104v-126q0 -38 -31 -67q-29 -28 -73 -28h-103v126z" />
    <glyph glyph-name="uni1E92" unicode="&#x1e92;" horiz-adv-x="1100" 
d="M954 1432q50 0 82 -32q34 -34 34 -79v-107l-788 -1024h671q50 0 82 -32q34 -34 34 -79v-99h-940q-50 0 -83 35q-33 31 -33 76v107l788 1024h-672q-50 0 -83 35q-33 31 -33 76v99h941zM438 -237q0 38 29 65q30 30 74 30h104v-126q0 -38 -31 -67q-29 -28 -73 -28h-103v126z
" />
    <glyph glyph-name="uni1E93" unicode="&#x1e93;" horiz-adv-x="874" 
d="M731 1056q48 0 80 -32q33 -33 33 -76v-86l-541 -675h428q48 0 81 -32q32 -32 32 -76v-99h-713q-48 0 -81 32q-32 32 -32 76v85l541 675h-428q-48 0 -81 33q-32 31 -32 75v100h713zM327 -237q0 38 29 65q30 30 74 30h104v-126q0 -38 -31 -67q-29 -28 -73 -28h-103v126z
" />
    <glyph glyph-name="uni1EBC" unicode="&#x1ebc;" horiz-adv-x="1133" 
d="M0 897q0 259 165 409q161 146 427 146q231 0 501 -97v-73q0 -45 -34 -78q-34 -34 -89 -34q-214 67 -378 67q-159 0 -255 -87q-102 -92 -102 -253v-68h652q49 0 80 -31q33 -33 33 -77v-99h-765v-99q0 -162 102 -253q96 -87 255 -87q164 0 378 67q55 0 89 -34
q34 -33 34 -78v-73q-270 -97 -501 -97q-266 0 -427 146q-165 149 -165 409v374zM882 1617q-104 -125 -216 -125q-66 0 -134 42q-75 46 -138 46q-59 0 -141 -69l-42 116q98 115 205 115q67 0 138 -43t132 -43q66 0 153 78z" />
    <glyph glyph-name="uni1EBD" unicode="&#x1ebd;" horiz-adv-x="1065" 
d="M761 626q-9 111 -47 165q-51 71 -185 71q-137 0 -196 -71q-49 -59 -57 -165h485zM44 518q0 550 485 550q264 0 376 -166q88 -129 88 -383q0 -101 -113 -101h-605q6 -244 284 -244q151 0 309 59q25 6 45 6q72 0 72 -71v-94q-177 -106 -426 -106q-515 0 -515 550zM854 1240
q-104 -125 -216 -125q-66 0 -134 42q-75 46 -138 46q-59 0 -141 -69l-42 116q98 115 205 115q67 0 138 -43t132 -43q66 0 153 78z" />
    <glyph glyph-name="Ygrave" unicode="&#x1ef2;" horiz-adv-x="1136" 
d="M682 88q0 -43 -33 -76q-32 -32 -80 -32h-122v623q-140 1 -200 48q-67 50 -113 226l-152 556h126q104 0 126 -81l130 -456q17 -61 43 -74q21 -12 95 -12h125q73 0 94 12q26 13 44 74l130 456q21 81 125 81h126l-152 -556q-45 -169 -111 -221q-63 -49 -201 -52v-516z
M255 1668q24 155 114 155q30 0 66 -17l302 -265l-73 -85z" />
    <glyph glyph-name="ygrave" unicode="&#x1ef3;" horiz-adv-x="1141" 
d="M1024 143q0 -550 -514 -550q-250 0 -427 106v93q0 72 73 72q19 0 44 -6q158 -59 310 -59q164 0 231 97q57 81 57 247q-100 -175 -323 -175q-392 0 -392 367v721h113q48 0 80 -32q33 -33 33 -76v-590q0 -184 193 -184q227 0 296 195v579q0 43 33 76q32 32 80 32h113v-913z
M245 1291q24 155 114 155q30 0 66 -17l302 -265l-73 -85z" />
    <glyph glyph-name="uni1EF4" unicode="&#x1ef4;" horiz-adv-x="1136" 
d="M682 88q0 -43 -33 -76q-32 -32 -80 -32h-122v623q-140 1 -200 48q-67 50 -113 226l-152 556h126q104 0 126 -81l130 -456q17 -61 43 -74q21 -12 95 -12h125q73 0 94 12q26 13 44 74l130 456q21 81 125 81h126l-152 -556q-45 -169 -111 -221q-63 -49 -201 -52v-516z
M460 -237q0 38 29 65q30 30 74 30h104v-126q0 -38 -31 -67q-29 -28 -73 -28h-103v126z" />
    <glyph glyph-name="_1" horiz-adv-x="0" 
 />
    <glyph glyph-name="uni1EF5" unicode="&#x1ef5;" horiz-adv-x="1141" 
d="M1024 143q0 -550 -514 -550q-250 0 -427 106v93q0 72 73 72q19 0 44 -6q158 -59 310 -59q164 0 231 97q57 81 57 247q-100 -175 -323 -175q-392 0 -392 367v721h113q48 0 80 -32q33 -33 33 -76v-590q0 -184 193 -184q227 0 296 195v579q0 43 33 76q32 32 80 32h113v-913z
M950 -237q0 38 29 65q30 30 74 30h104v-126q0 -38 -31 -67q-29 -28 -73 -28h-103v126z" />
    <glyph glyph-name="uni2010" unicode="&#x2010;" horiz-adv-x="928" 
d="M200 421q-41 0 -69 36q-22 33 -22 75v69h561q42 0 70 -36q21 -32 21 -74v-70h-561z" />
    <glyph glyph-name="uni2011" unicode="&#x2011;" horiz-adv-x="928" 
d="M200 421q-41 0 -69 36q-22 33 -22 75v69h561q42 0 70 -36q21 -32 21 -74v-70h-561z" />
    <glyph glyph-name="figuredash" unicode="&#x2012;" horiz-adv-x="1240" 
d="M76 617q-41 0 -69 36q-22 33 -22 75v69h1058q42 0 70 -36q21 -32 21 -74v-70h-1058z" />
    <glyph glyph-name="twodotenleader" unicode="&#x2025;" horiz-adv-x="1365" 
d="M127 124q0 44 33 75q34 33 84 33h118v-144q0 -44 -33 -76q-35 -32 -85 -32h-117v144zM810 124q0 44 33 75q34 33 84 33h118v-144q0 -44 -33 -76q-35 -32 -85 -32h-117v144z" />
    <glyph glyph-name="uni203D" unicode="&#x203d;" horiz-adv-x="976" 
d="M170 1211q-56 -11 -156 -42q-55 0 -88 33q-34 34 -34 80v73q270 96 500 96q209 0 349 -111q153 -121 153 -323q0 -223 -170 -318q-92 -49 -315 -82l-9 -189q0 -44 -32 -76q-33 -32 -81 -32h-81zM189 124q0 44 33 75q34 33 85 33h117v-144q0 -44 -33 -76q-35 -32 -84 -32
h-118v144zM420 838q240 20 240 179q0 104 -85 165q-67 48 -136 52z" />
    <glyph glyph-name="uni204C" unicode="&#x204c;" horiz-adv-x="966" 
d="M772.5 821.5q118.5 -118.5 118.5 -284.5q0 -165 -118.5 -284t-289.5 -119t-289.5 119t-118.5 284q0 166 118.5 284.5t289.5 118.5t289.5 -118.5z" />
    <glyph glyph-name="uni204D" unicode="&#x204d;" horiz-adv-x="966" 
d="M193.5 821.5q-118.5 -118.5 -118.5 -284.5q0 -165 118.5 -284t289.5 -119t289.5 119t118.5 284q0 166 -118.5 284.5t-289.5 118.5t-289.5 -118.5z" />
    <glyph glyph-name="uni2053" unicode="&#x2053;" horiz-adv-x="1413" 
d="M430.5 676q-66 0 -141 -25q-36 -12 -76.5 -35l-7.5 -5q-34.5 -23 -87 -23q-36 0 -81 18v112q108 82 204.75 110.5t188.25 28.5q103.5 0 267 -44t235.5 -44q66 0 141 25q36 12 76.5 35l7.5 5q34.5 23 87 23q36 0 81 -18v-112q-108 -82 -204.75 -110.5t-188.25 -28.5
q-94.5 0 -262.5 44t-240 44z" />
    <glyph glyph-name="uni20AF" unicode="&#x20af;" horiz-adv-x="2570" 
d="M1230 535q0 -260 -165 -409q-161 -146 -427 -146h-593v917q0 259 165 409q161 146 428 146q266 0 427 -146q165 -150 165 -409v-362zM638 188q159 0 255 87q102 91 102 252v370q0 161 -102 253q-96 87 -255 87q-160 0 -256 -87q-102 -92 -102 -253v-709h358zM1689 225
q141 -51 289 -51q159 0 227 90q61 82 61 254q0 173 -58 253q-64 90 -223 90q-233 0 -296 -177v-459zM2012 1068q480 0 480 -550t-514 -550q-175 0 -289 43v-300q0 -43 -33 -76q-32 -32 -80 -32h-113v1453h113q48 0 80 -32q33 -33 33 -76q91 120 323 120z" />
    <glyph glyph-name="uni2100" unicode="&#x2100;" horiz-adv-x="2158" 
d="M647.25 858.75q0 124.5 -42.75 185.25q-50.25 72.75 -173.25 72.75t-173.25 -72.75q-43.5 -60.75 -43.5 -185.25q0 -126 40.5 -186q48.75 -72 170.25 -72q171 0 222 146.25v111.75zM405 446.25q-360 0 -360 412.5t386.25 412.5q385.5 0 385.5 -412.5v-403.5h-84.75
q-36 0 -60.75 24.75q-24 23.25 -24 56.25q-67.5 -90 -242.25 -90zM1095 65q-9 -34 -30 -57q-28 -28 -73 -28h-77l281 1367q9 34 30 57q28 28 73 28h77zM1785.75 55.5q-132.75 -79.5 -319.5 -79.5q-386.25 0 -386.25 412.5t386.25 412.5q186.75 0 319.5 -79.5v-70.5
q0 -53.25 -54 -53.25q-15 0 -33.75 4.5q-118.5 44.25 -231.75 44.25q-123 0 -173.25 -72.75q-43.5 -60.75 -43.5 -185.25t43.5 -185.25q50.25 -72.75 173.25 -72.75q113.25 0 231.75 44.25q18.75 4.5 33.75 4.5q54 0 54 -53.25v-70.5z" />
    <glyph glyph-name="uni2105" unicode="&#x2105;" horiz-adv-x="2160" 
d="M750.75 525.75q-132.75 -79.5 -319.5 -79.5q-386.25 0 -386.25 412.5t386.25 412.5q186.75 0 319.5 -79.5v-70.5q0 -53.25 -54 -53.25q-15 0 -33.75 4.5q-118.5 44.25 -231.75 44.25q-123 0 -173.25 -72.75q-43.5 -60.75 -43.5 -185.25t43.5 -185.25
q50.25 -72.75 173.25 -72.75q113.25 0 231.75 44.25q18.75 4.5 33.75 4.5q54 0 54 -53.25v-70.5zM969 65q-9 -34 -30 -57q-28 -28 -73 -28h-77l281 1367q9 34 30 57q28 28 73 28h77zM1371.75 645.75q-123 0 -173.25 -72q-43.5 -60.75 -43.5 -185.25t43.5 -186
q50.25 -72 173.25 -72t173.25 72q42.75 61.5 42.75 186t-42.75 185.25q-50.25 72 -173.25 72zM1757.25 388.5q0 -412.5 -385.5 -412.5q-386.25 0 -386.25 412.5t386.25 412.5q385.5 0 385.5 -412.5z" />
    <glyph glyph-name="uni2106" unicode="&#x2106;" horiz-adv-x="2159" 
d="M750.75 525.75q-132.75 -79.5 -319.5 -79.5q-386.25 0 -386.25 412.5t386.25 412.5q186.75 0 319.5 -79.5v-70.5q0 -53.25 -54 -53.25q-15 0 -33.75 4.5q-118.5 44.25 -231.75 44.25q-123 0 -173.25 -72.75q-43.5 -60.75 -43.5 -185.25t43.5 -185.25
q50.25 -72.75 173.25 -72.75q113.25 0 231.75 44.25q18.75 4.5 33.75 4.5q54 0 54 -53.25v-70.5zM969 65q-9 -34 -30 -57q-28 -28 -73 -28h-77l281 1367q9 34 30 57q28 28 73 28h77zM1310.25 -24q-294 0 -294 275.25v540.75h84.75q36 0 60 -24q24.75 -24.75 24.75 -57
v-442.5q0 -138 144.75 -138q175.5 0 222 133.5v447q0 32.25 24.75 57q24 24 60 24h84.75v-807h-84.75q-36 0 -60.75 24q-24 24 -24 57q-67.5 -90 -242.25 -90z" />
    <glyph glyph-name="estimated" unicode="&#x212e;" horiz-adv-x="1090" 
d="M324 626h385v173q-48 63 -180 63q-137 0 -196 -71q-6 -7 -9 -11v-154zM324 266q64 -92 235 -92q151 0 309 59q25 6 45 6q72 0 72 -71v-94q-177 -106 -426 -106q-515 0 -515 550t485 550q264 0 376 -166q88 -129 88 -383q0 -101 -113 -101h-556v-152z" />
    <glyph glyph-name="onethird" unicode="&#x2153;" horiz-adv-x="2041" 
d="M457 671h143q34 0 56 -24q22 -20 22 -49v-68h-525q-32 0 -56 22q-22 22 -22 51v67h221v566l-82 -105h-37q-41 0 -63 34q-12 17 -12 33q0 15 9 28l85 125q42 66 113 66h70q33 0 57 -22q21 -21 21 -51v-673zM954 65q-9 -34 -30 -57q-28 -28 -73 -28h-77l281 1367
q9 34 30 57q28 28 73 28h77zM1612 856q132 0 220 -65q97 -72 97 -197q0 -139 -72 -173q108 -33 108 -202q0 -269 -354 -269q-110 0 -280 61v48q0 31 23 53q23 23 63 23q142 -44 194 -44q117 0 161 36q32 29 32 92q0 62 -32 88q-42 35 -161 35h-126v141h125q99 5 132 34
q26 22 26 77q0 60 -46 90q-41 27 -111 27q-40 0 -168 -41q-40 0 -63 23t-23 53v49q170 61 254 61h1z" />
    <glyph glyph-name="twothirds" unicode="&#x2154;" horiz-adv-x="2041" 
d="M153 530q-32 0 -56 22q-22 22 -22 51v24q0 98 74 176q45 48 156 119q109 69 146 106q63 64 63 139q0 60 -45 90q-42 27 -111 27q-58 0 -186 -41q-40 0 -63 23t-23 53v49q170 61 272 61q131 0 218 -64q99 -72 99 -198q0 -177 -214 -317q-129 -83 -143 -95q-65 -51 -70 -85
l352 1q34 0 56 -24q22 -20 22 -49v-68h-525zM954 65q-9 -34 -30 -57q-28 -28 -73 -28h-77l281 1367q9 34 30 57q28 28 73 28h77zM1612 856q132 0 220 -65q97 -72 97 -197q0 -139 -72 -173q108 -33 108 -202q0 -269 -354 -269q-110 0 -280 61v48q0 31 23 53q23 23 63 23
q142 -44 194 -44q117 0 161 36q32 29 32 92q0 62 -32 88q-42 35 -161 35h-126v141h125q99 5 132 34q26 22 26 77q0 60 -46 90q-41 27 -111 27q-40 0 -168 -41q-40 0 -63 23t-23 53v49q170 61 254 61h1z" />
    <glyph glyph-name="equivalence" unicode="&#x2261;" horiz-adv-x="1159" 
d="M166 604q-41 0 -69 36q-22 33 -22 75v69h918q42 0 70 -36q21 -32 21 -74v-70h-918zM166 324q-41 0 -69 36q-22 33 -22 75v69h918q42 0 70 -36q21 -32 21 -74v-70h-918zM166 884q-41 0 -69 36q-22 33 -22 75v69h918q42 0 70 -36q21 -32 21 -74v-70h-918z" />
    <glyph glyph-name="uniFB00" unicode="&#xfb00;" horiz-adv-x="1389" 
d="M355 848v-760q0 -44 -32 -75q-33 -33 -81 -33h-113v868h-29q-49 0 -81 34q-32 30 -32 74v100h142q0 216 118 307q102 80 322 80q100 0 223 -28v-100q0 -88 -112 -88q-60 10 -111 10q-117 0 -161 -32q-53 -38 -53 -149h456q0 216 118 307q102 80 322 80q100 0 223 -28
v-100q0 -88 -112 -88q-60 10 -111 10q-117 0 -161 -32q-53 -38 -53 -149h232q49 0 81 -34q32 -30 32 -74v-100h-345v-760q0 -44 -32 -75q-33 -33 -81 -33h-113v868h-456z" />
    <glyph glyph-name="uniFB03" unicode="&#xfb03;" horiz-adv-x="1894" 
d="M355 848v-760q0 -44 -32 -75q-33 -33 -81 -33h-113v868h-29q-49 0 -81 34q-32 30 -32 74v100h142q0 216 118 307q102 80 322 80q100 0 223 -28v-100q0 -88 -112 -88q-60 10 -111 10q-117 0 -161 -32q-53 -38 -53 -149h456q0 216 118 307q102 80 322 80q100 0 223 -28
v-100q0 -88 -112 -88q-60 10 -111 10q-117 0 -161 -32q-53 -38 -53 -149h628q49 0 81 -34q32 -30 32 -74v-968h-113q-48 0 -81 33q-32 31 -32 75v760h-515v-760q0 -44 -32 -75q-33 -33 -81 -33h-113v868h-456zM1552 1325q0 43 33 76q32 32 80 32h113v-145q0 -43 -33 -76
q-32 -32 -80 -32h-113v145z" />
    <glyph glyph-name="uniFB04" unicode="&#xfb04;" horiz-adv-x="1921" 
d="M355 848v-760q0 -44 -32 -75q-33 -33 -81 -33h-113v868h-29q-49 0 -81 34q-32 30 -32 74v100h142q0 216 118 307q102 80 322 80q100 0 223 -28v-100q0 -88 -112 -88q-60 10 -111 10q-117 0 -161 -32q-53 -38 -53 -149h456q0 216 118 307q102 80 322 80q96 0 332 -23
q39 -7 67 -41q28 -31 28 -73v-959q0 -148 30 -157q21 -7 50 -7q21 0 48 4q112 0 112 -89v-100q-99 -23 -180 -23q-25 0 -50 2q-114 8 -175 86.5t-61 283.5v882q-151 8 -201 8q-117 0 -161 -32q-53 -38 -53 -149h232q49 0 81 -34q32 -30 32 -74v-100h-345v-760q0 -44 -32 -75
q-33 -33 -81 -33h-113v868h-456z" />
    <glyph glyph-name="uniFB05" unicode="&#xfb05;" horiz-adv-x="1520" 
d="M355 848v-760q0 -44 -32 -75q-33 -33 -81 -33h-113v868h-29q-49 0 -81 34q-32 30 -32 74v100h142q0 216 118 307q102 80 322 80q100 0 223 -28v-100q0 -88 -112 -88q-60 10 -111 10q-117 0 -161 -32q-53 -38 -53 -149h480v163q0 44 32 75q33 33 81 33h113v-271h304
q48 0 80 -32q33 -33 33 -76v-100h-417v-493q0 -112 53 -150q45 -31 162 -31q51 0 111 9q112 0 112 -88v-100q-123 -27 -223 -27q-221 0 -323 80q-118 91 -118 307v493h-480z" />
    <glyph glyph-name="uniFB06" unicode="&#xfb06;" horiz-adv-x="1745" 
d="M419 861h-8q-75 0 -116 -38q-39 -34 -39 -85q0 -58 79 -83l197 -38q145 -26 215 -84q95 -78 95 -227v-9q-2 -133 -101 -226q-110 -103 -294 -103q-225 0 -402 106v93q0 72 73 72q19 0 44 -6q159 -59 285 -59q76 0 123 39q43 35 43 84q0 69 -76 98q-25 9 -197 40
q-144 27 -211 77q-102 77 -102 226q0 134 94 226q105 104 290 104h8q97 -1 134 -10q-9 18 -16 81q-1 16 -1 29q0 121 95 198q92 73 229 73q298 0 426 -125v-258h304q48 0 80 -32q33 -33 33 -76v-100h-417v-493q0 -112 53 -150q45 -31 162 -31q51 0 111 9q112 0 112 -88v-100
q-123 -27 -223 -27q-221 0 -323 80q-118 91 -118 307v493h-26q-48 0 -81 33q-32 31 -32 75v100h139v153q-38 49 -173 49q-74 0 -107 -28q-38 -34 -38 -94q0 -96 70 -179v-89q0 -72 -72 -72q-19 0 -45 7q-154 56 -276 58z" />
    <glyph glyph-name="uniEEC5" unicode="&#xeec5;" horiz-adv-x="1839" 
d="M538 861v1q-153 -13 -211 -97q-58 -81 -58 -247t58 -247q67 -97 231 -97q151 0 309 59q25 6 45 6q72 0 72 -71v-94q-177 -106 -426 -106q-515 0 -515 550q0 524 445 548v2q122 -1 159 -10q-9 18 -16 81q-1 16 -1 29q0 121 95 198q92 73 229 73q298 0 426 -125v-258h304
q48 0 80 -32q33 -33 33 -76v-100h-417v-493q0 -112 53 -150q45 -31 162 -31q51 0 111 9q112 0 112 -88v-100q-123 -27 -223 -27q-221 0 -323 80q-118 91 -118 307v493h-22q-48 0 -81 33q-32 31 -32 75v100h135v153q-38 49 -173 49q-74 0 -107 -28q-38 -34 -38 -94
q0 -96 70 -179v-89q0 -72 -72 -72q-19 0 -45 7q-154 56 -251 58z" />
    <glyph glyph-name="uniEEC8" unicode="&#xeec8;" horiz-adv-x="1876" 
d="M587 1056q49 0 81 -34q32 -30 32 -74v-100h-345v-760q0 -44 -32 -75q-33 -33 -81 -33h-113v868h-29q-49 0 -81 34q-32 30 -32 74v100h142q0 216 118 307q102 80 322 80q100 0 223 -28v-100q0 -88 -112 -88q-60 10 -111 10q-117 0 -161 -32q-53 -38 -53 -149h232z
M1528 518q0 166 -57 247q-67 97 -231 97t-231 -97q-58 -81 -58 -247q0 -168 54 -248q65 -96 227 -96q228 0 296 195v149zM1528 73q-50 -105 -323 -105q-480 0 -480 550t515 550q514 0 514 -550v-538h-113q-48 0 -81 33q-32 31 -32 75v-15zM956 1229q0 43 35 76q32 32 83 32
h117v-145q0 -43 -35 -76q-32 -32 -82 -32h-118v145zM1524 1084h-118q-50 0 -82 32q-35 33 -35 76v145h117q51 0 83 -32q35 -33 35 -76v-145z" />
    <glyph glyph-name="uniEEC9" unicode="&#xeec9;" horiz-adv-x="1142" 
d="M776 1325q0 43 33 76q32 32 80 32h113v-145q0 -43 -31 -74q-33 -34 -82 -34h-113v145zM776 848h-421v-760q0 -44 -32 -75q-33 -33 -81 -33h-113v868h-29q-49 0 -81 34q-32 30 -32 74v100h142q0 216 118 307q102 80 322 80q100 0 223 -28v-100q0 -88 -112 -88
q-60 10 -111 10q-117 0 -161 -32q-53 -38 -53 -149h534q49 0 81 -34q32 -30 32 -74v-970q0 -194 -94 -288q-83 -83 -262 -97q-47 0 -79 32q-30 30 -30 71v100q142 0 186 32q53 38 53 150v870z" />
    <glyph glyph-name="uniEECA" unicode="&#xeeca;" horiz-adv-x="1547" 
d="M768 848h-413v-760q0 -44 -32 -75q-33 -33 -81 -33h-113v868h-29q-49 0 -81 34q-32 30 -32 74v100h142q0 216 118 307q102 80 322 80q100 0 223 -28v-100q0 -88 -112 -88q-60 10 -111 10q-117 0 -161 -32q-53 -38 -53 -149h526q48 0 80 -32q33 -33 33 -76v14
q51 106 270 106q99 0 223 -28v-100q0 -88 -112 -88q-61 9 -138 9q-174 0 -243 -194v-579q0 -44 -32 -76q-33 -32 -81 -32h-113v868z" />
    <glyph glyph-name="uniEECB" unicode="&#xeecb;" horiz-adv-x="1520" 
d="M355 848v-760q0 -44 -32 -75q-33 -33 -81 -33h-113v868h-29q-49 0 -81 34q-32 30 -32 74v100h142q0 216 118 307q102 80 322 80q100 0 223 -28v-100q0 -88 -112 -88q-60 10 -111 10q-117 0 -161 -32q-53 -38 -53 -149h480v163q0 44 32 75q33 33 81 33h113v-271h304
q48 0 80 -32q33 -33 33 -76v-100h-417v-493q0 -112 53 -150q45 -31 162 -31q51 0 111 9q112 0 112 -88v-100q-123 -27 -223 -27q-221 0 -323 80q-118 91 -118 307v493h-480z" />
    <glyph glyph-name="uniEECC" unicode="&#xeecc;" horiz-adv-x="1845" 
d="M953 1229q0 43 35 76q32 32 83 32h117v-145q0 -43 -35 -76q-32 -32 -82 -32h-118v145zM1521 1084h-118q-50 0 -82 32q-35 33 -35 76v145h117q51 0 83 -32q35 -33 35 -76v-145zM766 848h-411v-760q0 -44 -32 -75q-33 -33 -81 -33h-113v868h-29q-49 0 -81 34q-32 30 -32 74
v100h142q0 216 118 307q102 80 322 80q100 0 223 -28v-100q0 -88 -112 -88q-60 10 -111 10q-117 0 -161 -32q-53 -38 -53 -149h524q48 0 80 -32q33 -33 33 -76v-590q0 -184 193 -184q234 0 296 178v596q0 43 33 76q32 32 80 32h113v-1076h-113q-48 0 -81 32q-32 32 -32 76
v-16q-50 -104 -323 -104q-392 0 -392 367v513z" />
    <glyph glyph-name="uniEECD" unicode="&#xeecd;" horiz-adv-x="1848" 
d="M765 848h-410v-760q0 -44 -32 -75q-33 -33 -81 -33h-113v868h-29q-49 0 -81 34q-32 30 -32 74v100h142q0 216 118 307q102 80 322 80q100 0 223 -28v-100q0 -88 -112 -88q-60 10 -111 10q-117 0 -161 -32q-53 -38 -53 -149h523q48 0 80 -32q33 -33 33 -76v-590
q0 -184 193 -184q227 0 296 195v579q0 43 33 76q32 32 80 32h113v-913q0 -550 -514 -550q-250 0 -427 106v93q0 72 73 72q19 0 44 -6q158 -59 310 -59q164 0 231 97q57 81 57 247v-71q-50 -104 -323 -104q-392 0 -392 367v513z" />
    <glyph glyph-name="uniEECE" unicode="&#xeece;" horiz-adv-x="2202" 
d="M355 848v-760q0 -44 -32 -75q-33 -33 -81 -33h-113v868h-29q-49 0 -81 34q-32 30 -32 74v100h142q0 216 118 307q102 80 322 80q100 0 223 -28v-100q0 -88 -112 -88q-60 10 -111 10q-117 0 -161 -32q-53 -38 -53 -149h456q0 216 118 307q102 80 322 80q100 0 223 -28
v-100q0 -88 -112 -88q-60 10 -111 10q-117 0 -161 -32q-53 -38 -53 -149h480v163q0 44 32 75q33 33 81 33h113v-271h304q48 0 80 -32q33 -33 33 -76v-100h-417v-493q0 -112 53 -150q45 -31 162 -31q51 0 111 9q112 0 112 -88v-100q-123 -27 -223 -27q-221 0 -323 80
q-118 91 -118 307v493h-480v-760q0 -44 -32 -75q-33 -33 -81 -33h-113v868h-456z" />
    <glyph glyph-name="uniEECF" unicode="&#xeecf;" horiz-adv-x="2530" 
d="M1560 1056q48 0 80 -32q33 -33 33 -76v-590q0 -184 193 -184q227 0 296 195v579q0 43 33 76q32 32 80 32h113v-913q0 -550 -514 -550q-250 0 -427 106v93q0 72 73 72q19 0 44 -6q158 -59 310 -59q164 0 231 97q57 81 57 247v-71q-50 -104 -323 -104q-392 0 -392 367v513
h-410v-760q0 -44 -32 -75q-33 -33 -81 -33h-113v868h-456v-760q0 -44 -32 -75q-33 -33 -81 -33h-113v868h-29q-49 0 -81 34q-32 30 -32 74v100h142q0 216 118 307q102 80 322 80q100 0 223 -28v-100q0 -88 -112 -88q-60 10 -111 10q-117 0 -161 -32q-53 -38 -53 -149h456
q0 216 118 307q102 80 322 80q100 0 223 -28v-100q0 -88 -112 -88q-60 10 -111 10q-117 0 -161 -32q-53 -38 -53 -149h523z" />
    <glyph glyph-name="uniEED0" unicode="&#xeed0;" horiz-adv-x="2661" 
d="M1691 1056q48 0 80 -32q33 -33 33 -76v-590q0 -184 193 -184q227 0 296 195v579q0 43 33 76q32 32 80 32h113v-913q0 -550 -514 -550q-250 0 -427 106v93q0 72 73 72q19 0 44 -6q158 -59 310 -59q164 0 231 97q57 81 57 247v-71q-50 -104 -323 -104q-392 0 -392 367v513
h-517v-493q0 -112 53 -150q45 -31 162 -31q51 0 111 9q112 0 112 -88v-100q-123 -27 -223 -27q-221 0 -323 80q-118 91 -118 307v493h-480v-760q0 -44 -32 -75q-33 -33 -81 -33h-113v868h-29q-49 0 -81 34q-32 30 -32 74v100h142q0 216 118 307q102 80 322 80q100 0 223 -28
v-100q0 -88 -112 -88q-60 10 -111 10q-117 0 -161 -32q-53 -38 -53 -149h480v163q0 44 32 75q33 33 81 33h113v-271h630z" />
    <glyph glyph-name="uniEED9" unicode="&#xeed9;" horiz-adv-x="1561" 
d="M876 848h-497v-493q0 -112 53 -150q45 -31 162 -31q51 0 111 9q112 0 112 -88v-100q-123 -27 -223 -27q-221 0 -323 80q-118 91 -118 307v493h-46q-48 0 -81 33q-32 31 -32 75v100h159v163q0 44 32 75q33 33 81 33h113v-271h497v163q0 44 32 75q33 33 81 33h113v-271h304
q48 0 80 -32q33 -33 33 -76v-100h-417v-493q0 -112 53 -150q45 -31 162 -31q51 0 111 9q112 0 112 -88v-100q-123 -27 -223 -27q-221 0 -323 80q-118 91 -118 307v493z" />
    <glyph glyph-name="uniEEDA" unicode="&#xeeda;" horiz-adv-x="2554" 
d="M1584 1056q48 0 80 -32q33 -33 33 -76v-590q0 -184 193 -184q227 0 296 195v579q0 43 33 76q32 32 80 32h113v-913q0 -550 -514 -550q-250 0 -427 106v93q0 72 73 72q19 0 44 -6q158 -59 310 -59q164 0 231 97q57 81 57 247v-71q-50 -104 -323 -104q-392 0 -392 367v513
h-369v-493q0 -112 53 -150q45 -31 162 -31q51 0 111 9q112 0 112 -88v-100q-123 -27 -223 -27q-221 0 -323 80q-118 91 -118 307v493h-497v-493q0 -112 53 -150q45 -31 162 -31q51 0 111 9q112 0 112 -88v-100q-123 -27 -223 -27q-221 0 -323 80q-118 91 -118 307v493h-43
q-48 0 -81 33q-32 31 -32 75v100h156v163q0 44 32 75q33 33 81 33h113v-271h497v163q0 44 32 75q33 33 81 33h113v-271h482z" />
    <glyph glyph-name="uniEEDB" unicode="&#xeedb;" horiz-adv-x="1979" 
d="M896 848h-517v-493q0 -112 53 -150q45 -31 162 -31q51 0 111 9q112 0 112 -88v-100q-123 -27 -223 -27q-221 0 -323 80q-118 91 -118 307v493h-30q-48 0 -81 33q-32 31 -32 75v100h143v163q0 44 32 75q33 33 81 33h113v-271h630q48 0 80 -32q33 -33 33 -76v-590
q0 -184 193 -184q227 0 296 195v579q0 43 33 76q32 32 80 32h113v-913q0 -550 -514 -550q-250 0 -427 106v93q0 72 73 72q19 0 44 -6q158 -59 310 -59q164 0 231 97q57 81 57 247v-71q-50 -104 -323 -104q-392 0 -392 367v513z" />
    <glyph glyph-name="uniEEDC" unicode="&#xeedc;" horiz-adv-x="1712" 
d="M379 848v-493q0 -112 53 -150q45 -31 162 -31q51 0 111 9q112 0 112 -88v-100q-123 -27 -223 -27q-221 0 -323 80q-118 91 -118 307v493h-40q-48 0 -81 33q-32 31 -32 75v100h153v163q0 44 32 75q33 33 81 33h113v-271h1165q48 0 80 -32q33 -33 33 -76v-86l-541 -675h428
q48 0 81 -32q32 -32 32 -76v-99h-713q-48 0 -81 32q-32 32 -32 76v85l541 675h-993z" />
    <glyph glyph-name="uni01C4" unicode="&#x1c4;" horiz-adv-x="2456" 
d="M1230 535q0 -260 -165 -409q-161 -146 -427 -146h-593v917q0 259 165 409q161 146 428 146q266 0 427 -146q165 -150 165 -409v-362zM638 188q159 0 255 87q102 91 102 252v370q0 161 -102 253q-96 87 -255 87q-160 0 -256 -87q-102 -92 -102 -253v-709h358zM2310 1432
q50 0 82 -32q34 -34 34 -79v-107l-788 -1024h671q50 0 82 -32q34 -34 34 -79v-99h-940q-50 0 -83 35q-33 31 -33 76v107l788 1024h-672q-50 0 -83 35q-33 31 -33 76v99h941zM2179 1817l73 -85l-307 -269h-95q-162 144 -307 269l74 85l281 -146z" />
    <glyph glyph-name="uni01C5" unicode="&#x1c5;" horiz-adv-x="2250" 
d="M1230 535q0 -260 -165 -409q-161 -146 -427 -146h-593v917q0 259 165 409q161 146 428 146q266 0 427 -146q165 -150 165 -409v-362zM638 188q159 0 255 87q102 91 102 252v370q0 161 -102 253q-96 87 -255 87q-160 0 -256 -87q-102 -92 -102 -253v-709h358zM2107 1056
q48 0 80 -32q33 -33 33 -76v-86l-541 -675h428q48 0 81 -32q32 -32 32 -76v-99h-713q-48 0 -81 32q-32 32 -32 76v85l541 675h-428q-48 0 -81 33q-32 31 -32 75v100h713zM2089 1440l73 -85l-307 -269h-95q-162 144 -307 269l74 85l281 -146z" />
    <glyph glyph-name="uni01C6" unicode="&#x1c6;" horiz-adv-x="2054" 
d="M846 811q-140 51 -288 51q-159 0 -228 -91q-61 -81 -61 -253q0 -173 58 -253q65 -91 223 -91q227 0 296 195v442zM523 -32q-480 0 -480 550t515 550q175 0 288 -43v300q0 43 33 76q32 32 80 32h113v-1453h-113q-48 0 -81 33q-32 31 -32 75q-80 -120 -323 -120zM1911 1056
q48 0 80 -32q33 -33 33 -76v-86l-541 -675h428q48 0 81 -32q32 -32 32 -76v-99h-713q-48 0 -81 32q-32 32 -32 76v85l541 675h-428q-48 0 -81 33q-32 31 -32 75v100h713zM1893 1440l73 -85l-307 -269h-95q-162 144 -307 269l74 85l281 -146z" />
    <glyph glyph-name="uni01C7" unicode="&#x1c7;" horiz-adv-x="2086" 
d="M45 1440h117q51 0 84 -33q34 -34 34 -79v-805q0 -162 102 -253q96 -87 256 -87q162 0 377 67q55 0 90 -34q33 -33 33 -78v-73q-270 -97 -500 -97q-267 0 -428 146q-165 149 -165 409v917zM1722 1325q0 43 30 74q34 34 83 34h121v-910q0 -260 -164 -409
q-162 -146 -428 -146q-87 0 -211 20v92q0 44 33 77q32 32 83 32q55 -6 95 -6q159 0 255 87q103 91 103 253v802z" />
    <glyph glyph-name="uni01C8" unicode="&#x1c8;" horiz-adv-x="1623" 
d="M45 1440h117q51 0 84 -33q34 -34 34 -79v-805q0 -162 102 -253q96 -87 256 -87q162 0 377 67q55 0 90 -34q33 -33 33 -78v-73q-270 -97 -500 -97q-267 0 -428 146q-165 149 -165 409v917zM1508 -22q0 -194 -94 -288q-83 -83 -262 -97q-47 0 -79 32q-30 30 -30 71v100
q142 0 186 32q53 38 53 150v970q0 44 32 75q33 33 81 33h113v-1078zM1282 1325q0 43 33 76q32 32 80 32h113v-145q0 -43 -31 -74q-33 -34 -82 -34h-113v145z" />
    <glyph glyph-name="uni01C9" unicode="&#x1c9;" horiz-adv-x="967" 
d="M88 1433h113q48 0 80 -32q33 -33 33 -76v-978q0 -148 30 -157q21 -7 50 -7q21 0 48 4q112 0 112 -89v-100q-99 -23 -180 -23q-25 0 -50 2q-114 8 -175 86.5t-61 283.5v1086zM852 -22q0 -194 -94 -288q-83 -83 -262 -97q-47 0 -79 32q-30 30 -30 71v100q142 0 186 32
q53 38 53 150v970q0 44 32 75q33 33 81 33h113v-1078zM626 1325q0 43 33 76q32 32 80 32h113v-145q0 -43 -31 -74q-33 -34 -82 -34h-113v145z" />
    <glyph glyph-name="uni01CA" unicode="&#x1ca;" horiz-adv-x="2315" 
d="M68 1328q0 45 34 79q33 33 83 33h206l627 -1171v1171h235v-1348q0 -45 -34 -79q-33 -33 -83 -33h-206l-627 1171v-1059q0 -45 -34 -79q-33 -33 -84 -33h-117v1348zM1951 1325q0 43 30 74q34 34 83 34h121v-910q0 -260 -164 -409q-162 -146 -428 -146q-87 0 -211 20v92
q0 44 33 77q32 32 83 32q55 -6 95 -6q159 0 255 87q103 91 103 253v802z" />
    <glyph glyph-name="uni01CB" unicode="&#x1cb;" horiz-adv-x="1852" 
d="M68 1328q0 45 34 79q33 33 83 33h206l627 -1171v1171h235v-1348q0 -45 -34 -79q-33 -33 -83 -33h-206l-627 1171v-1059q0 -45 -34 -79q-33 -33 -84 -33h-117v1348zM1737 -22q0 -194 -94 -288q-83 -83 -262 -97q-47 0 -79 32q-30 30 -30 71v100q142 0 186 32q53 38 53 150
v970q0 44 32 75q33 33 81 33h113v-1078zM1511 1325q0 43 33 76q32 32 80 32h113v-145q0 -43 -31 -74q-33 -34 -82 -34h-113v145z" />
    <glyph glyph-name="uni01CC" unicode="&#x1cc;" horiz-adv-x="1569" 
d="M1027 -20h-113q-48 0 -81 33q-32 31 -32 75v590q0 184 -193 184q-227 0 -296 -195v-579q0 -44 -32 -75q-33 -33 -81 -33h-113v1076h113q48 0 81 -33q32 -31 32 -75q101 120 323 120q392 0 392 -367v-721zM1454 -22q0 -194 -94 -288q-83 -83 -262 -97q-47 0 -79 32
q-30 30 -30 71v100q142 0 186 32q53 38 53 150v970q0 44 32 75q33 33 81 33h113v-1078zM1228 1325q0 43 33 76q32 32 80 32h113v-145q0 -43 -31 -74q-33 -34 -82 -34h-113v145z" />
    <glyph glyph-name="uni01CD" unicode="&#x1cd;" horiz-adv-x="1243" 
d="M592 1230l-210 -721h442l-210 721h-22zM322 301l-57 -196q-32 -125 -161 -125h-122l389 1339q32 124 161 124h142q129 0 161 -125l389 -1338h-122q-129 0 -162 126l-57 195h-561zM885 1817l73 -85l-307 -269h-95q-162 144 -307 269l74 85l281 -146z" />
    <glyph glyph-name="uni01CE" unicode="&#x1ce;" horiz-adv-x="1169" 
d="M846 518q0 166 -57 247q-67 97 -231 97t-231 -97q-58 -81 -58 -247q0 -168 54 -248q65 -96 227 -96q228 0 296 195v149zM523 -32q-480 0 -480 550t515 550q514 0 514 -550v-538h-113q-48 0 -81 33q-32 31 -32 75q-90 -120 -323 -120zM839 1440l73 -85l-307 -269h-95
q-162 144 -307 269l74 85l281 -146z" />
    <glyph glyph-name="uni01CF" unicode="&#x1cf;" horiz-adv-x="449" 
d="M299 1325q0 43 33 76q32 32 80 32h122v-1345q0 -43 -33 -76q-32 -32 -80 -32h-122v1345zM698 1817l73 -85l-307 -269h-95q-162 144 -307 269l74 85l281 -146z" />
    <glyph glyph-name="uni2155" unicode="&#x2155;" horiz-adv-x="2034" 
d="M457 671h143q34 0 56 -24q22 -20 22 -49v-68h-525q-32 0 -56 22q-22 22 -22 51v67h221v566l-82 -105h-37q-41 0 -63 34q-12 17 -12 33q0 15 9 28l85 125q42 66 113 66h70q33 0 57 -22q21 -21 21 -51v-673zM954 65q-9 -34 -30 -57q-28 -28 -73 -28h-77l281 1367
q9 34 30 57q28 28 73 28h77zM1491 525q71 32 159 32q164 0 237 -72q72 -71 72 -231q0 -302 -335 -304q-123 0 -293 61v49q0 30 23 53q22 22 61 22q143 -44 209 -44q175 1 175 163q0 96 -32 129q-28 29 -117 29t-159 -35v-26q0 -29 -20 -49q-23 -24 -58 -24h-82v493
q0 30 22 52q21 21 56 21h550v-67q0 -29 -21 -51q-25 -24 -58 -24h-389v-177z" />
    <glyph glyph-name="uni2156" unicode="&#x2156;" horiz-adv-x="2034" 
d="M153 530q-32 0 -56 22q-22 22 -22 51v24q0 98 74 176q45 48 156 119q109 69 146 106q63 64 63 139q0 60 -45 90q-42 27 -111 27q-58 0 -186 -41q-40 0 -63 23t-23 53v49q170 61 272 61q131 0 218 -64q99 -72 99 -198q0 -177 -214 -317q-129 -83 -143 -95q-65 -51 -70 -85
l352 1q34 0 56 -24q22 -20 22 -49v-68h-525zM954 65q-9 -34 -30 -57q-28 -28 -73 -28h-77l281 1367q9 34 30 57q28 28 73 28h77zM1491 525q71 32 159 32q164 0 237 -72q72 -71 72 -231q0 -302 -335 -304q-123 0 -293 61v49q0 30 23 53q22 22 61 22q143 -44 209 -44
q175 1 175 163q0 96 -32 129q-28 29 -117 29t-159 -35v-26q0 -29 -20 -49q-23 -24 -58 -24h-82v493q0 30 22 52q21 21 56 21h550v-67q0 -29 -21 -51q-25 -24 -58 -24h-389v-177z" />
    <glyph glyph-name="uni2157" unicode="&#x2157;" horiz-adv-x="2065" 
d="M356 1429q132 0 220 -65q97 -72 97 -197q0 -139 -72 -173q108 -33 108 -202q0 -269 -354 -269q-110 0 -280 61v48q0 31 23 53q23 23 63 23q142 -44 194 -44q117 0 161 36q32 29 32 92q0 62 -32 88q-42 35 -161 35h-126v141h125q99 5 132 34q26 22 26 77q0 60 -46 90
q-41 27 -111 27q-40 0 -168 -41q-40 0 -63 23t-23 53v49q170 61 254 61h1zM985 65q-9 -34 -30 -57q-28 -28 -73 -28h-77l281 1367q9 34 30 57q28 28 73 28h77zM1522 525q71 32 159 32q164 0 237 -72q72 -71 72 -231q0 -302 -335 -304q-123 0 -293 61v49q0 30 23 53
q22 22 61 22q143 -44 209 -44q175 1 175 163q0 96 -32 129q-28 29 -117 29t-159 -35v-26q0 -29 -20 -49q-23 -24 -58 -24h-82v493q0 30 22 52q21 21 56 21h550v-67q0 -29 -21 -51q-25 -24 -58 -24h-389v-177z" />
    <glyph glyph-name="uni2158" unicode="&#x2158;" horiz-adv-x="2104" 
d="M641 877h28q34 0 57 -25q22 -20 22 -50v-68h-107v-204h-83q-34 0 -57 23q-20 22 -20 50v131h-326q-35 0 -57 22q-23 23 -23 53v66l305 476q43 66 114 66h69q33 0 57 -22q21 -21 21 -51v-467zM260 877h221v346zM1024 65q-9 -34 -30 -57q-28 -28 -73 -28h-77l281 1367
q9 34 30 57q28 28 73 28h77zM1561 525q71 32 159 32q164 0 237 -72q72 -71 72 -231q0 -302 -335 -304q-123 0 -293 61v49q0 30 23 53q22 22 61 22q143 -44 209 -44q175 1 175 163q0 96 -32 129q-28 29 -117 29t-159 -35v-26q0 -29 -20 -49q-23 -24 -58 -24h-82v493
q0 30 22 52q21 21 56 21h550v-67q0 -29 -21 -51q-25 -24 -58 -24h-389v-177z" />
    <glyph glyph-name="uni2159" unicode="&#x2159;" horiz-adv-x="2035" 
d="M457 671h143q34 0 56 -24q22 -20 22 -49v-68h-525q-32 0 -56 22q-22 22 -22 51v67h221v566l-82 -105h-37q-41 0 -63 34q-12 17 -12 33q0 15 9 28l85 125q42 66 113 66h70q33 0 57 -22q21 -21 21 -51v-673zM954 65q-9 -34 -30 -57q-28 -28 -73 -28h-77l281 1367
q9 34 30 57q28 28 73 28h77zM1960 254q0 -304 -311 -304h-4q-162 0 -238 74t-76 230v299q1 156 86 228q79 70 243 70q110 0 280 -61v-49q0 -29 -21 -52q-24 -24 -64 -24q-129 41 -195 41q-92 0 -128 -31q-40 -35 -40 -127v-26q81 35 159 35q164 0 236 -72q73 -71 73 -231z
M1492 254q0 -91 33 -126q33 -37 120 -37q88 0 121 37q33 35 33 126q0 96 -31 129q-29 29 -117 29q-77 0 -159 -38v-120z" />
    <glyph glyph-name="uni215A" unicode="&#x215a;" horiz-adv-x="2060" 
d="M235 1098q71 32 159 32q164 0 237 -72q72 -71 72 -231q0 -302 -335 -304q-123 0 -293 61v49q0 30 23 53q22 22 61 22q143 -44 209 -44q175 1 175 163q0 96 -32 129q-28 29 -117 29t-159 -35v-26q0 -29 -20 -49q-23 -24 -58 -24h-82v493q0 30 22 52q21 21 56 21h550v-67
q0 -29 -21 -51q-25 -24 -58 -24h-389v-177zM979 65q-9 -34 -30 -57q-28 -28 -73 -28h-77l281 1367q9 34 30 57q28 28 73 28h77zM1985 254q0 -304 -311 -304h-4q-162 0 -238 74t-76 230v299q1 156 86 228q79 70 243 70q110 0 280 -61v-49q0 -29 -21 -52q-24 -24 -64 -24
q-129 41 -195 41q-92 0 -128 -31q-40 -35 -40 -127v-26q81 35 159 35q164 0 236 -72q73 -71 73 -231zM1517 254q0 -91 33 -126q33 -37 120 -37q88 0 121 37q33 35 33 126q0 96 -31 129q-29 29 -117 29q-77 0 -159 -38v-120z" />
    <glyph glyph-name="oneeighth" unicode="&#x215b;" horiz-adv-x="2113" 
d="M457 671h143q34 0 56 -24q22 -20 22 -49v-68h-525q-32 0 -56 22q-22 22 -22 51v67h221v566l-82 -105h-37q-41 0 -63 34q-12 17 -12 33q0 15 9 28l85 125q42 66 113 66h70q33 0 57 -22q21 -21 21 -51v-673zM954 65q-9 -34 -30 -57q-28 -28 -73 -28h-77l281 1367
q9 34 30 57q28 28 73 28h77zM1933 420q105 -35 105 -204q0 -266 -354 -266q-353 0 -353 266q0 169 105 204q-69 33 -69 186q0 123 100 191q88 59 217 59q131 0 217 -59q101 -68 101 -191q0 -153 -69 -186zM1845 127q32 27 32 89q0 63 -32 89q-43 37 -161 37q-117 0 -160 -37
q-32 -26 -32 -89q0 -62 32 -89q43 -36 160 -36q118 0 161 36zM1815 522q26 25 26 84q0 55 -47 82q-41 25 -109 26q-68 0 -110 -25q-47 -28 -47 -83q0 -59 27 -84q34 -35 129 -39q96 4 131 39z" />
    <glyph glyph-name="threeeighths" unicode="&#x215c;" horiz-adv-x="2144" 
d="M356 1429q132 0 220 -65q97 -72 97 -197q0 -139 -72 -173q108 -33 108 -202q0 -269 -354 -269q-110 0 -280 61v48q0 31 23 53q23 23 63 23q142 -44 194 -44q117 0 161 36q32 29 32 92q0 62 -32 88q-42 35 -161 35h-126v141h125q99 5 132 34q26 22 26 77q0 60 -46 90
q-41 27 -111 27q-40 0 -168 -41q-40 0 -63 23t-23 53v49q170 61 254 61h1zM985 65q-9 -34 -30 -57q-28 -28 -73 -28h-77l281 1367q9 34 30 57q28 28 73 28h77zM1964 420q105 -35 105 -204q0 -266 -354 -266q-353 0 -353 266q0 169 105 204q-69 33 -69 186q0 123 100 191
q88 59 217 59q131 0 217 -59q101 -68 101 -191q0 -153 -69 -186zM1876 127q32 27 32 89q0 63 -32 89q-43 37 -161 37q-117 0 -160 -37q-32 -26 -32 -89q0 -62 32 -89q43 -36 160 -36q118 0 161 36zM1846 522q26 25 26 84q0 55 -47 82q-41 25 -109 26q-68 0 -110 -25
q-47 -28 -47 -83q0 -59 27 -84q34 -35 129 -39q96 4 131 39z" />
    <glyph glyph-name="fiveeighths" unicode="&#x215d;" horiz-adv-x="2138" 
d="M235 1098q71 32 159 32q164 0 237 -72q72 -71 72 -231q0 -302 -335 -304q-123 0 -293 61v49q0 30 23 53q22 22 61 22q143 -44 209 -44q175 1 175 163q0 96 -32 129q-28 29 -117 29t-159 -35v-26q0 -29 -20 -49q-23 -24 -58 -24h-82v493q0 30 22 52q21 21 56 21h550v-67
q0 -29 -21 -51q-25 -24 -58 -24h-389v-177zM979 65q-9 -34 -30 -57q-28 -28 -73 -28h-77l281 1367q9 34 30 57q28 28 73 28h77zM1958 420q105 -35 105 -204q0 -266 -354 -266q-353 0 -353 266q0 169 105 204q-69 33 -69 186q0 123 100 191q88 59 217 59q131 0 217 -59
q101 -68 101 -191q0 -153 -69 -186zM1870 127q32 27 32 89q0 63 -32 89q-43 37 -161 37q-117 0 -160 -37q-32 -26 -32 -89q0 -62 32 -89q43 -36 160 -36q118 0 161 36zM1840 522q26 25 26 84q0 55 -47 82q-41 25 -109 26q-68 0 -110 -25q-47 -28 -47 -83q0 -59 27 -84
q34 -35 129 -39q96 4 131 39z" />
    <glyph glyph-name="seveneighths" unicode="&#x215e;" horiz-adv-x="2141" 
d="M627 1417q35 0 59 -24q20 -22 20 -50v-65l-337 -748h-178l336 745h-372q-35 0 -57 22q-23 23 -23 53v67h552zM982 65q-9 -34 -30 -57q-28 -28 -73 -28h-77l281 1367q9 34 30 57q28 28 73 28h77zM1961 420q105 -35 105 -204q0 -266 -354 -266q-353 0 -353 266
q0 169 105 204q-69 33 -69 186q0 123 100 191q88 59 217 59q131 0 217 -59q101 -68 101 -191q0 -153 -69 -186zM1873 127q32 27 32 89q0 63 -32 89q-43 37 -161 37q-117 0 -160 -37q-32 -26 -32 -89q0 -62 32 -89q43 -36 160 -36q118 0 161 36zM1843 522q26 25 26 84
q0 55 -47 82q-41 25 -109 26q-68 0 -110 -25q-47 -28 -47 -83q0 -59 27 -84q34 -35 129 -39q96 4 131 39z" />
    <glyph glyph-name="uni215F" unicode="&#x215f;" horiz-adv-x="1256" 
d="M457 671h143q34 0 56 -24q22 -20 22 -49v-68h-525q-32 0 -56 22q-22 22 -22 51v67h221v566l-82 -105h-37q-41 0 -63 34q-12 17 -12 33q0 15 9 28l85 125q42 66 113 66h70q33 0 57 -22q21 -21 21 -51v-673zM954 65q-9 -34 -30 -57q-28 -28 -73 -28h-77l281 1367
q9 34 30 57q28 28 73 28h77z" />
    <glyph glyph-name="arrowleft" unicode="&#x2190;" horiz-adv-x="1975" 
d="M654 447q31 -22 31 -171l-638 270l638 269q0 -148 -31 -170l1321 -99z" />
    <glyph glyph-name="arrowup" unicode="&#x2191;" horiz-adv-x="908" 
d="M333 786q-13 -17 -168 -17l272 642l271 -642q-155 0 -169 18l-103 -1379z" />
    <glyph glyph-name="arrowright" unicode="&#x2192;" horiz-adv-x="1670" 
d="M-269 546l1321 99q-31 22 -31 170l638 -269l-638 -270q0 149 31 171z" />
    <glyph glyph-name="arrowdown" unicode="&#x2193;" horiz-adv-x="908" 
d="M436 1684l103 -1379q14 18 169 18l-271 -642l-272 642q155 0 168 -17z" />
    <glyph glyph-name="arrowboth" unicode="&#x2194;" horiz-adv-x="1670" 
d="M1659 546l-638 -270q0 149 31 171l-249 19l-249 -19q31 -22 31 -171l-638 270l638 269q0 -148 -31 -170l249 -19l249 19q-31 22 -31 170z" />
    <glyph glyph-name="arrowupdn" unicode="&#x2195;" horiz-adv-x="908" 
d="M437 -319l-272 642q156 0 169 -17l17 240l-17 240q-13 -17 -169 -17l272 642l271 -642q-155 0 -168 17l-18 -240l18 -240q13 17 168 17z" />
    <glyph glyph-name="summation" unicode="&#x2211;" horiz-adv-x="1079" 
d="M473 677l-398 735v91q0 39 30 69q28 28 72 28h802v-87q0 -39 -29 -66q-29 -31 -73 -31h-570l403 -739l-403 -739h570q44 0 73 -31q29 -27 29 -66v-87h-802q-44 0 -72 28q-30 30 -30 69v91z" />
    <glyph glyph-name="product" unicode="&#x220f;" horiz-adv-x="1222" 
d="M395 88q0 -43 -33 -76q-32 -32 -80 -32h-122v1245h-22q-48 0 -81 33q-32 31 -32 75v100h1034q48 0 80 -32q33 -33 33 -76v-100h-114v-1245h-122q-48 0 -80 32q-33 33 -33 76v1137h-428v-1137z" />
    <glyph glyph-name="radical" unicode="&#x221a;" horiz-adv-x="1148" 
d="M1043 1582l-494 -1526l-76 -56q-27 -20 -62 -20q-8 0 -18 1q-41 7 -66 41l-359 494l69 51q28 19 60 19q9 0 18 -1q43 -6 69 -40l219 -303l477 1395q59 22 91 22q72 0 72 -69v-8z" />
    <glyph glyph-name="integral" unicode="&#x222b;" horiz-adv-x="772" 
d="M275 1399q0 172 52 238t148 73q22 2 43 2q68 0 154 -20v-86q0 -77 -98 -77q-23 3 -40 3q-22 0 -40 -6q-22 -6 -22 -127v-1409q0 -172 -52 -238t-148 -73q-22 -2 -43 -2q-68 0 -154 20v86q0 77 98 77q22 -3 40 -3q22 0 40 6q22 6 22 127v1409z" />
    <glyph glyph-name="Delta" unicode="&#x2206;" horiz-adv-x="1294" 
d="M1244 -20h-1228l614 1491zM630 924l-307 -745h614z" />
    <glyph glyph-name="uni21BC" unicode="&#x21bc;" horiz-adv-x="1985" 
d="M71 803l1914 -277h-1914v277z" />
    <glyph glyph-name="uni21BD" unicode="&#x21bd;" horiz-adv-x="1985" 
d="M71 799h1914l-1914 -277v277z" />
    <glyph glyph-name="uni21C0" unicode="&#x21c0;" horiz-adv-x="1731" 
d="M1635 526h-1914l1914 277v-277z" />
    <glyph glyph-name="uni21C1" unicode="&#x21c1;" horiz-adv-x="1731" 
d="M1635 522l-1914 277h1914v-277z" />
    <glyph glyph-name="uni21A4" unicode="&#x21a4;" horiz-adv-x="3421" 
d="M71 801l3350 -255l-3350 -255v510z" />
    <glyph glyph-name="uni21A6" unicode="&#x21a6;" horiz-adv-x="3182" 
d="M3086 291l-3350 255l3350 255v-510z" />
    </font>
</defs>
</svg>
