<svg xmlns="http://www.w3.org/2000/svg">
<defs>
<font id="Smoolthan-Medium-Italic" horiz-adv-x="0" >
  <font-face 
    font-family="Smoolthan"
    font-weight="500"
    font-style="italic"
    font-stretch="normal"
    units-per-em="2048"
    panose-1="2 0 5 0 0 0 0 9 0 0"
    ascent="1638"
    descent="-410"
    x-height="1036"
    cap-height="1413"
    bbox="-779 -433 3273 1803"
    underline-thickness="150"
    underline-position="-142"
    slope="-12"
    unicode-range="U+001D-FB06"
  />
<missing-glyph horiz-adv-x="1519" 
d="M1176 1414q-130 -32 -227 -118q-31 -28 -89 -96q-66 -73 -93 -101q-83 -81 -131 -115q-77 -53 -152 -53q-59 0 -94 30q-37 31 -37 84v11l6 30q11 52 45 97q50 64 116 75q18 3 32 3q22 0 39 -6q24 -12 24 -40q0 -8 -2 -17q-7 12 -21 12q-9 0 -21 -9t-14 -21q-1 -5 -1 -9
q0 -20 24 -20h1q31 0 55 34q11 17 16 36q1 7 1 15q0 10 -2 20q-5 36 -36 53q-31 19 -82 19q-13 0 -26 -1q-111 -9 -194 -90l38 177h825zM241 899q50 -65 157 -65q15 0 32 2q90 6 232 125q40 33 113 97q64 59 89 78q64 50 120 50q31 0 58 -15q80 -40 171 -40q61 0 126 18
q130 36 255 133q-47 -163 -184 -302q-25 -25 -276 -237h-53q-41 0 -61 32l-106 -87h157q-236 -212 -304 -378q-20 -46 -28 -86q-7 -34 -7 -64q0 -28 6 -52q21 -80 111 -112h-195l148 695l40 19l7 33h-641zM431 688q76 0 101 -32q17 -20 17 -56q0 -23 -7 -52l-117 -552h-376
l147 692h235zM630 691h35l-148 -695h-35zM1128 -4q214 46 375 166l-35 -166h-340zM1507 177q-146 -73 -264 -87q-23 -2 -47 -2q-80 0 -118 37q-27 28 -27 71q0 17 4 35q5 25 19 56q50 117 217 285q77 77 111 116h153l-10 -48h60zM1452 743q135 164 175 355q9 41 13 85
q12 109 12 128q0 4 -1 4q16 51 114 78l-138 -650h-175zM876 1033q-72 0 -131 -42q-52 -39 -71 -94q-6 -14 -9 -27q-3 -12 -3 -23q0 -23 11 -40q17 -34 65 -34q8 0 17 1q60 5 89 60q7 15 10 26q2 8 2 15q0 27 -24 46q-20 18 -20 38q0 5 1 10t3 10q13 32 57 41z" />
    <glyph glyph-name=".notdef" horiz-adv-x="1519" 
d="M1176 1414q-130 -32 -227 -118q-31 -28 -89 -96q-66 -73 -93 -101q-83 -81 -131 -115q-77 -53 -152 -53q-59 0 -94 30q-37 31 -37 84v11l6 30q11 52 45 97q50 64 116 75q18 3 32 3q22 0 39 -6q24 -12 24 -40q0 -8 -2 -17q-7 12 -21 12q-9 0 -21 -9t-14 -21q-1 -5 -1 -9
q0 -20 24 -20h1q31 0 55 34q11 17 16 36q1 7 1 15q0 10 -2 20q-5 36 -36 53q-31 19 -82 19q-13 0 -26 -1q-111 -9 -194 -90l38 177h825zM241 899q50 -65 157 -65q15 0 32 2q90 6 232 125q40 33 113 97q64 59 89 78q64 50 120 50q31 0 58 -15q80 -40 171 -40q61 0 126 18
q130 36 255 133q-47 -163 -184 -302q-25 -25 -276 -237h-53q-41 0 -61 32l-106 -87h157q-236 -212 -304 -378q-20 -46 -28 -86q-7 -34 -7 -64q0 -28 6 -52q21 -80 111 -112h-195l148 695l40 19l7 33h-641zM431 688q76 0 101 -32q17 -20 17 -56q0 -23 -7 -52l-117 -552h-376
l147 692h235zM630 691h35l-148 -695h-35zM1128 -4q214 46 375 166l-35 -166h-340zM1507 177q-146 -73 -264 -87q-23 -2 -47 -2q-80 0 -118 37q-27 28 -27 71q0 17 4 35q5 25 19 56q50 117 217 285q77 77 111 116h153l-10 -48h60zM1452 743q135 164 175 355q9 41 13 85
q12 109 12 128q0 4 -1 4q16 51 114 78l-138 -650h-175zM876 1033q-72 0 -131 -42q-52 -39 -71 -94q-6 -14 -9 -27q-3 -12 -3 -23q0 -23 11 -40q17 -34 65 -34q8 0 17 1q60 5 89 60q7 15 10 26q2 8 2 15q0 27 -24 46q-20 18 -20 38q0 5 1 10t3 10q13 32 57 41z" />
    <glyph glyph-name=".null" 
 />
    <glyph glyph-name=".null" 
 />
    <glyph glyph-name="nonmarkingreturn" horiz-adv-x="1200" 
 />
    <glyph glyph-name="space" unicode=" " horiz-adv-x="533" 
 />
    <glyph glyph-name="space" unicode="&#xa0;" horiz-adv-x="533" 
 />
    <glyph glyph-name="exclam" unicode="!" horiz-adv-x="667" 
d="M471 1324q8 37 40 63q31 25 67 25h145l-257 -984q-8 -37 -39 -63q-32 -25 -68 -25h-49zM240 124q8 37 41 62q32 26 71 26h92l-26 -124q-8 -37 -41 -63q-32 -25 -70 -25h-93z" />
    <glyph glyph-name="quotedbl" unicode="&#x22;" horiz-adv-x="825" 
d="M447 1387q9 45 69 45h100l-141 -504q-9 -45 -69 -45h-33zM766 883h-33q-52 0 -52 34q0 5 1 11l74 503h99q52 0 52 -34q0 -5 -1 -11z" />
    <glyph glyph-name="numbersign" unicode="#" horiz-adv-x="1066" 
d="M348 541l118 284h-200q-27 0 -43 19q-10 15 -10 33q0 7 1 14l8 36h287l175 417q13 29 35 48q24 20 57 20h48l-203 -485h265l175 417q13 29 35 48q24 20 57 20h48l-203 -485h117q28 0 44 -19q10 -14 10 -31q0 -8 -2 -16l-8 -36h-204l-119 -284h197q28 0 43 -19
q11 -14 11 -32q0 -7 -2 -15l-8 -36h-284l-155 -371q-13 -29 -35 -48q-24 -20 -57 -20h-48l183 439h-265l-155 -371q-13 -29 -35 -48q-24 -20 -57 -20h-48l183 439h-120q-28 0 -42 20q-11 14 -11 33q0 6 1 13l8 36h208zM578 825l-119 -284h266l118 284h-265z" />
    <glyph glyph-name="dollar" unicode="$" horiz-adv-x="1158" 
d="M778 798q13 -2 28 -4q191 -30 267 -96q77 -67 77 -187q0 -47 -12 -102l-3 -12q-45 -193 -221 -307q-139 -89 -308 -100l-23 -109q-8 -36 -38 -62q-32 -26 -69 -26h-48l42 198q-184 14 -371 87l12 59q8 39 41 66t71 27q151 -51 284 -63l101 473q-12 2 -23 4
q-194 30 -269 90q-82 65 -82 187q0 44 11 96q41 194 211 309q141 96 320 104l23 108q8 37 39 62q31 26 68 26h48l-43 -199q176 -16 355 -85l-13 -60q-8 -39 -41 -66q-32 -27 -70 -27q-142 47 -268 61zM739 1255q-97 -8 -179 -58q-106 -67 -130 -180q-5 -22 -5 -41
q0 -90 101 -129q24 -9 121 -26zM643 166q89 9 168 53q116 66 139 177q6 26 6 49q0 97 -97 140q-31 14 -120 32z" />
    <glyph glyph-name="percent" unicode="%" horiz-adv-x="1470" 
d="M751 938.25q-68 -238.5 -361 -238.5q-239 0 -239 157.5q0 36 13 81l48 168.75q67 238.5 361 238.5q238 0 238 -158.25q0 -36 -12 -80.25zM694 1107q10 36 10 63q0 31.5 -13 52.5q-32 48 -139 48t-165 -48q-47 -39 -69 -115.5l-48 -168.75q-10 -36 -10 -63.75
q0 -31.5 13 -51.75q31 -48.75 138 -48.75t166 48.75q47 38.25 69 115.5zM577 68q-13 -29 -35 -48q-24 -20 -57 -20h-48l563 1344q13 29 35 48q24 20 57 20h48zM1479 318q-68 -238.5 -361 -238.5q-239 0 -239 157.5q0 36 13 81l48 168.75q67 238.5 361 238.5
q238 0 238 -158.25q0 -36 -12 -80.25zM1422 486.75q10 36 10 63q0 31.5 -13 52.5q-32 48 -139 48t-165 -48q-47 -39 -69 -115.5l-48 -168.75q-10 -36 -10 -63.75q0 -31.5 13 -51.75q31 -48.75 138 -48.75t166 48.75q47 38.25 69 115.5z" />
    <glyph glyph-name="ampersand" unicode="&#x26;" horiz-adv-x="1236" 
d="M898 1431q132 0 363 -89l-13 -60q-8 -39 -41 -66q-32 -27 -71 -27q-200 67 -275 67q-131 0 -222 -53q-104 -60 -128 -174q-6 -30 -6 -56q0 -99 93 -135q47 -18 274 -38q190 -16 264 -79q76 -64 76 -192q0 -56 -15 -125l-86 -404h-97q-36 0 -57 25q-14 19 -14 43q0 9 2 20
l12 59q-235 -156 -445 -160h-13q-193 0 -293 90q-86 79 -86 214q0 52 13 113q53 248 304 330q-121 63 -121 205q0 42 10 90q41 193 213 303q155 99 358 99h1zM468 601q-120 -55 -150 -197q-8 -37 -8 -69q0 -77 47 -125q58 -60 175 -60h11q109 2 253 70q149 71 210 157l6 27
q8 36 8 67q0 64 -35 100q-64 68 -269 70q-162 0 -248 -40z" />
    <glyph glyph-name="quotesingle" unicode="'" horiz-adv-x="549" 
d="M461 1386q9 45 69 45h100l-141 -503q-9 -45 -69 -45h-33z" />
    <glyph glyph-name="parenleft" unicode="(" horiz-adv-x="758" 
d="M397 872q74 348 262 547q175 187 402 192l-28 -132q-154 -25 -272 -150q-126 -135 -195 -457l-110 -517q-34 -160 -34 -274q0 -115 35 -183q65 -125 208 -150l-28 -132q-225 5 -321 192q-60 116 -60 282q0 120 31 265z" />
    <glyph glyph-name="parenright" unicode=")" horiz-adv-x="775" 
d="M574 355q-74 -348 -261 -547q-176 -187 -403 -192l28 132q155 25 272 150q127 135 195 457l110 517q34 160 34 274q0 115 -35 183q-64 125 -208 150l28 132q225 -5 322 -192q59 -115 59 -281q0 -120 -31 -266z" />
    <glyph glyph-name="asterisk" unicode="*" horiz-adv-x="1010" 
d="M761 1105l243 103q23 9 41 9q67 0 67 -113q0 -12 -1 -26l-336 -66l129 -178q13 -21 13 -41q0 -8 -2 -15q-12 -59 -129 -113l-102 285l-163 -213q-36 -43 -75 -43q-50 0 -105 69l273 243l-229 46q-52 14 -52 58q0 10 2 20q9 42 55 106l271 -135l21 242l3 10q17 84 124 84
q26 0 57 -5z" />
    <glyph glyph-name="plus" unicode="+" horiz-adv-x="1230" 
d="M629 624h-344q-27 0 -42 26q-8 17 -8 38q0 13 3 27l10 49h410l74 344q5 28 36 48q31 18 68 18h50l-88 -410h343q28 0 43 -26q7 -16 7 -36q0 -13 -3 -28l-10 -50h-409l-73 -343q-6 -27 -36 -47q-32 -19 -69 -19h-49z" />
    <glyph glyph-name="comma" unicode="," horiz-adv-x="536" 
d="M-14 -352q133 161 200 476q8 37 41 62q32 26 70 26h93l-7 -31q-55 -259 -285 -498q-34 -35 -58 -35h-54z" />
    <glyph glyph-name="hyphen" unicode="-" horiz-adv-x="928" 
d="M294 441q-27 0 -42 26q-8 17 -8 38q0 13 3 27l10 49h536q28 0 43 -26q7 -16 7 -36q0 -13 -3 -28l-10 -50h-536z" />
    <glyph glyph-name="hyphen" unicode="&#xad;" horiz-adv-x="928" 
d="M294 441q-27 0 -42 26q-8 17 -8 38q0 13 3 27l10 49h536q28 0 43 -26q7 -16 7 -36q0 -13 -3 -28l-10 -50h-536z" />
    <glyph glyph-name="period" unicode="." horiz-adv-x="526" 
d="M178 124q8 37 41 62q32 26 70 26h93l-26 -124q-8 -37 -41 -63q-32 -25 -71 -25h-92z" />
    <glyph glyph-name="slash" unicode="/" horiz-adv-x="662" 
d="M278 68q-13 -29 -35 -48q-24 -20 -57 -20h-48l563 1344q13 29 35 48q24 20 57 20h48z" />
    <glyph glyph-name="zero" unicode="0" horiz-adv-x="1240" 
d="M1242 518q-113 -530 -602 -530q-398 0 -398 350q0 81 21 180l80 375q112 530 602 530q398 0 398 -351q0 -80 -21 -179zM1146 893q17 79 17 140q0 71 -23 117q-52 106 -230 106t-276 -106q-79 -86 -115 -257l-80 -375q-17 -79 -17 -140q0 -71 23 -117q53 -107 231 -107
t275 107q79 86 115 257z" />
    <glyph glyph-name="one" unicode="1" horiz-adv-x="974" 
d="M631 168h280q36 0 56 -26q15 -19 15 -43q0 -9 -2 -19l-17 -80h-833q-36 0 -57 25q-14 19 -14 43q0 9 2 20l16 79h368l233 1093l-257 -258h-38q-44 0 -61 38q-6 15 -6 28q0 6 1 12q3 16 15 32l187 208q78 92 171 92h117q36 0 57 -25q14 -19 14 -43q0 -9 -2 -20z" />
    <glyph glyph-name="two" unicode="2" horiz-adv-x="1128" 
d="M191 0q-36 0 -57 25q-14 19 -14 43q0 9 2 20l8 41q33 151 172 273q89 76 293 191q211 118 290 184q138 114 168 252q6 27 6 51q0 77 -59 123q-70 53 -201 53q-104 0 -332 -67q-39 0 -61 27q-15 20 -15 45q0 10 2 21l13 60q269 89 430 89q202 0 316 -97q96 -83 96 -215
q0 -42 -10 -90q-60 -281 -447 -502q-248 -141 -278 -162q-137 -94 -176 -198l635 1q36 0 56 -26q15 -19 15 -43q0 -9 -2 -19l-17 -80h-833z" />
    <glyph glyph-name="three" unicode="3" horiz-adv-x="1128" 
d="M790 1431q203 0 317 -99q94 -83 94 -213q0 -42 -10 -90q-46 -214 -237 -295q175 -59 175 -235q0 -44 -11 -95q-89 -416 -636 -416q-175 0 -405 90l12 59q8 39 41 66t72 27q221 -74 316 -74q213 0 314 73q76 57 101 175q8 37 8 68q0 65 -36 101q-69 68 -284 68h-169
l36 169h169q183 8 262 66q64 47 87 153q6 27 6 51q0 77 -60 123q-69 53 -200 53q-75 0 -303 -67q-39 0 -61 27q-15 20 -15 45q0 10 2 21l13 60q269 89 401 89h1z" />
    <glyph glyph-name="four" unicode="4" horiz-adv-x="1161" 
d="M1059 511h88q37 0 58 -27q15 -19 15 -44q0 -10 -2 -20l-17 -80h-179l-72 -340h-96q-37 0 -58 25q-13 18 -13 42q0 10 2 21l53 252h-585q-38 0 -58 27q-15 20 -15 44q0 10 2 20l21 102l672 787q78 92 171 92h116q37 0 58 -25q13 -18 13 -42q0 -10 -2 -21zM398 511h477
l159 749z" />
    <glyph glyph-name="five" unicode="5" horiz-adv-x="1218" 
d="M527 856q186 78 324 78q252 0 339 -107q54 -68 54 -191q0 -76 -21 -174q-100 -471 -618 -474q-197 0 -427 90l12 60q8 38 41 65t71 27q222 -74 339 -74q334 2 398 306q16 75 16 129q0 70 -27 105q-48 62 -215 62q-160 0 -322 -73l-14 -62q-7 -36 -38 -62t-68 -26h-96
l167 789q8 37 39 63q31 25 68 25h876l-17 -79q-8 -38 -39 -64q-33 -27 -71 -27h-689z" />
    <glyph glyph-name="six" unicode="6" horiz-adv-x="1233" 
d="M1220 462q-101 -474 -578 -474h-6q-249 1 -341 112q-59 72 -59 199q0 73 19 163l106 498q54 246 207 358q143 105 398 105q175 0 406 -90l-12 -60q-8 -38 -41 -66q-33 -27 -72 -27q-200 68 -318 68q-172 0 -257 -63q-92 -67 -128 -234l-21 -99q204 82 325 82
q252 0 338 -107q55 -68 55 -192q0 -76 -21 -173zM440 462q-14 -67 -14 -118q0 -73 28 -113q51 -74 218 -75q167 1 251 75q78 69 112 231q16 75 16 129q0 70 -27 105q-48 62 -214 62q-139 0 -323 -76z" />
    <glyph glyph-name="seven" unicode="7" horiz-adv-x="1007" 
d="M1159 1412q38 0 59 -27q15 -19 15 -44q0 -10 -2 -20l-22 -102l-808 -1219h-209l824 1241h-680q-38 0 -58 27q-16 20 -16 45q0 10 2 20l17 79h878z" />
    <glyph glyph-name="eight" unicode="8" horiz-adv-x="1321" 
d="M1164 734q165 -59 165 -235q0 -47 -11 -101q-88 -410 -636 -410q-471 0 -471 304q0 49 12 106q55 261 296 336q-111 57 -111 204q0 50 13 111q40 189 214 292q153 90 354 90q202 0 316 -90q99 -79 99 -208q0 -40 -9 -84q-51 -238 -231 -315zM1031 226q77 55 102 172
q8 37 8 68q0 67 -37 104q-68 71 -283 71q-214 0 -312 -71q-76 -54 -101 -172q-8 -37 -8 -69q0 -66 36 -103q68 -70 282 -70q215 0 313 70zM1122 886q66 53 89 163q5 23 5 44q0 75 -65 119q-70 48 -197 49q-127 0 -218 -48q-107 -56 -130 -164q-8 -39 -8 -71q0 -58 27 -92
q55 -68 232 -76q181 8 265 76z" />
    <glyph glyph-name="nine" unicode="9" horiz-adv-x="1199" 
d="M316 948q100 475 578 475h4q251 -2 342 -113q60 -72 60 -201q0 -72 -19 -161l-106 -498q-55 -246 -207 -357q-145 -105 -399 -105q-175 0 -405 90l12 59q8 39 41 66t72 27q200 -67 318 -67q172 0 257 62q92 67 128 234l21 100q-205 -82 -325 -82q-252 0 -338 107
q-55 67 -55 191q0 76 21 173zM1096 948q14 68 14 119q0 73 -28 113q-53 73 -219 75q-168 -2 -250 -75q-78 -69 -112 -232q-16 -74 -16 -128q0 -70 27 -106q47 -62 214 -62q138 0 323 76z" />
    <glyph glyph-name="colon" unicode=":" horiz-adv-x="368" 
d="M88 124q8 37 41 62q32 26 70 26h93l-26 -124q-8 -37 -41 -63q-32 -25 -71 -25h-92zM220 742q7 36 40 62q32 26 71 26h92l-26 -125q-8 -36 -40 -62q-33 -26 -71 -26h-93z" />
    <glyph glyph-name="semicolon" unicode=";" horiz-adv-x="381" 
d="M-98 -352q133 161 200 476q8 37 41 62q32 26 70 26h93l-7 -31q-55 -259 -285 -498q-34 -35 -58 -35h-54zM234 742q7 36 40 62q32 26 70 26h93l-26 -125q-8 -36 -40 -62q-33 -26 -72 -26h-92z" />
    <glyph glyph-name="semicolon" unicode="&#x37e;" horiz-adv-x="381" 
d="M-98 -352q133 161 200 476q8 37 41 62q32 26 70 26h93l-7 -31q-55 -259 -285 -498q-34 -35 -58 -35h-54zM234 742q7 36 40 62q32 26 70 26h93l-26 -125q-8 -36 -40 -62q-33 -26 -72 -26h-92z" />
    <glyph glyph-name="less" unicode="&#x3c;" horiz-adv-x="1039" 
d="M138 757l1063 484v-10q0 -35 -6 -65q-22 -105 -126 -137l-693 -313l559 -314q73 -26 73 -98q0 -18 -5 -39q-7 -34 -26 -75l-857 484z" />
    <glyph glyph-name="equal" unicode="=" horiz-adv-x="1114" 
d="M282 787q-27 0 -41 26q-8 17 -8 38q0 13 3 27l10 49h893q28 0 43 -26q7 -17 7 -37q0 -13 -3 -28l-11 -49h-893zM209 441q-27 0 -42 26q-8 17 -8 38q0 13 3 27l10 49h893q28 0 43 -26q7 -16 7 -36q0 -13 -3 -28l-10 -50h-893z" />
    <glyph glyph-name="greater" unicode="&#x3e;" horiz-adv-x="1064" 
d="M1146 674l-1063 -484v10q0 35 6 65q23 105 126 137l693 313l-559 314q-72 26 -72 99q0 17 4 38q7 34 26 75l857 -484z" />
    <glyph glyph-name="question" unicode="?" horiz-adv-x="951" 
d="M458 428q-8 -37 -39 -63q-32 -25 -68 -25h-49l56 381q8 38 40 64q33 27 70 27q390 0 433 205q6 26 6 50q0 79 -61 130q-69 59 -187 59q-168 0 -396 -67q-39 0 -61 27q-15 20 -15 45q0 10 2 21l13 60q269 89 494 89q199 0 310 -105q89 -86 89 -215q0 -45 -10 -94
q-45 -213 -223 -301q-98 -48 -349 -83zM230 124q8 37 41 62q32 26 70 26h93l-26 -124q-8 -37 -41 -63q-32 -25 -71 -25h-92z" />
    <glyph glyph-name="at" unicode="@" horiz-adv-x="1661" 
d="M1189 509q13 62 13 112q0 203 -218 203q-272 0 -339 -315q-16 -73 -16 -127q0 -58 18 -96q43 -92 196 -92q214 0 318 183zM1522 -108q-16 -74 -95 -97q-367 -88 -680 -88q-387 0 -523 211q-76 118 -76 308q0 126 33 283q84 395 294 591q226 211 613 211t523 -211
q76 -118 76 -307q0 -126 -34 -284q-37 -175 -134 -290q-83 -98 -187 -131q-44 -14 -81 -14q-44 0 -78 20q-50 30 -50 88q0 16 4 35q-116 -167 -337 -167q-317 0 -317 296q0 73 19 163q98 459 523 459q344 0 344 -303q0 -70 -18 -156l-46 -219q-3 -14 -3 -25q0 -24 14 -35
q9 -7 20 -7q15 0 35 13q91 61 136 273q28 129 28 234q0 428 -467 428q-581 0 -722 -662q-28 -129 -28 -233q0 -429 468 -429q319 0 761 115z" />
    <glyph glyph-name="A" unicode="A" horiz-adv-x="1243" 
d="M838 1250l-383 -761h504l-59 761h-62zM370 321l-106 -212q-51 -109 -160 -109h-91l662 1315q50 108 159 108h142q109 0 114 -109l103 -1314h-91q-109 0 -115 110l-16 211h-601z" />
    <glyph glyph-name="B" unicode="B" horiz-adv-x="1273" 
d="M85 0l219 1029q41 193 223 304q163 99 367 99h4q206 -1 326 -100q104 -85 104 -218q0 -40 -10 -85q-45 -209 -237 -295q109 -37 151 -137q21 -53 21 -114q0 -38 -8 -79q-41 -191 -171 -287q-160 -117 -482 -117h-507zM406 642l-100 -474h322q217 0 322 67q86 56 110 169
q7 32 7 59q0 71 -45 111q-77 68 -294 68h-322zM703 809q221 0 321 59q85 50 109 161q5 24 5 46q0 80 -68 129q-76 53 -210 53h-5q-131 0 -228 -53q-114 -61 -138 -175l-47 -220h261z" />
    <glyph glyph-name="C" unicode="C" horiz-adv-x="1145" 
d="M227 897q53 252 243 396q182 139 438 139q225 0 456 -90l-13 -60q-8 -38 -41 -65t-71 -27q-201 67 -368 67q-171 0 -295 -94q-129 -98 -164 -266l-80 -374q-10 -49 -10 -92q0 -105 62 -174q84 -94 255 -94q167 0 396 67q38 0 59 -27q16 -20 16 -45q0 -10 -2 -20l-12 -60
q-270 -90 -495 -90q-256 0 -379 139q-91 101 -91 256q0 65 16 140z" />
    <glyph glyph-name="D" unicode="D" horiz-adv-x="1356" 
d="M1319 535q-54 -253 -243 -396q-183 -139 -438 -139h-568l191 897q53 252 243 396q182 139 438 139q255 0 379 -139q91 -102 91 -258q0 -64 -16 -138zM674 168q170 0 294 94q128 97 164 265l79 370q10 48 10 91q0 105 -62 175q-84 94 -254 94q-171 0 -295 -94
q-129 -98 -164 -266l-155 -729h383z" />
    <glyph glyph-name="E" unicode="E" horiz-adv-x="1133" 
d="M216 897q53 252 243 396q182 139 437 139q226 0 457 -90l-13 -60q-8 -38 -41 -65t-71 -27q-200 67 -369 67q-170 0 -294 -94q-129 -98 -164 -266l-19 -88h677q37 0 57 -25q14 -19 14 -43q0 -9 -2 -20l-17 -79h-765l-25 -119q-10 -49 -10 -92q0 -105 62 -174
q84 -94 254 -94q169 0 397 67q38 0 59 -27q16 -20 16 -45q0 -10 -2 -20l-12 -60q-270 -90 -496 -90q-255 0 -378 139q-91 101 -91 256q0 65 16 140z" />
    <glyph glyph-name="F" unicode="F" horiz-adv-x="1149" 
d="M270 897q53 252 243 396q182 139 438 139q225 0 456 -90l-13 -60q-8 -38 -40 -65q-34 -27 -72 -27q-201 67 -368 67q-171 0 -295 -94q-129 -98 -164 -266l-19 -88h677q37 0 57 -25q14 -19 14 -43q0 -9 -2 -20l-17 -79h-765l-116 -550q-9 -38 -41 -65q-33 -27 -72 -27h-92
z" />
    <glyph glyph-name="G" unicode="G" horiz-adv-x="1266" 
d="M1130 0h-96q-37 0 -57 26q-14 19 -14 42q0 10 2 20l21 101q-192 -201 -455 -201q-249 0 -349 139q-64 88 -64 227q0 77 20 169l80 374q53 252 243 396q182 139 437 139q226 0 457 -90l-13 -60q-8 -38 -41 -65t-71 -27q-200 67 -369 67q-170 0 -294 -94
q-129 -98 -164 -266l-80 -374q-15 -69 -15 -124q0 -236 261 -236q227 0 455 202l54 257q8 36 38 62q32 26 69 26h96z" />
    <glyph glyph-name="H" unicode="H" horiz-adv-x="1301" 
d="M298 88q-8 -36 -39 -62q-32 -26 -68 -26h-97l300 1413h97q36 0 57 -26q15 -19 15 -44q0 -9 -2 -18l-114 -535h668l114 535q7 36 39 62q31 26 67 26h97l-300 -1413h-97q-36 0 -56 26q-15 19 -15 43q0 9 2 19l113 534h-668z" />
    <glyph glyph-name="I" unicode="I" horiz-adv-x="449" 
d="M376 1325q7 36 39 62q31 26 67 26h97l-281 -1325q-8 -36 -39 -62q-32 -26 -68 -26h-97z" />
    <glyph glyph-name="J" unicode="J" horiz-adv-x="918" 
d="M861 1325q7 36 38 62t68 26h96l-189 -890q-54 -253 -242 -396q-184 -139 -439 -139q-85 0 -182 16l16 76q8 37 39 63q32 26 69 26q54 -6 96 -6q170 0 294 94q129 97 165 266z" />
    <glyph glyph-name="K" unicode="K" horiz-adv-x="1193" 
d="M749 790q101 1 139 23q45 26 95 126l204 409q30 65 114 65h95l-267 -550q-39 -81 -98 -114q59 -46 69 -217l32 -532h-95q-84 0 -87 64l-33 457q-6 68 -36 87q-24 14 -106 14h-364l-113 -534q-8 -36 -39 -62q-32 -26 -68 -26h-97l300 1413h97q36 0 57 -26q15 -19 15 -44
q0 -9 -2 -18l-114 -535h302z" />
    <glyph glyph-name="L" unicode="L" horiz-adv-x="1168" 
d="M372 1420h92q39 0 60 -27q15 -20 15 -45q0 -10 -2 -20l-171 -805q-10 -49 -10 -92q0 -105 62 -174q84 -94 255 -94q167 0 396 67q38 0 60 -27q15 -20 15 -45q0 -10 -2 -20l-12 -60q-270 -90 -495 -90q-256 0 -379 139q-91 101 -91 256q0 65 16 140z" />
    <glyph glyph-name="M" unicode="M" horiz-adv-x="1791" 
d="M93 0l282 1328q8 38 41 65t71 27h95q94 -1 111 -95l202 -1153l693 1153q57 94 151 95h95q38 0 59 -27q15 -20 15 -45q0 -10 -2 -20l-282 -1328h-92q-39 0 -60 27q-16 19 -16 44q0 10 3 21l237 1118l-675 -1124q-51 -86 -130 -86h-65q-79 0 -94 86l-197 1124l-237 -1118
q-9 -38 -41 -65q-33 -27 -72 -27h-92z" />
    <glyph glyph-name="N" unicode="N" horiz-adv-x="1397" 
d="M375 1328q8 38 41 65t71 27h190l403 -1248l265 1248h185l-282 -1328q-9 -38 -41 -65q-33 -27 -71 -27h-190l-403 1248l-245 -1156q-9 -38 -41 -65q-33 -27 -72 -27h-92z" />
    <glyph glyph-name="O" unicode="O" horiz-adv-x="1324" 
d="M1282 523q-54 -253 -243 -396q-183 -139 -439 -139q-255 0 -378 139q-91 101 -91 256q0 65 16 140l80 374q53 252 243 396q182 139 437 139q256 0 380 -139q91 -102 91 -258q0 -64 -16 -138zM576 1163q-129 -98 -164 -266l-80 -374q-10 -49 -10 -92q0 -105 62 -174
q84 -94 254 -94q171 0 295 94q128 97 164 266l80 374q10 48 10 91q0 105 -62 175q-84 94 -255 94q-170 0 -294 -94z" />
    <glyph glyph-name="P" unicode="P" horiz-adv-x="1171" 
d="M272 0h-185l219 1029q41 193 223 304q163 99 367 99h4q206 -1 326 -100q104 -85 104 -218q0 -40 -10 -85q-95 -444 -663 -444h-261zM432 753h261q383 0 442 276q5 24 5 46q0 80 -68 129q-76 53 -210 53h-5q-131 0 -228 -53q-114 -61 -138 -175z" />
    <glyph glyph-name="Q" unicode="Q" horiz-adv-x="1324" 
d="M576 1163q-129 -98 -164 -266l-80 -374q-10 -49 -10 -92q0 -105 62 -174q84 -94 255 -94q170 0 294 94q128 97 164 266l80 374q10 48 10 91q0 105 -62 175q-84 94 -254 94q-171 0 -295 -94zM654 -10q-26 -2 -53 -2q-256 0 -379 139q-91 101 -91 256q0 65 16 140l80 374
q53 252 243 396q182 139 438 139q255 0 379 -139q91 -102 91 -258q0 -64 -16 -138l-80 -374q-54 -253 -243 -396q-92 -70 -202 -105l58 -241h-120q-72 0 -87 64z" />
    <glyph glyph-name="R" unicode="R" horiz-adv-x="1206" 
d="M432 753h261q383 0 442 276q5 24 5 46q0 80 -68 129q-76 53 -210 53h-5q-131 0 -228 -53q-114 -61 -138 -175zM1075 376l90 -376h-120q-72 0 -87 64l-74 312l-25 107q-18 102 -177 102h-286l-124 -585h-185l219 1029q41 193 223 304q163 99 367 99h4q206 -1 326 -100
q104 -85 104 -218q0 -40 -10 -85q-64 -300 -340 -397q53 -38 87 -222z" />
    <glyph glyph-name="S" unicode="S" horiz-adv-x="1140" 
d="M807 220q116 65 139 176q6 26 6 49q0 97 -97 140q-53 24 -274 59q-194 30 -269 90q-82 65 -82 187q0 44 11 96q42 195 211 309q155 106 354 106q225 0 456 -90l-13 -60q-8 -38 -40 -65q-33 -27 -71 -27q-201 67 -369 67q-117 0 -213 -60q-106 -67 -130 -180
q-5 -21 -5 -41q0 -89 101 -128q41 -16 280 -53q192 -30 267 -97q77 -66 77 -186q0 -47 -12 -103l-3 -12q-45 -193 -221 -306q-160 -103 -360 -103q-225 0 -455 90l12 60q8 38 41 65t71 27q201 -67 369 -67q119 0 219 57z" />
    <glyph glyph-name="T" unicode="T" horiz-adv-x="976" 
d="M361 1245q-36 0 -57 26q-15 18 -15 43q0 9 2 19l17 80h919q36 0 57 -26q15 -19 15 -44q0 -9 -2 -18l-17 -80h-411l-246 -1157q-8 -36 -39 -62q-32 -26 -68 -26h-97l265 1245h-323z" />
    <glyph glyph-name="U" unicode="U" horiz-adv-x="1237" 
d="M1179 391q-41 -192 -222 -303q-162 -99 -369 -100q-207 0 -329 99q-104 85 -104 219q0 40 10 85l217 1022h185l-217 -1022q-5 -24 -5 -46q0 -81 69 -129q75 -53 206 -53h5q134 0 232 53q113 62 137 175l217 1022h185z" />
    <glyph glyph-name="V" unicode="V" horiz-adv-x="1184" 
d="M676 163l566 1140q52 109 161 109h91l-661 -1313q-51 -110 -160 -110h-142q-109 0 -114 108l-103 1315h91q109 0 114 -108l84 -1141h73z" />
    <glyph glyph-name="W" unicode="W" horiz-adv-x="2083" 
d="M591 163l563 1140q50 109 155 109h89q105 0 109 -108l79 -1141l563 1140q51 109 156 109h88l-648 -1313q-51 -110 -157 -110h-78q-105 0 -109 108l-80 1159l-572 -1157q-51 -110 -156 -110h-78q-106 0 -110 108l-91 1315h88q106 0 110 -108z" />
    <glyph glyph-name="X" unicode="X" horiz-adv-x="1178" 
d="M889 813q45 26 95 126l204 409q30 65 114 65h95l-266 -550q-39 -81 -99 -114q59 -46 69 -217l32 -532h-95q-84 0 -87 64l-33 457q-6 68 -36 87q-24 14 -105 14h-125q-82 0 -112 -14q-38 -19 -71 -87l-227 -457q-32 -64 -116 -64h-95l258 532q83 171 161 217
q-45 33 -50 114l-33 550h95q84 0 89 -65l29 -409q6 -100 41 -126q29 -22 129 -23q101 1 139 23z" />
    <glyph glyph-name="Y" unicode="Y" horiz-adv-x="1136" 
d="M676 88q-8 -36 -39 -62q-32 -26 -68 -26h-97l132 623q-154 1 -199 42q-51 46 -60 216l-32 532h95q84 0 89 -65l33 -456q4 -69 34 -87q24 -15 106 -15h125q81 0 111 15q38 18 73 87l227 456q30 65 114 65h95l-258 -532q-78 -163 -149 -211q-65 -43 -219 -47z" />
    <glyph glyph-name="Z" unicode="Z" horiz-adv-x="1100" 
d="M1254 1412q38 0 59 -26q15 -20 15 -45q0 -10 -2 -20l-22 -102l-1031 -1049h716q38 0 59 -26q15 -20 15 -45q0 -10 -2 -20l-17 -79h-915q-38 0 -58 27q-16 19 -16 45q0 9 2 19l22 102l1031 1049h-717q-38 0 -58 27q-16 19 -16 45q0 9 2 19l17 79h916z" />
    <glyph glyph-name="bracketleft" unicode="[" horiz-adv-x="531" 
d="M18 -384l424 1995h331l-28 -133h-162l-367 -1729h162l-29 -133h-331z" />
    <glyph glyph-name="backslash" unicode="\" horiz-adv-x="603" 
d="M400 1412h48q33 0 49 -20q14 -19 15 -48l-9 -1344h-48q-33 0 -49 20q-14 19 -15 48z" />
    <glyph glyph-name="bracketright" unicode="]" horiz-adv-x="531" 
d="M18 -384l29 133h162l367 1729h-162l28 133h331l-424 -1995h-331z" />
    <glyph glyph-name="asciicircum" unicode="^" horiz-adv-x="996" 
d="M901 805l-147 406l-317 -406h-166l488 621h83l225 -621h-166z" />
    <glyph glyph-name="underscore" unicode="_" horiz-adv-x="1237" 
d="M119 -222q-27 0 -42 26q-8 17 -8 38q0 13 3 27l11 49h971q28 0 42 -26q7 -16 7 -36q0 -13 -3 -28l-10 -50h-971z" />
    <glyph glyph-name="grave" unicode="`" horiz-adv-x="623" 
d="M377 1301q45 125 113 125q23 0 47 -13l233 -251l-60 -56z" />
    <glyph glyph-name="a" unicode="a" horiz-adv-x="1169" 
d="M981 518q17 80 17 141q0 70 -22 116q-53 107 -231 107t-275 -107q-80 -86 -116 -257q-18 -84 -18 -147q0 -67 20 -110q50 -107 227 -107q247 0 366 212zM909 181q-133 -193 -389 -193q-364 0 -364 340q0 85 22 190q113 530 603 530q397 0 397 -350q0 -81 -21 -180
l-110 -518h-88q-36 0 -56 26q-15 18 -15 43q0 9 2 19z" />
    <glyph glyph-name="b" unicode="b" horiz-adv-x="1179" 
d="M376 518q-17 -79 -17 -140q0 -71 23 -117q53 -107 231 -107t275 107q79 86 115 257q18 84 18 147q0 67 -20 110q-50 107 -227 107q-246 0 -366 -212zM448 855q134 193 389 193q364 0 364 -340q0 -85 -22 -190q-113 -530 -602 -530q-398 0 -398 350q0 81 21 180l190 895
h88q36 0 57 -26q15 -19 15 -44q0 -9 -2 -18z" />
    <glyph glyph-name="c" unicode="c" horiz-adv-x="1001" 
d="M977 84q-181 -96 -422 -96q-398 0 -398 350q0 81 21 180q113 530 603 530q241 0 380 -96l-18 -84q-10 -51 -57 -51q-16 0 -35 5q-150 60 -306 60q-178 0 -275 -107q-80 -86 -116 -257q-17 -79 -17 -140q0 -71 23 -117q53 -107 231 -107q156 0 330 60q22 5 38 5
q38 0 38 -34q0 -7 -2 -17z" />
    <glyph glyph-name="d" unicode="d" horiz-adv-x="1180" 
d="M1046 824q-148 58 -301 58q-173 0 -270 -101q-83 -86 -121 -263q-18 -84 -18 -147q0 -71 23 -116q52 -101 224 -101q246 0 366 212zM909 181q-133 -193 -389 -193q-364 0 -364 340q0 85 22 190q113 530 603 530q170 0 301 -54l71 331q7 36 39 62q31 26 67 26h88
l-300 -1413h-88q-36 0 -56 26q-15 18 -15 43q0 9 2 19z" />
    <glyph glyph-name="e" unicode="e" horiz-adv-x="1065" 
d="M917 606q7 52 7 93q0 66 -18 102q-42 81 -190 81q-150 0 -234 -80q-66 -64 -104 -196h539zM556 -12q-398 0 -398 350q0 81 21 180q113 530 573 530q249 0 321 -155q30 -65 30 -164q0 -91 -25 -210q-17 -81 -105 -81h-631q-8 -42 -8 -77q0 -207 258 -207q156 0 330 60
q22 5 38 5q38 0 38 -34q0 -7 -2 -17l-18 -84q-181 -96 -422 -96z" />
    <glyph glyph-name="f" unicode="f" horiz-adv-x="682" 
d="M807 1036q37 0 57 -26q15 -19 15 -44q0 -8 -2 -18l-18 -80h-345l-165 -780q-8 -37 -39 -62q-32 -26 -68 -26h-88l184 868h-54q-37 0 -56 26q-15 18 -15 43q0 9 2 19l17 80h142l4 20q45 208 173 293q110 74 320 74q97 0 194 -23l-18 -85q-15 -68 -100 -68q-58 10 -111 10
q-126 0 -185 -37q-71 -44 -97 -164l-4 -20h257z" />
    <glyph glyph-name="g" unicode="g" horiz-adv-x="1168" 
d="M981 518q17 80 17 141q0 70 -22 116q-53 107 -231 107t-275 -107q-80 -86 -116 -257q-18 -84 -18 -147q0 -67 20 -110q50 -107 227 -107q246 0 366 212zM909 181q-133 -193 -389 -193q-364 0 -364 340q0 85 22 190q113 530 603 530q397 0 397 -350q0 -81 -21 -180
l-80 -375q-112 -530 -601 -530q-242 0 -382 97l18 83q11 52 58 52q15 0 35 -6q149 -60 306 -60q178 0 276 107q78 86 114 257z" />
    <glyph glyph-name="h" unicode="h" horiz-adv-x="1144" 
d="M1009 0h-88q-36 0 -56 26q-15 18 -15 43q0 9 2 19l125 590q7 34 7 62q0 142 -182 142q-246 0 -365 -211l-124 -583q-8 -37 -39 -62q-32 -26 -68 -26h-88l300 1413h88q36 0 57 -26q15 -19 15 -44q0 -9 -2 -18l-100 -470q134 193 389 193q305 0 305 -240q0 -49 -12 -107z
" />
    <glyph glyph-name="i" unicode="i" horiz-adv-x="408" 
d="M318 948q7 37 39 62q31 26 67 26h88l-201 -948q-8 -37 -39 -62q-32 -26 -68 -26h-88zM398 1325q7 36 39 62q31 26 67 26h88l-26 -125q-8 -36 -39 -62q-32 -26 -68 -26h-88z" />
    <glyph glyph-name="j" unicode="j" horiz-adv-x="435" 
d="M290 -22q-39 -187 -145 -274q-94 -78 -264 -91q-34 0 -54 24q-14 18 -14 41q0 9 2 18l17 80q126 0 185 37q72 44 97 165l207 970q7 37 39 62q31 26 67 26h88zM401 1325q7 36 39 62q31 26 67 26h88l-26 -125q-8 -36 -39 -62t-68 -26h-88z" />
    <glyph glyph-name="k" unicode="k" horiz-adv-x="1036" 
d="M420 1413h88q36 0 57 -26q15 -19 15 -44q0 -9 -2 -18l-154 -723h258q90 0 124 56l171 309q37 69 125 69h88l-200 -363q-50 -91 -95 -118q51 -43 62 -128l54 -427h-88q-88 0 -96 63l-40 314q-7 57 -81 57h-318l-73 -346q-8 -37 -39 -62q-32 -26 -68 -26h-88z" />
    <glyph glyph-name="l" unicode="l" horiz-adv-x="532" 
d="M413 1413h88q36 0 57 -26q15 -19 15 -44q0 -9 -2 -18l-208 -978q-16 -73 -16 -115q0 -53 24 -61q25 -8 58 -8q23 0 50 4q73 0 73 -51q0 -8 -2 -18l-18 -85q-81 -18 -159 -18q-24 0 -48 2q-100 7 -140 79q-20 34 -20 99q0 69 22 172z" />
    <glyph glyph-name="m" unicode="m" horiz-adv-x="1676" 
d="M882 678q10 48 10 84q0 53 -22 80q-32 40 -128 40q-193 0 -312 -211l-124 -583q-8 -37 -39 -62q-32 -26 -68 -26h-88l220 1036h88q36 0 57 -26q15 -19 15 -44q0 -8 -2 -18l-20 -93q134 193 336 193q260 0 271 -213q161 213 356 213q272 0 272 -232q0 -52 -13 -115
l-149 -701h-88q-37 0 -56 26q-15 18 -15 43q0 9 2 19l125 590q10 48 10 84q0 53 -22 80q-33 40 -129 40q-193 0 -312 -211l-124 -583q-8 -37 -38 -62q-32 -26 -69 -26h-88z" />
    <glyph glyph-name="n" unicode="n" horiz-adv-x="1134" 
d="M1002 0h-88q-36 0 -56 26q-15 18 -15 43q0 9 2 19l125 590q7 34 7 62q0 142 -182 142q-246 0 -366 -212l-123 -582q-8 -37 -39 -62q-32 -26 -68 -26h-88l220 1036h88q36 0 57 -26q15 -19 15 -44q0 -8 -2 -18l-20 -93q134 193 389 193q305 0 305 -240q0 -49 -12 -107z" />
    <glyph glyph-name="o" unicode="o" horiz-adv-x="1151" 
d="M745 881q-178 0 -275 -106q-80 -86 -116 -257q-17 -79 -17 -140q0 -71 23 -118q53 -106 231 -106t275 106q79 87 115 258q17 80 17 141q0 70 -22 116q-53 106 -231 106zM781 1048q397 0 397 -350q0 -81 -21 -180q-113 -530 -602 -530q-398 0 -398 350q0 81 21 180
q113 530 603 530z" />
    <glyph glyph-name="p" unicode="p" horiz-adv-x="1194" 
d="M333 212q149 -58 302 -58q173 0 269 100q83 87 121 264q18 84 18 147q0 71 -23 116q-51 100 -224 100q-252 0 -362 -194zM470 855q134 193 389 193q364 0 364 -340q0 -85 -22 -190q-113 -530 -602 -530q-170 0 -302 54l-70 -331q-8 -36 -40 -62q-31 -26 -67 -26h-88
l300 1413h88q36 0 57 -26q15 -19 15 -44q0 -9 -2 -18z" />
    <glyph glyph-name="q" unicode="q" horiz-adv-x="1171" 
d="M981 518q17 80 17 141q0 70 -22 116q-53 106 -231 106t-275 -106q-80 -86 -116 -257q-18 -84 -18 -148q0 -66 20 -110q50 -106 227 -106q253 0 362 195zM909 180q-133 -192 -389 -192q-364 0 -364 340q0 85 22 190q113 530 603 530q397 0 397 -350q0 -81 -21 -180
l-190 -895h-88q-36 0 -57 26q-14 19 -14 42q0 10 2 20z" />
    <glyph glyph-name="r" unicode="r" horiz-adv-x="840" 
d="M331 1036h88q36 0 57 -26q15 -19 15 -44q0 -9 -2 -18l-20 -93q134 193 336 193q96 0 193 -23l-18 -85q-15 -68 -100 -68q-59 9 -138 9q-193 0 -313 -211l-123 -582q-8 -37 -40 -63q-31 -25 -67 -25h-88z" />
    <glyph glyph-name="s" unicode="s" horiz-adv-x="907" 
d="M989 951l-18 -83q-11 -52 -58 -52q-15 0 -34 6q-151 59 -281 59q-86 0 -144 -45q-54 -40 -66 -98q-2 -11 -2 -20q0 -56 73 -81q2 -1 195 -39q132 -25 185 -79q52 -51 52 -137q0 -35 -9 -76l-2 -9q-29 -126 -140 -213q-123 -96 -296 -96q-217 0 -356 96l17 83q12 52 60 52
q15 0 33 -5q151 -60 282 -60q86 0 150 45q59 41 71 98q3 14 3 27q0 61 -69 89q-25 10 -193 42q-132 25 -186 73q-55 50 -55 137q0 33 8 73q27 127 133 213q119 97 292 97q216 0 355 -97z" />
    <glyph glyph-name="t" unicode="t" horiz-adv-x="813" 
d="M305 868q-36 0 -56 26q-15 18 -15 43q0 9 2 19l17 80h145l39 183q8 37 39 62q32 26 68 26h88l-58 -271h329q36 0 57 -26q15 -19 15 -44q0 -9 -2 -18l-18 -80h-417l-109 -513q-8 -39 -8 -70q0 -65 35 -95q45 -36 171 -36q53 0 115 9q72 0 72 -49q0 -9 -2 -19l-18 -85
q-106 -22 -203 -22q-211 0 -290 74q-62 58 -62 171q0 55 14 122l109 513h-57z" />
    <glyph glyph-name="u" unicode="u" horiz-adv-x="1138" 
d="M862 180q-133 -192 -389 -192q-305 0 -305 240q0 49 12 107l149 701h88q36 0 57 -26q15 -19 15 -44q0 -9 -2 -18l-126 -590q-7 -34 -7 -62q0 -142 182 -142q253 0 362 195l128 599q7 36 39 62q31 26 67 26h88l-220 -1036h-88q-36 0 -57 25q-14 19 -14 43q0 9 2 20z" />
    <glyph glyph-name="v" unicode="v" horiz-adv-x="937" 
d="M311 1036q93 0 98 -90l70 -816l416 816q43 90 136 90h90l-483 -946q-43 -90 -136 -90h-102q-93 0 -98 90l-81 946h90z" />
    <glyph glyph-name="w" unicode="w" horiz-adv-x="1538" 
d="M317 1036q93 0 98 -90l25 -816l354 816q43 90 135 90h76q92 0 97 -90l33 -816l346 816q43 90 136 90h69l-392 -946q-43 -90 -136 -90h-103q-92 0 -97 90l-31 792l-328 -792q-43 -90 -136 -90h-102q-93 0 -98 90l-36 946h90z" />
    <glyph glyph-name="x" unicode="x" horiz-adv-x="967" 
d="M522 434q-74 0 -105 -58l-171 -310q-37 -66 -125 -66h-88l236 427q47 85 117 127q-34 28 -45 119l-47 363h88q88 0 97 -72l40 -307q9 -54 81 -55h22q72 1 105 55l170 307q39 72 127 72h88l-201 -363q-49 -91 -95 -119q52 -42 63 -127l54 -427h-88q-88 0 -97 66l-39 310
q-7 58 -81 58h-106z" />
    <glyph glyph-name="y" unicode="y" horiz-adv-x="1141" 
d="M1029 143q-112 -530 -601 -530q-242 0 -382 96l18 83q11 52 59 52q15 0 34 -5q149 -60 306 -60q178 0 276 107q78 86 114 257l8 37q-133 -192 -389 -192q-305 0 -305 240q0 49 12 107l149 701h88q36 0 57 -26q15 -19 15 -44q0 -9 -2 -18l-126 -590q-7 -34 -7 -62
q0 -142 182 -142q246 0 366 212l124 582q7 36 39 62q31 26 67 26h88z" />
    <glyph glyph-name="z" unicode="z" horiz-adv-x="874" 
d="M951 1036q36 0 57 -26q15 -19 15 -44q0 -9 -2 -18l-18 -80l-711 -701h474q36 0 57 -25q15 -19 15 -43q0 -10 -2 -20l-17 -79h-688q-36 0 -57 25q-14 19 -14 43q0 9 2 20l16 79l711 701h-474q-36 0 -56 26q-15 18 -15 43q0 9 2 19l17 80h688z" />
    <glyph glyph-name="braceleft" unicode="{" horiz-adv-x="798" 
d="M515 573q36 -71 36 -166q0 -64 -16 -139q-12 -57 -32 -119q-36 -106 -51 -178q-12 -58 -12 -95q0 -38 12 -55q43 -71 135 -71q27 0 59 6l-28 -132q-42 -8 -79 -8q-142 0 -211 115q-36 71 -36 166q0 64 16 139q12 57 33 120q35 104 51 176q12 57 12 94q0 39 -13 57
q-30 51 -86 66l-88 3l28 131l89 3q62 15 114 66q40 35 65 151q15 72 25 177q5 62 17 119q40 187 150 305q118 115 260 115q37 0 75 -8l-28 -132q-29 6 -56 6q-92 0 -165 -71q-40 -34 -64 -149q-16 -73 -25 -178q-5 -63 -17 -119q-40 -188 -151 -306q-26 -25 -53 -45
q19 -19 34 -44z" />
    <glyph glyph-name="bar" unicode="|" horiz-adv-x="336" 
d="M442 1608q8 37 39 63q31 25 67 25h48l-400 -1883q-8 -37 -38 -63q-31 -25 -68 -25h-48z" />
    <glyph glyph-name="braceright" unicode="}" horiz-adv-x="798" 
d="M579 617q-19 20 -33 45q-37 71 -37 168q0 64 16 138q12 56 33 119q35 105 51 178q12 58 12 95t-12 54q-43 71 -135 71q-27 0 -60 -6l28 132q42 8 79 8q142 0 212 -115q36 -71 36 -166q0 -64 -16 -139q-12 -57 -33 -119q-36 -105 -51 -177q-12 -57 -12 -94q0 -39 13 -57
q30 -51 86 -66l87 -3l-28 -131l-88 -3q-62 -15 -114 -66q-41 -35 -65 -151q-16 -72 -25 -176q-5 -63 -17 -120q-40 -187 -150 -305q-119 -115 -261 -115q-37 0 -75 8l28 132q30 -6 57 -6q92 0 165 71q39 34 64 150q15 72 26 178q5 62 17 119q40 187 150 305q25 25 52 44z
" />
    <glyph glyph-name="asciitilde" unicode="~" horiz-adv-x="1009" 
d="M485 696q-51 0 -113 -28q-30 -13 -65 -39q-3 -2 -5 -4q-21 -17 -44 -17q-16 0 -27 8l20 96q80 73 144.5 99t119.5 26q63 0 162.5 -44t153.5 -44q51 0 113 28q30 13 65 39q3 2 5 4q21 17 44 17q16 0 27 -8l-20 -96q-80 -73 -144.5 -99t-119.5 -26q-57 0 -159.5 44
t-156.5 44z" />
    <glyph glyph-name="exclamdown" unicode="&#xa1;" horiz-adv-x="902" 
d="M472 -288q-8 -37 -40 -63q-31 -25 -67 -25h-145l257 984q8 37 39 63q32 25 68 25h49zM703 912q-8 -37 -41 -62q-32 -26 -71 -26h-92l26 124q8 37 41 63q32 25 70 25h93z" />
    <glyph glyph-name="cent" unicode="&#xa2;" horiz-adv-x="1091" 
d="M499 172l296 710h-18q-178 0 -275 -107q-80 -86 -116 -257q-17 -79 -17 -140q0 -71 23 -117q31 -63 107 -89zM604 154h19q156 0 330 60q22 5 38 5q38 0 38 -34q0 -7 -2 -17l-18 -84q-181 -96 -422 -96q-27 0 -52 2l-47 -110q-13 -29 -35 -48q-24 -20 -57 -20h-48l81 194
q-240 60 -240 332q0 81 21 180q113 530 603 530q27 0 53 -1l45 109q13 29 35 48q24 20 57 20h48l-79 -188q132 -22 221 -84l-18 -84q-10 -51 -57 -51q-16 0 -35 5q-89 35 -180 50z" />
    <glyph glyph-name="sterling" unicode="&#xa3;" horiz-adv-x="1287" 
d="M435 701q1 18 1 36q1 132 23 236q48 228 199 320q172 139 408 139q175 0 406 -90l-13 -60q-8 -38 -40 -65q-34 -27 -72 -27q-201 67 -318 67q-151 0 -265 -94q-89 -62 -121 -214q-18 -85 -18 -200v-12q0 -18 -1 -36h518q28 0 42 -26q8 -17 8 -37q0 -13 -3 -27l-11 -50
h-567q-4 -26 -10 -51q-3 -21 -7 -41q-39 -181 -145 -301h659q36 0 56 -26q15 -19 15 -43q0 -9 -2 -19l-17 -80h-1087l20 94q15 69 100 69q168 85 210 284q7 34 11 71q5 21 8 43h-137q-27 0 -41 26q-8 17 -8 38q0 13 3 27l10 49h186z" />
    <glyph glyph-name="currency" unicode="&#xa4;" horiz-adv-x="1114" 
d="M778 1009q-140 0 -216 -80q-61 -64 -89 -193q-12 -57 -12 -102q0 -56 19 -92q42 -80 182 -80t216 80q62 65 89 194q12 57 12 102q0 55 -19 91q-42 80 -182 80zM1020 521l40 -51q11 -14 11 -32q0 -8 -2 -16q-2 -6 -4 -13q-17 -39 -54 -70l-50 -41l-76 96
q-103 -57 -249 -57q-152 0 -231 63l-58 -48q-23 -19 -52 -19q-6 0 -13 1q-37 9 -62 39l-32 41l139 115q-7 34 -7 75q0 59 15 132q31 142 99 233l-58 72q-11 14 -11 34q0 7 2 16q1 6 3 12q17 37 54 68l50 41l99 -126q97 49 232 49q134 0 212 -48l-5 6l77 64q24 20 54 20
q6 0 12 -1q35 -9 60 -39l32 -41l-143 -118q17 -48 17 -109q0 -60 -16 -133q-27 -128 -85 -215z" />
    <glyph glyph-name="yen" unicode="&#xa5;" horiz-adv-x="1302" 
d="M672 532l19 91q-154 1 -199 42q-51 46 -60 216l-32 532h95q84 0 89 -65l33 -456q4 -69 34 -87q24 -15 106 -15h125q81 0 111 15q38 18 73 87l227 456q30 65 114 65h95l-258 -532q-78 -163 -149 -211q-65 -43 -219 -47l-19 -91h270q28 0 43 -26q7 -17 7 -37q0 -13 -3 -28
l-11 -49h-336l-25 -117h270q28 0 43 -26q7 -16 7 -36q0 -13 -3 -28l-10 -50h-336l-10 -47q-8 -36 -39 -62q-32 -26 -68 -26h-97l29 135h-270q-27 0 -42 26q-8 17 -8 38q0 13 3 27l10 49h336l25 117h-270q-27 0 -41 26q-8 17 -8 38q0 13 3 27l10 49h336z" />
    <glyph glyph-name="brokenbar" unicode="&#xa6;" horiz-adv-x="336" 
d="M442 1038q8 15.9102 39 27.0898q31 10.75 67 10.75h48l-400 -809.677q-8 -15.9092 -38 -27.0889q-31 -10.75 -68 -10.75h-48zM442 529.321q8 15.9092 39 27.0889q31 10.75 67 10.75h48l-400 -809.676q-8 -15.9102 -38 -27.0898q-31 -10.75 -68 -10.75h-48z" />
    <glyph glyph-name="section" unicode="&#xa7;" horiz-adv-x="1111" 
d="M941 249q4 -3 8 -7q69 -59 69 -167q0 -41 -10 -90l-3 -11q-40 -172 -197 -273q-142 -91 -321 -91q-200 0 -406 80l11 53q8 34 37 58t63 24q179 -59 328 -59q106 0 196 50q103 58 124 157q5 24 5 44q0 86 -86 125q-47 21 -245 52q-172 27 -240 81q-72 58 -72 165
q0 40 10 87q37 174 187 275l-10 8q-73 58 -73 165q0 40 10 87q37 174 187 276q139 94 316 94q201 0 407 -80l-11 -54q-7 -34 -36 -58q-31 -24 -64 -24q-179 60 -329 60q-104 0 -189 -53q-95 -60 -116 -161q-4 -19 -4 -36q0 -80 90 -115q36 -14 249 -47q170 -27 238 -86
t68 -167q0 -42 -10 -91l-3 -11q-38 -162 -178 -260zM759 320q37 12 71 32q103 58 124 157q5 23 5 44q0 85 -86 124q-47 21 -245 53q-10 2 -21 3q-61 -12 -114 -46q-95 -59 -116 -160q-4 -19 -4 -36q0 -80 89 -115q37 -14 250 -47q25 -4 47 -9z" />
    <glyph glyph-name="dieresis" unicode="&#xa8;" horiz-adv-x="718" 
d="M361 1229q8 36 40 62q33 26 72 26h92l-27 -125q-7 -36 -40 -62q-32 -26 -70 -26h-93zM853 1104h-93q-38 0 -60 26q-16 20 -16 45q0 8 2 17l27 125h92q39 0 60 -26q16 -19 16 -43q0 -9 -2 -19z" />
    <glyph glyph-name="copyright" unicode="&#xa9;" horiz-adv-x="1682" 
d="M670 818q32 151 145 237q109 83 262 83q135 0 273 -54l-7 -36q-12 -55 -68 -55q-119 40 -220 40q-102 0 -176 -56q-78 -58 -99 -159l-48 -224q-6 -29 -6 -55q0 -63 37 -104q51 -56 153 -56q101 0 237 40q46 0 46 -38q0 -8 -2 -18l-7 -35q-162 -54 -297 -54
q-153 0 -226 83q-54 61 -54 154q0 39 9 83zM1106 1402q336 0 453 -183q65 -102 65 -266q0 -109 -29 -247q-73 -344 -254 -513q-195 -183 -531 -183q-337 0 -454 183q-65 101 -65 265q0 110 29 248q73 343 254 513q195 183 532 183zM1085 1301q-523 0 -650 -595
q-24 -116 -24 -209q0 -386 421 -386q522 0 648 595q25 116 25 210q0 385 -420 385z" />
    <glyph glyph-name="ordfeminine" unicode="&#xaa;" horiz-adv-x="846" 
d="M862 1095q9 44 9 78q0 46 -16 76q-36 64 -153 64q-118 0 -181 -64q-51 -52 -72 -154q-10 -48 -10 -84q0 -43 14 -70q34 -65 151 -65q163 0 238 128zM819 893q-85 -116 -254 -116q-245 0 -245 211q0 48 13 107q67 318 390 318q268 0 268 -218q0 -45 -12 -100l-66 -311h-58
q-24 0 -38 16q-11 11 -11 26q0 6 1 11z" />
    <glyph glyph-name="guillemotleft" unicode="&#xab;" horiz-adv-x="813" 
d="M470 334q6 -16 6 -44q0 -55 -22 -157l-250 356l17 82l402 356q-33 -154 -70 -201l-175 -196zM757 334q6 -16 6 -44q0 -55 -22 -157l-250 356l17 82l402 356q-33 -154 -70 -201l-175 -196z" />
    <glyph glyph-name="logicalnot" unicode="&#xac;" horiz-adv-x="980" 
d="M873 624h-574q-27 0 -42 26q-8 17 -8 38q0 13 3 27l10 49h780l-77 -366q-6 -27 -36 -47q-32 -19 -69 -19h-49z" />
    <glyph glyph-name="registered" unicode="&#xae;" horiz-adv-x="1475" 
d="M1036 1402q336 0 453 -183q65 -102 65 -266q0 -109 -29 -247q-73 -344 -254 -513q-195 -183 -531 -183q-337 0 -454 183q-65 101 -65 265q0 110 29 248q73 343 254 513q195 183 532 183zM1015 1301q-523 0 -650 -595q-24 -116 -24 -209q0 -386 421 -386q522 0 648 595
q25 116 25 210q0 385 -420 385zM582 273h-112l132 622q25 116 135 184q98 59 221 59h4q124 0 196 -60q62 -51 62 -131q0 -25 -6 -52q-38 -181 -204 -240q31 -23 53 -134l58 -248h-72q-44 0 -54 39l-59 253q-10 62 -106 62h-173zM679 728h158q231 0 266 167q3 15 3 29
q0 47 -41 76q-45 33 -126 33t-141 -32q-69 -37 -84 -106z" />
    <glyph glyph-name="macron" unicode="&#xaf;" horiz-adv-x="1096" 
d="M406 1130q-27 0 -41 26q-8 17 -8 38q0 13 3 27l10 49h830q28 0 42 -26q8 -17 8 -37q0 -13 -3 -27l-11 -50h-830z" />
    <glyph glyph-name="degree" unicode="&#xb0;" horiz-adv-x="816" 
d="M698 1362q-112 0 -174 -67q-49 -54 -72 -161q-11 -51 -11 -90q0 -44 14 -73q33 -67 145 -67t174 67q49 55 72 163q11 50 11 89q0 43 -14 72q-33 67 -145 67zM720 1467q250 0 250 -220q0 -51 -13 -113q-71 -334 -379 -334q-250 0 -250 221q0 50 13 113q71 333 379 333z
" />
    <glyph glyph-name="plusminus" unicode="&#xb1;" horiz-adv-x="1159" 
d="M638 624h-344q-27 0 -42 26q-8 17 -8 38q0 13 3 27l10 49h410l74 344q5 28 36 48q31 18 68 18h50l-88 -410h343q28 0 43 -26q7 -16 7 -36q0 -13 -3 -28l-10 -50h-409l-73 -343q-6 -27 -36 -47q-32 -19 -69 -19h-49zM294 0q-27 0 -42 26q-8 17 -8 38q0 13 3 27l10 49h893
q28 0 43 -26q7 -16 7 -36q0 -13 -3 -28l-10 -50h-893z" />
    <glyph glyph-name="uni00B2" unicode="&#xb2;" horiz-adv-x="753" 
d="M270 550q-21 0 -34 15q-9 12 -9 26q0 6 1 12l5 24q20 91 104 164q53 46 176 115q127 71 174 110q83 69 100 151q4 17 4 31q0 47 -36 74q-42 32 -120 32q-63 0 -200 -41q-23 0 -36 17q-9 12 -9 27q0 6 1 12l8 36q161 54 258 54q121 0 189 -59q58 -50 58 -129q0 -25 -6 -54
q-36 -168 -268 -301q-149 -84 -167 -97q-82 -56 -105 -119l380 1q22 0 34 -16q9 -11 9 -25q0 -6 -1 -12l-10 -48h-500z" />
    <glyph glyph-name="uni00B3" unicode="&#xb3;" horiz-adv-x="784" 
d="M655 1409q122 0 191 -60q56 -49 56 -127q0 -26 -6 -55q-27 -128 -143 -177q106 -34 106 -140q0 -27 -7 -58q-53 -249 -382 -249q-105 0 -243 54l7 35q5 24 26 40q19 16 42 16q133 -44 190 -44q128 0 188 43q46 35 61 105q5 22 5 41q0 39 -22 61q-41 41 -170 41h-101
l21 101h101q110 5 158 40q39 28 52 91q4 16 4 31q0 47 -37 74q-41 32 -120 32q-45 0 -182 -41q-23 0 -36 17q-9 12 -9 27q0 6 1 12l8 36q161 54 240 54h1z" />
    <glyph glyph-name="acute" unicode="&#xb4;" horiz-adv-x="623" 
d="M383 1106l-36 56l339 251q30 13 53 13q62 0 62 -103q0 -10 -1 -22z" />
    <glyph glyph-name="mu" unicode="&#xb5;" horiz-adv-x="1091" 
d="M320 1036h88q36 0 57 -26q15 -19 15 -44q0 -9 -2 -18l-126 -590q-7 -34 -7 -62q0 -142 182 -142q253 0 362 195l128 599q7 36 39 62q31 26 67 26h88l-220 -1036h-88q-36 0 -57 25q-14 19 -14 43q0 9 2 20l19 92q-133 -192 -389 -192q-113 0 -184 33l-59 -278h-88
q-36 0 -56 26q-15 19 -15 43q0 9 2 19z" />
    <glyph glyph-name="paragraph" unicode="&#xb6;" horiz-adv-x="1191" 
d="M960 88q-8 -36 -33 -62q-26 -26 -54 -26h-75l270 1270h-162l-251 -1182q-8 -36 -33 -62q-26 -26 -54 -26h-75l147 690q-39 -6 -81 -6q-178 0 -230 106q-23 47 -23 118q0 61 17 140q36 171 115 257q98 106 276 106h3v2h674l-16 -75q-6 -28 -36 -48t-66 -20h-62z" />
    <glyph glyph-name="periodcentered" unicode="&#xb7;" horiz-adv-x="357" 
d="M171.695 628.982q6.7998 31.4482 34.8486 52.6982q27.1992 22.0986 59.498 22.0986h79.0479l-22.0996 -105.396q-6.79883 -31.4492 -34.8486 -53.5488q-27.1992 -21.249 -60.3486 -21.249h-78.1973z" />
    <glyph glyph-name="periodcentered" unicode="&#x2219;" horiz-adv-x="357" 
d="M171.695 628.982q6.7998 31.4482 34.8486 52.6982q27.1992 22.0986 59.498 22.0986h79.0479l-22.0996 -105.396q-6.79883 -31.4492 -34.8486 -53.5488q-27.1992 -21.249 -60.3486 -21.249h-78.1973z" />
    <glyph glyph-name="cedilla" unicode="&#xb8;" horiz-adv-x="581" 
d="M370 2l-50 -58q116 -64 116 -147q0 -12 -3 -25q-12 -52 -67 -112q-65 -50 -141 -50q-87 0 -188 68l5 51l1 4q6 27 31 29h4q7 0 17 -2q87 -38 142 -38q41 0 64 21q11 16 14 31q1 7 1 13q0 62 -130 102l85 113h99z" />
    <glyph glyph-name="uni00B9" unicode="&#xb9;" horiz-adv-x="753" 
d="M570 651h168q22 0 34 -16q9 -11 9 -25q0 -6 -1 -12l-10 -48h-500q-21 0 -34 15q-9 12 -9 26q0 6 1 12l10 47h221l140 656l-154 -155h-23q-26 0 -36 23q-5 9 -5 17q0 4 1 7q2 10 10 19l111 125q47 55 103 55h70q22 0 35 -15q8 -11 8 -25q0 -6 -1 -13z" />
    <glyph glyph-name="ordmasculine" unicode="&#xba;" horiz-adv-x="846" 
d="M537.878 998.959q-117.475 0 -181.492 -63.5967q-52.7979 -51.5986 -76.5576 -154.194q-11.2188 -47.3975 -11.2188 -83.9961q0 -42.5986 15.1787 -70.7969q34.9785 -63.5977 152.454 -63.5977t181.492 63.5977q52.1387 52.1973 75.8975 154.793
q11.2197 47.998 11.2197 84.5967q0 41.998 -14.5195 69.5977q-34.9785 63.5967 -152.454 63.5967zM561.637 1099.16q262.01 0 262.01 -209.991q0 -48.5986 -13.8594 -107.996q-74.5771 -317.986 -397.304 -317.986q-262.67 0 -262.67 209.991q0 48.5977 13.8604 107.995
q74.5762 317.987 397.963 317.987zM115.5 497q-13.5 0 -21 26q-4 17 -4 38q0 13 1.5 27l5.5 49h485.5q14 0 21 -26q3.5 -16 3.5 -36q0 -13 -1.5 -28l-5 -50h-485.5z" />
    <glyph glyph-name="guillemotright" unicode="&#xbb;" horiz-adv-x="813" 
d="M374 530l-93 196q-6 16 -6 44q0 55 22 157l250 -356l-17 -82l-402 -356q33 154 70 201zM661 530l-93 196q-6 16 -6 44q0 55 22 157l250 -356l-17 -82l-402 -356q33 154 70 201z" />
    <glyph glyph-name="onequarter" unicode="&#xbc;" horiz-adv-x="2079" 
d="M570 651h168q22 0 34 -16q9 -11 9 -25q0 -6 -1 -12l-10 -48h-500q-21 0 -34 15q-9 12 -9 26q0 6 1 12l10 47h221l140 656l-154 -155h-23q-26 0 -36 23q-5 9 -5 17q0 4 1 7q2 10 10 19l111 125q47 55 103 55h70q22 0 35 -15q8 -11 8 -25q0 -6 -1 -13zM943 68
q-13 -29 -35 -48q-24 -20 -57 -20h-48l563 1344q13 29 35 48q24 20 57 20h48zM2054 307h53q22 0 35 -17q8 -11 8 -25q0 -6 -1 -13l-10 -48h-107l-43 -204h-58q-22 0 -34 15q-8 11 -8 26q0 6 1 12l32 151h-351q-23 0 -35 16q-9 12 -9 27q0 6 1 12l13 61l402 472q48 55 104 55
h69q22 0 35 -15q8 -11 8 -25q0 -6 -1 -13zM1657 307h287l96 449z" />
    <glyph glyph-name="onehalf" unicode="&#xbd;" horiz-adv-x="2009" 
d="M570 651h168q22 0 34 -16q9 -11 9 -25q0 -6 -1 -12l-10 -48h-500q-21 0 -34 15q-9 12 -9 26q0 6 1 12l10 47h221l140 656l-154 -155h-23q-26 0 -36 23q-5 9 -5 17q0 4 1 7q2 10 10 19l111 125q47 55 103 55h70q22 0 35 -15q8 -11 8 -25q0 -6 -1 -13zM943 68
q-13 -29 -35 -48q-24 -20 -57 -20h-48l563 1344q13 29 35 48q24 20 57 20h48zM1526 0q-21 0 -34 15q-9 12 -9 26q0 6 1 12l5 24q20 91 104 164q53 46 176 115q127 71 174 110q83 69 100 151q4 17 4 31q0 47 -36 74q-42 32 -120 32q-63 0 -200 -41q-23 0 -36 17q-9 12 -9 27
q0 6 1 12l8 36q161 54 258 54q121 0 189 -59q58 -50 58 -129q0 -25 -6 -54q-36 -168 -268 -301q-149 -84 -167 -97q-82 -56 -105 -119l380 1q22 0 34 -16q9 -11 9 -25q0 -6 -1 -12l-10 -48h-500z" />
    <glyph glyph-name="threequarters" unicode="&#xbe;" horiz-adv-x="2110" 
d="M655 1409q122 0 191 -60q56 -49 56 -127q0 -26 -6 -55q-27 -128 -143 -177q106 -34 106 -140q0 -27 -7 -58q-53 -249 -382 -249q-105 0 -243 54l7 35q5 24 26 40q19 16 42 16q133 -44 190 -44q128 0 188 43q46 35 61 105q5 22 5 41q0 39 -22 61q-41 41 -170 41h-101
l21 101h101q110 5 158 40q39 28 52 91q4 16 4 31q0 47 -37 74q-41 32 -120 32q-45 0 -182 -41q-23 0 -36 17q-9 12 -9 27q0 6 1 12l8 36q161 54 240 54h1zM974 68q-13 -29 -35 -48q-24 -20 -57 -20h-48l563 1344q13 29 35 48q24 20 57 20h48zM2085 307h53q22 0 35 -17
q8 -11 8 -25q0 -6 -1 -13l-10 -48h-107l-43 -204h-58q-22 0 -34 15q-8 11 -8 26q0 6 1 12l32 151h-351q-23 0 -35 16q-9 12 -9 27q0 6 1 12l13 61l402 472q48 55 104 55h69q22 0 35 -15q8 -11 8 -25q0 -6 -1 -13zM1688 307h287l96 449z" />
    <glyph glyph-name="questiondown" unicode="&#xbf;" horiz-adv-x="1152" 
d="M925 608q8 37 39 63q32 25 68 25h49l-56 -381q-8 -38 -40 -64q-33 -27 -70 -27q-390 0 -433 -205q-6 -26 -6 -50q0 -79 61 -130q69 -59 187 -59q168 0 396 67q39 0 61 -27q15 -20 15 -45q0 -10 -2 -21l-13 -60q-269 -89 -494 -89q-199 0 -310 105q-89 86 -89 215
q0 45 10 94q45 213 223 301q98 48 349 83zM1153 912q-8 -37 -41 -62q-32 -26 -70 -26h-93l26 124q8 37 41 63q32 25 71 25h92z" />
    <glyph glyph-name="Agrave" unicode="&#xc0;" horiz-adv-x="1243" 
d="M838 1250l-383 -761h504l-59 761h-62zM370 321l-106 -212q-51 -109 -160 -109h-91l662 1315q50 108 159 108h142q109 0 114 -109l103 -1314h-91q-109 0 -115 110l-16 211h-601zM598 1678q45 125 113 125q23 0 47 -13l233 -251l-60 -56z" />
    <glyph glyph-name="Aacute" unicode="&#xc1;" horiz-adv-x="1243" 
d="M838 1250l-383 -761h504l-59 761h-62zM370 321l-106 -212q-51 -109 -160 -109h-91l662 1315q50 108 159 108h142q109 0 114 -109l103 -1314h-91q-109 0 -115 110l-16 211h-601zM745 1483l-36 56l339 251q30 13 53 13q62 0 62 -103q0 -10 -1 -22z" />
    <glyph glyph-name="Acircumflex" unicode="&#xc2;" horiz-adv-x="1243" 
d="M838 1250l-383 -761h504l-59 761h-62zM370 321l-106 -212q-51 -109 -160 -109h-91l662 1315q50 108 159 108h142q109 0 114 -109l103 -1314h-91q-109 0 -115 110l-16 211h-601zM869 1626l-304 -143l-37 56q155 114 339 251h73l233 -251l-60 -56z" />
    <glyph glyph-name="Atilde" unicode="&#xc3;" horiz-adv-x="1243" 
d="M838 1250l-383 -761h504l-59 761h-62zM370 321l-106 -212q-51 -109 -160 -109h-91l662 1315q50 108 159 108h142q109 0 114 -109l103 -1314h-91q-109 0 -115 110l-16 211h-601zM1176 1620q-113 -108 -212 -108q-58 0 -111 38q-71 50 -142 50q-70 0 -140 -50l-11 74
q105 98 199 98q59 0 115 -39q68 -47 137 -47q77 0 154 58z" />
    <glyph glyph-name="Adieresis" unicode="&#xc4;" horiz-adv-x="1243" 
d="M838 1250l-383 -761h504l-59 761h-62zM370 321l-106 -212q-51 -109 -160 -109h-91l662 1315q50 108 159 108h142q109 0 114 -109l103 -1314h-91q-109 0 -115 110l-16 211h-601zM605 1606q8 36 40 62q33 26 72 26h92l-27 -125q-7 -36 -40 -62q-32 -26 -70 -26h-93z
M1097 1481h-93q-38 0 -60 26q-16 20 -16 45q0 8 2 17l27 125h92q39 0 60 -26q16 -19 16 -43q0 -9 -2 -19z" />
    <glyph glyph-name="Aring" unicode="&#xc5;" horiz-adv-x="1243" 
d="M838 1250l-383 -761h504l-59 761h-62zM370 321l-106 -212q-51 -109 -160 -109h-91l662 1315q50 108 159 108h142q109 0 114 -109l103 -1314h-91q-109 0 -115 110l-16 211h-601zM1020 1738q29 -38 29 -88q0 -19 -4 -40q-16 -74 -79.5 -127t-138.5 -53t-116 53
q-30 38 -30 87q0 19 4 40q16 75 79.5 127.5t138.5 52.5t117 -52zM883 1694q-35 0 -64 -24.5t-37 -59.5q-2 -9 -2 -18q0 -23 14 -40q18 -25 53 -25t65 24.5t37 58.5q2 10 2 19q0 23 -13 41q-20 24 -55 24z" />
    <glyph glyph-name="AE" unicode="&#xc6;" horiz-adv-x="1884" 
d="M1522 1423q60 9 125 9q226 0 457 -90l-13 -60q-8 -38 -41 -65t-71 -27q-200 67 -369 67q-170 0 -294 -94q-129 -98 -164 -266l-19 -88h677q37 0 57 -25q14 -19 14 -43q0 -9 -2 -20l-17 -79h-765l-25 -119q-10 -49 -10 -92q0 -105 62 -174q84 -94 254 -94q169 0 397 67
q38 0 59 -27q16 -20 16 -45q0 -10 -2 -20l-12 -60q-270 -90 -496 -90q-255 0 -378 139q-72 80 -87 194h-505l-106 -212q-51 -109 -160 -109h-91l662 1315q50 108 159 108h688zM1159 1250h-321l-383 -761h426l6 34l80 374q46 216 192 353z" />
    <glyph glyph-name="Ccedilla" unicode="&#xc7;" horiz-adv-x="1145" 
d="M625 -12l-38 -44q116 -64 116 -147q0 -12 -3 -25q-12 -52 -67 -112q-65 -50 -141 -50q-87 0 -188 68l5 51l1 4q6 27 31 29h4q7 0 17 -2q87 -38 142 -38q41 0 64 21q11 16 14 31q1 7 1 13q0 62 -130 102l77 102q-202 17 -308 136q-91 101 -91 256q0 65 16 140l80 374
q53 252 243 396q182 139 438 139q225 0 456 -90l-13 -60q-8 -38 -41 -65t-71 -27q-201 67 -368 67q-171 0 -295 -94q-129 -98 -164 -266l-80 -374q-10 -49 -10 -92q0 -105 62 -174q84 -94 255 -94q167 0 396 67q38 0 59 -27q16 -20 16 -45q0 -10 -2 -20l-12 -60
q-255 -85 -471 -90z" />
    <glyph glyph-name="Egrave" unicode="&#xc8;" horiz-adv-x="1133" 
d="M216 897q53 252 243 396q182 139 437 139q226 0 457 -90l-13 -60q-8 -38 -41 -65t-71 -27q-200 67 -369 67q-170 0 -294 -94q-129 -98 -164 -266l-19 -88h677q37 0 57 -25q14 -19 14 -43q0 -9 -2 -20l-17 -79h-765l-25 -119q-10 -49 -10 -92q0 -105 62 -174
q84 -94 254 -94q169 0 397 67q38 0 59 -27q16 -20 16 -45q0 -10 -2 -20l-12 -60q-270 -90 -496 -90q-255 0 -378 139q-91 101 -91 256q0 65 16 140zM542 1678q45 125 113 125q23 0 47 -13l233 -251l-60 -56z" />
    <glyph glyph-name="Eacute" unicode="&#xc9;" horiz-adv-x="1133" 
d="M216 897q53 252 243 396q182 139 437 139q226 0 457 -90l-13 -60q-8 -38 -41 -65t-71 -27q-200 67 -369 67q-170 0 -294 -94q-129 -98 -164 -266l-19 -88h677q37 0 57 -25q14 -19 14 -43q0 -9 -2 -20l-17 -79h-765l-25 -119q-10 -49 -10 -92q0 -105 62 -174
q84 -94 254 -94q169 0 397 67q38 0 59 -27q16 -20 16 -45q0 -10 -2 -20l-12 -60q-270 -90 -496 -90q-255 0 -378 139q-91 101 -91 256q0 65 16 140zM689 1483l-36 56l339 251q30 13 53 13q62 0 62 -103q0 -10 -1 -22z" />
    <glyph glyph-name="Ecircumflex" unicode="&#xca;" horiz-adv-x="1133" 
d="M216 897q53 252 243 396q182 139 437 139q226 0 457 -90l-13 -60q-8 -38 -41 -65t-71 -27q-200 67 -369 67q-170 0 -294 -94q-129 -98 -164 -266l-19 -88h677q37 0 57 -25q14 -19 14 -43q0 -9 -2 -20l-17 -79h-765l-25 -119q-10 -49 -10 -92q0 -105 62 -174
q84 -94 254 -94q169 0 397 67q38 0 59 -27q16 -20 16 -45q0 -10 -2 -20l-12 -60q-270 -90 -496 -90q-255 0 -378 139q-91 101 -91 256q0 65 16 140zM812 1626l-304 -143l-37 56q155 114 339 251h73l233 -251l-60 -56z" />
    <glyph glyph-name="Edieresis" unicode="&#xcb;" horiz-adv-x="1133" 
d="M216 897q53 252 243 396q182 139 437 139q226 0 457 -90l-13 -60q-8 -38 -41 -65t-71 -27q-200 67 -369 67q-170 0 -294 -94q-129 -98 -164 -266l-19 -88h677q37 0 57 -25q14 -19 14 -43q0 -9 -2 -20l-17 -79h-765l-25 -119q-10 -49 -10 -92q0 -105 62 -174
q84 -94 254 -94q169 0 397 67q38 0 59 -27q16 -20 16 -45q0 -10 -2 -20l-12 -60q-270 -90 -496 -90q-255 0 -378 139q-91 101 -91 256q0 65 16 140zM549 1606q8 36 40 62q33 26 72 26h92l-27 -125q-7 -36 -40 -62q-32 -26 -70 -26h-93zM1041 1481h-93q-38 0 -60 26
q-16 20 -16 45q0 8 2 17l27 125h92q39 0 60 -26q16 -19 16 -43q0 -9 -2 -19z" />
    <glyph glyph-name="Igrave" unicode="&#xcc;" horiz-adv-x="449" 
d="M565 1325q7 36 39 62q31 26 67 26h97l-281 -1325q-8 -36 -39 -62q-32 -26 -68 -26h-97zM371 1678q45 125 113 125q23 0 47 -13l233 -251l-60 -56z" />
    <glyph glyph-name="Iacute" unicode="&#xcd;" horiz-adv-x="449" 
d="M424 1325q7 36 39 62q31 26 67 26h97l-281 -1325q-8 -36 -39 -62q-32 -26 -68 -26h-97zM377 1483l-36 56l339 251q30 13 53 13q62 0 62 -103q0 -10 -1 -22z" />
    <glyph glyph-name="Icircumflex" unicode="&#xce;" horiz-adv-x="449" 
d="M606 1325q7 36 39 62q31 26 67 26h97l-281 -1325q-8 -36 -39 -62q-32 -26 -68 -26h-97zM682 1626l-304 -143l-37 56q155 114 339 251h73l233 -251l-60 -56z" />
    <glyph glyph-name="Idieresis" unicode="&#xcf;" horiz-adv-x="449" 
d="M542 1325q7 36 39 62q31 26 67 26h97l-281 -1325q-8 -36 -39 -62q-32 -26 -68 -26h-97zM355 1606q8 36 40 62q33 26 72 26h92l-27 -125q-7 -36 -40 -62q-32 -26 -70 -26h-93zM847 1481h-93q-38 0 -60 26q-16 20 -16 45q0 8 2 17l27 125h92q39 0 60 -26q16 -19 16 -43
q0 -9 -2 -19z" />
    <glyph glyph-name="Eth" unicode="&#xd0;" horiz-adv-x="1401" 
d="M437 646l-101 -478h383q170 0 294 94q128 97 164 265l79 370q10 48 10 91q0 105 -62 175q-84 94 -254 94q-171 0 -295 -94q-129 -98 -164 -266l-24 -111h226q28 0 43 -26q7 -16 7 -36q0 -13 -3 -28l-11 -50h-292zM282 786l24 111q53 252 243 396q182 139 438 139
q255 0 379 -139q91 -102 91 -258q0 -64 -16 -138l-77 -362q-54 -253 -243 -396q-183 -139 -438 -139h-568l137 646h-84q-27 0 -41 26q-8 17 -8 38q0 13 3 27l10 49h150z" />
    <glyph glyph-name="Ntilde" unicode="&#xd1;" horiz-adv-x="1397" 
d="M375 1328q8 38 41 65t71 27h190l403 -1248l265 1248h185l-282 -1328q-9 -38 -41 -65q-33 -27 -71 -27h-190l-403 1248l-245 -1156q-9 -38 -41 -65q-33 -27 -72 -27h-92zM1233 1620q-113 -108 -212 -108q-58 0 -111 38q-71 50 -142 50q-70 0 -140 -50l-11 74
q105 98 199 98q59 0 115 -39q68 -47 137 -47q77 0 154 58z" />
    <glyph glyph-name="Ograve" unicode="&#xd2;" horiz-adv-x="1324" 
d="M1282 523q-54 -253 -243 -396q-183 -139 -439 -139q-255 0 -378 139q-91 101 -91 256q0 65 16 140l80 374q53 252 243 396q182 139 437 139q256 0 380 -139q91 -102 91 -258q0 -64 -16 -138zM576 1163q-129 -98 -164 -266l-80 -374q-10 -49 -10 -92q0 -105 62 -174
q84 -94 254 -94q171 0 295 94q128 97 164 266l80 374q10 48 10 91q0 105 -62 175q-84 94 -255 94q-170 0 -294 -94zM599 1678q45 125 113 125q23 0 47 -13l233 -251l-60 -56z" />
    <glyph glyph-name="Oacute" unicode="&#xd3;" horiz-adv-x="1324" 
d="M1282 523q-54 -253 -243 -396q-183 -139 -439 -139q-255 0 -378 139q-91 101 -91 256q0 65 16 140l80 374q53 252 243 396q182 139 437 139q256 0 380 -139q91 -102 91 -258q0 -64 -16 -138zM576 1163q-129 -98 -164 -266l-80 -374q-10 -49 -10 -92q0 -105 62 -174
q84 -94 254 -94q171 0 295 94q128 97 164 266l80 374q10 48 10 91q0 105 -62 175q-84 94 -255 94q-170 0 -294 -94zM746 1483l-36 56l339 251q30 13 53 13q62 0 62 -103q0 -10 -1 -22z" />
    <glyph glyph-name="Ocircumflex" unicode="&#xd4;" horiz-adv-x="1324" 
d="M1282 523q-54 -253 -243 -396q-183 -139 -439 -139q-255 0 -378 139q-91 101 -91 256q0 65 16 140l80 374q53 252 243 396q182 139 437 139q256 0 380 -139q91 -102 91 -258q0 -64 -16 -138zM576 1163q-129 -98 -164 -266l-80 -374q-10 -49 -10 -92q0 -105 62 -174
q84 -94 254 -94q171 0 295 94q128 97 164 266l80 374q10 48 10 91q0 105 -62 175q-84 94 -255 94q-170 0 -294 -94zM869 1626l-304 -143l-37 56q155 114 339 251h73l233 -251l-60 -56z" />
    <glyph glyph-name="Otilde" unicode="&#xd5;" horiz-adv-x="1324" 
d="M1282 523q-54 -253 -243 -396q-183 -139 -439 -139q-255 0 -378 139q-91 101 -91 256q0 65 16 140l80 374q53 252 243 396q182 139 437 139q256 0 380 -139q91 -102 91 -258q0 -64 -16 -138zM576 1163q-129 -98 -164 -266l-80 -374q-10 -49 -10 -92q0 -105 62 -174
q84 -94 254 -94q171 0 295 94q128 97 164 266l80 374q10 48 10 91q0 105 -62 175q-84 94 -255 94q-170 0 -294 -94zM1176 1620q-113 -108 -212 -108q-58 0 -111 38q-71 50 -142 50q-70 0 -140 -50l-11 74q105 98 199 98q59 0 115 -39q68 -47 137 -47q77 0 154 58z" />
    <glyph glyph-name="Odieresis" unicode="&#xd6;" horiz-adv-x="1324" 
d="M1282 523q-54 -253 -243 -396q-183 -139 -439 -139q-255 0 -378 139q-91 101 -91 256q0 65 16 140l80 374q53 252 243 396q182 139 437 139q256 0 380 -139q91 -102 91 -258q0 -64 -16 -138zM576 1163q-129 -98 -164 -266l-80 -374q-10 -49 -10 -92q0 -105 62 -174
q84 -94 254 -94q171 0 295 94q128 97 164 266l80 374q10 48 10 91q0 105 -62 175q-84 94 -255 94q-170 0 -294 -94zM606 1606q8 36 40 62q33 26 72 26h92l-27 -125q-7 -36 -40 -62q-32 -26 -70 -26h-93zM1098 1481h-93q-38 0 -60 26q-16 20 -16 45q0 8 2 17l27 125h92
q39 0 60 -26q16 -19 16 -43q0 -9 -2 -19z" />
    <glyph glyph-name="multiply" unicode="&#xd7;" horiz-adv-x="977" 
d="M616 596l-295 -244q-20 -16 -45 -16q-5 0 -10 1q-32 7 -52 33l-28 35l352 290l-192 243q-9 12 -9 29q0 6 1 13q1 5 3 10q14 32 46 58l42 35l229 -290l294 243q21 17 46 17q5 0 10 -1q30 -7 51 -33l27 -35l-350 -289l191 -243q9 -11 9 -26q0 -7 -2 -15q-1 -5 -3 -11
q-14 -33 -46 -59l-42 -35z" />
    <glyph glyph-name="Oslash" unicode="&#xd8;" horiz-adv-x="1324" 
d="M617 163h21q171 0 295 94q128 97 164 266l80 374q10 48 10 91q0 105 -62 175q-45 50 -115 74zM511 179l394 1077q-17 1 -35 1q-170 0 -294 -94q-129 -98 -164 -266l-80 -374q-10 -49 -10 -92q0 -105 62 -174q49 -55 127 -78zM1075 1414q133 -32 212 -121q91 -102 91 -258
q0 -64 -16 -138l-80 -374q-54 -253 -243 -396q-183 -139 -439 -139q-24 0 -47 1l-65 -178q-15 -39 -39 -64q-26 -27 -59 -27h-48l105 283q-143 31 -225 124q-91 101 -91 256q0 65 16 140l80 374q53 252 243 396q182 139 437 139q32 0 62 -2l34 93q15 39 38 64q26 27 59 27
h48z" />
    <glyph glyph-name="Ugrave" unicode="&#xd9;" horiz-adv-x="1237" 
d="M1179 391q-41 -192 -222 -303q-162 -99 -369 -100q-207 0 -329 99q-104 85 -104 219q0 40 10 85l217 1022h185l-217 -1022q-5 -24 -5 -46q0 -81 69 -129q75 -53 206 -53h5q134 0 232 53q113 62 137 175l217 1022h185zM584 1678q45 125 113 125q23 0 47 -13l233 -251
l-60 -56z" />
    <glyph glyph-name="Uacute" unicode="&#xda;" horiz-adv-x="1237" 
d="M1179 391q-41 -192 -222 -303q-162 -99 -369 -100q-207 0 -329 99q-104 85 -104 219q0 40 10 85l217 1022h185l-217 -1022q-5 -24 -5 -46q0 -81 69 -129q75 -53 206 -53h5q134 0 232 53q113 62 137 175l217 1022h185zM731 1483l-36 56l339 251q30 13 53 13q62 0 62 -103
q0 -10 -1 -22z" />
    <glyph glyph-name="Ucircumflex" unicode="&#xdb;" horiz-adv-x="1237" 
d="M1179 391q-41 -192 -222 -303q-162 -99 -369 -100q-207 0 -329 99q-104 85 -104 219q0 40 10 85l217 1022h185l-217 -1022q-5 -24 -5 -46q0 -81 69 -129q75 -53 206 -53h5q134 0 232 53q113 62 137 175l217 1022h185zM855 1626l-304 -143l-37 56q155 114 339 251h73
l233 -251l-60 -56z" />
    <glyph glyph-name="Udieresis" unicode="&#xdc;" horiz-adv-x="1237" 
d="M1179 391q-41 -192 -222 -303q-162 -99 -369 -100q-207 0 -329 99q-104 85 -104 219q0 40 10 85l217 1022h185l-217 -1022q-5 -24 -5 -46q0 -81 69 -129q75 -53 206 -53h5q134 0 232 53q113 62 137 175l217 1022h185zM591 1606q8 36 40 62q33 26 72 26h92l-27 -125
q-7 -36 -40 -62q-32 -26 -70 -26h-93zM1083 1481h-93q-38 0 -60 26q-16 20 -16 45q0 8 2 17l27 125h92q39 0 60 -26q16 -19 16 -43q0 -9 -2 -19z" />
    <glyph glyph-name="Yacute" unicode="&#xdd;" horiz-adv-x="1136" 
d="M676 88q-8 -36 -39 -62q-32 -26 -68 -26h-97l132 623q-154 1 -199 42q-51 46 -60 216l-32 532h95q84 0 89 -65l33 -456q4 -69 34 -87q24 -15 106 -15h125q81 0 111 15q38 18 73 87l227 456q30 65 114 65h95l-258 -532q-78 -163 -149 -211q-65 -43 -219 -47zM706 1483
l-36 56l339 251q30 13 53 13q62 0 62 -103q0 -10 -1 -22z" />
    <glyph glyph-name="Thorn" unicode="&#xde;" horiz-adv-x="1171" 
d="M516 1150q152 82 338 82h4q206 -1 326 -100q103 -85 103 -217q0 -41 -10 -86q-94 -444 -662 -444h-261l-125 -585h-185l325 1525q7 36 39 62q31 26 67 26h97zM390 553h261q383 0 441 276q5 24 5 46q0 80 -68 129q-75 53 -209 53h-5q-131 0 -229 -53q-114 -61 -138 -175z
" />
    <glyph glyph-name="germandbls" unicode="&#xdf;" horiz-adv-x="1273" 
d="M703 809q221 0 321 59q85 50 109 161q5 24 5 46q0 80 -68 129q-76 53 -210 53h-5q-131 0 -228 -53q-114 -61 -138 -175l-47 -220h261zM705 0q-233 0 -290 142q-9 26 -9 69q0 73 26 193h168q-13 -63 -13 -108q0 -36 8 -61q23 -67 135 -67q115 0 220 67q86 56 110 169
q7 32 7 59q0 71 -45 111q-77 68 -294 68h-322l-151 -712q-8 -36 -39 -62q-32 -26 -68 -26h-97l253 1187q41 193 223 304q163 99 367 99h4q206 -1 326 -100q104 -85 104 -218q0 -40 -10 -85q-45 -209 -237 -295q109 -37 151 -137q21 -53 21 -114q0 -38 -8 -79
q-41 -191 -171 -287q-160 -117 -368 -117h-1z" />
    <glyph glyph-name="agrave" unicode="&#xe0;" horiz-adv-x="1169" 
d="M981 518q17 80 17 141q0 70 -22 116q-53 107 -231 107t-275 -107q-80 -86 -116 -257q-18 -84 -18 -147q0 -67 20 -110q50 -107 227 -107q247 0 366 212zM909 181q-133 -193 -389 -193q-364 0 -364 340q0 85 22 190q113 530 603 530q397 0 397 -350q0 -81 -21 -180
l-110 -518h-88q-36 0 -56 26q-15 18 -15 43q0 9 2 19zM553 1301q45 125 113 125q23 0 47 -13l233 -251l-60 -56z" />
    <glyph glyph-name="aacute" unicode="&#xe1;" horiz-adv-x="1169" 
d="M981 518q17 80 17 141q0 70 -22 116q-53 107 -231 107t-275 -107q-80 -86 -116 -257q-18 -84 -18 -147q0 -67 20 -110q50 -107 227 -107q247 0 366 212zM909 181q-133 -193 -389 -193q-364 0 -364 340q0 85 22 190q113 530 603 530q397 0 397 -350q0 -81 -21 -180
l-110 -518h-88q-36 0 -56 26q-15 18 -15 43q0 9 2 19zM700 1106l-36 56l339 251q30 13 53 13q62 0 62 -103q0 -10 -1 -22z" />
    <glyph glyph-name="acircumflex" unicode="&#xe2;" horiz-adv-x="1169" 
d="M981 518q17 80 17 141q0 70 -22 116q-53 107 -231 107t-275 -107q-80 -86 -116 -257q-18 -84 -18 -147q0 -67 20 -110q50 -107 227 -107q247 0 366 212zM909 181q-133 -193 -389 -193q-364 0 -364 340q0 85 22 190q113 530 603 530q397 0 397 -350q0 -81 -21 -180
l-110 -518h-88q-36 0 -56 26q-15 18 -15 43q0 9 2 19zM823 1249l-304 -143l-37 56q155 114 339 251h73l233 -251l-60 -56z" />
    <glyph glyph-name="atilde" unicode="&#xe3;" horiz-adv-x="1169" 
d="M981 518q17 80 17 141q0 70 -22 116q-53 107 -231 107t-275 -107q-80 -86 -116 -257q-18 -84 -18 -147q0 -67 20 -110q50 -107 227 -107q247 0 366 212zM909 181q-133 -193 -389 -193q-364 0 -364 340q0 85 22 190q113 530 603 530q397 0 397 -350q0 -81 -21 -180
l-110 -518h-88q-36 0 -56 26q-15 18 -15 43q0 9 2 19zM1130 1243q-113 -108 -212 -108q-58 0 -111 38q-71 50 -142 50q-70 0 -140 -50l-11 74q105 98 199 98q59 0 115 -39q68 -47 137 -47q77 0 154 58z" />
    <glyph glyph-name="adieresis" unicode="&#xe4;" horiz-adv-x="1169" 
d="M981 518q17 80 17 141q0 70 -22 116q-53 107 -231 107t-275 -107q-80 -86 -116 -257q-18 -84 -18 -147q0 -67 20 -110q50 -107 227 -107q247 0 366 212zM909 181q-133 -193 -389 -193q-364 0 -364 340q0 85 22 190q113 530 603 530q397 0 397 -350q0 -81 -21 -180
l-110 -518h-88q-36 0 -56 26q-15 18 -15 43q0 9 2 19zM560 1229q8 36 40 62q33 26 72 26h92l-27 -125q-7 -36 -40 -62q-32 -26 -70 -26h-93zM1052 1104h-93q-38 0 -60 26q-16 20 -16 45q0 8 2 17l27 125h92q39 0 60 -26q16 -19 16 -43q0 -9 -2 -19z" />
    <glyph glyph-name="aring" unicode="&#xe5;" horiz-adv-x="1169" 
d="M981 518q17 80 17 141q0 70 -22 116q-53 107 -231 107t-275 -107q-80 -86 -116 -257q-18 -84 -18 -147q0 -67 20 -110q50 -107 227 -107q247 0 366 212zM909 181q-133 -193 -389 -193q-364 0 -364 340q0 85 22 190q113 530 603 530q397 0 397 -350q0 -81 -21 -180
l-110 -518h-88q-36 0 -56 26q-15 18 -15 43q0 9 2 19zM975 1361q29 -38 29 -88q0 -19 -4 -40q-16 -74 -79.5 -127t-138.5 -53t-116 53q-30 38 -30 87q0 19 4 40q16 75 79.5 127.5t138.5 52.5t117 -52zM838 1317q-35 0 -64 -24.5t-37 -59.5q-2 -9 -2 -18q0 -23 14 -40
q18 -25 53 -25t65 24.5t37 58.5q2 10 2 19q0 23 -13 41q-20 24 -55 24z" />
    <glyph glyph-name="ae" unicode="&#xe6;" horiz-adv-x="1783" 
d="M1635 606q7 52 7 93q0 66 -18 102q-42 81 -190 81q-150 0 -234 -80q-66 -64 -104 -196h539zM340 430q-7 -52 -7 -93q0 -66 18 -102q42 -81 190 -81q150 0 234 80q66 64 104 196h-539zM1062 880q149 168 408 168q249 0 321 -155q30 -65 30 -164q0 -91 -25 -210
q-17 -81 -105 -81h-631q-8 -42 -8 -77q0 -207 258 -207q156 0 330 60q22 5 38 5q38 0 38 -34q0 -7 -2 -17l-18 -84q-181 -96 -422 -96q-276 0 -361 168q-149 -168 -408 -168q-249 0 -321 155q-30 65 -30 164q0 91 25 210q17 81 105 81h631q8 42 8 77q0 207 -258 207
q-156 0 -330 -60q-21 -5 -37 -5q-39 0 -39 35q0 7 2 16l18 84q181 96 422 96q276 0 361 -168z" />
    <glyph glyph-name="ccedilla" unicode="&#xe7;" horiz-adv-x="1001" 
d="M486 -9q-329 29 -329 347q0 81 21 180q113 530 603 530q241 0 380 -96l-18 -84q-10 -51 -57 -51q-16 0 -35 5q-150 60 -306 60q-178 0 -275 -107q-80 -86 -116 -257q-17 -79 -17 -140q0 -71 23 -117q53 -107 231 -107q156 0 330 60q22 5 38 5q38 0 38 -34q0 -7 -2 -17
l-18 -84q-170 -91 -396 -96l-38 -44q116 -64 116 -147q0 -12 -3 -25q-12 -52 -67 -112q-65 -50 -141 -50q-87 0 -188 68l5 51l1 4q6 27 31 29h4q7 0 17 -2q87 -38 142 -38q41 0 64 21q11 16 14 31q1 7 1 13q0 62 -130 102z" />
    <glyph glyph-name="egrave" unicode="&#xe8;" horiz-adv-x="1065" 
d="M917 606q7 52 7 93q0 66 -18 102q-42 81 -190 81q-150 0 -234 -80q-66 -64 -104 -196h539zM556 -12q-398 0 -398 350q0 81 21 180q113 530 573 530q249 0 321 -155q30 -65 30 -164q0 -91 -25 -210q-17 -81 -105 -81h-631q-8 -42 -8 -77q0 -207 258 -207q156 0 330 60
q22 5 38 5q38 0 38 -34q0 -7 -2 -17l-18 -84q-181 -96 -422 -96zM514 1301q45 125 113 125q23 0 47 -13l233 -251l-60 -56z" />
    <glyph glyph-name="eacute" unicode="&#xe9;" horiz-adv-x="1065" 
d="M917 606q7 52 7 93q0 66 -18 102q-42 81 -190 81q-150 0 -234 -80q-66 -64 -104 -196h539zM556 -12q-398 0 -398 350q0 81 21 180q113 530 573 530q249 0 321 -155q30 -65 30 -164q0 -91 -25 -210q-17 -81 -105 -81h-631q-8 -42 -8 -77q0 -207 258 -207q156 0 330 60
q22 5 38 5q38 0 38 -34q0 -7 -2 -17l-18 -84q-181 -96 -422 -96zM661 1106l-36 56l339 251q30 13 53 13q62 0 62 -103q0 -10 -1 -22z" />
    <glyph glyph-name="ecircumflex" unicode="&#xea;" horiz-adv-x="1065" 
d="M917 606q7 52 7 93q0 66 -18 102q-42 81 -190 81q-150 0 -234 -80q-66 -64 -104 -196h539zM556 -12q-398 0 -398 350q0 81 21 180q113 530 573 530q249 0 321 -155q30 -65 30 -164q0 -91 -25 -210q-17 -81 -105 -81h-631q-8 -42 -8 -77q0 -207 258 -207q156 0 330 60
q22 5 38 5q38 0 38 -34q0 -7 -2 -17l-18 -84q-181 -96 -422 -96zM784 1249l-304 -143l-37 56q155 114 339 251h73l233 -251l-60 -56z" />
    <glyph glyph-name="edieresis" unicode="&#xeb;" horiz-adv-x="1065" 
d="M917 606q7 52 7 93q0 66 -18 102q-42 81 -190 81q-150 0 -234 -80q-66 -64 -104 -196h539zM556 -12q-398 0 -398 350q0 81 21 180q113 530 573 530q249 0 321 -155q30 -65 30 -164q0 -91 -25 -210q-17 -81 -105 -81h-631q-8 -42 -8 -77q0 -207 258 -207q156 0 330 60
q22 5 38 5q38 0 38 -34q0 -7 -2 -17l-18 -84q-181 -96 -422 -96zM521 1229q8 36 40 62q33 26 72 26h92l-27 -125q-7 -36 -40 -62q-32 -26 -70 -26h-93zM1013 1104h-93q-38 0 -60 26q-16 20 -16 45q0 8 2 17l27 125h92q39 0 60 -26q16 -19 16 -43q0 -9 -2 -19z" />
    <glyph glyph-name="igrave" unicode="&#xec;" horiz-adv-x="376" 
d="M496 948q7 37 39 62q31 26 67 26h88l-201 -948q-8 -37 -39 -62q-32 -26 -68 -26h-88zM377 1301q45 125 113 125q23 0 47 -13l233 -251l-60 -56z" />
    <glyph glyph-name="iacute" unicode="&#xed;" horiz-adv-x="376" 
d="M355 948q7 37 39 62q31 26 67 26h88l-201 -948q-8 -37 -39 -62q-32 -26 -68 -26h-88zM383 1106l-36 56l339 251q30 13 53 13q62 0 62 -103q0 -10 -1 -22z" />
    <glyph glyph-name="icircumflex" unicode="&#xee;" horiz-adv-x="376" 
d="M536 948q7 37 39 62q31 26 67 26h88l-201 -948q-8 -37 -39 -62q-32 -26 -68 -26h-88zM688 1249l-304 -143l-37 56q155 114 339 251h73l233 -251l-60 -56z" />
    <glyph glyph-name="idieresis" unicode="&#xef;" horiz-adv-x="376" 
d="M473 948q7 37 39 62q31 26 67 26h88l-201 -948q-8 -37 -39 -62q-32 -26 -68 -26h-88zM361 1229q8 36 40 62q33 26 72 26h92l-27 -125q-7 -36 -40 -62q-32 -26 -70 -26h-93zM853 1104h-93q-38 0 -60 26q-16 20 -16 45q0 8 2 17l27 125h92q39 0 60 -26q16 -19 16 -43
q0 -9 -2 -19z" />
    <glyph glyph-name="eth" unicode="&#xf0;" horiz-adv-x="1168" 
d="M963 582q-30 212 -276 212q-177 0 -272 -107q-75 -84 -90 -157q-17 -79 -17 -140q0 -71 23 -117q52 -107 230 -107t276 107q78 86 115 257zM858 1199q-42 19 -95 19h-14q-35 23 -35 68q0 15 4 32q7 33 29 77q174 -8 276 -95l120 72q14 8 46 11q10 1 22 1q29 0 68 -4
l81 -8l-263 -159q74 -122 74 -326q0 -155 -43 -357q-113 -530 -602 -530q-398 0 -398 350q0 81 21 180q106 406 546 430q256 0 307 -193q1 31 1 60q0 194 -59 293l-171 -104q-15 -8 -46 -11q-11 -1 -23 -1q-29 0 -68 4l-80 8z" />
    <glyph glyph-name="ntilde" unicode="&#xf1;" horiz-adv-x="1134" 
d="M1002 0h-88q-36 0 -56 26q-15 18 -15 43q0 9 2 19l125 590q7 34 7 62q0 142 -182 142q-246 0 -366 -212l-123 -582q-8 -37 -39 -62q-32 -26 -68 -26h-88l220 1036h88q36 0 57 -26q15 -19 15 -44q0 -8 -2 -18l-20 -93q134 193 389 193q305 0 305 -240q0 -49 -12 -107z
M1129 1243q-113 -108 -212 -108q-58 0 -111 38q-71 50 -142 50q-70 0 -140 -50l-11 74q105 98 199 98q59 0 115 -39q68 -47 137 -47q77 0 154 58z" />
    <glyph glyph-name="ograve" unicode="&#xf2;" horiz-adv-x="1151" 
d="M745 881q-178 0 -275 -106q-80 -86 -116 -257q-17 -79 -17 -140q0 -71 23 -118q53 -106 231 -106t275 106q79 87 115 258q17 80 17 141q0 70 -22 116q-53 106 -231 106zM781 1048q397 0 397 -350q0 -81 -21 -180q-113 -530 -602 -530q-398 0 -398 350q0 81 21 180
q113 530 603 530zM553 1301q45 125 113 125q23 0 47 -13l233 -251l-60 -56z" />
    <glyph glyph-name="oacute" unicode="&#xf3;" horiz-adv-x="1151" 
d="M745 881q-178 0 -275 -106q-80 -86 -116 -257q-17 -79 -17 -140q0 -71 23 -118q53 -106 231 -106t275 106q79 87 115 258q17 80 17 141q0 70 -22 116q-53 106 -231 106zM781 1048q397 0 397 -350q0 -81 -21 -180q-113 -530 -602 -530q-398 0 -398 350q0 81 21 180
q113 530 603 530zM700 1106l-36 56l339 251q30 13 53 13q62 0 62 -103q0 -10 -1 -22z" />
    <glyph glyph-name="ocircumflex" unicode="&#xf4;" horiz-adv-x="1151" 
d="M745 881q-178 0 -275 -106q-80 -86 -116 -257q-17 -79 -17 -140q0 -71 23 -118q53 -106 231 -106t275 106q79 87 115 258q17 80 17 141q0 70 -22 116q-53 106 -231 106zM781 1048q397 0 397 -350q0 -81 -21 -180q-113 -530 -602 -530q-398 0 -398 350q0 81 21 180
q113 530 603 530zM823 1249l-304 -143l-37 56q155 114 339 251h73l233 -251l-60 -56z" />
    <glyph glyph-name="otilde" unicode="&#xf5;" horiz-adv-x="1151" 
d="M745 881q-178 0 -275 -106q-80 -86 -116 -257q-17 -79 -17 -140q0 -71 23 -118q53 -106 231 -106t275 106q79 87 115 258q17 80 17 141q0 70 -22 116q-53 106 -231 106zM781 1048q397 0 397 -350q0 -81 -21 -180q-113 -530 -602 -530q-398 0 -398 350q0 81 21 180
q113 530 603 530zM1130 1243q-113 -108 -212 -108q-58 0 -111 38q-71 50 -142 50q-70 0 -140 -50l-11 74q105 98 199 98q59 0 115 -39q68 -47 137 -47q77 0 154 58z" />
    <glyph glyph-name="odieresis" unicode="&#xf6;" horiz-adv-x="1151" 
d="M745 881q-178 0 -275 -106q-80 -86 -116 -257q-17 -79 -17 -140q0 -71 23 -118q53 -106 231 -106t275 106q79 87 115 258q17 80 17 141q0 70 -22 116q-53 106 -231 106zM781 1048q397 0 397 -350q0 -81 -21 -180q-113 -530 -602 -530q-398 0 -398 350q0 81 21 180
q113 530 603 530zM560 1229q8 36 40 62q33 26 72 26h92l-27 -125q-7 -36 -40 -62q-32 -26 -70 -26h-93zM1052 1104h-93q-38 0 -60 26q-16 20 -16 45q0 8 2 17l27 125h92q39 0 60 -26q16 -19 16 -43q0 -9 -2 -19z" />
    <glyph glyph-name="divide" unicode="&#xf7;" horiz-adv-x="1159" 
d="M294 624q-27 0 -42 26q-8 17 -8 38q0 13 3 27l10 49h893q28 0 43 -26q7 -16 7 -36q0 -13 -3 -28l-10 -50h-893zM508 403q8 37 41 62q32 26 70 26h93l-26 -124q-8 -37 -41 -63q-32 -25 -71 -25h-92zM640 1021q7 36 40 62q32 26 71 26h92l-26 -125q-8 -36 -40 -62
q-33 -26 -71 -26h-93z" />
    <glyph glyph-name="oslash" unicode="&#xf8;" horiz-adv-x="1151" 
d="M939 1030q239 -61 239 -332q0 -81 -21 -180q-113 -530 -602 -530q-27 0 -52 2l-47 -114q-14 -29 -36 -48q-24 -20 -57 -20h-48l83 197q-241 61 -241 334q0 80 21 179q113 530 603 530q27 0 52 -2l45 106q13 29 35 48q24 20 57 20h48zM467 171l297 710h-19
q-178 0 -275 -106q-80 -86 -116 -257q-17 -79 -17 -140q0 -71 23 -118q32 -63 107 -89zM870 864l-298 -710h19q178 0 275 106q79 87 115 258q17 80 17 141q0 70 -22 116q-32 63 -106 89z" />
    <glyph glyph-name="ugrave" unicode="&#xf9;" horiz-adv-x="1138" 
d="M862 180q-133 -192 -389 -192q-305 0 -305 240q0 49 12 107l149 701h88q36 0 57 -26q15 -19 15 -44q0 -9 -2 -18l-126 -590q-7 -34 -7 -62q0 -142 182 -142q253 0 362 195l128 599q7 36 39 62q31 26 67 26h88l-220 -1036h-88q-36 0 -57 25q-14 19 -14 43q0 9 2 20z
M550 1301q45 125 113 125q23 0 47 -13l233 -251l-60 -56z" />
    <glyph glyph-name="uacute" unicode="&#xfa;" horiz-adv-x="1138" 
d="M862 180q-133 -192 -389 -192q-305 0 -305 240q0 49 12 107l149 701h88q36 0 57 -26q15 -19 15 -44q0 -9 -2 -18l-126 -590q-7 -34 -7 -62q0 -142 182 -142q253 0 362 195l128 599q7 36 39 62q31 26 67 26h88l-220 -1036h-88q-36 0 -57 25q-14 19 -14 43q0 9 2 20z
M697 1106l-36 56l339 251q30 13 53 13q62 0 62 -103q0 -10 -1 -22z" />
    <glyph glyph-name="ucircumflex" unicode="&#xfb;" horiz-adv-x="1138" 
d="M862 180q-133 -192 -389 -192q-305 0 -305 240q0 49 12 107l149 701h88q36 0 57 -26q15 -19 15 -44q0 -9 -2 -18l-126 -590q-7 -34 -7 -62q0 -142 182 -142q253 0 362 195l128 599q7 36 39 62q31 26 67 26h88l-220 -1036h-88q-36 0 -57 25q-14 19 -14 43q0 9 2 20z
M820 1249l-304 -143l-37 56q155 114 339 251h73l233 -251l-60 -56z" />
    <glyph glyph-name="udieresis" unicode="&#xfc;" horiz-adv-x="1138" 
d="M862 180q-133 -192 -389 -192q-305 0 -305 240q0 49 12 107l149 701h88q36 0 57 -26q15 -19 15 -44q0 -9 -2 -18l-126 -590q-7 -34 -7 -62q0 -142 182 -142q253 0 362 195l128 599q7 36 39 62q31 26 67 26h88l-220 -1036h-88q-36 0 -57 25q-14 19 -14 43q0 9 2 20z
M557 1229q8 36 40 62q33 26 72 26h92l-27 -125q-7 -36 -40 -62q-32 -26 -70 -26h-93zM1049 1104h-93q-38 0 -60 26q-16 20 -16 45q0 8 2 17l27 125h92q39 0 60 -26q16 -19 16 -43q0 -9 -2 -19z" />
    <glyph glyph-name="yacute" unicode="&#xfd;" horiz-adv-x="1141" 
d="M1029 143q-112 -530 -601 -530q-242 0 -382 96l18 83q11 52 59 52q15 0 34 -5q149 -60 306 -60q178 0 276 107q78 86 114 257l8 37q-133 -192 -389 -192q-305 0 -305 240q0 49 12 107l149 701h88q36 0 57 -26q15 -19 15 -44q0 -9 -2 -18l-126 -590q-7 -34 -7 -62
q0 -142 182 -142q246 0 366 212l124 582q7 36 39 62q31 26 67 26h88zM696 1106l-36 56l339 251q30 13 53 13q62 0 62 -103q0 -10 -1 -22z" />
    <glyph glyph-name="thorn" unicode="&#xfe;" horiz-adv-x="1194" 
d="M333 212q149 -58 302 -58q173 0 269 100q83 87 121 264q18 84 18 147q0 71 -23 116q-51 100 -224 100q-252 0 -362 -194zM470 855q134 193 389 193q364 0 364 -340q0 -85 -22 -190q-113 -530 -602 -530q-170 0 -302 54l-70 -331q-8 -36 -40 -62q-31 -26 -67 -26h-88
l380 1790h88q36 0 57 -26q15 -19 15 -44q0 -9 -2 -18z" />
    <glyph glyph-name="ydieresis" unicode="&#xff;" horiz-adv-x="1141" 
d="M1029 143q-112 -530 -601 -530q-242 0 -382 96l18 83q11 52 59 52q15 0 34 -5q149 -60 306 -60q178 0 276 107q78 86 114 257l8 37q-133 -192 -389 -192q-305 0 -305 240q0 49 12 107l149 701h88q36 0 57 -26q15 -19 15 -44q0 -9 -2 -18l-126 -590q-7 -34 -7 -62
q0 -142 182 -142q246 0 366 212l124 582q7 36 39 62q31 26 67 26h88zM556 1229q8 36 40 62q33 26 72 26h92l-27 -125q-7 -36 -40 -62q-32 -26 -70 -26h-93zM1048 1104h-93q-38 0 -60 26q-16 20 -16 45q0 8 2 17l27 125h92q39 0 60 -26q16 -19 16 -43q0 -9 -2 -19z" />
    <glyph glyph-name="dotlessi" unicode="&#x131;" horiz-adv-x="376" 
d="M302 948q7 37 39 62q31 26 67 26h88l-201 -948q-8 -37 -39 -62q-32 -26 -68 -26h-88z" />
    <glyph glyph-name="circumflex" unicode="&#x2c6;" horiz-adv-x="845" 
d="M688 1249l-304 -143l-37 56q155 114 339 251h73l233 -251l-60 -56z" />
    <glyph glyph-name="caron" unicode="&#x2c7;" horiz-adv-x="845" 
d="M997 1413l36 -56l-339 -251h-73q-126 137 -233 251l61 56l244 -143z" />
    <glyph glyph-name="uni02C9" unicode="&#x2c9;" horiz-adv-x="802" 
d="M406 1130q-27 0 -41 26q-8 17 -8 38q0 13 3 27l10 49h536q28 0 42 -26q8 -17 8 -37q0 -13 -3 -27l-11 -50h-536z" />
    <glyph glyph-name="breve" unicode="&#x2d8;" horiz-adv-x="845" 
d="M997 1413l36 -56q-158 -251 -379 -251q-222 0 -266 251l61 56q98 -187 235 -187t313 187z" />
    <glyph glyph-name="dotaccent" unicode="&#x2d9;" horiz-adv-x="385" 
d="M361 1229q8 36 40 62q33 26 72 26h92l-27 -125q-7 -36 -40 -62q-32 -26 -70 -26h-93z" />
    <glyph glyph-name="ring" unicode="&#x2da;" horiz-adv-x="560" 
d="M697 1361q29 -38 29 -88q0 -19 -4 -40q-16 -74 -79.5 -127t-138.5 -53t-116 53q-30 38 -30 87q0 19 4 40q16 75 79.5 127.5t138.5 52.5t117 -52zM560 1317q-35 0 -64 -24.5t-37 -59.5q-2 -9 -2 -18q0 -23 14 -40q18 -25 53 -25t65 24.5t37 58.5q2 10 2 19q0 23 -13 41
q-20 24 -55 24z" />
    <glyph glyph-name="ogonek" unicode="&#x2db;" horiz-adv-x="577" 
d="M377 0q-195 -143 -213 -225q-2 -8 -2 -15q0 -21 13 -37q19 -11 48 -11q57 0 156 44q13 3 21 3q21 0 21 -18q0 -5 -1 -10l-10 -47q-136 -75 -229 -75q-42 0 -76 16q-62 42 -62 98q0 12 3 24q22 104 240 253h91z" />
    <glyph glyph-name="tilde" unicode="&#x2dc;" horiz-adv-x="817" 
d="M981 1243q-113 -108 -212 -108q-58 0 -111 38q-71 50 -142 50q-70 0 -140 -50l-11 74q105 98 199 98q59 0 115 -39q68 -47 137 -47q77 0 154 58z" />
    <glyph glyph-name="hungarumlaut" unicode="&#x2dd;" horiz-adv-x="1046" 
d="M383 1106l-36 56l339 251q30 13 53 13q62 0 62 -103q0 -10 -1 -22zM806 1106l-36 56l339 251q30 13 53 13q62 0 62 -103q0 -10 -1 -22z" />
    <glyph glyph-name="endash" unicode="&#x2013;" horiz-adv-x="1299" 
d="M260 441q-27 0 -42 26q-8 17 -8 38q0 13 3 27l10 49h1033q28 0 43 -26q7 -16 7 -36q0 -13 -3 -28l-10 -50h-1033z" />
    <glyph glyph-name="emdash" unicode="&#x2014;" horiz-adv-x="1950" 
d="M260 441q-27 0 -42 26q-8 17 -8 38q0 13 3 27l10 49h1684q28 0 43 -26q7 -16 7 -36q0 -13 -3 -28l-10 -50h-1684z" />
    <glyph glyph-name="quoteleft" unicode="&#x2018;" horiz-adv-x="484" 
d="M688 1431q-133 -161 -200 -476q-8 -37 -40 -62q-33 -26 -71 -26h-93l7 31q55 259 286 498q33 35 57 35h54z" />
    <glyph glyph-name="quoteright" unicode="&#x2019;" horiz-adv-x="484" 
d="M284 867q134 161 200 476q8 37 41 62q32 26 70 26h93l-6 -31q-55 -259 -286 -498q-34 -35 -58 -35h-54z" />
    <glyph glyph-name="quotesinglbase" unicode="&#x201a;" horiz-adv-x="484" 
d="M25 -352q133 161 200 476q8 37 41 62q32 26 70 26h93l-7 -31q-55 -259 -285 -498q-34 -35 -58 -35h-54z" />
    <glyph glyph-name="quotedblleft" unicode="&#x201c;" horiz-adv-x="882" 
d="M688 1431q-133 -161 -200 -476q-8 -37 -40 -62q-33 -26 -71 -26h-93l7 31q55 259 286 498q33 35 57 35h54zM1086 1431q-133 -161 -200 -476q-8 -37 -40 -62q-33 -26 -71 -26h-93l7 31q55 259 286 498q33 35 57 35h54z" />
    <glyph glyph-name="quotedblright" unicode="&#x201d;" horiz-adv-x="882" 
d="M284 867q134 161 200 476q8 37 41 62q32 26 70 26h93l-6 -31q-55 -259 -286 -498q-34 -35 -58 -35h-54zM682 867q134 161 200 476q8 37 41 62q32 26 70 26h93l-6 -31q-55 -259 -286 -498q-34 -35 -58 -35h-54z" />
    <glyph glyph-name="quotedblbase" unicode="&#x201e;" horiz-adv-x="882" 
d="M284 -282q134 161 200 476q8 37 41 62q32 26 70 26h93l-6 -31q-55 -259 -286 -498q-34 -35 -58 -35h-54zM682 -282q134 161 200 476q8 37 41 62q32 26 70 26h93l-6 -31q-55 -259 -286 -498q-34 -35 -58 -35h-54z" />
    <glyph glyph-name="dagger" unicode="&#x2020;" horiz-adv-x="1153" 
d="M717 1098l49 227q7 36 39 62q31 26 67 26h97l-67 -315h296q36 0 57 -26q15 -19 15 -44q0 -9 -2 -18l-21 -97h-384l-175 -825q-8 -36 -39 -62q-32 -26 -68 -26h-97l194 913h-296q-36 0 -56 26q-15 19 -15 43q0 9 2 19l20 97h384z" />
    <glyph glyph-name="daggerdbl" unicode="&#x2021;" horiz-adv-x="1154" 
d="M560 355h-297q-36 0 -56 26q-15 19 -15 44q0 9 2 18l21 97h385l79 373h-296q-36 0 -56 26q-15 19 -15 43q0 9 2 19l20 97h384l49 227q7 36 39 62q31 26 67 26h97l-67 -315h296q36 0 57 -26q15 -19 15 -44q0 -9 -2 -18l-21 -97h-384l-79 -373h295q36 0 56 -26
q15 -19 15 -43q0 -9 -2 -19l-21 -97h-383l-56 -267q-8 -36 -39 -62q-32 -26 -68 -26h-97z" />
    <glyph glyph-name="bullet" unicode="&#x2022;" horiz-adv-x="966" 
d="M926 808q63 -81 63 -186q0 -41 -9 -85q-33 -158 -169 -270.5t-295 -112.5t-247 113q-64 81 -64 187q0 40 9 83q34 159 170 271t295 112t247 -112z" />
    <glyph glyph-name="ellipsis" unicode="&#x2026;" horiz-adv-x="1751" 
d="M126 124q8 37 41 62q32 26 70 26h93l-26 -124q-8 -37 -41 -63q-32 -25 -71 -25h-92zM809 124q8 37 41 62q32 26 70 26h93l-26 -124q-8 -37 -41 -63q-32 -25 -71 -25h-92zM1492 124q8 37 41 62q32 26 70 26h93l-26 -124q-8 -37 -41 -63q-32 -25 -71 -25h-92z" />
    <glyph glyph-name="guilsinglleft" unicode="&#x2039;" horiz-adv-x="526" 
d="M470 334q6 -16 6 -44q0 -55 -22 -157l-250 356l17 82l402 356q-33 -154 -70 -201l-175 -196z" />
    <glyph glyph-name="guilsinglright" unicode="&#x203a;" horiz-adv-x="526" 
d="M374 530l-93 196q-6 16 -6 44q0 55 22 157l250 -356l-17 -82l-402 -356q33 154 70 201z" />
    <glyph glyph-name="fraction" unicode="&#x2044;" horiz-adv-x="503" 
d="M190 68q-13 -29 -35 -48q-24 -20 -57 -20h-48l563 1344q13 29 35 48q24 20 57 20h48z" />
    <glyph glyph-name="fraction" unicode="&#x2215;" horiz-adv-x="503" 
d="M190 68q-13 -29 -35 -48q-24 -20 -57 -20h-48l563 1344q13 29 35 48q24 20 57 20h48z" />
    <glyph glyph-name="franc" unicode="&#x20a3;" horiz-adv-x="1360" 
d="M307 423l101 474q53 252 243 396q182 139 438 139q225 0 456 -90l-13 -60q-8 -38 -40 -65q-34 -27 -72 -27q-201 67 -368 67q-171 0 -295 -94q-129 -98 -164 -266l-19 -88h677q37 0 57 -25q14 -19 14 -43q0 -9 -2 -20l-17 -79h-765l-46 -219h375q22 0 32 -26q6 -15 6 -33
q0 -15 -4 -31l-11 -50h-428l-40 -191q-9 -38 -41 -65q-33 -27 -72 -27h-92l60 283h-114q-22 0 -32 26q-5 16 -5 34q0 15 3 31l11 49h167z" />
    <glyph glyph-name="lira" unicode="&#x20a4;" horiz-adv-x="1287" 
d="M567 372q-42 -118 -118 -204h659q36 0 56 -26q15 -19 15 -43q0 -9 -2 -19l-17 -80h-1087l20 94q15 69 100 69q134 68 188 209h-156q-27 0 -41 26q-8 18 -8 40q0 12 2 25l11 49h225v6q5 21 8 43l8 82h-147q-27 0 -42 26q-8 17 -8 38q0 13 3 27l10 49h190q5 104 23 190
q48 228 199 320q172 139 408 139q175 0 406 -90l-13 -60q-8 -38 -40 -65q-34 -27 -72 -27q-201 67 -318 67q-151 0 -265 -94q-89 -62 -121 -214q-16 -73 -18 -166h514q28 0 43 -26q7 -16 7 -36q0 -13 -3 -28l-10 -50h-557l-8 -82q-4 -25 -9 -49h480q28 0 42 -26q8 -17 8 -37
q0 -13 -3 -27l-11 -50h-551z" />
    <glyph glyph-name="peseta" unicode="&#x20a7;" horiz-adv-x="2364" 
d="M426 753h235q345 0 404 276q6 27 6 51q0 77 -59 124q-67 53 -188 53h-5q-117 0 -206 -53q-104 -61 -128 -175zM1175 868q-142 -283 -550 -283h-235l-124 -585h-166l219 1029q41 193 207 304q149 99 332 99h4q185 -1 291 -100q88 -83 88 -210q0 -41 -9 -86h78l39 183
q8 37 39 62q32 26 68 26h88l-58 -271h329q36 0 57 -26q1 -2 3 -5q91 43 206 43q216 0 355 -97l-18 -83q-11 -52 -58 -52q-15 0 -34 6q-151 59 -281 59q-86 0 -144 -45q-54 -40 -66 -98q-2 -11 -2 -20q0 -56 73 -81q2 -1 195 -39q132 -25 185 -79q52 -51 52 -137
q0 -35 -9 -76l-2 -9q-29 -126 -140 -213q-123 -96 -391 -126q-52 -6 -104 -6q-214 0 -421 100q-110 70 -110 226q0 58 15 127l98 463h-99zM1711 868h-261l-98 -463q-9 -42 -9 -77q0 -107 83 -148q148 -74 299 -74q82 0 165 23q236 62 258 168q3 14 3 27q0 61 -69 89
q-25 10 -193 42q-132 25 -186 73q-55 50 -55 137q0 33 8 73q15 71 55 130z" />
    <glyph glyph-name="Euro" unicode="&#x20ac;" horiz-adv-x="1132" 
d="M449 478q-6 -43 -6 -80q0 -83 29 -141q68 -94 214 -94q142 0 338 67q33 0 50 -27q12 -19 12 -43q0 -10 -2 -22l-12 -60q-233 -90 -424 -90q-218 0 -318 139q-78 97 -78 244q0 51 9 107h-83q-25 0 -39 26q-7 17 -7 37q0 13 3 28l10 49h144l34 160h-82q-25 0 -38 26
q-7 17 -7 37q0 13 3 28l10 49h144q57 237 225 375q159 139 377 139q191 0 385 -90l-13 -60q-8 -38 -37 -65t-62 -27q-168 67 -310 67q-146 0 -254 -94q-85 -92 -124 -245h583q26 0 40 -26q6 -16 6 -35q0 -13 -3 -29l-11 -50h-645l-34 -160h583q26 0 40 -26q6 -16 6 -35
q0 -13 -3 -29l-10 -50h-643z" />
    <glyph glyph-name="uni2116" unicode="&#x2116;" horiz-adv-x="2302" 
d="M382 1328q8 38 41 65t71 27h190l403 -1248l265 1248h185l-282 -1328q-9 -38 -41 -65q-33 -27 -71 -27h-190l-403 1248l-245 -1156q-9 -38 -41 -65q-33 -27 -72 -27h-92zM1993.88 998.959q-117.475 0 -181.492 -63.5967q-52.7979 -51.5986 -76.5576 -154.194
q-11.2188 -47.3975 -11.2188 -83.9961q0 -42.5986 15.1787 -70.7969q34.9785 -63.5977 152.454 -63.5977t181.492 63.5977q52.1387 52.1973 75.8975 154.793q11.2197 47.998 11.2197 84.5967q0 41.998 -14.5195 69.5977q-34.9785 63.5967 -152.454 63.5967zM2017.64 1099.16
q262.01 0 262.01 -209.991q0 -48.5986 -13.8594 -107.996q-74.5771 -317.986 -397.304 -317.986q-262.67 0 -262.67 209.991q0 48.5977 13.8604 107.995q74.5762 317.987 397.963 317.987zM1571.5 497q-13.5 0 -21 26q-4 17 -4 38q0 13 1.5 27l5.5 49h485.5q14 0 21 -26
q3.5 -16 3.5 -36q0 -13 -1.5 -28l-5 -50h-485.5z" />
    <glyph glyph-name="trademark" unicode="&#x2122;" horiz-adv-x="1595" 
d="M232.656 837.251q-16.2002 0 -25.6504 10.4004q-6.75 7.20117 -6.75 17.2012q0 3.60059 0.899414 7.60059l7.65039 32.002h413.562q16.2002 0 25.6504 -10.4004q6.75 -7.60059 6.75 -17.6016q0 -3.59961 -0.899414 -7.2002l-7.65039 -32.002h-184.955l-110.703 -462.828
q-3.60059 -14.4014 -17.5508 -24.8018q-14.4004 -10.4004 -30.6006 -10.4004h-43.6514l119.253 498.03h-145.354zM326.709 339.221l126.903 531.232q3.60059 15.2012 18.4502 26.002q14.8506 10.8008 31.9512 10.8008h42.751q42.3018 -0.400391 49.9512 -38.0029
l90.9033 -461.228l311.858 461.228q25.6504 37.6025 67.9512 38.0029h42.751q17.1006 0 26.5508 -10.8008q6.75098 -8.00098 6.75098 -18.002q0 -4 -0.900391 -8l-126.903 -531.232h-41.4014q-17.5508 0 -27.001 10.8008q-7.2002 7.60059 -7.2002 17.6006
q0 4.00098 1.35059 8.40137l106.652 447.227l-303.758 -449.627q-22.9512 -34.4023 -58.502 -34.4023h-29.251q-35.5508 0 -42.3008 34.4023l-88.6523 449.627l-106.653 -447.227q-4.0498 -15.2012 -18.4502 -26.002q-14.8506 -10.8008 -32.4004 -10.8008h-41.4014z" />
    <glyph glyph-name="minus" unicode="&#x2212;" horiz-adv-x="1159" 
d="M299 624q-27 0 -42 26q-8 17 -8 38q0 13 3 27l10 49h893q28 0 43 -26q7 -16 7 -36q0 -13 -3 -28l-10 -50h-893z" />
    <glyph glyph-name="approxequal" unicode="&#x2248;" horiz-adv-x="1009" 
d="M485 606q-51 0 -113 -28q-30 -13 -65 -39q-3 -2 -5 -4q-21 -17 -44 -17q-16 0 -27 8l20 96q80 73 144.5 99t119.5 26q63 0 162.5 -44t153.5 -44q51 0 113 28q30 13 65 39q3 2 5 4q21 17 44 17q16 0 27 -8l-20 -96q-80 -73 -144.5 -99t-119.5 -26q-57 0 -159.5 44
t-156.5 44zM485 377q-51 0 -113 -28q-30 -13 -65 -39q-3 -2 -5 -4q-21 -17 -44 -17q-16 0 -27 8l20 96q80 73 144.5 99t119.5 26q63 0 162.5 -44t153.5 -44q51 0 113 28q30 13 65 39q3 2 5 4q21 17 44 17q16 0 27 -8l-20 -96q-80 -73 -144.5 -99t-119.5 -26q-57 0 -159.5 44
t-156.5 44z" />
    <glyph glyph-name="lessequal" unicode="&#x2264;" horiz-adv-x="1170" 
d="M261 777l1063 484v-10q0 -35 -6 -65q-22 -105 -126 -137l-693 -313l559 -314q73 -26 73 -98q0 -18 -5 -39q-7 -34 -26 -75l-857 484zM300 0q-27 0 -42 26q-8 17 -8 38q0 13 3 27l10 49h893q28 0 43 -26q7 -16 7 -36q0 -13 -3 -28l-10 -50h-893z" />
    <glyph glyph-name="greaterequal" unicode="&#x2265;" horiz-adv-x="1170" 
d="M1213 694l-1063 -484v10q0 35 6 65q23 105 126 137l693 313l-559 314q-72 26 -72 99q0 17 4 38q7 34 26 75l857 -484zM300 0q-27 0 -42 26q-8 17 -8 38q0 13 3 27l10 49h893q28 0 43 -26q7 -16 7 -36q0 -13 -3 -28l-10 -50h-893z" />
    <glyph glyph-name="uniF001" unicode="&#xf001;" horiz-adv-x="1147" 
d="M1163 1036q37 0 57 -26q15 -19 15 -44q0 -8 -2 -18l-202 -948h-88q-36 0 -56 26q-15 18 -15 43q0 9 2 19l165 780h-525l-165 -780q-8 -37 -39 -62q-32 -26 -68 -26h-88l184 868h-54q-37 0 -56 26q-15 18 -15 43q0 9 2 19l17 80h142l4 20q45 208 173 293q110 74 320 74
q97 0 194 -23l-18 -85q-15 -68 -100 -68q-58 10 -111 10q-126 0 -185 -37q-71 -44 -97 -164l-4 -20h613zM1137 1325q7 36 39 62q31 26 67 26h88l-26 -125q-8 -36 -39 -62q-32 -26 -68 -26h-88z" />
    <glyph glyph-name="uniF001" unicode="&#xfb01;" horiz-adv-x="1147" 
d="M1163 1036q37 0 57 -26q15 -19 15 -44q0 -8 -2 -18l-202 -948h-88q-36 0 -56 26q-15 18 -15 43q0 9 2 19l165 780h-525l-165 -780q-8 -37 -39 -62q-32 -26 -68 -26h-88l184 868h-54q-37 0 -56 26q-15 18 -15 43q0 9 2 19l17 80h142l4 20q45 208 173 293q110 74 320 74
q97 0 194 -23l-18 -85q-15 -68 -100 -68q-58 10 -111 10q-126 0 -185 -37q-71 -44 -97 -164l-4 -20h613zM1137 1325q7 36 39 62q31 26 67 26h88l-26 -125q-8 -36 -39 -62q-32 -26 -68 -26h-88z" />
    <glyph glyph-name="uniF002" unicode="&#xf002;" horiz-adv-x="1214" 
d="M1060 1248q-173 9 -224 9q-126 0 -185 -37q-71 -44 -97 -164l-4 -20h257q37 0 57 -26q15 -19 15 -44q0 -8 -2 -18l-18 -80h-345l-165 -780q-8 -37 -39 -62q-32 -26 -68 -26h-88l184 868h-54q-37 0 -56 26q-15 18 -15 43q0 9 2 19l17 80h142l4 20q45 208 173 293
q110 74 320 74q95 0 324 -23q27 -5 43 -32q13 -19 13 -43q0 -9 -2 -19l-204 -959q-16 -73 -16 -115q0 -53 24 -61q25 -8 58 -8q23 0 50 4q73 0 73 -51q0 -8 -2 -18l-18 -85q-81 -18 -159 -18q-24 0 -48 2q-100 7 -140 79q-20 34 -20 99q0 69 22 172z" />
    <glyph glyph-name="uniF002" unicode="&#xfb02;" horiz-adv-x="1214" 
d="M1060 1248q-173 9 -224 9q-126 0 -185 -37q-71 -44 -97 -164l-4 -20h257q37 0 57 -26q15 -19 15 -44q0 -8 -2 -18l-18 -80h-345l-165 -780q-8 -37 -39 -62q-32 -26 -68 -26h-88l184 868h-54q-37 0 -56 26q-15 18 -15 43q0 9 2 19l17 80h142l4 20q45 208 173 293
q110 74 320 74q95 0 324 -23q27 -5 43 -32q13 -19 13 -43q0 -9 -2 -19l-204 -959q-16 -73 -16 -115q0 -53 24 -61q25 -8 58 -8q23 0 50 4q73 0 73 -51q0 -8 -2 -18l-18 -85q-81 -18 -159 -18q-24 0 -48 2q-100 7 -140 79q-20 34 -20 99q0 69 22 172z" />
    <glyph glyph-name="perthousand" unicode="&#x2030;" horiz-adv-x="2202" 
d="M907 1036q-51 -239 -344 -239q-251 0 -251 174q0 30 8 65l36 169q51 238 345 238q250 0 250 -173q0 -30 -8 -65zM838 1205q6 28 6 52q0 39 -17 63q-35 48 -142 48t-162 -48q-45 -39 -61 -115l-36 -169q-6 -28 -6 -51q0 -40 18 -65q34 -48 141 -48t163 48q44 39 60 116z
M696 68q-13 -29 -35 -48q-24 -20 -57 -20h-48l563 1344q13 29 35 48q24 20 57 20h48zM1460 208q-50 -238 -344 -238q-251 0 -251 174q0 29 7 64l36 169q51 239 345 239q251 0 251 -174q0 -30 -8 -65zM1390 377q6 29 6 53q0 39 -17 63q-35 48 -142 48q-106 0 -161 -48
q-45 -39 -62 -116l-36 -169q-6 -27 -6 -49q0 -41 19 -66q35 -48 141 -48q107 0 162 48q44 39 60 115zM2146 208q-50 -238 -344 -238q-251 0 -251 174q0 29 7 64l36 169q51 239 345 239q251 0 251 -174q0 -30 -8 -65zM2076 377q6 29 6 53q0 39 -17 63q-35 48 -142 48
q-106 0 -161 -48q-45 -39 -62 -116l-36 -169q-6 -27 -6 -49q0 -41 19 -66q35 -48 141 -48q107 0 162 48q44 39 60 115z" />
    <glyph glyph-name="uni2031" unicode="&#x2031;" horiz-adv-x="2906" 
d="M907 1036q-51 -239 -344 -239q-251 0 -251 174q0 30 8 65l36 169q51 238 345 238q250 0 250 -173q0 -30 -8 -65zM838 1205q6 28 6 52q0 39 -17 63q-35 48 -142 48t-162 -48q-45 -39 -61 -115l-36 -169q-6 -28 -6 -51q0 -40 18 -65q34 -48 141 -48t163 48q44 39 60 116z
M696 68q-13 -29 -35 -48q-24 -20 -57 -20h-48l563 1344q13 29 35 48q24 20 57 20h48zM1460 208q-50 -238 -344 -238q-251 0 -251 174q0 29 7 64l36 169q51 239 345 239q251 0 251 -174q0 -30 -8 -65zM1390 377q6 29 6 53q0 39 -17 63q-35 48 -142 48q-106 0 -161 -48
q-45 -39 -62 -116l-36 -169q-6 -27 -6 -49q0 -41 19 -66q35 -48 141 -48q107 0 162 48q44 39 60 115zM2146 208q-50 -238 -344 -238q-251 0 -251 174q0 29 7 64l36 169q51 239 345 239q251 0 251 -174q0 -30 -8 -65zM2076 377q6 29 6 53q0 39 -17 63q-35 48 -142 48
q-106 0 -161 -48q-45 -39 -62 -116l-36 -169q-6 -27 -6 -49q0 -41 19 -66q35 -48 141 -48q107 0 162 48q44 39 60 115zM2780 378q6 29 6 53q0 38 -17 62q-35 48 -142 48q-106 0 -161 -48q-45 -38 -62 -115l-36 -169q-6 -27 -6 -50q0 -41 19 -66q35 -48 141 -48q107 0 162 48
q44 39 60 116zM2850 209q-50 -239 -344 -239q-251 0 -251 175q0 29 7 64l36 169q51 238 345 238q251 0 251 -173q0 -30 -8 -65z" />
    <glyph glyph-name="uni2070" unicode="&#x2070;" horiz-adv-x="787" 
d="M870 861q-68 -318 -361 -318q-239 0 -239 210q0 48 13 108l48 225q67 318 361 318q238 0 238 -211q0 -48 -12 -107zM813 1086q10 48 10 84q0 42 -13 70q-32 64 -139 64t-165 -64q-47 -52 -69 -154l-48 -225q-10 -48 -10 -85q0 -42 13 -69q31 -65 138 -65t166 65
q47 51 69 154z" />
    <glyph glyph-name="uni2074" unicode="&#x2074;" horiz-adv-x="823" 
d="M798 857h53q22 0 35 -17q8 -11 8 -25q0 -6 -1 -13l-10 -48h-107l-43 -204h-58q-22 0 -34 15q-8 11 -8 26q0 6 1 12l32 151h-351q-23 0 -35 16q-9 12 -9 27q0 6 1 12l13 61l402 472q48 55 104 55h69q22 0 35 -15q8 -11 8 -25q0 -6 -1 -13zM401 857h287l96 449z" />
    <glyph glyph-name="uni2075" unicode="&#x2075;" horiz-adv-x="778" 
d="M436 1064q112 46 194 46q152 0 204 -64q32 -41 32 -115q0 -46 -12 -104q-60 -282 -371 -284q-118 0 -256 54l8 36q4 23 24 39q19 16 42 16q134 -44 204 -44q200 1 239 183q9 44 9 77q0 42 -16 64q-28 37 -129 37q-96 0 -194 -44l-8 -37q-4 -22 -22 -37q-19 -16 -42 -16
h-57l101 473q5 23 23 38t41 15h525l-10 -47q-5 -23 -23 -39q-21 -16 -43 -16h-414z" />
    <glyph glyph-name="uni2076" unicode="&#x2076;" horiz-adv-x="779" 
d="M855 827q-61 -284 -347 -284h-4q-150 0 -204 67q-36 43 -36 119q0 44 12 98l63 299q33 148 125 215q85 63 238 63q105 0 244 -54l-8 -36q-5 -23 -24 -40q-20 -16 -43 -16q-120 41 -191 41q-103 0 -154 -38q-55 -40 -77 -140l-12 -60q122 49 194 49q152 0 203 -64
q33 -41 33 -116q0 -45 -12 -103zM387 827q-9 -41 -9 -72q0 -42 17 -66q31 -45 131 -45q101 0 150 45q47 41 68 138q10 45 10 78q0 42 -16 63q-29 37 -129 37q-83 0 -194 -46z" />
    <glyph glyph-name="uni2077" unicode="&#x2077;" horiz-adv-x="781" 
d="M924 1397q23 0 36 -16q8 -11 8 -25q0 -6 -2 -13l-13 -62l-484 -731h-125l494 745h-408q-23 0 -35 16q-9 12 -9 27q0 6 1 12l10 47h527z" />
    <glyph glyph-name="uni2078" unicode="&#x2078;" horiz-adv-x="857" 
d="M832 990q100 -36 100 -141q0 -28 -7 -60q-53 -246 -382 -246q-282 0 -282 182q0 30 7 64q33 156 177 201q-66 35 -66 122q0 30 8 67q24 114 128 176q92 54 212 54q122 0 190 -54q61 -48 61 -126q0 -23 -6 -50q-31 -142 -140 -189zM753 686q46 33 61 103q5 23 5 41
q0 40 -22 62q-41 43 -170 43q-128 0 -187 -43q-46 -32 -61 -103q-5 -22 -5 -41q0 -40 22 -62q41 -42 169 -42q129 0 188 42zM808 1082q39 31 53 97q3 13 3 26q0 46 -40 72q-41 29 -117 30q-76 0 -131 -29q-65 -34 -78 -99q-5 -23 -5 -42q0 -35 17 -55q32 -41 138 -46
q109 5 160 46z" />
    <glyph glyph-name="uni2079" unicode="&#x2079;" horiz-adv-x="779" 
d="M338 1119q60 285 347 285h2q151 -1 206 -68q36 -43 36 -119q0 -44 -12 -98l-64 -299q-32 -148 -123 -214q-88 -63 -240 -63q-105 0 -243 54l7 35q5 24 25 40q19 16 43 16q120 -40 191 -40q103 0 154 37q55 40 76 140l13 60q-122 -49 -194 -49q-151 0 -204 64
q-33 41 -33 114q0 46 13 105zM806 1119q9 40 9 71q0 44 -18 68q-30 44 -131 45q-100 -1 -150 -45q-46 -41 -67 -139q-9 -44 -9 -77q0 -42 16 -64q28 -37 128 -37q83 0 194 46z" />
    <glyph glyph-name="uni207A" unicode="&#x207a;" horiz-adv-x="775" 
d="M542 924h-206q-17 0 -25 16q-5 10 -5 23q0 8 2 16l6 29h246l44 207q4 17 22 29q19 10 41 10h30l-53 -246h206q17 0 26 -15q4 -9 4 -21q0 -8 -2 -18l-7 -30h-245l-43 -205q-4 -17 -22 -29q-19 -11 -42 -11h-29z" />
    <glyph glyph-name="uni207B" unicode="&#x207b;" horiz-adv-x="775" 
d="M336 924q-17 0 -25 16q-5 10 -5 23q0 8 2 16l6 29h536q17 0 26 -15q4 -9 4 -21q0 -8 -2 -18l-7 -30h-535z" />
    <glyph glyph-name="uni207C" unicode="&#x207c;" horiz-adv-x="775" 
d="M357 1022q-17 0 -25 16q-5 10 -5 23q0 8 2 16l6 29h536q17 0 26 -15q4 -10 4 -22q0 -8 -2 -17l-7 -30h-535zM313 815q-17 0 -26 15q-4 10 -4 21q0 9 2 18l6 30h536q17 0 26 -16q4 -10 4 -21q0 -8 -2 -17l-7 -30h-535z" />
    <glyph glyph-name="uni207D" unicode="&#x207d;" horiz-adv-x="504" 
d="M328 1073q44 209 157 328q105 113 241 116l-17 -80q-93 -15 -163 -90q-76 -81 -117 -274l-66 -310q-20 -95 -20 -163q0 -70 21 -111q38 -75 125 -90l-17 -79q-135 3 -193 115q-35 69 -35 169q0 71 18 159z" />
    <glyph glyph-name="uni207E" unicode="&#x207e;" horiz-adv-x="504" 
d="M566 763q-44 -209 -157 -328q-105 -112 -241 -115l17 79q92 15 163 90q75 81 116 274l66 310q21 97 21 165q0 69 -21 109q-39 75 -125 90l17 80q135 -3 193 -116q35 -69 35 -169q0 -71 -18 -159z" />
    <glyph glyph-name="uni207F" unicode="&#x207f;" horiz-adv-x="735" 
d="M752 550h-53q-21 0 -34 16q-9 11 -9 25q0 6 1 12l75 354q4 20 4 37q0 85 -108 85q-148 0 -220 -127l-74 -349q-5 -22 -24 -37q-18 -16 -40 -16h-53l132 622h53q22 0 34 -16q9 -11 9 -25q0 -6 -1 -12l-12 -56q81 116 234 116q183 0 183 -143q0 -30 -8 -65z" />
    <glyph glyph-name="uni2080" unicode="&#x2080;" horiz-adv-x="787" 
d="M663 -112q-67 -318 -360 -318q-239 0 -239 211q0 48 12 107l48 224q67 318 361 318q238 0 238 -211q0 -48 -12 -107zM606 112q10 48 10 85q0 42 -13 70q-32 63 -139 63t-165 -63q-47 -52 -69 -155l-48 -224q-10 -48 -10 -85q0 -42 13 -70q32 -64 139 -64t165 64
q47 52 69 155z" />
    <glyph glyph-name="uni2081" unicode="&#x2081;" horiz-adv-x="753" 
d="M363 -323h168q22 0 34 -15q9 -12 9 -26q0 -6 -1 -12l-10 -48h-500q-21 0 -34 15q-9 12 -9 26q0 6 1 12l10 48h221l140 655l-154 -154h-23q-26 0 -36 22q-5 9 -5 17q0 4 1 7q2 10 10 20l111 124q47 56 103 56h70q22 0 35 -15q8 -11 8 -26q0 -6 -1 -12z" />
    <glyph glyph-name="uni2082" unicode="&#x2082;" horiz-adv-x="753" 
d="M62 -429q-21 0 -34 15q-9 11 -9 26q0 6 1 12l5 24q20 91 104 164q53 46 175 115q127 70 175 110q82 68 100 151q3 16 3 30q0 46 -35 74q-42 32 -120 32q-63 0 -200 -40q-23 0 -36 16q-9 12 -9 27q0 6 1 13l8 36q161 53 258 53q121 0 189 -58q58 -50 58 -129q0 -25 -6 -54
q-36 -169 -268 -301q-149 -85 -167 -97q-83 -57 -105 -119l380 1q22 0 34 -16q9 -12 9 -27q0 -5 -1 -10l-10 -48h-500z" />
    <glyph glyph-name="uni2083" unicode="&#x2083;" horiz-adv-x="784" 
d="M448 433q122 0 190 -60q57 -50 57 -128q0 -25 -6 -53q-28 -129 -143 -177q106 -35 106 -141q0 -26 -7 -57q-53 -250 -382 -250q-105 0 -244 54l8 36q5 23 25 39t43 16q132 -44 189 -44q128 0 189 44q46 34 61 105q5 22 5 40q0 39 -22 61q-42 41 -171 41h-101l22 101h101
q110 5 157 40q39 28 53 92q3 16 3 30q0 46 -36 74q-41 32 -120 32q-45 0 -182 -40q-23 0 -36 16q-9 12 -9 27q0 6 1 12l8 36q161 54 240 54h1z" />
    <glyph glyph-name="uni2084" unicode="&#x2084;" horiz-adv-x="823" 
d="M591 -117h53q22 0 35 -16q8 -11 8 -26q0 -6 -1 -13l-10 -48h-107l-43 -204h-58q-22 0 -34 15q-8 11 -8 26q0 6 1 12l32 151h-351q-23 0 -35 17q-9 12 -9 26q0 6 1 12l13 61l402 472q48 56 104 56h69q22 0 35 -15q8 -11 8 -26q0 -6 -1 -12zM194 -117h287l96 449z" />
    <glyph glyph-name="uni2085" unicode="&#x2085;" horiz-adv-x="778" 
d="M230 94q112 46 194 46q152 0 204 -64q32 -41 32 -115q0 -46 -12 -104q-60 -282 -371 -284q-118 0 -256 54l7 36q5 23 25 39q19 16 42 16q134 -44 204 -44q200 1 239 183q9 44 9 76q0 43 -16 65q-29 37 -130 37q-96 0 -193 -44l-8 -37q-4 -22 -23 -37q-18 -16 -41 -16h-57
l100 473q5 23 24 38q18 15 41 15h525l-10 -47q-5 -23 -24 -39q-20 -16 -42 -16h-414z" />
    <glyph glyph-name="uni2086" unicode="&#x2086;" horiz-adv-x="779" 
d="M648 -146q-60 -284 -346 -284h-4q-150 0 -205 67q-36 43 -36 119q0 44 12 98l64 299q32 147 124 214q85 63 238 63q105 0 244 -54l-8 -36q-4 -22 -24 -39q-19 -16 -42 -16q-121 40 -192 40q-103 0 -154 -37q-55 -41 -77 -141l-12 -59q122 49 194 49q152 0 204 -64
q32 -41 32 -115q0 -46 -12 -104zM180 -146q-9 -41 -9 -72q0 -43 17 -67q31 -44 131 -45q101 1 150 45q47 42 68 139q10 45 10 78q0 41 -16 62q-29 37 -129 37q-83 0 -194 -45z" />
    <glyph glyph-name="uni2087" unicode="&#x2087;" horiz-adv-x="781" 
d="M717 424q23 0 36 -17q8 -10 8 -24q0 -7 -2 -14l-13 -61l-484 -732h-125l494 745h-408q-23 0 -35 16q-9 12 -9 27q0 6 1 12l10 48h527z" />
    <glyph glyph-name="uni2088" unicode="&#x2088;" horiz-adv-x="857" 
d="M625 15q99 -35 99 -140q0 -29 -7 -62q-52 -246 -381 -246q-283 0 -283 183q0 29 7 63q34 157 178 202q-67 34 -67 123q0 30 8 66q24 113 129 175q92 54 212 54q122 0 190 -54q60 -47 60 -125q0 -23 -6 -50q-30 -143 -139 -189zM545 -290q46 33 61 103q5 23 5 41
q0 40 -22 62q-41 43 -170 43q-128 0 -187 -43q-46 -32 -61 -103q-5 -22 -5 -41q0 -40 22 -62q41 -42 169 -42q129 0 188 42zM601 106q38 32 52 98q3 14 3 27q0 44 -39 70q-42 29 -118 30q-76 0 -131 -29q-64 -34 -78 -98q-5 -23 -5 -41q0 -36 18 -57q32 -41 138 -46
q109 5 160 46z" />
    <glyph glyph-name="uni2089" unicode="&#x2089;" horiz-adv-x="779" 
d="M131 145q60 285 347 285h2q151 -1 206 -67q36 -43 36 -120q0 -43 -12 -98l-64 -298q-32 -148 -123 -214q-87 -63 -239 -63q-105 0 -244 54l8 35q4 23 24 40q19 16 43 16q120 -40 191 -40q103 0 154 37q55 40 77 140l12 60q-122 -49 -194 -49q-151 0 -204 64
q-32 41 -32 115q0 45 12 103zM599 145q9 41 9 72q0 44 -17 68q-31 43 -132 45q-100 -2 -149 -45q-47 -42 -68 -140q-9 -44 -9 -76q0 -42 16 -64q28 -37 128 -37q83 0 194 45z" />
    <glyph glyph-name="uni208A" unicode="&#x208a;" horiz-adv-x="775" 
d="M337 -42h-206q-17 0 -26 15q-4 10 -4 21q0 9 2 18l6 30h246l44 206q3 17 22 29q18 11 40 11h30l-52 -246h206q17 0 26 -16q3 -9 3 -19q0 -9 -2 -19l-6 -30h-245l-44 -206q-3 -16 -22 -28q-18 -12 -41 -12h-29z" />
    <glyph glyph-name="uni208B" unicode="&#x208b;" horiz-adv-x="775" 
d="M131 -42q-17 0 -26 16q-4 9 -4 21q0 8 2 18l6 29h536q17 0 26 -16q3 -9 3 -19q0 -9 -2 -19l-6 -30h-535z" />
    <glyph glyph-name="uni208C" unicode="&#x208c;" horiz-adv-x="775" 
d="M153 62q-17 0 -26 15q-4 10 -4 21q0 9 2 18l6 30h536q17 0 26 -16q3 -9 3 -20q0 -9 -2 -19l-6 -29h-535zM109 -146q-17 0 -26 16q-4 10 -4 21q0 9 2 18l6 29h536q17 0 26 -15q3 -9 3 -20q0 -9 -2 -19l-6 -30h-535z" />
    <glyph glyph-name="uni208D" unicode="&#x208d;" horiz-adv-x="504" 
d="M172 340q45 209 157 328q105 112 241 115l-16 -79q-94 -15 -163 -90q-77 -81 -118 -274l-66 -310q-20 -96 -20 -164q0 -70 21 -111q38 -75 125 -90l-17 -79q-135 3 -193 115q-35 70 -35 170q0 71 18 159z" />
    <glyph glyph-name="uni208E" unicode="&#x208e;" horiz-adv-x="504" 
d="M410 30q-44 -209 -157 -329q-105 -112 -241 -115l17 79q92 15 163 90q75 81 116 275l66 310q21 98 21 167q0 67 -20 107q-40 75 -125 90l16 79q135 -3 193 -115q36 -69 36 -168q0 -72 -19 -160z" />
    <glyph glyph-name="uni0237" unicode="&#x237;" horiz-adv-x="435" 
d="M290 -22q-39 -187 -145 -274q-94 -78 -264 -91q-34 0 -54 24q-14 18 -14 41q0 9 2 18l17 80q126 0 185 37q72 44 97 165l207 970q7 37 39 62q31 26 67 26h88z" />
    <glyph glyph-name="uni02BB" unicode="&#x2bb;" horiz-adv-x="399" 
d="M632 1565q-93 -112 -140 -333q-6 -26 -28 -43q-23 -18 -50 -18h-65l4 21q39 182 201 349q23 24 40 24h38z" />
    <glyph glyph-name="uni02BC" unicode="&#x2bc;" horiz-adv-x="399" 
d="M349 1171q93 112 140 333q5 26 28 43q23 18 50 18h65l-5 -21q-38 -182 -200 -349q-23 -24 -40 -24h-38z" />
    <glyph glyph-name="uni02CA" unicode="&#x2ca;" horiz-adv-x="623" 
d="M383 1106l-36 56l339 251q30 13 53 13q62 0 62 -103q0 -10 -1 -22z" />
    <glyph glyph-name="uni02CB" unicode="&#x2cb;" horiz-adv-x="623" 
d="M377 1301q45 125 113 125q23 0 47 -13l233 -251l-60 -56z" />
    <glyph glyph-name="uni02CD" unicode="&#x2cd;" horiz-adv-x="1096" 
d="M97 -323q-27 0 -41 26q-8 17 -8 38q0 13 3 27l10 49h830q28 0 43 -26q7 -16 7 -36q0 -13 -3 -28l-11 -50h-830z" />
    <glyph glyph-name="uni02F7" unicode="&#x2f7;" horiz-adv-x="817" 
d="M664 -249q-113 -109 -212 -109q-58 0 -111 38q-71 51 -142 51q-70 0 -140 -51l-11 74q105 98 199 98q59 0 114 -38q68 -48 137 -48q77 0 155 59z" />
    <glyph glyph-name="gravecomb" unicode="&#x300;" 
d="M-423 1301q45 125 113 125q23 0 47 -13l233 -251l-60 -56z" />
    <glyph glyph-name="acutecomb" unicode="&#x301;" 
d="M-387 1106l-36 56l339 251q30 13 53 13q62 0 62 -103q0 -10 -1 -22z" />
    <glyph glyph-name="uni0302" unicode="&#x302;" 
d="M-202 1249l-304 -143l-37 56q155 114 339 251h73l233 -251l-60 -56z" />
    <glyph glyph-name="tildecomb" unicode="&#x303;" 
d="M121 1243q-113 -108 -212 -108q-58 0 -111 38q-71 50 -142 50q-70 0 -140 -50l-11 74q105 98 199 98q59 0 115 -39q68 -47 137 -47q77 0 154 58z" />
    <glyph glyph-name="uni0304" unicode="&#x304;" 
d="M-434 1130q-27 0 -41 26q-8 17 -8 38q0 13 3 27l10 49h536q28 0 42 -26q8 -17 8 -37q0 -13 -3 -27l-11 -50h-536z" />
    <glyph glyph-name="uni0305" unicode="&#x305;" 
d="M1633 1553q-27 0 -41 26q-8 18 -8 40q0 12 2 25l11 49h971q28 0 42 -26q8 -17 8 -37q0 -13 -3 -27l-11 -50h-971z" />
    <glyph glyph-name="uni0306" unicode="&#x306;" 
d="M137 1413l36 -56q-158 -251 -379 -251q-222 0 -266 251l61 56q98 -187 235 -187t313 187z" />
    <glyph glyph-name="uni0307" unicode="&#x307;" 
d="M-349 1229q8 36 40 62q33 26 72 26h92l-27 -125q-7 -36 -40 -62q-32 -26 -70 -26h-93z" />
    <glyph glyph-name="uni0308" unicode="&#x308;" 
d="M-509 1229q8 36 40 62q33 26 72 26h92l-27 -125q-7 -36 -40 -62q-32 -26 -70 -26h-93zM-17 1104h-93q-38 0 -60 26q-16 20 -16 45q0 8 2 17l27 125h92q39 0 60 -26q16 -19 16 -43q0 -9 -2 -19z" />
    <glyph glyph-name="uni0310" unicode="&#x310;" 
d="M-170 1413l36 -56q-158 -251 -379 -251q-222 0 -266 251l61 56q98 -187 235 -187t313 187zM-510 1538q8 36 40 62q33 26 72 26h92l-27 -125q-8 -36 -40 -62q-33 -26 -71 -26h-93z" />
    <glyph glyph-name="uni0315" unicode="&#x315;" horiz-adv-x="399" 
d="M266 1018q93 113 140 333q6 26 29 44q22 18 49 18h65l-4 -22q-39 -181 -200 -348q-24 -25 -41 -25h-38z" />
    <glyph glyph-name="dotbelowcomb" unicode="&#x323;" 
d="M-610 -237q6 31 34 52q28 23 60 23h79l-23 -106q-7 -31 -34 -53q-28 -22 -61 -22h-78z" />
    <glyph glyph-name="uni0324" unicode="&#x324;" 
d="M-750 -234q8 36 40 62q33 26 72 26h92l-27 -125q-7 -36 -40 -62q-32 -26 -70 -26h-93zM-258 -359h-93q-38 0 -60 26q-16 20 -16 45q0 8 2 17l27 125h92q39 0 60 -26q16 -19 16 -43q0 -9 -2 -19z" />
    <glyph glyph-name="uni0325" unicode="&#x325;" 
d="M-316 -110q29 -38 29 -88q0 -19 -4 -40q-15 -74 -79 -127t-139 -53t-116 53q-30 39 -30 89q0 18 4 38q16 75 80 127.5t139 52.5t116 -52zM-453 -154q-35 0 -64 -24.5t-37 -59.5q-2 -9 -2 -18q0 -23 14 -40q19 -25 54 -25t64.5 24.5t36.5 58.5q2 10 2 19q0 23 -13 41
q-20 24 -55 24z" />
    <glyph glyph-name="uni0326" unicode="&#x326;" 
d="M-619 -418q100 97 140 286q5 22 30 37q24 15 55 15h74l-4 -18q-33 -156 -207 -299q-26 -21 -45 -21h-43z" />
    <glyph glyph-name="Amacron" unicode="&#x100;" horiz-adv-x="1243" 
d="M838 1250l-383 -761h504l-59 761h-62zM370 321l-106 -212q-51 -109 -160 -109h-91l662 1315q50 108 159 108h142q109 0 114 -109l103 -1314h-91q-109 0 -115 110l-16 211h-601zM608 1507q-27 0 -41 26q-8 17 -8 38q0 13 3 27l10 49h536q28 0 42 -26q8 -17 8 -37
q0 -13 -3 -27l-11 -50h-536z" />
    <glyph glyph-name="amacron" unicode="&#x101;" horiz-adv-x="1169" 
d="M981 518q17 80 17 141q0 70 -22 116q-53 107 -231 107t-275 -107q-80 -86 -116 -257q-18 -84 -18 -147q0 -67 20 -110q50 -107 227 -107q247 0 366 212zM909 181q-133 -193 -389 -193q-364 0 -364 340q0 85 22 190q113 530 603 530q397 0 397 -350q0 -81 -21 -180
l-110 -518h-88q-36 0 -56 26q-15 18 -15 43q0 9 2 19zM563 1130q-27 0 -41 26q-8 17 -8 38q0 13 3 27l10 49h536q28 0 42 -26q8 -17 8 -37q0 -13 -3 -27l-11 -50h-536z" />
    <glyph glyph-name="Abreve" unicode="&#x102;" horiz-adv-x="1243" 
d="M838 1250l-383 -761h504l-59 761h-62zM370 321l-106 -212q-51 -109 -160 -109h-91l662 1315q50 108 159 108h142q109 0 114 -109l103 -1314h-91q-109 0 -115 110l-16 211h-601zM1178 1790l36 -56q-158 -251 -379 -251q-222 0 -266 251l61 56q98 -187 235 -187t313 187z
" />
    <glyph glyph-name="abreve" unicode="&#x103;" horiz-adv-x="1169" 
d="M981 518q17 80 17 141q0 70 -22 116q-53 107 -231 107t-275 -107q-80 -86 -116 -257q-18 -84 -18 -147q0 -67 20 -110q50 -107 227 -107q247 0 366 212zM909 181q-133 -193 -389 -193q-364 0 -364 340q0 85 22 190q113 530 603 530q397 0 397 -350q0 -81 -21 -180
l-110 -518h-88q-36 0 -56 26q-15 18 -15 43q0 9 2 19zM1132 1413l36 -56q-158 -251 -379 -251q-222 0 -266 251l61 56q98 -187 235 -187t313 187z" />
    <glyph glyph-name="Aogonek" unicode="&#x104;" horiz-adv-x="1243" 
d="M838 1250l-383 -761h504l-59 761h-62zM370 321l-106 -212q-51 -109 -160 -109h-91l662 1315q50 108 159 108h142q109 0 114 -109l103 -1314h-91q-109 0 -115 110l-16 211h-601zM1193 0q-195 -143 -213 -225q-2 -8 -2 -15q0 -21 13 -37q19 -11 48 -11q57 0 156 44
q13 3 21 3q21 0 21 -18q0 -5 -1 -10l-10 -47q-136 -75 -229 -75q-42 0 -76 16q-62 42 -62 98q0 12 3 24q22 104 240 253h91z" />
    <glyph glyph-name="aogonek" unicode="&#x105;" horiz-adv-x="1169" 
d="M981 518q17 80 17 141q0 70 -22 116q-53 107 -231 107t-275 -107q-80 -86 -116 -257q-18 -84 -18 -147q0 -67 20 -110q50 -107 227 -107q247 0 366 212zM909 181q-133 -193 -389 -193q-364 0 -364 340q0 85 22 190q113 530 603 530q397 0 397 -350q0 -81 -21 -180
l-110 -518h-88q-36 0 -56 26q-15 18 -15 43q0 9 2 19zM1047 0q-195 -143 -213 -225q-2 -8 -2 -15q0 -21 13 -37q19 -11 48 -11q57 0 156 44q13 3 21 3q21 0 21 -18q0 -5 -1 -10l-10 -47q-136 -75 -229 -75q-42 0 -76 16q-62 42 -62 98q0 12 3 24q22 104 240 253h91z" />
    <glyph glyph-name="Cacute" unicode="&#x106;" horiz-adv-x="1145" 
d="M227 897q53 252 243 396q182 139 438 139q225 0 456 -90l-13 -60q-8 -38 -41 -65t-71 -27q-201 67 -368 67q-171 0 -295 -94q-129 -98 -164 -266l-80 -374q-10 -49 -10 -92q0 -105 62 -174q84 -94 255 -94q167 0 396 67q38 0 59 -27q16 -20 16 -45q0 -10 -2 -20l-12 -60
q-270 -90 -495 -90q-256 0 -379 139q-91 101 -91 256q0 65 16 140zM700 1483l-36 56l339 251q30 13 53 13q62 0 62 -103q0 -10 -1 -22z" />
    <glyph glyph-name="cacute" unicode="&#x107;" horiz-adv-x="1001" 
d="M977 84q-181 -96 -422 -96q-398 0 -398 350q0 81 21 180q113 530 603 530q241 0 380 -96l-18 -84q-10 -51 -57 -51q-16 0 -35 5q-150 60 -306 60q-178 0 -275 -107q-80 -86 -116 -257q-17 -79 -17 -140q0 -71 23 -117q53 -107 231 -107q156 0 330 60q22 5 38 5
q38 0 38 -34q0 -7 -2 -17zM656 1106l-36 56l339 251q30 13 53 13q62 0 62 -103q0 -10 -1 -22z" />
    <glyph glyph-name="Ccircumflex" unicode="&#x108;" horiz-adv-x="1145" 
d="M227 897q53 252 243 396q182 139 438 139q225 0 456 -90l-13 -60q-8 -38 -41 -65t-71 -27q-201 67 -368 67q-171 0 -295 -94q-129 -98 -164 -266l-80 -374q-10 -49 -10 -92q0 -105 62 -174q84 -94 255 -94q167 0 396 67q38 0 59 -27q16 -20 16 -45q0 -10 -2 -20l-12 -60
q-270 -90 -495 -90q-256 0 -379 139q-91 101 -91 256q0 65 16 140zM823 1626l-304 -143l-37 56q155 114 339 251h73l233 -251l-60 -56z" />
    <glyph glyph-name="ccircumflex" unicode="&#x109;" horiz-adv-x="1001" 
d="M977 84q-181 -96 -422 -96q-398 0 -398 350q0 81 21 180q113 530 603 530q241 0 380 -96l-18 -84q-10 -51 -57 -51q-16 0 -35 5q-150 60 -306 60q-178 0 -275 -107q-80 -86 -116 -257q-17 -79 -17 -140q0 -71 23 -117q53 -107 231 -107q156 0 330 60q22 5 38 5
q38 0 38 -34q0 -7 -2 -17zM779 1249l-304 -143l-37 56q155 114 339 251h73l233 -251l-60 -56z" />
    <glyph glyph-name="Cdotaccent" unicode="&#x10a;" horiz-adv-x="1145" 
d="M227 897q53 252 243 396q182 139 438 139q225 0 456 -90l-13 -60q-8 -38 -41 -65t-71 -27q-201 67 -368 67q-171 0 -295 -94q-129 -98 -164 -266l-80 -374q-10 -49 -10 -92q0 -105 62 -174q84 -94 255 -94q167 0 396 67q38 0 59 -27q16 -20 16 -45q0 -10 -2 -20l-12 -60
q-270 -90 -495 -90q-256 0 -379 139q-91 101 -91 256q0 65 16 140zM726 1606q8 36 40 62q33 26 72 26h92l-27 -125q-7 -36 -40 -62q-32 -26 -70 -26h-93z" />
    <glyph glyph-name="cdotaccent" unicode="&#x10b;" horiz-adv-x="1001" 
d="M977 84q-181 -96 -422 -96q-398 0 -398 350q0 81 21 180q113 530 603 530q241 0 380 -96l-18 -84q-10 -51 -57 -51q-16 0 -35 5q-150 60 -306 60q-178 0 -275 -107q-80 -86 -116 -257q-17 -79 -17 -140q0 -71 23 -117q53 -107 231 -107q156 0 330 60q22 5 38 5
q38 0 38 -34q0 -7 -2 -17zM682 1229q8 36 40 62q33 26 72 26h92l-27 -125q-7 -36 -40 -62q-32 -26 -70 -26h-93z" />
    <glyph glyph-name="Ccaron" unicode="&#x10c;" horiz-adv-x="1145" 
d="M227 897q53 252 243 396q182 139 438 139q225 0 456 -90l-13 -60q-8 -38 -41 -65t-71 -27q-201 67 -368 67q-171 0 -295 -94q-129 -98 -164 -266l-80 -374q-10 -49 -10 -92q0 -105 62 -174q84 -94 255 -94q167 0 396 67q38 0 59 -27q16 -20 16 -45q0 -10 -2 -20l-12 -60
q-270 -90 -495 -90q-256 0 -379 139q-91 101 -91 256q0 65 16 140zM1132 1790l36 -56l-339 -251h-73q-126 137 -233 251l61 56l244 -143z" />
    <glyph glyph-name="ccaron" unicode="&#x10d;" horiz-adv-x="1001" 
d="M977 84q-181 -96 -422 -96q-398 0 -398 350q0 81 21 180q113 530 603 530q241 0 380 -96l-18 -84q-10 -51 -57 -51q-16 0 -35 5q-150 60 -306 60q-178 0 -275 -107q-80 -86 -116 -257q-17 -79 -17 -140q0 -71 23 -117q53 -107 231 -107q156 0 330 60q22 5 38 5
q38 0 38 -34q0 -7 -2 -17zM1088 1413l36 -56l-339 -251h-73q-126 137 -233 251l61 56l244 -143z" />
    <glyph glyph-name="Dcaron" unicode="&#x10e;" horiz-adv-x="1356" 
d="M1319 535q-54 -253 -243 -396q-183 -139 -438 -139h-568l191 897q53 252 243 396q182 139 438 139q255 0 379 -139q91 -102 91 -258q0 -64 -16 -138zM674 168q170 0 294 94q128 97 164 265l79 370q10 48 10 91q0 105 -62 175q-84 94 -254 94q-171 0 -295 -94
q-129 -98 -164 -266l-155 -729h383zM1212 1790l36 -56l-339 -251h-73q-126 137 -233 251l61 56l244 -143z" />
    <glyph glyph-name="dcaron" unicode="&#x10f;" horiz-adv-x="1579" 
d="M1046 824q-148 58 -301 58q-173 0 -270 -101q-83 -86 -121 -263q-18 -84 -18 -147q0 -71 23 -116q52 -101 224 -101q246 0 366 212zM909 181q-133 -193 -389 -193q-364 0 -364 340q0 85 22 190q113 530 603 530q170 0 301 -54l71 331q7 36 39 62q31 26 67 26h88
l-300 -1413h-88q-36 0 -56 26q-15 18 -15 43q0 9 2 19zM1446 1018q93 113 140 333q6 26 29 44q22 18 49 18h65l-4 -22q-39 -181 -200 -348q-24 -25 -41 -25h-38z" />
    <glyph glyph-name="Dcroat" unicode="&#x110;" horiz-adv-x="1401" 
d="M437 646l-101 -478h383q170 0 294 94q128 97 164 265l79 370q10 48 10 91q0 105 -62 175q-84 94 -254 94q-171 0 -295 -94q-129 -98 -164 -266l-24 -111h226q28 0 43 -26q7 -16 7 -36q0 -13 -3 -28l-11 -50h-292zM282 786l24 111q53 252 243 396q182 139 438 139
q255 0 379 -139q91 -102 91 -258q0 -64 -16 -138l-77 -362q-54 -253 -243 -396q-183 -139 -438 -139h-568l137 646h-84q-27 0 -41 26q-8 17 -8 38q0 13 3 27l10 49h150z" />
    <glyph glyph-name="dcroat" unicode="&#x111;" horiz-adv-x="1180" 
d="M1104 824q-148 58 -301 58q-173 0 -270 -101q-83 -86 -121 -263q-18 -84 -18 -147q0 -71 23 -116q52 -101 224 -101q246 0 366 212zM967 181q-133 -193 -389 -193q-364 0 -364 340q0 85 22 190q113 530 603 530q170 0 301 -54l71 331q7 36 39 62q31 26 67 26h88
l-300 -1413h-88q-36 0 -56 26q-15 18 -15 43q0 9 2 19zM244 1103q-27 0 -42 26q-8 17 -8 38q0 13 3 27l11 49h971q28 0 42 -26q7 -16 7 -36q0 -13 -3 -28l-10 -50h-971z" />
    <glyph glyph-name="Emacron" unicode="&#x112;" horiz-adv-x="1133" 
d="M216 897q53 252 243 396q182 139 437 139q226 0 457 -90l-13 -60q-8 -38 -41 -65t-71 -27q-200 67 -369 67q-170 0 -294 -94q-129 -98 -164 -266l-19 -88h677q37 0 57 -25q14 -19 14 -43q0 -9 -2 -20l-17 -79h-765l-25 -119q-10 -49 -10 -92q0 -105 62 -174
q84 -94 254 -94q169 0 397 67q38 0 59 -27q16 -20 16 -45q0 -10 -2 -20l-12 -60q-270 -90 -496 -90q-255 0 -378 139q-91 101 -91 256q0 65 16 140zM552 1507q-27 0 -41 26q-8 17 -8 38q0 13 3 27l10 49h536q28 0 42 -26q8 -17 8 -37q0 -13 -3 -27l-11 -50h-536z" />
    <glyph glyph-name="emacron" unicode="&#x113;" horiz-adv-x="1065" 
d="M917 606q7 52 7 93q0 66 -18 102q-42 81 -190 81q-150 0 -234 -80q-66 -64 -104 -196h539zM556 -12q-398 0 -398 350q0 81 21 180q113 530 573 530q249 0 321 -155q30 -65 30 -164q0 -91 -25 -210q-17 -81 -105 -81h-631q-8 -42 -8 -77q0 -207 258 -207q156 0 330 60
q22 5 38 5q38 0 38 -34q0 -7 -2 -17l-18 -84q-181 -96 -422 -96zM524 1130q-27 0 -41 26q-8 17 -8 38q0 13 3 27l10 49h536q28 0 42 -26q8 -17 8 -37q0 -13 -3 -27l-11 -50h-536z" />
    <glyph glyph-name="Ebreve" unicode="&#x114;" horiz-adv-x="1133" 
d="M216 897q53 252 243 396q182 139 437 139q226 0 457 -90l-13 -60q-8 -38 -41 -65t-71 -27q-200 67 -369 67q-170 0 -294 -94q-129 -98 -164 -266l-19 -88h677q37 0 57 -25q14 -19 14 -43q0 -9 -2 -20l-17 -79h-765l-25 -119q-10 -49 -10 -92q0 -105 62 -174
q84 -94 254 -94q169 0 397 67q38 0 59 -27q16 -20 16 -45q0 -10 -2 -20l-12 -60q-270 -90 -496 -90q-255 0 -378 139q-91 101 -91 256q0 65 16 140zM1121 1790l36 -56q-158 -251 -379 -251q-222 0 -266 251l61 56q98 -187 235 -187t313 187z" />
    <glyph glyph-name="ebreve" unicode="&#x115;" horiz-adv-x="1065" 
d="M917 606q7 52 7 93q0 66 -18 102q-42 81 -190 81q-150 0 -234 -80q-66 -64 -104 -196h539zM556 -12q-398 0 -398 350q0 81 21 180q113 530 573 530q249 0 321 -155q30 -65 30 -164q0 -91 -25 -210q-17 -81 -105 -81h-631q-8 -42 -8 -77q0 -207 258 -207q156 0 330 60
q22 5 38 5q38 0 38 -34q0 -7 -2 -17l-18 -84q-181 -96 -422 -96zM1093 1413l36 -56q-158 -251 -379 -251q-222 0 -266 251l61 56q98 -187 235 -187t313 187z" />
    <glyph glyph-name="Edotaccent" unicode="&#x116;" horiz-adv-x="1133" 
d="M216 897q53 252 243 396q182 139 437 139q226 0 457 -90l-13 -60q-8 -38 -41 -65t-71 -27q-200 67 -369 67q-170 0 -294 -94q-129 -98 -164 -266l-19 -88h677q37 0 57 -25q14 -19 14 -43q0 -9 -2 -20l-17 -79h-765l-25 -119q-10 -49 -10 -92q0 -105 62 -174
q84 -94 254 -94q169 0 397 67q38 0 59 -27q16 -20 16 -45q0 -10 -2 -20l-12 -60q-270 -90 -496 -90q-255 0 -378 139q-91 101 -91 256q0 65 16 140zM715 1606q8 36 40 62q33 26 72 26h92l-27 -125q-7 -36 -40 -62q-32 -26 -70 -26h-93z" />
    <glyph glyph-name="edotaccent" unicode="&#x117;" horiz-adv-x="1065" 
d="M917 606q7 52 7 93q0 66 -18 102q-42 81 -190 81q-150 0 -234 -80q-66 -64 -104 -196h539zM556 -12q-398 0 -398 350q0 81 21 180q113 530 573 530q249 0 321 -155q30 -65 30 -164q0 -91 -25 -210q-17 -81 -105 -81h-631q-8 -42 -8 -77q0 -207 258 -207q156 0 330 60
q22 5 38 5q38 0 38 -34q0 -7 -2 -17l-18 -84q-181 -96 -422 -96zM687 1229q8 36 40 62q33 26 72 26h92l-27 -125q-7 -36 -40 -62q-32 -26 -70 -26h-93z" />
    <glyph glyph-name="Eogonek" unicode="&#x118;" horiz-adv-x="1133" 
d="M216 897q53 252 243 396q182 139 437 139q226 0 457 -90l-13 -60q-8 -38 -41 -65t-71 -27q-200 67 -369 67q-170 0 -294 -94q-129 -98 -164 -266l-19 -88h677q37 0 57 -25q14 -19 14 -43q0 -9 -2 -20l-17 -79h-765l-25 -119q-10 -49 -10 -92q0 -105 62 -174
q84 -94 254 -94q169 0 397 67q38 0 59 -27q16 -20 16 -45q0 -10 -2 -20l-12 -60q-270 -90 -496 -90q-255 0 -378 139q-91 101 -91 256q0 65 16 140zM1020 62q-195 -143 -213 -225q-2 -8 -2 -15q0 -21 13 -37q19 -11 48 -11q57 0 156 44q13 3 21 3q21 0 21 -18q0 -5 -1 -10
l-10 -47q-136 -75 -229 -75q-42 0 -76 16q-62 42 -62 98q0 12 3 24q22 104 240 253h91z" />
    <glyph glyph-name="eogonek" unicode="&#x119;" horiz-adv-x="1065" 
d="M917 606q7 52 7 93q0 66 -18 102q-42 81 -190 81q-150 0 -234 -80q-66 -64 -104 -196h539zM556 -12q-398 0 -398 350q0 81 21 180q113 530 573 530q249 0 321 -155q30 -65 30 -164q0 -91 -25 -210q-17 -81 -105 -81h-631q-8 -42 -8 -77q0 -207 258 -207q156 0 330 60
q22 5 38 5q38 0 38 -34q0 -7 -2 -17l-18 -84q-181 -96 -422 -96zM899 53q-195 -143 -213 -225q-2 -8 -2 -15q0 -21 13 -37q19 -11 48 -11q57 0 156 44q13 3 21 3q21 0 21 -18q0 -5 -1 -10l-10 -47q-136 -75 -229 -75q-42 0 -76 16q-62 42 -62 98q0 12 3 24q22 104 240 253
h91z" />
    <glyph glyph-name="Ecaron" unicode="&#x11a;" horiz-adv-x="1133" 
d="M216 897q53 252 243 396q182 139 437 139q226 0 457 -90l-13 -60q-8 -38 -41 -65t-71 -27q-200 67 -369 67q-170 0 -294 -94q-129 -98 -164 -266l-19 -88h677q37 0 57 -25q14 -19 14 -43q0 -9 -2 -20l-17 -79h-765l-25 -119q-10 -49 -10 -92q0 -105 62 -174
q84 -94 254 -94q169 0 397 67q38 0 59 -27q16 -20 16 -45q0 -10 -2 -20l-12 -60q-270 -90 -496 -90q-255 0 -378 139q-91 101 -91 256q0 65 16 140zM1121 1790l36 -56l-339 -251h-73q-126 137 -233 251l61 56l244 -143z" />
    <glyph glyph-name="ecaron" unicode="&#x11b;" horiz-adv-x="1065" 
d="M917 606q7 52 7 93q0 66 -18 102q-42 81 -190 81q-150 0 -234 -80q-66 -64 -104 -196h539zM556 -12q-398 0 -398 350q0 81 21 180q113 530 573 530q249 0 321 -155q30 -65 30 -164q0 -91 -25 -210q-17 -81 -105 -81h-631q-8 -42 -8 -77q0 -207 258 -207q156 0 330 60
q22 5 38 5q38 0 38 -34q0 -7 -2 -17l-18 -84q-181 -96 -422 -96zM1093 1413l36 -56l-339 -251h-73q-126 137 -233 251l61 56l244 -143z" />
    <glyph glyph-name="Gcircumflex" unicode="&#x11c;" horiz-adv-x="1266" 
d="M1130 0h-96q-37 0 -57 26q-14 19 -14 42q0 10 2 20l21 101q-192 -201 -455 -201q-249 0 -349 139q-64 88 -64 227q0 77 20 169l80 374q53 252 243 396q182 139 437 139q226 0 457 -90l-13 -60q-8 -38 -41 -65t-71 -27q-200 67 -369 67q-170 0 -294 -94
q-129 -98 -164 -266l-80 -374q-15 -69 -15 -124q0 -236 261 -236q227 0 455 202l54 257q8 36 38 62q32 26 69 26h96zM844 1626l-304 -143l-37 56q155 114 339 251h73l233 -251l-60 -56z" />
    <glyph glyph-name="gcircumflex" unicode="&#x11d;" horiz-adv-x="1168" 
d="M981 518q17 80 17 141q0 70 -22 116q-53 107 -231 107t-275 -107q-80 -86 -116 -257q-18 -84 -18 -147q0 -67 20 -110q50 -107 227 -107q246 0 366 212zM909 181q-133 -193 -389 -193q-364 0 -364 340q0 85 22 190q113 530 603 530q397 0 397 -350q0 -81 -21 -180
l-80 -375q-112 -530 -601 -530q-242 0 -382 97l18 83q11 52 58 52q15 0 35 -6q149 -60 306 -60q178 0 276 107q78 86 114 257zM823 1249l-304 -143l-37 56q155 114 339 251h73l233 -251l-60 -56z" />
    <glyph glyph-name="Gbreve" unicode="&#x11e;" horiz-adv-x="1266" 
d="M1130 0h-96q-37 0 -57 26q-14 19 -14 42q0 10 2 20l21 101q-192 -201 -455 -201q-249 0 -349 139q-64 88 -64 227q0 77 20 169l80 374q53 252 243 396q182 139 437 139q226 0 457 -90l-13 -60q-8 -38 -41 -65t-71 -27q-200 67 -369 67q-170 0 -294 -94
q-129 -98 -164 -266l-80 -374q-15 -69 -15 -124q0 -236 261 -236q227 0 455 202l54 257q8 36 38 62q32 26 69 26h96zM1153 1790l36 -56q-158 -251 -379 -251q-222 0 -266 251l61 56q98 -187 235 -187t313 187z" />
    <glyph glyph-name="gbreve" unicode="&#x11f;" horiz-adv-x="1168" 
d="M981 518q17 80 17 141q0 70 -22 116q-53 107 -231 107t-275 -107q-80 -86 -116 -257q-18 -84 -18 -147q0 -67 20 -110q50 -107 227 -107q246 0 366 212zM909 181q-133 -193 -389 -193q-364 0 -364 340q0 85 22 190q113 530 603 530q397 0 397 -350q0 -81 -21 -180
l-80 -375q-112 -530 -601 -530q-242 0 -382 97l18 83q11 52 58 52q15 0 35 -6q149 -60 306 -60q178 0 276 107q78 86 114 257zM1132 1413l36 -56q-158 -251 -379 -251q-222 0 -266 251l61 56q98 -187 235 -187t313 187z" />
    <glyph glyph-name="Gdotaccent" unicode="&#x120;" horiz-adv-x="1266" 
d="M1130 0h-96q-37 0 -57 26q-14 19 -14 42q0 10 2 20l21 101q-192 -201 -455 -201q-249 0 -349 139q-64 88 -64 227q0 77 20 169l80 374q53 252 243 396q182 139 437 139q226 0 457 -90l-13 -60q-8 -38 -41 -65t-71 -27q-200 67 -369 67q-170 0 -294 -94
q-129 -98 -164 -266l-80 -374q-15 -69 -15 -124q0 -236 261 -236q227 0 455 202l54 257q8 36 38 62q32 26 69 26h96zM747 1606q8 36 40 62q33 26 72 26h92l-27 -125q-7 -36 -40 -62q-32 -26 -70 -26h-93z" />
    <glyph glyph-name="gdotaccent" unicode="&#x121;" horiz-adv-x="1168" 
d="M981 518q17 80 17 141q0 70 -22 116q-53 107 -231 107t-275 -107q-80 -86 -116 -257q-18 -84 -18 -147q0 -67 20 -110q50 -107 227 -107q246 0 366 212zM909 181q-133 -193 -389 -193q-364 0 -364 340q0 85 22 190q113 530 603 530q397 0 397 -350q0 -81 -21 -180
l-80 -375q-112 -530 -601 -530q-242 0 -382 97l18 83q11 52 58 52q15 0 35 -6q149 -60 306 -60q178 0 276 107q78 86 114 257zM726 1229q8 36 40 62q33 26 72 26h92l-27 -125q-7 -36 -40 -62q-32 -26 -70 -26h-93z" />
    <glyph glyph-name="uni0122" unicode="&#x122;" horiz-adv-x="1266" 
d="M1130 0h-96q-37 0 -57 26q-14 19 -14 42q0 10 2 20l21 101q-192 -201 -455 -201q-249 0 -349 139q-64 88 -64 227q0 77 20 169l80 374q53 252 243 396q182 139 437 139q226 0 457 -90l-13 -60q-8 -38 -41 -65t-71 -27q-200 67 -369 67q-170 0 -294 -94
q-129 -98 -164 -266l-80 -374q-15 -69 -15 -124q0 -236 261 -236q227 0 455 202l54 257q8 36 38 62q32 26 69 26h96zM376 -418q100 97 140 286q5 22 30 37q24 15 55 15h74l-4 -18q-33 -156 -207 -299q-26 -21 -45 -21h-43z" />
    <glyph glyph-name="uni0123" unicode="&#x123;" horiz-adv-x="1168" 
d="M981 518q17 80 17 141q0 70 -22 116q-53 107 -231 107t-275 -107q-80 -86 -116 -257q-18 -84 -18 -147q0 -67 20 -110q50 -107 227 -107q246 0 366 212zM909 181q-133 -193 -389 -193q-364 0 -364 340q0 85 22 190q113 530 603 530q397 0 397 -350q0 -81 -21 -180
l-80 -375q-112 -530 -601 -530q-242 0 -382 97l18 83q11 52 58 52q15 0 35 -6q149 -60 306 -60q178 0 276 107q78 86 114 257zM990 1565q-93 -112 -140 -333q-6 -26 -28 -43q-23 -18 -50 -18h-65l4 21q39 182 201 349q23 24 40 24h38z" />
    <glyph glyph-name="Hcircumflex" unicode="&#x124;" horiz-adv-x="1301" 
d="M298 88q-8 -36 -39 -62q-32 -26 -68 -26h-97l300 1413h97q36 0 57 -26q15 -19 15 -44q0 -9 -2 -18l-114 -535h668l114 535q7 36 39 62q31 26 67 26h97l-300 -1413h-97q-36 0 -56 26q-15 19 -15 43q0 9 2 19l113 534h-668zM879 1626l-304 -143l-37 56q155 114 339 251h73
l233 -251l-60 -56z" />
    <glyph glyph-name="hcircumflex" unicode="&#x125;" horiz-adv-x="1144" 
d="M1009 0h-88q-36 0 -56 26q-15 18 -15 43q0 9 2 19l125 590q7 34 7 62q0 142 -182 142q-246 0 -365 -211l-124 -583q-8 -37 -39 -62q-32 -26 -68 -26h-88l300 1413h88q36 0 57 -26q15 -19 15 -44q0 -9 -2 -18l-100 -470q134 193 389 193q305 0 305 -240q0 -49 -12 -107z
M829 1608l-304 -143l-37 56q155 114 339 251h73l233 -251l-60 -56z" />
    <glyph glyph-name="Hbar" unicode="&#x126;" horiz-adv-x="1301" 
d="M298 88q-8 -36 -39 -62q-32 -26 -68 -26h-97l300 1413h97q36 0 57 -26q15 -19 15 -44q0 -9 -2 -18l-114 -535h668l114 535q7 36 39 62q31 26 67 26h97l-300 -1413h-97q-36 0 -56 26q-15 19 -15 43q0 9 2 19l113 534h-668zM-144.299 978q-35.0996 0 -54.5996 26
q-10.3994 17 -10.3994 38q0 13 3.89941 27l14.2998 49h1262.29q36.4004 0 54.5996 -26q9.10059 -16 9.10059 -36q0 -13 -3.90039 -28l-13 -50h-1262.29z" />
    <glyph glyph-name="hbar" unicode="&#x127;" horiz-adv-x="1144" 
d="M1009 0h-88q-36 0 -56 26q-15 18 -15 43q0 9 2 19l125 590q7 34 7 62q0 142 -182 142q-246 0 -365 -211l-124 -583q-8 -37 -39 -62q-32 -26 -68 -26h-88l300 1413h88q36 0 57 -26q15 -19 15 -44q0 -9 -2 -18l-100 -470q134 193 389 193q305 0 305 -240q0 -49 -12 -107z
M-62 1103q-27 0 -42 26q-8 17 -8 38q0 13 3 27l11 49h971q28 0 42 -26q7 -16 7 -36q0 -13 -3 -28l-10 -50h-971z" />
    <glyph glyph-name="Itilde" unicode="&#x128;" horiz-adv-x="449" 
d="M592 1325q7 36 39 62q31 26 67 26h97l-281 -1325q-8 -36 -39 -62q-32 -26 -68 -26h-97zM975 1620q-113 -108 -212 -108q-58 0 -111 38q-71 50 -142 50q-70 0 -140 -50l-11 74q105 98 199 98q59 0 115 -39q68 -47 137 -47q77 0 154 58z" />
    <glyph glyph-name="itilde" unicode="&#x129;" horiz-adv-x="376" 
d="M522 948q7 37 39 62q31 26 67 26h88l-201 -948q-8 -37 -39 -62q-32 -26 -68 -26h-88zM981 1243q-113 -108 -212 -108q-58 0 -111 38q-71 50 -142 50q-70 0 -140 -50l-11 74q105 98 199 98q59 0 115 -39q68 -47 137 -47q77 0 154 58z" />
    <glyph glyph-name="Imacron" unicode="&#x12a;" horiz-adv-x="449" 
d="M584 1325q7 36 39 62q31 26 67 26h97l-281 -1325q-8 -36 -39 -62q-32 -26 -68 -26h-97zM400 1507q-27 0 -41 26q-8 17 -8 38q0 13 3 27l10 49h536q28 0 42 -26q8 -17 8 -37q0 -13 -3 -27l-11 -50h-536z" />
    <glyph glyph-name="imacron" unicode="&#x12b;" horiz-adv-x="376" 
d="M515 948q7 37 39 62q31 26 67 26h88l-201 -948q-8 -37 -39 -62q-32 -26 -68 -26h-88zM406 1130q-27 0 -41 26q-8 17 -8 38q0 13 3 27l10 49h536q28 0 42 -26q8 -17 8 -37q0 -13 -3 -27l-11 -50h-536z" />
    <glyph glyph-name="Ibreve" unicode="&#x12c;" horiz-adv-x="449" 
d="M606 1325q7 36 39 62q31 26 67 26h97l-281 -1325q-8 -36 -39 -62q-32 -26 -68 -26h-97zM991 1790l36 -56q-158 -251 -379 -251q-222 0 -266 251l61 56q98 -187 235 -187t313 187z" />
    <glyph glyph-name="ibreve" unicode="&#x12d;" horiz-adv-x="376" 
d="M536 948q7 37 39 62q31 26 67 26h88l-201 -948q-8 -37 -39 -62q-32 -26 -68 -26h-88zM997 1413l36 -56q-158 -251 -379 -251q-222 0 -266 251l61 56q98 -187 235 -187t313 187z" />
    <glyph glyph-name="Iogonek" unicode="&#x12e;" horiz-adv-x="449" 
d="M568 1325q7 36 39 62q31 26 67 26h97l-281 -1325q-8 -36 -39 -62q-32 -26 -68 -26h-97zM377 0q-195 -143 -213 -225q-2 -8 -2 -15q0 -21 13 -37q19 -11 48 -11q57 0 156 44q13 3 21 3q21 0 21 -18q0 -5 -1 -10l-10 -47q-136 -75 -229 -75q-42 0 -76 16q-62 42 -62 98
q0 12 3 24q22 104 240 253h91z" />
    <glyph glyph-name="iogonek" unicode="&#x12f;" horiz-adv-x="408" 
d="M519 948q7 37 39 62q31 26 67 26h88l-201 -948q-8 -37 -39 -62q-32 -26 -68 -26h-88zM599 1325q7 36 39 62q31 26 67 26h88l-26 -125q-8 -36 -39 -62q-32 -26 -68 -26h-88zM408 0q-195 -143 -213 -225q-2 -8 -2 -15q0 -21 13 -37q19 -11 48 -11q57 0 156 44q13 3 21 3
q21 0 21 -18q0 -5 -1 -10l-10 -47q-136 -75 -229 -75q-42 0 -76 16q-62 42 -62 98q0 12 3 24q22 104 240 253h91z" />
    <glyph glyph-name="Idotaccent" unicode="&#x130;" horiz-adv-x="449" 
d="M376 1325q7 36 39 62q31 26 67 26h97l-281 -1325q-8 -36 -39 -62q-32 -26 -68 -26h-97zM355 1606q8 36 40 62q33 26 72 26h92l-27 -125q-7 -36 -40 -62q-32 -26 -70 -26h-93z" />
    <glyph glyph-name="IJ" unicode="&#x132;" horiz-adv-x="1367" 
d="M376 1325q7 36 39 62q31 26 67 26h97l-281 -1325q-8 -36 -39 -62q-32 -26 -68 -26h-97zM1310 1325q7 36 38 62t68 26h96l-189 -890q-54 -253 -242 -396q-184 -139 -439 -139q-85 0 -182 16l16 76q8 37 39 63q32 26 69 26q54 -6 96 -6q170 0 294 94q129 97 165 266z" />
    <glyph glyph-name="ij" unicode="&#x133;" horiz-adv-x="843" 
d="M318 948q7 37 39 62q31 26 67 26h88l-201 -948q-8 -37 -39 -62q-32 -26 -68 -26h-88zM398 1325q7 36 39 62q31 26 67 26h88l-26 -125q-8 -36 -39 -62q-32 -26 -68 -26h-88zM698 -22q-39 -187 -145 -274q-94 -78 -264 -91q-34 0 -54 24q-14 18 -14 41q0 9 2 18l17 80
q126 0 185 37q72 44 97 165l207 970q7 37 39 62q31 26 67 26h88zM809 1325q7 36 39 62q31 26 67 26h88l-26 -125q-8 -36 -39 -62t-68 -26h-88z" />
    <glyph glyph-name="Jcircumflex" unicode="&#x134;" horiz-adv-x="918" 
d="M861 1325q7 36 38 62t68 26h96l-189 -890q-54 -253 -242 -396q-184 -139 -439 -139q-85 0 -182 16l16 76q8 37 39 63q32 26 69 26q54 -6 96 -6q170 0 294 94q129 97 165 266zM923 1626l-304 -143l-37 56q155 114 339 251h73l233 -251l-60 -56z" />
    <glyph glyph-name="jcircumflex" unicode="&#x135;" horiz-adv-x="435" 
d="M305 -22q-39 -187 -145 -274q-94 -78 -264 -91q-34 0 -54 24q-14 18 -14 41q0 9 2 18l17 80q126 0 185 37q72 44 97 165l207 970q7 37 39 62q31 26 67 26h88zM468 1249l-304 -143l-37 56q155 114 339 251h73l233 -251l-60 -56z" />
    <glyph glyph-name="uni0136" unicode="&#x136;" horiz-adv-x="1193" 
d="M749 790q101 1 139 23q45 26 95 126l204 409q30 65 114 65h95l-267 -550q-39 -81 -98 -114q59 -46 69 -217l32 -532h-95q-84 0 -87 64l-33 457q-6 68 -36 87q-24 14 -106 14h-364l-113 -534q-8 -36 -39 -62q-32 -26 -68 -26h-97l300 1413h97q36 0 57 -26q15 -19 15 -44
q0 -9 -2 -18l-114 -535h302zM410 -418q100 97 140 286q5 22 30 37q24 15 55 15h74l-4 -18q-33 -156 -207 -299q-26 -21 -45 -21h-43z" />
    <glyph glyph-name="uni0137" unicode="&#x137;" horiz-adv-x="1036" 
d="M420 1413h88q36 0 57 -26q15 -19 15 -44q0 -9 -2 -18l-154 -723h258q90 0 124 56l171 309q37 69 125 69h88l-200 -363q-50 -91 -95 -118q51 -43 62 -128l54 -427h-88q-88 0 -96 63l-40 314q-7 57 -81 57h-318l-73 -346q-8 -37 -39 -62q-32 -26 -68 -26h-88zM363 -418
q100 97 140 286q5 22 30 37q24 15 55 15h74l-4 -18q-33 -156 -207 -299q-26 -21 -45 -21h-43z" />
    <glyph glyph-name="kgreenlandic" unicode="&#x138;" horiz-adv-x="1036" 
d="M420 1413h88q36 0 57 -26q15 -19 15 -44q0 -9 -2 -18l-154 -723h258q90 0 124 56l171 309q37 69 125 69h88l-200 -363q-50 -91 -95 -118q51 -43 62 -128l54 -427h-88q-88 0 -96 63l-40 314q-7 57 -81 57h-318l-73 -346q-8 -37 -39 -62q-32 -26 -68 -26h-88z" />
    <glyph glyph-name="Lacute" unicode="&#x139;" horiz-adv-x="1168" 
d="M372 1420h92q39 0 60 -27q15 -20 15 -45q0 -10 -2 -20l-171 -805q-10 -49 -10 -92q0 -105 62 -174q84 -94 255 -94q167 0 396 67q38 0 60 -27q15 -20 15 -45q0 -10 -2 -20l-12 -60q-270 -90 -495 -90q-256 0 -379 139q-91 101 -91 256q0 65 16 140zM734 1483l-36 56
l339 251q30 13 53 13q62 0 62 -103q0 -10 -1 -22z" />
    <glyph glyph-name="lacute" unicode="&#x13a;" horiz-adv-x="532" 
d="M416 1413h88q36 0 57 -26q15 -19 15 -44q0 -9 -2 -18l-208 -978q-16 -73 -16 -115q0 -53 24 -61q25 -8 58 -8q23 0 50 4q73 0 73 -51q0 -8 -2 -18l-18 -85q-81 -18 -159 -18q-24 0 -48 2q-100 7 -140 79q-20 34 -20 99q0 69 22 172zM396 1452l-36 56l339 251q30 13 53 13
q62 0 62 -103q0 -10 -1 -22z" />
    <glyph glyph-name="uni013B" unicode="&#x13b;" horiz-adv-x="1168" 
d="M372 1420h92q39 0 60 -27q15 -20 15 -45q0 -10 -2 -20l-171 -805q-10 -49 -10 -92q0 -105 62 -174q84 -94 255 -94q167 0 396 67q38 0 60 -27q15 -20 15 -45q0 -10 -2 -20l-12 -60q-270 -90 -495 -90q-256 0 -379 139q-91 101 -91 256q0 65 16 140zM389 -418
q100 97 140 286q5 22 30 37q24 15 55 15h74l-4 -18q-33 -156 -207 -299q-26 -21 -45 -21h-43z" />
    <glyph glyph-name="uni013C" unicode="&#x13c;" horiz-adv-x="532" 
d="M413 1413h88q36 0 57 -26q15 -19 15 -44q0 -9 -2 -18l-208 -978q-16 -73 -16 -115q0 -53 24 -61q25 -8 58 -8q23 0 50 4q73 0 73 -51q0 -8 -2 -18l-18 -85q-81 -18 -159 -18q-24 0 -48 2q-100 7 -140 79q-20 34 -20 99q0 69 22 172zM118 -418q100 97 140 286q5 22 30 37
q24 15 55 15h74l-4 -18q-33 -156 -207 -299q-26 -21 -45 -21h-43z" />
    <glyph glyph-name="Lcaron" unicode="&#x13d;" horiz-adv-x="1168" 
d="M372 1420h92q39 0 60 -27q15 -20 15 -45q0 -10 -2 -20l-171 -805q-10 -49 -10 -92q0 -105 62 -174q84 -94 255 -94q167 0 396 67q38 0 60 -27q15 -20 15 -45q0 -10 -2 -20l-12 -60q-270 -90 -495 -90q-256 0 -379 139q-91 101 -91 256q0 65 16 140zM1130 1018
q93 113 140 333q6 26 29 44q22 18 49 18h65l-4 -22q-39 -181 -200 -348q-24 -25 -41 -25h-38z" />
    <glyph glyph-name="lcaron" unicode="&#x13e;" horiz-adv-x="931" 
d="M413 1413h88q36 0 57 -26q15 -19 15 -44q0 -9 -2 -18l-208 -978q-16 -73 -16 -115q0 -53 24 -61q25 -8 58 -8q23 0 50 4q73 0 73 -51q0 -8 -2 -18l-18 -85q-81 -18 -159 -18q-24 0 -48 2q-100 7 -140 79q-20 34 -20 99q0 69 22 172zM798 1018q93 113 140 333q6 26 29 44
q22 18 49 18h65l-4 -22q-39 -181 -200 -348q-24 -25 -41 -25h-38z" />
    <glyph glyph-name="Ldot" unicode="&#x13f;" horiz-adv-x="1168" 
d="M372 1420h92q39 0 60 -27q15 -20 15 -45q0 -10 -2 -20l-171 -805q-10 -49 -10 -92q0 -105 62 -174q84 -94 255 -94q167 0 396 67q38 0 60 -27q15 -20 15 -45q0 -10 -2 -20l-12 -60q-270 -90 -495 -90q-256 0 -379 139q-91 101 -91 256q0 65 16 140zM926.695 626.982
q6.7998 31.4482 34.8486 52.6982q27.1992 22.0986 59.498 22.0986h79.0479l-22.0996 -105.396q-6.79883 -31.4492 -34.8486 -53.5488q-27.1992 -21.249 -60.3486 -21.249h-78.1973z" />
    <glyph glyph-name="ldot" unicode="&#x140;" horiz-adv-x="689" 
d="M413 1413h88q36 0 57 -26q15 -19 15 -44q0 -9 -2 -18l-208 -978q-16 -73 -16 -115q0 -53 24 -61q25 -8 58 -8q23 0 50 4q73 0 73 -51q0 -8 -2 -18l-18 -85q-81 -18 -159 -18q-24 0 -48 2q-100 7 -140 79q-20 34 -20 99q0 69 22 172zM547.695 626.982
q6.7998 31.4482 34.8486 52.6982q27.1992 22.0986 59.498 22.0986h79.0479l-22.0996 -105.396q-6.79883 -31.4492 -34.8486 -53.5488q-27.1992 -21.249 -60.3486 -21.249h-78.1973z" />
    <glyph glyph-name="Lslash" unicode="&#x141;" horiz-adv-x="1168" 
d="M372 1420h92q39 0 60 -27q15 -20 15 -45q0 -10 -2 -20l-171 -805q-10 -49 -10 -92q0 -105 62 -174q84 -94 255 -94q167 0 396 67q38 0 60 -27q15 -20 15 -45q0 -10 -2 -20l-12 -60q-270 -90 -495 -90q-256 0 -379 139q-91 101 -91 256q0 65 16 140zM-11 553
q-11 -4 -22 -4q-15 0 -30 9q-26 18 -34 51l-10 45l972 393q12 5 23 5q16 0 30 -9q24 -18 32 -51l10 -46z" />
    <glyph glyph-name="lslash" unicode="&#x142;" horiz-adv-x="532" 
d="M724 1413h88q36 0 57 -26q15 -19 15 -44q0 -9 -2 -18l-208 -978q-16 -73 -16 -115q0 -53 24 -61q25 -8 58 -8q23 0 50 4q73 0 73 -51q0 -8 -2 -18l-18 -85q-81 -18 -159 -18q-24 0 -48 2q-100 7 -140 79q-20 34 -20 99q0 69 22 172zM274 447q-12 -5 -23 -5q-15 0 -29 8
q-27 16 -36 49l-13 44l962 434q13 6 25 6q14 0 28 -8q25 -16 35 -49l12 -45z" />
    <glyph glyph-name="Nacute" unicode="&#x143;" horiz-adv-x="1397" 
d="M375 1328q8 38 41 65t71 27h190l403 -1248l265 1248h185l-282 -1328q-9 -38 -41 -65q-33 -27 -71 -27h-190l-403 1248l-245 -1156q-9 -38 -41 -65q-33 -27 -72 -27h-92zM803 1483l-36 56l339 251q30 13 53 13q62 0 62 -103q0 -10 -1 -22z" />
    <glyph glyph-name="nacute" unicode="&#x144;" horiz-adv-x="1134" 
d="M1002 0h-88q-36 0 -56 26q-15 18 -15 43q0 9 2 19l125 590q7 34 7 62q0 142 -182 142q-246 0 -366 -212l-123 -582q-8 -37 -39 -62q-32 -26 -68 -26h-88l220 1036h88q36 0 57 -26q15 -19 15 -44q0 -8 -2 -18l-20 -93q134 193 389 193q305 0 305 -240q0 -49 -12 -107z
M699 1106l-36 56l339 251q30 13 53 13q62 0 62 -103q0 -10 -1 -22z" />
    <glyph glyph-name="uni0145" unicode="&#x145;" horiz-adv-x="1397" 
d="M375 1328q8 38 41 65t71 27h190l403 -1248l265 1248h185l-282 -1328q-9 -38 -41 -65q-33 -27 -71 -27h-190l-403 1248l-245 -1156q-9 -38 -41 -65q-33 -27 -72 -27h-92zM458 -418q100 97 140 286q5 22 30 37q24 15 55 15h74l-4 -18q-33 -156 -207 -299q-26 -21 -45 -21
h-43z" />
    <glyph glyph-name="uni0146" unicode="&#x146;" horiz-adv-x="1134" 
d="M1002 0h-88q-36 0 -56 26q-15 18 -15 43q0 9 2 19l125 590q7 34 7 62q0 142 -182 142q-246 0 -366 -212l-123 -582q-8 -37 -39 -62q-32 -26 -68 -26h-88l220 1036h88q36 0 57 -26q15 -19 15 -44q0 -8 -2 -18l-20 -93q134 193 389 193q305 0 305 -240q0 -49 -12 -107z
M354 -418q100 97 140 286q5 22 30 37q24 15 55 15h74l-4 -18q-33 -156 -207 -299q-26 -21 -45 -21h-43z" />
    <glyph glyph-name="Ncaron" unicode="&#x147;" horiz-adv-x="1397" 
d="M375 1328q8 38 41 65t71 27h190l403 -1248l265 1248h185l-282 -1328q-9 -38 -41 -65q-33 -27 -71 -27h-190l-403 1248l-245 -1156q-9 -38 -41 -65q-33 -27 -72 -27h-92zM1235 1790l36 -56l-339 -251h-73q-126 137 -233 251l61 56l244 -143z" />
    <glyph glyph-name="ncaron" unicode="&#x148;" horiz-adv-x="1134" 
d="M1002 0h-88q-36 0 -56 26q-15 18 -15 43q0 9 2 19l125 590q7 34 7 62q0 142 -182 142q-246 0 -366 -212l-123 -582q-8 -37 -39 -62q-32 -26 -68 -26h-88l220 1036h88q36 0 57 -26q15 -19 15 -44q0 -8 -2 -18l-20 -93q134 193 389 193q305 0 305 -240q0 -49 -12 -107z
M1131 1413l36 -56l-339 -251h-73q-126 137 -233 251l61 56l244 -143z" />
    <glyph glyph-name="napostrophe" unicode="&#x149;" horiz-adv-x="1222" 
d="M349 1171q93 112 140 333q5 26 28 43q23 18 50 18h65l-5 -21q-38 -182 -200 -349q-23 -24 -40 -24h-38zM1090 0h-88q-36 0 -56 26q-15 18 -15 43q0 9 2 19l125 590q7 34 7 62q0 142 -182 142q-246 0 -366 -212l-123 -582q-8 -37 -39 -62q-32 -26 -68 -26h-88l220 1036h88
q36 0 57 -26q15 -19 15 -44q0 -8 -2 -18l-20 -93q134 193 389 193q305 0 305 -240q0 -49 -12 -107z" />
    <glyph glyph-name="Eng" unicode="&#x14a;" horiz-adv-x="1397" 
d="M1042 0h-1l-498 1248l-245 -1156q-9 -38 -41 -65q-33 -27 -72 -27h-92l282 1328q8 38 41 65t71 27h190l433 -1106l235 1106h185l-282 -1328q-3 -12 -8 -22q-66 -226 -270 -437q-33 -35 -57 -35h-54q117 142 183 402z" />
    <glyph glyph-name="eng" unicode="&#x14b;" horiz-adv-x="1134" 
d="M844 85l126 593q7 34 7 62q0 142 -182 142q-246 0 -366 -212l-123 -582q-8 -37 -39 -62q-32 -26 -68 -26h-88l220 1036h88q36 0 57 -26q15 -19 15 -44q0 -8 -2 -18l-20 -93q134 193 389 193q305 0 305 -240q0 -49 -12 -107l-122 -576q-55 -259 -286 -498q-34 -35 -58 -35
h-54q133 161 208 476q2 9 5 17z" />
    <glyph glyph-name="Omacron" unicode="&#x14c;" horiz-adv-x="1324" 
d="M1282 523q-54 -253 -243 -396q-183 -139 -439 -139q-255 0 -378 139q-91 101 -91 256q0 65 16 140l80 374q53 252 243 396q182 139 437 139q256 0 380 -139q91 -102 91 -258q0 -64 -16 -138zM576 1163q-129 -98 -164 -266l-80 -374q-10 -49 -10 -92q0 -105 62 -174
q84 -94 254 -94q171 0 295 94q128 97 164 266l80 374q10 48 10 91q0 105 -62 175q-84 94 -255 94q-170 0 -294 -94zM609 1507q-27 0 -41 26q-8 17 -8 38q0 13 3 27l10 49h536q28 0 42 -26q8 -17 8 -37q0 -13 -3 -27l-11 -50h-536z" />
    <glyph glyph-name="omacron" unicode="&#x14d;" horiz-adv-x="1151" 
d="M745 881q-178 0 -275 -106q-80 -86 -116 -257q-17 -79 -17 -140q0 -71 23 -118q53 -106 231 -106t275 106q79 87 115 258q17 80 17 141q0 70 -22 116q-53 106 -231 106zM781 1048q397 0 397 -350q0 -81 -21 -180q-113 -530 -602 -530q-398 0 -398 350q0 81 21 180
q113 530 603 530zM563 1130q-27 0 -41 26q-8 17 -8 38q0 13 3 27l10 49h536q28 0 42 -26q8 -17 8 -37q0 -13 -3 -27l-11 -50h-536z" />
    <glyph glyph-name="Obreve" unicode="&#x14e;" horiz-adv-x="1324" 
d="M1282 523q-54 -253 -243 -396q-183 -139 -439 -139q-255 0 -378 139q-91 101 -91 256q0 65 16 140l80 374q53 252 243 396q182 139 437 139q256 0 380 -139q91 -102 91 -258q0 -64 -16 -138zM576 1163q-129 -98 -164 -266l-80 -374q-10 -49 -10 -92q0 -105 62 -174
q84 -94 254 -94q171 0 295 94q128 97 164 266l80 374q10 48 10 91q0 105 -62 175q-84 94 -255 94q-170 0 -294 -94zM1178 1790l36 -56q-158 -251 -379 -251q-222 0 -266 251l61 56q98 -187 235 -187t313 187z" />
    <glyph glyph-name="obreve" unicode="&#x14f;" horiz-adv-x="1151" 
d="M745 881q-178 0 -275 -106q-80 -86 -116 -257q-17 -79 -17 -140q0 -71 23 -118q53 -106 231 -106t275 106q79 87 115 258q17 80 17 141q0 70 -22 116q-53 106 -231 106zM781 1048q397 0 397 -350q0 -81 -21 -180q-113 -530 -602 -530q-398 0 -398 350q0 81 21 180
q113 530 603 530zM1132 1413l36 -56q-158 -251 -379 -251q-222 0 -266 251l61 56q98 -187 235 -187t313 187z" />
    <glyph glyph-name="Ohungarumlaut" unicode="&#x150;" horiz-adv-x="1324" 
d="M1282 523q-54 -253 -243 -396q-183 -139 -439 -139q-255 0 -378 139q-91 101 -91 256q0 65 16 140l80 374q53 252 243 396q182 139 437 139q256 0 380 -139q91 -102 91 -258q0 -64 -16 -138zM576 1163q-129 -98 -164 -266l-80 -374q-10 -49 -10 -92q0 -105 62 -174
q84 -94 254 -94q171 0 295 94q128 97 164 266l80 374q10 48 10 91q0 105 -62 175q-84 94 -255 94q-170 0 -294 -94zM464 1483l-36 56l339 251q30 13 53 13q62 0 62 -103q0 -10 -1 -22zM887 1483l-36 56l339 251q30 13 53 13q62 0 62 -103q0 -10 -1 -22z" />
    <glyph glyph-name="ohungarumlaut" unicode="&#x151;" horiz-adv-x="1151" 
d="M745 881q-178 0 -275 -106q-80 -86 -116 -257q-17 -79 -17 -140q0 -71 23 -118q53 -106 231 -106t275 106q79 87 115 258q17 80 17 141q0 70 -22 116q-53 106 -231 106zM781 1048q397 0 397 -350q0 -81 -21 -180q-113 -530 -602 -530q-398 0 -398 350q0 81 21 180
q113 530 603 530zM418 1106l-36 56l339 251q30 13 53 13q62 0 62 -103q0 -10 -1 -22zM841 1106l-36 56l339 251q30 13 53 13q62 0 62 -103q0 -10 -1 -22z" />
    <glyph glyph-name="OE" unicode="&#x152;" horiz-adv-x="2094" 
d="M1121 201q-37 -40 -82 -74q-183 -139 -439 -139q-255 0 -378 139q-91 101 -91 256q0 65 16 140l80 374q53 252 243 396q182 139 437 139q256 0 380 -139q31 -34 50 -74q38 40 83 74q182 139 437 139q226 0 457 -90l-13 -60q-8 -38 -41 -65t-71 -27q-200 67 -369 67
q-170 0 -294 -94q-129 -98 -164 -266l-19 -88h677q37 0 57 -25q14 -19 14 -43q0 -9 -2 -20l-17 -79h-765l-25 -119q-10 -49 -10 -92q0 -105 62 -174q84 -94 254 -94q169 0 397 67q38 0 59 -27q16 -20 16 -45q0 -10 -2 -20l-12 -60q-270 -90 -496 -90q-255 0 -378 139
q-31 34 -51 74zM1177 897q10 48 10 91q0 105 -62 175q-84 94 -255 94q-170 0 -294 -94q-129 -98 -164 -266l-80 -374q-10 -49 -10 -92q0 -105 62 -174q84 -94 254 -94q171 0 295 94q128 97 164 266z" />
    <glyph glyph-name="oe" unicode="&#x153;" horiz-adv-x="1863" 
d="M1715 606q7 52 7 93q0 66 -18 102q-42 81 -190 81q-150 0 -234 -80q-66 -64 -104 -196h539zM991 161q-157 -173 -436 -173q-398 0 -398 350q0 81 21 180q113 530 603 530q276 0 360 -169q149 169 409 169q249 0 321 -155q30 -65 30 -164q0 -91 -25 -210q-17 -81 -105 -81
h-631q-8 -42 -8 -77q0 -207 258 -207q156 0 330 60q22 5 38 5q38 0 38 -34q0 -7 -2 -17l-18 -84q-181 -96 -422 -96q-280 0 -363 173zM966 456q4 30 11 62q7 33 15 63q6 43 6 78q0 70 -22 116q-53 106 -231 106t-275 -106q-80 -86 -116 -257q-17 -79 -17 -140q0 -71 23 -118
q53 -106 231 -106t275 106q64 70 100 196z" />
    <glyph glyph-name="Racute" unicode="&#x154;" horiz-adv-x="1206" 
d="M432 753h261q383 0 442 276q5 24 5 46q0 80 -68 129q-76 53 -210 53h-5q-131 0 -228 -53q-114 -61 -138 -175zM1075 376l90 -376h-120q-72 0 -87 64l-74 312l-25 107q-18 102 -177 102h-286l-124 -585h-185l219 1029q41 193 223 304q163 99 367 99h4q206 -1 326 -100
q104 -85 104 -218q0 -40 -10 -85q-64 -300 -340 -397q53 -38 87 -222zM768 1483l-36 56l339 251q30 13 53 13q62 0 62 -103q0 -10 -1 -22z" />
    <glyph glyph-name="racute" unicode="&#x155;" horiz-adv-x="840" 
d="M331 1036h88q36 0 57 -26q15 -19 15 -44q0 -9 -2 -18l-20 -93q134 193 336 193q96 0 193 -23l-18 -85q-15 -68 -100 -68q-59 9 -138 9q-193 0 -313 -211l-123 -582q-8 -37 -40 -63q-31 -25 -67 -25h-88zM588 1106l-36 56l339 251q30 13 53 13q62 0 62 -103q0 -10 -1 -22z
" />
    <glyph glyph-name="uni0156" unicode="&#x156;" horiz-adv-x="1206" 
d="M432 753h261q383 0 442 276q5 24 5 46q0 80 -68 129q-76 53 -210 53h-5q-131 0 -228 -53q-114 -61 -138 -175zM1075 376l90 -376h-120q-72 0 -87 64l-74 312l-25 107q-18 102 -177 102h-286l-124 -585h-185l219 1029q41 193 223 304q163 99 367 99h4q206 -1 326 -100
q104 -85 104 -218q0 -40 -10 -85q-64 -300 -340 -397q53 -38 87 -222zM423 -418q100 97 140 286q5 22 30 37q24 15 55 15h74l-4 -18q-33 -156 -207 -299q-26 -21 -45 -21h-43z" />
    <glyph glyph-name="uni0157" unicode="&#x157;" horiz-adv-x="840" 
d="M331 1036h88q36 0 57 -26q15 -19 15 -44q0 -9 -2 -18l-20 -93q134 193 336 193q96 0 193 -23l-18 -85q-15 -68 -100 -68q-59 9 -138 9q-193 0 -313 -211l-123 -582q-8 -37 -40 -63q-31 -25 -67 -25h-88zM243 -418q100 97 140 286q5 22 30 37q24 15 55 15h74l-4 -18
q-33 -156 -207 -299q-26 -21 -45 -21h-43z" />
    <glyph glyph-name="Rcaron" unicode="&#x158;" horiz-adv-x="1206" 
d="M432 753h261q383 0 442 276q5 24 5 46q0 80 -68 129q-76 53 -210 53h-5q-131 0 -228 -53q-114 -61 -138 -175zM1075 376l90 -376h-120q-72 0 -87 64l-74 312l-25 107q-18 102 -177 102h-286l-124 -585h-185l219 1029q41 193 223 304q163 99 367 99h4q206 -1 326 -100
q104 -85 104 -218q0 -40 -10 -85q-64 -300 -340 -397q53 -38 87 -222zM1201 1790l36 -56l-339 -251h-73q-126 137 -233 251l61 56l244 -143z" />
    <glyph glyph-name="rcaron" unicode="&#x159;" horiz-adv-x="840" 
d="M331 1036h88q36 0 57 -26q15 -19 15 -44q0 -9 -2 -18l-20 -93q134 193 336 193q96 0 193 -23l-18 -85q-15 -68 -100 -68q-59 9 -138 9q-193 0 -313 -211l-123 -582q-8 -37 -40 -63q-31 -25 -67 -25h-88zM1020 1413l36 -56l-339 -251h-73q-126 137 -233 251l61 56
l244 -143z" />
    <glyph glyph-name="Sacute" unicode="&#x15a;" horiz-adv-x="1140" 
d="M807 220q116 65 139 176q6 26 6 49q0 97 -97 140q-53 24 -274 59q-194 30 -269 90q-82 65 -82 187q0 44 11 96q42 195 211 309q155 106 354 106q225 0 456 -90l-13 -60q-8 -38 -40 -65q-33 -27 -71 -27q-201 67 -369 67q-117 0 -213 -60q-106 -67 -130 -180
q-5 -21 -5 -41q0 -89 101 -128q41 -16 280 -53q192 -30 267 -97q77 -66 77 -186q0 -47 -12 -103l-3 -12q-45 -193 -221 -306q-160 -103 -360 -103q-225 0 -455 90l12 60q8 38 41 65t71 27q201 -67 369 -67q119 0 219 57zM678 1483l-36 56l339 251q30 13 53 13q62 0 62 -103
q0 -10 -1 -22z" />
    <glyph glyph-name="sacute" unicode="&#x15b;" horiz-adv-x="907" 
d="M989 951l-18 -83q-11 -52 -58 -52q-15 0 -34 6q-151 59 -281 59q-86 0 -144 -45q-54 -40 -66 -98q-2 -11 -2 -20q0 -56 73 -81q2 -1 195 -39q132 -25 185 -79q52 -51 52 -137q0 -35 -9 -76l-2 -9q-29 -126 -140 -213q-123 -96 -296 -96q-217 0 -356 96l17 83q12 52 60 52
q15 0 33 -5q151 -60 282 -60q86 0 150 45q59 41 71 98q3 14 3 27q0 61 -69 89q-25 10 -193 42q-132 25 -186 73q-55 50 -55 137q0 33 8 73q27 127 133 213q119 97 292 97q216 0 355 -97zM577 1106l-36 56l339 251q30 13 53 13q62 0 62 -103q0 -10 -1 -22z" />
    <glyph glyph-name="Scircumflex" unicode="&#x15c;" horiz-adv-x="1140" 
d="M807 220q116 65 139 176q6 26 6 49q0 97 -97 140q-53 24 -274 59q-194 30 -269 90q-82 65 -82 187q0 44 11 96q42 195 211 309q155 106 354 106q225 0 456 -90l-13 -60q-8 -38 -40 -65q-33 -27 -71 -27q-201 67 -369 67q-117 0 -213 -60q-106 -67 -130 -180
q-5 -21 -5 -41q0 -89 101 -128q41 -16 280 -53q192 -30 267 -97q77 -66 77 -186q0 -47 -12 -103l-3 -12q-45 -193 -221 -306q-160 -103 -360 -103q-225 0 -455 90l12 60q8 38 41 65t71 27q201 -67 369 -67q119 0 219 57zM802 1626l-304 -143l-37 56q155 114 339 251h73
l233 -251l-60 -56z" />
    <glyph glyph-name="scircumflex" unicode="&#x15d;" horiz-adv-x="907" 
d="M989 951l-18 -83q-11 -52 -58 -52q-15 0 -34 6q-151 59 -281 59q-86 0 -144 -45q-54 -40 -66 -98q-2 -11 -2 -20q0 -56 73 -81q2 -1 195 -39q132 -25 185 -79q52 -51 52 -137q0 -35 -9 -76l-2 -9q-29 -126 -140 -213q-123 -96 -296 -96q-217 0 -356 96l17 83q12 52 60 52
q15 0 33 -5q151 -60 282 -60q86 0 150 45q59 41 71 98q3 14 3 27q0 61 -69 89q-25 10 -193 42q-132 25 -186 73q-55 50 -55 137q0 33 8 73q27 127 133 213q119 97 292 97q216 0 355 -97zM700 1249l-304 -143l-37 56q155 114 339 251h73l233 -251l-60 -56z" />
    <glyph glyph-name="Scedilla" unicode="&#x15e;" horiz-adv-x="1140" 
d="M508 -11q-205 8 -413 89l12 60q8 38 41 65t71 27q201 -67 369 -67q119 0 219 57q116 65 139 176q6 26 6 49q0 97 -97 140q-53 24 -274 59q-194 30 -269 90q-82 65 -82 187q0 44 11 96q42 195 211 309q155 106 354 106q225 0 456 -90l-13 -60q-8 -38 -40 -65
q-33 -27 -71 -27q-201 67 -369 67q-117 0 -213 -60q-106 -67 -130 -180q-5 -21 -5 -41q0 -89 101 -128q41 -16 280 -53q192 -30 267 -97q77 -66 77 -186q0 -47 -12 -103l-3 -12q-45 -193 -221 -306q-137 -88 -304 -101l-40 -46q116 -64 116 -147q0 -12 -3 -25
q-12 -52 -67 -112q-65 -50 -141 -50q-87 0 -188 68l5 51l1 4q6 27 31 29h4q7 0 17 -2q87 -38 142 -38q41 0 64 21q11 16 14 31q1 7 1 13q0 62 -130 102z" />
    <glyph glyph-name="scedilla" unicode="&#x15f;" horiz-adv-x="907" 
d="M406 -11q-192 8 -318 95l17 83q12 52 60 52q15 0 33 -5q151 -60 282 -60q86 0 150 45q59 41 71 98q3 14 3 27q0 61 -69 89q-25 10 -193 42q-132 25 -186 73q-55 50 -55 137q0 33 8 73q27 127 133 213q119 97 292 97q216 0 355 -97l-18 -83q-11 -52 -58 -52q-15 0 -34 6
q-151 59 -281 59q-86 0 -144 -45q-54 -40 -66 -98q-2 -11 -2 -20q0 -56 73 -81q2 -1 195 -39q132 -25 185 -79q52 -51 52 -137q0 -35 -9 -76l-2 -9q-29 -126 -140 -213q-101 -79 -235 -93l-41 -47q116 -64 116 -147q0 -12 -3 -25q-12 -52 -67 -112q-65 -50 -141 -50
q-87 0 -188 68l5 51l1 4q6 27 31 29h4q7 0 17 -2q87 -38 142 -38q41 0 64 21q11 16 14 31q1 7 1 13q0 62 -130 102z" />
    <glyph glyph-name="Scaron" unicode="&#x160;" horiz-adv-x="1140" 
d="M807 220q116 65 139 176q6 26 6 49q0 97 -97 140q-53 24 -274 59q-194 30 -269 90q-82 65 -82 187q0 44 11 96q42 195 211 309q155 106 354 106q225 0 456 -90l-13 -60q-8 -38 -40 -65q-33 -27 -71 -27q-201 67 -369 67q-117 0 -213 -60q-106 -67 -130 -180
q-5 -21 -5 -41q0 -89 101 -128q41 -16 280 -53q192 -30 267 -97q77 -66 77 -186q0 -47 -12 -103l-3 -12q-45 -193 -221 -306q-160 -103 -360 -103q-225 0 -455 90l12 60q8 38 41 65t71 27q201 -67 369 -67q119 0 219 57zM1111 1790l36 -56l-339 -251h-73q-126 137 -233 251
l61 56l244 -143z" />
    <glyph glyph-name="scaron" unicode="&#x161;" horiz-adv-x="907" 
d="M989 951l-18 -83q-11 -52 -58 -52q-15 0 -34 6q-151 59 -281 59q-86 0 -144 -45q-54 -40 -66 -98q-2 -11 -2 -20q0 -56 73 -81q2 -1 195 -39q132 -25 185 -79q52 -51 52 -137q0 -35 -9 -76l-2 -9q-29 -126 -140 -213q-123 -96 -296 -96q-217 0 -356 96l17 83q12 52 60 52
q15 0 33 -5q151 -60 282 -60q86 0 150 45q59 41 71 98q3 14 3 27q0 61 -69 89q-25 10 -193 42q-132 25 -186 73q-55 50 -55 137q0 33 8 73q27 127 133 213q119 97 292 97q216 0 355 -97zM1009 1413l36 -56l-339 -251h-73q-126 137 -233 251l61 56l244 -143z" />
    <glyph glyph-name="uni0162" unicode="&#x162;" horiz-adv-x="976" 
d="M361 1245q-36 0 -57 26q-15 18 -15 43q0 9 2 19l17 80h919q36 0 57 -26q15 -19 15 -44q0 -9 -2 -18l-17 -80h-411l-246 -1157q-8 -36 -39 -62q-32 -26 -68 -26h-97l265 1245h-323zM518 1l-50 -58q116 -64 116 -147q0 -12 -3 -25q-12 -52 -67 -112q-65 -50 -141 -50
q-87 0 -188 68l5 51l1 4q6 27 31 29h4q7 0 17 -2q87 -38 142 -38q41 0 64 21q11 16 14 31q1 7 1 13q0 62 -130 102l85 113h99z" />
    <glyph glyph-name="uni0163" unicode="&#x163;" horiz-adv-x="813" 
d="M305 868q-36 0 -56 26q-15 18 -15 43q0 9 2 19l17 80h145l39 183q8 37 39 62q32 26 68 26h88l-58 -271h329q36 0 57 -26q15 -19 15 -44q0 -9 -2 -18l-18 -80h-417l-109 -513q-8 -39 -8 -70q0 -65 35 -95q45 -36 171 -36q53 0 115 9q72 0 72 -49q0 -9 -2 -19l-18 -85
q-106 -22 -203 -22q-211 0 -290 74q-62 58 -62 171q0 55 14 122l109 513h-57zM628 2l-50 -58q116 -64 116 -147q0 -12 -3 -25q-12 -52 -67 -112q-65 -50 -141 -50q-87 0 -188 68l5 51l1 4q6 27 31 29h4q7 0 17 -2q87 -38 142 -38q41 0 64 21q11 16 14 31q1 7 1 13
q0 62 -130 102l85 113h99z" />
    <glyph glyph-name="Tcaron" unicode="&#x164;" horiz-adv-x="976" 
d="M361 1245q-36 0 -57 26q-15 18 -15 43q0 9 2 19l17 80h919q36 0 57 -26q15 -19 15 -44q0 -9 -2 -18l-17 -80h-411l-246 -1157q-8 -36 -39 -62q-32 -26 -68 -26h-97l265 1245h-323zM1086 1790l36 -56l-339 -251h-73q-126 137 -233 251l61 56l244 -143z" />
    <glyph glyph-name="tcaron" unicode="&#x165;" horiz-adv-x="1212" 
d="M305 868q-36 0 -56 26q-15 18 -15 43q0 9 2 19l17 80h145l39 183q8 37 39 62q32 26 68 26h88l-58 -271h329q36 0 57 -26q15 -19 15 -44q0 -9 -2 -18l-18 -80h-417l-109 -513q-8 -39 -8 -70q0 -65 35 -95q45 -36 171 -36q53 0 115 9q72 0 72 -49q0 -9 -2 -19l-18 -85
q-106 -22 -203 -22q-211 0 -290 74q-62 58 -62 171q0 55 14 122l109 513h-57zM1079 1018q93 113 140 333q6 26 29 44q22 18 49 18h65l-4 -22q-39 -181 -200 -348q-24 -25 -41 -25h-38z" />
    <glyph glyph-name="Tbar" unicode="&#x166;" horiz-adv-x="976" 
d="M376 1245q-36 0 -57 26q-15 18 -15 43q0 9 2 19l17 80h919q36 0 57 -26q15 -19 15 -44q0 -9 -2 -18l-17 -80h-411l-246 -1157q-8 -36 -39 -62q-32 -26 -68 -26h-97l265 1245h-323zM27 637q-27 0 -42 26q-8 17 -8 38q0 13 3 27l11 49h971q28 0 42 -26q7 -16 7 -36
q0 -13 -3 -28l-10 -50h-971z" />
    <glyph glyph-name="tbar" unicode="&#x167;" horiz-adv-x="813" 
d="M425 868q-36 0 -56 26q-15 18 -15 43q0 9 2 19l17 80h145l39 183q8 37 39 62q32 26 68 26h88l-58 -271h329q36 0 57 -26q15 -19 15 -44q0 -9 -2 -18l-18 -80h-417l-109 -513q-8 -39 -8 -70q0 -65 35 -95q45 -36 171 -36q53 0 115 9q72 0 72 -49q0 -9 -2 -19l-18 -85
q-106 -22 -203 -22q-211 0 -290 74q-62 58 -62 171q0 55 14 122l109 513h-57zM14 446q-27 0 -42 26q-8 17 -8 38q0 13 3 27l11 49h971q28 0 42 -26q7 -16 7 -36q0 -13 -3 -28l-10 -50h-971z" />
    <glyph glyph-name="Utilde" unicode="&#x168;" horiz-adv-x="1237" 
d="M1179 391q-41 -192 -222 -303q-162 -99 -369 -100q-207 0 -329 99q-104 85 -104 219q0 40 10 85l217 1022h185l-217 -1022q-5 -24 -5 -46q0 -81 69 -129q75 -53 206 -53h5q134 0 232 53q113 62 137 175l217 1022h185zM1162 1620q-113 -108 -212 -108q-58 0 -111 38
q-71 50 -142 50q-70 0 -140 -50l-11 74q105 98 199 98q59 0 115 -39q68 -47 137 -47q77 0 154 58z" />
    <glyph glyph-name="utilde" unicode="&#x169;" horiz-adv-x="1138" 
d="M862 180q-133 -192 -389 -192q-305 0 -305 240q0 49 12 107l149 701h88q36 0 57 -26q15 -19 15 -44q0 -9 -2 -18l-126 -590q-7 -34 -7 -62q0 -142 182 -142q253 0 362 195l128 599q7 36 39 62q31 26 67 26h88l-220 -1036h-88q-36 0 -57 25q-14 19 -14 43q0 9 2 20z
M1127 1243q-113 -108 -212 -108q-58 0 -111 38q-71 50 -142 50q-70 0 -140 -50l-11 74q105 98 199 98q59 0 115 -39q68 -47 137 -47q77 0 154 58z" />
    <glyph glyph-name="Umacron" unicode="&#x16a;" horiz-adv-x="1237" 
d="M1179 391q-41 -192 -222 -303q-162 -99 -369 -100q-207 0 -329 99q-104 85 -104 219q0 40 10 85l217 1022h185l-217 -1022q-5 -24 -5 -46q0 -81 69 -129q75 -53 206 -53h5q134 0 232 53q113 62 137 175l217 1022h185zM594 1507q-27 0 -41 26q-8 17 -8 38q0 13 3 27l10 49
h536q28 0 42 -26q8 -17 8 -37q0 -13 -3 -27l-11 -50h-536z" />
    <glyph glyph-name="umacron" unicode="&#x16b;" horiz-adv-x="1138" 
d="M862 180q-133 -192 -389 -192q-305 0 -305 240q0 49 12 107l149 701h88q36 0 57 -26q15 -19 15 -44q0 -9 -2 -18l-126 -590q-7 -34 -7 -62q0 -142 182 -142q253 0 362 195l128 599q7 36 39 62q31 26 67 26h88l-220 -1036h-88q-36 0 -57 25q-14 19 -14 43q0 9 2 20z
M560 1130q-27 0 -41 26q-8 17 -8 38q0 13 3 27l10 49h536q28 0 42 -26q8 -17 8 -37q0 -13 -3 -27l-11 -50h-536z" />
    <glyph glyph-name="Ubreve" unicode="&#x16c;" horiz-adv-x="1237" 
d="M1179 391q-41 -192 -222 -303q-162 -99 -369 -100q-207 0 -329 99q-104 85 -104 219q0 40 10 85l217 1022h185l-217 -1022q-5 -24 -5 -46q0 -81 69 -129q75 -53 206 -53h5q134 0 232 53q113 62 137 175l217 1022h185zM1164 1790l36 -56q-158 -251 -379 -251
q-222 0 -266 251l61 56q98 -187 235 -187t313 187z" />
    <glyph glyph-name="ubreve" unicode="&#x16d;" horiz-adv-x="1138" 
d="M862 180q-133 -192 -389 -192q-305 0 -305 240q0 49 12 107l149 701h88q36 0 57 -26q15 -19 15 -44q0 -9 -2 -18l-126 -590q-7 -34 -7 -62q0 -142 182 -142q253 0 362 195l128 599q7 36 39 62q31 26 67 26h88l-220 -1036h-88q-36 0 -57 25q-14 19 -14 43q0 9 2 20z
M1129 1413l36 -56q-158 -251 -379 -251q-222 0 -266 251l61 56q98 -187 235 -187t313 187z" />
    <glyph glyph-name="Uring" unicode="&#x16e;" horiz-adv-x="1237" 
d="M1179 391q-41 -192 -222 -303q-162 -99 -369 -100q-207 0 -329 99q-104 85 -104 219q0 40 10 85l217 1022h185l-217 -1022q-5 -24 -5 -46q0 -81 69 -129q75 -53 206 -53h5q134 0 232 53q113 62 137 175l217 1022h185zM1006 1738q29 -38 29 -88q0 -19 -4 -40
q-16 -74 -79.5 -127t-138.5 -53t-116 53q-30 38 -30 87q0 19 4 40q16 75 79.5 127.5t138.5 52.5t117 -52zM869 1694q-35 0 -64 -24.5t-37 -59.5q-2 -9 -2 -18q0 -23 14 -40q18 -25 53 -25t65 24.5t37 58.5q2 10 2 19q0 23 -13 41q-20 24 -55 24z" />
    <glyph glyph-name="uring" unicode="&#x16f;" horiz-adv-x="1138" 
d="M862 180q-133 -192 -389 -192q-305 0 -305 240q0 49 12 107l149 701h88q36 0 57 -26q15 -19 15 -44q0 -9 -2 -18l-126 -590q-7 -34 -7 -62q0 -142 182 -142q253 0 362 195l128 599q7 36 39 62q31 26 67 26h88l-220 -1036h-88q-36 0 -57 25q-14 19 -14 43q0 9 2 20z
M972 1361q29 -38 29 -88q0 -19 -4 -40q-16 -74 -79.5 -127t-138.5 -53t-116 53q-30 38 -30 87q0 19 4 40q16 75 79.5 127.5t138.5 52.5t117 -52zM835 1317q-35 0 -64 -24.5t-37 -59.5q-2 -9 -2 -18q0 -23 14 -40q18 -25 53 -25t65 24.5t37 58.5q2 10 2 19q0 23 -13 41
q-20 24 -55 24z" />
    <glyph glyph-name="Uhungarumlaut" unicode="&#x170;" horiz-adv-x="1237" 
d="M1179 391q-41 -192 -222 -303q-162 -99 -369 -100q-207 0 -329 99q-104 85 -104 219q0 40 10 85l217 1022h185l-217 -1022q-5 -24 -5 -46q0 -81 69 -129q75 -53 206 -53h5q134 0 232 53q113 62 137 175l217 1022h185zM449 1483l-36 56l339 251q30 13 53 13q62 0 62 -103
q0 -10 -1 -22zM872 1483l-36 56l339 251q30 13 53 13q62 0 62 -103q0 -10 -1 -22z" />
    <glyph glyph-name="uhungarumlaut" unicode="&#x171;" horiz-adv-x="1138" 
d="M862 180q-133 -192 -389 -192q-305 0 -305 240q0 49 12 107l149 701h88q36 0 57 -26q15 -19 15 -44q0 -9 -2 -18l-126 -590q-7 -34 -7 -62q0 -142 182 -142q253 0 362 195l128 599q7 36 39 62q31 26 67 26h88l-220 -1036h-88q-36 0 -57 25q-14 19 -14 43q0 9 2 20z
M415 1106l-36 56l339 251q30 13 53 13q62 0 62 -103q0 -10 -1 -22zM838 1106l-36 56l339 251q30 13 53 13q62 0 62 -103q0 -10 -1 -22z" />
    <glyph glyph-name="Uogonek" unicode="&#x172;" horiz-adv-x="1237" 
d="M1179 391q-41 -192 -222 -303q-162 -99 -369 -100q-207 0 -329 99q-104 85 -104 219q0 40 10 85l217 1022h185l-217 -1022q-5 -24 -5 -46q0 -81 69 -129q75 -53 206 -53h5q134 0 232 53q113 62 137 175l217 1022h185zM635 0q-195 -143 -213 -225q-2 -8 -2 -15
q0 -21 13 -37q19 -11 48 -11q57 0 156 44q13 3 21 3q21 0 21 -18q0 -5 -1 -10l-10 -47q-136 -75 -229 -75q-42 0 -76 16q-62 42 -62 98q0 12 3 24q22 104 240 253h91z" />
    <glyph glyph-name="uogonek" unicode="&#x173;" horiz-adv-x="1138" 
d="M862 180q-133 -192 -389 -192q-305 0 -305 240q0 49 12 107l149 701h88q36 0 57 -26q15 -19 15 -44q0 -9 -2 -18l-126 -590q-7 -34 -7 -62q0 -142 182 -142q253 0 362 195l128 599q7 36 39 62q31 26 67 26h88l-220 -1036h-88q-36 0 -57 25q-14 19 -14 43q0 9 2 20z
M1000 0q-195 -143 -213 -225q-2 -8 -2 -15q0 -21 13 -37q19 -11 48 -11q57 0 156 44q13 3 21 3q21 0 21 -18q0 -5 -1 -10l-10 -47q-136 -75 -229 -75q-42 0 -76 16q-62 42 -62 98q0 12 3 24q22 104 240 253h91z" />
    <glyph glyph-name="Wcircumflex" unicode="&#x174;" horiz-adv-x="2083" 
d="M591 163l563 1140q50 109 155 109h89q105 0 109 -108l79 -1141l563 1140q51 109 156 109h88l-648 -1313q-51 -110 -157 -110h-78q-105 0 -109 108l-80 1159l-572 -1157q-51 -110 -156 -110h-78q-106 0 -110 108l-91 1315h88q106 0 110 -108zM1319 1626l-304 -143l-37 56
q155 114 339 251h73l233 -251l-60 -56z" />
    <glyph glyph-name="wcircumflex" unicode="&#x175;" horiz-adv-x="1538" 
d="M317 1036q93 0 98 -90l25 -816l354 816q43 90 135 90h76q92 0 97 -90l33 -816l346 816q43 90 136 90h69l-392 -946q-43 -90 -136 -90h-103q-92 0 -97 90l-31 792l-328 -792q-43 -90 -136 -90h-102q-93 0 -98 90l-36 946h90zM1002 1249l-304 -143l-37 56q155 114 339 251
h73l233 -251l-60 -56z" />
    <glyph glyph-name="Ycircumflex" unicode="&#x176;" horiz-adv-x="1136" 
d="M676 88q-8 -36 -39 -62q-32 -26 -68 -26h-97l132 623q-154 1 -199 42q-51 46 -60 216l-32 532h95q84 0 89 -65l33 -456q4 -69 34 -87q24 -15 106 -15h125q81 0 111 15q38 18 73 87l227 456q30 65 114 65h95l-258 -532q-78 -163 -149 -211q-65 -43 -219 -47zM830 1626
l-304 -143l-37 56q155 114 339 251h73l233 -251l-60 -56z" />
    <glyph glyph-name="ycircumflex" unicode="&#x177;" horiz-adv-x="1141" 
d="M1029 143q-112 -530 -601 -530q-242 0 -382 96l18 83q11 52 59 52q15 0 34 -5q149 -60 306 -60q178 0 276 107q78 86 114 257l8 37q-133 -192 -389 -192q-305 0 -305 240q0 49 12 107l149 701h88q36 0 57 -26q15 -19 15 -44q0 -9 -2 -18l-126 -590q-7 -34 -7 -62
q0 -142 182 -142q246 0 366 212l124 582q7 36 39 62q31 26 67 26h88zM819 1249l-304 -143l-37 56q155 114 339 251h73l233 -251l-60 -56z" />
    <glyph glyph-name="Ydieresis" unicode="&#x178;" horiz-adv-x="1136" 
d="M676 88q-8 -36 -39 -62q-32 -26 -68 -26h-97l132 623q-154 1 -199 42q-51 46 -60 216l-32 532h95q84 0 89 -65l33 -456q4 -69 34 -87q24 -15 106 -15h125q81 0 111 15q38 18 73 87l227 456q30 65 114 65h95l-258 -532q-78 -163 -149 -211q-65 -43 -219 -47zM566 1606
q8 36 40 62q33 26 72 26h92l-27 -125q-7 -36 -40 -62q-32 -26 -70 -26h-93zM1058 1481h-93q-38 0 -60 26q-16 20 -16 45q0 8 2 17l27 125h92q39 0 60 -26q16 -19 16 -43q0 -9 -2 -19z" />
    <glyph glyph-name="Zacute" unicode="&#x179;" horiz-adv-x="1100" 
d="M1254 1412q38 0 59 -26q15 -20 15 -45q0 -10 -2 -20l-22 -102l-1031 -1049h716q38 0 59 -26q15 -20 15 -45q0 -10 -2 -20l-17 -79h-915q-38 0 -58 27q-16 19 -16 45q0 9 2 19l22 102l1031 1049h-717q-38 0 -58 27q-16 19 -16 45q0 9 2 19l17 79h916zM684 1483l-36 56
l339 251q30 13 53 13q62 0 62 -103q0 -10 -1 -22z" />
    <glyph glyph-name="zacute" unicode="&#x17a;" horiz-adv-x="874" 
d="M951 1036q36 0 57 -26q15 -19 15 -44q0 -9 -2 -18l-18 -80l-711 -701h474q36 0 57 -25q15 -19 15 -43q0 -10 -2 -20l-17 -79h-688q-36 0 -57 25q-14 19 -14 43q0 9 2 20l16 79l711 701h-474q-36 0 -56 26q-15 18 -15 43q0 9 2 19l17 80h688zM573 1106l-36 56l339 251
q30 13 53 13q62 0 62 -103q0 -10 -1 -22z" />
    <glyph glyph-name="Zdotaccent" unicode="&#x17b;" horiz-adv-x="1100" 
d="M1254 1412q38 0 59 -26q15 -20 15 -45q0 -10 -2 -20l-22 -102l-1031 -1049h716q38 0 59 -26q15 -20 15 -45q0 -10 -2 -20l-17 -79h-915q-38 0 -58 27q-16 19 -16 45q0 9 2 19l22 102l1031 1049h-717q-38 0 -58 27q-16 19 -16 45q0 9 2 19l17 79h916zM710 1606q8 36 40 62
q33 26 72 26h92l-27 -125q-7 -36 -40 -62q-32 -26 -70 -26h-93z" />
    <glyph glyph-name="zdotaccent" unicode="&#x17c;" horiz-adv-x="874" 
d="M951 1036q36 0 57 -26q15 -19 15 -44q0 -9 -2 -18l-18 -80l-711 -701h474q36 0 57 -25q15 -19 15 -43q0 -10 -2 -20l-17 -79h-688q-36 0 -57 25q-14 19 -14 43q0 9 2 20l16 79l711 701h-474q-36 0 -56 26q-15 18 -15 43q0 9 2 19l17 80h688zM600 1229q8 36 40 62
q33 26 72 26h92l-27 -125q-7 -36 -40 -62q-32 -26 -70 -26h-93z" />
    <glyph glyph-name="Zcaron" unicode="&#x17d;" horiz-adv-x="1100" 
d="M1254 1412q38 0 59 -26q15 -20 15 -45q0 -10 -2 -20l-22 -102l-1031 -1049h716q38 0 59 -26q15 -20 15 -45q0 -10 -2 -20l-17 -79h-915q-38 0 -58 27q-16 19 -16 45q0 9 2 19l22 102l1031 1049h-717q-38 0 -58 27q-16 19 -16 45q0 9 2 19l17 79h916zM1116 1790l36 -56
l-339 -251h-73q-126 137 -233 251l61 56l244 -143z" />
    <glyph glyph-name="zcaron" unicode="&#x17e;" horiz-adv-x="874" 
d="M951 1036q36 0 57 -26q15 -19 15 -44q0 -9 -2 -18l-18 -80l-711 -701h474q36 0 57 -25q15 -19 15 -43q0 -10 -2 -20l-17 -79h-688q-36 0 -57 25q-14 19 -14 43q0 9 2 20l16 79l711 701h-474q-36 0 -56 26q-15 18 -15 43q0 9 2 19l17 80h688zM1006 1413l36 -56l-339 -251
h-73q-126 137 -233 251l61 56l244 -143z" />
    <glyph glyph-name="longs" unicode="&#x17f;" horiz-adv-x="682" 
d="M349 88q-8 -37 -39 -62q-32 -26 -68 -26h-88l224 1056q45 208 173 293q110 74 320 74q97 0 194 -23l-18 -85q-15 -68 -100 -68q-58 10 -111 10q-126 0 -185 -37q-71 -44 -97 -164z" />
    <glyph glyph-name="uni0218" unicode="&#x218;" horiz-adv-x="1140" 
d="M807 220q116 65 139 176q6 26 6 49q0 97 -97 140q-53 24 -274 59q-194 30 -269 90q-82 65 -82 187q0 44 11 96q42 195 211 309q155 106 354 106q225 0 456 -90l-13 -60q-8 -38 -40 -65q-33 -27 -71 -27q-201 67 -369 67q-117 0 -213 -60q-106 -67 -130 -180
q-5 -21 -5 -41q0 -89 101 -128q41 -16 280 -53q192 -30 267 -97q77 -66 77 -186q0 -47 -12 -103l-3 -12q-45 -193 -221 -306q-160 -103 -360 -103q-225 0 -455 90l12 60q8 38 41 65t71 27q201 -67 369 -67q119 0 219 57zM333 -418q100 97 140 286q5 22 30 37q24 15 55 15h74
l-4 -18q-33 -156 -207 -299q-26 -21 -45 -21h-43z" />
    <glyph glyph-name="uni0219" unicode="&#x219;" horiz-adv-x="907" 
d="M989 951l-18 -83q-11 -52 -58 -52q-15 0 -34 6q-151 59 -281 59q-86 0 -144 -45q-54 -40 -66 -98q-2 -11 -2 -20q0 -56 73 -81q2 -1 195 -39q132 -25 185 -79q52 -51 52 -137q0 -35 -9 -76l-2 -9q-29 -126 -140 -213q-123 -96 -296 -96q-217 0 -356 96l17 83q12 52 60 52
q15 0 33 -5q151 -60 282 -60q86 0 150 45q59 41 71 98q3 14 3 27q0 61 -69 89q-25 10 -193 42q-132 25 -186 73q-55 50 -55 137q0 33 8 73q27 127 133 213q119 97 292 97q216 0 355 -97zM232 -418q100 97 140 286q5 22 30 37q24 15 55 15h74l-4 -18q-33 -156 -207 -299
q-26 -21 -45 -21h-43z" />
    <glyph glyph-name="uni021A" unicode="&#x21a;" horiz-adv-x="976" 
d="M361 1245q-36 0 -57 26q-15 18 -15 43q0 9 2 19l17 80h919q36 0 57 -26q15 -19 15 -44q0 -9 -2 -18l-17 -80h-411l-246 -1157q-8 -36 -39 -62q-32 -26 -68 -26h-97l265 1245h-323zM309 -418q100 97 140 286q5 22 30 37q24 15 55 15h74l-4 -18q-33 -156 -207 -299
q-26 -21 -45 -21h-43z" />
    <glyph glyph-name="uni021B" unicode="&#x21b;" horiz-adv-x="813" 
d="M305 868q-36 0 -56 26q-15 18 -15 43q0 9 2 19l17 80h145l39 183q8 37 39 62q32 26 68 26h88l-58 -271h329q36 0 57 -26q15 -19 15 -44q0 -9 -2 -18l-18 -80h-417l-109 -513q-8 -39 -8 -70q0 -65 35 -95q45 -36 171 -36q53 0 115 9q72 0 72 -49q0 -9 -2 -19l-18 -85
q-106 -22 -203 -22q-211 0 -290 74q-62 58 -62 171q0 55 14 122l109 513h-57zM191 -418q100 97 140 286q5 22 30 37q24 15 55 15h74l-4 -18q-33 -156 -207 -299q-26 -21 -45 -21h-43z" />
    <glyph glyph-name="uni0232" unicode="&#x232;" horiz-adv-x="1136" 
d="M676 88q-8 -36 -39 -62q-32 -26 -68 -26h-97l132 623q-154 1 -199 42q-51 46 -60 216l-32 532h95q84 0 89 -65l33 -456q4 -69 34 -87q24 -15 106 -15h125q81 0 111 15q38 18 73 87l227 456q30 65 114 65h95l-258 -532q-78 -163 -149 -211q-65 -43 -219 -47zM569 1507
q-27 0 -41 26q-8 17 -8 38q0 13 3 27l10 49h536q28 0 42 -26q8 -17 8 -37q0 -13 -3 -27l-11 -50h-536z" />
    <glyph glyph-name="uni0233" unicode="&#x233;" horiz-adv-x="1141" 
d="M1029 143q-112 -530 -601 -530q-242 0 -382 96l18 83q11 52 59 52q15 0 34 -5q149 -60 306 -60q178 0 276 107q78 86 114 257l8 37q-133 -192 -389 -192q-305 0 -305 240q0 49 12 107l149 701h88q36 0 57 -26q15 -19 15 -44q0 -9 -2 -18l-126 -590q-7 -34 -7 -62
q0 -142 182 -142q246 0 366 212l124 582q7 36 39 62q31 26 67 26h88zM559 1130q-27 0 -41 26q-8 17 -8 38q0 13 3 27l10 49h536q28 0 42 -26q8 -17 8 -37q0 -13 -3 -27l-11 -50h-536z" />
    <glyph glyph-name="uni1E0C" unicode="&#x1e0c;" horiz-adv-x="1356" 
d="M1319 535q-54 -253 -243 -396q-183 -139 -438 -139h-568l191 897q53 252 243 396q182 139 438 139q255 0 379 -139q91 -102 91 -258q0 -64 -16 -138zM674 168q170 0 294 94q128 97 164 265l79 370q10 48 10 91q0 105 -62 175q-84 94 -254 94q-171 0 -295 -94
q-129 -98 -164 -266l-155 -729h383zM509 -237q6 31 34 52q28 23 60 23h79l-23 -106q-7 -31 -34 -53q-28 -22 -61 -22h-78z" />
    <glyph glyph-name="uni1E0D" unicode="&#x1e0d;" horiz-adv-x="1180" 
d="M1046 824q-148 58 -301 58q-173 0 -270 -101q-83 -86 -121 -263q-18 -84 -18 -147q0 -71 23 -116q52 -101 224 -101q246 0 366 212zM909 181q-133 -193 -389 -193q-364 0 -364 340q0 85 22 190q113 530 603 530q170 0 301 -54l71 331q7 36 39 62q31 26 67 26h88
l-300 -1413h-88q-36 0 -56 26q-15 18 -15 43q0 9 2 19zM429 -237q6 31 34 52q28 23 60 23h79l-23 -106q-7 -31 -34 -53q-28 -22 -61 -22h-78z" />
    <glyph glyph-name="uni1E24" unicode="&#x1e24;" horiz-adv-x="1301" 
d="M298 88q-8 -36 -39 -62q-32 -26 -68 -26h-97l300 1413h97q36 0 57 -26q15 -19 15 -44q0 -9 -2 -18l-114 -535h668l114 535q7 36 39 62q31 26 67 26h97l-300 -1413h-97q-36 0 -56 26q-15 19 -15 43q0 9 2 19l113 534h-668zM484 -237q6 31 34 52q28 23 60 23h79l-23 -106
q-7 -31 -34 -53q-28 -22 -61 -22h-78z" />
    <glyph glyph-name="uni1E25" unicode="&#x1e25;" horiz-adv-x="1144" 
d="M1009 0h-88q-36 0 -56 26q-15 18 -15 43q0 9 2 19l125 590q7 34 7 62q0 142 -182 142q-246 0 -365 -211l-124 -583q-8 -37 -39 -62q-32 -26 -68 -26h-88l300 1413h88q36 0 57 -26q15 -19 15 -44q0 -9 -2 -18l-100 -470q134 193 389 193q305 0 305 -240q0 -49 -12 -107z
M435 -237q6 31 34 52q28 23 60 23h79l-23 -106q-7 -31 -34 -53q-28 -22 -61 -22h-78z" />
    <glyph glyph-name="uni1E32" unicode="&#x1e32;" horiz-adv-x="1193" 
d="M749 790q101 1 139 23q45 26 95 126l204 409q30 65 114 65h95l-267 -550q-39 -81 -98 -114q59 -46 69 -217l32 -532h-95q-84 0 -87 64l-33 457q-6 68 -36 87q-24 14 -106 14h-364l-113 -534q-8 -36 -39 -62q-32 -26 -68 -26h-97l300 1413h97q36 0 57 -26q15 -19 15 -44
q0 -9 -2 -18l-114 -535h302zM484 -237q6 31 34 52q28 23 60 23h79l-23 -106q-7 -31 -34 -53q-28 -22 -61 -22h-78z" />
    <glyph glyph-name="uni1E33" unicode="&#x1e33;" horiz-adv-x="1036" 
d="M420 1413h88q36 0 57 -26q15 -19 15 -44q0 -9 -2 -18l-154 -723h258q90 0 124 56l171 309q37 69 125 69h88l-200 -363q-50 -91 -95 -118q51 -43 62 -128l54 -427h-88q-88 0 -96 63l-40 314q-7 57 -81 57h-318l-73 -346q-8 -37 -39 -62q-32 -26 -68 -26h-88zM437 -237
q6 31 34 52q28 23 60 23h79l-23 -106q-7 -31 -34 -53q-28 -22 -61 -22h-78z" />
    <glyph glyph-name="uni1E36" unicode="&#x1e36;" horiz-adv-x="1168" 
d="M372 1420h92q39 0 60 -27q15 -20 15 -45q0 -10 -2 -20l-171 -805q-10 -49 -10 -92q0 -105 62 -174q84 -94 255 -94q167 0 396 67q38 0 60 -27q15 -20 15 -45q0 -10 -2 -20l-12 -60q-270 -90 -495 -90q-256 0 -379 139q-91 101 -91 256q0 65 16 140zM463 -237q6 31 34 52
q28 23 60 23h79l-23 -106q-7 -31 -34 -53q-28 -22 -61 -22h-78z" />
    <glyph glyph-name="uni1E37" unicode="&#x1e37;" horiz-adv-x="532" 
d="M413 1413h88q36 0 57 -26q15 -19 15 -44q0 -9 -2 -18l-208 -978q-16 -73 -16 -115q0 -53 24 -61q25 -8 58 -8q23 0 50 4q73 0 73 -51q0 -8 -2 -18l-18 -85q-81 -18 -159 -18q-24 0 -48 2q-100 7 -140 79q-20 34 -20 99q0 69 22 172zM192 -237q6 31 34 52q28 23 60 23h79
l-23 -106q-7 -31 -34 -53q-28 -22 -61 -22h-78z" />
    <glyph glyph-name="uni1E38" unicode="&#x1e38;" horiz-adv-x="1168" 
d="M372 1420h92q39 0 60 -27q15 -20 15 -45q0 -10 -2 -20l-171 -805q-10 -49 -10 -92q0 -105 62 -174q84 -94 255 -94q167 0 396 67q38 0 60 -27q15 -20 15 -45q0 -10 -2 -20l-12 -60q-270 -90 -495 -90q-256 0 -379 139q-91 101 -91 256q0 65 16 140zM597 1507
q-27 0 -41 26q-8 17 -8 38q0 13 3 27l10 49h536q28 0 42 -26q8 -17 8 -37q0 -13 -3 -27l-11 -50h-536zM463 -237q6 31 34 52q28 23 60 23h79l-23 -106q-7 -31 -34 -53q-28 -22 -61 -22h-78z" />
    <glyph glyph-name="uni1E39" unicode="&#x1e39;" horiz-adv-x="532" 
d="M506 1413h88q36 0 57 -26q15 -19 15 -44q0 -9 -2 -18l-208 -978q-16 -73 -16 -115q0 -53 24 -61q25 -8 58 -8q23 0 50 4q73 0 73 -51q0 -8 -2 -18l-18 -85q-81 -18 -159 -18q-24 0 -48 2q-100 7 -140 79q-20 34 -20 99q0 69 22 172zM419 1507q-27 0 -41 26q-8 17 -8 38
q0 13 3 27l10 49h536q28 0 42 -26q8 -17 8 -37q0 -13 -3 -27l-11 -50h-536zM285 -237q6 31 34 52q28 23 60 23h79l-23 -106q-7 -31 -34 -53q-28 -22 -61 -22h-78z" />
    <glyph glyph-name="uni1E3A" unicode="&#x1e3a;" horiz-adv-x="1168" 
d="M372 1420h92q39 0 60 -27q15 -20 15 -45q0 -10 -2 -20l-171 -805q-10 -49 -10 -92q0 -105 62 -174q84 -94 255 -94q167 0 396 67q38 0 60 -27q15 -20 15 -45q0 -10 -2 -20l-12 -60q-270 -90 -495 -90q-256 0 -379 139q-91 101 -91 256q0 65 16 140zM141 -323
q-27 0 -41 26q-8 17 -8 38q0 13 3 27l10 49h830q28 0 43 -26q7 -16 7 -36q0 -13 -3 -28l-11 -50h-830z" />
    <glyph glyph-name="uni1E3B" unicode="&#x1e3b;" horiz-adv-x="532" 
d="M653 1413h88q36 0 57 -26q15 -19 15 -44q0 -9 -2 -18l-208 -978q-16 -73 -16 -115q0 -53 24 -61q25 -8 58 -8q23 0 50 4q73 0 73 -51q0 -8 -2 -18l-18 -85q-81 -18 -159 -18q-24 0 -48 2q-100 7 -140 79q-20 34 -20 99q0 69 22 172zM110 -323q-27 0 -41 26q-8 17 -8 38
q0 13 3 27l10 49h830q28 0 43 -26q7 -16 7 -36q0 -13 -3 -28l-11 -50h-830z" />
    <glyph glyph-name="uni1E40" unicode="&#x1e40;" horiz-adv-x="1791" 
d="M93 0l282 1328q8 38 41 65t71 27h95q94 -1 111 -95l202 -1153l693 1153q57 94 151 95h95q38 0 59 -27q15 -20 15 -45q0 -10 -2 -20l-282 -1328h-92q-39 0 -60 27q-16 19 -16 44q0 10 3 21l237 1118l-675 -1124q-51 -86 -130 -86h-65q-79 0 -94 86l-197 1124l-237 -1118
q-9 -38 -41 -65q-33 -27 -72 -27h-92zM1027 1606q8 36 40 62q33 26 72 26h92l-27 -125q-7 -36 -40 -62q-32 -26 -70 -26h-93z" />
    <glyph glyph-name="uni1E41" unicode="&#x1e41;" horiz-adv-x="1676" 
d="M882 678q10 48 10 84q0 53 -22 80q-32 40 -128 40q-193 0 -312 -211l-124 -583q-8 -37 -39 -62q-32 -26 -68 -26h-88l220 1036h88q36 0 57 -26q15 -19 15 -44q0 -8 -2 -18l-20 -93q134 193 336 193q260 0 271 -213q161 213 356 213q272 0 272 -232q0 -52 -13 -115
l-149 -701h-88q-37 0 -56 26q-15 18 -15 43q0 9 2 19l125 590q10 48 10 84q0 53 -22 80q-33 40 -129 40q-193 0 -312 -211l-124 -583q-8 -37 -38 -62q-32 -26 -69 -26h-88zM995 1229q8 36 40 62q33 26 72 26h92l-27 -125q-7 -36 -40 -62q-32 -26 -70 -26h-93z" />
    <glyph glyph-name="uni1E42" unicode="&#x1e42;" horiz-adv-x="1791" 
d="M93 0l282 1328q8 38 41 65t71 27h95q94 -1 111 -95l202 -1153l693 1153q57 94 151 95h95q38 0 59 -27q15 -20 15 -45q0 -10 -2 -20l-282 -1328h-92q-39 0 -60 27q-16 19 -16 44q0 10 3 21l237 1118l-675 -1124q-51 -86 -130 -86h-65q-79 0 -94 86l-197 1124l-237 -1118
q-9 -38 -41 -65q-33 -27 -72 -27h-92zM730 -237q6 31 34 52q28 23 60 23h79l-23 -106q-7 -31 -34 -53q-28 -22 -61 -22h-78z" />
    <glyph glyph-name="uni1E43" unicode="&#x1e43;" horiz-adv-x="1676" 
d="M882 678q10 48 10 84q0 53 -22 80q-32 40 -128 40q-193 0 -312 -211l-124 -583q-8 -37 -39 -62q-32 -26 -68 -26h-88l220 1036h88q36 0 57 -26q15 -19 15 -44q0 -8 -2 -18l-20 -93q134 193 336 193q260 0 271 -213q161 213 356 213q272 0 272 -232q0 -52 -13 -115
l-149 -701h-88q-37 0 -56 26q-15 18 -15 43q0 9 2 19l125 590q10 48 10 84q0 53 -22 80q-33 40 -129 40q-193 0 -312 -211l-124 -583q-8 -37 -38 -62q-32 -26 -69 -26h-88zM698 -237q6 31 34 52q28 23 60 23h79l-23 -106q-7 -31 -34 -53q-28 -22 -61 -22h-78z" />
    <glyph glyph-name="uni1E44" unicode="&#x1e44;" horiz-adv-x="1397" 
d="M375 1328q8 38 41 65t71 27h190l403 -1248l265 1248h185l-282 -1328q-9 -38 -41 -65q-33 -27 -71 -27h-190l-403 1248l-245 -1156q-9 -38 -41 -65q-33 -27 -72 -27h-92zM829 1606q8 36 40 62q33 26 72 26h92l-27 -125q-7 -36 -40 -62q-32 -26 -70 -26h-93z" />
    <glyph glyph-name="uni1E45" unicode="&#x1e45;" horiz-adv-x="1134" 
d="M1002 0h-88q-36 0 -56 26q-15 18 -15 43q0 9 2 19l125 590q7 34 7 62q0 142 -182 142q-246 0 -366 -212l-123 -582q-8 -37 -39 -62q-32 -26 -68 -26h-88l220 1036h88q36 0 57 -26q15 -19 15 -44q0 -8 -2 -18l-20 -93q134 193 389 193q305 0 305 -240q0 -49 -12 -107z
M725 1229q8 36 40 62q33 26 72 26h92l-27 -125q-7 -36 -40 -62q-32 -26 -70 -26h-93z" />
    <glyph glyph-name="uni1E46" unicode="&#x1e46;" horiz-adv-x="1397" 
d="M375 1328q8 38 41 65t71 27h190l403 -1248l265 1248h185l-282 -1328q-9 -38 -41 -65q-33 -27 -71 -27h-190l-403 1248l-245 -1156q-9 -38 -41 -65q-33 -27 -72 -27h-92zM532 -237q6 31 34 52q28 23 60 23h79l-23 -106q-7 -31 -34 -53q-28 -22 -61 -22h-78z" />
    <glyph glyph-name="uni1E47" unicode="&#x1e47;" horiz-adv-x="1134" 
d="M1002 0h-88q-36 0 -56 26q-15 18 -15 43q0 9 2 19l125 590q7 34 7 62q0 142 -182 142q-246 0 -366 -212l-123 -582q-8 -37 -39 -62q-32 -26 -68 -26h-88l220 1036h88q36 0 57 -26q15 -19 15 -44q0 -8 -2 -18l-20 -93q134 193 389 193q305 0 305 -240q0 -49 -12 -107z
M428 -237q6 31 34 52q28 23 60 23h79l-23 -106q-7 -31 -34 -53q-28 -22 -61 -22h-78z" />
    <glyph glyph-name="uni1E48" unicode="&#x1e48;" horiz-adv-x="1397" 
d="M375 1328q8 38 41 65t71 27h190l403 -1248l265 1248h185l-282 -1328q-9 -38 -41 -65q-33 -27 -71 -27h-190l-403 1248l-245 -1156q-9 -38 -41 -65q-33 -27 -72 -27h-92zM210 -323q-27 0 -41 26q-8 17 -8 38q0 13 3 27l10 49h830q28 0 43 -26q7 -16 7 -36q0 -13 -3 -28
l-11 -50h-830z" />
    <glyph glyph-name="uni1E49" unicode="&#x1e49;" horiz-adv-x="1134" 
d="M1004 0h-88q-36 0 -56 26q-15 18 -15 43q0 9 2 19l125 590q7 34 7 62q0 142 -182 142q-246 0 -366 -212l-123 -582q-8 -37 -39 -62q-32 -26 -68 -26h-88l220 1036h88q36 0 57 -26q15 -19 15 -44q0 -8 -2 -18l-20 -93q134 193 389 193q305 0 305 -240q0 -49 -12 -107z
M108 -323q-27 0 -41 26q-8 17 -8 38q0 13 3 27l10 49h830q28 0 43 -26q7 -16 7 -36q0 -13 -3 -28l-11 -50h-830z" />
    <glyph glyph-name="uni1E58" unicode="&#x1e58;" horiz-adv-x="1206" 
d="M432 753h261q383 0 442 276q5 24 5 46q0 80 -68 129q-76 53 -210 53h-5q-131 0 -228 -53q-114 -61 -138 -175zM1075 376l90 -376h-120q-72 0 -87 64l-74 312l-25 107q-18 102 -177 102h-286l-124 -585h-185l219 1029q41 193 223 304q163 99 367 99h4q206 -1 326 -100
q104 -85 104 -218q0 -40 -10 -85q-64 -300 -340 -397q53 -38 87 -222zM795 1606q8 36 40 62q33 26 72 26h92l-27 -125q-7 -36 -40 -62q-32 -26 -70 -26h-93z" />
    <glyph glyph-name="uni1E59" unicode="&#x1e59;" horiz-adv-x="840" 
d="M331 1036h88q36 0 57 -26q15 -19 15 -44q0 -9 -2 -18l-20 -93q134 193 336 193q96 0 193 -23l-18 -85q-15 -68 -100 -68q-59 9 -138 9q-193 0 -313 -211l-123 -582q-8 -37 -40 -63q-31 -25 -67 -25h-88zM614 1229q8 36 40 62q33 26 72 26h92l-27 -125q-7 -36 -40 -62
q-32 -26 -70 -26h-93z" />
    <glyph glyph-name="uni1E5A" unicode="&#x1e5a;" horiz-adv-x="1206" 
d="M432 753h261q383 0 442 276q5 24 5 46q0 80 -68 129q-76 53 -210 53h-5q-131 0 -228 -53q-114 -61 -138 -175zM1075 376l90 -376h-120q-72 0 -87 64l-74 312l-25 107q-18 102 -177 102h-286l-124 -585h-185l219 1029q41 193 223 304q163 99 367 99h4q206 -1 326 -100
q104 -85 104 -218q0 -40 -10 -85q-64 -300 -340 -397q53 -38 87 -222zM497 -237q6 31 34 52q28 23 60 23h79l-23 -106q-7 -31 -34 -53q-28 -22 -61 -22h-78z" />
    <glyph glyph-name="uni1E5B" unicode="&#x1e5b;" horiz-adv-x="840" 
d="M331 1036h88q36 0 57 -26q15 -19 15 -44q0 -9 -2 -18l-20 -93q134 193 336 193q96 0 193 -23l-18 -85q-15 -68 -100 -68q-59 9 -138 9q-193 0 -313 -211l-123 -582q-8 -37 -40 -63q-31 -25 -67 -25h-88zM203 -237q6 31 34 52q28 23 60 23h79l-23 -106q-7 -31 -34 -53
q-28 -22 -61 -22h-78z" />
    <glyph glyph-name="uni1E5C" unicode="&#x1e5c;" horiz-adv-x="1206" 
d="M432 753h261q383 0 442 276q5 24 5 46q0 80 -68 129q-76 53 -210 53h-5q-131 0 -228 -53q-114 -61 -138 -175zM1075 376l90 -376h-120q-72 0 -87 64l-74 312l-25 107q-18 102 -177 102h-286l-124 -585h-185l219 1029q41 193 223 304q163 99 367 99h4q206 -1 326 -100
q104 -85 104 -218q0 -40 -10 -85q-64 -300 -340 -397q53 -38 87 -222zM631 1507q-27 0 -41 26q-8 17 -8 38q0 13 3 27l10 49h536q28 0 42 -26q8 -17 8 -37q0 -13 -3 -27l-11 -50h-536zM497 -237q6 31 34 52q28 23 60 23h79l-23 -106q-7 -31 -34 -53q-28 -22 -61 -22h-78z
" />
    <glyph glyph-name="uni1E5D" unicode="&#x1e5d;" horiz-adv-x="840" 
d="M331 1036h88q36 0 57 -26q15 -19 15 -44q0 -9 -2 -18l-20 -93q134 193 336 193q96 0 193 -23l-18 -85q-15 -68 -100 -68q-59 9 -138 9q-193 0 -313 -211l-123 -582q-8 -37 -40 -63q-31 -25 -67 -25h-88zM451 1130q-27 0 -41 26q-8 17 -8 38q0 13 3 27l10 49h536
q28 0 42 -26q8 -17 8 -37q0 -13 -3 -27l-11 -50h-536zM203 -237q6 31 34 52q28 23 60 23h79l-23 -106q-7 -31 -34 -53q-28 -22 -61 -22h-78z" />
    <glyph glyph-name="uni1E5E" unicode="&#x1e5e;" horiz-adv-x="1206" 
d="M432 753h261q383 0 442 276q5 24 5 46q0 80 -68 129q-76 53 -210 53h-5q-131 0 -228 -53q-114 -61 -138 -175zM1075 376l90 -376h-120q-72 0 -87 64l-74 312l-25 107q-18 102 -177 102h-286l-124 -585h-185l219 1029q41 193 223 304q163 99 367 99h4q206 -1 326 -100
q104 -85 104 -218q0 -40 -10 -85q-64 -300 -340 -397q53 -38 87 -222zM175 -323q-27 0 -41 26q-8 17 -8 38q0 13 3 27l10 49h830q28 0 43 -26q7 -16 7 -36q0 -13 -3 -28l-11 -50h-830z" />
    <glyph glyph-name="uni1E5F" unicode="&#x1e5f;" horiz-adv-x="840" 
d="M558 1036h88q36 0 57 -26q15 -19 15 -44q0 -9 -2 -18l-20 -93q134 193 336 193q96 0 193 -23l-18 -85q-15 -68 -100 -68q-59 9 -138 9q-193 0 -313 -211l-123 -582q-8 -37 -40 -63q-31 -25 -67 -25h-88zM108 -323q-27 0 -41 26q-8 17 -8 38q0 13 3 27l10 49h830
q28 0 43 -26q7 -16 7 -36q0 -13 -3 -28l-11 -50h-830z" />
    <glyph glyph-name="uni1E62" unicode="&#x1e62;" horiz-adv-x="1140" 
d="M807 220q116 65 139 176q6 26 6 49q0 97 -97 140q-53 24 -274 59q-194 30 -269 90q-82 65 -82 187q0 44 11 96q42 195 211 309q155 106 354 106q225 0 456 -90l-13 -60q-8 -38 -40 -65q-33 -27 -71 -27q-201 67 -369 67q-117 0 -213 -60q-106 -67 -130 -180
q-5 -21 -5 -41q0 -89 101 -128q41 -16 280 -53q192 -30 267 -97q77 -66 77 -186q0 -47 -12 -103l-3 -12q-45 -193 -221 -306q-160 -103 -360 -103q-225 0 -455 90l12 60q8 38 41 65t71 27q201 -67 369 -67q119 0 219 57zM407 -237q6 31 34 52q28 23 60 23h79l-23 -106
q-7 -31 -34 -53q-28 -22 -61 -22h-78z" />
    <glyph glyph-name="uni1E63" unicode="&#x1e63;" horiz-adv-x="907" 
d="M989 951l-18 -83q-11 -52 -58 -52q-15 0 -34 6q-151 59 -281 59q-86 0 -144 -45q-54 -40 -66 -98q-2 -11 -2 -20q0 -56 73 -81q2 -1 195 -39q132 -25 185 -79q52 -51 52 -137q0 -35 -9 -76l-2 -9q-29 -126 -140 -213q-123 -96 -296 -96q-217 0 -356 96l17 83q12 52 60 52
q15 0 33 -5q151 -60 282 -60q86 0 150 45q59 41 71 98q3 14 3 27q0 61 -69 89q-25 10 -193 42q-132 25 -186 73q-55 50 -55 137q0 33 8 73q27 127 133 213q119 97 292 97q216 0 355 -97zM306 -237q6 31 34 52q28 23 60 23h79l-23 -106q-7 -31 -34 -53q-28 -22 -61 -22h-78z
" />
    <glyph glyph-name="uni1E6C" unicode="&#x1e6c;" horiz-adv-x="976" 
d="M361 1245q-36 0 -57 26q-15 18 -15 43q0 9 2 19l17 80h919q36 0 57 -26q15 -19 15 -44q0 -9 -2 -18l-17 -80h-411l-246 -1157q-8 -36 -39 -62q-32 -26 -68 -26h-97l265 1245h-323zM383 -237q6 31 34 52q28 23 60 23h79l-23 -106q-7 -31 -34 -53q-28 -22 -61 -22h-78z" />
    <glyph glyph-name="uni1E6D" unicode="&#x1e6d;" horiz-adv-x="813" 
d="M305 868q-36 0 -56 26q-15 18 -15 43q0 9 2 19l17 80h145l39 183q8 37 39 62q32 26 68 26h88l-58 -271h329q36 0 57 -26q15 -19 15 -44q0 -9 -2 -18l-18 -80h-417l-109 -513q-8 -39 -8 -70q0 -65 35 -95q45 -36 171 -36q53 0 115 9q72 0 72 -49q0 -9 -2 -19l-18 -85
q-106 -22 -203 -22q-211 0 -290 74q-62 58 -62 171q0 55 14 122l109 513h-57zM265 -237q6 31 34 52q28 23 60 23h79l-23 -106q-7 -31 -34 -53q-28 -22 -61 -22h-78z" />
    <glyph glyph-name="Wgrave" unicode="&#x1e80;" horiz-adv-x="2083" 
d="M591 163l563 1140q50 109 155 109h89q105 0 109 -108l79 -1141l563 1140q51 109 156 109h88l-648 -1313q-51 -110 -157 -110h-78q-105 0 -109 108l-80 1159l-572 -1157q-51 -110 -156 -110h-78q-106 0 -110 108l-91 1315h88q106 0 110 -108zM1049 1678q45 125 113 125
q23 0 47 -13l233 -251l-60 -56z" />
    <glyph glyph-name="wgrave" unicode="&#x1e81;" horiz-adv-x="1538" 
d="M317 1036q93 0 98 -90l25 -816l354 816q43 90 135 90h76q92 0 97 -90l33 -816l346 816q43 90 136 90h69l-392 -946q-43 -90 -136 -90h-103q-92 0 -97 90l-31 792l-328 -792q-43 -90 -136 -90h-102q-93 0 -98 90l-36 946h90zM732 1301q45 125 113 125q23 0 47 -13
l233 -251l-60 -56z" />
    <glyph glyph-name="Wacute" unicode="&#x1e82;" horiz-adv-x="2083" 
d="M591 163l563 1140q50 109 155 109h89q105 0 109 -108l79 -1141l563 1140q51 109 156 109h88l-648 -1313q-51 -110 -157 -110h-78q-105 0 -109 108l-80 1159l-572 -1157q-51 -110 -156 -110h-78q-106 0 -110 108l-91 1315h88q106 0 110 -108zM1196 1483l-36 56l339 251
q30 13 53 13q62 0 62 -103q0 -10 -1 -22z" />
    <glyph glyph-name="wacute" unicode="&#x1e83;" horiz-adv-x="1538" 
d="M317 1036q93 0 98 -90l25 -816l354 816q43 90 135 90h76q92 0 97 -90l33 -816l346 816q43 90 136 90h69l-392 -946q-43 -90 -136 -90h-103q-92 0 -97 90l-31 792l-328 -792q-43 -90 -136 -90h-102q-93 0 -98 90l-36 946h90zM879 1106l-36 56l339 251q30 13 53 13
q62 0 62 -103q0 -10 -1 -22z" />
    <glyph glyph-name="Wdieresis" unicode="&#x1e84;" horiz-adv-x="2083" 
d="M591 163l563 1140q50 109 155 109h89q105 0 109 -108l79 -1141l563 1140q51 109 156 109h88l-648 -1313q-51 -110 -157 -110h-78q-105 0 -109 108l-80 1159l-572 -1157q-51 -110 -156 -110h-78q-106 0 -110 108l-91 1315h88q106 0 110 -108zM1056 1606q8 36 40 62
q33 26 72 26h92l-27 -125q-7 -36 -40 -62q-32 -26 -70 -26h-93zM1548 1481h-93q-38 0 -60 26q-16 20 -16 45q0 8 2 17l27 125h92q39 0 60 -26q16 -19 16 -43q0 -9 -2 -19z" />
    <glyph glyph-name="wdieresis" unicode="&#x1e85;" horiz-adv-x="1538" 
d="M317 1036q93 0 98 -90l25 -816l354 816q43 90 135 90h76q92 0 97 -90l33 -816l346 816q43 90 136 90h69l-392 -946q-43 -90 -136 -90h-103q-92 0 -97 90l-31 792l-328 -792q-43 -90 -136 -90h-102q-93 0 -98 90l-36 946h90zM739 1229q8 36 40 62q33 26 72 26h92l-27 -125
q-7 -36 -40 -62q-32 -26 -70 -26h-93zM1231 1104h-93q-38 0 -60 26q-16 20 -16 45q0 8 2 17l27 125h92q39 0 60 -26q16 -19 16 -43q0 -9 -2 -19z" />
    <glyph glyph-name="uni1E88" unicode="&#x1e88;" horiz-adv-x="2083" 
d="M591 163l563 1140q50 109 155 109h89q105 0 109 -108l79 -1141l563 1140q51 109 156 109h88l-648 -1313q-51 -110 -157 -110h-78q-105 0 -109 108l-80 1159l-572 -1157q-51 -110 -156 -110h-78q-106 0 -110 108l-91 1315h88q106 0 110 -108zM925 -237q6 31 34 52
q28 23 60 23h79l-23 -106q-7 -31 -34 -53q-28 -22 -61 -22h-78z" />
    <glyph glyph-name="uni1E89" unicode="&#x1e89;" horiz-adv-x="1538" 
d="M317 1036q93 0 98 -90l25 -816l354 816q43 90 135 90h76q92 0 97 -90l33 -816l346 816q43 90 136 90h69l-392 -946q-43 -90 -136 -90h-103q-92 0 -97 90l-31 792l-328 -792q-43 -90 -136 -90h-102q-93 0 -98 90l-36 946h90zM608 -237q6 31 34 52q28 23 60 23h79l-23 -106
q-7 -31 -34 -53q-28 -22 -61 -22h-78z" />
    <glyph glyph-name="uni1E92" unicode="&#x1e92;" horiz-adv-x="1100" 
d="M1254 1412q38 0 59 -26q15 -20 15 -45q0 -10 -2 -20l-22 -102l-1031 -1049h716q38 0 59 -26q15 -20 15 -45q0 -10 -2 -20l-17 -79h-915q-38 0 -58 27q-16 19 -16 45q0 9 2 19l22 102l1031 1049h-717q-38 0 -58 27q-16 19 -16 45q0 9 2 19l17 79h916zM413 -237q6 31 34 52
q28 23 60 23h79l-23 -106q-7 -31 -34 -53q-28 -22 -61 -22h-78z" />
    <glyph glyph-name="uni1E93" unicode="&#x1e93;" horiz-adv-x="874" 
d="M951 1036q36 0 57 -26q15 -19 15 -44q0 -9 -2 -18l-18 -80l-711 -701h474q36 0 57 -25q15 -19 15 -43q0 -10 -2 -20l-17 -79h-688q-36 0 -57 25q-14 19 -14 43q0 9 2 20l16 79l711 701h-474q-36 0 -56 26q-15 18 -15 43q0 9 2 19l17 80h688zM302 -237q6 31 34 52
q28 23 60 23h79l-23 -106q-7 -31 -34 -53q-28 -22 -61 -22h-78z" />
    <glyph glyph-name="uni1EBC" unicode="&#x1ebc;" horiz-adv-x="1133" 
d="M216 897q53 252 243 396q182 139 437 139q226 0 457 -90l-13 -60q-8 -38 -41 -65t-71 -27q-200 67 -369 67q-170 0 -294 -94q-129 -98 -164 -266l-19 -88h677q37 0 57 -25q14 -19 14 -43q0 -9 -2 -20l-17 -79h-765l-25 -119q-10 -49 -10 -92q0 -105 62 -174
q84 -94 254 -94q169 0 397 67q38 0 59 -27q16 -20 16 -45q0 -10 -2 -20l-12 -60q-270 -90 -496 -90q-255 0 -378 139q-91 101 -91 256q0 65 16 140zM1119 1620q-113 -108 -212 -108q-58 0 -111 38q-71 50 -142 50q-70 0 -140 -50l-11 74q105 98 199 98q59 0 115 -39
q68 -47 137 -47q77 0 154 58z" />
    <glyph glyph-name="uni1EBD" unicode="&#x1ebd;" horiz-adv-x="1065" 
d="M917 606q7 52 7 93q0 66 -18 102q-42 81 -190 81q-150 0 -234 -80q-66 -64 -104 -196h539zM556 -12q-398 0 -398 350q0 81 21 180q113 530 573 530q249 0 321 -155q30 -65 30 -164q0 -91 -25 -210q-17 -81 -105 -81h-631q-8 -42 -8 -77q0 -207 258 -207q156 0 330 60
q22 5 38 5q38 0 38 -34q0 -7 -2 -17l-18 -84q-181 -96 -422 -96zM1091 1243q-113 -108 -212 -108q-58 0 -111 38q-71 50 -142 50q-70 0 -140 -50l-11 74q105 98 199 98q59 0 115 -39q68 -47 137 -47q77 0 154 58z" />
    <glyph glyph-name="Ygrave" unicode="&#x1ef2;" horiz-adv-x="1136" 
d="M676 88q-8 -36 -39 -62q-32 -26 -68 -26h-97l132 623q-154 1 -199 42q-51 46 -60 216l-32 532h95q84 0 89 -65l33 -456q4 -69 34 -87q24 -15 106 -15h125q81 0 111 15q38 18 73 87l227 456q30 65 114 65h95l-258 -532q-78 -163 -149 -211q-65 -43 -219 -47zM559 1678
q45 125 113 125q23 0 47 -13l233 -251l-60 -56z" />
    <glyph glyph-name="ygrave" unicode="&#x1ef3;" horiz-adv-x="1141" 
d="M1029 143q-112 -530 -601 -530q-242 0 -382 96l18 83q11 52 59 52q15 0 34 -5q149 -60 306 -60q178 0 276 107q78 86 114 257l8 37q-133 -192 -389 -192q-305 0 -305 240q0 49 12 107l149 701h88q36 0 57 -26q15 -19 15 -44q0 -9 -2 -18l-126 -590q-7 -34 -7 -62
q0 -142 182 -142q246 0 366 212l124 582q7 36 39 62q31 26 67 26h88zM549 1301q45 125 113 125q23 0 47 -13l233 -251l-60 -56z" />
    <glyph glyph-name="uni1EF4" unicode="&#x1ef4;" horiz-adv-x="1136" 
d="M676 88q-8 -36 -39 -62q-32 -26 -68 -26h-97l132 623q-154 1 -199 42q-51 46 -60 216l-32 532h95q84 0 89 -65l33 -456q4 -69 34 -87q24 -15 106 -15h125q81 0 111 15q38 18 73 87l227 456q30 65 114 65h95l-258 -532q-78 -163 -149 -211q-65 -43 -219 -47zM435 -237
q6 31 34 52q28 23 60 23h79l-23 -106q-7 -31 -34 -53q-28 -22 -61 -22h-78z" />
    <glyph glyph-name="_1" 
 />
    <glyph glyph-name="uni1EF5" unicode="&#x1ef5;" horiz-adv-x="1141" 
d="M1029 143q-112 -530 -601 -530q-242 0 -382 96l18 83q11 52 59 52q15 0 34 -5q149 -60 306 -60q178 0 276 107q78 86 114 257l8 37q-133 -192 -389 -192q-305 0 -305 240q0 49 12 107l149 701h88q36 0 57 -26q15 -19 15 -44q0 -9 -2 -18l-126 -590q-7 -34 -7 -62
q0 -142 182 -142q246 0 366 212l124 582q7 36 39 62q31 26 67 26h88zM925 -237q6 31 34 52q28 23 60 23h79l-23 -106q-7 -31 -34 -53q-28 -22 -61 -22h-78z" />
    <glyph glyph-name="uni2010" unicode="&#x2010;" horiz-adv-x="928" 
d="M294 441q-27 0 -42 26q-8 17 -8 38q0 13 3 27l10 49h536q28 0 43 -26q7 -16 7 -36q0 -13 -3 -28l-10 -50h-536z" />
    <glyph glyph-name="uni2011" unicode="&#x2011;" horiz-adv-x="928" 
d="M294 441q-27 0 -42 26q-8 17 -8 38q0 13 3 27l10 49h536q28 0 43 -26q7 -16 7 -36q0 -13 -3 -28l-10 -50h-536z" />
    <glyph glyph-name="figuredash" unicode="&#x2012;" horiz-adv-x="1240" 
d="M170 637q-27 0 -42 26q-8 17 -8 38q0 13 3 27l10 49h1033q28 0 43 -26q7 -16 7 -36q0 -13 -3 -28l-10 -50h-1033z" />
    <glyph glyph-name="twodotenleader" unicode="&#x2025;" horiz-adv-x="1365" 
d="M178 124q8 37 41 62q32 26 70 26h93l-26 -124q-8 -37 -41 -63q-32 -25 -71 -25h-92zM861 124q8 37 41 62q32 26 70 26h93l-26 -124q-8 -37 -41 -63q-32 -25 -71 -25h-92z" />
    <glyph glyph-name="uni203D" unicode="&#x203d;" horiz-adv-x="951" 
d="M457 1236q-91 -17 -194 -47q-39 0 -61 27q-15 20 -15 45q0 10 2 21l13 60q269 89 494 89q199 0 310 -105q89 -86 89 -215q0 -45 -10 -94q-45 -213 -223 -301q-97 -47 -342 -82l-54 -206q-8 -37 -39 -63q-32 -25 -68 -25h-57zM240 124q8 37 41 62q32 26 71 26h92l-26 -124
q-8 -37 -41 -63q-32 -25 -70 -25h-93zM567 816q297 24 334 201q6 26 6 50q0 79 -61 130q-62 53 -164 58z" />
    <glyph glyph-name="uni204C" unicode="&#x204c;" horiz-adv-x="966" 
d="M926 808q63 -81 63 -186q0 -41 -9 -85q-33 -158 -169 -270.5t-295 -112.5t-247 113q-64 81 -64 187q0 40 9 83q34 159 170 271t295 112t247 -112z" />
    <glyph glyph-name="uni204D" unicode="&#x204d;" horiz-adv-x="966" 
d="M40 808q-63 -81 -63 -186q0 -41 9 -85q33 -158 169 -270.5t295 -112.5t247 113q64 81 64 187q0 40 -9 83q-34 159 -170 271t-295 112t-247 -112z" />
    <glyph glyph-name="uni2053" unicode="&#x2053;" horiz-adv-x="1413" 
d="M654 696q-76.5 0 -169.5 -28q-45 -13 -97.5 -39q-4.5 -2 -7.5 -4q-31.5 -17 -66 -17q-24 0 -40.5 8l30 96q120 73 216.75 99t179.25 26q94.5 0 243.75 -44t230.25 -44q76.5 0 169.5 28q45 13 97.5 39q4.5 2 7.5 4q31.5 17 66 17q24 0 40.5 -8l-30 -96
q-120 -73 -216.75 -99t-179.25 -26q-85.5 0 -239.25 44t-234.75 44z" />
    <glyph glyph-name="uni20AF" unicode="&#x20af;" horiz-adv-x="2570" 
d="M1319 535q-54 -253 -243 -396q-183 -139 -438 -139h-568l191 897q53 252 243 396q182 139 438 139q255 0 379 -139q91 -102 91 -258q0 -64 -16 -138zM674 168q170 0 294 94q128 97 164 265l79 370q10 48 10 91q0 105 -62 175q-84 94 -254 94q-171 0 -295 -94
q-129 -98 -164 -266l-155 -729h383zM1709 212q149 -58 302 -58q173 0 269 100q83 87 121 264q18 84 18 147q0 71 -23 116q-51 100 -224 100q-252 0 -362 -194zM1846 855q134 193 389 193q364 0 364 -340q0 -85 -22 -190q-113 -530 -602 -530q-170 0 -302 54l-70 -331
q-8 -36 -40 -62q-31 -26 -67 -26h-88l300 1413h88q36 0 57 -26q15 -19 15 -44q0 -9 -2 -18z" />
    <glyph glyph-name="uni2100" unicode="&#x2100;" horiz-adv-x="2158" 
d="M748.5 858.75q12.75 60 12.75 105.75q0 52.5 -16.5 87q-39.75 80.25 -173.25 80.25t-206.25 -80.25q-60 -64.5 -87 -192.75q-13.5 -63 -13.5 -110.25q0 -50.25 15 -82.5q37.5 -80.25 170.25 -80.25q185.25 0 274.5 159zM694.5 606q-99.75 -144.75 -291.75 -144.75
q-273 0 -273 255q0 63.75 16.5 142.5q84.75 397.5 452.25 397.5q297.75 0 297.75 -262.5q0 -60.75 -15.75 -135l-82.5 -388.5h-66q-27 0 -42 19.5q-11.25 13.5 -11.25 32.25q0 6.75 1.5 14.25zM1084 68q-13 -29 -35 -48q-24 -20 -57 -20h-48l563 1344q13 29 35 48
q24 20 57 20h48zM1780.5 63q-135.75 -72 -316.5 -72q-298.5 0 -298.5 262.5q0 60.75 15.75 135q84.75 397.5 452.25 397.5q180.75 0 285 -72l-13.5 -63q-7.5 -38.25 -42.75 -38.25q-12 0 -26.25 3.75q-112.5 45 -229.5 45q-133.5 0 -206.25 -80.25q-60 -64.5 -87 -192.75
q-12.75 -59.25 -12.75 -105q0 -53.25 17.25 -87.75q39.75 -80.25 173.25 -80.25q117 0 247.5 45q16.5 3.75 28.5 3.75q28.5 0 28.5 -25.5q0 -5.25 -1.5 -12.75z" />
    <glyph glyph-name="uni2105" unicode="&#x2105;" horiz-adv-x="2160" 
d="M745.5 533.25q-135.75 -72 -316.5 -72q-298.5 0 -298.5 262.5q0 60.75 15.75 135q84.75 397.5 452.25 397.5q180.75 0 285 -72l-13.5 -63q-7.5 -38.25 -42.75 -38.25q-12 0 -26.25 3.75q-112.5 45 -229.5 45q-133.5 0 -206.25 -80.25q-60 -64.5 -87 -192.75
q-12.75 -59.25 -12.75 -105q0 -53.25 17.25 -87.75q39.75 -80.25 173.25 -80.25q117 0 247.5 45q16.5 3.75 28.5 3.75q28.5 0 28.5 -25.5q0 -5.25 -1.5 -12.75zM958 68q-13 -29 -35 -48q-24 -20 -57 -20h-48l563 1344q13 29 35 48q24 20 57 20h48zM1512 660.75
q-133.5 0 -206.25 -79.5q-60 -64.5 -87 -192.75q-12.75 -59.25 -12.75 -105q0 -53.25 17.25 -88.5q39.75 -79.5 173.25 -79.5t206.25 79.5q59.25 65.25 86.25 193.5q12.75 60 12.75 105.75q0 52.5 -16.5 87q-39.75 79.5 -173.25 79.5zM1539 786q297.75 0 297.75 -262.5
q0 -60.75 -15.75 -135q-84.75 -397.5 -451.5 -397.5q-298.5 0 -298.5 262.5q0 60.75 15.75 135q84.75 397.5 452.25 397.5z" />
    <glyph glyph-name="uni2106" unicode="&#x2106;" horiz-adv-x="2159" 
d="M745.5 533.25q-135.75 -72 -316.5 -72q-298.5 0 -298.5 262.5q0 60.75 15.75 135q84.75 397.5 452.25 397.5q180.75 0 285 -72l-13.5 -63q-7.5 -38.25 -42.75 -38.25q-12 0 -26.25 3.75q-112.5 45 -229.5 45q-133.5 0 -206.25 -80.25q-60 -64.5 -87 -192.75
q-12.75 -59.25 -12.75 -105q0 -53.25 17.25 -87.75q39.75 -80.25 173.25 -80.25q117 0 247.5 45q16.5 3.75 28.5 3.75q28.5 0 28.5 -25.5q0 -5.25 -1.5 -12.75zM958 68q-13 -29 -35 -48q-24 -20 -57 -20h-48l563 1344q13 29 35 48q24 20 57 20h48zM1599.75 135
q-99.75 -144 -291.75 -144q-228.75 0 -228.75 180q0 36.75 9 80.25l111.75 525.75h66q27 0 42.75 -19.5q11.25 -14.25 11.25 -33q0 -6.75 -1.5 -13.5l-94.5 -442.5q-5.25 -25.5 -5.25 -46.5q0 -106.5 136.5 -106.5q189.75 0 271.5 146.25l96 449.25q5.25 27 29.25 46.5
q23.25 19.5 50.25 19.5h66l-165 -777h-66q-27 0 -42.75 18.75q-10.5 14.25 -10.5 32.25q0 6.75 1.5 15z" />
    <glyph glyph-name="estimated" unicode="&#x212e;" horiz-adv-x="1065" 
d="M428 606h435l42 198q-43 78 -189 78q-150 0 -234 -80q-8 -8 -16 -18zM354 261q53 -107 238 -107q156 0 330 60q22 5 38 5q38 0 38 -34q0 -7 -2 -17l-18 -84q-181 -96 -422 -96q-398 0 -398 350q0 81 21 180q113 530 573 530q249 0 321 -155q30 -65 30 -164
q0 -91 -25 -210q-17 -81 -105 -81h-581z" />
    <glyph glyph-name="onethird" unicode="&#x2153;" horiz-adv-x="2041" 
d="M570 651h168q22 0 34 -16q9 -11 9 -25q0 -6 -1 -12l-10 -48h-500q-21 0 -34 15q-9 12 -9 26q0 6 1 12l10 47h221l140 656l-154 -155h-23q-26 0 -36 23q-5 9 -5 17q0 4 1 7q2 10 10 19l111 125q47 55 103 55h70q22 0 35 -15q8 -11 8 -25q0 -6 -1 -13zM943 68
q-13 -29 -35 -48q-24 -20 -57 -20h-48l563 1344q13 29 35 48q24 20 57 20h48zM1911 836q122 0 191 -60q56 -49 56 -127q0 -26 -6 -55q-27 -128 -143 -177q106 -34 106 -140q0 -27 -7 -58q-53 -249 -382 -249q-105 0 -243 54l7 35q5 24 26 40q19 16 42 16q133 -44 190 -44
q128 0 188 43q46 35 61 105q5 22 5 41q0 39 -22 61q-41 41 -170 41h-101l21 101h101q110 5 158 40q39 28 52 91q4 16 4 31q0 47 -37 74q-41 32 -120 32q-45 0 -182 -41q-23 0 -36 17q-9 12 -9 27q0 6 1 12l8 36q161 54 240 54h1z" />
    <glyph glyph-name="twothirds" unicode="&#x2154;" horiz-adv-x="2041" 
d="M270 550q-21 0 -34 15q-9 12 -9 26q0 6 1 12l5 24q20 91 104 164q53 46 176 115q127 71 174 110q83 69 100 151q4 17 4 31q0 47 -36 74q-42 32 -120 32q-63 0 -200 -41q-23 0 -36 17q-9 12 -9 27q0 6 1 12l8 36q161 54 258 54q121 0 189 -59q58 -50 58 -129q0 -25 -6 -54
q-36 -168 -268 -301q-149 -84 -167 -97q-82 -56 -105 -119l380 1q22 0 34 -16q9 -11 9 -25q0 -6 -1 -12l-10 -48h-500zM943 68q-13 -29 -35 -48q-24 -20 -57 -20h-48l563 1344q13 29 35 48q24 20 57 20h48zM1911 836q122 0 191 -60q56 -49 56 -127q0 -26 -6 -55
q-27 -128 -143 -177q106 -34 106 -140q0 -27 -7 -58q-53 -249 -382 -249q-105 0 -243 54l7 35q5 24 26 40q19 16 42 16q133 -44 190 -44q128 0 188 43q46 35 61 105q5 22 5 41q0 39 -22 61q-41 41 -170 41h-101l21 101h101q110 5 158 40q39 28 52 91q4 16 4 31q0 47 -37 74
q-41 32 -120 32q-45 0 -182 -41q-23 0 -36 17q-9 12 -9 27q0 6 1 12l8 36q161 54 240 54h1z" />
    <glyph glyph-name="equivalence" unicode="&#x2261;" horiz-adv-x="1159" 
d="M299 624q-27 0 -42 26q-8 17 -8 38q0 13 3 27l10 49h893q28 0 43 -26q7 -16 7 -36q0 -13 -3 -28l-10 -50h-893zM299 344q-27 0 -42 26q-8 17 -8 38q0 13 3 27l10 49h893q28 0 43 -26q7 -16 7 -36q0 -13 -3 -28l-10 -50h-893zM299 904q-27 0 -42 26q-8 17 -8 38q0 13 3 27
l10 49h893q28 0 43 -26q7 -16 7 -36q0 -13 -3 -28l-10 -50h-893z" />
    <glyph glyph-name="uniFB00" unicode="&#xfb00;" horiz-adv-x="1364" 
d="M514 868l-165 -780q-8 -37 -39 -62q-32 -26 -68 -26h-88l184 868h-54q-37 0 -56 26q-15 18 -15 43q0 9 2 19l17 80h142l4 20q45 208 173 293q110 74 320 74q97 0 194 -23l-18 -85q-15 -68 -100 -68q-58 10 -111 10q-126 0 -185 -37q-71 -44 -97 -164l-4 -20h506l4 20
q45 208 173 293q110 74 320 74q97 0 194 -23l-18 -85q-15 -68 -100 -68q-58 10 -111 10q-126 0 -185 -37q-71 -44 -97 -164l-4 -20h257q37 0 57 -26q15 -19 15 -44q0 -8 -2 -18l-18 -80h-345l-165 -780q-8 -37 -39 -62q-32 -26 -68 -26h-88l184 868h-506z" />
    <glyph glyph-name="uniFB03" unicode="&#xfb03;" horiz-adv-x="1869" 
d="M514 868l-165 -780q-8 -37 -39 -62q-32 -26 -68 -26h-88l184 868h-54q-37 0 -56 26q-15 18 -15 43q0 9 2 19l17 80h142l4 20q45 208 173 293q110 74 320 74q97 0 194 -23l-18 -85q-15 -68 -100 -68q-58 10 -111 10q-126 0 -185 -37q-71 -44 -97 -164l-4 -20h506l4 20
q45 208 173 293q110 74 320 74q97 0 194 -23l-18 -85q-15 -68 -100 -68q-58 10 -111 10q-126 0 -185 -37q-71 -44 -97 -164l-4 -20h653q37 0 57 -26q15 -19 15 -44q0 -8 -2 -18l-202 -948h-88q-36 0 -56 26q-15 18 -15 43q0 9 2 19l165 780h-565l-165 -780q-8 -37 -39 -62
q-32 -26 -68 -26h-88l184 868h-506zM1859 1325q7 36 39 62q31 26 67 26h88l-26 -125q-8 -36 -39 -62q-32 -26 -68 -26h-88z" />
    <glyph glyph-name="uniFB04" unicode="&#xfb04;" horiz-adv-x="1896" 
d="M514 868l-165 -780q-8 -37 -39 -62q-32 -26 -68 -26h-88l184 868h-54q-37 0 -56 26q-15 18 -15 43q0 9 2 19l17 80h142l4 20q45 208 173 293q110 74 320 74q97 0 194 -23l-18 -85q-15 -68 -100 -68q-58 10 -111 10q-126 0 -185 -37q-71 -44 -97 -164l-4 -20h506l4 20
q45 208 173 293q110 74 320 74q95 0 324 -23q27 -5 43 -32q13 -19 13 -43q0 -9 -2 -19l-204 -959q-16 -73 -16 -115q0 -53 24 -61q25 -8 58 -8q23 0 50 4q73 0 73 -51q0 -8 -2 -18l-18 -85q-81 -18 -159 -18q-24 0 -48 2q-100 7 -140 79q-20 34 -20 99q0 69 22 172l191 901
q-173 9 -224 9q-126 0 -185 -37q-71 -44 -97 -164l-4 -20h257q37 0 57 -26q15 -19 15 -44q0 -8 -2 -18l-18 -80h-345l-165 -780q-8 -37 -39 -62q-32 -26 -68 -26h-88l184 868h-506z" />
    <glyph glyph-name="uniFB05" unicode="&#xfb05;" horiz-adv-x="1495" 
d="M514 868l-165 -780q-8 -37 -39 -62q-32 -26 -68 -26h-88l184 868h-54q-37 0 -56 26q-15 18 -15 43q0 9 2 19l17 80h142l4 20q45 208 173 293q110 74 320 74q97 0 194 -23l-18 -85q-15 -68 -100 -68q-58 10 -111 10q-126 0 -185 -37q-71 -44 -97 -164l-4 -20h530l39 183
q8 37 39 62q32 26 68 26h88l-58 -271h329q36 0 57 -26q15 -19 15 -44q0 -9 -2 -18l-18 -80h-417l-109 -513q-8 -39 -8 -70q0 -65 35 -95q45 -36 171 -36q53 0 115 9q72 0 72 -49q0 -9 -2 -19l-18 -85q-106 -22 -203 -22q-211 0 -290 74q-62 58 -62 171q0 55 14 122l109 513
h-530z" />
    <glyph glyph-name="uniFB06" unicode="&#xfb06;" horiz-adv-x="1720" 
d="M606 881h-8q-86 0 -144 -45q-54 -40 -66 -98q-2 -11 -2 -20q0 -56 73 -81q2 -1 195 -39q132 -25 185 -79q52 -51 52 -137q0 -35 -9 -76l-2 -9q-29 -126 -140 -213q-123 -96 -296 -96q-217 0 -356 96l17 83q12 52 60 52q15 0 33 -5q151 -60 282 -60q86 0 150 45
q59 41 71 98q3 14 3 27q0 61 -69 89q-25 10 -193 42q-132 25 -186 73q-55 50 -55 137q0 33 8 73q27 127 133 213q119 97 292 97h8q93 -1 171 -20q-10 38 -10 81q0 15 1 31q3 15 5 28q24 113 125 182t228 69q286 0 377 -112l-58 -271h329q36 0 57 -26q15 -19 15 -44
q0 -9 -2 -18l-18 -80h-417l-109 -513q-8 -39 -8 -70q0 -65 35 -95q45 -36 171 -36q53 0 115 9q72 0 72 -49q0 -9 -2 -19l-18 -85q-106 -22 -203 -22q-211 0 -290 74q-62 58 -62 171q0 55 14 122l109 513h-51q-36 0 -56 26q-15 18 -15 43q0 9 2 19l17 80h139l38 178
q-35 64 -184 64q-85 0 -133 -35q-53 -39 -68 -107q-6 -29 -6 -57q0 -69 37 -128l-18 -83q-11 -52 -58 -52q-15 0 -34 6q-146 57 -273 59z" />
    <glyph glyph-name="uniEEC5" unicode="&#xeec5;" horiz-adv-x="1814" 
d="M700 881v-1q-146 -12 -230 -105q-80 -86 -116 -257q-17 -79 -17 -140q0 -71 23 -117q53 -107 231 -107q156 0 330 60q22 5 38 5q38 0 38 -34q0 -7 -2 -17l-18 -84q-181 -96 -422 -96q-398 0 -398 350q0 81 21 180q107 505 558 529v1q93 -1 171 -20q-10 38 -10 81
q0 15 1 31q3 15 5 28q24 113 125 182t228 69q286 0 377 -112l-58 -271h329q36 0 57 -26q15 -19 15 -44q0 -9 -2 -18l-18 -80h-417l-109 -513q-8 -39 -8 -70q0 -65 35 -95q45 -36 171 -36q53 0 115 9q72 0 72 -49q0 -9 -2 -19l-18 -85q-106 -22 -203 -22q-211 0 -290 74
q-62 58 -62 171q0 55 14 122l109 513h-47q-36 0 -56 26q-15 18 -15 43q0 9 2 19l17 80h135l38 178q-35 64 -184 64q-85 0 -133 -35q-53 -39 -68 -107q-6 -29 -6 -57q0 -69 37 -128l-18 -83q-11 -52 -58 -52q-15 0 -34 6q-146 57 -273 59z" />
    <glyph glyph-name="uniEEC8" unicode="&#xeec8;" horiz-adv-x="1851" 
d="M807 1036q37 0 57 -26q15 -19 15 -44q0 -8 -2 -18l-18 -80h-345l-165 -780q-8 -37 -39 -62q-32 -26 -68 -26h-88l184 868h-54q-37 0 -56 26q-15 18 -15 43q0 9 2 19l17 80h142l4 20q45 208 173 293q110 74 320 74q97 0 194 -23l-18 -85q-15 -68 -100 -68q-58 10 -111 10
q-126 0 -185 -37q-71 -44 -97 -164l-4 -20h257zM1663 518q17 80 17 141q0 70 -22 116q-53 107 -231 107t-275 -107q-80 -86 -116 -257q-18 -84 -18 -147q0 -67 20 -110q50 -107 227 -107q247 0 366 212zM1591 181q-133 -193 -389 -193q-364 0 -364 340q0 85 22 190
q113 530 603 530q397 0 397 -350q0 -81 -21 -180l-110 -518h-88q-36 0 -56 26q-15 18 -15 43q0 9 2 19zM1242 1229q8 36 40 62q33 26 72 26h92l-27 -125q-7 -36 -40 -62q-32 -26 -70 -26h-93zM1734 1104h-93q-38 0 -60 26q-16 20 -16 45q0 8 2 17l27 125h92q39 0 60 -26
q16 -19 16 -43q0 -9 -2 -19z" />
    <glyph glyph-name="uniEEC9" unicode="&#xeec9;" horiz-adv-x="1117" 
d="M1083 1325q7 36 39 62q31 26 67 26h88l-26 -125q-8 -36 -39 -62t-68 -26h-88zM985 868h-471l-165 -780q-8 -37 -39 -62q-32 -26 -68 -26h-88l184 868h-54q-37 0 -56 26q-15 18 -15 43q0 9 2 19l17 80h142l4 20q45 208 173 293q110 74 320 74q97 0 194 -23l-18 -85
q-15 -68 -100 -68q-58 10 -111 10q-126 0 -185 -37q-71 -44 -97 -164l-4 -20h559q37 0 57 -26q15 -19 15 -44q0 -8 -2 -18l-207 -970q-39 -187 -145 -274q-94 -78 -264 -91q-34 0 -54 24q-14 18 -14 41q0 9 2 18l17 80q126 0 185 37q72 44 97 165z" />
    <glyph glyph-name="uniEECA" unicode="&#xeeca;" horiz-adv-x="1522" 
d="M977 868h-463l-165 -780q-8 -37 -39 -62q-32 -26 -68 -26h-88l184 868h-54q-37 0 -56 26q-15 18 -15 43q0 9 2 19l17 80h142l4 20q45 208 173 293q110 74 320 74q97 0 194 -23l-18 -85q-15 -68 -100 -68q-58 10 -111 10q-126 0 -185 -37q-71 -44 -97 -164l-4 -20h551
q36 0 57 -26q15 -19 15 -44q0 -9 -2 -18l-20 -93q134 193 336 193q96 0 193 -23l-18 -85q-15 -68 -100 -68q-59 9 -138 9q-193 0 -313 -211l-123 -582q-8 -37 -40 -63q-31 -25 -67 -25h-88z" />
    </font>
</defs>
</svg>
