<?xml version="1.0" standalone="no"?>
<!DOCTYPE svg PUBLIC "-//W3C//DTD SVG 1.1//EN" "http://www.w3.org/Graphics/SVG/1.1/DTD/svg11.dtd" >
<svg xmlns="http://www.w3.org/2000/svg" xmlns:xlink="http://www.w3.org/1999/xlink" version="1.1">
<metadata>
Created by FontForge 20141024 at Tue Jun  2 15:00:41 2015
 By System Administrator
Smoolthan (c) Situjuh Font. 2014. All Rights Reserved
</metadata>
<defs>
<font id="Smoolthan-Medium" horiz-adv-x="0" >
  <font-face 
    font-family="Smoolthan"
    font-weight="500"
    font-stretch="normal"
    units-per-em="2048"
    panose-1="2 0 5 0 0 0 0 0 0 0"
    ascent="1638"
    descent="-410"
    x-height="1036"
    cap-height="1413"
    bbox="-1067 -433 3157 1803"
    underline-thickness="150"
    underline-position="-142"
    unicode-range="U+001D-FB06"
  />
<missing-glyph horiz-adv-x="1519" 
d="M875 1414q-123 -32 -201 -118q-26 -28 -69 -96q-51 -73 -72 -101q-65 -81 -106 -115q-66 -53 -141 -53q-59 0 -100 30q-48 34 -57 95q-1 15 -1 30q0 52 25 97q36 64 100 75q17 3 31 3q22 0 40 -6q33 -15 34 -57q-9 12 -23 12q-9 0 -19 -9t-10 -21q0 -29 29 -29h1
q31 0 48 34q8 17 8 36q0 17 -8 35q-13 36 -47 53q-35 19 -86 19q-13 0 -26 -1q-109 -9 -175 -90v177h825zM50 899q64 -65 171 -65q15 0 31 2q89 6 206 125q33 33 92 97q52 59 73 78q53 50 109 50q31 0 61 -15q89 -40 180 -40q61 0 122 18q122 36 227 133q-13 -163 -120 -302
q-20 -25 -226 -237h-53q-41 0 -68 32l-87 -87h157q-191 -212 -224 -378q-10 -46 -10 -86q0 -66 24 -116q38 -80 135 -112h-195v695l36 19v33h-641v156zM285 688q76 0 108 -32q33 -32 33 -108v-552h-376v692h235zM483 691h35v-695h-35v695zM1129 -4q204 46 340 166v-166h-340
zM1469 177q-130 -73 -245 -87q-23 -2 -47 -2q-80 0 -126 37q-45 39 -45 106q0 25 7 56q25 117 156 285q61 77 87 116h153v-48h60v-463zM1294 743q100 164 100 355q0 41 -5 85q-15 132 -18 132q6 51 98 78v-650h-175zM656 1033q-72 0 -122 -42q-43 -39 -51 -94q-3 -14 -3 -27
q0 -37 21 -63q25 -34 73 -34q8 0 16 1q59 5 77 60q4 15 4 26q0 37 -35 61q-29 22 -29 48q0 5 1 10q6 32 48 41v13z" />
    <glyph glyph-name=".notdef" horiz-adv-x="1519" 
d="M875 1414q-123 -32 -201 -118q-26 -28 -69 -96q-51 -73 -72 -101q-65 -81 -106 -115q-66 -53 -141 -53q-59 0 -100 30q-48 34 -57 95q-1 15 -1 30q0 52 25 97q36 64 100 75q17 3 31 3q22 0 40 -6q33 -15 34 -57q-9 12 -23 12q-9 0 -19 -9t-10 -21q0 -29 29 -29h1
q31 0 48 34q8 17 8 36q0 17 -8 35q-13 36 -47 53q-35 19 -86 19q-13 0 -26 -1q-109 -9 -175 -90v177h825zM50 899q64 -65 171 -65q15 0 31 2q89 6 206 125q33 33 92 97q52 59 73 78q53 50 109 50q31 0 61 -15q89 -40 180 -40q61 0 122 18q122 36 227 133q-13 -163 -120 -302
q-20 -25 -226 -237h-53q-41 0 -68 32l-87 -87h157q-191 -212 -224 -378q-10 -46 -10 -86q0 -66 24 -116q38 -80 135 -112h-195v695l36 19v33h-641v156zM285 688q76 0 108 -32q33 -32 33 -108v-552h-376v692h235zM483 691h35v-695h-35v695zM1129 -4q204 46 340 166v-166h-340
zM1469 177q-130 -73 -245 -87q-23 -2 -47 -2q-80 0 -126 37q-45 39 -45 106q0 25 7 56q25 117 156 285q61 77 87 116h153v-48h60v-463zM1294 743q100 164 100 355q0 41 -5 85q-15 132 -18 132q6 51 98 78v-650h-175zM656 1033q-72 0 -122 -42q-43 -39 -51 -94q-3 -14 -3 -27
q0 -37 21 -63q25 -34 73 -34q8 0 16 1q59 5 77 60q4 15 4 26q0 37 -35 61q-29 22 -29 48q0 5 1 10q6 32 48 41v13z" />
    <glyph glyph-name=".null" 
 />
    <glyph glyph-name=".null" 
 />
    <glyph glyph-name="nonmarkingreturn" horiz-adv-x="1200" 
 />
    <glyph glyph-name="space" unicode=" " horiz-adv-x="533" 
 />
    <glyph glyph-name="space" unicode="&#xa0;" horiz-adv-x="533" 
 />
    <glyph glyph-name="exclam" unicode="!" horiz-adv-x="667" 
d="M190 1324q0 37 26 63q26 25 62 25h145l-48 -984q0 -37 -26 -63q-26 -25 -62 -25h-49zM214 124q0 37 27 62q27 26 66 26h92v-124q0 -37 -27 -63q-27 -25 -65 -25h-93v124z" />
    <glyph glyph-name="quotedbl" unicode="&#x22;" horiz-adv-x="825" 
d="M152 1387q0 45 60 45h100l-34 -504q0 -45 -60 -45h-33zM578 883h-33q-60 0 -60 45l-33 503h99q60 0 60 -45z" />
    <glyph glyph-name="numbersign" unicode="#" horiz-adv-x="1066" 
d="M233 541l58 284h-200q-27 0 -47 19q-19 20 -19 47v36h287l86 417q7 29 25 48q20 20 53 20h48l-100 -485h265l86 417q7 29 25 48q20 20 53 20h48l-100 -485h117q28 0 48 -19q18 -20 18 -47v-36h-204l-59 -284h197q28 0 47 -19t19 -47v-36h-284l-76 -371q-7 -29 -25 -48
q-20 -20 -53 -20h-48l90 439h-265l-76 -371q-7 -29 -25 -48q-20 -20 -53 -20h-48l90 439h-120q-28 0 -47 20q-19 19 -19 46v36h208zM403 825l-59 -284h266l58 284h-265z" />
    <glyph glyph-name="dollar" unicode="$" horiz-adv-x="1158" 
d="M608 798q14 -2 29 -4q198 -30 288 -96q126 -93 126 -289v-12q-4 -193 -156 -307q-120 -89 -287 -100v-109q0 -36 -25 -62q-26 -26 -63 -26h-48v198q-187 14 -390 87v59q0 39 27 66t65 27q162 -51 298 -63v473l-24 4q-200 30 -288 90q-131 89 -131 283t145 309
q121 96 298 104v108q0 37 26 62q25 26 62 26h48v-199q179 -16 373 -85v-60q0 -39 -27 -66t-65 -27q-152 47 -281 61v-452zM472 1255q-95 -8 -166 -58q-92 -67 -92 -180q0 -123 132 -170q26 -9 126 -26v434zM608 166q87 9 156 53q102 66 102 177q0 135 -131 189
q-34 14 -127 32v-451z" />
    <glyph glyph-name="percent" unicode="%" horiz-adv-x="1470" 
d="M623 938.25q0 -238.5 -293 -238.5q-294 0 -294 238.5v168.75q0 238.5 294 238.5q293 0 293 -238.5v-168.75zM518 1107q0 76.5 -36 115.5q-45 48 -152 48t-152 -48q-36 -39 -36 -115.5v-168.75q0 -77.25 36 -115.5q45 -48.75 152 -48.75t152 48.75q36 38.25 36 115.5
v168.75zM618 68q-7 -29 -25 -48q-20 -20 -53 -20h-48l277 1344q7 29 25 48q20 20 53 20h48zM1351 318q0 -238.5 -293 -238.5q-294 0 -294 238.5v168.75q0 238.5 294 238.5q293 0 293 -238.5v-168.75zM1246 486.75q0 76.5 -36 115.5q-45 48 -152 48t-152 -48
q-36 -39 -36 -115.5v-168.75q0 -77.25 36 -115.5q45 -48.75 152 -48.75t152 48.75q36 38.25 36 115.5v168.75z" />
    <glyph glyph-name="ampersand" unicode="&#x26;" horiz-adv-x="1236" 
d="M594 1431q132 0 382 -89v-60q0 -39 -27 -66t-66 -27q-214 67 -289 67q-131 0 -211 -53q-91 -60 -91 -174q0 -146 128 -191q51 -18 282 -38q193 -16 281 -79q128 -92 128 -317v-404h-97q-36 0 -62 25q-26 26 -26 63v59q-202 -156 -411 -160h-13q-193 0 -312 90
q-143 109 -143 327q0 248 234 330q-174 81 -174 295q0 193 149 303q134 99 337 99h1zM340 601q-108 -55 -108 -197q0 -127 80 -194q71 -60 188 -60h11q109 2 238 70q134 71 177 157v27q0 114 -62 167q-79 68 -284 70q-162 0 -240 -40z" />
    <glyph glyph-name="quotesingle" unicode="'" horiz-adv-x="549" 
d="M166 1386q0 45 60 45h100l-34 -503q0 -45 -60 -45h-33z" />
    <glyph glyph-name="parenleft" unicode="(" horiz-adv-x="758" 
d="M212 872q0 348 145 547q136 187 362 192v-132q-149 -25 -240 -150q-98 -135 -98 -457v-517q0 -322 98 -457q91 -125 240 -150v-132q-226 5 -362 192q-145 199 -145 547v517z" />
    <glyph glyph-name="parenright" unicode=")" horiz-adv-x="775" 
d="M499 355q0 -348 -145 -547q-136 -187 -362 -192v132q149 25 240 150q98 135 98 457v517q0 322 -98 457q-91 125 -240 150v132q226 -5 362 -192q145 -199 145 -547v-517z" />
    <glyph glyph-name="asterisk" unicode="*" horiz-adv-x="1010" 
d="M526 1105l221 103q21 9 39 9q74 0 96 -139l-322 -66l167 -178q23 -28 23 -56q0 -59 -105 -113l-163 285l-118 -213q-27 -43 -66 -43q-50 0 -119 69l221 243l-239 46q-66 17 -66 78q0 42 32 106l300 -135l-30 242v10q0 84 107 84q26 0 58 -5z" />
    <glyph glyph-name="plus" unicode="+" horiz-adv-x="1230" 
d="M496 624h-344q-27 0 -47 26q-19 28 -19 65v49h410v344q0 28 26 48q27 18 64 18h50v-410h343q28 0 48 -26q18 -27 18 -64v-50h-409v-343q0 -27 -26 -47q-28 -19 -65 -19h-49v409z" />
    <glyph glyph-name="comma" unicode="," horiz-adv-x="536" 
d="M61 -352q99 161 99 476q0 37 27 62q27 26 65 26h93v-31q0 -259 -180 -498q-26 -35 -50 -35h-54z" />
    <glyph glyph-name="hyphen" unicode="-" horiz-adv-x="928" 
d="M200 441q-27 0 -47 26q-19 28 -19 65v49h536q28 0 48 -26q18 -27 18 -64v-50h-536z" />
    <glyph glyph-name="hyphen" unicode="&#xad;" horiz-adv-x="928" 
d="M200 441q-27 0 -47 26q-19 28 -19 65v49h536q28 0 48 -26q18 -27 18 -64v-50h-536z" />
    <glyph glyph-name="period" unicode="." horiz-adv-x="526" 
d="M152 124q0 37 27 62q27 26 65 26h93v-124q0 -37 -27 -63q-27 -25 -66 -25h-92v124z" />
    <glyph glyph-name="slash" unicode="/" horiz-adv-x="662" 
d="M264 68q-7 -29 -25 -48q-20 -20 -53 -20h-48l277 1344q7 29 25 48q20 20 53 20h48z" />
    <glyph glyph-name="zero" unicode="0" horiz-adv-x="1240" 
d="M1132 518q0 -530 -489 -530q-490 0 -490 530v375q0 530 490 530q489 0 489 -530v-375zM956 893q0 171 -60 257q-75 106 -253 106t-253 -106q-61 -86 -61 -257v-375q0 -171 61 -257q75 -107 253 -107t253 107q60 86 60 257v375z" />
    <glyph glyph-name="one" unicode="1" horiz-adv-x="974" 
d="M595 168h280q36 0 62 -26t26 -62v-80h-833q-36 0 -62 25q-26 26 -26 63v79h368v1093l-202 -258h-38q-44 0 -69 38q-14 21 -14 40q0 16 9 32l142 208q59 92 152 92h117q36 0 62 -25q26 -26 26 -63v-1156z" />
    <glyph glyph-name="two" unicode="2" horiz-adv-x="1128" 
d="M191 0q-36 0 -62 25q-26 26 -26 63v41q0 151 114 273q72 76 252 191q186 118 251 184q114 114 114 252q0 114 -90 174q-81 53 -212 53q-104 0 -318 -67q-39 0 -66 27t-27 66v60q250 89 411 89q202 0 336 -97q151 -110 151 -305q0 -281 -340 -502q-218 -141 -244 -162
q-117 -94 -133 -198l634 1q36 0 62 -26t26 -62v-80h-833z" />
    <glyph glyph-name="three" unicode="3" horiz-adv-x="1128" 
d="M486 1431q203 0 338 -99q148 -110 148 -303q0 -214 -174 -295q234 -73 234 -330q0 -416 -547 -416q-175 0 -425 90v59q0 39 27 66t66 27q237 -74 332 -74q213 0 298 73q64 57 64 175q0 116 -64 169q-83 68 -298 68h-169v169h169q181 8 248 66q54 47 54 153q0 114 -91 174
q-80 53 -211 53q-75 0 -289 -67q-39 0 -66 27t-27 66v60q250 89 382 89h1z" />
    <glyph glyph-name="four" unicode="4" horiz-adv-x="1161" 
d="M950 511h88q37 0 64 -27q27 -26 27 -64v-80h-179v-340h-96q-37 0 -63 25q-25 26 -25 63v252h-585q-38 0 -64 27q-27 27 -27 64v102l504 787q59 92 152 92h116q37 0 63 -25q25 -26 25 -63v-813zM289 511h477v749z" />
    <glyph glyph-name="five" unicode="5" horiz-adv-x="1218" 
d="M345 856q169 78 307 78q252 0 362 -107q111 -110 111 -365q0 -471 -517 -474q-197 0 -447 90v60q0 38 27 65t65 27q238 -74 355 -74q333 2 333 306q0 172 -61 234t-228 62q-160 0 -307 -73v-62q0 -36 -25 -62q-26 -26 -63 -26h-96v789q0 37 25 63q26 25 63 25h876v-79
q0 -38 -26 -64q-27 -27 -65 -27h-689v-386z" />
    <glyph glyph-name="six" unicode="6" horiz-adv-x="1233" 
d="M1122 462q0 -474 -477 -474h-6q-250 1 -365 112q-117 113 -117 362v498q2 246 131 358q121 105 376 105q175 0 425 -90v-60q0 -38 -27 -66q-27 -27 -66 -27q-214 68 -332 68q-172 0 -244 -63q-78 -67 -78 -234v-99q186 82 307 82q252 0 361 -107q112 -110 112 -365z
M342 462q0 -162 63 -231q67 -74 234 -75q167 1 235 75q63 69 63 231q0 172 -61 234t-227 62q-139 0 -307 -76v-220z" />
    <glyph glyph-name="seven" unicode="7" horiz-adv-x="1007" 
d="M859 1412q38 0 65 -27q26 -26 26 -64v-102l-549 -1219h-209l560 1241h-680q-38 0 -64 27q-27 27 -27 65v79h878z" />
    <glyph glyph-name="eight" unicode="8" horiz-adv-x="1321" 
d="M1008 734q225 -75 225 -336q0 -410 -548 -410q-547 0 -547 410q0 261 225 336q-165 77 -165 315q0 189 152 292q134 90 335 90q202 0 335 -90q152 -103 152 -292q0 -238 -164 -315zM983 226q65 55 65 172q0 118 -65 172q-83 71 -298 71q-214 0 -297 -71q-65 -54 -65 -172
q0 -117 65 -172q83 -70 297 -70q215 0 298 70zM934 886q54 53 54 163q0 107 -95 163q-80 48 -207 49q-127 0 -208 -48q-95 -56 -95 -164q0 -110 54 -163q69 -68 248 -76q179 8 249 76z" />
    <glyph glyph-name="nine" unicode="9" horiz-adv-x="1199" 
d="M114 948q0 475 478 475h4q251 -2 366 -113q117 -113 117 -362v-498q-2 -246 -131 -357q-122 -105 -376 -105q-175 0 -425 90v59q0 39 27 66t66 27q214 -67 332 -67q172 0 244 62q78 67 78 234v100q-187 -82 -307 -82q-252 0 -361 107q-112 109 -112 364zM894 948
q0 163 -63 232q-68 73 -235 75q-167 -2 -234 -75q-63 -69 -63 -232q0 -171 61 -234q60 -62 227 -62q138 0 307 76v220z" />
    <glyph glyph-name="colon" unicode=":" horiz-adv-x="368" 
d="M62 124q0 37 27 62q27 26 65 26h93v-124q0 -37 -27 -63q-27 -25 -66 -25h-92v124zM62 742q0 36 27 62t66 26h92v-125q0 -36 -27 -62t-65 -26h-93v125z" />
    <glyph glyph-name="semicolon" unicode=";" horiz-adv-x="381" 
d="M-23 -352q99 161 99 476q0 37 27 62q27 26 65 26h93v-31q0 -259 -180 -498q-26 -35 -50 -35h-54zM76 742q0 36 27 62t65 26h93v-125q0 -36 -27 -62t-66 -26h-92v125z" />
    <glyph glyph-name="semicolon" unicode="&#x37e;" horiz-adv-x="381" 
d="M-23 -352q99 161 99 476q0 37 27 62q27 26 65 26h93v-31q0 -259 -180 -498q-26 -35 -50 -35h-54zM76 742q0 36 27 62t65 26h93v-125q0 -36 -27 -62t-66 -26h-92v125z" />
    <glyph glyph-name="less" unicode="&#x3c;" horiz-adv-x="1039" 
d="M-23 757l960 484q10 -41 10 -75q0 -105 -97 -137l-626 -313l626 -314q97 -32 97 -137q0 -34 -10 -75l-960 484v83z" />
    <glyph glyph-name="equal" unicode="=" horiz-adv-x="1114" 
d="M115 787q-27 0 -47 26q-19 28 -19 65v49h893q28 0 48 -26q18 -28 18 -65v-49h-893zM115 441q-27 0 -47 26q-19 28 -19 65v49h893q28 0 48 -26q18 -27 18 -64v-50h-893z" />
    <glyph glyph-name="greater" unicode="&#x3e;" horiz-adv-x="1064" 
d="M1003 674l-960 -484q-10 41 -10 75q0 105 97 137l626 313l-626 314q-97 32 -97 137q0 34 10 75l960 -484v-83z" />
    <glyph glyph-name="question" unicode="?" horiz-adv-x="951" 
d="M367 428q0 -37 -26 -63q-26 -25 -62 -25h-49l-25 381q0 38 26 64q27 27 64 27q390 0 390 205q0 113 -93 180q-82 59 -200 59q-168 0 -382 -67q-39 0 -66 27t-27 66v60q250 89 475 89q199 0 332 -105q145 -115 145 -309q0 -213 -159 -301q-88 -48 -332 -83zM204 124
q0 37 27 62q27 26 65 26h93v-124q0 -37 -27 -63q-27 -25 -66 -25h-92v124z" />
    <glyph glyph-name="at" unicode="@" horiz-adv-x="1661" 
d="M1081 509q0 315 -272 315t-272 -315q0 -150 49 -223q63 -92 216 -92q214 0 279 183v132zM1545 -108q0 -74 -74 -97q-349 -88 -662 -88q-387 0 -568 211q-168 196 -168 591t168 591q181 211 568 211t568 -211q168 -196 168 -591q0 -175 -73 -290q-62 -98 -159 -131
q-41 -14 -78 -14q-44 0 -82 20q-72 38 -72 123q-81 -167 -302 -167q-395 0 -395 459t425 459q424 0 424 -459v-219q0 -44 24 -60q11 -7 22 -7q15 0 32 13q78 61 78 273q0 662 -580 662q-581 0 -581 -662t581 -662q319 0 736 115v-70z" />
    <glyph glyph-name="A" unicode="A" horiz-adv-x="1243" 
d="M572 1250l-221 -761h504l-221 761h-62zM302 321l-61 -212q-28 -109 -137 -109h-91l382 1315q28 108 137 108h142q109 0 137 -109l382 -1314h-91q-109 0 -138 110l-61 211h-601z" />
    <glyph glyph-name="B" unicode="B" horiz-adv-x="1273" 
d="M85 0v1029q0 193 159 304q142 99 346 99h4q206 -1 347 -100q158 -111 158 -303q0 -209 -174 -295q117 -37 180 -137q54 -87 54 -193q0 -191 -110 -287q-135 -117 -457 -117h-507zM270 642v-474h322q217 0 308 67q74 56 74 169q0 114 -74 170q-91 68 -308 68h-322z
M531 809q221 0 309 59q74 50 74 161q0 113 -100 175q-87 53 -221 53h-5q-131 0 -217 -53q-101 -61 -101 -175v-220h261z" />
    <glyph glyph-name="C" unicode="C" horiz-adv-x="1145" 
d="M36 897q0 252 159 396q153 139 409 139q225 0 475 -90v-60q0 -38 -28 -65q-27 -27 -65 -27q-215 67 -382 67q-171 0 -275 -94q-108 -98 -108 -266v-374q0 -169 108 -266q104 -94 275 -94q167 0 382 67q38 0 65 -27q28 -27 28 -65v-60q-250 -90 -475 -90q-256 0 -409 139
q-159 143 -159 396v374z" />
    <glyph glyph-name="D" unicode="D" horiz-adv-x="1356" 
d="M1205 535q0 -253 -159 -396q-153 -139 -408 -139h-568v897q0 252 159 396q153 139 409 139q255 0 408 -139q159 -144 159 -396v-362zM638 168q170 0 274 94q108 97 108 265v370q0 168 -108 266q-104 94 -274 94q-171 0 -275 -94q-108 -98 -108 -266v-729h383z" />
    <glyph glyph-name="E" unicode="E" horiz-adv-x="1133" 
d="M25 897q0 252 159 396q153 139 408 139q226 0 476 -90v-60q0 -38 -28 -65q-27 -27 -65 -27q-214 67 -383 67q-170 0 -274 -94q-108 -98 -108 -266v-88h677q37 0 62 -25q26 -26 26 -63v-79h-765v-119q0 -169 108 -266q104 -94 274 -94q169 0 383 67q38 0 65 -27
q28 -27 28 -65v-60q-250 -90 -476 -90q-255 0 -408 139q-159 143 -159 396v374z" />
    <glyph glyph-name="F" unicode="F" horiz-adv-x="1149" 
d="M79 897q0 252 159 396q153 139 409 139q225 0 475 -90v-60q0 -38 -27 -65q-28 -27 -66 -27q-215 67 -382 67q-171 0 -275 -94q-108 -98 -108 -266v-88h677q37 0 62 -25q26 -26 26 -63v-79h-765v-550q0 -38 -27 -65t-66 -27h-92v897z" />
    <glyph glyph-name="G" unicode="G" horiz-adv-x="1266" 
d="M1130 0h-96q-37 0 -63 26q-25 26 -25 62v101q-149 -201 -412 -201q-249 0 -379 139q-128 137 -128 396v374q0 252 159 396q153 139 408 139q226 0 476 -90v-60q0 -38 -28 -65q-27 -27 -65 -27q-214 67 -383 67q-170 0 -274 -94q-108 -98 -108 -266v-374q0 -360 322 -360
q227 0 412 202v257q0 36 25 62q26 26 63 26h96v-710z" />
    <glyph glyph-name="H" unicode="H" horiz-adv-x="1301" 
d="M279 88q0 -36 -26 -62t-62 -26h-97v1413h97q36 0 62 -26t26 -62v-535h668v535q0 36 26 62t62 26h97v-1413h-97q-36 0 -62 26t-26 62v534h-668v-534z" />
    <glyph glyph-name="I" unicode="I" horiz-adv-x="449" 
d="M94 1325q0 36 26 62t62 26h97v-1325q0 -36 -26 -62t-62 -26h-97v1325z" />
    <glyph glyph-name="J" unicode="J" horiz-adv-x="918" 
d="M579 1325q0 36 25 62q26 26 63 26h96v-890q0 -253 -158 -396q-154 -139 -409 -139q-85 0 -186 16v76q0 37 26 63t63 26q55 -6 97 -6q170 0 274 94q109 97 109 266v802z" />
    <glyph glyph-name="K" unicode="K" horiz-adv-x="1193" 
d="M581 790q101 1 134 23q40 26 68 126l117 409q17 65 101 65h95l-150 -550q-22 -81 -74 -114q69 -46 115 -217l145 -532h-95q-84 0 -101 64l-130 457q-20 68 -54 87q-27 14 -109 14h-364v-534q0 -36 -26 -62t-62 -26h-97v1413h97q36 0 62 -26t26 -62v-535h302z" />
    <glyph glyph-name="L" unicode="L" horiz-adv-x="1168" 
d="M70 1420h92q39 0 66 -27t27 -65v-805q0 -169 108 -266q104 -94 275 -94q167 0 382 67q38 0 66 -27q27 -27 27 -65v-60q-250 -90 -475 -90q-256 0 -409 139q-159 143 -159 396v897z" />
    <glyph glyph-name="M" unicode="M" horiz-adv-x="1791" 
d="M93 0v1328q0 38 27 65t65 27h95q94 -1 131 -95l447 -1153l448 1153q37 94 131 95h95q38 0 65 -27t27 -65v-1328h-92q-39 0 -66 27t-27 65v1118l-436 -1124q-33 -86 -112 -86h-65q-79 0 -112 86l-436 1124v-1118q0 -38 -27 -65t-66 -27h-92z" />
    <glyph glyph-name="N" unicode="N" horiz-adv-x="1397" 
d="M93 1328q0 38 27 65t65 27h190l668 -1248v1248h185v-1328q0 -38 -27 -65t-65 -27h-190l-668 1248v-1156q0 -38 -27 -65t-66 -27h-92v1328z" />
    <glyph glyph-name="O" unicode="O" horiz-adv-x="1324" 
d="M1171 523q0 -253 -159 -396q-153 -139 -409 -139q-255 0 -408 139q-159 143 -159 396v374q0 252 159 396q153 139 408 139q256 0 409 -139q159 -144 159 -396v-374zM329 1163q-108 -98 -108 -266v-374q0 -169 108 -266q104 -94 274 -94q171 0 275 94q108 97 108 266v374
q0 168 -108 266q-104 94 -275 94q-170 0 -274 -94z" />
    <glyph glyph-name="P" unicode="P" horiz-adv-x="1171" 
d="M272 0h-185v1029q0 193 159 304q142 99 346 99h4q206 -1 347 -100q158 -111 158 -303q0 -444 -568 -444h-261v-585zM272 753h261q383 0 383 276q0 113 -100 175q-87 53 -221 53h-5q-131 0 -217 -53q-101 -61 -101 -175v-276z" />
    <glyph glyph-name="Q" unicode="Q" horiz-adv-x="1324" 
d="M329 1163q-108 -98 -108 -266v-374q0 -169 108 -266q104 -94 275 -94q170 0 274 94q108 97 108 266v374q0 168 -108 266q-104 94 -274 94q-171 0 -275 -94zM521 -8q-199 19 -326 135q-159 143 -159 396v374q0 252 159 396q153 139 409 139q255 0 408 -139
q159 -144 159 -396v-374q0 -253 -159 -396q-119 -108 -300 -132l96 -214h-120q-72 0 -101 64z" />
    <glyph glyph-name="R" unicode="R" horiz-adv-x="1206" 
d="M272 753h261q383 0 383 276q0 113 -100 175q-87 53 -221 53h-5q-131 0 -217 -53q-101 -61 -101 -175v-276zM998 371l167 -371h-120q-72 0 -101 64l-138 307l-50 112q-39 102 -198 102h-286v-585h-185v1029q0 193 159 304q142 99 346 99h4q206 -1 347 -100
q158 -111 158 -303q0 -300 -255 -397q61 -38 134 -222z" />
    <glyph glyph-name="S" unicode="S" horiz-adv-x="1140" 
d="M760 220q102 65 102 176q0 135 -131 189q-58 24 -287 59q-200 30 -288 90q-131 89 -131 283q0 195 145 309q133 106 332 106q225 0 475 -90v-60q0 -38 -27 -65t-65 -27q-215 67 -383 67q-117 0 -200 -60q-92 -67 -92 -180q0 -122 132 -169q44 -16 291 -53
q198 -30 288 -97q126 -92 126 -289v-12q-4 -193 -156 -306q-138 -103 -338 -103q-225 0 -475 90v60q0 38 27 65t65 27q215 -67 383 -67q119 0 207 57z" />
    <glyph glyph-name="T" unicode="T" horiz-adv-x="976" 
d="M96 1245q-36 0 -62 26q-26 25 -26 62v80h919q36 0 62 -26t26 -62v-80h-411v-1157q0 -36 -26 -62t-62 -26h-97v1245h-323z" />
    <glyph glyph-name="U" unicode="U" horiz-adv-x="1237" 
d="M1096 391q0 -192 -158 -303q-141 -99 -347 -100q-207 0 -350 99q-159 111 -159 304v1022h185v-1022q0 -114 101 -175q86 -53 217 -53h5q134 0 221 53q100 62 100 175v1022h185v-1022z" />
    <glyph glyph-name="V" unicode="V" horiz-adv-x="1184" 
d="M641 163l324 1140q29 109 138 109h91l-382 -1313q-28 -110 -137 -110h-142q-109 0 -137 108l-382 1315h91q109 0 137 -108l326 -1141h73z" />
    <glyph glyph-name="W" unicode="W" horiz-adv-x="2083" 
d="M556 163l321 1140q27 109 132 109h89q105 0 132 -108l321 -1141l321 1140q28 109 133 109h88l-369 -1313q-28 -110 -134 -110h-78q-105 0 -132 108l-326 1159l-326 -1157q-28 -110 -133 -110h-78q-106 0 -133 108l-370 1315h88q106 0 133 -108z" />
    <glyph glyph-name="X" unicode="X" horiz-adv-x="1178" 
d="M716 813q40 26 68 126l117 409q17 65 101 65h95l-149 -550q-22 -81 -75 -114q69 -46 115 -217l145 -532h-95q-84 0 -101 64l-130 457q-20 68 -54 87q-27 14 -108 14h-125q-82 0 -109 -14q-34 -19 -53 -87l-130 -457q-18 -64 -102 -64h-95l145 532q47 171 115 217
q-52 33 -74 114l-150 550h95q84 0 102 -65l116 -409q28 -100 68 -126q34 -22 134 -23q101 1 134 23z" />
    <glyph glyph-name="Y" unicode="Y" horiz-adv-x="1136" 
d="M657 88q0 -36 -26 -62t-62 -26h-97v623q-155 1 -208 42q-61 46 -106 216l-145 532h95q84 0 102 -65l130 -456q19 -69 53 -87q27 -15 109 -15h125q81 0 108 15q34 18 54 87l130 456q17 65 101 65h95l-145 -532q-44 -163 -104 -211q-56 -43 -209 -47v-535z" />
    <glyph glyph-name="Z" unicode="Z" horiz-adv-x="1100" 
d="M954 1412q38 0 64 -26q27 -27 27 -65v-102l-808 -1049h716q38 0 64 -26q27 -27 27 -65v-79h-915q-38 0 -64 27q-27 26 -27 64v102l808 1049h-717q-38 0 -64 27q-27 26 -27 64v79h916z" />
    <glyph glyph-name="bracketleft" unicode="[" horiz-adv-x="531" 
d="M100 -384v1995h331v-133h-162v-1729h162v-133h-331z" />
    <glyph glyph-name="backslash" unicode="\" horiz-adv-x="603" 
d="M100 1412h48q33 0 53 -20q18 -19 25 -48l277 -1344h-48q-33 0 -53 20q-18 19 -25 48z" />
    <glyph glyph-name="bracketright" unicode="]" horiz-adv-x="531" 
d="M100 -384v133h162v1729h-162v133h331v-1995h-331z" />
    <glyph glyph-name="asciicircum" unicode="^" horiz-adv-x="996" 
d="M730 805l-233 406l-231 -406h-166l356 621h83l357 -621h-166z" />
    <glyph glyph-name="underscore" unicode="_" horiz-adv-x="1237" 
d="M166 -222q-27 0 -47 26q-19 28 -19 65v49h971q28 0 48 -26q18 -27 18 -64v-50h-971z" />
    <glyph glyph-name="grave" unicode="`" horiz-adv-x="623" 
d="M100 1301q19 125 87 125q23 0 50 -13l286 -251l-48 -56z" />
    <glyph glyph-name="a" unicode="a" horiz-adv-x="1169" 
d="M871 518q0 171 -60 257q-75 107 -253 107t-253 -107q-61 -86 -61 -257q0 -173 57 -257q72 -107 249 -107q247 0 321 212v152zM871 181q-92 -193 -348 -193q-455 0 -455 530t490 530q489 0 489 -530v-518h-88q-36 0 -62 26q-26 25 -26 62v93z" />
    <glyph glyph-name="b" unicode="b" horiz-adv-x="1179" 
d="M266 518q0 -171 61 -257q75 -107 253 -107t253 107q60 86 60 257q0 173 -57 257q-72 107 -249 107q-246 0 -321 -212v-152zM266 855q93 193 348 193q455 0 455 -530t-489 -530q-490 0 -490 530v895h88q36 0 62 -26t26 -62v-470z" />
    <glyph glyph-name="c" unicode="c" horiz-adv-x="1001" 
d="M959 84q-160 -96 -401 -96q-490 0 -490 530t490 530q241 0 401 -96v-84q0 -51 -47 -51q-16 0 -36 5q-162 60 -318 60q-178 0 -253 -107q-61 -86 -61 -257t61 -257q75 -107 253 -107q156 0 318 60q20 5 36 5q47 0 47 -51v-84z" />
    <glyph glyph-name="d" unicode="d" horiz-adv-x="1180" 
d="M871 824q-160 58 -313 58q-173 0 -249 -101q-65 -86 -65 -263q0 -178 61 -263q73 -101 245 -101q246 0 321 212v458zM871 181q-92 -193 -348 -193q-455 0 -455 530t490 530q170 0 313 -54v331q0 36 26 62t62 26h88v-1413h-88q-36 0 -62 26q-26 25 -26 62v93z" />
    <glyph glyph-name="e" unicode="e" horiz-adv-x="1065" 
d="M788 606q-11 137 -52 195q-59 81 -207 81q-150 0 -217 -80q-53 -64 -63 -196h539zM69 518q0 530 460 530q249 0 354 -155q85 -125 85 -374q0 -81 -88 -81h-631q8 -284 310 -284q156 0 318 60q20 5 36 5q47 0 47 -51v-84q-160 -96 -401 -96q-490 0 -490 530z" />
    <glyph glyph-name="f" unicode="f" horiz-adv-x="682" 
d="M587 1036q37 0 62 -26q26 -25 26 -62v-80h-345v-780q0 -37 -26 -62q-26 -26 -62 -26h-88v868h-54q-37 0 -62 26q-26 25 -26 62v80h142v20q0 208 110 293q95 74 305 74q97 0 198 -23v-85q0 -68 -85 -68q-60 10 -113 10q-126 0 -177 -37q-62 -44 -62 -164v-20h257z" />
    <glyph glyph-name="g" unicode="g" horiz-adv-x="1168" 
d="M871 518q0 171 -60 257q-75 107 -253 107t-253 -107q-61 -86 -61 -257q0 -173 57 -257q72 -107 249 -107q246 0 321 212v152zM871 181q-92 -193 -348 -193q-455 0 -455 530t490 530q489 0 489 -530v-375q0 -530 -489 -530q-242 0 -402 97v83q0 52 47 52q15 0 36 -6
q162 -60 319 -60q178 0 253 107q60 86 60 257v38z" />
    <glyph glyph-name="h" unicode="h" horiz-adv-x="1144" 
d="M1009 0h-88q-36 0 -62 26q-26 25 -26 62v590q0 204 -218 204q-246 0 -321 -211v-583q0 -37 -26 -62q-26 -26 -62 -26h-88v1413h88q36 0 62 -26t26 -62v-470q93 193 348 193q367 0 367 -347v-701z" />
    <glyph glyph-name="i" unicode="i" horiz-adv-x="408" 
d="M116 948q0 37 26 62q26 26 62 26h88v-948q0 -37 -26 -62q-26 -26 -62 -26h-88v948zM116 1325q0 36 26 62t62 26h88v-125q0 -36 -26 -62t-62 -26h-88v125z" />
    <glyph glyph-name="j" unicode="j" horiz-adv-x="435" 
d="M295 -22q0 -187 -87 -274q-78 -78 -245 -91q-34 0 -59 24q-24 25 -24 59v80q126 0 177 37q62 44 62 165v970q0 37 26 62q26 26 62 26h88v-1058zM119 1325q0 36 26 62t62 26h88v-125q0 -36 -26 -62q-25 -26 -62 -26h-88v125z" />
    <glyph glyph-name="k" unicode="k" horiz-adv-x="1036" 
d="M120 1413h88q36 0 62 -26t26 -62v-723h258q90 0 112 56l105 309q23 69 111 69h88l-123 -363q-31 -91 -70 -118q60 -43 89 -128l145 -427h-88q-88 0 -109 63l-107 314q-19 57 -93 57h-318v-346q0 -37 -26 -62q-26 -26 -62 -26h-88v1413z" />
    <glyph glyph-name="l" unicode="l" horiz-adv-x="532" 
d="M113 1413h88q36 0 62 -26t26 -62v-978q0 -162 46 -176q26 -8 59 -8q23 0 50 4q85 0 85 -69v-85q-77 -18 -155 -18q-24 0 -48 2q-102 7 -157.5 78.5t-55.5 271.5v1066z" />
    <glyph glyph-name="m" unicode="m" horiz-adv-x="1676" 
d="M738 678q0 119 -47 164q-40 40 -136 40q-193 0 -268 -211v-583q0 -37 -26 -62q-26 -26 -62 -26h-88v1036h88q36 0 62 -26q26 -25 26 -62v-93q93 193 295 193q260 0 317 -213q115 213 310 213q333 0 333 -347v-701h-88q-37 0 -62 26q-26 25 -26 62v590q0 119 -47 164
q-41 40 -137 40q-193 0 -268 -211v-583q0 -37 -25 -62q-26 -26 -63 -26h-88v678z" />
    <glyph glyph-name="n" unicode="n" horiz-adv-x="1134" 
d="M1002 0h-88q-36 0 -62 26q-26 25 -26 62v590q0 204 -218 204q-246 0 -321 -212v-582q0 -37 -26 -62q-26 -26 -62 -26h-88v1036h88q36 0 62 -26q26 -25 26 -62v-93q93 193 348 193q367 0 367 -347v-701z" />
    <glyph glyph-name="o" unicode="o" horiz-adv-x="1151" 
d="M558 881q-178 0 -253 -106q-61 -86 -61 -257t61 -258q75 -106 253 -106t253 106q60 87 60 258t-60 257q-75 106 -253 106zM1047 518q0 -530 -489 -530q-490 0 -490 530t490 530q489 0 489 -530z" />
    <glyph glyph-name="p" unicode="p" horiz-adv-x="1194" 
d="M288 212q161 -58 314 -58q173 0 248 100q65 87 65 264q0 178 -61 263q-72 100 -245 100q-252 0 -321 -194v-475zM288 855q93 193 348 193q455 0 455 -530t-489 -530q-170 0 -314 54v-331q0 -36 -26 -62t-62 -26h-88v1413h88q36 0 62 -26t26 -62v-93z" />
    <glyph glyph-name="q" unicode="q" horiz-adv-x="1171" 
d="M871 518q0 171 -60 257q-75 106 -253 106t-253 -106q-61 -86 -61 -257q0 -173 57 -258q72 -106 249 -106q253 0 321 195v169zM871 180q-92 -192 -348 -192q-455 0 -455 530t490 530q489 0 489 -530v-895h-88q-36 0 -62 26t-26 62v469z" />
    <glyph glyph-name="r" unicode="r" horiz-adv-x="840" 
d="M111 1036h88q36 0 62 -26t26 -62v-93q93 193 295 193q96 0 198 -23v-85q0 -68 -85 -68q-61 9 -140 9q-193 0 -268 -211v-582q0 -37 -26 -63q-26 -25 -62 -25h-88v1036z" />
    <glyph glyph-name="s" unicode="s" horiz-adv-x="907" 
d="M787 951v-83q0 -52 -47 -52q-15 0 -36 6q-163 59 -293 59q-86 0 -135 -45q-45 -40 -45 -98q0 -72 93 -101q2 -1 203 -39q137 -25 202 -79q88 -72 88 -213v-9q-2 -126 -95 -213q-102 -96 -275 -96q-217 0 -377 96v83q0 52 48 52q15 0 35 -5q163 -60 294 -60q86 0 141 45
q50 41 50 98q0 82 -91 116q-27 10 -202 42q-137 25 -201 73q-92 69 -92 210q0 127 88 213q98 97 271 97q216 0 376 -97z" />
    <glyph glyph-name="t" unicode="t" horiz-adv-x="813" 
d="M121 868q-36 0 -62 26q-26 25 -26 62v80h145v183q0 37 26 62q26 26 62 26h88v-271h329q36 0 62 -26t26 -62v-80h-417v-513q0 -121 62 -165q52 -36 178 -36q53 0 113 9q85 0 85 -68v-85q-101 -22 -198 -22q-211 0 -306 74q-110 85 -110 293v513h-57z" />
    <glyph glyph-name="u" unicode="u" horiz-adv-x="1138" 
d="M824 180q-92 -192 -348 -192q-367 0 -367 347v701h88q36 0 62 -26t26 -62v-590q0 -204 218 -204q253 0 321 195v599q0 36 26 62t62 26h88v-1036h-88q-36 0 -62 25q-26 26 -26 63v92z" />
    <glyph glyph-name="v" unicode="v" horiz-adv-x="937" 
d="M91 1036q93 0 117 -90l243 -816l243 816q24 90 117 90h90l-282 -946q-24 -90 -117 -90h-102q-93 0 -117 90l-282 946h90z" />
    <glyph glyph-name="w" unicode="w" horiz-adv-x="1538" 
d="M97 1036q93 0 117 -90l198 -816l181 816q24 90 116 90h76q92 0 116 -90l206 -816l173 816q24 90 117 90h69l-191 -946q-24 -90 -117 -90h-103q-92 0 -116 90l-199 792l-160 -792q-24 -90 -117 -90h-102q-93 0 -117 90l-237 946h90z" />
    <glyph glyph-name="x" unicode="x" horiz-adv-x="967" 
d="M430 434q-74 0 -93 -58l-105 -310q-23 -66 -111 -66h-88l145 427q29 85 90 127q-40 28 -70 119l-124 363h88q88 0 112 -72l105 -307q21 -54 93 -55h22q72 1 93 55l105 307q24 72 112 72h88l-124 -363q-30 -91 -70 -119q61 -42 90 -127l145 -427h-88q-88 0 -111 66
l-105 310q-19 58 -93 58h-106z" />
    <glyph glyph-name="y" unicode="y" horiz-adv-x="1141" 
d="M999 143q0 -530 -489 -530q-242 0 -402 96v83q0 52 48 52q15 0 35 -5q162 -60 319 -60q178 0 253 107q60 86 60 257v37q-92 -192 -348 -192q-367 0 -367 347v701h88q36 0 62 -26t26 -62v-590q0 -204 218 -204q246 0 321 212v582q0 36 26 62t62 26h88v-893z" />
    <glyph glyph-name="z" unicode="z" horiz-adv-x="874" 
d="M731 1036q36 0 62 -26t26 -62v-80l-562 -701h474q36 0 62 -25q26 -26 26 -63v-79h-688q-36 0 -62 25q-26 26 -26 63v79l562 701h-474q-36 0 -62 26q-26 25 -26 62v80h688z" />
    <glyph glyph-name="braceleft" unicode="{" horiz-adv-x="798" 
d="M393 573q85 -118 85 -305q0 -57 -7 -119q-13 -106 -13 -178q0 -116 32 -150q58 -71 150 -71q27 0 58 6v-132q-40 -8 -77 -8q-142 0 -236 115q-85 118 -85 305q0 57 8 120q13 104 13 176q0 116 -33 151q-41 51 -100 66l-88 3v131l88 3q59 15 100 66q33 35 33 151
q0 72 -13 177q-8 62 -8 119q0 187 85 305q94 115 236 115q37 0 77 -8v-132q-31 6 -58 6q-92 0 -150 -71q-32 -34 -32 -149q0 -73 13 -178q8 -63 8 -119q0 -188 -86 -306q-20 -25 -43 -45q23 -19 43 -44z" />
    <glyph glyph-name="bar" unicode="|" horiz-adv-x="336" 
d="M100 1608q0 37 26 63q26 25 62 25h48v-1883q0 -37 -25 -63q-26 -25 -63 -25h-48v1883z" />
    <glyph glyph-name="braceright" unicode="}" horiz-adv-x="798" 
d="M448 617q-23 20 -43 45q-86 118 -86 306q0 56 8 119q13 105 13 178q0 115 -32 149q-58 71 -150 71q-27 0 -58 -6v132q40 8 77 8q142 0 236 -115q85 -118 85 -305q0 -57 -8 -119q-13 -105 -13 -177q0 -116 33 -151q41 -51 100 -66l88 -3v-131l-88 -3q-59 -15 -100 -66
q-33 -35 -33 -151q0 -72 13 -176q8 -63 8 -120q0 -187 -85 -305q-94 -115 -236 -115q-37 0 -77 8v132q31 -6 58 -6q92 0 150 71q32 34 32 150q0 72 -12 178q-8 62 -8 119q0 187 85 305q20 25 43 44z" />
    <glyph glyph-name="asciitilde" unicode="~" horiz-adv-x="1009" 
d="M337 696q-51 0 -107 -28q-27 -13 -57 -39l-4 -4q-17 -17 -40 -17q-16 0 -29 8v96q64 73 123 99t114 26q63 0 172 -44t163 -44q51 0 107 28q27 13 57 39l4 4q17 17 40 17q16 0 29 -8v-96q-64 -73 -123 -99t-114 -26q-57 0 -169 44t-166 44z" />
    <glyph glyph-name="exclamdown" unicode="&#xa1;" horiz-adv-x="902" 
d="M753 -288q0 -37 -26 -63q-26 -25 -62 -25h-145l48 984q0 37 26 63q26 25 62 25h49zM729 912q0 -37 -27 -62q-27 -26 -66 -26h-92v124q0 37 27 63q27 25 65 25h93v-124z" />
    <glyph glyph-name="cent" unicode="&#xa2;" horiz-adv-x="1091" 
d="M462 172l146 710h-18q-178 0 -253 -107q-61 -86 -61 -257t61 -257q44 -63 125 -89zM571 154h19q156 0 318 60q20 5 36 5q47 0 47 -51v-84q-160 -96 -401 -96q-27 0 -53 2l-23 -110q-7 -29 -25 -48q-20 -20 -53 -20h-48l40 194q-328 78 -328 512q0 530 490 530q27 0 53 -1
l22 109q7 29 25 48q20 20 53 20h48l-39 -188q136 -22 239 -84v-84q0 -51 -47 -51q-16 0 -36 5q-96 35 -190 50z" />
    <glyph glyph-name="sterling" unicode="&#xa3;" horiz-adv-x="1287" 
d="M286 701q-3 18 -7 36q-27 132 -27 236q0 228 131 320q143 139 379 139q175 0 425 -90v-60q0 -38 -27 -65q-28 -27 -66 -27q-215 67 -332 67q-151 0 -245 -94q-76 -62 -76 -214q0 -90 27 -212q4 -18 7 -36h518q28 0 48 -26q18 -27 18 -64v-50h-567q1 -26 1 -51
q1 -21 1 -41q0 -181 -81 -301h659q36 0 62 -26t26 -62v-80h-1087v94q0 69 85 69q150 85 150 284q0 34 -4 71q0 21 -1 43h-137q-27 0 -47 26q-19 28 -19 65v49h186z" />
    <glyph glyph-name="currency" unicode="&#xa4;" horiz-adv-x="1114" 
d="M564 1009q-140 0 -199 -80q-48 -64 -48 -193t48 -194q59 -80 199 -80t199 80q48 65 48 194t-48 193q-59 80 -199 80zM909 521l51 -51q19 -19 19 -48q0 -6 -1 -13q-9 -39 -39 -70l-41 -41l-97 96q-91 -57 -237 -57q-152 0 -244 63l-48 -48q-19 -19 -48 -19q-6 0 -13 1
q-39 9 -70 39l-41 41l115 115q-36 85 -36 207q0 142 49 233l-73 72q-20 20 -20 50q0 6 1 12q9 37 39 68l41 41l126 -126q87 49 222 49q134 0 222 -48l-6 6l63 64q20 20 50 20q6 0 12 -1q37 -9 68 -39l41 -41l-118 -118q53 -94 53 -242q0 -128 -40 -215z" />
    <glyph glyph-name="yen" unicode="&#xa5;" horiz-adv-x="1302" 
d="M559 532v91q-155 1 -208 42q-61 46 -106 216l-145 532h95q84 0 102 -65l130 -456q19 -69 53 -87q27 -15 109 -15h125q81 0 108 15q34 18 54 87l130 456q17 65 101 65h95l-145 -532q-44 -163 -104 -211q-56 -43 -209 -47v-91h270q28 0 48 -26q18 -28 18 -65v-49h-336v-117
h270q28 0 48 -26q18 -27 18 -64v-50h-336v-47q0 -36 -26 -62t-62 -26h-97v135h-270q-27 0 -47 26q-19 28 -19 65v49h336v117h-270q-27 0 -47 26q-19 28 -19 65v49h336z" />
    <glyph glyph-name="brokenbar" unicode="&#xa6;" horiz-adv-x="336" 
d="M100 1038q0 15.9102 26 27.0898q26 10.75 62 10.75h48v-809.677q0 -15.9092 -25 -27.0889q-26 -10.75 -63 -10.75h-48v809.676zM100 529.321q0 15.9092 26 27.0889q26 10.75 62 10.75h48v-809.676q0 -15.9102 -25 -27.0898q-26 -10.75 -63 -10.75h-48v809.677z" />
    <glyph glyph-name="section" unicode="&#xa7;" horiz-adv-x="1111" 
d="M888 249q5 -3 10 -7q113 -82 113 -257v-11q-4 -172 -139 -273q-123 -91 -302 -91q-200 0 -423 80v53q0 34 24 58t58 24q192 -59 341 -59q106 0 185 50q91 58 91 157q0 121 -117 169q-52 21 -256 52q-178 27 -257 81q-116 79 -116 252q0 174 129 275l-12 8
q-117 79 -117 252q0 174 129 276q119 94 296 94q201 0 424 -80v-54q0 -34 -24 -58q-25 -24 -58 -24q-192 60 -342 60q-104 0 -178 -53q-82 -60 -82 -161q0 -109 118 -151q39 -14 259 -47q176 -27 257 -86q112 -82 112 -258v-11q-4 -162 -123 -260zM691 320q34 12 64 32
q91 58 91 157q0 120 -117 168q-51 21 -256 53q-11 2 -22 3q-58 -12 -104 -46q-82 -59 -82 -160q0 -109 117 -151q40 -14 260 -47q26 -4 49 -9z" />
    <glyph glyph-name="dieresis" unicode="&#xa8;" horiz-adv-x="718" 
d="M100 1229q0 36 27 62t66 26h92v-125q0 -36 -27 -62t-65 -26h-93v125zM618 1104h-93q-38 0 -65 26t-27 62v125h92q39 0 66 -26t27 -62v-125z" />
    <glyph glyph-name="copyright" unicode="&#xa9;" horiz-adv-x="1682" 
d="M496 818q0 151 95 237q91 83 244 83q135 0 285 -54v-36q0 -55 -56 -55q-128 40 -229 40q-102 0 -164 -56q-65 -58 -65 -159v-224q0 -101 65 -159q62 -56 164 -56q101 0 229 40q56 0 56 -56v-35q-150 -54 -285 -54q-153 0 -244 83q-95 86 -95 237v224zM808 1402
q336 0 492 -183q145 -170 145 -513q0 -344 -145 -513q-156 -183 -492 -183q-337 0 -493 183q-145 169 -145 513q0 343 145 513q156 183 493 183zM808 1301q-523 0 -523 -595t523 -595q522 0 522 595t-522 595z" />
    <glyph glyph-name="ordfeminine" unicode="&#xaa;" horiz-adv-x="846" 
d="M629 1095q0 102 -39 154q-50 64 -167 64q-118 0 -167 -64q-40 -52 -40 -154q0 -104 37 -154q48 -65 165 -65q163 0 211 128v91zM629 893q-60 -116 -229 -116q-300 0 -300 318t323 318t323 -318v-311h-58q-24 0 -41 16q-18 15 -18 37v56z" />
    <glyph glyph-name="guillemotleft" unicode="&#xab;" horiz-adv-x="813" 
d="M399 334q27 -47 27 -201l-326 356v82l326 356q0 -154 -27 -201l-134 -196zM686 334q27 -47 27 -201l-326 356v82l326 356q0 -154 -27 -201l-134 -196z" />
    <glyph glyph-name="logicalnot" unicode="&#xac;" horiz-adv-x="980" 
d="M740 624h-574q-27 0 -47 26q-19 28 -19 65v49h780v-366q0 -27 -26 -47q-28 -19 -65 -19h-49v292z" />
    <glyph glyph-name="registered" unicode="&#xae;" horiz-adv-x="1475" 
d="M738 1402q336 0 492 -183q145 -170 145 -513q0 -344 -145 -513q-156 -183 -492 -183q-337 0 -493 183q-145 169 -145 513q0 343 145 513q156 183 493 183zM738 1301q-523 0 -523 -595t523 -595q522 0 522 595t-522 595zM524 273h-112v622q0 116 96 184q85 59 208 59h4
q124 0 209 -60q95 -67 95 -183q0 -181 -153 -240q36 -23 81 -134l111 -248h-72q-44 0 -62 39l-113 253q-23 62 -119 62h-173v-354zM524 728h158q231 0 231 167q0 68 -61 105q-52 33 -133 33t-134 -32q-61 -37 -61 -106v-167z" />
    <glyph glyph-name="macron" unicode="&#xaf;" horiz-adv-x="1096" 
d="M166 1130q-27 0 -47 26q-19 28 -19 65v49h830q28 0 48 -26q18 -27 18 -64v-50h-830z" />
    <glyph glyph-name="degree" unicode="&#xb0;" horiz-adv-x="816" 
d="M408 1362q-112 0 -159 -67q-38 -54 -38 -161q0 -108 38 -163q47 -67 159 -67t160 67q37 55 37 163q0 107 -37 161q-48 67 -160 67zM716 1134q0 -334 -308 -334t-308 334q0 333 308 333t308 -333z" />
    <glyph glyph-name="plusminus" unicode="&#xb1;" horiz-adv-x="1159" 
d="M510 624h-344q-27 0 -47 26q-19 28 -19 65v49h410v344q0 28 26 48q27 18 64 18h50v-410h343q28 0 48 -26q18 -27 18 -64v-50h-409v-343q0 -27 -26 -47q-28 -19 -65 -19h-49v409zM166 0q-27 0 -47 26q-19 28 -19 65v49h893q28 0 48 -26q18 -27 18 -64v-50h-893z" />
    <glyph glyph-name="uni00B2" unicode="&#xb2;" horiz-adv-x="753" 
d="M153 550q-21 0 -37 15q-16 16 -16 38v24q0 91 69 164q43 46 151 115q112 71 151 110q68 69 68 151q0 69 -54 105q-49 32 -127 32q-63 0 -191 -41q-23 0 -40 17q-16 16 -16 39v36q150 54 247 54q121 0 201 -59q91 -66 91 -183q0 -168 -204 -301q-131 -84 -146 -97
q-71 -56 -80 -119l380 1q22 0 37 -16q16 -15 16 -37v-48h-500z" />
    <glyph glyph-name="uni00B3" unicode="&#xb3;" horiz-adv-x="784" 
d="M356 1409q122 0 203 -60q89 -66 89 -182q0 -128 -105 -177q141 -43 141 -198q0 -249 -329 -249q-105 0 -255 54v35q0 24 17 40q16 16 39 16q142 -44 199 -44q128 0 179 43q39 35 39 105t-39 102q-50 41 -179 41h-101v101h101q109 5 149 40q33 28 33 91q0 69 -55 105
q-48 32 -127 32q-45 0 -173 -41q-23 0 -40 17q-16 16 -16 39v36q150 54 229 54h1z" />
    <glyph glyph-name="acute" unicode="&#xb4;" horiz-adv-x="623" 
d="M148 1106l-48 56l286 251q27 13 50 13q68 0 87 -125z" />
    <glyph glyph-name="mu" unicode="&#xb5;" horiz-adv-x="1091" 
d="M100 1036h88q36 0 62 -26t26 -62v-590q0 -204 218 -204q253 0 321 195v599q0 36 26 62t62 26h88v-1036h-88q-36 0 -62 25q-26 26 -26 63v92q-92 -192 -348 -192q-113 0 -191 33v-278h-88q-36 0 -62 26t-26 62v1205z" />
    <glyph glyph-name="paragraph" unicode="&#xb6;" horiz-adv-x="1191" 
d="M941 88q0 -36 -20 -62t-48 -26h-75v1270h-162v-1182q0 -36 -20 -62t-48 -26h-75v690q-37 -6 -79 -6q-178 0 -253 106q-61 87 -61 258t61 257q75 106 253 106h3v2h674v-75q0 -28 -26 -48t-62 -20h-62v-1182z" />
    <glyph glyph-name="periodcentered" unicode="&#xb7;" horiz-adv-x="357" 
d="M149.596 628.982q0 31.4482 22.9492 52.6982q22.9492 22.0986 55.248 22.0986h79.0479v-105.396q0 -31.4492 -22.9492 -53.5488q-22.9492 -21.249 -56.0986 -21.249h-78.1973v105.397z" />
    <glyph glyph-name="periodcentered" unicode="&#x2219;" horiz-adv-x="357" 
d="M149.596 628.982q0 31.4482 22.9492 52.6982q22.9492 22.0986 55.248 22.0986h79.0479v-105.396q0 -31.4492 -22.9492 -53.5488q-22.9492 -21.249 -56.0986 -21.249h-78.1973v105.397z" />
    <glyph glyph-name="cedilla" unicode="&#xb8;" horiz-adv-x="581" 
d="M370 2l-38 -58q149 -74 149 -172q0 -52 -43 -112q-54 -50 -130 -50q-87 0 -203 68l-5 51v4q0 27 25 29h4q7 0 17 -2q95 -38 150 -38q41 0 60 21q7 16 7 31q0 71 -153 115l61 113h99z" />
    <glyph glyph-name="uni00B9" unicode="&#xb9;" horiz-adv-x="753" 
d="M432 651h168q22 0 37 -16q16 -15 16 -37v-48h-500q-21 0 -37 15q-16 16 -16 38v47h221v656l-121 -155h-23q-26 0 -41 23q-9 13 -9 24q0 10 6 19l85 125q35 55 91 55h70q22 0 38 -15q15 -15 15 -38v-693z" />
    <glyph glyph-name="ordmasculine" unicode="&#xba;" horiz-adv-x="846" 
d="M413.803 998.959q-117.475 0 -166.973 -63.5967q-40.2588 -51.5986 -40.2588 -154.194t40.2588 -154.793q49.498 -63.5977 166.973 -63.5977q117.476 0 166.974 63.5977q39.5986 52.1973 39.5986 154.793t-39.5986 154.194q-49.498 63.5967 -166.974 63.5967z
M736.53 781.168q0 -317.986 -322.728 -317.986q-323.387 0 -323.387 317.986q0 317.987 323.387 317.987q322.728 0 322.728 -317.987zM138.5 497q-13.5 0 -23.5 26q-9.5 28 -9.5 65v49h485.5q14 0 24 -26q9 -27 9 -64v-50h-485.5z" />
    <glyph glyph-name="guillemotright" unicode="&#xbb;" horiz-adv-x="813" 
d="M261 530l-134 196q-27 47 -27 201l326 -356v-82l-326 -356q0 154 27 201zM548 530l-134 196q-27 47 -27 201l326 -356v-82l-326 -356q0 154 27 201z" />
    <glyph glyph-name="onequarter" unicode="&#xbc;" horiz-adv-x="2079" 
d="M432 651h168q22 0 37 -16q16 -15 16 -37v-48h-500q-21 0 -37 15q-16 16 -16 38v47h221v656l-121 -155h-23q-26 0 -41 23q-9 13 -9 24q0 10 6 19l85 125q35 55 91 55h70q22 0 38 -15q15 -15 15 -38v-693zM929 68q-7 -29 -25 -48q-20 -20 -53 -20h-48l277 1344q7 29 25 48
q20 20 53 20h48zM1872 307h53q22 0 38 -17q16 -15 16 -38v-48h-107v-204h-58q-22 0 -37 15q-15 16 -15 38v151h-351q-23 0 -39 16t-16 39v61l302 472q36 55 92 55h69q22 0 38 -15q15 -15 15 -38v-487zM1475 307h287v449z" />
    <glyph glyph-name="onehalf" unicode="&#xbd;" horiz-adv-x="2009" 
d="M432 651h168q22 0 37 -16q16 -15 16 -37v-48h-500q-21 0 -37 15q-16 16 -16 38v47h221v656l-121 -155h-23q-26 0 -41 23q-9 13 -9 24q0 10 6 19l85 125q35 55 91 55h70q22 0 38 -15q15 -15 15 -38v-693zM929 68q-7 -29 -25 -48q-20 -20 -53 -20h-48l277 1344q7 29 25 48
q20 20 53 20h48zM1409 0q-21 0 -37 15q-16 16 -16 38v24q0 91 69 164q43 46 151 115q112 71 151 110q68 69 68 151q0 69 -54 105q-49 32 -127 32q-63 0 -191 -41q-23 0 -40 17q-16 16 -16 39v36q150 54 247 54q121 0 201 -59q91 -66 91 -183q0 -168 -204 -301
q-131 -84 -146 -97q-71 -56 -80 -119l380 1q22 0 37 -16q16 -15 16 -37v-48h-500z" />
    <glyph glyph-name="threequarters" unicode="&#xbe;" horiz-adv-x="2110" 
d="M356 1409q122 0 203 -60q89 -66 89 -182q0 -128 -105 -177q141 -43 141 -198q0 -249 -329 -249q-105 0 -255 54v35q0 24 17 40q16 16 39 16q142 -44 199 -44q128 0 179 43q39 35 39 105t-39 102q-50 41 -179 41h-101v101h101q109 5 149 40q33 28 33 91q0 69 -55 105
q-48 32 -127 32q-45 0 -173 -41q-23 0 -40 17q-16 16 -16 39v36q150 54 229 54h1zM960 68q-7 -29 -25 -48q-20 -20 -53 -20h-48l277 1344q7 29 25 48q20 20 53 20h48zM1903 307h53q22 0 38 -17q16 -15 16 -38v-48h-107v-204h-58q-22 0 -37 15q-15 16 -15 38v151h-351
q-23 0 -39 16t-16 39v61l302 472q36 55 92 55h69q22 0 38 -15q15 -15 15 -38v-487zM1506 307h287v449z" />
    <glyph glyph-name="questiondown" unicode="&#xbf;" horiz-adv-x="1152" 
d="M1016 608q0 37 26 63q26 25 62 25h49l25 -381q0 -38 -26 -64q-27 -27 -64 -27q-390 0 -390 -205q0 -113 93 -180q82 -59 200 -59q168 0 382 67q39 0 66 -27t27 -66v-60q-250 -89 -475 -89q-199 0 -332 105q-145 115 -145 309q0 213 159 301q88 48 332 83zM1179 912
q0 -37 -27 -62q-27 -26 -65 -26h-93v124q0 37 27 63q27 25 66 25h92v-124z" />
    <glyph glyph-name="Agrave" unicode="&#xc0;" horiz-adv-x="1243" 
d="M572 1250l-221 -761h504l-221 761h-62zM302 321l-61 -212q-28 -109 -137 -109h-91l382 1315q28 108 137 108h142q109 0 137 -109l382 -1314h-91q-109 0 -138 110l-61 211h-601zM321 1678q19 125 87 125q23 0 50 -13l286 -251l-48 -56z" />
    <glyph glyph-name="Aacute" unicode="&#xc1;" horiz-adv-x="1243" 
d="M572 1250l-221 -761h504l-221 761h-62zM302 321l-61 -212q-28 -109 -137 -109h-91l382 1315q28 108 137 108h142q109 0 137 -109l382 -1314h-91q-109 0 -138 110l-61 211h-601zM510 1483l-48 56l286 251q27 13 50 13q68 0 87 -125z" />
    <glyph glyph-name="Acircumflex" unicode="&#xc2;" horiz-adv-x="1243" 
d="M572 1250l-221 -761h504l-221 761h-62zM302 321l-61 -212q-28 -109 -137 -109h-91l382 1315q28 108 137 108h142q109 0 137 -109l382 -1314h-91q-109 0 -138 110l-61 211h-601zM604 1626l-274 -143l-49 56q131 114 286 251h73l286 -251l-48 -56z" />
    <glyph glyph-name="Atilde" unicode="&#xc3;" horiz-adv-x="1243" 
d="M572 1250l-221 -761h504l-221 761h-62zM302 321l-61 -212q-28 -109 -137 -109h-91l382 1315q28 108 137 108h142q109 0 137 -109l382 -1314h-91q-109 0 -138 110l-61 211h-601zM912 1620q-90 -108 -189 -108q-58 0 -119 38q-82 50 -153 50q-70 0 -129 -50l-27 74
q84 98 178 98q59 0 123 -39q78 -47 147 -47q77 0 142 58z" />
    <glyph glyph-name="Adieresis" unicode="&#xc4;" horiz-adv-x="1243" 
d="M572 1250l-221 -761h504l-221 761h-62zM302 321l-61 -212q-28 -109 -137 -109h-91l382 1315q28 108 137 108h142q109 0 137 -109l382 -1314h-91q-109 0 -138 110l-61 211h-601zM344 1606q0 36 27 62t66 26h92v-125q0 -36 -27 -62t-65 -26h-93v125zM862 1481h-93
q-38 0 -65 26t-27 62v125h92q39 0 66 -26t27 -62v-125z" />
    <glyph glyph-name="Aring" unicode="&#xc5;" horiz-adv-x="1243" 
d="M572 1250l-221 -761h504l-221 761h-62zM302 321l-61 -212q-28 -109 -137 -109h-91l382 1315q28 108 137 108h142q109 0 137 -109l382 -1314h-91q-109 0 -138 110l-61 211h-601zM730.5 1737.5q52.5 -52.5 52.5 -127.5q0 -74 -52.5 -127t-127.5 -53t-127.5 53t-52.5 127
q0 75 52.5 127.5t127.5 52.5t127.5 -52.5zM603 1694q-35 0 -59 -24.5t-24 -59.5q0 -34 24 -58.5t59 -24.5t59.5 24.5t24.5 58.5q0 35 -24.5 59.5t-59.5 24.5z" />
    <glyph glyph-name="AE" unicode="&#xc6;" horiz-adv-x="1884" 
d="M1220 1423q58 9 123 9q226 0 476 -90v-60q0 -38 -28 -65q-27 -27 -65 -27q-214 67 -383 67q-170 0 -274 -94q-108 -98 -108 -266v-88h677q37 0 62 -25q26 -26 26 -63v-79h-765v-119q0 -169 108 -266q104 -94 274 -94q169 0 383 67q38 0 65 -27q28 -27 28 -65v-60
q-250 -90 -476 -90q-255 0 -408 139q-89 80 -128 194h-505l-61 -212q-28 -109 -137 -109h-91l382 1315q28 108 137 108h688zM893 1250h-321l-221 -761h426q-1 17 -1 34v374q0 216 117 353z" />
    <glyph glyph-name="Ccedilla" unicode="&#xc7;" horiz-adv-x="1145" 
d="M628 -12l-29 -44q149 -74 149 -172q0 -52 -43 -112q-54 -50 -130 -50q-87 0 -203 68l-5 51v4q0 27 25 29h4q7 0 17 -2q95 -38 150 -38q41 0 60 21q7 16 7 31q0 71 -153 115l55 102q-206 17 -337 136q-159 143 -159 396v374q0 252 159 396q153 139 409 139q225 0 475 -90
v-60q0 -38 -28 -65q-27 -27 -65 -27q-215 67 -382 67q-171 0 -275 -94q-108 -98 -108 -266v-374q0 -169 108 -266q104 -94 275 -94q167 0 382 67q38 0 65 -27q28 -27 28 -65v-60q-237 -85 -451 -90z" />
    <glyph glyph-name="Egrave" unicode="&#xc8;" horiz-adv-x="1133" 
d="M25 897q0 252 159 396q153 139 408 139q226 0 476 -90v-60q0 -38 -28 -65q-27 -27 -65 -27q-214 67 -383 67q-170 0 -274 -94q-108 -98 -108 -266v-88h677q37 0 62 -25q26 -26 26 -63v-79h-765v-119q0 -169 108 -266q104 -94 274 -94q169 0 383 67q38 0 65 -27
q28 -27 28 -65v-60q-250 -90 -476 -90q-255 0 -408 139q-159 143 -159 396v374zM265 1678q19 125 87 125q23 0 50 -13l286 -251l-48 -56z" />
    <glyph glyph-name="Eacute" unicode="&#xc9;" horiz-adv-x="1133" 
d="M25 897q0 252 159 396q153 139 408 139q226 0 476 -90v-60q0 -38 -28 -65q-27 -27 -65 -27q-214 67 -383 67q-170 0 -274 -94q-108 -98 -108 -266v-88h677q37 0 62 -25q26 -26 26 -63v-79h-765v-119q0 -169 108 -266q104 -94 274 -94q169 0 383 67q38 0 65 -27
q28 -27 28 -65v-60q-250 -90 -476 -90q-255 0 -408 139q-159 143 -159 396v374zM454 1483l-48 56l286 251q27 13 50 13q68 0 87 -125z" />
    <glyph glyph-name="Ecircumflex" unicode="&#xca;" horiz-adv-x="1133" 
d="M25 897q0 252 159 396q153 139 408 139q226 0 476 -90v-60q0 -38 -28 -65q-27 -27 -65 -27q-214 67 -383 67q-170 0 -274 -94q-108 -98 -108 -266v-88h677q37 0 62 -25q26 -26 26 -63v-79h-765v-119q0 -169 108 -266q104 -94 274 -94q169 0 383 67q38 0 65 -27
q28 -27 28 -65v-60q-250 -90 -476 -90q-255 0 -408 139q-159 143 -159 396v374zM547 1626l-274 -143l-49 56q131 114 286 251h73l286 -251l-48 -56z" />
    <glyph glyph-name="Edieresis" unicode="&#xcb;" horiz-adv-x="1133" 
d="M25 897q0 252 159 396q153 139 408 139q226 0 476 -90v-60q0 -38 -28 -65q-27 -27 -65 -27q-214 67 -383 67q-170 0 -274 -94q-108 -98 -108 -266v-88h677q37 0 62 -25q26 -26 26 -63v-79h-765v-119q0 -169 108 -266q104 -94 274 -94q169 0 383 67q38 0 65 -27
q28 -27 28 -65v-60q-250 -90 -476 -90q-255 0 -408 139q-159 143 -159 396v374zM288 1606q0 36 27 62t66 26h92v-125q0 -36 -27 -62t-65 -26h-93v125zM806 1481h-93q-38 0 -65 26t-27 62v125h92q39 0 66 -26t27 -62v-125z" />
    <glyph glyph-name="Igrave" unicode="&#xcc;" horiz-adv-x="449" 
d="M283 1325q0 36 26 62t62 26h97v-1325q0 -36 -26 -62t-62 -26h-97v1325zM94 1678q19 125 87 125q23 0 50 -13l286 -251l-48 -56z" />
    <glyph glyph-name="Iacute" unicode="&#xcd;" horiz-adv-x="449" 
d="M142 1325q0 36 26 62t62 26h97v-1325q0 -36 -26 -62t-62 -26h-97v1325zM142 1483l-48 56l286 251q27 13 50 13q68 0 87 -125z" />
    <glyph glyph-name="Icircumflex" unicode="&#xce;" horiz-adv-x="449" 
d="M324 1325q0 36 26 62t62 26h97v-1325q0 -36 -26 -62t-62 -26h-97v1325zM417 1626l-274 -143l-49 56q131 114 286 251h73l286 -251l-48 -56z" />
    <glyph glyph-name="Idieresis" unicode="&#xcf;" horiz-adv-x="449" 
d="M260 1325q0 36 26 62t62 26h97v-1325q0 -36 -26 -62t-62 -26h-97v1325zM94 1606q0 36 27 62t66 26h92v-125q0 -36 -27 -62t-65 -26h-93v125zM612 1481h-93q-38 0 -65 26t-27 62v125h92q39 0 66 -26t27 -62v-125z" />
    <glyph glyph-name="Eth" unicode="&#xd0;" horiz-adv-x="1401" 
d="M300 646v-478h383q170 0 274 94q108 97 108 265v370q0 168 -108 266q-104 94 -274 94q-171 0 -275 -94q-108 -98 -108 -266v-111h226q28 0 48 -26q18 -27 18 -64v-50h-292zM115 786v111q0 252 159 396q153 139 409 139q255 0 408 -139q159 -144 159 -396v-362
q0 -253 -159 -396q-153 -139 -408 -139h-568v646h-84q-27 0 -47 26q-19 28 -19 65v49h150z" />
    <glyph glyph-name="Ntilde" unicode="&#xd1;" horiz-adv-x="1397" 
d="M93 1328q0 38 27 65t65 27h190l668 -1248v1248h185v-1328q0 -38 -27 -65t-65 -27h-190l-668 1248v-1156q0 -38 -27 -65t-66 -27h-92v1328zM969 1620q-90 -108 -189 -108q-58 0 -119 38q-82 50 -153 50q-70 0 -129 -50l-27 74q84 98 178 98q59 0 123 -39q78 -47 147 -47
q77 0 142 58z" />
    <glyph glyph-name="Ograve" unicode="&#xd2;" horiz-adv-x="1324" 
d="M1171 523q0 -253 -159 -396q-153 -139 -409 -139q-255 0 -408 139q-159 143 -159 396v374q0 252 159 396q153 139 408 139q256 0 409 -139q159 -144 159 -396v-374zM329 1163q-108 -98 -108 -266v-374q0 -169 108 -266q104 -94 274 -94q171 0 275 94q108 97 108 266v374
q0 168 -108 266q-104 94 -275 94q-170 0 -274 -94zM322 1678q19 125 87 125q23 0 50 -13l286 -251l-48 -56z" />
    <glyph glyph-name="Oacute" unicode="&#xd3;" horiz-adv-x="1324" 
d="M1171 523q0 -253 -159 -396q-153 -139 -409 -139q-255 0 -408 139q-159 143 -159 396v374q0 252 159 396q153 139 408 139q256 0 409 -139q159 -144 159 -396v-374zM329 1163q-108 -98 -108 -266v-374q0 -169 108 -266q104 -94 274 -94q171 0 275 94q108 97 108 266v374
q0 168 -108 266q-104 94 -275 94q-170 0 -274 -94zM511 1483l-48 56l286 251q27 13 50 13q68 0 87 -125z" />
    <glyph glyph-name="Ocircumflex" unicode="&#xd4;" horiz-adv-x="1324" 
d="M1171 523q0 -253 -159 -396q-153 -139 -409 -139q-255 0 -408 139q-159 143 -159 396v374q0 252 159 396q153 139 408 139q256 0 409 -139q159 -144 159 -396v-374zM329 1163q-108 -98 -108 -266v-374q0 -169 108 -266q104 -94 274 -94q171 0 275 94q108 97 108 266v374
q0 168 -108 266q-104 94 -275 94q-170 0 -274 -94zM604 1626l-274 -143l-49 56q131 114 286 251h73l286 -251l-48 -56z" />
    <glyph glyph-name="Otilde" unicode="&#xd5;" horiz-adv-x="1324" 
d="M1171 523q0 -253 -159 -396q-153 -139 -409 -139q-255 0 -408 139q-159 143 -159 396v374q0 252 159 396q153 139 408 139q256 0 409 -139q159 -144 159 -396v-374zM329 1163q-108 -98 -108 -266v-374q0 -169 108 -266q104 -94 274 -94q171 0 275 94q108 97 108 266v374
q0 168 -108 266q-104 94 -275 94q-170 0 -274 -94zM912 1620q-90 -108 -189 -108q-58 0 -119 38q-82 50 -153 50q-70 0 -129 -50l-27 74q84 98 178 98q59 0 123 -39q78 -47 147 -47q77 0 142 58z" />
    <glyph glyph-name="Odieresis" unicode="&#xd6;" horiz-adv-x="1324" 
d="M1171 523q0 -253 -159 -396q-153 -139 -409 -139q-255 0 -408 139q-159 143 -159 396v374q0 252 159 396q153 139 408 139q256 0 409 -139q159 -144 159 -396v-374zM329 1163q-108 -98 -108 -266v-374q0 -169 108 -266q104 -94 274 -94q171 0 275 94q108 97 108 266v374
q0 168 -108 266q-104 94 -275 94q-170 0 -274 -94zM345 1606q0 36 27 62t66 26h92v-125q0 -36 -27 -62t-65 -26h-93v125zM863 1481h-93q-38 0 -65 26t-27 62v125h92q39 0 66 -26t27 -62v-125z" />
    <glyph glyph-name="multiply" unicode="&#xd7;" horiz-adv-x="977" 
d="M489 596l-243 -244q-16 -16 -41 -16q-5 0 -11 1q-33 7 -59 33l-35 35l290 290l-243 243q-17 17 -17 42q0 5 1 10q7 32 33 58l35 35l290 -290l243 243q17 17 42 17q5 0 10 -1q32 -7 58 -33l35 -35l-289 -289l243 -243q16 -16 16 -41q0 -5 -1 -11q-7 -33 -33 -59l-35 -35z
" />
    <glyph glyph-name="Oslash" unicode="&#xd8;" horiz-adv-x="1324" 
d="M582 163h21q171 0 275 94q108 97 108 266v374q0 168 -108 266q-56 50 -131 74zM473 179l165 1077q-17 1 -35 1q-170 0 -274 -94q-108 -98 -108 -266v-374q0 -169 108 -266q61 -55 144 -78zM774 1414q140 -32 238 -121q159 -144 159 -396v-374q0 -253 -159 -396
q-153 -139 -409 -139q-24 0 -48 1l-27 -178q-7 -39 -25 -64q-20 -27 -53 -27h-48l44 283q-149 31 -251 124q-159 143 -159 396v374q0 252 159 396q153 139 408 139q32 0 62 -2l14 93q7 39 25 64q20 27 53 27h48z" />
    <glyph glyph-name="Ugrave" unicode="&#xd9;" horiz-adv-x="1237" 
d="M1096 391q0 -192 -158 -303q-141 -99 -347 -100q-207 0 -350 99q-159 111 -159 304v1022h185v-1022q0 -114 101 -175q86 -53 217 -53h5q134 0 221 53q100 62 100 175v1022h185v-1022zM307 1678q19 125 87 125q23 0 50 -13l286 -251l-48 -56z" />
    <glyph glyph-name="Uacute" unicode="&#xda;" horiz-adv-x="1237" 
d="M1096 391q0 -192 -158 -303q-141 -99 -347 -100q-207 0 -350 99q-159 111 -159 304v1022h185v-1022q0 -114 101 -175q86 -53 217 -53h5q134 0 221 53q100 62 100 175v1022h185v-1022zM496 1483l-48 56l286 251q27 13 50 13q68 0 87 -125z" />
    <glyph glyph-name="Ucircumflex" unicode="&#xdb;" horiz-adv-x="1237" 
d="M1096 391q0 -192 -158 -303q-141 -99 -347 -100q-207 0 -350 99q-159 111 -159 304v1022h185v-1022q0 -114 101 -175q86 -53 217 -53h5q134 0 221 53q100 62 100 175v1022h185v-1022zM590 1626l-274 -143l-49 56q131 114 286 251h73l286 -251l-48 -56z" />
    <glyph glyph-name="Udieresis" unicode="&#xdc;" horiz-adv-x="1237" 
d="M1096 391q0 -192 -158 -303q-141 -99 -347 -100q-207 0 -350 99q-159 111 -159 304v1022h185v-1022q0 -114 101 -175q86 -53 217 -53h5q134 0 221 53q100 62 100 175v1022h185v-1022zM330 1606q0 36 27 62t66 26h92v-125q0 -36 -27 -62t-65 -26h-93v125zM848 1481h-93
q-38 0 -65 26t-27 62v125h92q39 0 66 -26t27 -62v-125z" />
    <glyph glyph-name="Yacute" unicode="&#xdd;" horiz-adv-x="1136" 
d="M657 88q0 -36 -26 -62t-62 -26h-97v623q-155 1 -208 42q-61 46 -106 216l-145 532h95q84 0 102 -65l130 -456q19 -69 53 -87q27 -15 109 -15h125q81 0 108 15q34 18 54 87l130 456q17 65 101 65h95l-145 -532q-44 -163 -104 -211q-56 -43 -209 -47v-535zM471 1483l-48 56
l286 251q27 13 50 13q68 0 87 -125z" />
    <glyph glyph-name="Thorn" unicode="&#xde;" horiz-adv-x="1171" 
d="M272 1150q134 82 320 82h4q206 -1 347 -100q158 -111 158 -303q0 -444 -568 -444h-261v-585h-185v1525q0 36 26 62t62 26h97v-263zM272 553h261q383 0 383 276q0 113 -100 175q-87 53 -221 53h-5q-131 0 -217 -53q-101 -61 -101 -175v-276z" />
    <glyph glyph-name="germandbls" unicode="&#xdf;" horiz-adv-x="1273" 
d="M531 809q221 0 309 59q74 50 74 161q0 113 -100 175q-87 53 -221 53h-5q-131 0 -217 -53q-101 -61 -101 -175v-220h261zM705 0q-233 0 -320 142q-39 71 -39 262h168q0 -113 31 -169q37 -67 149 -67q115 0 206 67q74 56 74 169q0 114 -74 170q-91 68 -308 68h-322v-712
q0 -36 -26 -62t-62 -26h-97v1187q0 193 159 304q142 99 346 99h4q206 -1 347 -100q158 -111 158 -303q0 -209 -174 -295q117 -37 180 -137q54 -87 54 -193q0 -191 -110 -287q-135 -117 -343 -117h-1z" />
    <glyph glyph-name="agrave" unicode="&#xe0;" horiz-adv-x="1169" 
d="M871 518q0 171 -60 257q-75 107 -253 107t-253 -107q-61 -86 -61 -257q0 -173 57 -257q72 -107 249 -107q247 0 321 212v152zM871 181q-92 -193 -348 -193q-455 0 -455 530t490 530q489 0 489 -530v-518h-88q-36 0 -62 26q-26 25 -26 62v93zM276 1301q19 125 87 125
q23 0 50 -13l286 -251l-48 -56z" />
    <glyph glyph-name="aacute" unicode="&#xe1;" horiz-adv-x="1169" 
d="M871 518q0 171 -60 257q-75 107 -253 107t-253 -107q-61 -86 -61 -257q0 -173 57 -257q72 -107 249 -107q247 0 321 212v152zM871 181q-92 -193 -348 -193q-455 0 -455 530t490 530q489 0 489 -530v-518h-88q-36 0 -62 26q-26 25 -26 62v93zM465 1106l-48 56l286 251
q27 13 50 13q68 0 87 -125z" />
    <glyph glyph-name="acircumflex" unicode="&#xe2;" horiz-adv-x="1169" 
d="M871 518q0 171 -60 257q-75 107 -253 107t-253 -107q-61 -86 -61 -257q0 -173 57 -257q72 -107 249 -107q247 0 321 212v152zM871 181q-92 -193 -348 -193q-455 0 -455 530t490 530q489 0 489 -530v-518h-88q-36 0 -62 26q-26 25 -26 62v93zM558 1249l-274 -143l-49 56
q131 114 286 251h73l286 -251l-48 -56z" />
    <glyph glyph-name="atilde" unicode="&#xe3;" horiz-adv-x="1169" 
d="M871 518q0 171 -60 257q-75 107 -253 107t-253 -107q-61 -86 -61 -257q0 -173 57 -257q72 -107 249 -107q247 0 321 212v152zM871 181q-92 -193 -348 -193q-455 0 -455 530t490 530q489 0 489 -530v-518h-88q-36 0 -62 26q-26 25 -26 62v93zM866 1243q-90 -108 -189 -108
q-58 0 -119 38q-82 50 -153 50q-70 0 -129 -50l-27 74q84 98 178 98q59 0 123 -39q78 -47 147 -47q77 0 142 58z" />
    <glyph glyph-name="adieresis" unicode="&#xe4;" horiz-adv-x="1169" 
d="M871 518q0 171 -60 257q-75 107 -253 107t-253 -107q-61 -86 -61 -257q0 -173 57 -257q72 -107 249 -107q247 0 321 212v152zM871 181q-92 -193 -348 -193q-455 0 -455 530t490 530q489 0 489 -530v-518h-88q-36 0 -62 26q-26 25 -26 62v93zM299 1229q0 36 27 62t66 26
h92v-125q0 -36 -27 -62t-65 -26h-93v125zM817 1104h-93q-38 0 -65 26t-27 62v125h92q39 0 66 -26t27 -62v-125z" />
    <glyph glyph-name="aring" unicode="&#xe5;" horiz-adv-x="1169" 
d="M871 518q0 171 -60 257q-75 107 -253 107t-253 -107q-61 -86 -61 -257q0 -173 57 -257q72 -107 249 -107q247 0 321 212v152zM871 181q-92 -193 -348 -193q-455 0 -455 530t490 530q489 0 489 -530v-518h-88q-36 0 -62 26q-26 25 -26 62v93zM685.5 1360.5
q52.5 -52.5 52.5 -127.5q0 -74 -52.5 -127t-127.5 -53t-127.5 53t-52.5 127q0 75 52.5 127.5t127.5 52.5t127.5 -52.5zM558 1317q-35 0 -59 -24.5t-24 -59.5q0 -34 24 -58.5t59 -24.5t59.5 24.5t24.5 58.5q0 35 -24.5 59.5t-59.5 24.5z" />
    <glyph glyph-name="ae" unicode="&#xe6;" horiz-adv-x="1783" 
d="M1506 606q-11 137 -52 195q-59 81 -207 81q-150 0 -217 -80q-53 -64 -63 -196h539zM249 430q11 -137 52 -195q59 -81 207 -81q150 0 217 80q53 64 63 196h-539zM875 880q113 168 372 168q249 0 354 -155q85 -125 85 -374q0 -81 -88 -81h-631q8 -284 310 -284
q156 0 318 60q20 5 36 5q47 0 47 -51v-84q-160 -96 -401 -96q-276 0 -397 168q-113 -168 -372 -168q-249 0 -354 155q-85 125 -85 374q0 81 88 81h631q-8 284 -310 284q-156 0 -318 -60q-20 -5 -36 -5q-47 0 -47 51v84q160 96 401 96q276 0 397 -168z" />
    <glyph glyph-name="ccedilla" unicode="&#xe7;" horiz-adv-x="1001" 
d="M488 -9q-420 36 -420 527q0 530 490 530q241 0 401 -96v-84q0 -51 -47 -51q-16 0 -36 5q-162 60 -318 60q-178 0 -253 -107q-61 -86 -61 -257t61 -257q75 -107 253 -107q156 0 318 60q20 5 36 5q47 0 47 -51v-84q-151 -91 -375 -96l-29 -44q149 -74 149 -172
q0 -52 -43 -112q-54 -50 -130 -50q-87 0 -203 68l-5 51v4q0 27 25 29h4q7 0 17 -2q95 -38 150 -38q41 0 60 21q7 16 7 31q0 71 -153 115z" />
    <glyph glyph-name="egrave" unicode="&#xe8;" horiz-adv-x="1065" 
d="M788 606q-11 137 -52 195q-59 81 -207 81q-150 0 -217 -80q-53 -64 -63 -196h539zM69 518q0 530 460 530q249 0 354 -155q85 -125 85 -374q0 -81 -88 -81h-631q8 -284 310 -284q156 0 318 60q20 5 36 5q47 0 47 -51v-84q-160 -96 -401 -96q-490 0 -490 530zM237 1301
q19 125 87 125q23 0 50 -13l286 -251l-48 -56z" />
    <glyph glyph-name="eacute" unicode="&#xe9;" horiz-adv-x="1065" 
d="M788 606q-11 137 -52 195q-59 81 -207 81q-150 0 -217 -80q-53 -64 -63 -196h539zM69 518q0 530 460 530q249 0 354 -155q85 -125 85 -374q0 -81 -88 -81h-631q8 -284 310 -284q156 0 318 60q20 5 36 5q47 0 47 -51v-84q-160 -96 -401 -96q-490 0 -490 530zM426 1106
l-48 56l286 251q27 13 50 13q68 0 87 -125z" />
    <glyph glyph-name="ecircumflex" unicode="&#xea;" horiz-adv-x="1065" 
d="M788 606q-11 137 -52 195q-59 81 -207 81q-150 0 -217 -80q-53 -64 -63 -196h539zM69 518q0 530 460 530q249 0 354 -155q85 -125 85 -374q0 -81 -88 -81h-631q8 -284 310 -284q156 0 318 60q20 5 36 5q47 0 47 -51v-84q-160 -96 -401 -96q-490 0 -490 530zM519 1249
l-274 -143l-49 56q131 114 286 251h73l286 -251l-48 -56z" />
    <glyph glyph-name="edieresis" unicode="&#xeb;" horiz-adv-x="1065" 
d="M788 606q-11 137 -52 195q-59 81 -207 81q-150 0 -217 -80q-53 -64 -63 -196h539zM69 518q0 530 460 530q249 0 354 -155q85 -125 85 -374q0 -81 -88 -81h-631q8 -284 310 -284q156 0 318 60q20 5 36 5q47 0 47 -51v-84q-160 -96 -401 -96q-490 0 -490 530zM260 1229
q0 36 27 62t66 26h92v-125q0 -36 -27 -62t-65 -26h-93v125zM778 1104h-93q-38 0 -65 26t-27 62v125h92q39 0 66 -26t27 -62v-125z" />
    <glyph glyph-name="igrave" unicode="&#xec;" horiz-adv-x="376" 
d="M294 948q0 37 26 62q26 26 62 26h88v-948q0 -37 -26 -62q-26 -26 -62 -26h-88v948zM100 1301q19 125 87 125q23 0 50 -13l286 -251l-48 -56z" />
    <glyph glyph-name="iacute" unicode="&#xed;" horiz-adv-x="376" 
d="M153 948q0 37 26 62q26 26 62 26h88v-948q0 -37 -26 -62q-26 -26 -62 -26h-88v948zM148 1106l-48 56l286 251q27 13 50 13q68 0 87 -125z" />
    <glyph glyph-name="icircumflex" unicode="&#xee;" horiz-adv-x="376" 
d="M334 948q0 37 26 62q26 26 62 26h88v-948q0 -37 -26 -62q-26 -26 -62 -26h-88v948zM423 1249l-274 -143l-49 56q131 114 286 251h73l286 -251l-48 -56z" />
    <glyph glyph-name="idieresis" unicode="&#xef;" horiz-adv-x="376" 
d="M271 948q0 37 26 62q26 26 62 26h88v-948q0 -37 -26 -62q-26 -26 -62 -26h-88v948zM100 1229q0 36 27 62t66 26h92v-125q0 -36 -27 -62t-65 -26h-93v125zM618 1104h-93q-38 0 -65 26t-27 62v125h92q39 0 66 -26t27 -62v-125z" />
    <glyph glyph-name="eth" unicode="&#xf0;" horiz-adv-x="1168" 
d="M839 582q-75 212 -321 212q-177 0 -249 -107q-57 -84 -57 -157q0 -171 61 -257q75 -107 253 -107t253 107q60 86 60 257v52zM603 1199q-46 19 -99 19h-14q-52 30 -52 100q0 33 12 77q176 -8 297 -95l104 72q13 8 44 11q10 1 22 1q29 0 69 -4l82 -8l-229 -159
q176 -215 176 -683q0 -530 -489 -530q-490 0 -490 530q20 406 455 430q256 0 348 -193q-41 240 -133 353l-149 -104q-13 -8 -44 -11q-10 -1 -22 -1q-29 0 -69 4l-82 8z" />
    <glyph glyph-name="ntilde" unicode="&#xf1;" horiz-adv-x="1134" 
d="M1002 0h-88q-36 0 -62 26q-26 25 -26 62v590q0 204 -218 204q-246 0 -321 -212v-582q0 -37 -26 -62q-26 -26 -62 -26h-88v1036h88q36 0 62 -26q26 -25 26 -62v-93q93 193 348 193q367 0 367 -347v-701zM865 1243q-90 -108 -189 -108q-58 0 -119 38q-82 50 -153 50
q-70 0 -129 -50l-27 74q84 98 178 98q59 0 123 -39q78 -47 147 -47q77 0 142 58z" />
    <glyph glyph-name="ograve" unicode="&#xf2;" horiz-adv-x="1151" 
d="M558 881q-178 0 -253 -106q-61 -86 -61 -257t61 -258q75 -106 253 -106t253 106q60 87 60 258t-60 257q-75 106 -253 106zM1047 518q0 -530 -489 -530q-490 0 -490 530t490 530q489 0 489 -530zM276 1301q19 125 87 125q23 0 50 -13l286 -251l-48 -56z" />
    <glyph glyph-name="oacute" unicode="&#xf3;" horiz-adv-x="1151" 
d="M558 881q-178 0 -253 -106q-61 -86 -61 -257t61 -258q75 -106 253 -106t253 106q60 87 60 258t-60 257q-75 106 -253 106zM1047 518q0 -530 -489 -530q-490 0 -490 530t490 530q489 0 489 -530zM465 1106l-48 56l286 251q27 13 50 13q68 0 87 -125z" />
    <glyph glyph-name="ocircumflex" unicode="&#xf4;" horiz-adv-x="1151" 
d="M558 881q-178 0 -253 -106q-61 -86 -61 -257t61 -258q75 -106 253 -106t253 106q60 87 60 258t-60 257q-75 106 -253 106zM1047 518q0 -530 -489 -530q-490 0 -490 530t490 530q489 0 489 -530zM558 1249l-274 -143l-49 56q131 114 286 251h73l286 -251l-48 -56z" />
    <glyph glyph-name="otilde" unicode="&#xf5;" horiz-adv-x="1151" 
d="M558 881q-178 0 -253 -106q-61 -86 -61 -257t61 -258q75 -106 253 -106t253 106q60 87 60 258t-60 257q-75 106 -253 106zM1047 518q0 -530 -489 -530q-490 0 -490 530t490 530q489 0 489 -530zM866 1243q-90 -108 -189 -108q-58 0 -119 38q-82 50 -153 50
q-70 0 -129 -50l-27 74q84 98 178 98q59 0 123 -39q78 -47 147 -47q77 0 142 58z" />
    <glyph glyph-name="odieresis" unicode="&#xf6;" horiz-adv-x="1151" 
d="M558 881q-178 0 -253 -106q-61 -86 -61 -257t61 -258q75 -106 253 -106t253 106q60 87 60 258t-60 257q-75 106 -253 106zM1047 518q0 -530 -489 -530q-490 0 -490 530t490 530q489 0 489 -530zM299 1229q0 36 27 62t66 26h92v-125q0 -36 -27 -62t-65 -26h-93v125z
M817 1104h-93q-38 0 -65 26t-27 62v125h92q39 0 66 -26t27 -62v-125z" />
    <glyph glyph-name="divide" unicode="&#xf7;" horiz-adv-x="1159" 
d="M166 624q-27 0 -47 26q-19 28 -19 65v49h893q28 0 48 -26q18 -27 18 -64v-50h-893zM487 403q0 37 27 62q27 26 65 26h93v-124q0 -37 -27 -63q-27 -25 -66 -25h-92v124zM487 1021q0 36 27 62t66 26h92v-125q0 -36 -27 -62t-65 -26h-93v125z" />
    <glyph glyph-name="oslash" unicode="&#xf8;" horiz-adv-x="1151" 
d="M720 1030q327 -79 327 -512q0 -530 -489 -530q-27 0 -53 2l-23 -114q-7 -29 -25 -48q-20 -20 -53 -20h-48l41 197q-329 79 -329 513q0 530 490 530q27 0 53 -2l22 106q7 29 25 48q20 20 53 20h48zM431 171l146 710h-19q-178 0 -253 -106q-61 -86 -61 -257t61 -258
q45 -63 126 -89zM686 864l-147 -710h19q178 0 253 106q60 87 60 258t-60 257q-45 63 -125 89z" />
    <glyph glyph-name="ugrave" unicode="&#xf9;" horiz-adv-x="1138" 
d="M824 180q-92 -192 -348 -192q-367 0 -367 347v701h88q36 0 62 -26t26 -62v-590q0 -204 218 -204q253 0 321 195v599q0 36 26 62t62 26h88v-1036h-88q-36 0 -62 25q-26 26 -26 63v92zM273 1301q19 125 87 125q23 0 50 -13l286 -251l-48 -56z" />
    <glyph glyph-name="uacute" unicode="&#xfa;" horiz-adv-x="1138" 
d="M824 180q-92 -192 -348 -192q-367 0 -367 347v701h88q36 0 62 -26t26 -62v-590q0 -204 218 -204q253 0 321 195v599q0 36 26 62t62 26h88v-1036h-88q-36 0 -62 25q-26 26 -26 63v92zM462 1106l-48 56l286 251q27 13 50 13q68 0 87 -125z" />
    <glyph glyph-name="ucircumflex" unicode="&#xfb;" horiz-adv-x="1138" 
d="M824 180q-92 -192 -348 -192q-367 0 -367 347v701h88q36 0 62 -26t26 -62v-590q0 -204 218 -204q253 0 321 195v599q0 36 26 62t62 26h88v-1036h-88q-36 0 -62 25q-26 26 -26 63v92zM555 1249l-274 -143l-49 56q131 114 286 251h73l286 -251l-48 -56z" />
    <glyph glyph-name="udieresis" unicode="&#xfc;" horiz-adv-x="1138" 
d="M824 180q-92 -192 -348 -192q-367 0 -367 347v701h88q36 0 62 -26t26 -62v-590q0 -204 218 -204q253 0 321 195v599q0 36 26 62t62 26h88v-1036h-88q-36 0 -62 25q-26 26 -26 63v92zM296 1229q0 36 27 62t66 26h92v-125q0 -36 -27 -62t-65 -26h-93v125zM814 1104h-93
q-38 0 -65 26t-27 62v125h92q39 0 66 -26t27 -62v-125z" />
    <glyph glyph-name="yacute" unicode="&#xfd;" horiz-adv-x="1141" 
d="M999 143q0 -530 -489 -530q-242 0 -402 96v83q0 52 48 52q15 0 35 -5q162 -60 319 -60q178 0 253 107q60 86 60 257v37q-92 -192 -348 -192q-367 0 -367 347v701h88q36 0 62 -26t26 -62v-590q0 -204 218 -204q246 0 321 212v582q0 36 26 62t62 26h88v-893zM461 1106
l-48 56l286 251q27 13 50 13q68 0 87 -125z" />
    <glyph glyph-name="thorn" unicode="&#xfe;" horiz-adv-x="1194" 
d="M288 212q161 -58 314 -58q173 0 248 100q65 87 65 264q0 178 -61 263q-72 100 -245 100q-252 0 -321 -194v-475zM288 855q93 193 348 193q455 0 455 -530t-489 -530q-170 0 -314 54v-331q0 -36 -26 -62t-62 -26h-88v1790h88q36 0 62 -26t26 -62v-470z" />
    <glyph glyph-name="ydieresis" unicode="&#xff;" horiz-adv-x="1141" 
d="M999 143q0 -530 -489 -530q-242 0 -402 96v83q0 52 48 52q15 0 35 -5q162 -60 319 -60q178 0 253 107q60 86 60 257v37q-92 -192 -348 -192q-367 0 -367 347v701h88q36 0 62 -26t26 -62v-590q0 -204 218 -204q246 0 321 212v582q0 36 26 62t62 26h88v-893zM295 1229
q0 36 27 62t66 26h92v-125q0 -36 -27 -62t-65 -26h-93v125zM813 1104h-93q-38 0 -65 26t-27 62v125h92q39 0 66 -26t27 -62v-125z" />
    <glyph glyph-name="dotlessi" unicode="&#x131;" horiz-adv-x="376" 
d="M100 948q0 37 26 62q26 26 62 26h88v-948q0 -37 -26 -62q-26 -26 -62 -26h-88v948z" />
    <glyph glyph-name="circumflex" unicode="&#x2c6;" horiz-adv-x="845" 
d="M423 1249l-274 -143l-49 56q131 114 286 251h73l286 -251l-48 -56z" />
    <glyph glyph-name="caron" unicode="&#x2c7;" horiz-adv-x="845" 
d="M697 1413l48 -56l-286 -251h-73q-155 137 -286 251l49 56l274 -143z" />
    <glyph glyph-name="uni02C9" unicode="&#x2c9;" horiz-adv-x="802" 
d="M166 1130q-27 0 -47 26q-19 28 -19 65v49h536q28 0 48 -26q18 -27 18 -64v-50h-536z" />
    <glyph glyph-name="breve" unicode="&#x2d8;" horiz-adv-x="845" 
d="M697 1413l48 -56q-105 -251 -326 -251q-222 0 -319 251l49 56q137 -187 274 -187t274 187z" />
    <glyph glyph-name="dotaccent" unicode="&#x2d9;" horiz-adv-x="385" 
d="M100 1229q0 36 27 62t66 26h92v-125q0 -36 -27 -62t-65 -26h-93v125z" />
    <glyph glyph-name="ring" unicode="&#x2da;" horiz-adv-x="560" 
d="M407.5 1360.5q52.5 -52.5 52.5 -127.5q0 -74 -52.5 -127t-127.5 -53t-127.5 53t-52.5 127q0 75 52.5 127.5t127.5 52.5t127.5 -52.5zM280 1317q-35 0 -59 -24.5t-24 -59.5q0 -34 24 -58.5t59 -24.5t59.5 24.5t24.5 58.5q0 35 -24.5 59.5t-59.5 24.5z" />
    <glyph glyph-name="ogonek" unicode="&#x2db;" horiz-adv-x="577" 
d="M377 0q-165 -143 -165 -225q0 -30 22 -52q21 -11 50 -11q57 0 147 44q12 3 20 3q26 0 26 -28v-47q-120 -75 -213 -75q-42 0 -79 16q-85 50 -85 122q0 104 186 253h91z" />
    <glyph glyph-name="tilde" unicode="&#x2dc;" horiz-adv-x="817" 
d="M717 1243q-90 -108 -189 -108q-58 0 -119 38q-82 50 -153 50q-70 0 -129 -50l-27 74q84 98 178 98q59 0 123 -39q78 -47 147 -47q77 0 142 58z" />
    <glyph glyph-name="hungarumlaut" unicode="&#x2dd;" horiz-adv-x="1046" 
d="M148 1106l-48 56l286 251q27 13 50 13q68 0 87 -125zM571 1106l-48 56l286 251q27 13 50 13q68 0 87 -125z" />
    <glyph glyph-name="endash" unicode="&#x2013;" horiz-adv-x="1299" 
d="M166 441q-27 0 -47 26q-19 28 -19 65v49h1033q28 0 48 -26q18 -27 18 -64v-50h-1033z" />
    <glyph glyph-name="emdash" unicode="&#x2014;" horiz-adv-x="1950" 
d="M166 441q-27 0 -47 26q-19 28 -19 65v49h1684q28 0 48 -26q18 -27 18 -64v-50h-1684z" />
    <glyph glyph-name="quoteleft" unicode="&#x2018;" horiz-adv-x="484" 
d="M384 1431q-99 -161 -99 -476q0 -37 -27 -62q-27 -26 -65 -26h-93v31q0 259 180 498q26 35 50 35h54z" />
    <glyph glyph-name="quoteright" unicode="&#x2019;" horiz-adv-x="484" 
d="M100 867q99 161 99 476q0 37 27 62q27 26 65 26h93v-31q0 -259 -180 -498q-26 -35 -50 -35h-54z" />
    <glyph glyph-name="quotesinglbase" unicode="&#x201a;" horiz-adv-x="484" 
d="M100 -352q99 161 99 476q0 37 27 62q27 26 65 26h93v-31q0 -259 -180 -498q-26 -35 -50 -35h-54z" />
    <glyph glyph-name="quotedblleft" unicode="&#x201c;" horiz-adv-x="882" 
d="M384 1431q-99 -161 -99 -476q0 -37 -27 -62q-27 -26 -65 -26h-93v31q0 259 180 498q26 35 50 35h54zM782 1431q-99 -161 -99 -476q0 -37 -27 -62q-27 -26 -65 -26h-93v31q0 259 180 498q26 35 50 35h54z" />
    <glyph glyph-name="quotedblright" unicode="&#x201d;" horiz-adv-x="882" 
d="M100 867q99 161 99 476q0 37 27 62q27 26 65 26h93v-31q0 -259 -180 -498q-26 -35 -50 -35h-54zM498 867q99 161 99 476q0 37 27 62q27 26 65 26h93v-31q0 -259 -180 -498q-26 -35 -50 -35h-54z" />
    <glyph glyph-name="quotedblbase" unicode="&#x201e;" horiz-adv-x="882" 
d="M100 -282q99 161 99 476q0 37 27 62q27 26 65 26h93v-31q0 -259 -180 -498q-26 -35 -50 -35h-54zM498 -282q99 161 99 476q0 37 27 62q27 26 65 26h93v-31q0 -259 -180 -498q-26 -35 -50 -35h-54z" />
    <glyph glyph-name="dagger" unicode="&#x2020;" horiz-adv-x="1153" 
d="M484 1098v227q0 36 26 62t62 26h97v-315h296q36 0 62 -26t26 -62v-97h-384v-825q0 -36 -26 -62t-62 -26h-97v913h-296q-36 0 -62 26t-26 62v97h384z" />
    <glyph glyph-name="daggerdbl" unicode="&#x2021;" horiz-adv-x="1154" 
d="M485 355h-297q-36 0 -62 26t-26 62v97h385v373h-296q-36 0 -62 26t-26 62v97h384v227q0 36 26 62t62 26h97v-315h296q36 0 62 -26t26 -62v-97h-384v-373h295q36 0 62 -26t26 -62v-97h-383v-267q0 -36 -26 -62t-62 -26h-97v355z" />
    <glyph glyph-name="bullet" unicode="&#x2022;" horiz-adv-x="966" 
d="M754 808q112 -112 112 -271q0 -158 -112 -270.5t-271 -112.5t-271 112.5t-112 270.5q0 159 112 271t271 112t271 -112z" />
    <glyph glyph-name="ellipsis" unicode="&#x2026;" horiz-adv-x="1751" 
d="M100 124q0 37 27 62q27 26 65 26h93v-124q0 -37 -27 -63q-27 -25 -66 -25h-92v124zM783 124q0 37 27 62q27 26 65 26h93v-124q0 -37 -27 -63q-27 -25 -66 -25h-92v124zM1466 124q0 37 27 62q27 26 65 26h93v-124q0 -37 -27 -63q-27 -25 -66 -25h-92v124z" />
    <glyph glyph-name="guilsinglleft" unicode="&#x2039;" horiz-adv-x="526" 
d="M399 334q27 -47 27 -201l-326 356v82l326 356q0 -154 -27 -201l-134 -196z" />
    <glyph glyph-name="guilsinglright" unicode="&#x203a;" horiz-adv-x="526" 
d="M261 530l-134 196q-27 47 -27 201l326 -356v-82l-326 -356q0 154 27 201z" />
    <glyph glyph-name="fraction" unicode="&#x2044;" horiz-adv-x="503" 
d="M176 68q-7 -29 -25 -48q-20 -20 -53 -20h-48l277 1344q7 29 25 48q20 20 53 20h48z" />
    <glyph glyph-name="fraction" unicode="&#x2215;" horiz-adv-x="503" 
d="M176 68q-7 -29 -25 -48q-20 -20 -53 -20h-48l277 1344q7 29 25 48q20 20 53 20h48z" />
    <glyph glyph-name="franc" unicode="&#x20a3;" horiz-adv-x="1360" 
d="M217 423v474q0 252 159 396q153 139 409 139q225 0 475 -90v-60q0 -38 -27 -65q-28 -27 -66 -27q-215 67 -382 67q-171 0 -275 -94q-108 -98 -108 -266v-88h677q37 0 62 -25q26 -26 26 -63v-79h-765v-219h375q22 0 38 -26q15 -27 15 -64v-50h-428v-191q0 -38 -27 -65
t-66 -27h-92v283h-114q-22 0 -38 26q-15 28 -15 65v49h167z" />
    <glyph glyph-name="lira" unicode="&#x20a4;" horiz-adv-x="1287" 
d="M488 372q-17 -118 -75 -204h659q36 0 62 -26t26 -62v-80h-1087v94q0 69 85 69q120 68 144 209h-156q-27 0 -47 26q-19 28 -19 65v49h225q-1 3 -1 6q0 21 -1 43l-10 82h-147q-27 0 -47 26q-19 28 -19 65v49h190q-18 104 -18 190q0 228 131 320q143 139 379 139
q175 0 425 -90v-60q0 -38 -27 -65q-28 -27 -66 -27q-215 67 -332 67q-151 0 -245 -94q-76 -62 -76 -214q0 -73 18 -166h514q28 0 48 -26q18 -27 18 -64v-50h-557l10 -82q1 -25 1 -49h480q28 0 48 -26q18 -27 18 -64v-50h-551z" />
    <glyph glyph-name="peseta" unicode="&#x20a7;" horiz-adv-x="2364" 
d="M266 753h235q345 0 345 276q0 113 -90 175q-78 53 -199 53h-5q-117 0 -195 -53q-91 -61 -91 -175v-276zM991 868q-82 -283 -490 -283h-235v-585h-166v1029q0 193 143 304q128 99 311 99h4q185 -1 312 -100q139 -109 142 -296h78v183q0 37 26 62q26 26 62 26h88v-271h329
q36 0 62 -26q2 -2 4 -5q82 43 197 43q216 0 376 -97v-83q0 -52 -47 -52q-15 0 -36 6q-163 59 -293 59q-86 0 -135 -45q-45 -40 -45 -98q0 -72 93 -101q2 -1 203 -39q137 -25 202 -79q88 -72 88 -213v-9q-2 -126 -95 -213q-102 -96 -364 -126q-51 -6 -103 -6q-214 0 -442 100
q-170 95 -170 353v463h-99zM1527 868h-261v-463q0 -171 122 -225q163 -74 314 -74q82 0 161 23q222 62 222 168q0 82 -91 116q-27 10 -202 42q-137 25 -201 73q-92 69 -92 210q0 71 28 130z" />
    <glyph glyph-name="Euro" unicode="&#x20ac;" horiz-adv-x="1132" 
d="M347 478q11 -137 70 -221q88 -94 234 -94q142 0 324 67q33 0 56 -27q24 -27 24 -65v-60q-213 -90 -404 -90q-218 0 -348 139q-133 130 -144 351h-83q-25 0 -44 26q-18 28 -18 65v49h144v160h-82q-25 0 -44 26q-18 28 -18 65v49h144q6 237 145 375q130 139 348 139
q191 0 404 -90v-60q0 -38 -24 -65q-23 -27 -56 -27q-182 67 -324 67q-146 0 -234 -94q-66 -92 -72 -245h583q26 0 45 -26q17 -27 17 -64v-50h-645v-160h583q26 0 45 -26q17 -27 17 -64v-50h-643z" />
    <glyph glyph-name="uni2116" unicode="&#x2116;" horiz-adv-x="2302" 
d="M100 1328q0 38 27 65t65 27h190l668 -1248v1248h185v-1328q0 -38 -27 -65t-65 -27h-190l-668 1248v-1156q0 -38 -27 -65t-66 -27h-92v1328zM1869.8 998.959q-117.475 0 -166.973 -63.5967q-40.2588 -51.5986 -40.2588 -154.194t40.2588 -154.793
q49.498 -63.5977 166.973 -63.5977q117.476 0 166.974 63.5977q39.5986 52.1973 39.5986 154.793t-39.5986 154.194q-49.498 63.5967 -166.974 63.5967zM2192.53 781.168q0 -317.986 -322.728 -317.986q-323.387 0 -323.387 317.986q0 317.987 323.387 317.987
q322.728 0 322.728 -317.987zM1594.5 497q-13.5 0 -23.5 26q-9.5 28 -9.5 65v49h485.5q14 0 24 -26q9 -27 9 -64v-50h-485.5z" />
    <glyph glyph-name="trademark" unicode="&#x2122;" horiz-adv-x="1595" 
d="M113.403 837.251q-16.2002 0 -27.9014 10.4004q-11.7002 10.001 -11.7002 24.8018v32.002h413.562q16.2002 0 27.9004 -10.4004t11.7002 -24.8018v-32.002h-184.954v-462.828q0 -14.4014 -11.7012 -24.8018q-11.7002 -10.4004 -27.9004 -10.4004h-43.6514v498.03
h-145.354zM326.709 339.221v531.232q0 15.2012 12.1504 26.002t29.251 10.8008h42.751q42.3008 -0.400391 58.9512 -38.0029l201.155 -461.228l201.605 461.228q16.6514 37.6025 58.9521 38.0029h42.751q17.1006 0 29.251 -10.8008t12.1504 -26.002v-531.232h-41.4014
q-17.5508 0 -29.7012 10.8008q-12.1494 10.8008 -12.1494 26.002v447.227l-196.206 -449.627q-14.8506 -34.4023 -50.4014 -34.4023h-29.251q-35.5508 0 -50.4014 34.4023l-196.205 449.627v-447.227q0 -15.2012 -12.1504 -26.002t-29.7002 -10.8008h-41.4014z" />
    <glyph glyph-name="minus" unicode="&#x2212;" horiz-adv-x="1159" 
d="M166 624q-27 0 -47 26q-19 28 -19 65v49h893q28 0 48 -26q18 -27 18 -64v-50h-893z" />
    <glyph glyph-name="approxequal" unicode="&#x2248;" horiz-adv-x="1009" 
d="M337 606q-51 0 -107 -28q-27 -13 -57 -39l-4 -4q-17 -17 -40 -17q-16 0 -29 8v96q64 73 123 99t114 26q63 0 172 -44t163 -44q51 0 107 28q27 13 57 39l4 4q17 17 40 17q16 0 29 -8v-96q-64 -73 -123 -99t-114 -26q-57 0 -169 44t-166 44zM337 377q-51 0 -107 -28
q-27 -13 -57 -39l-4 -4q-17 -17 -40 -17q-16 0 -29 8v96q64 73 123 99t114 26q63 0 172 -44t163 -44q51 0 107 28q27 13 57 39l4 4q17 17 40 17q16 0 29 -8v-96q-64 -73 -123 -99t-114 -26q-57 0 -169 44t-166 44z" />
    <glyph glyph-name="lessequal" unicode="&#x2264;" horiz-adv-x="1170" 
d="M100 777l960 484q10 -41 10 -75q0 -105 -97 -137l-626 -313l626 -314q97 -32 97 -137q0 -34 -10 -75l-960 484v83zM167 0q-27 0 -47 26q-19 28 -19 65v49h893q28 0 48 -26q18 -27 18 -64v-50h-893z" />
    <glyph glyph-name="greaterequal" unicode="&#x2265;" horiz-adv-x="1170" 
d="M1070 694l-960 -484q-10 41 -10 75q0 105 97 137l626 313l-626 314q-97 32 -97 137q0 34 10 75l960 -484v-83zM167 0q-27 0 -47 26q-19 28 -19 65v49h893q28 0 48 -26q18 -27 18 -64v-50h-893z" />
    <glyph glyph-name="uniF001" unicode="&#xf001;" horiz-adv-x="1147" 
d="M943 1036q37 0 62 -26q26 -25 26 -62v-948h-88q-36 0 -62 26q-26 25 -26 62v780h-525v-780q0 -37 -26 -62q-26 -26 -62 -26h-88v868h-54q-37 0 -62 26q-26 25 -26 62v80h142v20q0 208 110 293q95 74 305 74q97 0 198 -23v-85q0 -68 -85 -68q-60 10 -113 10
q-126 0 -177 -37q-62 -44 -62 -164v-20h613zM855 1325q0 36 26 62t62 26h88v-125q0 -36 -26 -62t-62 -26h-88v125z" />
    <glyph glyph-name="uniF001" unicode="&#xfb01;" horiz-adv-x="1147" 
d="M943 1036q37 0 62 -26q26 -25 26 -62v-948h-88q-36 0 -62 26q-26 25 -26 62v780h-525v-780q0 -37 -26 -62q-26 -26 -62 -26h-88v868h-54q-37 0 -62 26q-26 25 -26 62v80h142v20q0 208 110 293q95 74 305 74q97 0 198 -23v-85q0 -68 -85 -68q-60 10 -113 10
q-126 0 -177 -37q-62 -44 -62 -164v-20h613zM855 1325q0 36 26 62t62 26h88v-125q0 -36 -26 -62t-62 -26h-88v125z" />
    <glyph glyph-name="uniF002" unicode="&#xf002;" horiz-adv-x="1214" 
d="M795 1248q-175 9 -226 9q-126 0 -177 -37q-62 -44 -62 -164v-20h257q37 0 62 -26q26 -25 26 -62v-80h-345v-780q0 -37 -26 -62q-26 -26 -62 -26h-88v868h-54q-37 0 -62 26q-26 25 -26 62v80h142v20q0 208 110 293q95 74 305 74q95 0 328 -23q28 -5 50 -32q24 -26 24 -62
v-959q0 -162 46 -176q26 -8 59 -8q23 0 50 4q85 0 85 -69v-85q-77 -18 -155 -18q-24 0 -48 2q-102 7 -157.5 78.5t-55.5 271.5v901z" />
    <glyph glyph-name="uniF002" unicode="&#xfb02;" horiz-adv-x="1214" 
d="M795 1248q-175 9 -226 9q-126 0 -177 -37q-62 -44 -62 -164v-20h257q37 0 62 -26q26 -25 26 -62v-80h-345v-780q0 -37 -26 -62q-26 -26 -62 -26h-88v868h-54q-37 0 -62 26q-26 25 -26 62v80h142v20q0 208 110 293q95 74 305 74q95 0 328 -23q28 -5 50 -32q24 -26 24 -62
v-959q0 -162 46 -176q26 -8 59 -8q23 0 50 4q85 0 85 -69v-85q-77 -18 -155 -18q-24 0 -48 2q-102 7 -157.5 78.5t-55.5 271.5v901z" />
    <glyph glyph-name="perthousand" unicode="&#x2030;" horiz-adv-x="2202" 
d="M687 1036q0 -239 -293 -239q-294 0 -294 239v169q0 238 294 238q293 0 293 -238v-169zM582 1205q0 76 -36 115q-45 48 -152 48t-152 -48q-36 -39 -36 -115v-169q0 -77 36 -116q45 -48 152 -48t152 48q36 39 36 116v169zM682 68q-7 -29 -25 -48q-20 -20 -53 -20h-48
l277 1344q7 29 25 48q20 20 53 20h48zM1416 208q0 -238 -294 -238t-294 238v169q0 239 294 239t294 -239v-169zM1310 377q0 77 -36 116q-45 48 -152 48q-106 0 -151 -48q-37 -39 -37 -116v-169q0 -76 37 -115q45 -48 151 -48q107 0 152 48q36 39 36 115v169zM2102 208
q0 -238 -294 -238t-294 238v169q0 239 294 239t294 -239v-169zM1996 377q0 77 -36 116q-45 48 -152 48q-106 0 -151 -48q-37 -39 -37 -116v-169q0 -76 37 -115q45 -48 151 -48q107 0 152 48q36 39 36 115v169z" />
    <glyph glyph-name="uni2031" unicode="&#x2031;" horiz-adv-x="2906" 
d="M687 1036q0 -239 -293 -239q-294 0 -294 239v169q0 238 294 238q293 0 293 -238v-169zM582 1205q0 76 -36 115q-45 48 -152 48t-152 -48q-36 -39 -36 -115v-169q0 -77 36 -116q45 -48 152 -48t152 48q36 39 36 116v169zM682 68q-7 -29 -25 -48q-20 -20 -53 -20h-48
l277 1344q7 29 25 48q20 20 53 20h48zM1416 208q0 -238 -294 -238t-294 238v169q0 239 294 239t294 -239v-169zM1310 377q0 77 -36 116q-45 48 -152 48q-106 0 -151 -48q-37 -39 -37 -116v-169q0 -76 37 -115q45 -48 151 -48q107 0 152 48q36 39 36 115v169zM2102 208
q0 -238 -294 -238t-294 238v169q0 239 294 239t294 -239v-169zM1996 377q0 77 -36 116q-45 48 -152 48q-106 0 -151 -48q-37 -39 -37 -116v-169q0 -76 37 -115q45 -48 151 -48q107 0 152 48q36 39 36 115v169zM2700 378q0 77 -36 115q-45 48 -152 48q-106 0 -151 -48
q-37 -38 -37 -115v-169q0 -77 37 -116q45 -48 151 -48q107 0 152 48q36 39 36 116v169zM2806 209q0 -239 -294 -239t-294 239v169q0 238 294 238t294 -238v-169z" />
    <glyph glyph-name="uni2070" unicode="&#x2070;" horiz-adv-x="787" 
d="M687 861q0 -318 -293 -318q-294 0 -294 318v225q0 318 294 318q293 0 293 -318v-225zM582 1086q0 102 -36 154q-45 64 -152 64t-152 -64q-36 -52 -36 -154v-225q0 -103 36 -154q45 -65 152 -65t152 65q36 51 36 154v225z" />
    <glyph glyph-name="uni2074" unicode="&#x2074;" horiz-adv-x="823" 
d="M616 857h53q22 0 38 -17q16 -15 16 -38v-48h-107v-204h-58q-22 0 -37 15q-15 16 -15 38v151h-351q-23 0 -39 16t-16 39v61l302 472q36 55 92 55h69q22 0 38 -15q15 -15 15 -38v-487zM219 857h287v449z" />
    <glyph glyph-name="uni2075" unicode="&#x2075;" horiz-adv-x="778" 
d="M210 1064q102 46 184 46q152 0 218 -64q66 -66 66 -219q0 -282 -310 -284q-118 0 -268 54v36q0 23 16 39t39 16q143 -44 213 -44q200 1 200 183q0 103 -37 141q-36 37 -137 37q-96 0 -184 -44v-37q0 -22 -15 -37q-15 -16 -38 -16h-57v473q0 23 15 38t38 15h525v-47
q0 -23 -15 -39q-17 -16 -39 -16h-414v-231z" />
    <glyph glyph-name="uni2076" unicode="&#x2076;" horiz-adv-x="779" 
d="M679 827q0 -284 -286 -284h-4q-150 0 -219 67q-70 68 -70 217v299q1 148 79 215q72 63 225 63q105 0 255 -54v-36q0 -23 -16 -40q-16 -16 -39 -16q-129 41 -200 41q-103 0 -146 -38q-47 -40 -47 -140v-60q112 49 184 49q152 0 217 -64q67 -66 67 -219zM211 827
q0 -97 38 -138q40 -45 140 -45q101 0 141 45q38 41 38 138q0 103 -36 141q-37 37 -137 37q-83 0 -184 -46v-132z" />
    <glyph glyph-name="uni2077" unicode="&#x2077;" horiz-adv-x="781" 
d="M627 1397q23 0 39 -16q15 -16 15 -38v-62l-329 -731h-125l336 745h-408q-23 0 -39 16t-16 39v47h527z" />
    <glyph glyph-name="uni2078" unicode="&#x2078;" horiz-adv-x="857" 
d="M622 990q135 -45 135 -201q0 -246 -329 -246q-328 0 -328 246q0 156 135 201q-99 47 -99 189q0 114 91 176q81 54 201 54q122 0 201 -54q92 -62 92 -176q0 -142 -99 -189zM607 686q39 33 39 103q0 71 -39 103q-50 43 -179 43q-128 0 -178 -43q-39 -32 -39 -103
q0 -70 39 -103q50 -42 178 -42q129 0 179 42zM578 1082q32 31 32 97q0 65 -57 98q-48 29 -124 30q-76 0 -125 -29q-57 -34 -57 -99q0 -66 33 -97q41 -41 148 -46q108 5 150 46z" />
    <glyph glyph-name="uni2079" unicode="&#x2079;" horiz-adv-x="779" 
d="M100 1119q0 285 287 285h2q151 -1 220 -68q70 -68 70 -217v-299q-1 -148 -78 -214q-74 -63 -226 -63q-105 0 -255 54v35q0 24 16 40t40 16q128 -40 199 -40q103 0 146 37q47 40 47 140v60q-112 -49 -184 -49q-151 0 -217 64q-67 66 -67 219zM568 1119q0 98 -38 139
q-40 44 -141 45q-100 -1 -140 -45q-38 -41 -38 -139q0 -103 37 -141q36 -37 136 -37q83 0 184 46v132z" />
    <glyph glyph-name="uni207A" unicode="&#x207a;" horiz-adv-x="775" 
d="M346 924h-206q-17 0 -29 16q-11 17 -11 39v29h246v207q0 17 16 29q16 10 38 10h30v-246h206q17 0 29 -15q10 -16 10 -39v-30h-245v-205q0 -17 -16 -29q-16 -11 -39 -11h-29v245z" />
    <glyph glyph-name="uni207B" unicode="&#x207b;" horiz-adv-x="775" 
d="M140 924q-17 0 -29 16q-11 17 -11 39v29h536q17 0 29 -15q10 -16 10 -39v-30h-535z" />
    <glyph glyph-name="uni207C" unicode="&#x207c;" horiz-adv-x="775" 
d="M140 1022q-17 0 -29 16q-11 17 -11 39v29h536q17 0 29 -15q10 -17 10 -39v-30h-535zM140 815q-17 0 -29 15q-11 17 -11 39v30h536q17 0 29 -16q10 -16 10 -38v-30h-535z" />
    <glyph glyph-name="uni207D" unicode="&#x207d;" horiz-adv-x="504" 
d="M100 1073q0 209 87 328q81 113 217 116v-80q-90 -15 -144 -90q-59 -81 -59 -274v-310q0 -193 59 -274q54 -75 144 -90v-79q-136 3 -217 115q-87 119 -87 328v310z" />
    <glyph glyph-name="uni207E" unicode="&#x207e;" horiz-adv-x="504" 
d="M404 763q0 -209 -87 -328q-82 -112 -217 -115v79q89 15 144 90q58 81 58 274v310q0 193 -58 274q-55 75 -144 90v80q135 -3 217 -116q87 -119 87 -328v-310z" />
    <glyph glyph-name="uni207F" unicode="&#x207f;" horiz-adv-x="735" 
d="M635 550h-53q-21 0 -37 16q-16 15 -16 37v354q0 122 -130 122q-148 0 -193 -127v-349q0 -22 -16 -37q-15 -16 -37 -16h-53v622h53q22 0 37 -16q16 -15 16 -37v-56q56 116 209 116q220 0 220 -208v-421z" />
    <glyph glyph-name="uni2080" unicode="&#x2080;" horiz-adv-x="787" 
d="M687 -112q0 -318 -293 -318q-294 0 -294 318v224q0 318 294 318q293 0 293 -318v-224zM582 112q0 103 -36 155q-45 63 -152 63t-152 -63q-36 -52 -36 -155v-224q0 -103 36 -155q45 -64 152 -64t152 64q36 52 36 155v224z" />
    <glyph glyph-name="uni2081" unicode="&#x2081;" horiz-adv-x="753" 
d="M432 -323h168q22 0 37 -15q16 -16 16 -38v-48h-500q-21 0 -37 15q-16 16 -16 38v48h221v655l-121 -154h-23q-26 0 -41 22q-9 13 -9 24q0 10 6 20l85 124q35 56 91 56h70q22 0 38 -15q15 -16 15 -38v-694z" />
    <glyph glyph-name="uni2082" unicode="&#x2082;" horiz-adv-x="753" 
d="M153 -429q-21 0 -37 15t-16 38v24q0 91 69 164q43 46 151 115q112 70 151 110q68 68 68 151q0 68 -54 104q-49 32 -127 32q-63 0 -191 -40q-23 0 -40 16q-16 16 -16 40v36q150 53 247 53q121 0 201 -58q91 -66 91 -183q0 -169 -204 -301q-131 -85 -146 -97
q-71 -57 -80 -119l380 1q22 0 37 -16q16 -16 16 -37v-48h-500z" />
    <glyph glyph-name="uni2083" unicode="&#x2083;" horiz-adv-x="784" 
d="M356 433q122 0 203 -60q89 -66 89 -181q0 -129 -105 -177q141 -44 141 -198q0 -250 -329 -250q-105 0 -255 54v36q0 23 17 39q16 16 39 16q142 -44 199 -44q128 0 179 44q39 34 39 105q0 69 -39 101q-50 41 -179 41h-101v101h101q109 5 149 40q33 28 33 92q0 68 -55 104
q-48 32 -127 32q-45 0 -173 -40q-23 0 -40 16q-16 16 -16 39v36q150 54 229 54h1z" />
    <glyph glyph-name="uni2084" unicode="&#x2084;" horiz-adv-x="823" 
d="M616 -117h53q22 0 38 -16t16 -39v-48h-107v-204h-58q-22 0 -37 15q-15 16 -15 38v151h-351q-23 0 -39 17q-16 16 -16 38v61l302 472q36 56 92 56h69q22 0 38 -15q15 -16 15 -38v-488zM219 -117h287v449z" />
    <glyph glyph-name="uni2085" unicode="&#x2085;" horiz-adv-x="778" 
d="M210 94q102 46 184 46q152 0 218 -64q66 -66 66 -219q0 -282 -310 -284q-118 0 -268 54v36q0 23 16 39t39 16q143 -44 213 -44q200 1 200 183q0 103 -37 141q-36 37 -137 37q-96 0 -184 -44v-37q0 -22 -15 -37q-15 -16 -38 -16h-57v473q0 23 15 38t38 15h525v-47
q0 -23 -15 -39q-17 -16 -39 -16h-414v-231z" />
    <glyph glyph-name="uni2086" unicode="&#x2086;" horiz-adv-x="779" 
d="M679 -146q0 -284 -286 -284h-4q-150 0 -219 67q-70 68 -70 217v299q1 147 79 214q72 63 225 63q105 0 255 -54v-36q0 -22 -16 -39q-16 -16 -39 -16q-129 40 -200 40q-103 0 -146 -37q-47 -41 -47 -141v-59q112 49 184 49q152 0 217 -64q67 -66 67 -219zM211 -146
q0 -97 38 -139q40 -44 140 -45q101 1 141 45q38 42 38 139q0 103 -36 140q-37 37 -137 37q-83 0 -184 -45v-132z" />
    <glyph glyph-name="uni2087" unicode="&#x2087;" horiz-adv-x="781" 
d="M627 424q23 0 39 -17q15 -15 15 -38v-61l-329 -732h-125l336 745h-408q-23 0 -39 16t-16 39v48h527z" />
    <glyph glyph-name="uni2088" unicode="&#x2088;" horiz-adv-x="857" 
d="M622 15q135 -45 135 -202q0 -246 -329 -246q-328 0 -328 246q0 157 135 202q-99 46 -99 189q0 113 91 175q81 54 201 54q122 0 201 -54q92 -62 92 -175q0 -143 -99 -189zM607 -290q39 33 39 103q0 71 -39 103q-50 43 -179 43q-128 0 -178 -43q-39 -32 -39 -103
q0 -70 39 -103q50 -42 178 -42q129 0 179 42zM578 106q32 32 32 98q0 64 -57 97q-48 29 -124 30q-76 0 -125 -29q-57 -34 -57 -98q0 -66 33 -98q41 -41 148 -46q108 5 150 46z" />
    <glyph glyph-name="uni2089" unicode="&#x2089;" horiz-adv-x="779" 
d="M100 145q0 285 287 285h2q151 -1 220 -67q70 -68 70 -218v-298q-1 -148 -78 -214q-74 -63 -226 -63q-105 0 -255 54v35q0 23 16 40q16 16 40 16q128 -40 199 -40q103 0 146 37q47 40 47 140v60q-112 -49 -184 -49q-151 0 -217 64q-67 66 -67 218zM568 145q0 98 -38 140
q-40 43 -141 45q-100 -2 -140 -45q-38 -42 -38 -140q0 -102 37 -140q36 -37 136 -37q83 0 184 45v132z" />
    <glyph glyph-name="uni208A" unicode="&#x208a;" horiz-adv-x="775" 
d="M346 -42h-206q-17 0 -29 15q-11 17 -11 39v30h246v206q0 17 16 29q16 11 38 11h30v-246h206q17 0 29 -16q10 -16 10 -38v-30h-245v-206q0 -16 -16 -28t-39 -12h-29v246z" />
    <glyph glyph-name="uni208B" unicode="&#x208b;" horiz-adv-x="775" 
d="M140 -42q-17 0 -29 16q-11 16 -11 39v29h536q17 0 29 -16q10 -16 10 -38v-30h-535z" />
    <glyph glyph-name="uni208C" unicode="&#x208c;" horiz-adv-x="775" 
d="M140 62q-17 0 -29 15q-11 17 -11 39v30h536q17 0 29 -16q10 -17 10 -39v-29h-535zM140 -146q-17 0 -29 16q-11 17 -11 39v29h536q17 0 29 -15q10 -17 10 -39v-30h-535z" />
    <glyph glyph-name="uni208D" unicode="&#x208d;" horiz-adv-x="504" 
d="M100 340q0 209 87 328q81 112 217 115v-79q-90 -15 -144 -90q-59 -81 -59 -274v-310q0 -194 59 -275q54 -75 144 -90v-79q-136 3 -217 115q-87 120 -87 329v310z" />
    <glyph glyph-name="uni208E" unicode="&#x208e;" horiz-adv-x="504" 
d="M404 30q0 -209 -87 -329q-82 -112 -217 -115v79q89 15 144 90q58 81 58 275v310q0 193 -58 274q-55 75 -144 90v79q135 -3 217 -115q87 -119 87 -328v-310z" />
    <glyph glyph-name="uni0237" unicode="&#x237;" horiz-adv-x="435" 
d="M295 -22q0 -187 -87 -274q-78 -78 -245 -91q-34 0 -59 24q-24 25 -24 59v80q126 0 177 37q62 44 62 165v970q0 37 26 62q26 26 62 26h88v-1058z" />
    <glyph glyph-name="uni02BB" unicode="&#x2bb;" horiz-adv-x="399" 
d="M299 1565q-69 -112 -69 -333q0 -26 -19 -43q-19 -18 -46 -18h-65v21q0 182 126 349q18 24 35 24h38z" />
    <glyph glyph-name="uni02BC" unicode="&#x2bc;" horiz-adv-x="399" 
d="M100 1171q69 112 69 333q0 26 19 43q19 18 46 18h65v-21q0 -182 -126 -349q-18 -24 -35 -24h-38z" />
    <glyph glyph-name="uni02CA" unicode="&#x2ca;" horiz-adv-x="623" 
d="M148 1106l-48 56l286 251q27 13 50 13q68 0 87 -125z" />
    <glyph glyph-name="uni02CB" unicode="&#x2cb;" horiz-adv-x="623" 
d="M100 1301q19 125 87 125q23 0 50 -13l286 -251l-48 -56z" />
    <glyph glyph-name="uni02CD" unicode="&#x2cd;" horiz-adv-x="1096" 
d="M166 -323q-27 0 -47 26q-19 28 -19 65v49h830q28 0 48 -26q18 -27 18 -64v-50h-830z" />
    <glyph glyph-name="uni02F7" unicode="&#x2f7;" horiz-adv-x="817" 
d="M717 -249q-90 -109 -189 -109q-58 0 -119 38q-82 51 -153 51q-70 0 -129 -51l-27 74q84 98 178 98q59 0 123 -38q78 -48 147 -48q77 0 142 59z" />
    <glyph glyph-name="gravecomb" unicode="&#x300;" 
d="M-700 1301q19 125 87 125q23 0 50 -13l286 -251l-48 -56z" />
    <glyph glyph-name="acutecomb" unicode="&#x301;" 
d="M-622 1106l-48 56l286 251q27 13 50 13q68 0 87 -125z" />
    <glyph glyph-name="uni0302" unicode="&#x302;" 
d="M-467 1249l-274 -143l-49 56q131 114 286 251h73l286 -251l-48 -56z" />
    <glyph glyph-name="tildecomb" unicode="&#x303;" 
d="M-143 1243q-90 -108 -189 -108q-58 0 -119 38q-82 50 -153 50q-70 0 -129 -50l-27 74q84 98 178 98q59 0 123 -39q78 -47 147 -47q77 0 142 58z" />
    <glyph glyph-name="uni0304" unicode="&#x304;" 
d="M-674 1130q-27 0 -47 26q-19 28 -19 65v49h536q28 0 48 -26q18 -27 18 -64v-50h-536z" />
    <glyph glyph-name="uni0305" unicode="&#x305;" 
d="M1303 1553q-27 0 -47 26q-19 28 -19 65v49h971q28 0 48 -26q18 -27 18 -64v-50h-971z" />
    <glyph glyph-name="uni0306" unicode="&#x306;" 
d="M-163 1413l48 -56q-105 -251 -326 -251q-222 0 -319 251l49 56q137 -187 274 -187t274 187z" />
    <glyph glyph-name="uni0307" unicode="&#x307;" 
d="M-610 1229q0 36 27 62t66 26h92v-125q0 -36 -27 -62t-65 -26h-93v125z" />
    <glyph glyph-name="uni0308" unicode="&#x308;" 
d="M-770 1229q0 36 27 62t66 26h92v-125q0 -36 -27 -62t-65 -26h-93v125zM-252 1104h-93q-38 0 -65 26t-27 62v125h92q39 0 66 -26t27 -62v-125z" />
    <glyph glyph-name="uni0310" unicode="&#x310;" 
d="M-470 1413l48 -56q-105 -251 -326 -251q-222 0 -319 251l49 56q137 -187 274 -187t274 187zM-837 1538q0 36 27 62t66 26h92v-125q0 -36 -27 -62t-65 -26h-93v125z" />
    <glyph glyph-name="uni0315" unicode="&#x315;" horiz-adv-x="399" 
d="M50 1018q69 113 69 333q0 26 19 44t46 18h65v-22q0 -181 -126 -348q-18 -25 -35 -25h-38z" />
    <glyph glyph-name="dotbelowcomb" unicode="&#x323;" 
d="M-560 -237q0 31 23 52q23 23 55 23h79v-106q0 -31 -23 -53t-56 -22h-78v106z" />
    <glyph glyph-name="uni0324" unicode="&#x324;" 
d="M-700 -234q0 36 27 62t66 26h92v-125q0 -36 -27 -62t-65 -26h-93v125zM-182 -359h-93q-38 0 -65 26t-27 62v125h92q39 0 66 -26t27 -62v-125z" />
    <glyph glyph-name="uni0325" unicode="&#x325;" 
d="M-292.5 -110.5q52.5 -52.5 52.5 -127.5q0 -74 -52.5 -127t-127.5 -53t-127.5 53t-52.5 127q0 75 52.5 127.5t127.5 52.5t127.5 -52.5zM-420 -154q-35 0 -59 -24.5t-24 -59.5q0 -34 24 -58.5t59 -24.5t59.5 24.5t24.5 58.5q0 35 -24.5 59.5t-59.5 24.5z" />
    <glyph glyph-name="uni0326" unicode="&#x326;" 
d="M-530 -418q79 97 79 286q0 22 22 37q21 15 52 15h74v-18q0 -156 -144 -299q-21 -21 -40 -21h-43z" />
    <glyph glyph-name="Amacron" unicode="&#x100;" horiz-adv-x="1243" 
d="M572 1250l-221 -761h504l-221 761h-62zM302 321l-61 -212q-28 -109 -137 -109h-91l382 1315q28 108 137 108h142q109 0 137 -109l382 -1314h-91q-109 0 -138 110l-61 211h-601zM368 1507q-27 0 -47 26q-19 28 -19 65v49h536q28 0 48 -26q18 -27 18 -64v-50h-536z" />
    <glyph glyph-name="amacron" unicode="&#x101;" horiz-adv-x="1169" 
d="M871 518q0 171 -60 257q-75 107 -253 107t-253 -107q-61 -86 -61 -257q0 -173 57 -257q72 -107 249 -107q247 0 321 212v152zM871 181q-92 -193 -348 -193q-455 0 -455 530t490 530q489 0 489 -530v-518h-88q-36 0 -62 26q-26 25 -26 62v93zM323 1130q-27 0 -47 26
q-19 28 -19 65v49h536q28 0 48 -26q18 -27 18 -64v-50h-536z" />
    <glyph glyph-name="Abreve" unicode="&#x102;" horiz-adv-x="1243" 
d="M572 1250l-221 -761h504l-221 761h-62zM302 321l-61 -212q-28 -109 -137 -109h-91l382 1315q28 108 137 108h142q109 0 137 -109l382 -1314h-91q-109 0 -138 110l-61 211h-601zM878 1790l48 -56q-105 -251 -326 -251q-222 0 -319 251l49 56q137 -187 274 -187t274 187z
" />
    <glyph glyph-name="abreve" unicode="&#x103;" horiz-adv-x="1169" 
d="M871 518q0 171 -60 257q-75 107 -253 107t-253 -107q-61 -86 -61 -257q0 -173 57 -257q72 -107 249 -107q247 0 321 212v152zM871 181q-92 -193 -348 -193q-455 0 -455 530t490 530q489 0 489 -530v-518h-88q-36 0 -62 26q-26 25 -26 62v93zM832 1413l48 -56
q-105 -251 -326 -251q-222 0 -319 251l49 56q137 -187 274 -187t274 187z" />
    <glyph glyph-name="Aogonek" unicode="&#x104;" horiz-adv-x="1243" 
d="M572 1250l-221 -761h504l-221 761h-62zM302 321l-61 -212q-28 -109 -137 -109h-91l382 1315q28 108 137 108h142q109 0 137 -109l382 -1314h-91q-109 0 -138 110l-61 211h-601zM1193 0q-165 -143 -165 -225q0 -30 22 -52q21 -11 50 -11q57 0 147 44q12 3 20 3
q26 0 26 -28v-47q-120 -75 -213 -75q-42 0 -79 16q-85 50 -85 122q0 104 186 253h91z" />
    <glyph glyph-name="aogonek" unicode="&#x105;" horiz-adv-x="1169" 
d="M871 518q0 171 -60 257q-75 107 -253 107t-253 -107q-61 -86 -61 -257q0 -173 57 -257q72 -107 249 -107q247 0 321 212v152zM871 181q-92 -193 -348 -193q-455 0 -455 530t490 530q489 0 489 -530v-518h-88q-36 0 -62 26q-26 25 -26 62v93zM1047 0q-165 -143 -165 -225
q0 -30 22 -52q21 -11 50 -11q57 0 147 44q12 3 20 3q26 0 26 -28v-47q-120 -75 -213 -75q-42 0 -79 16q-85 50 -85 122q0 104 186 253h91z" />
    <glyph glyph-name="Cacute" unicode="&#x106;" horiz-adv-x="1145" 
d="M36 897q0 252 159 396q153 139 409 139q225 0 475 -90v-60q0 -38 -28 -65q-27 -27 -65 -27q-215 67 -382 67q-171 0 -275 -94q-108 -98 -108 -266v-374q0 -169 108 -266q104 -94 275 -94q167 0 382 67q38 0 65 -27q28 -27 28 -65v-60q-250 -90 -475 -90q-256 0 -409 139
q-159 143 -159 396v374zM465 1483l-48 56l286 251q27 13 50 13q68 0 87 -125z" />
    <glyph glyph-name="cacute" unicode="&#x107;" horiz-adv-x="1001" 
d="M959 84q-160 -96 -401 -96q-490 0 -490 530t490 530q241 0 401 -96v-84q0 -51 -47 -51q-16 0 -36 5q-162 60 -318 60q-178 0 -253 -107q-61 -86 -61 -257t61 -257q75 -107 253 -107q156 0 318 60q20 5 36 5q47 0 47 -51v-84zM421 1106l-48 56l286 251q27 13 50 13
q68 0 87 -125z" />
    <glyph glyph-name="Ccircumflex" unicode="&#x108;" horiz-adv-x="1145" 
d="M36 897q0 252 159 396q153 139 409 139q225 0 475 -90v-60q0 -38 -28 -65q-27 -27 -65 -27q-215 67 -382 67q-171 0 -275 -94q-108 -98 -108 -266v-374q0 -169 108 -266q104 -94 275 -94q167 0 382 67q38 0 65 -27q28 -27 28 -65v-60q-250 -90 -475 -90q-256 0 -409 139
q-159 143 -159 396v374zM558 1626l-274 -143l-49 56q131 114 286 251h73l286 -251l-48 -56z" />
    <glyph glyph-name="ccircumflex" unicode="&#x109;" horiz-adv-x="1001" 
d="M959 84q-160 -96 -401 -96q-490 0 -490 530t490 530q241 0 401 -96v-84q0 -51 -47 -51q-16 0 -36 5q-162 60 -318 60q-178 0 -253 -107q-61 -86 -61 -257t61 -257q75 -107 253 -107q156 0 318 60q20 5 36 5q47 0 47 -51v-84zM514 1249l-274 -143l-49 56q131 114 286 251
h73l286 -251l-48 -56z" />
    <glyph glyph-name="Cdotaccent" unicode="&#x10a;" horiz-adv-x="1145" 
d="M36 897q0 252 159 396q153 139 409 139q225 0 475 -90v-60q0 -38 -28 -65q-27 -27 -65 -27q-215 67 -382 67q-171 0 -275 -94q-108 -98 -108 -266v-374q0 -169 108 -266q104 -94 275 -94q167 0 382 67q38 0 65 -27q28 -27 28 -65v-60q-250 -90 -475 -90q-256 0 -409 139
q-159 143 -159 396v374zM465 1606q0 36 27 62t66 26h92v-125q0 -36 -27 -62t-65 -26h-93v125z" />
    <glyph glyph-name="cdotaccent" unicode="&#x10b;" horiz-adv-x="1001" 
d="M959 84q-160 -96 -401 -96q-490 0 -490 530t490 530q241 0 401 -96v-84q0 -51 -47 -51q-16 0 -36 5q-162 60 -318 60q-178 0 -253 -107q-61 -86 -61 -257t61 -257q75 -107 253 -107q156 0 318 60q20 5 36 5q47 0 47 -51v-84zM421 1229q0 36 27 62t66 26h92v-125
q0 -36 -27 -62t-65 -26h-93v125z" />
    <glyph glyph-name="Ccaron" unicode="&#x10c;" horiz-adv-x="1145" 
d="M36 897q0 252 159 396q153 139 409 139q225 0 475 -90v-60q0 -38 -28 -65q-27 -27 -65 -27q-215 67 -382 67q-171 0 -275 -94q-108 -98 -108 -266v-374q0 -169 108 -266q104 -94 275 -94q167 0 382 67q38 0 65 -27q28 -27 28 -65v-60q-250 -90 -475 -90q-256 0 -409 139
q-159 143 -159 396v374zM832 1790l48 -56l-286 -251h-73q-155 137 -286 251l49 56l274 -143z" />
    <glyph glyph-name="ccaron" unicode="&#x10d;" horiz-adv-x="1001" 
d="M959 84q-160 -96 -401 -96q-490 0 -490 530t490 530q241 0 401 -96v-84q0 -51 -47 -51q-16 0 -36 5q-162 60 -318 60q-178 0 -253 -107q-61 -86 -61 -257t61 -257q75 -107 253 -107q156 0 318 60q20 5 36 5q47 0 47 -51v-84zM788 1413l48 -56l-286 -251h-73
q-155 137 -286 251l49 56l274 -143z" />
    <glyph glyph-name="Dcaron" unicode="&#x10e;" horiz-adv-x="1356" 
d="M1205 535q0 -253 -159 -396q-153 -139 -408 -139h-568v897q0 252 159 396q153 139 409 139q255 0 408 -139q159 -144 159 -396v-362zM638 168q170 0 274 94q108 97 108 265v370q0 168 -108 266q-104 94 -274 94q-171 0 -275 -94q-108 -98 -108 -266v-729h383zM912 1790
l48 -56l-286 -251h-73q-155 137 -286 251l49 56l274 -143z" />
    <glyph glyph-name="dcaron" unicode="&#x10f;" horiz-adv-x="1579" 
d="M871 824q-160 58 -313 58q-173 0 -249 -101q-65 -86 -65 -263q0 -178 61 -263q73 -101 245 -101q246 0 321 212v458zM871 181q-92 -193 -348 -193q-455 0 -455 530t490 530q170 0 313 -54v331q0 36 26 62t62 26h88v-1413h-88q-36 0 -62 26q-26 25 -26 62v93zM1230 1018
q69 113 69 333q0 26 19 44t46 18h65v-22q0 -181 -126 -348q-18 -25 -35 -25h-38z" />
    <glyph glyph-name="Dcroat" unicode="&#x110;" horiz-adv-x="1401" 
d="M300 646v-478h383q170 0 274 94q108 97 108 265v370q0 168 -108 266q-104 94 -274 94q-171 0 -275 -94q-108 -98 -108 -266v-111h226q28 0 48 -26q18 -27 18 -64v-50h-292zM115 786v111q0 252 159 396q153 139 409 139q255 0 408 -139q159 -144 159 -396v-362
q0 -253 -159 -396q-153 -139 -408 -139h-568v646h-84q-27 0 -47 26q-19 28 -19 65v49h150z" />
    <glyph glyph-name="dcroat" unicode="&#x111;" horiz-adv-x="1180" 
d="M929 824q-160 58 -313 58q-173 0 -249 -101q-65 -86 -65 -263q0 -178 61 -263q73 -101 245 -101q246 0 321 212v458zM929 181q-92 -193 -348 -193q-455 0 -455 530t490 530q170 0 313 -54v331q0 36 26 62t62 26h88v-1413h-88q-36 0 -62 26q-26 25 -26 62v93zM291 1103
q-27 0 -47 26q-19 28 -19 65v49h971q28 0 48 -26q18 -27 18 -64v-50h-971z" />
    <glyph glyph-name="Emacron" unicode="&#x112;" horiz-adv-x="1133" 
d="M25 897q0 252 159 396q153 139 408 139q226 0 476 -90v-60q0 -38 -28 -65q-27 -27 -65 -27q-214 67 -383 67q-170 0 -274 -94q-108 -98 -108 -266v-88h677q37 0 62 -25q26 -26 26 -63v-79h-765v-119q0 -169 108 -266q104 -94 274 -94q169 0 383 67q38 0 65 -27
q28 -27 28 -65v-60q-250 -90 -476 -90q-255 0 -408 139q-159 143 -159 396v374zM312 1507q-27 0 -47 26q-19 28 -19 65v49h536q28 0 48 -26q18 -27 18 -64v-50h-536z" />
    <glyph glyph-name="emacron" unicode="&#x113;" horiz-adv-x="1065" 
d="M788 606q-11 137 -52 195q-59 81 -207 81q-150 0 -217 -80q-53 -64 -63 -196h539zM69 518q0 530 460 530q249 0 354 -155q85 -125 85 -374q0 -81 -88 -81h-631q8 -284 310 -284q156 0 318 60q20 5 36 5q47 0 47 -51v-84q-160 -96 -401 -96q-490 0 -490 530zM284 1130
q-27 0 -47 26q-19 28 -19 65v49h536q28 0 48 -26q18 -27 18 -64v-50h-536z" />
    <glyph glyph-name="Ebreve" unicode="&#x114;" horiz-adv-x="1133" 
d="M25 897q0 252 159 396q153 139 408 139q226 0 476 -90v-60q0 -38 -28 -65q-27 -27 -65 -27q-214 67 -383 67q-170 0 -274 -94q-108 -98 -108 -266v-88h677q37 0 62 -25q26 -26 26 -63v-79h-765v-119q0 -169 108 -266q104 -94 274 -94q169 0 383 67q38 0 65 -27
q28 -27 28 -65v-60q-250 -90 -476 -90q-255 0 -408 139q-159 143 -159 396v374zM821 1790l48 -56q-105 -251 -326 -251q-222 0 -319 251l49 56q137 -187 274 -187t274 187z" />
    <glyph glyph-name="ebreve" unicode="&#x115;" horiz-adv-x="1065" 
d="M788 606q-11 137 -52 195q-59 81 -207 81q-150 0 -217 -80q-53 -64 -63 -196h539zM69 518q0 530 460 530q249 0 354 -155q85 -125 85 -374q0 -81 -88 -81h-631q8 -284 310 -284q156 0 318 60q20 5 36 5q47 0 47 -51v-84q-160 -96 -401 -96q-490 0 -490 530zM793 1413
l48 -56q-105 -251 -326 -251q-222 0 -319 251l49 56q137 -187 274 -187t274 187z" />
    <glyph glyph-name="Edotaccent" unicode="&#x116;" horiz-adv-x="1133" 
d="M25 897q0 252 159 396q153 139 408 139q226 0 476 -90v-60q0 -38 -28 -65q-27 -27 -65 -27q-214 67 -383 67q-170 0 -274 -94q-108 -98 -108 -266v-88h677q37 0 62 -25q26 -26 26 -63v-79h-765v-119q0 -169 108 -266q104 -94 274 -94q169 0 383 67q38 0 65 -27
q28 -27 28 -65v-60q-250 -90 -476 -90q-255 0 -408 139q-159 143 -159 396v374zM454 1606q0 36 27 62t66 26h92v-125q0 -36 -27 -62t-65 -26h-93v125z" />
    <glyph glyph-name="edotaccent" unicode="&#x117;" horiz-adv-x="1065" 
d="M788 606q-11 137 -52 195q-59 81 -207 81q-150 0 -217 -80q-53 -64 -63 -196h539zM69 518q0 530 460 530q249 0 354 -155q85 -125 85 -374q0 -81 -88 -81h-631q8 -284 310 -284q156 0 318 60q20 5 36 5q47 0 47 -51v-84q-160 -96 -401 -96q-490 0 -490 530zM426 1229
q0 36 27 62t66 26h92v-125q0 -36 -27 -62t-65 -26h-93v125z" />
    <glyph glyph-name="Eogonek" unicode="&#x118;" horiz-adv-x="1133" 
d="M25 897q0 252 159 396q153 139 408 139q226 0 476 -90v-60q0 -38 -28 -65q-27 -27 -65 -27q-214 67 -383 67q-170 0 -274 -94q-108 -98 -108 -266v-88h677q37 0 62 -25q26 -26 26 -63v-79h-765v-119q0 -169 108 -266q104 -94 274 -94q169 0 383 67q38 0 65 -27
q28 -27 28 -65v-60q-250 -90 -476 -90q-255 0 -408 139q-159 143 -159 396v374zM1020 62q-165 -143 -165 -225q0 -30 22 -52q21 -11 50 -11q57 0 147 44q12 3 20 3q26 0 26 -28v-47q-120 -75 -213 -75q-42 0 -79 16q-85 50 -85 122q0 104 186 253h91z" />
    <glyph glyph-name="eogonek" unicode="&#x119;" horiz-adv-x="1065" 
d="M788 606q-11 137 -52 195q-59 81 -207 81q-150 0 -217 -80q-53 -64 -63 -196h539zM69 518q0 530 460 530q249 0 354 -155q85 -125 85 -374q0 -81 -88 -81h-631q8 -284 310 -284q156 0 318 60q20 5 36 5q47 0 47 -51v-84q-160 -96 -401 -96q-490 0 -490 530zM899 53
q-165 -143 -165 -225q0 -30 22 -52q21 -11 50 -11q57 0 147 44q12 3 20 3q26 0 26 -28v-47q-120 -75 -213 -75q-42 0 -79 16q-85 50 -85 122q0 104 186 253h91z" />
    <glyph glyph-name="Ecaron" unicode="&#x11a;" horiz-adv-x="1133" 
d="M25 897q0 252 159 396q153 139 408 139q226 0 476 -90v-60q0 -38 -28 -65q-27 -27 -65 -27q-214 67 -383 67q-170 0 -274 -94q-108 -98 -108 -266v-88h677q37 0 62 -25q26 -26 26 -63v-79h-765v-119q0 -169 108 -266q104 -94 274 -94q169 0 383 67q38 0 65 -27
q28 -27 28 -65v-60q-250 -90 -476 -90q-255 0 -408 139q-159 143 -159 396v374zM821 1790l48 -56l-286 -251h-73q-155 137 -286 251l49 56l274 -143z" />
    <glyph glyph-name="ecaron" unicode="&#x11b;" horiz-adv-x="1065" 
d="M788 606q-11 137 -52 195q-59 81 -207 81q-150 0 -217 -80q-53 -64 -63 -196h539zM69 518q0 530 460 530q249 0 354 -155q85 -125 85 -374q0 -81 -88 -81h-631q8 -284 310 -284q156 0 318 60q20 5 36 5q47 0 47 -51v-84q-160 -96 -401 -96q-490 0 -490 530zM793 1413
l48 -56l-286 -251h-73q-155 137 -286 251l49 56l274 -143z" />
    <glyph glyph-name="Gcircumflex" unicode="&#x11c;" horiz-adv-x="1266" 
d="M1130 0h-96q-37 0 -63 26q-25 26 -25 62v101q-149 -201 -412 -201q-249 0 -379 139q-128 137 -128 396v374q0 252 159 396q153 139 408 139q226 0 476 -90v-60q0 -38 -28 -65q-27 -27 -65 -27q-214 67 -383 67q-170 0 -274 -94q-108 -98 -108 -266v-374q0 -360 322 -360
q227 0 412 202v257q0 36 25 62q26 26 63 26h96v-710zM579 1626l-274 -143l-49 56q131 114 286 251h73l286 -251l-48 -56z" />
    <glyph glyph-name="gcircumflex" unicode="&#x11d;" horiz-adv-x="1168" 
d="M871 518q0 171 -60 257q-75 107 -253 107t-253 -107q-61 -86 -61 -257q0 -173 57 -257q72 -107 249 -107q246 0 321 212v152zM871 181q-92 -193 -348 -193q-455 0 -455 530t490 530q489 0 489 -530v-375q0 -530 -489 -530q-242 0 -402 97v83q0 52 47 52q15 0 36 -6
q162 -60 319 -60q178 0 253 107q60 86 60 257v38zM558 1249l-274 -143l-49 56q131 114 286 251h73l286 -251l-48 -56z" />
    <glyph glyph-name="Gbreve" unicode="&#x11e;" horiz-adv-x="1266" 
d="M1130 0h-96q-37 0 -63 26q-25 26 -25 62v101q-149 -201 -412 -201q-249 0 -379 139q-128 137 -128 396v374q0 252 159 396q153 139 408 139q226 0 476 -90v-60q0 -38 -28 -65q-27 -27 -65 -27q-214 67 -383 67q-170 0 -274 -94q-108 -98 -108 -266v-374q0 -360 322 -360
q227 0 412 202v257q0 36 25 62q26 26 63 26h96v-710zM853 1790l48 -56q-105 -251 -326 -251q-222 0 -319 251l49 56q137 -187 274 -187t274 187z" />
    <glyph glyph-name="gbreve" unicode="&#x11f;" horiz-adv-x="1168" 
d="M871 518q0 171 -60 257q-75 107 -253 107t-253 -107q-61 -86 -61 -257q0 -173 57 -257q72 -107 249 -107q246 0 321 212v152zM871 181q-92 -193 -348 -193q-455 0 -455 530t490 530q489 0 489 -530v-375q0 -530 -489 -530q-242 0 -402 97v83q0 52 47 52q15 0 36 -6
q162 -60 319 -60q178 0 253 107q60 86 60 257v38zM832 1413l48 -56q-105 -251 -326 -251q-222 0 -319 251l49 56q137 -187 274 -187t274 187z" />
    <glyph glyph-name="Gdotaccent" unicode="&#x120;" horiz-adv-x="1266" 
d="M1130 0h-96q-37 0 -63 26q-25 26 -25 62v101q-149 -201 -412 -201q-249 0 -379 139q-128 137 -128 396v374q0 252 159 396q153 139 408 139q226 0 476 -90v-60q0 -38 -28 -65q-27 -27 -65 -27q-214 67 -383 67q-170 0 -274 -94q-108 -98 -108 -266v-374q0 -360 322 -360
q227 0 412 202v257q0 36 25 62q26 26 63 26h96v-710zM486 1606q0 36 27 62t66 26h92v-125q0 -36 -27 -62t-65 -26h-93v125z" />
    <glyph glyph-name="gdotaccent" unicode="&#x121;" horiz-adv-x="1168" 
d="M871 518q0 171 -60 257q-75 107 -253 107t-253 -107q-61 -86 -61 -257q0 -173 57 -257q72 -107 249 -107q246 0 321 212v152zM871 181q-92 -193 -348 -193q-455 0 -455 530t490 530q489 0 489 -530v-375q0 -530 -489 -530q-242 0 -402 97v83q0 52 47 52q15 0 36 -6
q162 -60 319 -60q178 0 253 107q60 86 60 257v38zM465 1229q0 36 27 62t66 26h92v-125q0 -36 -27 -62t-65 -26h-93v125z" />
    <glyph glyph-name="uni0122" unicode="&#x122;" horiz-adv-x="1266" 
d="M1130 0h-96q-37 0 -63 26q-25 26 -25 62v101q-149 -201 -412 -201q-249 0 -379 139q-128 137 -128 396v374q0 252 159 396q153 139 408 139q226 0 476 -90v-60q0 -38 -28 -65q-27 -27 -65 -27q-214 67 -383 67q-170 0 -274 -94q-108 -98 -108 -266v-374q0 -360 322 -360
q227 0 412 202v257q0 36 25 62q26 26 63 26h96v-710zM465 -418q79 97 79 286q0 22 22 37q21 15 52 15h74v-18q0 -156 -144 -299q-21 -21 -40 -21h-43z" />
    <glyph glyph-name="uni0123" unicode="&#x123;" horiz-adv-x="1168" 
d="M871 518q0 171 -60 257q-75 107 -253 107t-253 -107q-61 -86 -61 -257q0 -173 57 -257q72 -107 249 -107q246 0 321 212v152zM871 181q-92 -193 -348 -193q-455 0 -455 530t490 530q489 0 489 -530v-375q0 -530 -489 -530q-242 0 -402 97v83q0 52 47 52q15 0 36 -6
q162 -60 319 -60q178 0 253 107q60 86 60 257v38zM657 1565q-69 -112 -69 -333q0 -26 -19 -43q-19 -18 -46 -18h-65v21q0 182 126 349q18 24 35 24h38z" />
    <glyph glyph-name="Hcircumflex" unicode="&#x124;" horiz-adv-x="1301" 
d="M279 88q0 -36 -26 -62t-62 -26h-97v1413h97q36 0 62 -26t26 -62v-535h668v535q0 36 26 62t62 26h97v-1413h-97q-36 0 -62 26t-26 62v534h-668v-534zM614 1626l-274 -143l-49 56q131 114 286 251h73l286 -251l-48 -56z" />
    <glyph glyph-name="hcircumflex" unicode="&#x125;" horiz-adv-x="1144" 
d="M1009 0h-88q-36 0 -62 26q-26 25 -26 62v590q0 204 -218 204q-246 0 -321 -211v-583q0 -37 -26 -62q-26 -26 -62 -26h-88v1413h88q36 0 62 -26t26 -62v-470q93 193 348 193q367 0 367 -347v-701zM564 1608l-274 -143l-49 56q131 114 286 251h73l286 -251l-48 -56z" />
    <glyph glyph-name="Hbar" unicode="&#x126;" horiz-adv-x="1301" 
d="M279 88q0 -36 -26 -62t-62 -26h-97v1413h97q36 0 62 -26t26 -62v-535h668v535q0 36 26 62t62 26h97v-1413h-97q-36 0 -62 26t-26 62v534h-668v-534zM-83.1992 978q-35.0996 0 -61.0996 26q-24.6992 28 -24.6992 65v49h1262.29q36.3994 0 62.3994 -26
q23.3994 -27 23.3994 -64v-50h-1262.29z" />
    <glyph glyph-name="hbar" unicode="&#x127;" horiz-adv-x="1144" 
d="M1009 0h-88q-36 0 -62 26q-26 25 -26 62v590q0 204 -218 204q-246 0 -321 -211v-583q0 -37 -26 -62q-26 -26 -62 -26h-88v1413h88q36 0 62 -26t26 -62v-470q93 193 348 193q367 0 367 -347v-701zM-15 1103q-27 0 -47 26q-19 28 -19 65v49h971q28 0 48 -26q18 -27 18 -64
v-50h-971z" />
    <glyph glyph-name="Itilde" unicode="&#x128;" horiz-adv-x="449" 
d="M310 1325q0 36 26 62t62 26h97v-1325q0 -36 -26 -62t-62 -26h-97v1325zM711 1620q-90 -108 -189 -108q-58 0 -119 38q-82 50 -153 50q-70 0 -129 -50l-27 74q84 98 178 98q59 0 123 -39q78 -47 147 -47q77 0 142 58z" />
    <glyph glyph-name="itilde" unicode="&#x129;" horiz-adv-x="376" 
d="M320 948q0 37 26 62q26 26 62 26h88v-948q0 -37 -26 -62q-26 -26 -62 -26h-88v948zM717 1243q-90 -108 -189 -108q-58 0 -119 38q-82 50 -153 50q-70 0 -129 -50l-27 74q84 98 178 98q59 0 123 -39q78 -47 147 -47q77 0 142 58z" />
    <glyph glyph-name="Imacron" unicode="&#x12a;" horiz-adv-x="449" 
d="M302 1325q0 36 26 62t62 26h97v-1325q0 -36 -26 -62t-62 -26h-97v1325zM160 1507q-27 0 -47 26q-19 28 -19 65v49h536q28 0 48 -26q18 -27 18 -64v-50h-536z" />
    <glyph glyph-name="imacron" unicode="&#x12b;" horiz-adv-x="376" 
d="M313 948q0 37 26 62q26 26 62 26h88v-948q0 -37 -26 -62q-26 -26 -62 -26h-88v948zM166 1130q-27 0 -47 26q-19 28 -19 65v49h536q28 0 48 -26q18 -27 18 -64v-50h-536z" />
    <glyph glyph-name="Ibreve" unicode="&#x12c;" horiz-adv-x="449" 
d="M324 1325q0 36 26 62t62 26h97v-1325q0 -36 -26 -62t-62 -26h-97v1325zM691 1790l48 -56q-105 -251 -326 -251q-222 0 -319 251l49 56q137 -187 274 -187t274 187z" />
    <glyph glyph-name="ibreve" unicode="&#x12d;" horiz-adv-x="376" 
d="M334 948q0 37 26 62q26 26 62 26h88v-948q0 -37 -26 -62q-26 -26 -62 -26h-88v948zM697 1413l48 -56q-105 -251 -326 -251q-222 0 -319 251l49 56q137 -187 274 -187t274 187z" />
    <glyph glyph-name="Iogonek" unicode="&#x12e;" horiz-adv-x="449" 
d="M286 1325q0 36 26 62t62 26h97v-1325q0 -36 -26 -62t-62 -26h-97v1325zM377 0q-165 -143 -165 -225q0 -30 22 -52q21 -11 50 -11q57 0 147 44q12 3 20 3q26 0 26 -28v-47q-120 -75 -213 -75q-42 0 -79 16q-85 50 -85 122q0 104 186 253h91z" />
    <glyph glyph-name="iogonek" unicode="&#x12f;" horiz-adv-x="408" 
d="M317 948q0 37 26 62q26 26 62 26h88v-948q0 -37 -26 -62q-26 -26 -62 -26h-88v948zM317 1325q0 36 26 62t62 26h88v-125q0 -36 -26 -62t-62 -26h-88v125zM408 0q-165 -143 -165 -225q0 -30 22 -52q21 -11 50 -11q57 0 147 44q12 3 20 3q26 0 26 -28v-47
q-120 -75 -213 -75q-42 0 -79 16q-85 50 -85 122q0 104 186 253h91z" />
    <glyph glyph-name="Idotaccent" unicode="&#x130;" horiz-adv-x="449" 
d="M94 1325q0 36 26 62t62 26h97v-1325q0 -36 -26 -62t-62 -26h-97v1325zM94 1606q0 36 27 62t66 26h92v-125q0 -36 -27 -62t-65 -26h-93v125z" />
    <glyph glyph-name="IJ" unicode="&#x132;" horiz-adv-x="1367" 
d="M94 1325q0 36 26 62t62 26h97v-1325q0 -36 -26 -62t-62 -26h-97v1325zM1028 1325q0 36 25 62q26 26 63 26h96v-890q0 -253 -158 -396q-154 -139 -409 -139q-85 0 -186 16v76q0 37 26 63t63 26q55 -6 97 -6q170 0 274 94q109 97 109 266v802z" />
    <glyph glyph-name="ij" unicode="&#x133;" horiz-adv-x="843" 
d="M116 948q0 37 26 62q26 26 62 26h88v-948q0 -37 -26 -62q-26 -26 -62 -26h-88v948zM116 1325q0 36 26 62t62 26h88v-125q0 -36 -26 -62t-62 -26h-88v125zM703 -22q0 -187 -87 -274q-78 -78 -245 -91q-34 0 -59 24q-24 25 -24 59v80q126 0 177 37q62 44 62 165v970
q0 37 26 62q26 26 62 26h88v-1058zM527 1325q0 36 26 62t62 26h88v-125q0 -36 -26 -62q-25 -26 -62 -26h-88v125z" />
    <glyph glyph-name="Jcircumflex" unicode="&#x134;" horiz-adv-x="918" 
d="M579 1325q0 36 25 62q26 26 63 26h96v-890q0 -253 -158 -396q-154 -139 -409 -139q-85 0 -186 16v76q0 37 26 63t63 26q55 -6 97 -6q170 0 274 94q109 97 109 266v802zM658 1626l-274 -143l-49 56q131 114 286 251h73l286 -251l-48 -56z" />
    <glyph glyph-name="jcircumflex" unicode="&#x135;" horiz-adv-x="435" 
d="M310 -22q0 -187 -87 -274q-78 -78 -245 -91q-34 0 -59 24q-24 25 -24 59v80q126 0 177 37q62 44 62 165v970q0 37 26 62q26 26 62 26h88v-1058zM203 1249l-274 -143l-49 56q131 114 286 251h73l286 -251l-48 -56z" />
    <glyph glyph-name="uni0136" unicode="&#x136;" horiz-adv-x="1193" 
d="M581 790q101 1 134 23q40 26 68 126l117 409q17 65 101 65h95l-150 -550q-22 -81 -74 -114q69 -46 115 -217l145 -532h-95q-84 0 -101 64l-130 457q-20 68 -54 87q-27 14 -109 14h-364v-534q0 -36 -26 -62t-62 -26h-97v1413h97q36 0 62 -26t26 -62v-535h302zM499 -418
q79 97 79 286q0 22 22 37q21 15 52 15h74v-18q0 -156 -144 -299q-21 -21 -40 -21h-43z" />
    <glyph glyph-name="uni0137" unicode="&#x137;" horiz-adv-x="1036" 
d="M120 1413h88q36 0 62 -26t26 -62v-723h258q90 0 112 56l105 309q23 69 111 69h88l-123 -363q-31 -91 -70 -118q60 -43 89 -128l145 -427h-88q-88 0 -109 63l-107 314q-19 57 -93 57h-318v-346q0 -37 -26 -62q-26 -26 -62 -26h-88v1413zM452 -418q79 97 79 286q0 22 22 37
q21 15 52 15h74v-18q0 -156 -144 -299q-21 -21 -40 -21h-43z" />
    <glyph glyph-name="kgreenlandic" unicode="&#x138;" horiz-adv-x="1036" 
d="M120 1413h88q36 0 62 -26t26 -62v-723h258q90 0 112 56l105 309q23 69 111 69h88l-123 -363q-31 -91 -70 -118q60 -43 89 -128l145 -427h-88q-88 0 -109 63l-107 314q-19 57 -93 57h-318v-346q0 -37 -26 -62q-26 -26 -62 -26h-88v1413z" />
    <glyph glyph-name="Lacute" unicode="&#x139;" horiz-adv-x="1168" 
d="M70 1420h92q39 0 66 -27t27 -65v-805q0 -169 108 -266q104 -94 275 -94q167 0 382 67q38 0 66 -27q27 -27 27 -65v-60q-250 -90 -475 -90q-256 0 -409 139q-159 143 -159 396v897zM499 1483l-48 56l286 251q27 13 50 13q68 0 87 -125z" />
    <glyph glyph-name="lacute" unicode="&#x13a;" horiz-adv-x="532" 
d="M116 1413h88q36 0 62 -26t26 -62v-978q0 -162 46 -176q26 -8 59 -8q23 0 50 4q85 0 85 -69v-85q-77 -18 -155 -18q-24 0 -48 2q-102 7 -157.5 78.5t-55.5 271.5v1066zM161 1452l-48 56l286 251q27 13 50 13q68 0 87 -125z" />
    <glyph glyph-name="uni013B" unicode="&#x13b;" horiz-adv-x="1168" 
d="M70 1420h92q39 0 66 -27t27 -65v-805q0 -169 108 -266q104 -94 275 -94q167 0 382 67q38 0 66 -27q27 -27 27 -65v-60q-250 -90 -475 -90q-256 0 -409 139q-159 143 -159 396v897zM478 -418q79 97 79 286q0 22 22 37q21 15 52 15h74v-18q0 -156 -144 -299
q-21 -21 -40 -21h-43z" />
    <glyph glyph-name="uni013C" unicode="&#x13c;" horiz-adv-x="532" 
d="M113 1413h88q36 0 62 -26t26 -62v-978q0 -162 46 -176q26 -8 59 -8q23 0 50 4q85 0 85 -69v-85q-77 -18 -155 -18q-24 0 -48 2q-102 7 -157.5 78.5t-55.5 271.5v1066zM207 -418q79 97 79 286q0 22 22 37q21 15 52 15h74v-18q0 -156 -144 -299q-21 -21 -40 -21h-43z" />
    <glyph glyph-name="Lcaron" unicode="&#x13d;" horiz-adv-x="1168" 
d="M70 1420h92q39 0 66 -27t27 -65v-805q0 -169 108 -266q104 -94 275 -94q167 0 382 67q38 0 66 -27q27 -27 27 -65v-60q-250 -90 -475 -90q-256 0 -409 139q-159 143 -159 396v897zM914 1018q69 113 69 333q0 26 19 44t46 18h65v-22q0 -181 -126 -348q-18 -25 -35 -25h-38
z" />
    <glyph glyph-name="lcaron" unicode="&#x13e;" horiz-adv-x="931" 
d="M113 1413h88q36 0 62 -26t26 -62v-978q0 -162 46 -176q26 -8 59 -8q23 0 50 4q85 0 85 -69v-85q-77 -18 -155 -18q-24 0 -48 2q-102 7 -157.5 78.5t-55.5 271.5v1066zM582 1018q69 113 69 333q0 26 19 44t46 18h65v-22q0 -181 -126 -348q-18 -25 -35 -25h-38z" />
    <glyph glyph-name="Ldot" unicode="&#x13f;" horiz-adv-x="1168" 
d="M70 1420h92q39 0 66 -27t27 -65v-805q0 -169 108 -266q104 -94 275 -94q167 0 382 67q38 0 66 -27q27 -27 27 -65v-60q-250 -90 -475 -90q-256 0 -409 139q-159 143 -159 396v897zM904.596 626.982q0 31.4482 22.9492 52.6982q22.9492 22.0986 55.248 22.0986h79.0479
v-105.396q0 -31.4492 -22.9492 -53.5488q-22.9492 -21.249 -56.0986 -21.249h-78.1973v105.397z" />
    <glyph glyph-name="ldot" unicode="&#x140;" horiz-adv-x="689" 
d="M113 1413h88q36 0 62 -26t26 -62v-978q0 -162 46 -176q26 -8 59 -8q23 0 50 4q85 0 85 -69v-85q-77 -18 -155 -18q-24 0 -48 2q-102 7 -157.5 78.5t-55.5 271.5v1066zM525.596 626.982q0 31.4482 22.9492 52.6982q22.9492 22.0986 55.248 22.0986h79.0479v-105.396
q0 -31.4492 -22.9492 -53.5488q-22.9492 -21.249 -56.0986 -21.249h-78.1973v105.397z" />
    <glyph glyph-name="Lslash" unicode="&#x141;" horiz-adv-x="1168" 
d="M70 1420h92q39 0 66 -27t27 -65v-805q0 -169 108 -266q104 -94 275 -94q167 0 382 67q38 0 66 -27q27 -27 27 -65v-60q-250 -90 -475 -90q-256 0 -409 139q-159 143 -159 396v897zM-129 553q-10 -4 -21 -4q-15 0 -32 9q-29 18 -44 51l-20 45l888 393q11 5 22 5
q16 0 32 -9q28 -18 43 -51l20 -46z" />
    <glyph glyph-name="lslash" unicode="&#x142;" horiz-adv-x="532" 
d="M424 1413h88q36 0 62 -26t26 -62v-978q0 -162 46 -176q26 -8 59 -8q23 0 50 4q85 0 85 -69v-85q-77 -18 -155 -18q-24 0 -48 2q-102 7 -157.5 78.5t-55.5 271.5v1066zM179 447q-11 -5 -22 -5q-15 0 -31 8q-30 16 -46 49l-22 44l869 434q12 6 24 6q14 0 30 -8
q28 -16 45 -49l22 -45z" />
    <glyph glyph-name="Nacute" unicode="&#x143;" horiz-adv-x="1397" 
d="M93 1328q0 38 27 65t65 27h190l668 -1248v1248h185v-1328q0 -38 -27 -65t-65 -27h-190l-668 1248v-1156q0 -38 -27 -65t-66 -27h-92v1328zM568 1483l-48 56l286 251q27 13 50 13q68 0 87 -125z" />
    <glyph glyph-name="nacute" unicode="&#x144;" horiz-adv-x="1134" 
d="M1002 0h-88q-36 0 -62 26q-26 25 -26 62v590q0 204 -218 204q-246 0 -321 -212v-582q0 -37 -26 -62q-26 -26 -62 -26h-88v1036h88q36 0 62 -26q26 -25 26 -62v-93q93 193 348 193q367 0 367 -347v-701zM464 1106l-48 56l286 251q27 13 50 13q68 0 87 -125z" />
    <glyph glyph-name="uni0145" unicode="&#x145;" horiz-adv-x="1397" 
d="M93 1328q0 38 27 65t65 27h190l668 -1248v1248h185v-1328q0 -38 -27 -65t-65 -27h-190l-668 1248v-1156q0 -38 -27 -65t-66 -27h-92v1328zM547 -418q79 97 79 286q0 22 22 37q21 15 52 15h74v-18q0 -156 -144 -299q-21 -21 -40 -21h-43z" />
    <glyph glyph-name="uni0146" unicode="&#x146;" horiz-adv-x="1134" 
d="M1002 0h-88q-36 0 -62 26q-26 25 -26 62v590q0 204 -218 204q-246 0 -321 -212v-582q0 -37 -26 -62q-26 -26 -62 -26h-88v1036h88q36 0 62 -26q26 -25 26 -62v-93q93 193 348 193q367 0 367 -347v-701zM443 -418q79 97 79 286q0 22 22 37q21 15 52 15h74v-18
q0 -156 -144 -299q-21 -21 -40 -21h-43z" />
    <glyph glyph-name="Ncaron" unicode="&#x147;" horiz-adv-x="1397" 
d="M93 1328q0 38 27 65t65 27h190l668 -1248v1248h185v-1328q0 -38 -27 -65t-65 -27h-190l-668 1248v-1156q0 -38 -27 -65t-66 -27h-92v1328zM935 1790l48 -56l-286 -251h-73q-155 137 -286 251l49 56l274 -143z" />
    <glyph glyph-name="ncaron" unicode="&#x148;" horiz-adv-x="1134" 
d="M1002 0h-88q-36 0 -62 26q-26 25 -26 62v590q0 204 -218 204q-246 0 -321 -212v-582q0 -37 -26 -62q-26 -26 -62 -26h-88v1036h88q36 0 62 -26q26 -25 26 -62v-93q93 193 348 193q367 0 367 -347v-701zM831 1413l48 -56l-286 -251h-73q-155 137 -286 251l49 56l274 -143z
" />
    <glyph glyph-name="napostrophe" unicode="&#x149;" horiz-adv-x="1222" 
d="M100 1171q69 112 69 333q0 26 19 43q19 18 46 18h65v-21q0 -182 -126 -349q-18 -24 -35 -24h-38zM1090 0h-88q-36 0 -62 26q-26 25 -26 62v590q0 204 -218 204q-246 0 -321 -212v-582q0 -37 -26 -62q-26 -26 -62 -26h-88v1036h88q36 0 62 -26q26 -25 26 -62v-93
q93 193 348 193q367 0 367 -347v-701z" />
    <glyph glyph-name="Eng" unicode="&#x14a;" horiz-adv-x="1397" 
d="M1042 0h-1l-763 1248v-1156q0 -38 -27 -65t-66 -27h-92v1328q0 38 27 65t65 27h190l668 -1106v1106h185v-1328q0 -12 -3 -22q-18 -226 -177 -437q-26 -35 -50 -35h-54q87 142 98 402z" />
    <glyph glyph-name="eng" unicode="&#x14b;" horiz-adv-x="1134" 
d="M826 85v593q0 204 -218 204q-246 0 -321 -212v-582q0 -37 -26 -62q-26 -26 -62 -26h-88v1036h88q36 0 62 -26q26 -25 26 -62v-93q93 193 348 193q367 0 367 -347v-576q0 -259 -180 -498q-26 -35 -50 -35h-54q99 161 107 476q0 9 1 17z" />
    <glyph glyph-name="Omacron" unicode="&#x14c;" horiz-adv-x="1324" 
d="M1171 523q0 -253 -159 -396q-153 -139 -409 -139q-255 0 -408 139q-159 143 -159 396v374q0 252 159 396q153 139 408 139q256 0 409 -139q159 -144 159 -396v-374zM329 1163q-108 -98 -108 -266v-374q0 -169 108 -266q104 -94 274 -94q171 0 275 94q108 97 108 266v374
q0 168 -108 266q-104 94 -275 94q-170 0 -274 -94zM369 1507q-27 0 -47 26q-19 28 -19 65v49h536q28 0 48 -26q18 -27 18 -64v-50h-536z" />
    <glyph glyph-name="omacron" unicode="&#x14d;" horiz-adv-x="1151" 
d="M558 881q-178 0 -253 -106q-61 -86 -61 -257t61 -258q75 -106 253 -106t253 106q60 87 60 258t-60 257q-75 106 -253 106zM1047 518q0 -530 -489 -530q-490 0 -490 530t490 530q489 0 489 -530zM323 1130q-27 0 -47 26q-19 28 -19 65v49h536q28 0 48 -26q18 -27 18 -64
v-50h-536z" />
    <glyph glyph-name="Obreve" unicode="&#x14e;" horiz-adv-x="1324" 
d="M1171 523q0 -253 -159 -396q-153 -139 -409 -139q-255 0 -408 139q-159 143 -159 396v374q0 252 159 396q153 139 408 139q256 0 409 -139q159 -144 159 -396v-374zM329 1163q-108 -98 -108 -266v-374q0 -169 108 -266q104 -94 274 -94q171 0 275 94q108 97 108 266v374
q0 168 -108 266q-104 94 -275 94q-170 0 -274 -94zM878 1790l48 -56q-105 -251 -326 -251q-222 0 -319 251l49 56q137 -187 274 -187t274 187z" />
    <glyph glyph-name="obreve" unicode="&#x14f;" horiz-adv-x="1151" 
d="M558 881q-178 0 -253 -106q-61 -86 -61 -257t61 -258q75 -106 253 -106t253 106q60 87 60 258t-60 257q-75 106 -253 106zM1047 518q0 -530 -489 -530q-490 0 -490 530t490 530q489 0 489 -530zM832 1413l48 -56q-105 -251 -326 -251q-222 0 -319 251l49 56
q137 -187 274 -187t274 187z" />
    <glyph glyph-name="Ohungarumlaut" unicode="&#x150;" horiz-adv-x="1324" 
d="M1171 523q0 -253 -159 -396q-153 -139 -409 -139q-255 0 -408 139q-159 143 -159 396v374q0 252 159 396q153 139 408 139q256 0 409 -139q159 -144 159 -396v-374zM329 1163q-108 -98 -108 -266v-374q0 -169 108 -266q104 -94 274 -94q171 0 275 94q108 97 108 266v374
q0 168 -108 266q-104 94 -275 94q-170 0 -274 -94zM229 1483l-48 56l286 251q27 13 50 13q68 0 87 -125zM652 1483l-48 56l286 251q27 13 50 13q68 0 87 -125z" />
    <glyph glyph-name="ohungarumlaut" unicode="&#x151;" horiz-adv-x="1151" 
d="M558 881q-178 0 -253 -106q-61 -86 -61 -257t61 -258q75 -106 253 -106t253 106q60 87 60 258t-60 257q-75 106 -253 106zM1047 518q0 -530 -489 -530q-490 0 -490 530t490 530q489 0 489 -530zM183 1106l-48 56l286 251q27 13 50 13q68 0 87 -125zM606 1106l-48 56
l286 251q27 13 50 13q68 0 87 -125z" />
    <glyph glyph-name="OE" unicode="&#x152;" horiz-adv-x="2094" 
d="M1078 201q-28 -40 -66 -74q-153 -139 -409 -139q-255 0 -408 139q-159 143 -159 396v374q0 252 159 396q153 139 408 139q256 0 409 -139q38 -34 66 -74q29 40 67 74q153 139 408 139q226 0 476 -90v-60q0 -38 -28 -65q-27 -27 -65 -27q-214 67 -383 67q-170 0 -274 -94
q-108 -98 -108 -266v-88h677q37 0 62 -25q26 -26 26 -63v-79h-765v-119q0 -169 108 -266q104 -94 274 -94q169 0 383 67q38 0 65 -27q28 -27 28 -65v-60q-250 -90 -476 -90q-255 0 -408 139q-38 34 -67 74zM986 897q0 168 -108 266q-104 94 -275 94q-170 0 -274 -94
q-108 -98 -108 -266v-374q0 -169 108 -266q104 -94 274 -94q171 0 275 94q108 97 108 266v374z" />
    <glyph glyph-name="oe" unicode="&#x153;" horiz-adv-x="1863" 
d="M1586 606q-11 137 -52 195q-59 81 -207 81q-150 0 -217 -80q-53 -64 -63 -196h539zM957 161q-120 -173 -399 -173q-490 0 -490 530t490 530q276 0 396 -169q113 169 373 169q249 0 354 -155q85 -125 85 -374q0 -81 -88 -81h-631q8 -284 310 -284q156 0 318 60q20 5 36 5
q47 0 47 -51v-84q-160 -96 -401 -96q-280 0 -400 173zM869 456q-2 30 -2 62q0 33 2 63q-10 125 -58 194q-75 106 -253 106t-253 -106q-61 -86 -61 -257t61 -258q75 -106 253 -106t253 106q49 70 58 196z" />
    <glyph glyph-name="Racute" unicode="&#x154;" horiz-adv-x="1206" 
d="M272 753h261q383 0 383 276q0 113 -100 175q-87 53 -221 53h-5q-131 0 -217 -53q-101 -61 -101 -175v-276zM998 371l167 -371h-120q-72 0 -101 64l-138 307l-50 112q-39 102 -198 102h-286v-585h-185v1029q0 193 159 304q142 99 346 99h4q206 -1 347 -100
q158 -111 158 -303q0 -300 -255 -397q61 -38 134 -222zM533 1483l-48 56l286 251q27 13 50 13q68 0 87 -125z" />
    <glyph glyph-name="racute" unicode="&#x155;" horiz-adv-x="840" 
d="M111 1036h88q36 0 62 -26t26 -62v-93q93 193 295 193q96 0 198 -23v-85q0 -68 -85 -68q-61 9 -140 9q-193 0 -268 -211v-582q0 -37 -26 -63q-26 -25 -62 -25h-88v1036zM353 1106l-48 56l286 251q27 13 50 13q68 0 87 -125z" />
    <glyph glyph-name="uni0156" unicode="&#x156;" horiz-adv-x="1206" 
d="M272 753h261q383 0 383 276q0 113 -100 175q-87 53 -221 53h-5q-131 0 -217 -53q-101 -61 -101 -175v-276zM998 371l167 -371h-120q-72 0 -101 64l-138 307l-50 112q-39 102 -198 102h-286v-585h-185v1029q0 193 159 304q142 99 346 99h4q206 -1 347 -100
q158 -111 158 -303q0 -300 -255 -397q61 -38 134 -222zM512 -418q79 97 79 286q0 22 22 37q21 15 52 15h74v-18q0 -156 -144 -299q-21 -21 -40 -21h-43z" />
    <glyph glyph-name="uni0157" unicode="&#x157;" horiz-adv-x="840" 
d="M111 1036h88q36 0 62 -26t26 -62v-93q93 193 295 193q96 0 198 -23v-85q0 -68 -85 -68q-61 9 -140 9q-193 0 -268 -211v-582q0 -37 -26 -63q-26 -25 -62 -25h-88v1036zM332 -418q79 97 79 286q0 22 22 37q21 15 52 15h74v-18q0 -156 -144 -299q-21 -21 -40 -21h-43z" />
    <glyph glyph-name="Rcaron" unicode="&#x158;" horiz-adv-x="1206" 
d="M272 753h261q383 0 383 276q0 113 -100 175q-87 53 -221 53h-5q-131 0 -217 -53q-101 -61 -101 -175v-276zM998 371l167 -371h-120q-72 0 -101 64l-138 307l-50 112q-39 102 -198 102h-286v-585h-185v1029q0 193 159 304q142 99 346 99h4q206 -1 347 -100
q158 -111 158 -303q0 -300 -255 -397q61 -38 134 -222zM901 1790l48 -56l-286 -251h-73q-155 137 -286 251l49 56l274 -143z" />
    <glyph glyph-name="rcaron" unicode="&#x159;" horiz-adv-x="840" 
d="M111 1036h88q36 0 62 -26t26 -62v-93q93 193 295 193q96 0 198 -23v-85q0 -68 -85 -68q-61 9 -140 9q-193 0 -268 -211v-582q0 -37 -26 -63q-26 -25 -62 -25h-88v1036zM720 1413l48 -56l-286 -251h-73q-155 137 -286 251l49 56l274 -143z" />
    <glyph glyph-name="Sacute" unicode="&#x15a;" horiz-adv-x="1140" 
d="M760 220q102 65 102 176q0 135 -131 189q-58 24 -287 59q-200 30 -288 90q-131 89 -131 283q0 195 145 309q133 106 332 106q225 0 475 -90v-60q0 -38 -27 -65t-65 -27q-215 67 -383 67q-117 0 -200 -60q-92 -67 -92 -180q0 -122 132 -169q44 -16 291 -53
q198 -30 288 -97q126 -92 126 -289v-12q-4 -193 -156 -306q-138 -103 -338 -103q-225 0 -475 90v60q0 38 27 65t65 27q215 -67 383 -67q119 0 207 57zM443 1483l-48 56l286 251q27 13 50 13q68 0 87 -125z" />
    <glyph glyph-name="sacute" unicode="&#x15b;" horiz-adv-x="907" 
d="M787 951v-83q0 -52 -47 -52q-15 0 -36 6q-163 59 -293 59q-86 0 -135 -45q-45 -40 -45 -98q0 -72 93 -101q2 -1 203 -39q137 -25 202 -79q88 -72 88 -213v-9q-2 -126 -95 -213q-102 -96 -275 -96q-217 0 -377 96v83q0 52 48 52q15 0 35 -5q163 -60 294 -60q86 0 141 45
q50 41 50 98q0 82 -91 116q-27 10 -202 42q-137 25 -201 73q-92 69 -92 210q0 127 88 213q98 97 271 97q216 0 376 -97zM342 1106l-48 56l286 251q27 13 50 13q68 0 87 -125z" />
    <glyph glyph-name="Scircumflex" unicode="&#x15c;" horiz-adv-x="1140" 
d="M760 220q102 65 102 176q0 135 -131 189q-58 24 -287 59q-200 30 -288 90q-131 89 -131 283q0 195 145 309q133 106 332 106q225 0 475 -90v-60q0 -38 -27 -65t-65 -27q-215 67 -383 67q-117 0 -200 -60q-92 -67 -92 -180q0 -122 132 -169q44 -16 291 -53
q198 -30 288 -97q126 -92 126 -289v-12q-4 -193 -156 -306q-138 -103 -338 -103q-225 0 -475 90v60q0 38 27 65t65 27q215 -67 383 -67q119 0 207 57zM537 1626l-274 -143l-49 56q131 114 286 251h73l286 -251l-48 -56z" />
    <glyph glyph-name="scircumflex" unicode="&#x15d;" horiz-adv-x="907" 
d="M787 951v-83q0 -52 -47 -52q-15 0 -36 6q-163 59 -293 59q-86 0 -135 -45q-45 -40 -45 -98q0 -72 93 -101q2 -1 203 -39q137 -25 202 -79q88 -72 88 -213v-9q-2 -126 -95 -213q-102 -96 -275 -96q-217 0 -377 96v83q0 52 48 52q15 0 35 -5q163 -60 294 -60q86 0 141 45
q50 41 50 98q0 82 -91 116q-27 10 -202 42q-137 25 -201 73q-92 69 -92 210q0 127 88 213q98 97 271 97q216 0 376 -97zM435 1249l-274 -143l-49 56q131 114 286 251h73l286 -251l-48 -56z" />
    <glyph glyph-name="Scedilla" unicode="&#x15e;" horiz-adv-x="1140" 
d="M510 -11q-206 8 -432 89v60q0 38 27 65t65 27q215 -67 383 -67q119 0 207 57q102 65 102 176q0 135 -131 189q-58 24 -287 59q-200 30 -288 90q-131 89 -131 283q0 195 145 309q133 106 332 106q225 0 475 -90v-60q0 -38 -27 -65t-65 -27q-215 67 -383 67
q-117 0 -200 -60q-92 -67 -92 -180q0 -122 132 -169q44 -16 291 -53q198 -30 288 -97q126 -92 126 -289v-12q-4 -193 -156 -306q-119 -88 -283 -101l-30 -46q149 -74 149 -172q0 -52 -43 -112q-54 -50 -130 -50q-87 0 -203 68l-5 51v4q0 27 25 29h4q7 0 17 -2
q95 -38 150 -38q41 0 60 21q7 16 7 31q0 71 -153 115z" />
    <glyph glyph-name="scedilla" unicode="&#x15f;" horiz-adv-x="907" 
d="M408 -11q-193 8 -338 95v83q0 52 48 52q15 0 35 -5q163 -60 294 -60q86 0 141 45q50 41 50 98q0 82 -91 116q-27 10 -202 42q-137 25 -201 73q-92 69 -92 210q0 127 88 213q98 97 271 97q216 0 376 -97v-83q0 -52 -47 -52q-15 0 -36 6q-163 59 -293 59q-86 0 -135 -45
q-45 -40 -45 -98q0 -72 93 -101q2 -1 203 -39q137 -25 202 -79q88 -72 88 -213v-9q-2 -126 -95 -213q-84 -79 -215 -93l-31 -47q149 -74 149 -172q0 -52 -43 -112q-54 -50 -130 -50q-87 0 -203 68l-5 51v4q0 27 25 29h4q7 0 17 -2q95 -38 150 -38q41 0 60 21q7 16 7 31
q0 71 -153 115z" />
    <glyph glyph-name="Scaron" unicode="&#x160;" horiz-adv-x="1140" 
d="M760 220q102 65 102 176q0 135 -131 189q-58 24 -287 59q-200 30 -288 90q-131 89 -131 283q0 195 145 309q133 106 332 106q225 0 475 -90v-60q0 -38 -27 -65t-65 -27q-215 67 -383 67q-117 0 -200 -60q-92 -67 -92 -180q0 -122 132 -169q44 -16 291 -53
q198 -30 288 -97q126 -92 126 -289v-12q-4 -193 -156 -306q-138 -103 -338 -103q-225 0 -475 90v60q0 38 27 65t65 27q215 -67 383 -67q119 0 207 57zM811 1790l48 -56l-286 -251h-73q-155 137 -286 251l49 56l274 -143z" />
    <glyph glyph-name="scaron" unicode="&#x161;" horiz-adv-x="907" 
d="M787 951v-83q0 -52 -47 -52q-15 0 -36 6q-163 59 -293 59q-86 0 -135 -45q-45 -40 -45 -98q0 -72 93 -101q2 -1 203 -39q137 -25 202 -79q88 -72 88 -213v-9q-2 -126 -95 -213q-102 -96 -275 -96q-217 0 -377 96v83q0 52 48 52q15 0 35 -5q163 -60 294 -60q86 0 141 45
q50 41 50 98q0 82 -91 116q-27 10 -202 42q-137 25 -201 73q-92 69 -92 210q0 127 88 213q98 97 271 97q216 0 376 -97zM709 1413l48 -56l-286 -251h-73q-155 137 -286 251l49 56l274 -143z" />
    <glyph glyph-name="uni0162" unicode="&#x162;" horiz-adv-x="976" 
d="M96 1245q-36 0 -62 26q-26 25 -26 62v80h919q36 0 62 -26t26 -62v-80h-411v-1157q0 -36 -26 -62t-62 -26h-97v1245h-323zM518 1l-38 -58q149 -74 149 -172q0 -52 -43 -112q-54 -50 -130 -50q-87 0 -203 68l-5 51v4q0 27 25 29h4q7 0 17 -2q95 -38 150 -38q41 0 60 21
q7 16 7 31q0 71 -153 115l61 113h99z" />
    <glyph glyph-name="uni0163" unicode="&#x163;" horiz-adv-x="813" 
d="M121 868q-36 0 -62 26q-26 25 -26 62v80h145v183q0 37 26 62q26 26 62 26h88v-271h329q36 0 62 -26t26 -62v-80h-417v-513q0 -121 62 -165q52 -36 178 -36q53 0 113 9q85 0 85 -68v-85q-101 -22 -198 -22q-211 0 -306 74q-110 85 -110 293v513h-57zM628 2l-38 -58
q149 -74 149 -172q0 -52 -43 -112q-54 -50 -130 -50q-87 0 -203 68l-5 51v4q0 27 25 29h4q7 0 17 -2q95 -38 150 -38q41 0 60 21q7 16 7 31q0 71 -153 115l61 113h99z" />
    <glyph glyph-name="Tcaron" unicode="&#x164;" horiz-adv-x="976" 
d="M96 1245q-36 0 -62 26q-26 25 -26 62v80h919q36 0 62 -26t26 -62v-80h-411v-1157q0 -36 -26 -62t-62 -26h-97v1245h-323zM786 1790l48 -56l-286 -251h-73q-155 137 -286 251l49 56l274 -143z" />
    <glyph glyph-name="tcaron" unicode="&#x165;" horiz-adv-x="1212" 
d="M121 868q-36 0 -62 26q-26 25 -26 62v80h145v183q0 37 26 62q26 26 62 26h88v-271h329q36 0 62 -26t26 -62v-80h-417v-513q0 -121 62 -165q52 -36 178 -36q53 0 113 9q85 0 85 -68v-85q-101 -22 -198 -22q-211 0 -306 74q-110 85 -110 293v513h-57zM863 1018
q69 113 69 333q0 26 19 44t46 18h65v-22q0 -181 -126 -348q-18 -25 -35 -25h-38z" />
    <glyph glyph-name="Tbar" unicode="&#x166;" horiz-adv-x="976" 
d="M111 1245q-36 0 -62 26q-26 25 -26 62v80h919q36 0 62 -26t26 -62v-80h-411v-1157q0 -36 -26 -62t-62 -26h-97v1245h-323zM74 637q-27 0 -47 26q-19 28 -19 65v49h971q28 0 48 -26q18 -27 18 -64v-50h-971z" />
    <glyph glyph-name="tbar" unicode="&#x167;" horiz-adv-x="813" 
d="M241 868q-36 0 -62 26q-26 25 -26 62v80h145v183q0 37 26 62q26 26 62 26h88v-271h329q36 0 62 -26t26 -62v-80h-417v-513q0 -121 62 -165q52 -36 178 -36q53 0 113 9q85 0 85 -68v-85q-101 -22 -198 -22q-211 0 -306 74q-110 85 -110 293v513h-57zM61 446q-27 0 -47 26
q-19 28 -19 65v49h971q28 0 48 -26q18 -27 18 -64v-50h-971z" />
    <glyph glyph-name="Utilde" unicode="&#x168;" horiz-adv-x="1237" 
d="M1096 391q0 -192 -158 -303q-141 -99 -347 -100q-207 0 -350 99q-159 111 -159 304v1022h185v-1022q0 -114 101 -175q86 -53 217 -53h5q134 0 221 53q100 62 100 175v1022h185v-1022zM898 1620q-90 -108 -189 -108q-58 0 -119 38q-82 50 -153 50q-70 0 -129 -50l-27 74
q84 98 178 98q59 0 123 -39q78 -47 147 -47q77 0 142 58z" />
    <glyph glyph-name="utilde" unicode="&#x169;" horiz-adv-x="1138" 
d="M824 180q-92 -192 -348 -192q-367 0 -367 347v701h88q36 0 62 -26t26 -62v-590q0 -204 218 -204q253 0 321 195v599q0 36 26 62t62 26h88v-1036h-88q-36 0 -62 25q-26 26 -26 63v92zM863 1243q-90 -108 -189 -108q-58 0 -119 38q-82 50 -153 50q-70 0 -129 -50l-27 74
q84 98 178 98q59 0 123 -39q78 -47 147 -47q77 0 142 58z" />
    <glyph glyph-name="Umacron" unicode="&#x16a;" horiz-adv-x="1237" 
d="M1096 391q0 -192 -158 -303q-141 -99 -347 -100q-207 0 -350 99q-159 111 -159 304v1022h185v-1022q0 -114 101 -175q86 -53 217 -53h5q134 0 221 53q100 62 100 175v1022h185v-1022zM354 1507q-27 0 -47 26q-19 28 -19 65v49h536q28 0 48 -26q18 -27 18 -64v-50h-536z
" />
    <glyph glyph-name="umacron" unicode="&#x16b;" horiz-adv-x="1138" 
d="M824 180q-92 -192 -348 -192q-367 0 -367 347v701h88q36 0 62 -26t26 -62v-590q0 -204 218 -204q253 0 321 195v599q0 36 26 62t62 26h88v-1036h-88q-36 0 -62 25q-26 26 -26 63v92zM320 1130q-27 0 -47 26q-19 28 -19 65v49h536q28 0 48 -26q18 -27 18 -64v-50h-536z
" />
    <glyph glyph-name="Ubreve" unicode="&#x16c;" horiz-adv-x="1237" 
d="M1096 391q0 -192 -158 -303q-141 -99 -347 -100q-207 0 -350 99q-159 111 -159 304v1022h185v-1022q0 -114 101 -175q86 -53 217 -53h5q134 0 221 53q100 62 100 175v1022h185v-1022zM864 1790l48 -56q-105 -251 -326 -251q-222 0 -319 251l49 56q137 -187 274 -187
t274 187z" />
    <glyph glyph-name="ubreve" unicode="&#x16d;" horiz-adv-x="1138" 
d="M824 180q-92 -192 -348 -192q-367 0 -367 347v701h88q36 0 62 -26t26 -62v-590q0 -204 218 -204q253 0 321 195v599q0 36 26 62t62 26h88v-1036h-88q-36 0 -62 25q-26 26 -26 63v92zM829 1413l48 -56q-105 -251 -326 -251q-222 0 -319 251l49 56q137 -187 274 -187
t274 187z" />
    <glyph glyph-name="Uring" unicode="&#x16e;" horiz-adv-x="1237" 
d="M1096 391q0 -192 -158 -303q-141 -99 -347 -100q-207 0 -350 99q-159 111 -159 304v1022h185v-1022q0 -114 101 -175q86 -53 217 -53h5q134 0 221 53q100 62 100 175v1022h185v-1022zM716.5 1737.5q52.5 -52.5 52.5 -127.5q0 -74 -52.5 -127t-127.5 -53t-127.5 53
t-52.5 127q0 75 52.5 127.5t127.5 52.5t127.5 -52.5zM589 1694q-35 0 -59 -24.5t-24 -59.5q0 -34 24 -58.5t59 -24.5t59.5 24.5t24.5 58.5q0 35 -24.5 59.5t-59.5 24.5z" />
    <glyph glyph-name="uring" unicode="&#x16f;" horiz-adv-x="1138" 
d="M824 180q-92 -192 -348 -192q-367 0 -367 347v701h88q36 0 62 -26t26 -62v-590q0 -204 218 -204q253 0 321 195v599q0 36 26 62t62 26h88v-1036h-88q-36 0 -62 25q-26 26 -26 63v92zM682.5 1360.5q52.5 -52.5 52.5 -127.5q0 -74 -52.5 -127t-127.5 -53t-127.5 53
t-52.5 127q0 75 52.5 127.5t127.5 52.5t127.5 -52.5zM555 1317q-35 0 -59 -24.5t-24 -59.5q0 -34 24 -58.5t59 -24.5t59.5 24.5t24.5 58.5q0 35 -24.5 59.5t-59.5 24.5z" />
    <glyph glyph-name="Uhungarumlaut" unicode="&#x170;" horiz-adv-x="1237" 
d="M1096 391q0 -192 -158 -303q-141 -99 -347 -100q-207 0 -350 99q-159 111 -159 304v1022h185v-1022q0 -114 101 -175q86 -53 217 -53h5q134 0 221 53q100 62 100 175v1022h185v-1022zM214 1483l-48 56l286 251q27 13 50 13q68 0 87 -125zM637 1483l-48 56l286 251
q27 13 50 13q68 0 87 -125z" />
    <glyph glyph-name="uhungarumlaut" unicode="&#x171;" horiz-adv-x="1138" 
d="M824 180q-92 -192 -348 -192q-367 0 -367 347v701h88q36 0 62 -26t26 -62v-590q0 -204 218 -204q253 0 321 195v599q0 36 26 62t62 26h88v-1036h-88q-36 0 -62 25q-26 26 -26 63v92zM180 1106l-48 56l286 251q27 13 50 13q68 0 87 -125zM603 1106l-48 56l286 251
q27 13 50 13q68 0 87 -125z" />
    <glyph glyph-name="Uogonek" unicode="&#x172;" horiz-adv-x="1237" 
d="M1096 391q0 -192 -158 -303q-141 -99 -347 -100q-207 0 -350 99q-159 111 -159 304v1022h185v-1022q0 -114 101 -175q86 -53 217 -53h5q134 0 221 53q100 62 100 175v1022h185v-1022zM635 0q-165 -143 -165 -225q0 -30 22 -52q21 -11 50 -11q57 0 147 44q12 3 20 3
q26 0 26 -28v-47q-120 -75 -213 -75q-42 0 -79 16q-85 50 -85 122q0 104 186 253h91z" />
    <glyph glyph-name="uogonek" unicode="&#x173;" horiz-adv-x="1138" 
d="M824 180q-92 -192 -348 -192q-367 0 -367 347v701h88q36 0 62 -26t26 -62v-590q0 -204 218 -204q253 0 321 195v599q0 36 26 62t62 26h88v-1036h-88q-36 0 -62 25q-26 26 -26 63v92zM1000 0q-165 -143 -165 -225q0 -30 22 -52q21 -11 50 -11q57 0 147 44q12 3 20 3
q26 0 26 -28v-47q-120 -75 -213 -75q-42 0 -79 16q-85 50 -85 122q0 104 186 253h91z" />
    <glyph glyph-name="Wcircumflex" unicode="&#x174;" horiz-adv-x="2083" 
d="M556 163l321 1140q27 109 132 109h89q105 0 132 -108l321 -1141l321 1140q28 109 133 109h88l-369 -1313q-28 -110 -134 -110h-78q-105 0 -132 108l-326 1159l-326 -1157q-28 -110 -133 -110h-78q-106 0 -133 108l-370 1315h88q106 0 133 -108zM1054 1626l-274 -143
l-49 56q131 114 286 251h73l286 -251l-48 -56z" />
    <glyph glyph-name="wcircumflex" unicode="&#x175;" horiz-adv-x="1538" 
d="M97 1036q93 0 117 -90l198 -816l181 816q24 90 116 90h76q92 0 116 -90l206 -816l173 816q24 90 117 90h69l-191 -946q-24 -90 -117 -90h-103q-92 0 -116 90l-199 792l-160 -792q-24 -90 -117 -90h-102q-93 0 -117 90l-237 946h90zM737 1249l-274 -143l-49 56
q131 114 286 251h73l286 -251l-48 -56z" />
    <glyph glyph-name="Ycircumflex" unicode="&#x176;" horiz-adv-x="1136" 
d="M657 88q0 -36 -26 -62t-62 -26h-97v623q-155 1 -208 42q-61 46 -106 216l-145 532h95q84 0 102 -65l130 -456q19 -69 53 -87q27 -15 109 -15h125q81 0 108 15q34 18 54 87l130 456q17 65 101 65h95l-145 -532q-44 -163 -104 -211q-56 -43 -209 -47v-535zM565 1626
l-274 -143l-49 56q131 114 286 251h73l286 -251l-48 -56z" />
    <glyph glyph-name="ycircumflex" unicode="&#x177;" horiz-adv-x="1141" 
d="M999 143q0 -530 -489 -530q-242 0 -402 96v83q0 52 48 52q15 0 35 -5q162 -60 319 -60q178 0 253 107q60 86 60 257v37q-92 -192 -348 -192q-367 0 -367 347v701h88q36 0 62 -26t26 -62v-590q0 -204 218 -204q246 0 321 212v582q0 36 26 62t62 26h88v-893zM554 1249
l-274 -143l-49 56q131 114 286 251h73l286 -251l-48 -56z" />
    <glyph glyph-name="Ydieresis" unicode="&#x178;" horiz-adv-x="1136" 
d="M657 88q0 -36 -26 -62t-62 -26h-97v623q-155 1 -208 42q-61 46 -106 216l-145 532h95q84 0 102 -65l130 -456q19 -69 53 -87q27 -15 109 -15h125q81 0 108 15q34 18 54 87l130 456q17 65 101 65h95l-145 -532q-44 -163 -104 -211q-56 -43 -209 -47v-535zM305 1606
q0 36 27 62t66 26h92v-125q0 -36 -27 -62t-65 -26h-93v125zM823 1481h-93q-38 0 -65 26t-27 62v125h92q39 0 66 -26t27 -62v-125z" />
    <glyph glyph-name="Zacute" unicode="&#x179;" horiz-adv-x="1100" 
d="M954 1412q38 0 64 -26q27 -27 27 -65v-102l-808 -1049h716q38 0 64 -26q27 -27 27 -65v-79h-915q-38 0 -64 27q-27 26 -27 64v102l808 1049h-717q-38 0 -64 27q-27 26 -27 64v79h916zM449 1483l-48 56l286 251q27 13 50 13q68 0 87 -125z" />
    <glyph glyph-name="zacute" unicode="&#x17a;" horiz-adv-x="874" 
d="M731 1036q36 0 62 -26t26 -62v-80l-562 -701h474q36 0 62 -25q26 -26 26 -63v-79h-688q-36 0 -62 25q-26 26 -26 63v79l562 701h-474q-36 0 -62 26q-26 25 -26 62v80h688zM338 1106l-48 56l286 251q27 13 50 13q68 0 87 -125z" />
    <glyph glyph-name="Zdotaccent" unicode="&#x17b;" horiz-adv-x="1100" 
d="M954 1412q38 0 64 -26q27 -27 27 -65v-102l-808 -1049h716q38 0 64 -26q27 -27 27 -65v-79h-915q-38 0 -64 27q-27 26 -27 64v102l808 1049h-717q-38 0 -64 27q-27 26 -27 64v79h916zM449 1606q0 36 27 62t66 26h92v-125q0 -36 -27 -62t-65 -26h-93v125z" />
    <glyph glyph-name="zdotaccent" unicode="&#x17c;" horiz-adv-x="874" 
d="M731 1036q36 0 62 -26t26 -62v-80l-562 -701h474q36 0 62 -25q26 -26 26 -63v-79h-688q-36 0 -62 25q-26 26 -26 63v79l562 701h-474q-36 0 -62 26q-26 25 -26 62v80h688zM339 1229q0 36 27 62t66 26h92v-125q0 -36 -27 -62t-65 -26h-93v125z" />
    <glyph glyph-name="Zcaron" unicode="&#x17d;" horiz-adv-x="1100" 
d="M954 1412q38 0 64 -26q27 -27 27 -65v-102l-808 -1049h716q38 0 64 -26q27 -27 27 -65v-79h-915q-38 0 -64 27q-27 26 -27 64v102l808 1049h-717q-38 0 -64 27q-27 26 -27 64v79h916zM816 1790l48 -56l-286 -251h-73q-155 137 -286 251l49 56l274 -143z" />
    <glyph glyph-name="zcaron" unicode="&#x17e;" horiz-adv-x="874" 
d="M731 1036q36 0 62 -26t26 -62v-80l-562 -701h474q36 0 62 -25q26 -26 26 -63v-79h-688q-36 0 -62 25q-26 26 -26 63v79l562 701h-474q-36 0 -62 26q-26 25 -26 62v80h688zM706 1413l48 -56l-286 -251h-73q-155 137 -286 251l49 56l274 -143z" />
    <glyph glyph-name="longs" unicode="&#x17f;" horiz-adv-x="682" 
d="M330 88q0 -37 -26 -62q-26 -26 -62 -26h-88v1056q0 208 110 293q95 74 305 74q97 0 198 -23v-85q0 -68 -85 -68q-60 10 -113 10q-126 0 -177 -37q-62 -44 -62 -164v-968z" />
    <glyph glyph-name="uni0218" unicode="&#x218;" horiz-adv-x="1140" 
d="M760 220q102 65 102 176q0 135 -131 189q-58 24 -287 59q-200 30 -288 90q-131 89 -131 283q0 195 145 309q133 106 332 106q225 0 475 -90v-60q0 -38 -27 -65t-65 -27q-215 67 -383 67q-117 0 -200 -60q-92 -67 -92 -180q0 -122 132 -169q44 -16 291 -53
q198 -30 288 -97q126 -92 126 -289v-12q-4 -193 -156 -306q-138 -103 -338 -103q-225 0 -475 90v60q0 38 27 65t65 27q215 -67 383 -67q119 0 207 57zM422 -418q79 97 79 286q0 22 22 37q21 15 52 15h74v-18q0 -156 -144 -299q-21 -21 -40 -21h-43z" />
    <glyph glyph-name="uni0219" unicode="&#x219;" horiz-adv-x="907" 
d="M787 951v-83q0 -52 -47 -52q-15 0 -36 6q-163 59 -293 59q-86 0 -135 -45q-45 -40 -45 -98q0 -72 93 -101q2 -1 203 -39q137 -25 202 -79q88 -72 88 -213v-9q-2 -126 -95 -213q-102 -96 -275 -96q-217 0 -377 96v83q0 52 48 52q15 0 35 -5q163 -60 294 -60q86 0 141 45
q50 41 50 98q0 82 -91 116q-27 10 -202 42q-137 25 -201 73q-92 69 -92 210q0 127 88 213q98 97 271 97q216 0 376 -97zM321 -418q79 97 79 286q0 22 22 37q21 15 52 15h74v-18q0 -156 -144 -299q-21 -21 -40 -21h-43z" />
    <glyph glyph-name="uni021A" unicode="&#x21a;" horiz-adv-x="976" 
d="M96 1245q-36 0 -62 26q-26 25 -26 62v80h919q36 0 62 -26t26 -62v-80h-411v-1157q0 -36 -26 -62t-62 -26h-97v1245h-323zM398 -418q79 97 79 286q0 22 22 37q21 15 52 15h74v-18q0 -156 -144 -299q-21 -21 -40 -21h-43z" />
    <glyph glyph-name="uni021B" unicode="&#x21b;" horiz-adv-x="813" 
d="M121 868q-36 0 -62 26q-26 25 -26 62v80h145v183q0 37 26 62q26 26 62 26h88v-271h329q36 0 62 -26t26 -62v-80h-417v-513q0 -121 62 -165q52 -36 178 -36q53 0 113 9q85 0 85 -68v-85q-101 -22 -198 -22q-211 0 -306 74q-110 85 -110 293v513h-57zM280 -418
q79 97 79 286q0 22 22 37q21 15 52 15h74v-18q0 -156 -144 -299q-21 -21 -40 -21h-43z" />
    <glyph glyph-name="uni0232" unicode="&#x232;" horiz-adv-x="1136" 
d="M657 88q0 -36 -26 -62t-62 -26h-97v623q-155 1 -208 42q-61 46 -106 216l-145 532h95q84 0 102 -65l130 -456q19 -69 53 -87q27 -15 109 -15h125q81 0 108 15q34 18 54 87l130 456q17 65 101 65h95l-145 -532q-44 -163 -104 -211q-56 -43 -209 -47v-535zM329 1507
q-27 0 -47 26q-19 28 -19 65v49h536q28 0 48 -26q18 -27 18 -64v-50h-536z" />
    <glyph glyph-name="uni0233" unicode="&#x233;" horiz-adv-x="1141" 
d="M999 143q0 -530 -489 -530q-242 0 -402 96v83q0 52 48 52q15 0 35 -5q162 -60 319 -60q178 0 253 107q60 86 60 257v37q-92 -192 -348 -192q-367 0 -367 347v701h88q36 0 62 -26t26 -62v-590q0 -204 218 -204q246 0 321 212v582q0 36 26 62t62 26h88v-893zM319 1130
q-27 0 -47 26q-19 28 -19 65v49h536q28 0 48 -26q18 -27 18 -64v-50h-536z" />
    <glyph glyph-name="uni1E0C" unicode="&#x1e0c;" horiz-adv-x="1356" 
d="M1205 535q0 -253 -159 -396q-153 -139 -408 -139h-568v897q0 252 159 396q153 139 409 139q255 0 408 -139q159 -144 159 -396v-362zM638 168q170 0 274 94q108 97 108 265v370q0 168 -108 266q-104 94 -274 94q-171 0 -275 -94q-108 -98 -108 -266v-729h383zM559 -237
q0 31 23 52q23 23 55 23h79v-106q0 -31 -23 -53t-56 -22h-78v106z" />
    <glyph glyph-name="uni1E0D" unicode="&#x1e0d;" horiz-adv-x="1180" 
d="M871 824q-160 58 -313 58q-173 0 -249 -101q-65 -86 -65 -263q0 -178 61 -263q73 -101 245 -101q246 0 321 212v458zM871 181q-92 -193 -348 -193q-455 0 -455 530t490 530q170 0 313 -54v331q0 36 26 62t62 26h88v-1413h-88q-36 0 -62 26q-26 25 -26 62v93zM479 -237
q0 31 23 52q23 23 55 23h79v-106q0 -31 -23 -53t-56 -22h-78v106z" />
    <glyph glyph-name="uni1E24" unicode="&#x1e24;" horiz-adv-x="1301" 
d="M279 88q0 -36 -26 -62t-62 -26h-97v1413h97q36 0 62 -26t26 -62v-535h668v535q0 36 26 62t62 26h97v-1413h-97q-36 0 -62 26t-26 62v534h-668v-534zM534 -237q0 31 23 52q23 23 55 23h79v-106q0 -31 -23 -53t-56 -22h-78v106z" />
    <glyph glyph-name="uni1E25" unicode="&#x1e25;" horiz-adv-x="1144" 
d="M1009 0h-88q-36 0 -62 26q-26 25 -26 62v590q0 204 -218 204q-246 0 -321 -211v-583q0 -37 -26 -62q-26 -26 -62 -26h-88v1413h88q36 0 62 -26t26 -62v-470q93 193 348 193q367 0 367 -347v-701zM485 -237q0 31 23 52q23 23 55 23h79v-106q0 -31 -23 -53t-56 -22h-78v106
z" />
    <glyph glyph-name="uni1E32" unicode="&#x1e32;" horiz-adv-x="1193" 
d="M581 790q101 1 134 23q40 26 68 126l117 409q17 65 101 65h95l-150 -550q-22 -81 -74 -114q69 -46 115 -217l145 -532h-95q-84 0 -101 64l-130 457q-20 68 -54 87q-27 14 -109 14h-364v-534q0 -36 -26 -62t-62 -26h-97v1413h97q36 0 62 -26t26 -62v-535h302zM534 -237
q0 31 23 52q23 23 55 23h79v-106q0 -31 -23 -53t-56 -22h-78v106z" />
    <glyph glyph-name="uni1E33" unicode="&#x1e33;" horiz-adv-x="1036" 
d="M120 1413h88q36 0 62 -26t26 -62v-723h258q90 0 112 56l105 309q23 69 111 69h88l-123 -363q-31 -91 -70 -118q60 -43 89 -128l145 -427h-88q-88 0 -109 63l-107 314q-19 57 -93 57h-318v-346q0 -37 -26 -62q-26 -26 -62 -26h-88v1413zM487 -237q0 31 23 52q23 23 55 23
h79v-106q0 -31 -23 -53t-56 -22h-78v106z" />
    <glyph glyph-name="uni1E36" unicode="&#x1e36;" horiz-adv-x="1168" 
d="M70 1420h92q39 0 66 -27t27 -65v-805q0 -169 108 -266q104 -94 275 -94q167 0 382 67q38 0 66 -27q27 -27 27 -65v-60q-250 -90 -475 -90q-256 0 -409 139q-159 143 -159 396v897zM513 -237q0 31 23 52q23 23 55 23h79v-106q0 -31 -23 -53t-56 -22h-78v106z" />
    <glyph glyph-name="uni1E37" unicode="&#x1e37;" horiz-adv-x="532" 
d="M113 1413h88q36 0 62 -26t26 -62v-978q0 -162 46 -176q26 -8 59 -8q23 0 50 4q85 0 85 -69v-85q-77 -18 -155 -18q-24 0 -48 2q-102 7 -157.5 78.5t-55.5 271.5v1066zM242 -237q0 31 23 52q23 23 55 23h79v-106q0 -31 -23 -53t-56 -22h-78v106z" />
    <glyph glyph-name="uni1E38" unicode="&#x1e38;" horiz-adv-x="1168" 
d="M70 1420h92q39 0 66 -27t27 -65v-805q0 -169 108 -266q104 -94 275 -94q167 0 382 67q38 0 66 -27q27 -27 27 -65v-60q-250 -90 -475 -90q-256 0 -409 139q-159 143 -159 396v897zM357 1507q-27 0 -47 26q-19 28 -19 65v49h536q28 0 48 -26q18 -27 18 -64v-50h-536z
M513 -237q0 31 23 52q23 23 55 23h79v-106q0 -31 -23 -53t-56 -22h-78v106z" />
    <glyph glyph-name="uni1E39" unicode="&#x1e39;" horiz-adv-x="532" 
d="M206 1413h88q36 0 62 -26t26 -62v-978q0 -162 46 -176q26 -8 59 -8q23 0 50 4q85 0 85 -69v-85q-77 -18 -155 -18q-24 0 -48 2q-102 7 -157.5 78.5t-55.5 271.5v1066zM179 1507q-27 0 -47 26q-19 28 -19 65v49h536q28 0 48 -26q18 -27 18 -64v-50h-536zM335 -237
q0 31 23 52q23 23 55 23h79v-106q0 -31 -23 -53t-56 -22h-78v106z" />
    <glyph glyph-name="uni1E3A" unicode="&#x1e3a;" horiz-adv-x="1168" 
d="M70 1420h92q39 0 66 -27t27 -65v-805q0 -169 108 -266q104 -94 275 -94q167 0 382 67q38 0 66 -27q27 -27 27 -65v-60q-250 -90 -475 -90q-256 0 -409 139q-159 143 -159 396v897zM210 -323q-27 0 -47 26q-19 28 -19 65v49h830q28 0 48 -26q18 -27 18 -64v-50h-830z" />
    <glyph glyph-name="uni1E3B" unicode="&#x1e3b;" horiz-adv-x="532" 
d="M353 1413h88q36 0 62 -26t26 -62v-978q0 -162 46 -176q26 -8 59 -8q23 0 50 4q85 0 85 -69v-85q-77 -18 -155 -18q-24 0 -48 2q-102 7 -157.5 78.5t-55.5 271.5v1066zM179 -323q-27 0 -47 26q-19 28 -19 65v49h830q28 0 48 -26q18 -27 18 -64v-50h-830z" />
    <glyph glyph-name="uni1E40" unicode="&#x1e40;" horiz-adv-x="1791" 
d="M93 0v1328q0 38 27 65t65 27h95q94 -1 131 -95l447 -1153l448 1153q37 94 131 95h95q38 0 65 -27t27 -65v-1328h-92q-39 0 -66 27t-27 65v1118l-436 -1124q-33 -86 -112 -86h-65q-79 0 -112 86l-436 1124v-1118q0 -38 -27 -65t-66 -27h-92zM766 1606q0 36 27 62t66 26h92
v-125q0 -36 -27 -62t-65 -26h-93v125z" />
    <glyph glyph-name="uni1E41" unicode="&#x1e41;" horiz-adv-x="1676" 
d="M738 678q0 119 -47 164q-40 40 -136 40q-193 0 -268 -211v-583q0 -37 -26 -62q-26 -26 -62 -26h-88v1036h88q36 0 62 -26q26 -25 26 -62v-93q93 193 295 193q260 0 317 -213q115 213 310 213q333 0 333 -347v-701h-88q-37 0 -62 26q-26 25 -26 62v590q0 119 -47 164
q-41 40 -137 40q-193 0 -268 -211v-583q0 -37 -25 -62q-26 -26 -63 -26h-88v678zM734 1229q0 36 27 62t66 26h92v-125q0 -36 -27 -62t-65 -26h-93v125z" />
    <glyph glyph-name="uni1E42" unicode="&#x1e42;" horiz-adv-x="1791" 
d="M93 0v1328q0 38 27 65t65 27h95q94 -1 131 -95l447 -1153l448 1153q37 94 131 95h95q38 0 65 -27t27 -65v-1328h-92q-39 0 -66 27t-27 65v1118l-436 -1124q-33 -86 -112 -86h-65q-79 0 -112 86l-436 1124v-1118q0 -38 -27 -65t-66 -27h-92zM780 -237q0 31 23 52
q23 23 55 23h79v-106q0 -31 -23 -53t-56 -22h-78v106z" />
    <glyph glyph-name="uni1E43" unicode="&#x1e43;" horiz-adv-x="1676" 
d="M738 678q0 119 -47 164q-40 40 -136 40q-193 0 -268 -211v-583q0 -37 -26 -62q-26 -26 -62 -26h-88v1036h88q36 0 62 -26q26 -25 26 -62v-93q93 193 295 193q260 0 317 -213q115 213 310 213q333 0 333 -347v-701h-88q-37 0 -62 26q-26 25 -26 62v590q0 119 -47 164
q-41 40 -137 40q-193 0 -268 -211v-583q0 -37 -25 -62q-26 -26 -63 -26h-88v678zM748 -237q0 31 23 52q23 23 55 23h79v-106q0 -31 -23 -53t-56 -22h-78v106z" />
    <glyph glyph-name="uni1E44" unicode="&#x1e44;" horiz-adv-x="1397" 
d="M93 1328q0 38 27 65t65 27h190l668 -1248v1248h185v-1328q0 -38 -27 -65t-65 -27h-190l-668 1248v-1156q0 -38 -27 -65t-66 -27h-92v1328zM568 1606q0 36 27 62t66 26h92v-125q0 -36 -27 -62t-65 -26h-93v125z" />
    <glyph glyph-name="uni1E45" unicode="&#x1e45;" horiz-adv-x="1134" 
d="M1002 0h-88q-36 0 -62 26q-26 25 -26 62v590q0 204 -218 204q-246 0 -321 -212v-582q0 -37 -26 -62q-26 -26 -62 -26h-88v1036h88q36 0 62 -26q26 -25 26 -62v-93q93 193 348 193q367 0 367 -347v-701zM464 1229q0 36 27 62t66 26h92v-125q0 -36 -27 -62t-65 -26h-93v125
z" />
    <glyph glyph-name="uni1E46" unicode="&#x1e46;" horiz-adv-x="1397" 
d="M93 1328q0 38 27 65t65 27h190l668 -1248v1248h185v-1328q0 -38 -27 -65t-65 -27h-190l-668 1248v-1156q0 -38 -27 -65t-66 -27h-92v1328zM582 -237q0 31 23 52q23 23 55 23h79v-106q0 -31 -23 -53t-56 -22h-78v106z" />
    <glyph glyph-name="uni1E47" unicode="&#x1e47;" horiz-adv-x="1134" 
d="M1002 0h-88q-36 0 -62 26q-26 25 -26 62v590q0 204 -218 204q-246 0 -321 -212v-582q0 -37 -26 -62q-26 -26 -62 -26h-88v1036h88q36 0 62 -26q26 -25 26 -62v-93q93 193 348 193q367 0 367 -347v-701zM478 -237q0 31 23 52q23 23 55 23h79v-106q0 -31 -23 -53t-56 -22
h-78v106z" />
    <glyph glyph-name="uni1E48" unicode="&#x1e48;" horiz-adv-x="1397" 
d="M93 1328q0 38 27 65t65 27h190l668 -1248v1248h185v-1328q0 -38 -27 -65t-65 -27h-190l-668 1248v-1156q0 -38 -27 -65t-66 -27h-92v1328zM279 -323q-27 0 -47 26q-19 28 -19 65v49h830q28 0 48 -26q18 -27 18 -64v-50h-830z" />
    <glyph glyph-name="uni1E49" unicode="&#x1e49;" horiz-adv-x="1134" 
d="M1004 0h-88q-36 0 -62 26q-26 25 -26 62v590q0 204 -218 204q-246 0 -321 -212v-582q0 -37 -26 -62q-26 -26 -62 -26h-88v1036h88q36 0 62 -26q26 -25 26 -62v-93q93 193 348 193q367 0 367 -347v-701zM177 -323q-27 0 -47 26q-19 28 -19 65v49h830q28 0 48 -26
q18 -27 18 -64v-50h-830z" />
    <glyph glyph-name="uni1E58" unicode="&#x1e58;" horiz-adv-x="1206" 
d="M272 753h261q383 0 383 276q0 113 -100 175q-87 53 -221 53h-5q-131 0 -217 -53q-101 -61 -101 -175v-276zM998 371l167 -371h-120q-72 0 -101 64l-138 307l-50 112q-39 102 -198 102h-286v-585h-185v1029q0 193 159 304q142 99 346 99h4q206 -1 347 -100
q158 -111 158 -303q0 -300 -255 -397q61 -38 134 -222zM534 1606q0 36 27 62t66 26h92v-125q0 -36 -27 -62t-65 -26h-93v125z" />
    <glyph glyph-name="uni1E59" unicode="&#x1e59;" horiz-adv-x="840" 
d="M111 1036h88q36 0 62 -26t26 -62v-93q93 193 295 193q96 0 198 -23v-85q0 -68 -85 -68q-61 9 -140 9q-193 0 -268 -211v-582q0 -37 -26 -63q-26 -25 -62 -25h-88v1036zM353 1229q0 36 27 62t66 26h92v-125q0 -36 -27 -62t-65 -26h-93v125z" />
    <glyph glyph-name="uni1E5A" unicode="&#x1e5a;" horiz-adv-x="1206" 
d="M272 753h261q383 0 383 276q0 113 -100 175q-87 53 -221 53h-5q-131 0 -217 -53q-101 -61 -101 -175v-276zM998 371l167 -371h-120q-72 0 -101 64l-138 307l-50 112q-39 102 -198 102h-286v-585h-185v1029q0 193 159 304q142 99 346 99h4q206 -1 347 -100
q158 -111 158 -303q0 -300 -255 -397q61 -38 134 -222zM547 -237q0 31 23 52q23 23 55 23h79v-106q0 -31 -23 -53t-56 -22h-78v106z" />
    <glyph glyph-name="uni1E5B" unicode="&#x1e5b;" horiz-adv-x="840" 
d="M111 1036h88q36 0 62 -26t26 -62v-93q93 193 295 193q96 0 198 -23v-85q0 -68 -85 -68q-61 9 -140 9q-193 0 -268 -211v-582q0 -37 -26 -63q-26 -25 -62 -25h-88v1036zM253 -237q0 31 23 52q23 23 55 23h79v-106q0 -31 -23 -53t-56 -22h-78v106z" />
    <glyph glyph-name="uni1E5C" unicode="&#x1e5c;" horiz-adv-x="1206" 
d="M272 753h261q383 0 383 276q0 113 -100 175q-87 53 -221 53h-5q-131 0 -217 -53q-101 -61 -101 -175v-276zM998 371l167 -371h-120q-72 0 -101 64l-138 307l-50 112q-39 102 -198 102h-286v-585h-185v1029q0 193 159 304q142 99 346 99h4q206 -1 347 -100
q158 -111 158 -303q0 -300 -255 -397q61 -38 134 -222zM391 1507q-27 0 -47 26q-19 28 -19 65v49h536q28 0 48 -26q18 -27 18 -64v-50h-536zM547 -237q0 31 23 52q23 23 55 23h79v-106q0 -31 -23 -53t-56 -22h-78v106z" />
    <glyph glyph-name="uni1E5D" unicode="&#x1e5d;" horiz-adv-x="840" 
d="M111 1036h88q36 0 62 -26t26 -62v-93q93 193 295 193q96 0 198 -23v-85q0 -68 -85 -68q-61 9 -140 9q-193 0 -268 -211v-582q0 -37 -26 -63q-26 -25 -62 -25h-88v1036zM211 1130q-27 0 -47 26q-19 28 -19 65v49h536q28 0 48 -26q18 -27 18 -64v-50h-536zM253 -237
q0 31 23 52q23 23 55 23h79v-106q0 -31 -23 -53t-56 -22h-78v106z" />
    <glyph glyph-name="uni1E5E" unicode="&#x1e5e;" horiz-adv-x="1206" 
d="M272 753h261q383 0 383 276q0 113 -100 175q-87 53 -221 53h-5q-131 0 -217 -53q-101 -61 -101 -175v-276zM998 371l167 -371h-120q-72 0 -101 64l-138 307l-50 112q-39 102 -198 102h-286v-585h-185v1029q0 193 159 304q142 99 346 99h4q206 -1 347 -100
q158 -111 158 -303q0 -300 -255 -397q61 -38 134 -222zM244 -323q-27 0 -47 26q-19 28 -19 65v49h830q28 0 48 -26q18 -27 18 -64v-50h-830z" />
    <glyph glyph-name="uni1E5F" unicode="&#x1e5f;" horiz-adv-x="840" 
d="M338 1036h88q36 0 62 -26t26 -62v-93q93 193 295 193q96 0 198 -23v-85q0 -68 -85 -68q-61 9 -140 9q-193 0 -268 -211v-582q0 -37 -26 -63q-26 -25 -62 -25h-88v1036zM177 -323q-27 0 -47 26q-19 28 -19 65v49h830q28 0 48 -26q18 -27 18 -64v-50h-830z" />
    <glyph glyph-name="uni1E62" unicode="&#x1e62;" horiz-adv-x="1140" 
d="M760 220q102 65 102 176q0 135 -131 189q-58 24 -287 59q-200 30 -288 90q-131 89 -131 283q0 195 145 309q133 106 332 106q225 0 475 -90v-60q0 -38 -27 -65t-65 -27q-215 67 -383 67q-117 0 -200 -60q-92 -67 -92 -180q0 -122 132 -169q44 -16 291 -53
q198 -30 288 -97q126 -92 126 -289v-12q-4 -193 -156 -306q-138 -103 -338 -103q-225 0 -475 90v60q0 38 27 65t65 27q215 -67 383 -67q119 0 207 57zM457 -237q0 31 23 52q23 23 55 23h79v-106q0 -31 -23 -53t-56 -22h-78v106z" />
    <glyph glyph-name="uni1E63" unicode="&#x1e63;" horiz-adv-x="907" 
d="M787 951v-83q0 -52 -47 -52q-15 0 -36 6q-163 59 -293 59q-86 0 -135 -45q-45 -40 -45 -98q0 -72 93 -101q2 -1 203 -39q137 -25 202 -79q88 -72 88 -213v-9q-2 -126 -95 -213q-102 -96 -275 -96q-217 0 -377 96v83q0 52 48 52q15 0 35 -5q163 -60 294 -60q86 0 141 45
q50 41 50 98q0 82 -91 116q-27 10 -202 42q-137 25 -201 73q-92 69 -92 210q0 127 88 213q98 97 271 97q216 0 376 -97zM356 -237q0 31 23 52q23 23 55 23h79v-106q0 -31 -23 -53t-56 -22h-78v106z" />
    <glyph glyph-name="uni1E6C" unicode="&#x1e6c;" horiz-adv-x="976" 
d="M96 1245q-36 0 -62 26q-26 25 -26 62v80h919q36 0 62 -26t26 -62v-80h-411v-1157q0 -36 -26 -62t-62 -26h-97v1245h-323zM433 -237q0 31 23 52q23 23 55 23h79v-106q0 -31 -23 -53t-56 -22h-78v106z" />
    <glyph glyph-name="uni1E6D" unicode="&#x1e6d;" horiz-adv-x="813" 
d="M121 868q-36 0 -62 26q-26 25 -26 62v80h145v183q0 37 26 62q26 26 62 26h88v-271h329q36 0 62 -26t26 -62v-80h-417v-513q0 -121 62 -165q52 -36 178 -36q53 0 113 9q85 0 85 -68v-85q-101 -22 -198 -22q-211 0 -306 74q-110 85 -110 293v513h-57zM315 -237q0 31 23 52
q23 23 55 23h79v-106q0 -31 -23 -53t-56 -22h-78v106z" />
    <glyph glyph-name="Wgrave" unicode="&#x1e80;" horiz-adv-x="2083" 
d="M556 163l321 1140q27 109 132 109h89q105 0 132 -108l321 -1141l321 1140q28 109 133 109h88l-369 -1313q-28 -110 -134 -110h-78q-105 0 -132 108l-326 1159l-326 -1157q-28 -110 -133 -110h-78q-106 0 -133 108l-370 1315h88q106 0 133 -108zM772 1678q19 125 87 125
q23 0 50 -13l286 -251l-48 -56z" />
    <glyph glyph-name="wgrave" unicode="&#x1e81;" horiz-adv-x="1538" 
d="M97 1036q93 0 117 -90l198 -816l181 816q24 90 116 90h76q92 0 116 -90l206 -816l173 816q24 90 117 90h69l-191 -946q-24 -90 -117 -90h-103q-92 0 -116 90l-199 792l-160 -792q-24 -90 -117 -90h-102q-93 0 -117 90l-237 946h90zM455 1301q19 125 87 125q23 0 50 -13
l286 -251l-48 -56z" />
    <glyph glyph-name="Wacute" unicode="&#x1e82;" horiz-adv-x="2083" 
d="M556 163l321 1140q27 109 132 109h89q105 0 132 -108l321 -1141l321 1140q28 109 133 109h88l-369 -1313q-28 -110 -134 -110h-78q-105 0 -132 108l-326 1159l-326 -1157q-28 -110 -133 -110h-78q-106 0 -133 108l-370 1315h88q106 0 133 -108zM961 1483l-48 56l286 251
q27 13 50 13q68 0 87 -125z" />
    <glyph glyph-name="wacute" unicode="&#x1e83;" horiz-adv-x="1538" 
d="M97 1036q93 0 117 -90l198 -816l181 816q24 90 116 90h76q92 0 116 -90l206 -816l173 816q24 90 117 90h69l-191 -946q-24 -90 -117 -90h-103q-92 0 -116 90l-199 792l-160 -792q-24 -90 -117 -90h-102q-93 0 -117 90l-237 946h90zM644 1106l-48 56l286 251q27 13 50 13
q68 0 87 -125z" />
    <glyph glyph-name="Wdieresis" unicode="&#x1e84;" horiz-adv-x="2083" 
d="M556 163l321 1140q27 109 132 109h89q105 0 132 -108l321 -1141l321 1140q28 109 133 109h88l-369 -1313q-28 -110 -134 -110h-78q-105 0 -132 108l-326 1159l-326 -1157q-28 -110 -133 -110h-78q-106 0 -133 108l-370 1315h88q106 0 133 -108zM795 1606q0 36 27 62
t66 26h92v-125q0 -36 -27 -62t-65 -26h-93v125zM1313 1481h-93q-38 0 -65 26t-27 62v125h92q39 0 66 -26t27 -62v-125z" />
    <glyph glyph-name="wdieresis" unicode="&#x1e85;" horiz-adv-x="1538" 
d="M97 1036q93 0 117 -90l198 -816l181 816q24 90 116 90h76q92 0 116 -90l206 -816l173 816q24 90 117 90h69l-191 -946q-24 -90 -117 -90h-103q-92 0 -116 90l-199 792l-160 -792q-24 -90 -117 -90h-102q-93 0 -117 90l-237 946h90zM478 1229q0 36 27 62t66 26h92v-125
q0 -36 -27 -62t-65 -26h-93v125zM996 1104h-93q-38 0 -65 26t-27 62v125h92q39 0 66 -26t27 -62v-125z" />
    <glyph glyph-name="uni1E88" unicode="&#x1e88;" horiz-adv-x="2083" 
d="M556 163l321 1140q27 109 132 109h89q105 0 132 -108l321 -1141l321 1140q28 109 133 109h88l-369 -1313q-28 -110 -134 -110h-78q-105 0 -132 108l-326 1159l-326 -1157q-28 -110 -133 -110h-78q-106 0 -133 108l-370 1315h88q106 0 133 -108zM975 -237q0 31 23 52
q23 23 55 23h79v-106q0 -31 -23 -53t-56 -22h-78v106z" />
    <glyph glyph-name="uni1E89" unicode="&#x1e89;" horiz-adv-x="1538" 
d="M97 1036q93 0 117 -90l198 -816l181 816q24 90 116 90h76q92 0 116 -90l206 -816l173 816q24 90 117 90h69l-191 -946q-24 -90 -117 -90h-103q-92 0 -116 90l-199 792l-160 -792q-24 -90 -117 -90h-102q-93 0 -117 90l-237 946h90zM658 -237q0 31 23 52q23 23 55 23h79
v-106q0 -31 -23 -53t-56 -22h-78v106z" />
    <glyph glyph-name="uni1E92" unicode="&#x1e92;" horiz-adv-x="1100" 
d="M954 1412q38 0 64 -26q27 -27 27 -65v-102l-808 -1049h716q38 0 64 -26q27 -27 27 -65v-79h-915q-38 0 -64 27q-27 26 -27 64v102l808 1049h-717q-38 0 -64 27q-27 26 -27 64v79h916zM463 -237q0 31 23 52q23 23 55 23h79v-106q0 -31 -23 -53t-56 -22h-78v106z" />
    <glyph glyph-name="uni1E93" unicode="&#x1e93;" horiz-adv-x="874" 
d="M731 1036q36 0 62 -26t26 -62v-80l-562 -701h474q36 0 62 -25q26 -26 26 -63v-79h-688q-36 0 -62 25q-26 26 -26 63v79l562 701h-474q-36 0 -62 26q-26 25 -26 62v80h688zM352 -237q0 31 23 52q23 23 55 23h79v-106q0 -31 -23 -53t-56 -22h-78v106z" />
    <glyph glyph-name="uni1EBC" unicode="&#x1ebc;" horiz-adv-x="1133" 
d="M25 897q0 252 159 396q153 139 408 139q226 0 476 -90v-60q0 -38 -28 -65q-27 -27 -65 -27q-214 67 -383 67q-170 0 -274 -94q-108 -98 -108 -266v-88h677q37 0 62 -25q26 -26 26 -63v-79h-765v-119q0 -169 108 -266q104 -94 274 -94q169 0 383 67q38 0 65 -27
q28 -27 28 -65v-60q-250 -90 -476 -90q-255 0 -408 139q-159 143 -159 396v374zM855 1620q-90 -108 -189 -108q-58 0 -119 38q-82 50 -153 50q-70 0 -129 -50l-27 74q84 98 178 98q59 0 123 -39q78 -47 147 -47q77 0 142 58z" />
    <glyph glyph-name="uni1EBD" unicode="&#x1ebd;" horiz-adv-x="1065" 
d="M788 606q-11 137 -52 195q-59 81 -207 81q-150 0 -217 -80q-53 -64 -63 -196h539zM69 518q0 530 460 530q249 0 354 -155q85 -125 85 -374q0 -81 -88 -81h-631q8 -284 310 -284q156 0 318 60q20 5 36 5q47 0 47 -51v-84q-160 -96 -401 -96q-490 0 -490 530zM827 1243
q-90 -108 -189 -108q-58 0 -119 38q-82 50 -153 50q-70 0 -129 -50l-27 74q84 98 178 98q59 0 123 -39q78 -47 147 -47q77 0 142 58z" />
    <glyph glyph-name="Ygrave" unicode="&#x1ef2;" horiz-adv-x="1136" 
d="M657 88q0 -36 -26 -62t-62 -26h-97v623q-155 1 -208 42q-61 46 -106 216l-145 532h95q84 0 102 -65l130 -456q19 -69 53 -87q27 -15 109 -15h125q81 0 108 15q34 18 54 87l130 456q17 65 101 65h95l-145 -532q-44 -163 -104 -211q-56 -43 -209 -47v-535zM282 1678
q19 125 87 125q23 0 50 -13l286 -251l-48 -56z" />
    <glyph glyph-name="ygrave" unicode="&#x1ef3;" horiz-adv-x="1141" 
d="M999 143q0 -530 -489 -530q-242 0 -402 96v83q0 52 48 52q15 0 35 -5q162 -60 319 -60q178 0 253 107q60 86 60 257v37q-92 -192 -348 -192q-367 0 -367 347v701h88q36 0 62 -26t26 -62v-590q0 -204 218 -204q246 0 321 212v582q0 36 26 62t62 26h88v-893zM272 1301
q19 125 87 125q23 0 50 -13l286 -251l-48 -56z" />
    <glyph glyph-name="uni1EF4" unicode="&#x1ef4;" horiz-adv-x="1136" 
d="M657 88q0 -36 -26 -62t-62 -26h-97v623q-155 1 -208 42q-61 46 -106 216l-145 532h95q84 0 102 -65l130 -456q19 -69 53 -87q27 -15 109 -15h125q81 0 108 15q34 18 54 87l130 456q17 65 101 65h95l-145 -532q-44 -163 -104 -211q-56 -43 -209 -47v-535zM485 -237
q0 31 23 52q23 23 55 23h79v-106q0 -31 -23 -53t-56 -22h-78v106z" />
    <glyph glyph-name="_1" 
 />
    <glyph glyph-name="uni1EF5" unicode="&#x1ef5;" horiz-adv-x="1141" 
d="M999 143q0 -530 -489 -530q-242 0 -402 96v83q0 52 48 52q15 0 35 -5q162 -60 319 -60q178 0 253 107q60 86 60 257v37q-92 -192 -348 -192q-367 0 -367 347v701h88q36 0 62 -26t26 -62v-590q0 -204 218 -204q246 0 321 212v582q0 36 26 62t62 26h88v-893zM975 -237
q0 31 23 52q23 23 55 23h79v-106q0 -31 -23 -53t-56 -22h-78v106z" />
    <glyph glyph-name="uni2010" unicode="&#x2010;" horiz-adv-x="928" 
d="M200 441q-27 0 -47 26q-19 28 -19 65v49h536q28 0 48 -26q18 -27 18 -64v-50h-536z" />
    <glyph glyph-name="uni2011" unicode="&#x2011;" horiz-adv-x="928" 
d="M200 441q-27 0 -47 26q-19 28 -19 65v49h536q28 0 48 -26q18 -27 18 -64v-50h-536z" />
    <glyph glyph-name="figuredash" unicode="&#x2012;" horiz-adv-x="1240" 
d="M76 637q-27 0 -47 26q-19 28 -19 65v49h1033q28 0 48 -26q18 -27 18 -64v-50h-1033z" />
    <glyph glyph-name="twodotenleader" unicode="&#x2025;" horiz-adv-x="1365" 
d="M152 124q0 37 27 62q27 26 65 26h93v-124q0 -37 -27 -63q-27 -25 -66 -25h-92v124zM835 124q0 37 27 62q27 26 65 26h93v-124q0 -37 -27 -63q-27 -25 -66 -25h-92v124z" />
    <glyph glyph-name="uni203D" unicode="&#x203d;" horiz-adv-x="951" 
d="M194 1236q-87 -17 -184 -47q-39 0 -66 27t-27 66v60q250 89 475 89q199 0 332 -105q145 -115 145 -309q0 -213 -159 -301q-87 -47 -325 -82l-10 -206q0 -37 -26 -63q-26 -25 -62 -25h-57zM214 124q0 37 27 62q27 26 66 26h92v-124q0 -37 -27 -63q-27 -25 -65 -25h-93v124
zM394 816q291 24 291 201q0 113 -93 180q-74 53 -177 58z" />
    <glyph glyph-name="uni204C" unicode="&#x204c;" horiz-adv-x="966" 
d="M754 808q112 -112 112 -271q0 -158 -112 -270.5t-271 -112.5t-271 112.5t-112 270.5q0 159 112 271t271 112t271 -112z" />
    <glyph glyph-name="uni204D" unicode="&#x204d;" horiz-adv-x="966" 
d="M212 808q-112 -112 -112 -271q0 -158 112 -270.5t271 -112.5t271 112.5t112 270.5q0 159 -112 271t-271 112t-271 -112z" />
    <glyph glyph-name="uni2053" unicode="&#x2053;" horiz-adv-x="1413" 
d="M430.5 696q-76.5 0 -160.5 -28q-40.5 -13 -85.5 -39l-6 -4q-25.5 -17 -60 -17q-24 0 -43.5 8v96q96 73 184.5 99t171 26q94.5 0 258 -44t244.5 -44q76.5 0 160.5 28q40.5 13 85.5 39l6 4q25.5 17 60 17q24 0 43.5 -8v-96q-96 -73 -184.5 -99t-171 -26q-85.5 0 -253.5 44
t-249 44z" />
    <glyph glyph-name="uni20AF" unicode="&#x20af;" horiz-adv-x="2570" 
d="M1205 535q0 -253 -159 -396q-153 -139 -408 -139h-568v897q0 252 159 396q153 139 409 139q255 0 408 -139q159 -144 159 -396v-362zM638 168q170 0 274 94q108 97 108 265v370q0 168 -108 266q-104 94 -274 94q-171 0 -275 -94q-108 -98 -108 -266v-729h383zM1664 212
q161 -58 314 -58q173 0 248 100q65 87 65 264q0 178 -61 263q-72 100 -245 100q-252 0 -321 -194v-475zM1664 855q93 193 348 193q455 0 455 -530t-489 -530q-170 0 -314 54v-331q0 -36 -26 -62t-62 -26h-88v1413h88q36 0 62 -26t26 -62v-93z" />
    <glyph glyph-name="uni2100" unicode="&#x2100;" horiz-adv-x="2158" 
d="M666 858.75q0 128.25 -45 192.75q-56.25 80.25 -189.75 80.25t-189.75 -80.25q-45.75 -64.5 -45.75 -192.75q0 -129.75 42.75 -192.75q54 -80.25 186.75 -80.25q185.25 0 240.75 159v114zM666 606q-69 -144.75 -261 -144.75q-341.25 0 -341.25 397.5t367.5 397.5
q366.75 0 366.75 -397.5v-388.5h-66q-27 0 -46.5 19.5q-19.5 18.75 -19.5 46.5v69.75zM1070 68q-7 -29 -25 -48q-20 -20 -53 -20h-48l277 1344q7 29 25 48q20 20 53 20h48zM1767 63q-120 -72 -300.75 -72q-367.5 0 -367.5 397.5t367.5 397.5q180.75 0 300.75 -72v-63
q0 -38.25 -35.25 -38.25q-12 0 -27 3.75q-121.5 45 -238.5 45q-133.5 0 -189.75 -80.25q-45.75 -64.5 -45.75 -192.75t45.75 -192.75q56.25 -80.25 189.75 -80.25q117 0 238.5 45q15 3.75 27 3.75q35.25 0 35.25 -38.25v-63z" />
    <glyph glyph-name="uni2105" unicode="&#x2105;" horiz-adv-x="2160" 
d="M732 533.25q-120 -72 -300.75 -72q-367.5 0 -367.5 397.5t367.5 397.5q180.75 0 300.75 -72v-63q0 -38.25 -35.25 -38.25q-12 0 -27 3.75q-121.5 45 -238.5 45q-133.5 0 -189.75 -80.25q-45.75 -64.5 -45.75 -192.75t45.75 -192.75q56.25 -80.25 189.75 -80.25
q117 0 238.5 45q15 3.75 27 3.75q35.25 0 35.25 -38.25v-63zM944 68q-7 -29 -25 -48q-20 -20 -53 -20h-48l277 1344q7 29 25 48q20 20 53 20h48zM1371.75 660.75q-133.5 0 -189.75 -79.5q-45.75 -64.5 -45.75 -192.75t45.75 -193.5q56.25 -79.5 189.75 -79.5t189.75 79.5
q45 65.25 45 193.5t-45 192.75q-56.25 79.5 -189.75 79.5zM1738.5 388.5q0 -397.5 -366.75 -397.5q-367.5 0 -367.5 397.5t367.5 397.5q366.75 0 366.75 -397.5z" />
    <glyph glyph-name="uni2106" unicode="&#x2106;" horiz-adv-x="2159" 
d="M732 533.25q-120 -72 -300.75 -72q-367.5 0 -367.5 397.5t367.5 397.5q180.75 0 300.75 -72v-63q0 -38.25 -35.25 -38.25q-12 0 -27 3.75q-121.5 45 -238.5 45q-133.5 0 -189.75 -80.25q-45.75 -64.5 -45.75 -192.75t45.75 -192.75q56.25 -80.25 189.75 -80.25
q117 0 238.5 45q15 3.75 27 3.75q35.25 0 35.25 -38.25v-63zM944 68q-7 -29 -25 -48q-20 -20 -53 -20h-48l277 1344q7 29 25 48q20 20 53 20h48zM1571.25 135q-69 -144 -261 -144q-275.25 0 -275.25 260.25v525.75h66q27 0 46.5 -19.5t19.5 -46.5v-442.5q0 -153 163.5 -153
q189.75 0 240.75 146.25v449.25q0 27 19.5 46.5t46.5 19.5h66v-777h-66q-27 0 -46.5 18.75q-19.5 19.5 -19.5 47.25v69z" />
    <glyph glyph-name="estimated" unicode="&#x212e;" horiz-adv-x="1065" 
d="M299 606h435v198q-59 78 -205 78q-150 0 -217 -80q-7 -8 -13 -18v-178zM299 261q75 -107 260 -107q156 0 318 60q20 5 36 5q47 0 47 -51v-84q-160 -96 -401 -96q-490 0 -490 530t460 530q249 0 354 -155q85 -125 85 -374q0 -81 -88 -81h-581v-177z" />
    <glyph glyph-name="onethird" unicode="&#x2153;" horiz-adv-x="2041" 
d="M432 651h168q22 0 37 -16q16 -15 16 -37v-48h-500q-21 0 -37 15q-16 16 -16 38v47h221v656l-121 -155h-23q-26 0 -41 23q-9 13 -9 24q0 10 6 19l85 125q35 55 91 55h70q22 0 38 -15q15 -15 15 -38v-693zM929 68q-7 -29 -25 -48q-20 -20 -53 -20h-48l277 1344q7 29 25 48
q20 20 53 20h48zM1612 836q122 0 203 -60q89 -66 89 -182q0 -128 -105 -177q141 -43 141 -198q0 -249 -329 -249q-105 0 -255 54v35q0 24 17 40q16 16 39 16q142 -44 199 -44q128 0 179 43q39 35 39 105t-39 102q-50 41 -179 41h-101v101h101q109 5 149 40q33 28 33 91
q0 69 -55 105q-48 32 -127 32q-45 0 -173 -41q-23 0 -40 17q-16 16 -16 39v36q150 54 229 54h1z" />
    <glyph glyph-name="twothirds" unicode="&#x2154;" horiz-adv-x="2041" 
d="M153 550q-21 0 -37 15q-16 16 -16 38v24q0 91 69 164q43 46 151 115q112 71 151 110q68 69 68 151q0 69 -54 105q-49 32 -127 32q-63 0 -191 -41q-23 0 -40 17q-16 16 -16 39v36q150 54 247 54q121 0 201 -59q91 -66 91 -183q0 -168 -204 -301q-131 -84 -146 -97
q-71 -56 -80 -119l380 1q22 0 37 -16q16 -15 16 -37v-48h-500zM929 68q-7 -29 -25 -48q-20 -20 -53 -20h-48l277 1344q7 29 25 48q20 20 53 20h48zM1612 836q122 0 203 -60q89 -66 89 -182q0 -128 -105 -177q141 -43 141 -198q0 -249 -329 -249q-105 0 -255 54v35
q0 24 17 40q16 16 39 16q142 -44 199 -44q128 0 179 43q39 35 39 105t-39 102q-50 41 -179 41h-101v101h101q109 5 149 40q33 28 33 91q0 69 -55 105q-48 32 -127 32q-45 0 -173 -41q-23 0 -40 17q-16 16 -16 39v36q150 54 229 54h1z" />
    <glyph glyph-name="equivalence" unicode="&#x2261;" horiz-adv-x="1159" 
d="M166 624q-27 0 -47 26q-19 28 -19 65v49h893q28 0 48 -26q18 -27 18 -64v-50h-893zM166 344q-27 0 -47 26q-19 28 -19 65v49h893q28 0 48 -26q18 -27 18 -64v-50h-893zM166 904q-27 0 -47 26q-19 28 -19 65v49h893q28 0 48 -26q18 -27 18 -64v-50h-893z" />
    <glyph glyph-name="uniFB00" unicode="&#xfb00;" horiz-adv-x="1364" 
d="M330 868v-780q0 -37 -26 -62q-26 -26 -62 -26h-88v868h-54q-37 0 -62 26q-26 25 -26 62v80h142v20q0 208 110 293q95 74 305 74q97 0 198 -23v-85q0 -68 -85 -68q-60 10 -113 10q-126 0 -177 -37q-62 -44 -62 -164v-20h506v20q0 208 110 293q95 74 305 74q97 0 198 -23
v-85q0 -68 -85 -68q-60 10 -113 10q-126 0 -177 -37q-62 -44 -62 -164v-20h257q37 0 62 -26q26 -25 26 -62v-80h-345v-780q0 -37 -26 -62q-26 -26 -62 -26h-88v868h-506z" />
    <glyph glyph-name="uniFB03" unicode="&#xfb03;" horiz-adv-x="1869" 
d="M330 868v-780q0 -37 -26 -62q-26 -26 -62 -26h-88v868h-54q-37 0 -62 26q-26 25 -26 62v80h142v20q0 208 110 293q95 74 305 74q97 0 198 -23v-85q0 -68 -85 -68q-60 10 -113 10q-126 0 -177 -37q-62 -44 -62 -164v-20h506v20q0 208 110 293q95 74 305 74q97 0 198 -23
v-85q0 -68 -85 -68q-60 10 -113 10q-126 0 -177 -37q-62 -44 -62 -164v-20h653q37 0 62 -26q26 -25 26 -62v-948h-88q-36 0 -62 26q-26 25 -26 62v780h-565v-780q0 -37 -26 -62q-26 -26 -62 -26h-88v868h-506zM1577 1325q0 36 26 62t62 26h88v-125q0 -36 -26 -62t-62 -26
h-88v125z" />
    <glyph glyph-name="uniFB04" unicode="&#xfb04;" horiz-adv-x="1896" 
d="M330 868v-780q0 -37 -26 -62q-26 -26 -62 -26h-88v868h-54q-37 0 -62 26q-26 25 -26 62v80h142v20q0 208 110 293q95 74 305 74q97 0 198 -23v-85q0 -68 -85 -68q-60 10 -113 10q-126 0 -177 -37q-62 -44 -62 -164v-20h506v20q0 208 110 293q95 74 305 74q95 0 328 -23
q28 -5 50 -32q24 -26 24 -62v-959q0 -162 46 -176q26 -8 59 -8q23 0 50 4q85 0 85 -69v-85q-77 -18 -155 -18q-24 0 -48 2q-102 7 -157.5 78.5t-55.5 271.5v901q-175 9 -226 9q-126 0 -177 -37q-62 -44 -62 -164v-20h257q37 0 62 -26q26 -25 26 -62v-80h-345v-780
q0 -37 -26 -62q-26 -26 -62 -26h-88v868h-506z" />
    <glyph glyph-name="uniFB05" unicode="&#xfb05;" horiz-adv-x="1495" 
d="M330 868v-780q0 -37 -26 -62q-26 -26 -62 -26h-88v868h-54q-37 0 -62 26q-26 25 -26 62v80h142v20q0 208 110 293q95 74 305 74q97 0 198 -23v-85q0 -68 -85 -68q-60 10 -113 10q-126 0 -177 -37q-62 -44 -62 -164v-20h530v183q0 37 26 62q26 26 62 26h88v-271h329
q36 0 62 -26t26 -62v-80h-417v-513q0 -121 62 -165q52 -36 178 -36q53 0 113 9q85 0 85 -68v-85q-101 -22 -198 -22q-211 0 -306 74q-110 85 -110 293v513h-530z" />
    <glyph glyph-name="uniFB06" unicode="&#xfb06;" horiz-adv-x="1720" 
d="M419 881h-8q-86 0 -135 -45q-45 -40 -45 -98q0 -72 93 -101q2 -1 203 -39q137 -25 202 -79q88 -72 88 -213v-9q-2 -126 -95 -213q-102 -96 -275 -96q-217 0 -377 96v83q0 52 48 52q15 0 35 -5q163 -60 294 -60q86 0 141 45q50 41 50 98q0 82 -91 116q-27 10 -202 42
q-137 25 -201 73q-92 69 -92 210q0 127 88 213q98 97 271 97h8q93 -1 175 -20q-25 52 -32 112q-1 15 -1 28q0 113 86 182t213 69q286 0 401 -112v-271h329q36 0 62 -26t26 -62v-80h-417v-513q0 -121 62 -165q52 -36 178 -36q53 0 113 9q85 0 85 -68v-85q-101 -22 -198 -22
q-211 0 -306 74q-110 85 -110 293v513h-51q-36 0 -62 26q-26 25 -26 62v80h139v178q-49 64 -198 64q-85 0 -125 -35q-45 -39 -45 -107q0 -102 70 -185v-83q0 -52 -47 -52q-15 0 -36 6q-158 57 -285 59z" />
    <glyph glyph-name="uniEEC5" unicode="&#xeec5;" horiz-adv-x="1814" 
d="M513 881v-1q-143 -12 -208 -105q-61 -86 -61 -257t61 -257q75 -107 253 -107q156 0 318 60q20 5 36 5q47 0 47 -51v-84q-160 -96 -401 -96q-490 0 -490 530q0 505 445 529v1q93 -1 175 -20q-25 52 -32 112q-1 15 -1 28q0 113 86 182t213 69q286 0 401 -112v-271h329
q36 0 62 -26t26 -62v-80h-417v-513q0 -121 62 -165q52 -36 178 -36q53 0 113 9q85 0 85 -68v-85q-101 -22 -198 -22q-211 0 -306 74q-110 85 -110 293v513h-47q-36 0 -62 26q-26 25 -26 62v80h135v178q-49 64 -198 64q-85 0 -125 -35q-45 -39 -45 -107q0 -102 70 -185v-83
q0 -52 -47 -52q-15 0 -36 6q-158 57 -285 59z" />
    <glyph glyph-name="uniEEC8" unicode="&#xeec8;" horiz-adv-x="1851" 
d="M587 1036q37 0 62 -26q26 -25 26 -62v-80h-345v-780q0 -37 -26 -62q-26 -26 -62 -26h-88v868h-54q-37 0 -62 26q-26 25 -26 62v80h142v20q0 208 110 293q95 74 305 74q97 0 198 -23v-85q0 -68 -85 -68q-60 10 -113 10q-126 0 -177 -37q-62 -44 -62 -164v-20h257z
M1553 518q0 171 -60 257q-75 107 -253 107t-253 -107q-61 -86 -61 -257q0 -173 57 -257q72 -107 249 -107q247 0 321 212v152zM1553 181q-92 -193 -348 -193q-455 0 -455 530t490 530q489 0 489 -530v-518h-88q-36 0 -62 26q-26 25 -26 62v93zM981 1229q0 36 27 62t66 26h92
v-125q0 -36 -27 -62t-65 -26h-93v125zM1499 1104h-93q-38 0 -65 26t-27 62v125h92q39 0 66 -26t27 -62v-125z" />
    <glyph glyph-name="uniEEC9" unicode="&#xeec9;" horiz-adv-x="1117" 
d="M801 1325q0 36 26 62t62 26h88v-125q0 -36 -26 -62q-25 -26 -62 -26h-88v125zM801 868h-471v-780q0 -37 -26 -62q-26 -26 -62 -26h-88v868h-54q-37 0 -62 26q-26 25 -26 62v80h142v20q0 208 110 293q95 74 305 74q97 0 198 -23v-85q0 -68 -85 -68q-60 10 -113 10
q-126 0 -177 -37q-62 -44 -62 -164v-20h559q37 0 62 -26q26 -25 26 -62v-970q0 -187 -87 -274q-78 -78 -245 -91q-34 0 -59 24q-24 25 -24 59v80q126 0 177 37q62 44 62 165v890z" />
    <glyph glyph-name="uniEECA" unicode="&#xeeca;" horiz-adv-x="1522" 
d="M793 868h-463v-780q0 -37 -26 -62q-26 -26 -62 -26h-88v868h-54q-37 0 -62 26q-26 25 -26 62v80h142v20q0 208 110 293q95 74 305 74q97 0 198 -23v-85q0 -68 -85 -68q-60 10 -113 10q-126 0 -177 -37q-62 -44 -62 -164v-20h551q36 0 62 -26t26 -62v-93q93 193 295 193
q96 0 198 -23v-85q0 -68 -85 -68q-61 9 -140 9q-193 0 -268 -211v-582q0 -37 -26 -63q-26 -25 -62 -25h-88v868z" />
    <glyph glyph-name="uniEECB" unicode="&#xeecb;" horiz-adv-x="1495" 
d="M330 868v-780q0 -37 -26 -62q-26 -26 -62 -26h-88v868h-54q-37 0 -62 26q-26 25 -26 62v80h142v20q0 208 110 293q95 74 305 74q97 0 198 -23v-85q0 -68 -85 -68q-60 10 -113 10q-126 0 -177 -37q-62 -44 -62 -164v-20h530v183q0 37 26 62q26 26 62 26h88v-271h329
q36 0 62 -26t26 -62v-80h-417v-513q0 -121 62 -165q52 -36 178 -36q53 0 113 9q85 0 85 -68v-85q-101 -22 -198 -22q-211 0 -306 74q-110 85 -110 293v513h-530z" />
    <glyph glyph-name="uniEECC" unicode="&#xeecc;" horiz-adv-x="1820" 
d="M978 1229q0 36 27 62t66 26h92v-125q0 -36 -27 -62t-65 -26h-93v125zM1496 1104h-93q-38 0 -65 26t-27 62v125h92q39 0 66 -26t27 -62v-125zM791 868h-461v-780q0 -37 -26 -62q-26 -26 -62 -26h-88v868h-54q-37 0 -62 26q-26 25 -26 62v80h142v20q0 208 110 293
q95 74 305 74q97 0 198 -23v-85q0 -68 -85 -68q-60 10 -113 10q-126 0 -177 -37q-62 -44 -62 -164v-20h549q36 0 62 -26t26 -62v-590q0 -204 218 -204q253 0 321 195v599q0 36 26 62t62 26h88v-1036h-88q-36 0 -62 25q-26 26 -26 63v92q-92 -192 -348 -192q-367 0 -367 347
v533z" />
    <glyph glyph-name="uniEECD" unicode="&#xeecd;" horiz-adv-x="1823" 
d="M790 868h-460v-780q0 -37 -26 -62q-26 -26 -62 -26h-88v868h-54q-37 0 -62 26q-26 25 -26 62v80h142v20q0 208 110 293q95 74 305 74q97 0 198 -23v-85q0 -68 -85 -68q-60 10 -113 10q-126 0 -177 -37q-62 -44 -62 -164v-20h548q36 0 62 -26t26 -62v-590q0 -204 218 -204
q246 0 321 212v582q0 36 26 62t62 26h88v-893q0 -530 -489 -530q-242 0 -402 96v83q0 52 48 52q15 0 35 -5q162 -60 319 -60q178 0 253 107q60 86 60 257v37q-92 -192 -348 -192q-367 0 -367 347v533z" />
    <glyph glyph-name="uniEECE" unicode="&#xeece;" horiz-adv-x="2177" 
d="M330 868v-780q0 -37 -26 -62q-26 -26 -62 -26h-88v868h-54q-37 0 -62 26q-26 25 -26 62v80h142v20q0 208 110 293q95 74 305 74q97 0 198 -23v-85q0 -68 -85 -68q-60 10 -113 10q-126 0 -177 -37q-62 -44 -62 -164v-20h506v20q0 208 110 293q95 74 305 74q97 0 198 -23
v-85q0 -68 -85 -68q-60 10 -113 10q-126 0 -177 -37q-62 -44 -62 -164v-20h530v183q0 37 26 62q26 26 62 26h88v-271h329q36 0 62 -26t26 -62v-80h-417v-513q0 -121 62 -165q52 -36 178 -36q53 0 113 9q85 0 85 -68v-85q-101 -22 -198 -22q-211 0 -306 74q-110 85 -110 293
v513h-530v-780q0 -37 -26 -62q-26 -26 -62 -26h-88v868h-506z" />
    <glyph glyph-name="uniEECF" unicode="&#xeecf;" horiz-adv-x="2505" 
d="M1560 1036q36 0 62 -26t26 -62v-590q0 -204 218 -204q246 0 321 212v582q0 36 26 62t62 26h88v-893q0 -530 -489 -530q-242 0 -402 96v83q0 52 48 52q15 0 35 -5q162 -60 319 -60q178 0 253 107q60 86 60 257v37q-92 -192 -348 -192q-367 0 -367 347v533h-460v-780
q0 -37 -26 -62q-26 -26 -62 -26h-88v868h-506v-780q0 -37 -26 -62q-26 -26 -62 -26h-88v868h-54q-37 0 -62 26q-26 25 -26 62v80h142v20q0 208 110 293q95 74 305 74q97 0 198 -23v-85q0 -68 -85 -68q-60 10 -113 10q-126 0 -177 -37q-62 -44 -62 -164v-20h506v20
q0 208 110 293q95 74 305 74q97 0 198 -23v-85q0 -68 -85 -68q-60 10 -113 10q-126 0 -177 -37q-62 -44 -62 -164v-20h548z" />
    <glyph glyph-name="uniEED0" unicode="&#xeed0;" horiz-adv-x="2636" 
d="M1691 1036q36 0 62 -26t26 -62v-590q0 -204 218 -204q246 0 321 212v582q0 36 26 62t62 26h88v-893q0 -530 -489 -530q-242 0 -402 96v83q0 52 48 52q15 0 35 -5q162 -60 319 -60q178 0 253 107q60 86 60 257v37q-92 -192 -348 -192q-367 0 -367 347v533h-567v-513
q0 -121 62 -165q52 -36 178 -36q53 0 113 9q85 0 85 -68v-85q-101 -22 -198 -22q-211 0 -306 74q-110 85 -110 293v513h-530v-780q0 -37 -26 -62q-26 -26 -62 -26h-88v868h-54q-37 0 -62 26q-26 25 -26 62v80h142v20q0 208 110 293q95 74 305 74q97 0 198 -23v-85
q0 -68 -85 -68q-60 10 -113 10q-126 0 -177 -37q-62 -44 -62 -164v-20h530v183q0 37 26 62q26 26 62 26h88v-271h655z" />
    <glyph glyph-name="uniEED9" unicode="&#xeed9;" horiz-adv-x="1536" 
d="M901 868h-547v-513q0 -121 62 -165q52 -36 178 -36q53 0 113 9q85 0 85 -68v-85q-101 -22 -198 -22q-211 0 -306 74q-110 85 -110 293v513h-71q-36 0 -62 26q-26 25 -26 62v80h159v183q0 37 26 62q26 26 62 26h88v-271h547v183q0 37 26 62q26 26 62 26h88v-271h329
q36 0 62 -26t26 -62v-80h-417v-513q0 -121 62 -165q52 -36 178 -36q53 0 113 9q85 0 85 -68v-85q-101 -22 -198 -22q-211 0 -306 74q-110 85 -110 293v513z" />
    <glyph glyph-name="uniEEDA" unicode="&#xeeda;" horiz-adv-x="2529" 
d="M1584 1036q36 0 62 -26t26 -62v-590q0 -204 218 -204q246 0 321 212v582q0 36 26 62t62 26h88v-893q0 -530 -489 -530q-242 0 -402 96v83q0 52 48 52q15 0 35 -5q162 -60 319 -60q178 0 253 107q60 86 60 257v37q-92 -192 -348 -192q-367 0 -367 347v533h-419v-513
q0 -121 62 -165q52 -36 178 -36q53 0 113 9q85 0 85 -68v-85q-101 -22 -198 -22q-211 0 -306 74q-110 85 -110 293v513h-547v-513q0 -121 62 -165q52 -36 178 -36q53 0 113 9q85 0 85 -68v-85q-101 -22 -198 -22q-211 0 -306 74q-110 85 -110 293v513h-68q-36 0 -62 26
q-26 25 -26 62v80h156v183q0 37 26 62q26 26 62 26h88v-271h547v183q0 37 26 62q26 26 62 26h88v-271h507z" />
    <glyph glyph-name="uniEEDB" unicode="&#xeedb;" horiz-adv-x="1954" 
d="M921 868h-567v-513q0 -121 62 -165q52 -36 178 -36q53 0 113 9q85 0 85 -68v-85q-101 -22 -198 -22q-211 0 -306 74q-110 85 -110 293v513h-55q-36 0 -62 26q-26 25 -26 62v80h143v183q0 37 26 62q26 26 62 26h88v-271h655q36 0 62 -26t26 -62v-590q0 -204 218 -204
q246 0 321 212v582q0 36 26 62t62 26h88v-893q0 -530 -489 -530q-242 0 -402 96v83q0 52 48 52q15 0 35 -5q162 -60 319 -60q178 0 253 107q60 86 60 257v37q-92 -192 -348 -192q-367 0 -367 347v533z" />
    <glyph glyph-name="uniEEDC" unicode="&#xeedc;" horiz-adv-x="1687" 
d="M354 868v-513q0 -121 62 -165q52 -36 178 -36q53 0 113 9q85 0 85 -68v-85q-101 -22 -198 -22q-211 0 -306 74q-110 85 -110 293v513h-65q-36 0 -62 26q-26 25 -26 62v80h153v183q0 37 26 62q26 26 62 26h88v-271h1190q36 0 62 -26t26 -62v-80l-562 -701h474q36 0 62 -25
q26 -26 26 -63v-79h-688q-36 0 -62 25q-26 26 -26 63v79l562 701h-1064z" />
    <glyph glyph-name="uni01C4" unicode="&#x1c4;" horiz-adv-x="2456" 
d="M1205 535q0 -253 -159 -396q-153 -139 -408 -139h-568v897q0 252 159 396q153 139 409 139q255 0 408 -139q159 -144 159 -396v-362zM638 168q170 0 274 94q108 97 108 265v370q0 168 -108 266q-104 94 -274 94q-171 0 -275 -94q-108 -98 -108 -266v-729h383zM2310 1412
q38 0 64 -26q27 -27 27 -65v-102l-808 -1049h716q38 0 64 -26q27 -27 27 -65v-79h-915q-38 0 -64 27q-27 26 -27 64v102l808 1049h-717q-38 0 -64 27q-27 26 -27 64v79h916zM2172 1790l48 -56l-286 -251h-73q-155 137 -286 251l49 56l274 -143z" />
    <glyph glyph-name="uni01C5" unicode="&#x1c5;" horiz-adv-x="2250" 
d="M1205 535q0 -253 -159 -396q-153 -139 -408 -139h-568v897q0 252 159 396q153 139 409 139q255 0 408 -139q159 -144 159 -396v-362zM638 168q170 0 274 94q108 97 108 265v370q0 168 -108 266q-104 94 -274 94q-171 0 -275 -94q-108 -98 -108 -266v-729h383zM2107 1036
q36 0 62 -26t26 -62v-80l-562 -701h474q36 0 62 -25q26 -26 26 -63v-79h-688q-36 0 -62 25q-26 26 -26 63v79l562 701h-474q-36 0 -62 26q-26 25 -26 62v80h688zM2082 1413l48 -56l-286 -251h-73q-155 137 -286 251l49 56l274 -143z" />
    <glyph glyph-name="uni01C6" unicode="&#x1c6;" horiz-adv-x="2054" 
d="M871 824q-160 58 -313 58q-173 0 -249 -101q-65 -86 -65 -263q0 -178 61 -263q73 -101 245 -101q246 0 321 212v458zM871 181q-92 -193 -348 -193q-455 0 -455 530t490 530q170 0 313 -54v331q0 36 26 62t62 26h88v-1413h-88q-36 0 -62 26q-26 25 -26 62v93zM1911 1036
q36 0 62 -26t26 -62v-80l-562 -701h474q36 0 62 -25q26 -26 26 -63v-79h-688q-36 0 -62 25q-26 26 -26 63v79l562 701h-474q-36 0 -62 26q-26 25 -26 62v80h688zM1886 1413l48 -56l-286 -251h-73q-155 137 -286 251l49 56l274 -143z" />
    <glyph glyph-name="uni01C7" unicode="&#x1c7;" horiz-adv-x="2086" 
d="M70 1420h92q39 0 66 -27t27 -65v-805q0 -169 108 -266q104 -94 275 -94q167 0 382 67q38 0 66 -27q27 -27 27 -65v-60q-250 -90 -475 -90q-256 0 -409 139q-159 143 -159 396v897zM1747 1325q0 36 25 62q26 26 63 26h96v-890q0 -253 -158 -396q-154 -139 -409 -139
q-85 0 -186 16v76q0 37 26 63t63 26q55 -6 97 -6q170 0 274 94q109 97 109 266v802z" />
    <glyph glyph-name="uni01C8" unicode="&#x1c8;" horiz-adv-x="1623" 
d="M70 1420h92q39 0 66 -27t27 -65v-805q0 -169 108 -266q104 -94 275 -94q167 0 382 67q38 0 66 -27q27 -27 27 -65v-60q-250 -90 -475 -90q-256 0 -409 139q-159 143 -159 396v897zM1483 -22q0 -187 -87 -274q-78 -78 -245 -91q-34 0 -59 24q-24 25 -24 59v80
q126 0 177 37q62 44 62 165v970q0 37 26 62q26 26 62 26h88v-1058zM1307 1325q0 36 26 62t62 26h88v-125q0 -36 -26 -62q-25 -26 -62 -26h-88v125z" />
    <glyph glyph-name="uni01C9" unicode="&#x1c9;" horiz-adv-x="967" 
d="M113 1413h88q36 0 62 -26t26 -62v-978q0 -162 46 -176q26 -8 59 -8q23 0 50 4q85 0 85 -69v-85q-77 -18 -155 -18q-24 0 -48 2q-102 7 -157.5 78.5t-55.5 271.5v1066zM827 -22q0 -187 -87 -274q-78 -78 -245 -91q-34 0 -59 24q-24 25 -24 59v80q126 0 177 37
q62 44 62 165v970q0 37 26 62q26 26 62 26h88v-1058zM651 1325q0 36 26 62t62 26h88v-125q0 -36 -26 -62q-25 -26 -62 -26h-88v125z" />
    <glyph glyph-name="uni01CA" unicode="&#x1ca;" horiz-adv-x="2315" 
d="M93 1328q0 38 27 65t65 27h190l668 -1248v1248h185v-1328q0 -38 -27 -65t-65 -27h-190l-668 1248v-1156q0 -38 -27 -65t-66 -27h-92v1328zM1976 1325q0 36 25 62q26 26 63 26h96v-890q0 -253 -158 -396q-154 -139 -409 -139q-85 0 -186 16v76q0 37 26 63t63 26
q55 -6 97 -6q170 0 274 94q109 97 109 266v802z" />
    <glyph glyph-name="uni01CB" unicode="&#x1cb;" horiz-adv-x="1852" 
d="M93 1328q0 38 27 65t65 27h190l668 -1248v1248h185v-1328q0 -38 -27 -65t-65 -27h-190l-668 1248v-1156q0 -38 -27 -65t-66 -27h-92v1328zM1712 -22q0 -187 -87 -274q-78 -78 -245 -91q-34 0 -59 24q-24 25 -24 59v80q126 0 177 37q62 44 62 165v970q0 37 26 62
q26 26 62 26h88v-1058zM1536 1325q0 36 26 62t62 26h88v-125q0 -36 -26 -62q-25 -26 -62 -26h-88v125z" />
    <glyph glyph-name="uni01CC" unicode="&#x1cc;" horiz-adv-x="1569" 
d="M1002 0h-88q-36 0 -62 26q-26 25 -26 62v590q0 204 -218 204q-246 0 -321 -212v-582q0 -37 -26 -62q-26 -26 -62 -26h-88v1036h88q36 0 62 -26q26 -25 26 -62v-93q93 193 348 193q367 0 367 -347v-701zM1429 -22q0 -187 -87 -274q-78 -78 -245 -91q-34 0 -59 24
q-24 25 -24 59v80q126 0 177 37q62 44 62 165v970q0 37 26 62q26 26 62 26h88v-1058zM1253 1325q0 36 26 62t62 26h88v-125q0 -36 -26 -62q-25 -26 -62 -26h-88v125z" />
    <glyph glyph-name="uni01CD" unicode="&#x1cd;" horiz-adv-x="1243" 
d="M572 1250l-221 -761h504l-221 761h-62zM302 321l-61 -212q-28 -109 -137 -109h-91l382 1315q28 108 137 108h142q109 0 137 -109l382 -1314h-91q-109 0 -138 110l-61 211h-601zM878 1790l48 -56l-286 -251h-73q-155 137 -286 251l49 56l274 -143z" />
    <glyph glyph-name="uni01CE" unicode="&#x1ce;" horiz-adv-x="1169" 
d="M871 518q0 171 -60 257q-75 107 -253 107t-253 -107q-61 -86 -61 -257q0 -173 57 -257q72 -107 249 -107q247 0 321 212v152zM871 181q-92 -193 -348 -193q-455 0 -455 530t490 530q489 0 489 -530v-518h-88q-36 0 -62 26q-26 25 -26 62v93zM832 1413l48 -56l-286 -251
h-73q-155 137 -286 251l49 56l274 -143z" />
    <glyph glyph-name="uni01CF" unicode="&#x1cf;" horiz-adv-x="449" 
d="M324 1325q0 36 26 62t62 26h97v-1325q0 -36 -26 -62t-62 -26h-97v1325zM691 1790l48 -56l-286 -251h-73q-155 137 -286 251l49 56l274 -143z" />
    <glyph glyph-name="uni2155" unicode="&#x2155;" horiz-adv-x="2034" 
d="M432 651h168q22 0 37 -16q16 -15 16 -37v-48h-500q-21 0 -37 15q-16 16 -16 38v47h221v656l-121 -155h-23q-26 0 -41 23q-9 13 -9 24q0 10 6 19l85 125q35 55 91 55h70q22 0 38 -15q15 -15 15 -38v-693zM929 68q-7 -29 -25 -48q-20 -20 -53 -20h-48l277 1344q7 29 25 48
q20 20 53 20h48zM1466 491q102 46 184 46q152 0 218 -64q66 -66 66 -219q0 -282 -310 -284q-118 0 -268 54v36q0 23 16 39t39 16q143 -44 213 -44q200 1 200 183q0 103 -37 141q-36 37 -137 37q-96 0 -184 -44v-37q0 -22 -15 -37q-15 -16 -38 -16h-57v473q0 23 15 38t38 15
h525v-47q0 -23 -15 -39q-17 -16 -39 -16h-414v-231z" />
    <glyph glyph-name="uni2156" unicode="&#x2156;" horiz-adv-x="2034" 
d="M153 550q-21 0 -37 15q-16 16 -16 38v24q0 91 69 164q43 46 151 115q112 71 151 110q68 69 68 151q0 69 -54 105q-49 32 -127 32q-63 0 -191 -41q-23 0 -40 17q-16 16 -16 39v36q150 54 247 54q121 0 201 -59q91 -66 91 -183q0 -168 -204 -301q-131 -84 -146 -97
q-71 -56 -80 -119l380 1q22 0 37 -16q16 -15 16 -37v-48h-500zM929 68q-7 -29 -25 -48q-20 -20 -53 -20h-48l277 1344q7 29 25 48q20 20 53 20h48zM1466 491q102 46 184 46q152 0 218 -64q66 -66 66 -219q0 -282 -310 -284q-118 0 -268 54v36q0 23 16 39t39 16
q143 -44 213 -44q200 1 200 183q0 103 -37 141q-36 37 -137 37q-96 0 -184 -44v-37q0 -22 -15 -37q-15 -16 -38 -16h-57v473q0 23 15 38t38 15h525v-47q0 -23 -15 -39q-17 -16 -39 -16h-414v-231z" />
    <glyph glyph-name="uni2157" unicode="&#x2157;" horiz-adv-x="2065" 
d="M356 1409q122 0 203 -60q89 -66 89 -182q0 -128 -105 -177q141 -43 141 -198q0 -249 -329 -249q-105 0 -255 54v35q0 24 17 40q16 16 39 16q142 -44 199 -44q128 0 179 43q39 35 39 105t-39 102q-50 41 -179 41h-101v101h101q109 5 149 40q33 28 33 91q0 69 -55 105
q-48 32 -127 32q-45 0 -173 -41q-23 0 -40 17q-16 16 -16 39v36q150 54 229 54h1zM960 68q-7 -29 -25 -48q-20 -20 -53 -20h-48l277 1344q7 29 25 48q20 20 53 20h48zM1497 491q102 46 184 46q152 0 218 -64q66 -66 66 -219q0 -282 -310 -284q-118 0 -268 54v36q0 23 16 39
t39 16q143 -44 213 -44q200 1 200 183q0 103 -37 141q-36 37 -137 37q-96 0 -184 -44v-37q0 -22 -15 -37q-15 -16 -38 -16h-57v473q0 23 15 38t38 15h525v-47q0 -23 -15 -39q-17 -16 -39 -16h-414v-231z" />
    <glyph glyph-name="uni2158" unicode="&#x2158;" horiz-adv-x="2104" 
d="M616 857h53q22 0 38 -17q16 -15 16 -38v-48h-107v-204h-58q-22 0 -37 15q-15 16 -15 38v151h-351q-23 0 -39 16t-16 39v61l302 472q36 55 92 55h69q22 0 38 -15q15 -15 15 -38v-487zM219 857h287v449zM999 68q-7 -29 -25 -48q-20 -20 -53 -20h-48l277 1344q7 29 25 48
q20 20 53 20h48zM1536 491q102 46 184 46q152 0 218 -64q66 -66 66 -219q0 -282 -310 -284q-118 0 -268 54v36q0 23 16 39t39 16q143 -44 213 -44q200 1 200 183q0 103 -37 141q-36 37 -137 37q-96 0 -184 -44v-37q0 -22 -15 -37q-15 -16 -38 -16h-57v473q0 23 15 38t38 15
h525v-47q0 -23 -15 -39q-17 -16 -39 -16h-414v-231z" />
    <glyph glyph-name="uni2159" unicode="&#x2159;" horiz-adv-x="2035" 
d="M432 651h168q22 0 37 -16q16 -15 16 -37v-48h-500q-21 0 -37 15q-16 16 -16 38v47h221v656l-121 -155h-23q-26 0 -41 23q-9 13 -9 24q0 10 6 19l85 125q35 55 91 55h70q22 0 38 -15q15 -15 15 -38v-693zM929 68q-7 -29 -25 -48q-20 -20 -53 -20h-48l277 1344q7 29 25 48
q20 20 53 20h48zM1935 254q0 -284 -286 -284h-4q-150 0 -219 67q-70 68 -70 217v299q1 148 79 215q72 63 225 63q105 0 255 -54v-36q0 -23 -16 -40q-16 -16 -39 -16q-129 41 -200 41q-103 0 -146 -38q-47 -40 -47 -140v-60q112 49 184 49q152 0 217 -64q67 -66 67 -219z
M1467 254q0 -97 38 -138q40 -45 140 -45q101 0 141 45q38 41 38 138q0 103 -36 141q-37 37 -137 37q-83 0 -184 -46v-132z" />
    <glyph glyph-name="uni215A" unicode="&#x215a;" horiz-adv-x="2060" 
d="M210 1064q102 46 184 46q152 0 218 -64q66 -66 66 -219q0 -282 -310 -284q-118 0 -268 54v36q0 23 16 39t39 16q143 -44 213 -44q200 1 200 183q0 103 -37 141q-36 37 -137 37q-96 0 -184 -44v-37q0 -22 -15 -37q-15 -16 -38 -16h-57v473q0 23 15 38t38 15h525v-47
q0 -23 -15 -39q-17 -16 -39 -16h-414v-231zM954 68q-7 -29 -25 -48q-20 -20 -53 -20h-48l277 1344q7 29 25 48q20 20 53 20h48zM1960 254q0 -284 -286 -284h-4q-150 0 -219 67q-70 68 -70 217v299q1 148 79 215q72 63 225 63q105 0 255 -54v-36q0 -23 -16 -40
q-16 -16 -39 -16q-129 41 -200 41q-103 0 -146 -38q-47 -40 -47 -140v-60q112 49 184 49q152 0 217 -64q67 -66 67 -219zM1492 254q0 -97 38 -138q40 -45 140 -45q101 0 141 45q38 41 38 138q0 103 -36 141q-37 37 -137 37q-83 0 -184 -46v-132z" />
    <glyph glyph-name="oneeighth" unicode="&#x215b;" horiz-adv-x="2113" 
d="M432 651h168q22 0 37 -16q16 -15 16 -37v-48h-500q-21 0 -37 15q-16 16 -16 38v47h221v656l-121 -155h-23q-26 0 -41 23q-9 13 -9 24q0 10 6 19l85 125q35 55 91 55h70q22 0 38 -15q15 -15 15 -38v-693zM929 68q-7 -29 -25 -48q-20 -20 -53 -20h-48l277 1344q7 29 25 48
q20 20 53 20h48zM1878 417q135 -45 135 -201q0 -246 -329 -246q-328 0 -328 246q0 156 135 201q-99 47 -99 189q0 114 91 176q81 54 201 54q122 0 201 -54q92 -62 92 -176q0 -142 -99 -189zM1863 113q39 33 39 103q0 71 -39 103q-50 43 -179 43q-128 0 -178 -43
q-39 -32 -39 -103q0 -70 39 -103q50 -42 178 -42q129 0 179 42zM1834 509q32 31 32 97q0 65 -57 98q-48 29 -124 30q-76 0 -125 -29q-57 -34 -57 -99q0 -66 33 -97q41 -41 148 -46q108 5 150 46z" />
    <glyph glyph-name="threeeighths" unicode="&#x215c;" horiz-adv-x="2144" 
d="M356 1409q122 0 203 -60q89 -66 89 -182q0 -128 -105 -177q141 -43 141 -198q0 -249 -329 -249q-105 0 -255 54v35q0 24 17 40q16 16 39 16q142 -44 199 -44q128 0 179 43q39 35 39 105t-39 102q-50 41 -179 41h-101v101h101q109 5 149 40q33 28 33 91q0 69 -55 105
q-48 32 -127 32q-45 0 -173 -41q-23 0 -40 17q-16 16 -16 39v36q150 54 229 54h1zM960 68q-7 -29 -25 -48q-20 -20 -53 -20h-48l277 1344q7 29 25 48q20 20 53 20h48zM1909 417q135 -45 135 -201q0 -246 -329 -246q-328 0 -328 246q0 156 135 201q-99 47 -99 189
q0 114 91 176q81 54 201 54q122 0 201 -54q92 -62 92 -176q0 -142 -99 -189zM1894 113q39 33 39 103q0 71 -39 103q-50 43 -179 43q-128 0 -178 -43q-39 -32 -39 -103q0 -70 39 -103q50 -42 178 -42q129 0 179 42zM1865 509q32 31 32 97q0 65 -57 98q-48 29 -124 30
q-76 0 -125 -29q-57 -34 -57 -99q0 -66 33 -97q41 -41 148 -46q108 5 150 46z" />
    <glyph glyph-name="fiveeighths" unicode="&#x215d;" horiz-adv-x="2138" 
d="M210 1064q102 46 184 46q152 0 218 -64q66 -66 66 -219q0 -282 -310 -284q-118 0 -268 54v36q0 23 16 39t39 16q143 -44 213 -44q200 1 200 183q0 103 -37 141q-36 37 -137 37q-96 0 -184 -44v-37q0 -22 -15 -37q-15 -16 -38 -16h-57v473q0 23 15 38t38 15h525v-47
q0 -23 -15 -39q-17 -16 -39 -16h-414v-231zM954 68q-7 -29 -25 -48q-20 -20 -53 -20h-48l277 1344q7 29 25 48q20 20 53 20h48zM1903 417q135 -45 135 -201q0 -246 -329 -246q-328 0 -328 246q0 156 135 201q-99 47 -99 189q0 114 91 176q81 54 201 54q122 0 201 -54
q92 -62 92 -176q0 -142 -99 -189zM1888 113q39 33 39 103q0 71 -39 103q-50 43 -179 43q-128 0 -178 -43q-39 -32 -39 -103q0 -70 39 -103q50 -42 178 -42q129 0 179 42zM1859 509q32 31 32 97q0 65 -57 98q-48 29 -124 30q-76 0 -125 -29q-57 -34 -57 -99q0 -66 33 -97
q41 -41 148 -46q108 5 150 46z" />
    <glyph glyph-name="seveneighths" unicode="&#x215e;" horiz-adv-x="2141" 
d="M627 1397q23 0 39 -16q15 -16 15 -38v-62l-329 -731h-125l336 745h-408q-23 0 -39 16t-16 39v47h527zM957 68q-7 -29 -25 -48q-20 -20 -53 -20h-48l277 1344q7 29 25 48q20 20 53 20h48zM1906 417q135 -45 135 -201q0 -246 -329 -246q-328 0 -328 246q0 156 135 201
q-99 47 -99 189q0 114 91 176q81 54 201 54q122 0 201 -54q92 -62 92 -176q0 -142 -99 -189zM1891 113q39 33 39 103q0 71 -39 103q-50 43 -179 43q-128 0 -178 -43q-39 -32 -39 -103q0 -70 39 -103q50 -42 178 -42q129 0 179 42zM1862 509q32 31 32 97q0 65 -57 98
q-48 29 -124 30q-76 0 -125 -29q-57 -34 -57 -99q0 -66 33 -97q41 -41 148 -46q108 5 150 46z" />
    <glyph glyph-name="uni215F" unicode="&#x215f;" horiz-adv-x="1256" 
d="M432 651h168q22 0 37 -16q16 -15 16 -37v-48h-500q-21 0 -37 15q-16 16 -16 38v47h221v656l-121 -155h-23q-26 0 -41 23q-9 13 -9 24q0 10 6 19l85 125q35 55 91 55h70q22 0 38 -15q15 -15 15 -38v-693zM929 68q-7 -29 -25 -48q-20 -20 -53 -20h-48l277 1344q7 29 25 48
q20 20 53 20h48z" />
    <glyph glyph-name="arrowleft" unicode="&#x2190;" horiz-adv-x="1706" 
d="M596 463q64 -47 64 -154l-560 237l560 236q0 -106 -64 -153l1110 -83z" />
    <glyph glyph-name="arrowup" unicode="&#x2191;" horiz-adv-x="873" 
d="M353 853q-47 -64 -153 -64l237 560l236 -560q-106 0 -154 64l-83 -1110z" />
    <glyph glyph-name="arrowright" unicode="&#x2192;" horiz-adv-x="1617" 
d="M0 546l1110 83q-64 47 -64 153l560 -236l-560 -237q0 107 64 154z" />
    <glyph glyph-name="arrowdown" unicode="&#x2193;" horiz-adv-x="873" 
d="M436 1349l83 -1110q48 64 154 64l-236 -560l-237 560q106 0 153 -64z" />
    <glyph glyph-name="arrowboth" unicode="&#x2194;" horiz-adv-x="1617" 
d="M1606 546l-560 -237q0 107 64 154l-307 23l-307 -23q64 -47 64 -154l-560 237l560 236q0 -106 -64 -153l307 -23l307 23q-64 47 -64 153z" />
    <glyph glyph-name="arrowupdn" unicode="&#x2195;" horiz-adv-x="873" 
d="M437 -257l-237 560q107 0 154 -64l22 307l-22 307q-47 -64 -154 -64l237 560l236 -560q-106 0 -153 64l-23 -307l23 -307q47 64 153 64z" />
    <glyph glyph-name="summation" unicode="&#x2211;" horiz-adv-x="1054" 
d="M500 677l-400 739v87q0 32 23 55q22 22 54 22h777v-67q0 -32 -23 -54q-22 -23 -54 -23h-608l414 -759l-414 -759h608q32 0 54 -23q23 -22 23 -54v-67h-777q-32 0 -54 22q-23 23 -23 55v87z" />
    <glyph glyph-name="product" unicode="&#x220f;" horiz-adv-x="1197" 
d="M370 88q0 -36 -26 -62t-62 -26h-97v1245h-47q-36 0 -62 26q-26 25 -26 62v80h1009q36 0 62 -26t26 -62v-80h-114v-1245h-97q-36 0 -62 26t-26 62v1157h-478v-1157z" />
    <glyph glyph-name="radical" unicode="&#x221a;" horiz-adv-x="1123" 
d="M1018 1584l-491 -1517l-71 -52q-20 -15 -45 -15q-6 0 -13 1q-30 5 -49 31l-349 480l54 40q20 14 43 14q7 0 14 -1q32 -4 51 -30l249 -344l490 1432q43 16 70 16q47 0 47 -49v-6z" />
    <glyph glyph-name="integral" unicode="&#x222b;" horiz-adv-x="747" 
d="M300 1399q0 166 46.5 225.5t131.5 65.5q20 2 40 2q65 0 129 -15v-71q0 -57 -71 -57q-23 3 -42 3q-27 0 -49 -7q-38 -11 -38 -146v-1409q0 -166 -46.5 -225.5t-131.5 -65.5q-20 -2 -40 -2q-65 0 -129 15v71q0 57 71 57q22 -3 42 -3q27 0 49 7q38 11 38 146v1409z" />
    <glyph glyph-name="Delta" unicode="&#x2206;" horiz-adv-x="1260" 
d="M1210 0h-1160l580 1407zM630 988l-342 -829h684z" />
    <glyph glyph-name="uni21BC" unicode="&#x21bc;" horiz-adv-x="1706" 
d="M96 779l1610 -233h-1610v233z" />
    <glyph glyph-name="uni21BD" unicode="&#x21bd;" horiz-adv-x="1706" 
d="M96 779h1610l-1610 -233v233z" />
    <glyph glyph-name="uni21C0" unicode="&#x21c0;" horiz-adv-x="1706" 
d="M1610 546h-1610l1610 233v-233z" />
    <glyph glyph-name="uni21C1" unicode="&#x21c1;" horiz-adv-x="1706" 
d="M1610 546l-1610 233h1610v-233z" />
    <glyph glyph-name="uni21A4" unicode="&#x21a4;" horiz-adv-x="3157" 
d="M96 779l3061 -233l-3061 -233v466z" />
    <glyph glyph-name="uni21A6" unicode="&#x21a6;" horiz-adv-x="3157" 
d="M3061 313l-3061 233l3061 233v-466z" />
    </font>
</defs>
</svg>
