<svg xmlns="http://www.w3.org/2000/svg">
<defs>
<font id="Smoolthan-Bold-Italic" horiz-adv-x="1168" >
  <font-face 
    font-family="Smoolthan"
    font-weight="700"
    font-style="italic"
    font-stretch="normal"
    units-per-em="2048"
    panose-1="2 0 5 0 0 0 0 9 0 0"
    ascent="1638"
    descent="-410"
    x-height="1056"
    cap-height="1433"
    bbox="-806 -592 3537 1827"
    underline-thickness="150"
    underline-position="-142"
    slope="-12"
    unicode-range="U+001D-FB06"
  />
<missing-glyph horiz-adv-x="1519" 
d="M1176 1414q-130 -32 -227 -118q-31 -28 -89 -96q-66 -73 -93 -101q-83 -81 -131 -115q-77 -53 -152 -53q-59 0 -94 30q-37 31 -37 84v11l6 30q11 52 45 97q50 64 116 75q18 3 32 3q22 0 39 -6q24 -12 24 -40q0 -8 -2 -17q-7 12 -21 12q-9 0 -21 -9t-14 -21q-1 -5 -1 -9
q0 -20 24 -20h1q31 0 55 34q11 17 16 36q1 7 1 15q0 10 -2 20q-5 36 -36 53q-31 19 -82 19q-13 0 -26 -1q-111 -9 -194 -90l38 177h825zM241 899q50 -65 157 -65q15 0 32 2q90 6 232 125q40 33 113 97q64 59 89 78q64 50 120 50q31 0 58 -15q80 -40 171 -40q61 0 126 18
q130 36 255 133q-47 -163 -184 -302q-25 -25 -276 -237h-53q-41 0 -61 32l-106 -87h157q-236 -212 -304 -378q-20 -46 -28 -86q-7 -34 -7 -64q0 -28 6 -52q21 -80 111 -112h-195l148 695l40 19l7 33h-641zM431 688q76 0 101 -32q17 -20 17 -56q0 -23 -7 -52l-117 -552h-376
l147 692h235zM630 691h35l-148 -695h-35zM1128 -4q214 46 375 166l-35 -166h-340zM1507 177q-146 -73 -264 -87q-23 -2 -47 -2q-80 0 -118 37q-27 28 -27 71q0 17 4 35q5 25 19 56q50 117 217 285q77 77 111 116h153l-10 -48h60zM1452 743q135 164 175 355q9 41 13 85
q12 109 12 128q0 4 -1 4q16 51 114 78l-138 -650h-175zM876 1033q-72 0 -131 -42q-52 -39 -71 -94q-6 -14 -9 -27q-3 -12 -3 -23q0 -23 11 -40q17 -34 65 -34q8 0 17 1q60 5 89 60q7 15 10 26q2 8 2 15q0 27 -24 46q-20 18 -20 38q0 5 1 10t3 10q13 32 57 41z" />
    <glyph glyph-name=".notdef" horiz-adv-x="1519" 
d="M1176 1414q-130 -32 -227 -118q-31 -28 -89 -96q-66 -73 -93 -101q-83 -81 -131 -115q-77 -53 -152 -53q-59 0 -94 30q-37 31 -37 84v11l6 30q11 52 45 97q50 64 116 75q18 3 32 3q22 0 39 -6q24 -12 24 -40q0 -8 -2 -17q-7 12 -21 12q-9 0 -21 -9t-14 -21q-1 -5 -1 -9
q0 -20 24 -20h1q31 0 55 34q11 17 16 36q1 7 1 15q0 10 -2 20q-5 36 -36 53q-31 19 -82 19q-13 0 -26 -1q-111 -9 -194 -90l38 177h825zM241 899q50 -65 157 -65q15 0 32 2q90 6 232 125q40 33 113 97q64 59 89 78q64 50 120 50q31 0 58 -15q80 -40 171 -40q61 0 126 18
q130 36 255 133q-47 -163 -184 -302q-25 -25 -276 -237h-53q-41 0 -61 32l-106 -87h157q-236 -212 -304 -378q-20 -46 -28 -86q-7 -34 -7 -64q0 -28 6 -52q21 -80 111 -112h-195l148 695l40 19l7 33h-641zM431 688q76 0 101 -32q17 -20 17 -56q0 -23 -7 -52l-117 -552h-376
l147 692h235zM630 691h35l-148 -695h-35zM1128 -4q214 46 375 166l-35 -166h-340zM1507 177q-146 -73 -264 -87q-23 -2 -47 -2q-80 0 -118 37q-27 28 -27 71q0 17 4 35q5 25 19 56q50 117 217 285q77 77 111 116h153l-10 -48h60zM1452 743q135 164 175 355q9 41 13 85
q12 109 12 128q0 4 -1 4q16 51 114 78l-138 -650h-175zM876 1033q-72 0 -131 -42q-52 -39 -71 -94q-6 -14 -9 -27q-3 -12 -3 -23q0 -23 11 -40q17 -34 65 -34q8 0 17 1q60 5 89 60q7 15 10 26q2 8 2 15q0 27 -24 46q-20 18 -20 38q0 5 1 10t3 10q13 32 57 41z" />
    <glyph glyph-name=".null" horiz-adv-x="0" 
 />
    <glyph glyph-name=".null" horiz-adv-x="0" 
 />
    <glyph glyph-name="nonmarkingreturn" horiz-adv-x="1200" 
 />
    <glyph glyph-name="space" unicode=" " horiz-adv-x="533" 
 />
    <glyph glyph-name="space" unicode="&#xa0;" horiz-adv-x="533" 
 />
    <glyph glyph-name="exclam" unicode="!" horiz-adv-x="693" 
d="M446 1324q10 44 49 76t87 32h171l-262 -1004q-9 -44 -48 -76q-40 -32 -88 -32h-73zM215 124q10 44 49 75q41 33 92 33h117l-30 -144q-10 -44 -49 -76q-42 -32 -91 -32h-118z" />
    <glyph glyph-name="quotedbl" unicode="&#x22;" horiz-adv-x="850" 
d="M422 1387q14 65 99 65h126l-147 -525q-14 -64 -99 -64h-57zM785 863h-57q-73 0 -73 48q0 8 2 17l77 523h125q74 0 74 -49q0 -7 -2 -16z" />
    <glyph glyph-name="numbersign" unicode="#" horiz-adv-x="1091" 
d="M331 561l102 244h-171q-38 0 -60 27q-15 19 -15 42q0 8 2 17l12 56h291l167 400q17 34 42 57q34 28 79 28h77l-203 -485h215l167 400q17 34 42 57q34 28 79 28h77l-203 -485h88q39 0 63 -27q12 -18 12 -40q0 -9 -2 -19l-12 -56h-208l-103 -244h168q40 0 60 -25
q15 -19 15 -43q0 -9 -2 -18l-12 -56h-288l-147 -354q-16 -34 -42 -57q-34 -28 -79 -28h-77l183 439h-215l-147 -354q-16 -34 -42 -57q-34 -28 -79 -28h-77l183 439h-91q-40 0 -61 28q-14 18 -14 40q0 9 2 18l12 56h212zM595 805l-103 -244h216l102 244h-215z" />
    <glyph glyph-name="dollar" unicode="$" horiz-adv-x="1183" 
d="M806 815h-2l10 -1q198 -31 280 -101q81 -71 81 -197q0 -50 -12 -107l-3 -12q-47 -202 -232 -322q-147 -93 -301 -103l-19 -91q-9 -43 -46 -74q-41 -34 -90 -34h-73l42 200q-165 12 -370 92l15 72q10 46 51 80q40 33 95 33q152 -51 255 -61l92 434q-203 32 -282 96
q-88 70 -88 198q0 46 11 100q43 202 222 323q149 102 313 109l19 89q9 44 48 74q39 34 88 34h73l-43 -201q157 -14 354 -90l-16 -73q-9 -46 -51 -80q-40 -33 -94 -33q-144 47 -239 58zM709 1233q-61 -5 -136 -51q-96 -61 -118 -165q-4 -19 -4 -37q0 -80 89 -115
q21 -8 87 -19zM673 189q53 5 126 46q104 59 126 161q5 24 5 46q0 86 -85 125q-30 13 -86 25z" />
    <glyph glyph-name="percent" unicode="%" horiz-adv-x="1602" 
d="M836 927q-72 -253.5 -390 -253.5q-260 0 -260 168.75q0 38.25 13 84.75l48 168.75q72 253.5 391 253.5q259 0 259 -168.75q0 -38.25 -13 -84.75zM729 1095.75q9 33.75 9 59.25q0 30 -12 48.75q-25 40.5 -118 40.5t-142 -40.5q-43 -35.25 -63 -108l-48 -168.75
q-10 -35.25 -10 -61.5q0 -28.5 12 -46.5q27 -41.25 119 -41.25t141 41.25q43 34.5 64 108zM693 65q-16 -34 -42 -57q-34 -28 -79 -28h-77l571 1367q17 34 42 57q34 28 79 28h77zM1626 329.25q-72 -253.5 -390 -253.5q-260 0 -260 168.75q0 38.25 13 84.75l48 168.75
q72 253.5 391 253.5q259 0 259 -168.75q0 -38.25 -13 -84.75zM1519 498q9 33.75 9 59.25q0 30 -12 48.75q-25 40.5 -118 40.5t-142 -40.5q-43 -35.25 -63 -108l-48 -168.75q-10 -35.25 -10 -61.5q0 -28.5 12 -46.5q27 -41.25 119 -41.25t141 41.25q43 34.5 64 108z" />
    <glyph glyph-name="ampersand" unicode="&#x26;" horiz-adv-x="1261" 
d="M902 1451q137 0 387 -96l-16 -73q-9 -46 -51 -80q-40 -33 -96 -33q-199 67 -269 67q-122 0 -205 -48q-94 -54 -116 -159q-6 -29 -6 -53q0 -89 82 -120q44 -16 267 -36q197 -17 276 -84q82 -69 82 -204q0 -58 -15 -128l-90 -424h-122q-48 0 -74 32q-19 23 -19 53
q0 11 3 23l2 12q-194 -129 -414 -133h-13q-203 0 -309 96q-91 83 -91 225q0 54 13 116q55 261 275 333q-95 49 -95 182q0 49 13 110q43 202 224 318q163 104 376 104h1zM477 584q-106 -49 -134 -180q-7 -35 -7 -65q0 -72 42 -115q52 -54 158 -54h11q102 2 238 67
q143 67 197 144l5 23q7 35 7 63q0 58 -30 90q-58 62 -252 64q-155 0 -235 -37z" />
    <glyph glyph-name="quotesingle" unicode="'" horiz-adv-x="575" 
d="M436 1386q13 65 98 65h126l-146 -524q-14 -64 -99 -64h-57z" />
    <glyph glyph-name="parenleft" unicode="(" horiz-adv-x="783" 
d="M372 872q75 353 267 557q186 197 452 203l-36 -169q-164 -27 -274 -144q-122 -130 -190 -447l-110 -517q-33 -158 -33 -270t33 -177q61 -117 213 -144l-36 -169q-264 6 -366 203q-61 119 -61 289q0 121 31 268z" />
    <glyph glyph-name="parenright" unicode=")" horiz-adv-x="800" 
d="M599 355q-75 -353 -266 -557q-186 -197 -452 -203l36 169q164 27 273 144q123 130 190 447l110 517q34 159 34 270q0 112 -34 177q-60 117 -212 144l36 169q264 -6 366 -203q60 -119 60 -287q0 -122 -31 -270z" />
    <glyph glyph-name="asterisk" unicode="*" horiz-adv-x="1038" 
d="M798 1142l198 84q29 11 53 11q88 0 88 -145q0 -14 -1 -29l-321 -63l112 -155q15 -24 15 -48q0 -10 -2 -19q-15 -70 -171 -142l-95 265l-132 -172q-47 -55 -101 -55q-62 0 -131 88l259 232l-195 39q-67 18 -67 73q0 11 3 24q10 46 73 135l256 -128l18 205l3 11
q22 104 154 104q28 0 83 -9z" />
    <glyph glyph-name="plus" unicode="+" horiz-adv-x="1255" 
d="M599 604h-319q-41 0 -61 36q-9 21 -9 45q0 14 3 30l15 69h410l69 324q7 36 48 63q39 23 85 23h75l-87 -410h318q42 0 62 -36q9 -19 9 -43q0 -15 -4 -31l-15 -70h-409l-68 -323q-8 -35 -47 -62q-42 -24 -88 -24h-74z" />
    <glyph glyph-name="comma" unicode="," horiz-adv-x="561" 
d="M-58 -372q153 185 219 496q10 44 49 75q41 33 91 33h118l-11 -51q-56 -264 -292 -508q-42 -45 -80 -45h-94z" />
    <glyph glyph-name="hyphen" unicode="-" horiz-adv-x="953" 
d="M289 421q-41 0 -61 36q-9 21 -9 45q0 14 3 30l15 69h561q42 0 62 -36q9 -19 9 -43q0 -15 -4 -31l-15 -70h-561z" />
    <glyph glyph-name="hyphen" unicode="&#xad;" horiz-adv-x="953" 
d="M289 421q-41 0 -61 36q-9 21 -9 45q0 14 3 30l15 69h561q42 0 62 -36q9 -19 9 -43q0 -15 -4 -31l-15 -70h-561z" />
    <glyph glyph-name="period" unicode="." horiz-adv-x="551" 
d="M153 124q10 44 49 75q41 33 91 33h118l-30 -144q-10 -44 -49 -76q-42 -32 -92 -32h-117z" />
    <glyph glyph-name="slash" unicode="/" horiz-adv-x="691" 
d="M303 65q-16 -34 -42 -57q-34 -28 -79 -28h-77l571 1367q17 34 42 57q34 28 79 28h77z" />
    <glyph glyph-name="zero" unicode="0" horiz-adv-x="1265" 
d="M1267 518q-117 -550 -631 -550q-420 0 -420 365q0 83 22 185l80 375q117 550 632 550q419 0 419 -365q0 -83 -22 -185zM1121 893q16 77 16 136q0 68 -21 111q-46 96 -210 96t-252 -96q-75 -81 -110 -247l-80 -375q-16 -76 -16 -135q0 -68 22 -112q46 -97 210 -97t252 97
q74 81 109 247z" />
    <glyph glyph-name="one" unicode="1" horiz-adv-x="999" 
d="M660 188h255q48 0 73 -32q19 -25 19 -54q0 -11 -2 -22l-21 -100h-858q-48 0 -74 32q-19 23 -19 53q0 11 3 23l21 99h368l213 1004l-207 -209h-52q-59 0 -81 49q-8 17 -8 33q0 8 2 16q4 20 20 41l186 208q88 103 196 103h117q48 0 75 -32q18 -23 18 -52q0 -11 -3 -24z" />
    <glyph glyph-name="two" unicode="2" horiz-adv-x="1153" 
d="M187 -20q-48 0 -74 32q-19 23 -19 53q0 11 3 23l8 41q34 157 180 285q91 78 298 195q208 116 285 180q132 109 160 240q5 25 5 48q0 70 -52 111q-64 48 -186 48q-99 0 -328 -67q-56 0 -82 33q-19 25 -19 57q0 11 2 23l16 73q290 96 456 96q211 0 332 -102
q101 -88 101 -226q0 -44 -10 -94q-62 -290 -459 -518q-247 -140 -276 -160q-130 -89 -158 -164l606 1q48 0 73 -32q19 -25 19 -54q0 -11 -2 -22l-21 -100h-858z" />
    <glyph glyph-name="three" unicode="3" horiz-adv-x="1153" 
d="M794 1451q213 0 333 -104q100 -87 100 -224q0 -44 -11 -94q-48 -225 -204 -291q144 -48 144 -219q0 -52 -13 -115q-93 -436 -665 -436q-180 0 -429 97l15 72q10 46 51 80q40 33 96 33q221 -74 311 -74q202 0 294 66q68 51 92 162q8 35 8 64q0 59 -32 91q-62 62 -267 62
h-194l44 209h193q173 8 244 59q56 42 77 140q5 25 5 47q0 71 -53 112q-63 48 -185 48q-70 0 -299 -67q-56 0 -82 33q-19 25 -19 57q0 11 2 23l16 73q290 96 427 96h1z" />
    <glyph glyph-name="four" unicode="4" horiz-adv-x="1186" 
d="M1088 531h63q49 0 76 -34q19 -23 19 -53q0 -11 -3 -24l-21 -100h-179l-72 -340h-121q-49 0 -75 33q-18 22 -18 51q0 11 3 24l49 232h-560q-50 0 -77 35q-18 23 -18 52q0 11 3 24l22 107l675 791q88 103 196 103h116q49 0 75 -33q18 -22 18 -51q0 -11 -3 -24zM443 531h411
l137 646z" />
    <glyph glyph-name="five" unicode="5" horiz-adv-x="1243" 
d="M559 891q152 63 296 63q264 0 357 -114q57 -72 57 -201q0 -78 -21 -177q-104 -491 -647 -494q-202 0 -451 97l15 73q10 45 51 79q40 33 95 33q222 -74 334 -74q309 2 369 286q16 75 16 127q0 63 -23 93q-43 56 -198 56q-153 0 -296 -64l-11 -51q-9 -43 -45 -74
q-42 -34 -91 -34h-121l172 809q10 44 47 75q40 33 89 33h901l-21 -99q-9 -45 -49 -78t-90 -33h-664z" />
    <glyph glyph-name="six" unicode="6" horiz-adv-x="1258" 
d="M1245 462q-105 -494 -607 -494h-6q-262 1 -359 119q-62 76 -62 210q0 73 19 165l106 498q56 254 217 371q152 112 418 112q180 0 429 -97l-15 -73q-10 -45 -49 -78q-42 -35 -98 -35q-200 68 -313 68q-161 0 -238 -56q-84 -62 -118 -221l-14 -65q170 68 297 68
q264 0 356 -114q58 -72 58 -202q0 -78 -21 -176zM465 462q-14 -66 -14 -115q0 -68 26 -104q46 -66 199 -67q155 1 230 67q71 63 104 219q16 75 16 127q0 63 -23 93q-43 56 -197 56q-133 0 -297 -68z" />
    <glyph glyph-name="seven" unicode="7" horiz-adv-x="1032" 
d="M1163 1432q50 0 76 -33q19 -25 19 -56q0 -10 -2 -22l-23 -105l-819 -1236h-262l824 1241h-644q-50 0 -77 35q-18 24 -18 54q0 11 2 23l21 99h903z" />
    <glyph glyph-name="eight" unicode="8" horiz-adv-x="1346" 
d="M1221 737q136 -49 136 -218q0 -54 -14 -121q-92 -430 -665 -430q-493 0 -493 319q0 51 13 111q58 274 266 339q-84 44 -84 178q0 58 16 134q42 198 226 307q161 95 371 95q211 0 331 -95q106 -84 106 -219q0 -42 -10 -88q-53 -249 -199 -312zM1016 240q68 49 92 158
q7 36 7 65q0 61 -32 93q-62 65 -266 65q-203 0 -293 -65q-68 -48 -91 -158q-8 -36 -8 -66q0 -59 32 -92q62 -64 265 -64q204 0 294 64zM1106 899q58 47 80 150q5 21 5 40q0 68 -59 107q-63 44 -182 45q-119 0 -203 -44q-95 -50 -116 -148q-8 -38 -8 -68q0 -52 24 -82
q49 -62 214 -69q169 7 245 69z" />
    <glyph glyph-name="nine" unicode="9" horiz-adv-x="1224" 
d="M291 948q105 495 608 495h4q262 -2 359 -120q63 -77 63 -210q0 -74 -19 -165l-106 -498q-56 -254 -219 -372q-151 -110 -416 -110q-180 0 -429 97l15 72q10 46 51 80q40 33 96 33q200 -67 313 -67q161 0 238 56q84 61 118 220l14 66q-171 -68 -297 -68q-264 0 -356 114
q-58 72 -58 201q0 78 21 176zM1071 948q14 66 14 116q0 68 -26 104q-46 65 -200 67q-155 -2 -229 -67q-71 -63 -104 -220q-16 -74 -16 -126q0 -64 24 -96q41 -54 196 -54q132 0 296 68z" />
    <glyph glyph-name="colon" unicode=":" horiz-adv-x="393" 
d="M63 124q10 44 49 75q41 33 91 33h118l-30 -144q-10 -44 -49 -76q-42 -32 -92 -32h-117zM195 742q9 43 51 76q39 32 90 32h117l-31 -145q-9 -43 -51 -76q-39 -32 -89 -32h-118z" />
    <glyph glyph-name="semicolon" unicode=";" horiz-adv-x="406" 
d="M-142 -372q153 185 219 496q10 44 49 75q41 33 91 33h118l-11 -51q-56 -264 -292 -508q-42 -45 -80 -45h-94zM209 742q9 43 51 76q39 32 89 32h118l-31 -145q-9 -43 -51 -76q-39 -32 -90 -32h-117z" />
    <glyph glyph-name="semicolon" unicode="&#x37e;" horiz-adv-x="406" 
d="M-142 -372q153 185 219 496q10 44 49 75q41 33 91 33h118l-11 -51q-56 -264 -292 -508q-42 -45 -80 -45h-94zM209 742q9 43 51 76q39 32 89 32h118l-31 -145q-9 -43 -51 -76q-39 -32 -90 -32h-117z" />
    <glyph glyph-name="less" unicode="&#x3c;" horiz-adv-x="1064" 
d="M115 768l1111 505v-17q0 -58 -6 -90q-25 -118 -144 -155l-653 -295l527 -296q83 -30 83 -112q0 -20 -5 -43q-7 -36 -39 -107l-896 505z" />
    <glyph glyph-name="equal" unicode="=" horiz-adv-x="1139" 
d="M278 767q-41 0 -61 36q-9 21 -9 45q0 14 3 30l14 69h918q42 0 63 -36q9 -20 9 -44q0 -15 -4 -31l-15 -69h-918zM204 421q-41 0 -61 36q-9 21 -9 45q0 14 3 30l15 69h918q42 0 62 -36q9 -19 9 -43q0 -15 -4 -31l-15 -70h-918z" />
    <glyph glyph-name="greater" unicode="&#x3e;" horiz-adv-x="1089" 
d="M1169 663l-1110 -505v30q0 49 5 77q25 118 144 155l653 295l-527 296q-83 30 -83 112q0 20 5 43q7 36 40 107l895 -505z" />
    <glyph glyph-name="question" unicode="?" horiz-adv-x="976" 
d="M483 428q-9 -44 -48 -76q-40 -32 -88 -32h-73l59 401q10 45 50 78t89 33q365 0 404 185q5 24 5 46q0 72 -55 119q-62 54 -171 54q-163 0 -392 -67q-56 0 -82 33q-19 25 -19 57q0 11 2 23l16 73q290 96 520 96q209 0 326 -111q95 -90 95 -226q0 -46 -11 -97
q-47 -223 -237 -318q-104 -50 -340 -83zM205 124q10 44 49 75q41 33 91 33h118l-30 -144q-10 -44 -49 -76q-42 -32 -92 -32h-117z" />
    <glyph glyph-name="at" unicode="@" horiz-adv-x="1686" 
d="M1164 509q13 60 13 108q0 187 -197 187q-247 0 -310 -295q-15 -71 -15 -124q0 -55 16 -90q38 -81 176 -81q195 0 290 166zM1547 -108q-19 -88 -116 -116q-372 -89 -689 -89q-400 0 -542 220q-78 121 -78 315q0 128 34 287q85 401 300 602q236 220 636 220t542 -220
q78 -121 78 -315q0 -128 -34 -287q-38 -180 -139 -299q-89 -105 -201 -140q-50 -16 -92 -16q-51 0 -90 23q-59 35 -73 35q-3 0 -4 -2q-56 -80 -294 -80q-338 0 -338 310q0 75 20 169q102 479 552 479q366 0 366 -318q0 -72 -19 -161l-46 -219q-3 -13 -3 -23q0 -15 8 -21
q4 -3 6 -3q5 0 16 7q82 55 125 259q27 127 27 229q0 413 -445 413q-556 0 -693 -642q-27 -126 -27 -228q0 -414 447 -414q315 0 787 123z" />
    <glyph glyph-name="A" unicode="A" horiz-adv-x="1274" 
d="M853 1230l-363 -721h442l-57 721h-22zM386 301l-99 -196q-58 -125 -187 -125h-122l673 1339q59 124 188 124h142q129 0 134 -125l105 -1338h-122q-129 0 -135 126l-16 195h-561z" />
    <glyph glyph-name="B" unicode="B" horiz-adv-x="1298" 
d="M56 -20l223 1049q43 202 236 319q171 104 384 104h4q214 -1 340 -105q110 -90 110 -231q0 -41 -10 -87q-47 -220 -206 -291q75 -25 119 -132q23 -57 23 -120q0 -40 -9 -82q-42 -199 -181 -300q-168 -124 -501 -124h-532zM427 622l-92 -434h297q207 0 304 62q77 49 99 154
q6 30 6 56q0 64 -39 99q-71 63 -278 63h-297zM707 829q212 0 305 54q74 44 96 146q5 23 5 43q0 72 -61 116q-70 49 -196 49h-5q-123 0 -212 -49q-103 -55 -125 -159l-43 -200h236z" />
    <glyph glyph-name="C" unicode="C" horiz-adv-x="1170" 
d="M202 897q55 259 252 409q192 146 459 146q230 0 479 -97l-16 -73q-9 -45 -50 -78q-41 -34 -96 -34q-201 67 -363 67q-160 0 -275 -87q-121 -92 -155 -253l-80 -374q-10 -47 -10 -89q0 -100 58 -164q78 -87 238 -87q162 0 391 67q55 0 82 -34q20 -24 20 -55q0 -11 -3 -23
l-15 -73q-291 -97 -521 -97q-267 0 -397 146q-94 105 -94 266q0 67 16 143z" />
    <glyph glyph-name="D" unicode="D" horiz-adv-x="1381" 
d="M1344 535q-56 -260 -252 -409q-192 -146 -458 -146h-593l195 917q55 259 252 409q192 146 459 146q266 0 396 -146q94 -106 94 -267q0 -66 -16 -142zM678 188q159 0 273 87q122 91 156 252l79 370q10 47 10 88q0 100 -59 165q-77 87 -236 87q-160 0 -275 -87
q-121 -92 -155 -253l-151 -709h358z" />
    <glyph glyph-name="E" unicode="E" horiz-adv-x="1158" 
d="M191 897q55 259 252 409q192 146 458 146q231 0 480 -97l-16 -73q-9 -45 -50 -78q-41 -34 -96 -34q-200 67 -364 67q-159 0 -274 -87q-121 -92 -155 -253l-15 -68h652q49 0 74 -31q19 -24 19 -53q0 -12 -3 -24l-21 -99h-765l-21 -99q-10 -47 -10 -89q0 -100 58 -164
q78 -87 237 -87q164 0 392 67q55 0 82 -34q20 -24 20 -55q0 -11 -3 -23l-15 -73q-291 -97 -522 -97q-266 0 -396 146q-94 105 -94 266q0 67 16 143z" />
    <glyph glyph-name="F" unicode="F" horiz-adv-x="1174" 
d="M245 897q55 259 252 409q192 146 459 146q230 0 479 -97l-16 -73q-9 -45 -49 -78q-42 -34 -97 -34q-201 67 -363 67q-160 0 -275 -87q-121 -92 -155 -253l-15 -68h652q49 0 74 -31q19 -24 19 -53q0 -12 -3 -24l-21 -99h-765l-112 -530q-10 -45 -51 -79q-40 -33 -91 -33
h-117z" />
    <glyph glyph-name="G" unicode="G" horiz-adv-x="1291" 
d="M1151 -20h-121q-49 0 -76 34q-17 22 -17 51q0 11 3 23l6 28q-142 -148 -419 -148q-261 0 -368 147q-66 92 -66 235q0 79 20 173l80 374q55 259 252 409q192 146 458 146q231 0 480 -97l-16 -73q-9 -45 -50 -78q-41 -34 -96 -34q-200 67 -364 67q-159 0 -274 -87
q-121 -92 -155 -253l-80 -374q-14 -66 -14 -120q0 -220 239 -220q215 0 427 188l53 251q9 43 46 74q41 34 90 34h121z" />
    <glyph glyph-name="H" unicode="H" horiz-adv-x="1326" 
d="M323 88q-9 -43 -49 -76q-39 -32 -87 -32h-122l309 1453h122q48 0 73 -32q19 -25 19 -54q0 -11 -2 -22l-110 -515h618l110 515q9 43 49 76q39 32 87 32h122l-309 -1453h-122q-48 0 -73 32q-19 25 -19 54q0 11 2 22l109 514h-618z" />
    <glyph glyph-name="I" unicode="I" horiz-adv-x="474" 
d="M351 1325q9 43 49 76q39 32 87 32h122l-286 -1345q-9 -43 -49 -76q-39 -32 -87 -32h-122z" />
    <glyph glyph-name="J" unicode="J" horiz-adv-x="943" 
d="M836 1325q9 43 45 74q42 34 91 34h121l-194 -910q-55 -260 -251 -409q-193 -146 -459 -146q-87 0 -207 20l20 92q9 44 49 77q39 32 90 32q54 -6 94 -6q159 0 273 87q123 91 157 253z" />
    <glyph glyph-name="K" unicode="K" horiz-adv-x="1224" 
d="M753 810q92 1 122 18q38 22 84 115l204 409q39 81 143 81h126l-279 -574q-42 -88 -83 -110q46 -35 55 -213l34 -556h-126q-104 0 -108 80l-33 457q-5 60 -28 74q-18 11 -93 11h-339l-109 -514q-9 -43 -49 -76q-39 -32 -87 -32h-122l309 1453h122q48 0 73 -32
q19 -25 19 -54q0 -11 -2 -22l-110 -515h277z" />
    <glyph glyph-name="L" unicode="L" horiz-adv-x="1193" 
d="M351 1440h117q51 0 77 -33q20 -25 20 -56q0 -11 -3 -23l-171 -805q-10 -47 -10 -89q0 -100 58 -164q78 -87 238 -87q162 0 391 67q55 0 83 -34q19 -24 19 -54q0 -11 -3 -24l-15 -73q-291 -97 -521 -97q-267 0 -397 146q-94 105 -94 266q0 67 16 143z" />
    <glyph glyph-name="M" unicode="M" horiz-adv-x="1816" 
d="M64 -20l286 1348q10 45 51 79q40 33 90 33h95q112 -1 132 -109l191 -1092l656 1092q66 108 178 109h95q50 0 76 -33q20 -25 20 -56q0 -11 -3 -23l-286 -1348h-117q-51 0 -77 33q-20 25 -20 56q0 11 3 23l209 986l-599 -998q-60 -100 -157 -100h-65q-97 0 -115 100
l-175 998l-209 -986q-10 -45 -51 -79q-40 -33 -91 -33h-117z" />
    <glyph glyph-name="N" unicode="N" horiz-adv-x="1422" 
d="M350 1328q10 45 51 79q40 33 90 33h206l378 -1171l249 1171h235l-286 -1348q-10 -45 -51 -79q-40 -33 -90 -33h-206l-378 1171l-225 -1059q-10 -45 -51 -79q-40 -33 -91 -33h-117z" />
    <glyph glyph-name="O" unicode="O" horiz-adv-x="1349" 
d="M1307 523q-55 -260 -252 -409q-192 -146 -459 -146q-266 0 -396 146q-94 105 -94 266q0 67 16 143l80 374q55 259 252 409q192 146 458 146q267 0 397 -146q94 -106 94 -267q0 -66 -16 -142zM592 1150q-121 -92 -155 -253l-80 -374q-10 -47 -10 -89q0 -100 58 -164
q78 -87 237 -87q160 0 274 87q122 91 156 253l80 374q10 47 10 88q0 100 -59 165q-77 87 -237 87q-159 0 -274 -87z" />
    <glyph glyph-name="P" unicode="P" horiz-adv-x="1196" 
d="M293 -20h-235l223 1049q43 202 236 319q171 104 384 104h4q214 -1 340 -105q110 -90 110 -231q0 -41 -10 -87q-99 -464 -692 -464h-236zM461 773h236q358 0 413 256q5 23 5 43q0 72 -61 116q-70 49 -196 49h-5q-123 0 -212 -49q-103 -55 -125 -159z" />
    <glyph glyph-name="Q" unicode="Q" horiz-adv-x="1349" 
d="M592 1150q-121 -92 -155 -253l-80 -374q-10 -47 -10 -89q0 -100 58 -164q78 -87 238 -87q159 0 273 87q122 91 156 253l80 374q10 47 10 88q0 100 -59 165q-77 87 -236 87q-160 0 -275 -87zM770 -15q-82 -17 -173 -17q-267 0 -397 146q-94 105 -94 266q0 67 16 143
l80 374q55 259 252 409q192 146 459 146q266 0 396 -146q94 -106 94 -267q0 -66 -16 -142l-80 -374q-55 -260 -252 -409q-29 -22 -60 -41l70 -292h-156q-89 0 -109 77z" />
    <glyph glyph-name="R" unicode="R" horiz-adv-x="1242" 
d="M461 773h236q358 0 413 256q5 23 5 43q0 72 -61 116q-70 49 -196 49h-5q-123 0 -212 -49q-103 -55 -125 -159zM1102 376l95 -396h-156q-89 0 -109 77l-75 319l-24 101q-14 88 -155 88h-261l-124 -585h-235l223 1049q43 202 236 319q171 104 384 104h4q214 -1 340 -105
q110 -90 110 -231q0 -41 -10 -87q-67 -313 -319 -401q31 -22 66 -212z" />
    <glyph glyph-name="S" unicode="S" horiz-adv-x="1165" 
d="M795 236q104 58 126 160q5 24 5 46q0 86 -85 125q-51 23 -268 57q-201 31 -280 95q-88 70 -88 198q0 46 11 100q43 203 222 323q164 112 373 112q230 0 479 -97l-16 -73q-9 -45 -50 -79q-40 -33 -95 -33q-201 67 -364 67q-108 0 -195 -55q-97 -61 -119 -165
q-4 -19 -4 -36q0 -80 89 -115q38 -15 274 -51q199 -31 280 -102t81 -197q0 -49 -12 -107l-3 -12q-47 -202 -232 -321q-168 -108 -378 -108q-230 0 -479 97l15 73q10 45 51 79q40 33 95 33q201 -67 364 -67q110 0 203 53z" />
    <glyph glyph-name="T" unicode="T" horiz-adv-x="1001" 
d="M356 1225q-48 0 -74 33q-18 23 -18 53q0 10 2 22l22 100h944q48 0 73 -32q19 -25 19 -54q0 -11 -2 -22l-22 -100h-411l-241 -1137q-9 -43 -49 -76q-39 -32 -87 -32h-122l264 1245h-298z" />
    <glyph glyph-name="U" unicode="U" horiz-adv-x="1262" 
d="M1204 391q-43 -201 -234 -318q-171 -104 -386 -105q-216 0 -344 104q-110 90 -110 230q0 42 10 89l222 1042h235l-222 -1042q-5 -23 -5 -43q0 -73 62 -116q69 -49 192 -49h5q126 0 216 49q102 56 124 159l222 1042h235z" />
    <glyph glyph-name="V" unicode="V" horiz-adv-x="1215" 
d="M660 183l559 1124q59 125 188 125h122l-673 -1337q-59 -126 -188 -126h-142q-129 0 -134 124l-105 1339h122q129 0 135 -124l83 -1125h33z" />
    <glyph glyph-name="W" unicode="W" horiz-adv-x="2114" 
d="M610 254l521 1053q56 125 182 125h89q125 0 130 -124l73 -1054l521 1053q58 125 183 125h119l-660 -1337q-59 -126 -185 -126h-78q-125 0 -129 124l-74 1072l-530 -1070q-59 -126 -184 -126h-78q-126 0 -130 124l-93 1339h119q126 0 131 -124z" />
    <glyph glyph-name="X" unicode="X" horiz-adv-x="1209" 
d="M876 828q38 22 84 115l204 409q39 81 143 81h126l-278 -574q-42 -88 -83 -111q45 -34 54 -212l34 -556h-126q-104 0 -108 80l-33 457q-5 60 -28 74q-18 11 -92 11h-125q-75 0 -97 -11q-29 -14 -59 -74l-227 -457q-39 -80 -143 -80h-126l270 556q86 178 145 213
q-31 22 -35 110l-35 574h126q104 0 108 -81l29 -409q8 -93 36 -114q23 -18 114 -19q92 1 122 18z" />
    <glyph glyph-name="Y" unicode="Y" horiz-adv-x="1167" 
d="M701 88q-9 -43 -49 -76q-39 -32 -87 -32h-122l132 623q-140 1 -190 48q-56 50 -65 226l-33 556h126q104 0 108 -81l33 -456q4 -61 28 -74q18 -12 92 -12h125q73 0 97 12q28 13 59 74l227 456q39 81 143 81h126l-271 -556q-81 -169 -158 -221q-73 -49 -212 -52z" />
    <glyph glyph-name="Z" unicode="Z" horiz-adv-x="1125" 
d="M1258 1432q50 0 76 -32q19 -25 19 -57q0 -10 -2 -22l-23 -107l-1006 -1024h671q50 0 76 -32q19 -25 19 -57q0 -10 -2 -22l-21 -99h-940q-50 0 -76 35q-19 23 -19 54q0 10 2 22l23 107l1006 1024h-672q-50 0 -76 35q-19 23 -19 54q0 10 2 22l21 99h941z" />
    <glyph glyph-name="bracketleft" unicode="[" horiz-adv-x="556" 
d="M-11 -404l433 2035h381l-37 -173h-162l-359 -1689h162l-37 -173h-381z" />
    <glyph glyph-name="backslash" unicode="\" horiz-adv-x="632" 
d="M375 1432h77q45 0 67 -28q17 -23 18 -57l-9 -1367h-77q-45 0 -67 28q-16 23 -18 57z" />
    <glyph glyph-name="bracketright" unicode="]" horiz-adv-x="556" 
d="M-11 -404l37 173h162l359 1689h-162l37 173h381l-433 -2035h-381z" />
    <glyph glyph-name="asciicircum" unicode="^" horiz-adv-x="1035" 
d="M881 785l-137 378l-295 -378h-221l519 661h115l240 -661h-221z" />
    <glyph glyph-name="underscore" unicode="_" horiz-adv-x="1262" 
d="M115 -242q-41 0 -62 36q-9 21 -9 45q0 14 3 30l15 69h996q42 0 62 -36q9 -19 9 -43q0 -15 -4 -31l-14 -70h-996z" />
    <glyph glyph-name="grave" unicode="`" horiz-adv-x="655" 
d="M347 1291q57 155 147 155q30 0 63 -17l245 -265l-91 -85z" />
    <glyph glyph-name="a" unicode="a" horiz-adv-x="1194" 
d="M956 518q17 79 17 138q0 66 -21 109q-47 97 -211 97t-251 -97q-76 -81 -111 -247q-18 -83 -18 -144q0 -63 19 -104q45 -96 207 -96q228 0 337 195zM516 -32q-386 0 -386 355q0 87 23 195q117 550 632 550q419 0 419 -365q0 -83 -22 -185l-114 -538h-113q-48 0 -74 33
q-19 22 -19 52q0 11 3 23q-116 -120 -349 -120z" />
    <glyph glyph-name="b" unicode="b" horiz-adv-x="1204" 
d="M401 518q-16 -76 -16 -135q0 -68 22 -112q46 -97 210 -97t252 97q74 81 109 247q18 83 18 144q0 63 -19 104q-45 96 -207 96q-227 0 -337 -195zM493 952q116 116 348 116q386 0 386 -355q0 -87 -23 -195q-117 -550 -631 -550q-420 0 -420 365q0 83 22 185l195 915h113
q48 0 73 -32q19 -25 19 -54q0 -11 -2 -22z" />
    <glyph glyph-name="c" unicode="c" horiz-adv-x="1026" 
d="M1000 74q-200 -106 -449 -106q-420 0 -420 365q0 83 22 185q117 550 632 550q249 0 403 -106l-20 -94q-15 -71 -87 -71q-20 0 -43 6q-146 59 -297 59q-164 0 -251 -97q-76 -81 -111 -247q-16 -76 -16 -135q0 -68 22 -112q46 -97 210 -97q151 0 322 59q26 6 46 6
q60 0 60 -49q0 -10 -3 -22z" />
    <glyph glyph-name="d" unicode="d" horiz-adv-x="1205" 
d="M1018 811q-129 51 -277 51q-159 0 -247 -91q-78 -81 -115 -253q-18 -82 -18 -143q0 -68 22 -110q46 -91 204 -91q227 0 337 195zM516 -32q-386 0 -386 355q0 87 23 195q117 550 632 550q175 0 279 -43l64 300q9 43 49 76q39 32 87 32h113l-309 -1453h-113q-48 0 -74 33
q-19 22 -19 52q0 11 3 23q-106 -120 -349 -120z" />
    <glyph glyph-name="e" unicode="e" horiz-adv-x="1090" 
d="M894 626q5 40 5 72q0 58 -17 93q-36 71 -170 71q-137 0 -211 -71q-61 -59 -92 -165h485zM552 -32q-420 0 -420 365q0 83 22 185q117 550 602 550q264 0 341 -166q32 -68 32 -170q0 -93 -26 -213q-21 -101 -134 -101h-605q-7 -35 -7 -64q0 -180 239 -180q151 0 322 59
q26 6 46 6q60 0 60 -49q0 -10 -3 -22l-20 -94q-200 -106 -449 -106z" />
    <glyph glyph-name="f" unicode="f" horiz-adv-x="707" 
d="M811 1056q49 0 74 -34q19 -22 19 -52q0 -11 -2 -22l-22 -100h-345l-161 -760q-10 -44 -48 -75q-40 -33 -88 -33h-113l184 868h-29q-49 0 -74 34q-18 22 -18 52q0 10 2 22l21 100h142q46 216 184 307q119 80 339 80q100 0 217 -28l-21 -100q-19 -88 -131 -88
q-58 10 -109 10q-117 0 -168 -32q-61 -38 -85 -149h232z" />
    <glyph glyph-name="g" unicode="g" horiz-adv-x="1193" 
d="M956 518q17 79 17 138q0 66 -21 109q-47 97 -211 97t-251 -97q-76 -81 -111 -247q-18 -83 -18 -144q0 -63 19 -104q45 -96 207 -96q227 0 337 195zM516 -32q-386 0 -386 355q0 87 23 195q117 550 632 550q419 0 419 -365q0 -83 -22 -185l-80 -375q-117 -550 -631 -550
q-250 0 -404 107l20 93q15 72 87 72q19 0 44 -7q145 -59 297 -59q164 0 252 97q74 81 109 247q-137 -175 -360 -175z" />
    <glyph glyph-name="h" unicode="h" horiz-adv-x="1169" 
d="M1030 -20h-113q-48 0 -74 33q-19 22 -19 52q0 11 3 23l125 590q7 31 7 57q0 127 -161 127q-227 0 -337 -194l-123 -580q-10 -44 -48 -75q-40 -33 -88 -33h-113l309 1453h113q48 0 73 -32q19 -25 19 -54q0 -11 -2 -22l-82 -383q128 126 350 126q327 0 327 -255
q0 -51 -13 -112z" />
    <glyph glyph-name="i" unicode="i" horiz-adv-x="433" 
d="M293 948q9 44 47 75q40 33 88 33h113l-205 -968q-10 -44 -48 -75q-40 -33 -88 -33h-113zM373 1325q9 43 49 76q39 32 87 32h113l-31 -145q-9 -43 -49 -76q-39 -32 -87 -32h-113z" />
    <glyph glyph-name="j" unicode="j" horiz-adv-x="460" 
d="M315 -22q-41 -194 -155 -288q-101 -83 -283 -97q-47 0 -72 32q-17 22 -17 51q0 9 2 20l22 100q142 0 192 32q62 38 85 150l207 970q9 44 47 75q40 33 88 33h113zM376 1325q9 43 49 76q39 32 87 32h113l-31 -145q-9 -43 -47 -74q-40 -34 -89 -34h-113z" />
    <glyph glyph-name="k" unicode="k" horiz-adv-x="1069" 
d="M400 1433h113q48 0 73 -32q19 -25 19 -54q0 -11 -2 -22l-150 -703h233q72 0 97 41l171 309q45 84 152 84h121l-214 -388q-54 -97 -80 -113q37 -32 49 -123l58 -452h-121q-107 0 -117 78l-40 314q-5 42 -60 42h-293l-69 -326q-10 -44 -48 -75q-40 -33 -88 -33h-113z" />
    <glyph glyph-name="l" unicode="l" horiz-adv-x="557" 
d="M393 1433h113q48 0 73 -32q19 -25 19 -54q0 -11 -2 -22l-208 -978q-17 -79 -17 -118q0 -35 13 -39q20 -7 49 -7q21 0 49 4q96 0 96 -65q0 -11 -3 -24l-21 -100q-104 -23 -185 -23q-25 0 -50 2q-112 8 -156 87q-23 39 -23 110t22 173z" />
    <glyph glyph-name="m" unicode="m" horiz-adv-x="1701" 
d="M857 678q10 47 10 81q0 47 -19 70q-26 33 -110 33q-174 0 -284 -194l-123 -580q-10 -44 -48 -75q-40 -33 -88 -33h-113l228 1076h113q48 0 74 -33q19 -23 19 -53q0 -11 -2 -22q116 120 295 120q280 0 289 -168q127 168 338 168q294 0 294 -247q0 -54 -14 -120l-153 -721
h-113q-49 0 -74 34q-19 22 -19 51q0 11 3 23l125 590q10 47 10 81q0 47 -19 70q-27 33 -111 33q-174 0 -284 -194l-123 -580q-10 -44 -48 -76q-39 -32 -88 -32h-113z" />
    <glyph glyph-name="n" unicode="n" horiz-adv-x="1159" 
d="M1023 -20h-113q-48 0 -74 33q-19 22 -19 52q0 11 3 23l125 590q7 31 7 57q0 127 -161 127q-227 0 -337 -195l-123 -579q-10 -44 -48 -75q-40 -33 -88 -33h-113l228 1076h113q48 0 74 -33q19 -23 19 -53q0 -11 -2 -22q126 120 348 120q327 0 327 -255q0 -51 -13 -112z" />
    <glyph glyph-name="o" unicode="o" horiz-adv-x="1176" 
d="M741 861q-164 0 -251 -96q-76 -81 -111 -247q-16 -77 -16 -137q0 -67 21 -111q47 -96 211 -96t251 96q75 82 110 248q17 79 17 138q0 66 -21 109q-47 96 -211 96zM785 1068q419 0 419 -365q0 -83 -22 -185q-117 -550 -631 -550q-420 0 -420 365q0 83 22 185
q117 550 632 550z" />
    <glyph glyph-name="p" unicode="p" horiz-adv-x="1219" 
d="M361 225q130 -51 278 -51q159 0 246 90q79 82 115 254q18 82 18 143q0 68 -22 110q-45 90 -204 90q-233 0 -334 -177zM863 1068q386 0 386 -355q0 -87 -23 -195q-117 -550 -631 -550q-175 0 -280 43l-63 -300q-10 -43 -50 -76q-38 -32 -86 -32h-113l308 1453h113
q48 0 74 -32q19 -25 19 -54q0 -11 -2 -22q116 120 348 120z" />
    <glyph glyph-name="q" unicode="q" horiz-adv-x="1196" 
d="M956 518q17 79 17 138q0 66 -21 109q-47 96 -211 96t-251 -96q-76 -81 -111 -247q-18 -83 -18 -145q0 -63 19 -104q45 -95 207 -95q234 0 334 178zM866 92q-117 -124 -350 -124q-386 0 -386 355q0 87 23 195q117 550 632 550q419 0 419 -365q0 -83 -22 -185l-194 -915
h-113q-48 0 -74 32q-19 24 -19 53q0 11 3 23z" />
    <glyph glyph-name="r" unicode="r" horiz-adv-x="865" 
d="M310 1056h113q48 0 74 -32q19 -25 19 -54q0 -11 -2 -22q116 120 295 120q99 0 217 -28l-21 -100q-19 -88 -131 -88q-59 9 -136 9q-174 0 -284 -194l-123 -579q-10 -44 -48 -76q-40 -32 -88 -32h-113z" />
    <glyph glyph-name="s" unicode="s" horiz-adv-x="932" 
d="M1016 961l-20 -93q-15 -72 -87 -72q-19 0 -43 7q-147 58 -272 58q-75 0 -124 -38q-46 -34 -57 -85q-2 -8 -2 -16q0 -46 63 -67l189 -38q140 -26 197 -84q56 -56 56 -147q0 -37 -9 -80l-2 -9q-30 -133 -149 -226q-132 -103 -316 -103q-225 0 -379 106l19 93q16 72 89 72
q19 0 43 -6q146 -59 272 -59q76 0 131 39q51 35 61 84q3 12 3 23q0 51 -58 75q-23 9 -189 40q-138 27 -194 77q-63 56 -63 151q0 35 9 75q28 134 142 226q127 104 312 104q224 0 378 -107z" />
    <glyph glyph-name="t" unicode="t" horiz-adv-x="838" 
d="M301 848q-48 0 -74 33q-18 23 -18 53q0 10 2 22l21 100h145l35 163q9 44 48 75q40 33 88 33h113l-58 -271h304q48 0 74 -32q19 -25 19 -54q0 -11 -2 -22l-22 -100h-417l-105 -493q-8 -38 -8 -67q0 -58 30 -83q38 -31 155 -31q51 0 113 9q96 0 96 -64q0 -11 -3 -24
l-21 -100q-129 -27 -229 -27q-221 0 -306 80q-67 62 -67 184q0 55 14 123l105 493h-32z" />
    <glyph glyph-name="u" unicode="u" horiz-adv-x="1163" 
d="M469 -32q-327 0 -327 255q0 51 13 112l153 721h113q48 0 74 -32q19 -25 19 -54q0 -11 -2 -22l-126 -590q-7 -31 -7 -57q0 -127 161 -127q234 0 334 178l127 596q9 43 49 76q38 32 86 32h113l-228 -1076h-113q-48 0 -74 32q-19 23 -19 53q0 11 3 23q-116 -120 -349 -120z
" />
    <glyph glyph-name="v" unicode="v" horiz-adv-x="969" 
d="M315 1056q113 0 119 -106l63 -734l375 734q50 106 163 106h122l-496 -970q-50 -106 -163 -106h-102q-113 0 -119 106l-84 970h122z" />
    <glyph glyph-name="w" unicode="w" horiz-adv-x="1567" 
d="M321 1056q113 0 120 -106l21 -711l308 711q51 106 163 106h76q112 0 119 -106l28 -711l301 711q51 106 164 106h98l-401 -969q-51 -107 -164 -107h-103q-112 0 -119 106l-25 684l-284 -683q-51 -107 -164 -107h-102q-113 0 -120 106l-36 970h120z" />
    <glyph glyph-name="x" unicode="x" horiz-adv-x="1000" 
d="M518 414q-55 0 -78 -43l-171 -310q-45 -81 -152 -81h-121l250 452q50 91 102 122q-21 17 -32 114l-51 388h121q107 0 118 -87l40 -307q6 -39 60 -40h22q54 1 78 40l170 307q47 87 154 87h121l-215 -388q-53 -97 -80 -114q38 -31 50 -122l58 -452h-121q-107 0 -118 81
l-39 310q-5 43 -60 43h-106z" />
    <glyph glyph-name="y" unicode="y" horiz-adv-x="1166" 
d="M1054 143q-117 -550 -631 -550q-250 0 -404 106l20 93q15 72 88 72q19 0 43 -6q145 -59 297 -59q164 0 252 97q74 81 109 247q-137 -175 -360 -175q-327 0 -327 255q0 51 13 112l153 721h113q48 0 74 -32q19 -25 19 -54q0 -11 -2 -22l-126 -590q-7 -31 -7 -57
q0 -127 161 -127q227 0 337 195l124 579q9 43 49 76q38 32 86 32h113z" />
    <glyph glyph-name="z" unicode="z" horiz-adv-x="899" 
d="M955 1056q48 0 74 -32q19 -25 19 -54q0 -11 -2 -22l-19 -86l-684 -675h428q48 0 74 -32q18 -24 18 -53q0 -11 -2 -23l-21 -99h-713q-48 0 -74 32q-19 23 -19 53q0 11 3 23l18 85l684 675h-428q-48 0 -74 33q-18 23 -18 53q0 10 2 22l21 100h713z" />
    <glyph glyph-name="braceleft" unicode="{" horiz-adv-x="823" 
d="M538 583q38 -75 38 -174q0 -65 -16 -141q-12 -58 -33 -121q-35 -105 -50 -176q-13 -59 -13 -94q0 -31 10 -45q38 -62 117 -62q24 0 85 11l-36 -173q-65 -12 -105 -12q-155 0 -230 125q-38 75 -38 174q0 65 16 141q12 58 34 122q34 103 50 174q12 56 12 91q0 34 -11 49
q-27 45 -72 57l-108 4l36 169l110 4q50 12 96 57q35 30 58 140q15 71 24 175q6 63 18 121q41 192 156 315q128 125 283 125q40 0 100 -12l-37 -173q-57 11 -81 11q-79 0 -143 -62q-33 -29 -56 -138q-15 -72 -25 -176q-5 -64 -17 -121q-41 -193 -157 -316q-27 -27 -38 -35
q8 -7 23 -34z" />
    <glyph glyph-name="bar" unicode="|" horiz-adv-x="361" 
d="M417 1608q9 44 48 76q40 32 88 32h73l-405 -1903q-9 -44 -47 -75q-40 -33 -89 -33h-73z" />
    <glyph glyph-name="braceright" unicode="}" horiz-adv-x="823" 
d="M545 617q-7 8 -22 35q-39 75 -39 176q0 65 16 140q12 57 33 121q36 104 51 176q12 57 12 92q0 32 -10 46q-38 62 -117 62q-24 0 -85 -11l37 173q64 12 104 12q155 0 231 -125q38 -75 38 -174q0 -65 -16 -141q-12 -58 -34 -121q-35 -104 -50 -175q-12 -57 -12 -93
q0 -33 10 -47q28 -45 72 -57l108 -4l-36 -169l-110 -4q-49 -12 -96 -57q-34 -30 -57 -140q-16 -71 -24 -174q-6 -64 -18 -122q-41 -192 -156 -315q-129 -125 -284 -125q-40 0 -99 12l36 173q57 -11 81 -11q79 0 143 62q33 29 57 139q15 71 25 176q6 63 18 121
q41 192 156 315q27 27 37 34z" />
    <glyph glyph-name="asciitilde" unicode="~" horiz-adv-x="1034" 
d="M481 676q-44 0 -100 -25q-26 -12 -58 -35q-4 -3 -6 -5q-28 -23 -63 -23q-24 0 -50 18l24 112q89 82 159.5 110.5t131.5 28.5q69 0 168.5 -44t147.5 -44q44 0 100 25q26 12 58 35q4 3 6 5q28 23 63 23q24 0 50 -18l-23 -112q-90 -82 -160.5 -110.5t-131.5 -28.5
q-63 0 -165.5 44t-150.5 44z" />
    <glyph glyph-name="exclamdown" unicode="&#xa1;" horiz-adv-x="902" 
d="M497 -288q-10 -44 -49 -76t-87 -32h-171l262 1004q9 44 48 76q40 32 88 32h73zM728 912q-10 -44 -49 -75q-41 -33 -92 -33h-117l30 144q10 44 49 76q42 32 91 32h118z" />
    <glyph glyph-name="cent" unicode="&#xa2;" horiz-adv-x="1265" 
d="M1180 74q-200 -106 -449 -106q-420 0 -420 365q0 83 22 185q117 550 632 550q249 0 403 -106l-20 -94q-15 -71 -87 -71q-20 0 -43 6q-146 59 -297 59q-164 0 -251 -97q-76 -81 -111 -247q-16 -76 -16 -135q0 -68 22 -112q46 -97 210 -97q151 0 322 59q26 6 46 6
q60 0 60 -49q0 -10 -3 -22zM700 -109q-16 -34 -42 -57q-34 -28 -79 -28h-77l571 1367q17 34 42 57q34 28 79 28h77z" />
    <glyph glyph-name="sterling" unicode="&#xa3;" horiz-adv-x="1312" 
d="M410 721v13q1 133 24 239q50 237 209 334q180 145 428 145q180 0 429 -97l-16 -73q-9 -45 -49 -78q-42 -34 -97 -34q-201 67 -313 67q-139 0 -245 -87q-82 -57 -112 -201q-18 -84 -18 -197v-31h496q42 0 63 -36q9 -19 9 -43q0 -15 -4 -31l-15 -70h-566l-7 -31
q-3 -21 -7 -41q-40 -186 -124 -281h617q48 0 73 -32q19 -25 19 -54q0 -11 -2 -22l-21 -100h-1137l24 114q19 89 121 89q149 75 189 264q7 33 11 70l5 24h-113q-41 0 -61 36q-9 21 -9 45q0 14 3 30l14 69h182z" />
    <glyph glyph-name="currency" unicode="&#xa4;" horiz-adv-x="1146" 
d="M774 989q-126 0 -193 -70q-56 -59 -83 -183q-12 -56 -12 -98q0 -53 18 -86q36 -70 162 -70t192 70q58 60 84 184q12 57 12 100q0 51 -17 83q-37 70 -163 70zM1049 525l32 -41q15 -19 15 -44q0 -9 -2 -18q-2 -7 -5 -16q-19 -44 -60 -79l-74 -61l-80 100q-90 -49 -244 -49
q-161 0 -229 55l-40 -34q-30 -25 -71 -25q-8 0 -18 1q-46 11 -74 46l-43 54l144 119q-6 30 -6 66q0 60 16 137q31 146 94 230l-49 63q-15 18 -15 43q0 9 2 19q1 7 4 15q20 42 60 77l74 61l104 -131q83 42 226 42q109 0 188 -46l73 60q34 28 76 28q8 0 18 -2q43 -11 71 -45
l43 -54l-147 -121q15 -42 15 -100q0 -61 -17 -139q-27 -131 -81 -211z" />
    <glyph glyph-name="yen" unicode="&#xa5;" horiz-adv-x="1333" 
d="M651 552l11 51q-140 1 -190 48q-56 50 -65 226l-33 556h126q104 0 108 -81l33 -456q4 -61 28 -74q18 -12 92 -12h125q73 0 97 12q28 13 59 74l227 456q39 81 143 81h126l-271 -556q-81 -169 -158 -221q-73 -49 -212 -52l-11 -52h245q42 0 63 -36q9 -20 9 -44
q0 -15 -4 -31l-15 -69h-336l-16 -77h245q42 0 62 -36q9 -19 9 -43q0 -15 -4 -31l-15 -70h-336l-5 -27q-9 -43 -49 -76q-39 -32 -87 -32h-122l28 135h-245q-41 0 -61 36q-9 21 -9 45q0 14 3 30l15 69h336l16 77h-245q-41 0 -61 36q-9 21 -9 45q0 14 3 30l14 69h336z" />
    <glyph glyph-name="brokenbar" unicode="&#xa6;" horiz-adv-x="336" 
d="M417 1038q9 18.9199 48 32.6797q40 13.7598 88 13.7598h73l-405 -818.276q-9 -18.9189 -47 -32.249q-40 -14.1895 -89 -14.1895h-73zM417 529.321q9 18.9189 48 32.6787q40 13.7598 88 13.7598h73l-405 -818.275q-9 -18.9199 -47 -32.25q-40 -14.1895 -89 -14.1895h-73z
" />
    <glyph glyph-name="section" unicode="&#xa7;" horiz-adv-x="1136" 
d="M979 251q-9 7 -11 7q0 -1 1 -2q75 -63 75 -177q0 -43 -11 -94l-3 -11q-42 -181 -208 -288q-150 -96 -339 -96q-205 0 -430 87l14 66q9 41 47 72q36 30 86 30q180 -59 325 -59q98 0 179 46q92 51 111 141q5 21 5 40q0 77 -76 111q-44 20 -238 50q-179 28 -251 86
q-78 62 -78 177q0 41 10 90q39 182 175 274l10 -8l-2 2q-79 62 -79 177q0 42 10 90q38 182 198 290q148 100 335 100q206 0 430 -87l-14 -67q-9 -41 -45 -71q-39 -31 -89 -31q-179 60 -324 60q-95 0 -171 -48q-86 -54 -105 -146q-4 -17 -4 -33q0 -70 78 -100q34 -13 244 -45
q177 -28 251 -91q73 -63 73 -177q0 -44 -11 -96l-3 -11q-40 -170 -165 -258zM761 341q25 8 56 27q93 51 112 141q5 21 5 40q0 76 -76 110q-44 20 -239 51q-10 2 -14 3q-51 -10 -98 -41q-85 -53 -105 -145q-4 -17 -4 -32q0 -70 78 -101q34 -13 244 -45q26 -4 41 -8z" />
    <glyph glyph-name="dieresis" unicode="&#xa8;" horiz-adv-x="743" 
d="M336 1229q9 43 51 76q39 32 90 32h117l-31 -145q-9 -43 -51 -76q-39 -32 -89 -32h-118zM873 1084h-118q-50 0 -75 32q-21 25 -21 56q0 10 2 20l31 145h117q51 0 76 -32q21 -25 21 -56q0 -10 -2 -20z" />
    <glyph glyph-name="copyright" unicode="&#xa9;" horiz-adv-x="1707" 
d="M645 818q33 158 154 250q118 90 282 90q140 0 297 -61l-10 -49q-16 -75 -102 -75q-120 40 -216 40q-91 0 -155 -49q-70 -52 -90 -146l-48 -224q-6 -28 -6 -52q0 -57 34 -94q44 -49 135 -49q96 0 232 40q73 0 73 -54q0 -10 -3 -22l-10 -48q-183 -61 -323 -61
q-164 0 -244 90q-58 65 -58 164q0 40 10 86zM1110 1422q349 0 472 -192q67 -105 67 -274q0 -111 -29 -250q-74 -350 -260 -524q-205 -192 -554 -192q-350 0 -473 192q-67 105 -67 273q0 112 29 251q74 349 260 524q205 192 555 192zM1080 1281q-498 0 -620 -575
q-24 -113 -24 -204q0 -371 400 -371q497 0 619 575q24 113 24 204q0 371 -399 371z" />
    <glyph glyph-name="ordfeminine" unicode="&#xaa;" horiz-adv-x="845" 
d="M640.174 773.969q11.2197 47.3975 11.2197 82.7969q0 39.5977 -13.8594 65.3965q-31.0186 58.1982 -139.255 58.1982q-108.235 0 -165.652 -58.1982q-50.1582 -48.5977 -73.2578 -148.193q-11.8789 -49.7979 -11.8789 -86.3965q0 -37.7988 12.5391 -62.3975
q29.6992 -57.5977 136.614 -57.5977q150.475 0 222.411 116.995zM349.786 443.982q-254.75 0 -254.75 212.991q0 52.1973 15.1797 116.995q77.2168 329.986 417.103 329.986q276.529 0 276.529 -218.991q0 -49.7979 -14.5195 -110.995l-75.2373 -322.787h-74.5771
q-31.6787 0 -48.8379 19.7988q-12.5391 13.2002 -12.5391 31.1992q0 6.59961 1.97949 13.7988q-76.5566 -71.9961 -230.33 -71.9961z" />
    <glyph glyph-name="guillemotleft" unicode="&#xab;" horiz-adv-x="813" 
d="M494 343q5 -15 5 -44q0 -71 -33 -227l-288 411l20 94l463 411q-47 -219 -88 -271l-167 -187zM781 343q5 -15 5 -44q0 -71 -33 -227l-288 411l20 94l463 411q-47 -219 -88 -271l-167 -187z" />
    <glyph glyph-name="logicalnot" unicode="&#xac;" horiz-adv-x="1005" 
d="M843 604h-549q-41 0 -61 36q-9 21 -9 45q0 14 3 30l15 69h830l-82 -386q-8 -35 -48 -62q-41 -24 -87 -24h-74z" />
    <glyph glyph-name="registered" unicode="&#xae;" horiz-adv-x="1500" 
d="M1040 1422q349 0 472 -192q67 -105 67 -274q0 -111 -29 -250q-74 -350 -260 -524q-205 -192 -554 -192q-350 0 -473 192q-67 105 -67 273q0 112 29 251q74 349 260 524q205 192 555 192zM1010 1281q-498 0 -620 -575q-24 -113 -24 -204q0 -371 400 -371q497 0 619 575
q24 113 24 204q0 371 -399 371zM612 298h-162l127 597q27 125 148 199q105 64 237 64h4q133 0 211 -65q68 -56 68 -143q0 -26 -6 -55q-41 -193 -184 -244q10 -7 33 -124l53 -230h-107q-61 0 -75 52l-48 210q-8 48 -85 48h-148zM708 748h133q206 0 237 147q3 13 3 25
q0 40 -35 64q-39 29 -112 29t-125 -28q-57 -31 -70 -90z" />
    <glyph glyph-name="macron" unicode="&#xaf;" horiz-adv-x="1121" 
d="M402 1110q-41 0 -61 36q-9 21 -9 45q0 14 3 30l14 69h855q42 0 63 -36q9 -19 9 -43q0 -15 -4 -31l-15 -70h-855z" />
    <glyph glyph-name="degree" unicode="&#xb0;" horiz-adv-x="841" 
d="M693 1342q-98 0 -149 -57q-45 -49 -67 -151q-10 -48 -10 -85q0 -41 13 -68q26 -57 124 -57t150 56q45 51 67 154q11 49 11 85q0 40 -13 66q-28 57 -126 57zM724 1487q272 0 272 -235q0 -53 -14 -118q-75 -354 -408 -354q-272 0 -272 236q0 53 14 118q75 353 408 353z" />
    <glyph glyph-name="plusminus" unicode="&#xb1;" horiz-adv-x="1159" 
d="M607 604h-319q-41 0 -61 36q-9 21 -9 45q0 14 3 30l15 69h410l69 324q7 36 48 63q39 23 85 23h75l-87 -410h318q42 0 62 -36q9 -19 9 -43q0 -15 -4 -31l-15 -70h-409l-68 -323q-8 -35 -47 -62q-42 -24 -88 -24h-74zM288 -20q-41 0 -61 36q-9 21 -9 45q0 14 3 30l15 69
h918q42 0 62 -36q9 -19 9 -43q0 -15 -4 -31l-15 -70h-918z" />
    <glyph glyph-name="uni00B2" unicode="&#xb2;" horiz-adv-x="778" 
d="M266 530q-32 0 -52 22q-13 16 -13 36q0 7 2 15l5 24q21 98 112 176q55 48 181 119q124 69 169 106q76 64 92 139q3 15 3 28q0 40 -29 62q-36 27 -105 27q-58 0 -195 -41q-40 0 -58 23q-13 17 -13 38q0 8 1 15l11 49q183 61 285 61q131 0 204 -64q64 -54 64 -140
q0 -27 -7 -58q-38 -177 -281 -317q-147 -83 -164 -95q-75 -51 -88 -85l353 1q34 0 51 -24q13 -15 13 -34q0 -7 -2 -15l-14 -68h-525z" />
    <glyph glyph-name="uni00B3" unicode="&#xb3;" horiz-adv-x="809" 
d="M660 1429q132 0 206 -65q62 -54 62 -138q0 -28 -7 -59q-29 -139 -109 -173q74 -24 74 -123q0 -35 -9 -79q-57 -269 -411 -269q-110 0 -267 61l10 48q7 31 35 53q27 23 67 23q133 -44 185 -44q117 0 169 36q38 29 51 92q5 21 5 38q0 33 -18 50q-35 35 -154 35h-126l30 141
h125q101 5 140 34q30 22 42 77q3 15 3 28q0 39 -30 62q-35 27 -105 27q-40 0 -177 -41q-40 0 -58 23q-13 17 -13 38q0 8 1 15l11 49q183 61 267 61h1z" />
    <glyph glyph-name="acute" unicode="&#xb4;" horiz-adv-x="650" 
d="M370 1079l-55 85l359 265q39 17 69 17q82 0 82 -128q0 -13 -1 -27z" />
    <glyph glyph-name="mu" unicode="&#xb5;" horiz-adv-x="1116" 
d="M299 1056h113q48 0 74 -32q19 -25 19 -54q0 -11 -2 -22l-126 -590q-7 -31 -7 -57q0 -127 161 -127q234 0 334 178l127 596q9 43 49 76q38 32 86 32h113l-228 -1076h-113q-48 0 -74 32q-19 23 -19 53q0 11 3 23l-4 -16q-72 -104 -345 -104q-119 0 -162 20l-56 -265h-113
q-48 0 -73 32q-19 25 -19 54q0 11 2 22z" />
    <glyph glyph-name="paragraph" unicode="&#xb6;" horiz-adv-x="1216" 
d="M985 88q-9 -41 -41 -74q-33 -34 -75 -34h-100l270 1270h-112l-247 -1162q-9 -41 -41 -74q-33 -34 -75 -34h-100l146 686q-11 -2 -55 -2q-192 0 -250 116q-24 50 -24 124q0 63 17 144q37 176 121 267q107 116 299 116h-22l1 2h724l-21 -95q-7 -36 -49 -64q-36 -24 -82 -24
h-37z" />
    <glyph glyph-name="periodcentered" unicode="&#xb7;" horiz-adv-x="357" 
d="M150.445 628.982q8.5 37.3984 41.6494 63.748q34.8486 28.0488 77.3477 28.0488h100.297l-25.499 -122.396q-8.5 -37.3984 -41.6484 -64.5977q-35.6992 -27.1992 -78.1982 -27.1992h-99.4473z" />
    <glyph glyph-name="periodcentered" unicode="&#x2219;" horiz-adv-x="357" 
d="M150.445 628.982q8.5 37.3984 41.6494 63.748q34.8486 28.0488 77.3477 28.0488h100.297l-25.499 -122.396q-8.5 -37.3984 -41.6484 -64.5977q-35.6992 -27.1992 -78.1982 -27.1992h-99.4473z" />
    <glyph glyph-name="cedilla" unicode="&#xb8;" horiz-adv-x="606" 
d="M416 22l-61 -71q107 -59 107 -146q0 -16 -4 -33q-13 -57 -75 -123q-75 -59 -162 -59q-95 0 -211 77l7 61l1 5q10 45 60 49h5q10 0 24 -3q85 -37 134 -37q28 0 40 10q6 10 9 22q1 4 1 8q0 52 -140 95l109 145h156z" />
    <glyph glyph-name="uni00B9" unicode="&#xb9;" horiz-adv-x="778" 
d="M600 671h143q34 0 51 -24q13 -15 13 -34q0 -7 -2 -15l-14 -68h-525q-32 0 -52 22q-13 16 -13 36q0 7 2 15l14 67h221l121 566l-105 -105h-37q-41 0 -55 34q-6 12 -6 23q0 5 1 10q3 15 15 28l111 125q56 66 127 66h70q33 0 53 -22q12 -15 12 -35q0 -8 -2 -16z" />
    <glyph glyph-name="ordmasculine" unicode="&#xba;" horiz-adv-x="846" 
d="M534.578 986.96q-108.235 0 -165.653 -57.5977q-50.1582 -48.5986 -73.2568 -148.194q-10.5596 -46.1982 -10.5596 -82.1963q0 -40.1982 13.8594 -66.5977q31.0186 -57.5977 139.255 -57.5977q108.235 0 165.652 57.5977q49.498 49.1982 72.5977 148.794
q11.2197 47.3984 11.2197 82.7969q0 39.5986 -13.8594 65.3975q-31.0195 57.5977 -139.255 57.5977zM563.617 1111.15q276.528 0 276.528 -218.99q0 -49.7988 -14.5195 -110.996q-77.2168 -329.986 -416.442 -329.986q-277.189 0 -277.189 218.991
q0 49.7979 14.5195 110.995q77.2168 329.986 417.104 329.986zM113 477q-20.5 0 -31 36q-4.5 21 -4.5 45q0 14 1.5 30l7.5 69h498q21 0 31 -36q4.5 -19 4.5 -43q0 -15 -2 -31l-7 -70h-498z" />
    <glyph glyph-name="guillemotright" unicode="&#xbb;" horiz-adv-x="813" 
d="M346 530l-89 187q-5 15 -5 44q0 71 33 227l289 -411l-20 -94l-464 -411q47 219 88 271zM633 530l-89 187q-5 15 -5 44q0 71 33 227l289 -411l-20 -94l-464 -411q47 219 88 271z" />
    <glyph glyph-name="onequarter" unicode="&#xbc;" horiz-adv-x="2079" 
d="M600 671h143q34 0 51 -24q13 -15 13 -34q0 -7 -2 -15l-14 -68h-525q-32 0 -52 22q-13 16 -13 36q0 7 2 15l14 67h221l121 566l-105 -105h-37q-41 0 -55 34q-6 12 -6 23q0 5 1 10q3 15 15 28l111 125q56 66 127 66h70q33 0 53 -22q12 -15 12 -35q0 -8 -2 -16zM968 65
q-16 -34 -42 -57q-34 -28 -79 -28h-77l571 1367q17 34 42 57q34 28 79 28h77zM2083 327h28q34 0 52 -25q13 -14 13 -34q0 -8 -2 -16l-14 -68h-107l-43 -204h-83q-34 0 -52 23q-12 16 -12 35q0 7 2 15l28 131h-326q-35 0 -52 22q-13 17 -13 38q0 8 1 15l14 66l406 476
q57 66 128 66h69q33 0 53 -22q12 -15 12 -35q0 -8 -2 -16zM1702 327h221l74 346z" />
    <glyph glyph-name="onehalf" unicode="&#xbd;" horiz-adv-x="2009" 
d="M600 671h143q34 0 51 -24q13 -15 13 -34q0 -7 -2 -15l-14 -68h-525q-32 0 -52 22q-13 16 -13 36q0 7 2 15l14 67h221l121 566l-105 -105h-37q-41 0 -55 34q-6 12 -6 23q0 5 1 10q3 15 15 28l111 125q56 66 127 66h70q33 0 53 -22q12 -15 12 -35q0 -8 -2 -16zM968 65
q-16 -34 -42 -57q-34 -28 -79 -28h-77l571 1367q17 34 42 57q34 28 79 28h77zM1522 -20q-32 0 -52 22q-13 16 -13 36q0 7 2 15l5 24q21 98 112 176q55 48 181 119q124 69 169 106q76 64 92 139q3 15 3 28q0 40 -29 62q-36 27 -105 27q-58 0 -195 -41q-40 0 -58 23
q-13 17 -13 38q0 8 1 15l11 49q183 61 285 61q131 0 204 -64q64 -54 64 -140q0 -27 -7 -58q-38 -177 -281 -317q-147 -83 -164 -95q-75 -51 -88 -85l353 1q34 0 51 -24q13 -15 13 -34q0 -7 -2 -15l-14 -68h-525z" />
    <glyph glyph-name="threequarters" unicode="&#xbe;" horiz-adv-x="2110" 
d="M660 1429q132 0 206 -65q62 -54 62 -138q0 -28 -7 -59q-29 -139 -109 -173q74 -24 74 -123q0 -35 -9 -79q-57 -269 -411 -269q-110 0 -267 61l10 48q7 31 35 53q27 23 67 23q133 -44 185 -44q117 0 169 36q38 29 51 92q5 21 5 38q0 33 -18 50q-35 35 -154 35h-126l30 141
h125q101 5 140 34q30 22 42 77q3 15 3 28q0 39 -30 62q-35 27 -105 27q-40 0 -177 -41q-40 0 -58 23q-13 17 -13 38q0 8 1 15l11 49q183 61 267 61h1zM999 65q-16 -34 -42 -57q-34 -28 -79 -28h-77l571 1367q17 34 42 57q34 28 79 28h77zM2114 327h28q34 0 52 -25
q13 -14 13 -34q0 -8 -2 -16l-14 -68h-107l-43 -204h-83q-34 0 -52 23q-12 16 -12 35q0 7 2 15l28 131h-326q-35 0 -52 22q-13 17 -13 38q0 8 1 15l14 66l406 476q57 66 128 66h69q33 0 53 -22q12 -15 12 -35q0 -8 -2 -16zM1733 327h221l74 346z" />
    <glyph glyph-name="questiondown" unicode="&#xbf;" horiz-adv-x="1152" 
d="M900 608q9 44 48 76q40 32 88 32h73l-59 -401q-10 -45 -50 -78t-89 -33q-365 0 -404 -185q-5 -24 -5 -46q0 -72 55 -119q62 -54 171 -54q163 0 392 67q56 0 82 -33q19 -25 19 -57q0 -11 -2 -23l-16 -73q-290 -96 -520 -96q-209 0 -326 111q-95 90 -95 226q0 46 11 97
q47 223 237 318q104 50 340 83zM1178 912q-10 -44 -49 -75q-41 -33 -91 -33h-118l30 144q10 44 49 76q42 32 92 32h117z" />
    <glyph glyph-name="Agrave" unicode="&#xc0;" horiz-adv-x="1243" 
d="M853 1230l-363 -721h442l-57 721h-22zM386 301l-99 -196q-58 -125 -187 -125h-122l673 1339q59 124 188 124h142q129 0 134 -125l105 -1338h-122q-129 0 -135 126l-16 195h-561zM568 1668q57 155 147 155q30 0 63 -17l245 -265l-91 -85z" />
    <glyph glyph-name="Aacute" unicode="&#xc1;" horiz-adv-x="1243" 
d="M853 1230l-363 -721h442l-57 721h-22zM386 301l-99 -196q-58 -125 -187 -125h-122l673 1339q59 124 188 124h142q129 0 134 -125l105 -1338h-122q-129 0 -135 126l-16 195h-561zM732 1456l-55 85l359 265q39 17 69 17q82 0 82 -128q0 -13 -1 -27z" />
    <glyph glyph-name="Acircumflex" unicode="&#xc2;" horiz-adv-x="1243" 
d="M853 1230l-363 -721h442l-57 721h-22zM386 301l-99 -196q-58 -125 -187 -125h-122l673 1339q59 124 188 124h142q129 0 134 -125l105 -1338h-122q-129 0 -135 126l-16 195h-561zM864 1602l-312 -146l-56 85q172 125 365 269h95l249 -269l-91 -85z" />
    <glyph glyph-name="Atilde" unicode="&#xc3;" horiz-adv-x="1243" 
d="M853 1230l-363 -721h442l-57 721h-22zM386 301l-99 -196q-58 -125 -187 -125h-122l673 1339q59 124 188 124h142q129 0 134 -125l105 -1338h-122q-129 0 -135 126l-16 195h-561zM1203 1617q-131 -125 -243 -125q-66 0 -125 42q-65 46 -128 46q-59 0 -156 -69l-17 116
q122 115 229 115q67 0 129 -43t123 -43q66 0 169 78z" />
    <glyph glyph-name="Adieresis" unicode="&#xc4;" horiz-adv-x="1243" 
d="M853 1230l-363 -721h442l-57 721h-22zM386 301l-99 -196q-58 -125 -187 -125h-122l673 1339q59 124 188 124h142q129 0 134 -125l105 -1338h-122q-129 0 -135 126l-16 195h-561zM580 1606q9 43 51 76q39 32 90 32h117l-31 -145q-9 -43 -51 -76q-39 -32 -89 -32h-118z
M1117 1461h-118q-50 0 -75 32q-21 25 -21 56q0 10 2 20l31 145h117q51 0 76 -32q21 -25 21 -56q0 -10 -2 -20z" />
    <glyph glyph-name="Aring" unicode="&#xc5;" horiz-adv-x="1243" 
d="M853 1230l-363 -721h442l-57 721h-22zM386 301l-99 -196q-58 -125 -187 -125h-122l673 1339q59 124 188 124h142q129 0 134 -125l105 -1338h-122q-129 0 -135 126l-16 195h-561zM1042 1751q33 -43 33 -97q0 -21 -5 -44q-17 -81 -88.5 -140.5t-158.5 -59.5t-133 60
q-35 43 -35 98q0 20 5 42q18 82 89.5 141t158.5 59t134 -59zM879 1674q-23 0 -44.5 -18t-27.5 -46q-2 -8 -2 -15q0 -17 10 -30q14 -18 37 -18t44.5 18t27.5 45q2 8 2 16q0 17 -10 30q-14 18 -37 18z" />
    <glyph glyph-name="AE" unicode="&#xc6;" horiz-adv-x="1909" 
d="M1525 1443q60 9 127 9q231 0 480 -97l-16 -73q-9 -45 -50 -78q-41 -34 -96 -34q-200 67 -364 67q-159 0 -274 -87q-121 -92 -155 -253l-15 -68h652q49 0 74 -31q19 -24 19 -53q0 -12 -3 -24l-21 -99h-765l-21 -99q-10 -47 -10 -89q0 -100 58 -164q78 -87 237 -87
q164 0 392 67q55 0 82 -34q20 -24 20 -55q0 -11 -3 -23l-15 -73q-291 -97 -522 -97q-266 0 -396 146q-75 83 -88 187h-466l-99 -196q-58 -125 -187 -125h-122l673 1339q59 124 188 124h686zM1107 1230h-254l-363 -721h369l83 388q47 222 165 333z" />
    <glyph glyph-name="Ccedilla" unicode="&#xc7;" horiz-adv-x="1170" 
d="M636 -32l-14 -17q107 -59 107 -146q0 -16 -4 -33q-13 -57 -75 -123q-75 -59 -162 -59q-95 0 -211 77l7 61l1 5q10 45 60 49h5q10 0 24 -3q85 -37 134 -37q28 0 40 10q6 10 9 22q1 4 1 8q0 52 -140 95l72 97q-178 15 -290 140q-94 105 -94 266q0 67 16 143l80 374
q55 259 252 409q192 146 459 146q230 0 479 -97l-16 -73q-9 -45 -50 -78q-41 -34 -96 -34q-201 67 -363 67q-160 0 -275 -87q-121 -92 -155 -253l-80 -374q-10 -47 -10 -89q0 -100 58 -164q78 -87 238 -87q162 0 391 67q55 0 82 -34q20 -24 20 -55q0 -11 -3 -23l-15 -73
q-276 -92 -482 -97z" />
    <glyph glyph-name="Egrave" unicode="&#xc8;" horiz-adv-x="1133" 
d="M191 897q55 259 252 409q192 146 458 146q231 0 480 -97l-16 -73q-9 -45 -50 -78q-41 -34 -96 -34q-200 67 -364 67q-159 0 -274 -87q-121 -92 -155 -253l-15 -68h652q49 0 74 -31q19 -24 19 -53q0 -12 -3 -24l-21 -99h-765l-21 -99q-10 -47 -10 -89q0 -100 58 -164
q78 -87 237 -87q164 0 392 67q55 0 82 -34q20 -24 20 -55q0 -11 -3 -23l-15 -73q-291 -97 -522 -97q-266 0 -396 146q-94 105 -94 266q0 67 16 143zM512 1668q57 155 147 155q30 0 63 -17l245 -265l-91 -85z" />
    <glyph glyph-name="Eacute" unicode="&#xc9;" horiz-adv-x="1133" 
d="M191 897q55 259 252 409q192 146 458 146q231 0 480 -97l-16 -73q-9 -45 -50 -78q-41 -34 -96 -34q-200 67 -364 67q-159 0 -274 -87q-121 -92 -155 -253l-15 -68h652q49 0 74 -31q19 -24 19 -53q0 -12 -3 -24l-21 -99h-765l-21 -99q-10 -47 -10 -89q0 -100 58 -164
q78 -87 237 -87q164 0 392 67q55 0 82 -34q20 -24 20 -55q0 -11 -3 -23l-15 -73q-291 -97 -522 -97q-266 0 -396 146q-94 105 -94 266q0 67 16 143zM676 1456l-55 85l359 265q39 17 69 17q82 0 82 -128q0 -13 -1 -27z" />
    <glyph glyph-name="Ecircumflex" unicode="&#xca;" horiz-adv-x="1133" 
d="M191 897q55 259 252 409q192 146 458 146q231 0 480 -97l-16 -73q-9 -45 -50 -78q-41 -34 -96 -34q-200 67 -364 67q-159 0 -274 -87q-121 -92 -155 -253l-15 -68h652q49 0 74 -31q19 -24 19 -53q0 -12 -3 -24l-21 -99h-765l-21 -99q-10 -47 -10 -89q0 -100 58 -164
q78 -87 237 -87q164 0 392 67q55 0 82 -34q20 -24 20 -55q0 -11 -3 -23l-15 -73q-291 -97 -522 -97q-266 0 -396 146q-94 105 -94 266q0 67 16 143zM807 1602l-312 -146l-56 85q172 125 365 269h95l249 -269l-91 -85z" />
    <glyph glyph-name="Edieresis" unicode="&#xcb;" horiz-adv-x="1133" 
d="M191 897q55 259 252 409q192 146 458 146q231 0 480 -97l-16 -73q-9 -45 -50 -78q-41 -34 -96 -34q-200 67 -364 67q-159 0 -274 -87q-121 -92 -155 -253l-15 -68h652q49 0 74 -31q19 -24 19 -53q0 -12 -3 -24l-21 -99h-765l-21 -99q-10 -47 -10 -89q0 -100 58 -164
q78 -87 237 -87q164 0 392 67q55 0 82 -34q20 -24 20 -55q0 -11 -3 -23l-15 -73q-291 -97 -522 -97q-266 0 -396 146q-94 105 -94 266q0 67 16 143zM524 1606q9 43 51 76q39 32 90 32h117l-31 -145q-9 -43 -51 -76q-39 -32 -89 -32h-118zM1061 1461h-118q-50 0 -75 32
q-21 25 -21 56q0 10 2 20l31 145h117q51 0 76 -32q21 -25 21 -56q0 -10 -2 -20z" />
    <glyph glyph-name="Igrave" unicode="&#xcc;" horiz-adv-x="449" 
d="M540 1325q9 43 49 76q39 32 87 32h122l-286 -1345q-9 -43 -49 -76q-39 -32 -87 -32h-122zM341 1668q57 155 147 155q30 0 63 -17l245 -265l-91 -85z" />
    <glyph glyph-name="Iacute" unicode="&#xcd;" horiz-adv-x="449" 
d="M399 1325q9 43 49 76q39 32 87 32h122l-286 -1345q-9 -43 -49 -76q-39 -32 -87 -32h-122zM360 1456l-55 85l359 265q39 17 69 17q82 0 82 -128q0 -13 -1 -27z" />
    <glyph glyph-name="Icircumflex" unicode="&#xce;" horiz-adv-x="449" 
d="M581 1325q9 43 49 76q39 32 87 32h122l-286 -1345q-9 -43 -49 -76q-39 -32 -87 -32h-122zM763 1602l-312 -146l-56 85q172 125 365 269h95l249 -269l-91 -85z" />
    <glyph glyph-name="Idieresis" unicode="&#xcf;" horiz-adv-x="449" 
d="M517 1325q9 43 49 76q39 32 87 32h122l-286 -1345q-9 -43 -49 -76q-39 -32 -87 -32h-122zM403 1606q9 43 51 76q39 32 90 32h117l-31 -145q-9 -43 -51 -76q-39 -32 -89 -32h-118zM940 1461h-118q-50 0 -75 32q-21 25 -21 56q0 10 2 20l31 145h117q51 0 76 -32
q21 -25 21 -56q0 -10 -2 -20z" />
    <glyph glyph-name="Eth" unicode="&#xd0;" horiz-adv-x="1426" 
d="M458 626l-93 -438h358q159 0 273 87q122 91 156 252l79 370q10 47 10 88q0 100 -59 165q-77 87 -236 87q-160 0 -275 -87q-121 -92 -155 -253l-20 -91h201q42 0 63 -36q9 -19 9 -43q0 -15 -4 -31l-15 -70h-292zM261 806l20 91q55 259 252 409q192 146 459 146
q266 0 396 -146q94 -106 94 -267q0 -66 -16 -142l-77 -362q-56 -260 -252 -409q-192 -146 -458 -146h-593l137 646h-59q-41 0 -61 36q-9 21 -9 45q0 14 3 30l14 69h150z" />
    <glyph glyph-name="Ntilde" unicode="&#xd1;" horiz-adv-x="1397" 
d="M350 1328q10 45 51 79q40 33 90 33h206l378 -1171l249 1171h235l-286 -1348q-10 -45 -51 -79q-40 -33 -90 -33h-206l-378 1171l-225 -1059q-10 -45 -51 -79q-40 -33 -91 -33h-117zM1260 1617q-131 -125 -243 -125q-66 0 -125 42q-65 46 -128 46q-59 0 -156 -69l-17 116
q122 115 229 115q67 0 129 -43t123 -43q66 0 169 78z" />
    <glyph glyph-name="Ograve" unicode="&#xd2;" horiz-adv-x="1324" 
d="M1307 523q-55 -260 -252 -409q-192 -146 -459 -146q-266 0 -396 146q-94 105 -94 266q0 67 16 143l80 374q55 259 252 409q192 146 458 146q267 0 397 -146q94 -106 94 -267q0 -66 -16 -142zM592 1150q-121 -92 -155 -253l-80 -374q-10 -47 -10 -89q0 -100 58 -164
q78 -87 237 -87q160 0 274 87q122 91 156 253l80 374q10 47 10 88q0 100 -59 165q-77 87 -237 87q-159 0 -274 -87zM569 1668q57 155 147 155q30 0 63 -17l245 -265l-91 -85z" />
    <glyph glyph-name="Oacute" unicode="&#xd3;" horiz-adv-x="1324" 
d="M1307 523q-55 -260 -252 -409q-192 -146 -459 -146q-266 0 -396 146q-94 105 -94 266q0 67 16 143l80 374q55 259 252 409q192 146 458 146q267 0 397 -146q94 -106 94 -267q0 -66 -16 -142zM592 1150q-121 -92 -155 -253l-80 -374q-10 -47 -10 -89q0 -100 58 -164
q78 -87 237 -87q160 0 274 87q122 91 156 253l80 374q10 47 10 88q0 100 -59 165q-77 87 -237 87q-159 0 -274 -87zM733 1456l-55 85l359 265q39 17 69 17q82 0 82 -128q0 -13 -1 -27z" />
    <glyph glyph-name="Ocircumflex" unicode="&#xd4;" horiz-adv-x="1324" 
d="M1307 523q-55 -260 -252 -409q-192 -146 -459 -146q-266 0 -396 146q-94 105 -94 266q0 67 16 143l80 374q55 259 252 409q192 146 458 146q267 0 397 -146q94 -106 94 -267q0 -66 -16 -142zM592 1150q-121 -92 -155 -253l-80 -374q-10 -47 -10 -89q0 -100 58 -164
q78 -87 237 -87q160 0 274 87q122 91 156 253l80 374q10 47 10 88q0 100 -59 165q-77 87 -237 87q-159 0 -274 -87zM864 1602l-312 -146l-56 85q172 125 365 269h95l249 -269l-91 -85z" />
    <glyph glyph-name="Otilde" unicode="&#xd5;" horiz-adv-x="1324" 
d="M1307 523q-55 -260 -252 -409q-192 -146 -459 -146q-266 0 -396 146q-94 105 -94 266q0 67 16 143l80 374q55 259 252 409q192 146 458 146q267 0 397 -146q94 -106 94 -267q0 -66 -16 -142zM592 1150q-121 -92 -155 -253l-80 -374q-10 -47 -10 -89q0 -100 58 -164
q78 -87 237 -87q160 0 274 87q122 91 156 253l80 374q10 47 10 88q0 100 -59 165q-77 87 -237 87q-159 0 -274 -87zM1203 1617q-131 -125 -243 -125q-66 0 -125 42q-65 46 -128 46q-59 0 -156 -69l-17 116q122 115 229 115q67 0 129 -43t123 -43q66 0 169 78z" />
    <glyph glyph-name="Odieresis" unicode="&#xd6;" horiz-adv-x="1324" 
d="M1307 523q-55 -260 -252 -409q-192 -146 -459 -146q-266 0 -396 146q-94 105 -94 266q0 67 16 143l80 374q55 259 252 409q192 146 458 146q267 0 397 -146q94 -106 94 -267q0 -66 -16 -142zM592 1150q-121 -92 -155 -253l-80 -374q-10 -47 -10 -89q0 -100 58 -164
q78 -87 237 -87q160 0 274 87q122 91 156 253l80 374q10 47 10 88q0 100 -59 165q-77 87 -237 87q-159 0 -274 -87zM581 1606q9 43 51 76q39 32 90 32h117l-31 -145q-9 -43 -51 -76q-39 -32 -89 -32h-118zM1118 1461h-118q-50 0 -75 32q-21 25 -21 56q0 10 2 20l31 145h117
q51 0 76 -32q21 -25 21 -56q0 -10 -2 -20z" />
    <glyph glyph-name="multiply" unicode="&#xd7;" horiz-adv-x="1009" 
d="M609 564l-272 -224q-28 -24 -65 -24q-7 0 -16 2q-40 8 -63 38l-39 49l352 290l-181 229q-13 18 -13 41q0 7 1 15q2 6 4 13q16 37 55 69l64 53l228 -290l273 225q28 23 65 23q8 0 16 -2q38 -8 62 -38l38 -49l-350 -289l180 -229q13 -17 13 -38q0 -8 -2 -17q-1 -6 -4 -14
q-16 -38 -54 -70l-65 -53z" />
    <glyph glyph-name="Oslash" unicode="&#xd8;" horiz-adv-x="1349" 
d="M649 183q153 0 267 87q122 91 156 253l80 374q10 47 10 88q0 100 -59 165q-41 46 -78 59zM496 206l377 1032l-7 -1q-159 0 -274 -87q-121 -92 -155 -253l-80 -374q-10 -47 -10 -89q0 -100 58 -164q46 -51 91 -64zM1105 1429q121 -29 204 -123q94 -106 94 -267
q0 -66 -16 -142l-80 -374q-55 -260 -252 -409q-192 -146 -459 -146h-26l-58 -159q-17 -43 -43 -72q-36 -37 -83 -37h-76l105 288q-128 28 -215 126q-94 105 -94 266q0 67 16 143l80 374q55 259 252 409q192 146 458 146h40l26 73q17 43 43 72q36 37 83 37h76z" />
    <glyph glyph-name="Ugrave" unicode="&#xd9;" horiz-adv-x="1237" 
d="M1204 391q-43 -201 -234 -318q-171 -104 -386 -105q-216 0 -344 104q-110 90 -110 230q0 42 10 89l222 1042h235l-222 -1042q-5 -23 -5 -43q0 -73 62 -116q69 -49 192 -49h5q126 0 216 49q102 56 124 159l222 1042h235zM554 1668q57 155 147 155q30 0 63 -17l245 -265
l-91 -85z" />
    <glyph glyph-name="Uacute" unicode="&#xda;" horiz-adv-x="1237" 
d="M1204 391q-43 -201 -234 -318q-171 -104 -386 -105q-216 0 -344 104q-110 90 -110 230q0 42 10 89l222 1042h235l-222 -1042q-5 -23 -5 -43q0 -73 62 -116q69 -49 192 -49h5q126 0 216 49q102 56 124 159l222 1042h235zM718 1456l-55 85l359 265q39 17 69 17
q82 0 82 -128q0 -13 -1 -27z" />
    <glyph glyph-name="Ucircumflex" unicode="&#xdb;" horiz-adv-x="1237" 
d="M1204 391q-43 -201 -234 -318q-171 -104 -386 -105q-216 0 -344 104q-110 90 -110 230q0 42 10 89l222 1042h235l-222 -1042q-5 -23 -5 -43q0 -73 62 -116q69 -49 192 -49h5q126 0 216 49q102 56 124 159l222 1042h235zM850 1602l-312 -146l-56 85q172 125 365 269h95
l249 -269l-91 -85z" />
    <glyph glyph-name="Udieresis" unicode="&#xdc;" horiz-adv-x="1237" 
d="M1204 391q-43 -201 -234 -318q-171 -104 -386 -105q-216 0 -344 104q-110 90 -110 230q0 42 10 89l222 1042h235l-222 -1042q-5 -23 -5 -43q0 -73 62 -116q69 -49 192 -49h5q126 0 216 49q102 56 124 159l222 1042h235zM566 1606q9 43 51 76q39 32 90 32h117l-31 -145
q-9 -43 -51 -76q-39 -32 -89 -32h-118zM1103 1461h-118q-50 0 -75 32q-21 25 -21 56q0 10 2 20l31 145h117q51 0 76 -32q21 -25 21 -56q0 -10 -2 -20z" />
    <glyph glyph-name="Yacute" unicode="&#xdd;" horiz-adv-x="1136" 
d="M701 88q-9 -43 -49 -76q-39 -32 -87 -32h-122l132 623q-140 1 -190 48q-56 50 -65 226l-33 556h126q104 0 108 -81l33 -456q4 -61 28 -74q18 -12 92 -12h125q73 0 97 12q28 13 59 74l227 456q39 81 143 81h126l-271 -556q-81 -169 -158 -221q-73 -49 -212 -52zM693 1456
l-55 85l359 265q39 17 69 17q82 0 82 -128q0 -13 -1 -27z" />
    <glyph glyph-name="Thorn" unicode="&#xde;" horiz-adv-x="1196" 
d="M550 1190q114 62 308 62h4q215 -1 341 -105q109 -90 109 -229q0 -42 -10 -89q-98 -464 -691 -464h-236l-125 -585h-235l329 1545q9 43 49 76q39 32 87 32h122zM419 573h236q358 0 412 256q5 23 5 43q0 72 -61 116q-70 49 -196 49h-5q-123 0 -212 -49q-103 -55 -125 -159z
" />
    <glyph glyph-name="germandbls" unicode="&#xdf;" horiz-adv-x="1298" 
d="M707 829q212 0 305 54q74 44 96 146q5 23 5 43q0 72 -61 116q-70 49 -196 49h-5q-123 0 -212 -49q-103 -55 -125 -159l-43 -200h236zM701 -20q-248 0 -311 154q-9 26 -9 70q0 81 30 220h218q-16 -77 -16 -127q0 -33 7 -54q18 -55 114 -55q105 0 202 62q77 49 99 154
q6 30 6 56q0 64 -39 99q-71 63 -278 63h-297l-147 -692q-9 -43 -49 -76q-39 -32 -87 -32h-122l257 1207q43 202 236 319q171 104 384 104h4q214 -1 340 -105q110 -90 110 -231q0 -41 -10 -87q-47 -220 -206 -291q75 -25 119 -132q23 -57 23 -120q0 -40 -9 -82
q-42 -199 -181 -300q-168 -124 -387 -124h-1z" />
    <glyph glyph-name="agrave" unicode="&#xe0;" horiz-adv-x="1169" 
d="M956 518q17 79 17 138q0 66 -21 109q-47 97 -211 97t-251 -97q-76 -81 -111 -247q-18 -83 -18 -144q0 -63 19 -104q45 -96 207 -96q228 0 337 195zM516 -32q-386 0 -386 355q0 87 23 195q117 550 632 550q419 0 419 -365q0 -83 -22 -185l-114 -538h-113q-48 0 -74 33
q-19 22 -19 52q0 11 3 23q-116 -120 -349 -120zM523 1291q57 155 147 155q30 0 63 -17l245 -265l-91 -85z" />
    <glyph glyph-name="aacute" unicode="&#xe1;" horiz-adv-x="1169" 
d="M956 518q17 79 17 138q0 66 -21 109q-47 97 -211 97t-251 -97q-76 -81 -111 -247q-18 -83 -18 -144q0 -63 19 -104q45 -96 207 -96q228 0 337 195zM516 -32q-386 0 -386 355q0 87 23 195q117 550 632 550q419 0 419 -365q0 -83 -22 -185l-114 -538h-113q-48 0 -74 33
q-19 22 -19 52q0 11 3 23q-116 -120 -349 -120zM687 1079l-55 85l359 265q39 17 69 17q82 0 82 -128q0 -13 -1 -27z" />
    <glyph glyph-name="acircumflex" unicode="&#xe2;" horiz-adv-x="1169" 
d="M956 518q17 79 17 138q0 66 -21 109q-47 97 -211 97t-251 -97q-76 -81 -111 -247q-18 -83 -18 -144q0 -63 19 -104q45 -96 207 -96q228 0 337 195zM516 -32q-386 0 -386 355q0 87 23 195q117 550 632 550q419 0 419 -365q0 -83 -22 -185l-114 -538h-113q-48 0 -74 33
q-19 22 -19 52q0 11 3 23q-116 -120 -349 -120zM818 1225l-312 -146l-56 85q172 125 365 269h95l249 -269l-91 -85z" />
    <glyph glyph-name="atilde" unicode="&#xe3;" horiz-adv-x="1169" 
d="M956 518q17 79 17 138q0 66 -21 109q-47 97 -211 97t-251 -97q-76 -81 -111 -247q-18 -83 -18 -144q0 -63 19 -104q45 -96 207 -96q228 0 337 195zM516 -32q-386 0 -386 355q0 87 23 195q117 550 632 550q419 0 419 -365q0 -83 -22 -185l-114 -538h-113q-48 0 -74 33
q-19 22 -19 52q0 11 3 23q-116 -120 -349 -120zM1157 1240q-131 -125 -243 -125q-66 0 -125 42q-65 46 -128 46q-59 0 -156 -69l-17 116q122 115 229 115q67 0 129 -43t123 -43q66 0 169 78z" />
    <glyph glyph-name="adieresis" unicode="&#xe4;" horiz-adv-x="1169" 
d="M956 518q17 79 17 138q0 66 -21 109q-47 97 -211 97t-251 -97q-76 -81 -111 -247q-18 -83 -18 -144q0 -63 19 -104q45 -96 207 -96q228 0 337 195zM516 -32q-386 0 -386 355q0 87 23 195q117 550 632 550q419 0 419 -365q0 -83 -22 -185l-114 -538h-113q-48 0 -74 33
q-19 22 -19 52q0 11 3 23q-116 -120 -349 -120zM535 1229q9 43 51 76q39 32 90 32h117l-31 -145q-9 -43 -51 -76q-39 -32 -89 -32h-118zM1072 1084h-118q-50 0 -75 32q-21 25 -21 56q0 10 2 20l31 145h117q51 0 76 -32q21 -25 21 -56q0 -10 -2 -20z" />
    <glyph glyph-name="aring" unicode="&#xe5;" horiz-adv-x="1169" 
d="M956 518q17 79 17 138q0 66 -21 109q-47 97 -211 97t-251 -97q-76 -81 -111 -247q-18 -83 -18 -144q0 -63 19 -104q45 -96 207 -96q228 0 337 195zM516 -32q-386 0 -386 355q0 87 23 195q117 550 632 550q419 0 419 -365q0 -83 -22 -185l-114 -538h-113q-48 0 -74 33
q-19 22 -19 52q0 11 3 23q-116 -120 -349 -120zM997 1374q33 -43 33 -97q0 -21 -5 -44q-17 -81 -88.5 -140.5t-158.5 -59.5t-133 60q-35 43 -35 98q0 20 5 42q18 82 89.5 141t158.5 59t134 -59zM834 1297q-23 0 -44.5 -18t-27.5 -46q-2 -8 -2 -15q0 -17 10 -30
q14 -18 37 -18t44.5 18t27.5 45q2 8 2 16q0 17 -10 30q-14 18 -37 18z" />
    <glyph glyph-name="ae" unicode="&#xe6;" horiz-adv-x="1803" 
d="M1607 626q5 40 5 72q0 58 -17 93q-36 71 -170 71q-137 0 -211 -71q-61 -59 -92 -165h485zM362 410q-5 -39 -5 -71q0 -59 17 -94q36 -71 170 -71q137 0 211 71q62 59 92 165h-485zM1067 922q152 146 402 146q264 0 341 -166q32 -68 32 -170q0 -93 -26 -213
q-21 -101 -134 -101h-605q-7 -35 -7 -64q0 -180 239 -180q151 0 322 59q26 6 46 6q60 0 60 -49q0 -10 -3 -22l-20 -94q-200 -106 -449 -106q-265 0 -363 146q-152 -146 -402 -146q-264 0 -341 166q-32 68 -32 170q0 93 26 213q21 101 134 101h605q7 35 7 64q0 180 -239 180
q-151 0 -321 -59q-27 -6 -47 -6q-60 0 -60 49q0 10 3 22l20 94q200 106 449 106q265 0 363 -146z" />
    <glyph glyph-name="ccedilla" unicode="&#xe7;" horiz-adv-x="1026" 
d="M446 -26q-316 28 -316 349q0 87 23 195q117 550 632 550q249 0 403 -106l-20 -94q-15 -71 -87 -71q-20 0 -43 6q-146 59 -297 59q-164 0 -251 -97q-76 -81 -111 -247q-16 -76 -16 -135q0 -68 22 -112q46 -97 210 -97q151 0 322 59q26 6 46 6q60 0 60 -49q0 -10 -3 -22
l-20 -94q-190 -101 -408 -106l-14 -17q107 -59 107 -146q0 -16 -4 -33q-13 -57 -75 -123q-75 -59 -162 -59q-95 0 -211 77l7 61l1 5q10 45 60 49h5q10 0 24 -3q85 -37 134 -37q28 0 40 10q6 10 9 22q1 4 1 8q0 52 -140 95z" />
    <glyph glyph-name="egrave" unicode="&#xe8;" horiz-adv-x="1065" 
d="M894 626q5 40 5 72q0 58 -17 93q-36 71 -170 71q-137 0 -211 -71q-61 -59 -92 -165h485zM552 -32q-420 0 -420 365q0 83 22 185q117 550 602 550q264 0 341 -166q32 -68 32 -170q0 -93 -26 -213q-21 -101 -134 -101h-605q-7 -35 -7 -64q0 -180 239 -180q151 0 322 59
q26 6 46 6q60 0 60 -49q0 -10 -3 -22l-20 -94q-200 -106 -449 -106zM484 1291q57 155 147 155q30 0 63 -17l245 -265l-91 -85z" />
    <glyph glyph-name="eacute" unicode="&#xe9;" horiz-adv-x="1065" 
d="M894 626q5 40 5 72q0 58 -17 93q-36 71 -170 71q-137 0 -211 -71q-61 -59 -92 -165h485zM552 -32q-420 0 -420 365q0 83 22 185q117 550 602 550q264 0 341 -166q32 -68 32 -170q0 -93 -26 -213q-21 -101 -134 -101h-605q-7 -35 -7 -64q0 -180 239 -180q151 0 322 59
q26 6 46 6q60 0 60 -49q0 -10 -3 -22l-20 -94q-200 -106 -449 -106zM648 1079l-55 85l359 265q39 17 69 17q82 0 82 -128q0 -13 -1 -27z" />
    <glyph glyph-name="ecircumflex" unicode="&#xea;" horiz-adv-x="1065" 
d="M894 626q5 40 5 72q0 58 -17 93q-36 71 -170 71q-137 0 -211 -71q-61 -59 -92 -165h485zM552 -32q-420 0 -420 365q0 83 22 185q117 550 602 550q264 0 341 -166q32 -68 32 -170q0 -93 -26 -213q-21 -101 -134 -101h-605q-7 -35 -7 -64q0 -180 239 -180q151 0 322 59
q26 6 46 6q60 0 60 -49q0 -10 -3 -22l-20 -94q-200 -106 -449 -106zM779 1225l-312 -146l-56 85q172 125 365 269h95l249 -269l-91 -85z" />
    <glyph glyph-name="edieresis" unicode="&#xeb;" horiz-adv-x="1065" 
d="M894 626q5 40 5 72q0 58 -17 93q-36 71 -170 71q-137 0 -211 -71q-61 -59 -92 -165h485zM552 -32q-420 0 -420 365q0 83 22 185q117 550 602 550q264 0 341 -166q32 -68 32 -170q0 -93 -26 -213q-21 -101 -134 -101h-605q-7 -35 -7 -64q0 -180 239 -180q151 0 322 59
q26 6 46 6q60 0 60 -49q0 -10 -3 -22l-20 -94q-200 -106 -449 -106zM496 1229q9 43 51 76q39 32 90 32h117l-31 -145q-9 -43 -51 -76q-39 -32 -89 -32h-118zM1033 1084h-118q-50 0 -75 32q-21 25 -21 56q0 10 2 20l31 145h117q51 0 76 -32q21 -25 21 -56q0 -10 -2 -20z" />
    <glyph glyph-name="igrave" unicode="&#xec;" horiz-adv-x="376" 
d="M471 948q9 44 47 75q40 33 88 33h113l-205 -968q-10 -44 -48 -75q-40 -33 -88 -33h-113zM347 1291q57 155 147 155q30 0 63 -17l245 -265l-91 -85z" />
    <glyph glyph-name="iacute" unicode="&#xed;" horiz-adv-x="376" 
d="M330 948q9 44 47 75q40 33 88 33h113l-205 -968q-10 -44 -48 -75q-40 -33 -88 -33h-113zM370 1079l-55 85l359 265q39 17 69 17q82 0 82 -128q0 -13 -1 -27z" />
    <glyph glyph-name="icircumflex" unicode="&#xee;" horiz-adv-x="376" 
d="M511 948q9 44 47 75q40 33 88 33h113l-205 -968q-10 -44 -48 -75q-40 -33 -88 -33h-113zM683 1225l-312 -146l-56 85q172 125 365 269h95l249 -269l-91 -85z" />
    <glyph glyph-name="idieresis" unicode="&#xef;" horiz-adv-x="376" 
d="M448 948q9 44 47 75q40 33 88 33h113l-205 -968q-10 -44 -48 -75q-40 -33 -88 -33h-113zM336 1229q9 43 51 76q39 32 90 32h117l-31 -145q-9 -43 -51 -76q-39 -32 -89 -32h-118zM873 1084h-118q-50 0 -75 32q-21 25 -21 56q0 10 2 20l31 145h117q51 0 76 -32
q21 -25 21 -56q0 -10 -2 -20z" />
    <glyph glyph-name="eth" unicode="&#xf0;" horiz-adv-x="1227" 
d="M937 579q-27 195 -254 195q-162 0 -248 -96q-71 -80 -85 -148q-17 -78 -17 -137q0 -67 22 -110q47 -97 211 -97t251 97q74 81 110 247zM825 1201q-50 20 -112 21q-25 11 -25 52q0 19 5 44q8 35 38 98q204 -9 298 -89l101 61q49 26 93 26q33 0 64 -14l67 -54l-225 -137
q69 -113 69 -309q0 -158 -45 -370q-117 -550 -631 -550q-420 0 -420 365q0 83 22 185q111 425 574 450q219 0 286 -85v11q0 99 -51 184l-71 -43q-58 -25 -102 -25q-31 0 -55 12l-72 54z" />
    <glyph glyph-name="ntilde" unicode="&#xf1;" horiz-adv-x="1134" 
d="M1023 -20h-113q-48 0 -74 33q-19 22 -19 52q0 11 3 23l125 590q7 31 7 57q0 127 -161 127q-227 0 -337 -195l-123 -579q-10 -44 -48 -75q-40 -33 -88 -33h-113l228 1076h113q48 0 74 -33q19 -23 19 -53q0 -11 -2 -22q126 120 348 120q327 0 327 -255q0 -51 -13 -112z
M1156 1240q-131 -125 -243 -125q-66 0 -125 42q-65 46 -128 46q-59 0 -156 -69l-17 116q122 115 229 115q67 0 129 -43t123 -43q66 0 169 78z" />
    <glyph glyph-name="ograve" unicode="&#xf2;" horiz-adv-x="1151" 
d="M741 861q-164 0 -251 -96q-76 -81 -111 -247q-16 -77 -16 -137q0 -67 21 -111q47 -96 211 -96t251 96q75 82 110 248q17 79 17 138q0 66 -21 109q-47 96 -211 96zM785 1068q419 0 419 -365q0 -83 -22 -185q-117 -550 -631 -550q-420 0 -420 365q0 83 22 185
q117 550 632 550zM523 1291q57 155 147 155q30 0 63 -17l245 -265l-91 -85z" />
    <glyph glyph-name="oacute" unicode="&#xf3;" horiz-adv-x="1151" 
d="M741 861q-164 0 -251 -96q-76 -81 -111 -247q-16 -77 -16 -137q0 -67 21 -111q47 -96 211 -96t251 96q75 82 110 248q17 79 17 138q0 66 -21 109q-47 96 -211 96zM785 1068q419 0 419 -365q0 -83 -22 -185q-117 -550 -631 -550q-420 0 -420 365q0 83 22 185
q117 550 632 550zM687 1079l-55 85l359 265q39 17 69 17q82 0 82 -128q0 -13 -1 -27z" />
    <glyph glyph-name="ocircumflex" unicode="&#xf4;" horiz-adv-x="1151" 
d="M741 861q-164 0 -251 -96q-76 -81 -111 -247q-16 -77 -16 -137q0 -67 21 -111q47 -96 211 -96t251 96q75 82 110 248q17 79 17 138q0 66 -21 109q-47 96 -211 96zM785 1068q419 0 419 -365q0 -83 -22 -185q-117 -550 -631 -550q-420 0 -420 365q0 83 22 185
q117 550 632 550zM818 1225l-312 -146l-56 85q172 125 365 269h95l249 -269l-91 -85z" />
    <glyph glyph-name="otilde" unicode="&#xf5;" horiz-adv-x="1151" 
d="M741 861q-164 0 -251 -96q-76 -81 -111 -247q-16 -77 -16 -137q0 -67 21 -111q47 -96 211 -96t251 96q75 82 110 248q17 79 17 138q0 66 -21 109q-47 96 -211 96zM785 1068q419 0 419 -365q0 -83 -22 -185q-117 -550 -631 -550q-420 0 -420 365q0 83 22 185
q117 550 632 550zM1157 1240q-131 -125 -243 -125q-66 0 -125 42q-65 46 -128 46q-59 0 -156 -69l-17 116q122 115 229 115q67 0 129 -43t123 -43q66 0 169 78z" />
    <glyph glyph-name="odieresis" unicode="&#xf6;" horiz-adv-x="1151" 
d="M741 861q-164 0 -251 -96q-76 -81 -111 -247q-16 -77 -16 -137q0 -67 21 -111q47 -96 211 -96t251 96q75 82 110 248q17 79 17 138q0 66 -21 109q-47 96 -211 96zM785 1068q419 0 419 -365q0 -83 -22 -185q-117 -550 -631 -550q-420 0 -420 365q0 83 22 185
q117 550 632 550zM535 1229q9 43 51 76q39 32 90 32h117l-31 -145q-9 -43 -51 -76q-39 -32 -89 -32h-118zM1072 1084h-118q-50 0 -75 32q-21 25 -21 56q0 10 2 20l31 145h117q51 0 76 -32q21 -25 21 -56q0 -10 -2 -20z" />
    <glyph glyph-name="divide" unicode="&#xf7;" horiz-adv-x="1159" 
d="M288 604q-41 0 -61 36q-9 21 -9 45q0 14 3 30l15 69h918q42 0 62 -36q9 -19 9 -43q0 -15 -4 -31l-15 -70h-918zM482 403q10 44 49 75q41 33 91 33h118l-30 -144q-10 -44 -49 -76q-42 -32 -92 -32h-117zM614 1021q9 43 51 76q39 32 90 32h117l-31 -145q-9 -43 -51 -76
q-39 -32 -89 -32h-118z" />
    <glyph glyph-name="oslash" unicode="&#xf8;" horiz-adv-x="1176" 
d="M970 1044q234 -60 234 -335q0 -85 -22 -191q-117 -550 -631 -550h-32l-39 -95q-16 -34 -42 -57q-34 -28 -79 -28h-77l85 203q-236 60 -236 336q0 85 22 191q117 550 632 550h32l37 87q16 34 42 57q34 28 79 28h77zM453 199l278 662q-154 0 -241 -96q-76 -81 -111 -247
q-16 -77 -16 -137q0 -67 21 -111q28 -57 69 -71zM884 836l-279 -662q154 0 241 96q75 82 110 248q17 79 17 138q0 66 -21 109q-28 57 -68 71z" />
    <glyph glyph-name="ugrave" unicode="&#xf9;" horiz-adv-x="1138" 
d="M469 -32q-327 0 -327 255q0 51 13 112l153 721h113q48 0 74 -32q19 -25 19 -54q0 -11 -2 -22l-126 -590q-7 -31 -7 -57q0 -127 161 -127q234 0 334 178l127 596q9 43 49 76q38 32 86 32h113l-228 -1076h-113q-48 0 -74 32q-19 23 -19 53q0 11 3 23q-116 -120 -349 -120z
M520 1291q57 155 147 155q30 0 63 -17l245 -265l-91 -85z" />
    <glyph glyph-name="uacute" unicode="&#xfa;" horiz-adv-x="1138" 
d="M469 -32q-327 0 -327 255q0 51 13 112l153 721h113q48 0 74 -32q19 -25 19 -54q0 -11 -2 -22l-126 -590q-7 -31 -7 -57q0 -127 161 -127q234 0 334 178l127 596q9 43 49 76q38 32 86 32h113l-228 -1076h-113q-48 0 -74 32q-19 23 -19 53q0 11 3 23q-116 -120 -349 -120z
M684 1079l-55 85l359 265q39 17 69 17q82 0 82 -128q0 -13 -1 -27z" />
    <glyph glyph-name="ucircumflex" unicode="&#xfb;" horiz-adv-x="1138" 
d="M469 -32q-327 0 -327 255q0 51 13 112l153 721h113q48 0 74 -32q19 -25 19 -54q0 -11 -2 -22l-126 -590q-7 -31 -7 -57q0 -127 161 -127q234 0 334 178l127 596q9 43 49 76q38 32 86 32h113l-228 -1076h-113q-48 0 -74 32q-19 23 -19 53q0 11 3 23q-116 -120 -349 -120z
M815 1225l-312 -146l-56 85q172 125 365 269h95l249 -269l-91 -85z" />
    <glyph glyph-name="udieresis" unicode="&#xfc;" horiz-adv-x="1138" 
d="M469 -32q-327 0 -327 255q0 51 13 112l153 721h113q48 0 74 -32q19 -25 19 -54q0 -11 -2 -22l-126 -590q-7 -31 -7 -57q0 -127 161 -127q234 0 334 178l127 596q9 43 49 76q38 32 86 32h113l-228 -1076h-113q-48 0 -74 32q-19 23 -19 53q0 11 3 23q-116 -120 -349 -120z
M532 1229q9 43 51 76q39 32 90 32h117l-31 -145q-9 -43 -51 -76q-39 -32 -89 -32h-118zM1069 1084h-118q-50 0 -75 32q-21 25 -21 56q0 10 2 20l31 145h117q51 0 76 -32q21 -25 21 -56q0 -10 -2 -20z" />
    <glyph glyph-name="yacute" unicode="&#xfd;" horiz-adv-x="1141" 
d="M1054 143q-117 -550 -631 -550q-250 0 -404 106l20 93q15 72 88 72q19 0 43 -6q145 -59 297 -59q164 0 252 97q74 81 109 247q-137 -175 -360 -175q-327 0 -327 255q0 51 13 112l153 721h113q48 0 74 -32q19 -25 19 -54q0 -11 -2 -22l-126 -590q-7 -31 -7 -57
q0 -127 161 -127q227 0 337 195l124 579q9 43 49 76q38 32 86 32h113zM683 1079l-55 85l359 265q39 17 69 17q82 0 82 -128q0 -13 -1 -27z" />
    <glyph glyph-name="thorn" unicode="&#xfe;" horiz-adv-x="1219" 
d="M361 225q130 -51 278 -51q159 0 246 90q79 82 115 254q18 82 18 143q0 68 -22 110q-45 90 -204 90q-233 0 -334 -177zM517 962q74 106 346 106q386 0 386 -355q0 -87 -23 -195q-117 -550 -631 -550q-175 0 -280 43l-63 -300q-10 -43 -50 -76q-38 -32 -86 -32h-113
l389 1830h113q48 0 73 -32q19 -25 19 -54q0 -11 -2 -22z" />
    <glyph glyph-name="ydieresis" unicode="&#xff;" horiz-adv-x="1141" 
d="M1054 143q-117 -550 -631 -550q-250 0 -404 106l20 93q15 72 88 72q19 0 43 -6q145 -59 297 -59q164 0 252 97q74 81 109 247q-137 -175 -360 -175q-327 0 -327 255q0 51 13 112l153 721h113q48 0 74 -32q19 -25 19 -54q0 -11 -2 -22l-126 -590q-7 -31 -7 -57
q0 -127 161 -127q227 0 337 195l124 579q9 43 49 76q38 32 86 32h113zM531 1229q9 43 51 76q39 32 90 32h117l-31 -145q-9 -43 -51 -76q-39 -32 -89 -32h-118zM1068 1084h-118q-50 0 -75 32q-21 25 -21 56q0 10 2 20l31 145h117q51 0 76 -32q21 -25 21 -56q0 -10 -2 -20z
" />
    <glyph glyph-name="dotlessi" unicode="&#x131;" horiz-adv-x="401" 
d="M277 948q9 44 47 75q40 33 88 33h113l-205 -968q-10 -44 -48 -75q-40 -33 -88 -33h-113z" />
    <glyph glyph-name="circumflex" unicode="&#x2c6;" horiz-adv-x="877" 
d="M683 1225l-312 -146l-56 85q172 125 365 269h95l249 -269l-91 -85z" />
    <glyph glyph-name="caron" unicode="&#x2c7;" horiz-adv-x="877" 
d="M1010 1440l55 -85l-364 -269h-95q-132 144 -250 269l92 85l250 -146z" />
    <glyph glyph-name="uni02C9" unicode="&#x2c9;" horiz-adv-x="827" 
d="M402 1110q-41 0 -61 36q-9 21 -9 45q0 14 3 30l14 69h561q42 0 63 -36q9 -19 9 -43q0 -15 -4 -31l-15 -70h-561z" />
    <glyph glyph-name="breve" unicode="&#x2d8;" horiz-adv-x="873" 
d="M1003 1450l59 -90q-173 -274 -412 -274q-240 0 -288 274l97 90q106 -204 229 -204t315 204z" />
    <glyph glyph-name="dotaccent" unicode="&#x2d9;" horiz-adv-x="410" 
d="M336 1229q9 43 51 76q39 32 90 32h117l-31 -145q-9 -43 -51 -76q-39 -32 -89 -32h-118z" />
    <glyph glyph-name="ring" unicode="&#x2da;" horiz-adv-x="585" 
d="M719 1374q33 -43 33 -97q0 -21 -5 -44q-17 -81 -88.5 -140.5t-158.5 -59.5t-133 60q-35 43 -35 98q0 20 5 42q18 82 89.5 141t158.5 59t134 -59zM556 1297q-23 0 -44.5 -18t-27.5 -46q-2 -8 -2 -15q0 -17 10 -30q14 -18 37 -18t44.5 18t27.5 45q2 8 2 16q0 17 -10 30
q-14 18 -37 18z" />
    <glyph glyph-name="ogonek" unicode="&#x2db;" horiz-adv-x="602" 
d="M438 20q-233 -171 -249 -245q-2 -7 -2 -13q0 -14 8 -24q10 -6 32 -6q50 0 146 42q19 5 31 5q43 0 43 -34q0 -6 -2 -14l-12 -57q-155 -85 -256 -85q-48 0 -88 19q-71 48 -71 112q0 13 3 27q24 112 259 273h158z" />
    <glyph glyph-name="tilde" unicode="&#x2dc;" horiz-adv-x="844" 
d="M1008 1240q-131 -125 -243 -125q-66 0 -125 42q-65 46 -128 46q-59 0 -156 -69l-17 116q122 115 229 115q67 0 129 -43t123 -43q66 0 169 78z" />
    <glyph glyph-name="hungarumlaut" unicode="&#x2dd;" horiz-adv-x="1046" 
d="M370 1079l-55 85l359 265q39 17 69 17q82 0 82 -128q0 -13 -1 -27zM793 1079l-55 85l359 265q39 17 69 17q82 0 82 -128q0 -13 -1 -27z" />
    <glyph glyph-name="endash" unicode="&#x2013;" horiz-adv-x="1324" 
d="M255 421q-41 0 -61 36q-9 21 -9 45q0 14 3 30l15 69h1058q42 0 62 -36q9 -19 9 -43q0 -15 -4 -31l-15 -70h-1058z" />
    <glyph glyph-name="emdash" unicode="&#x2014;" horiz-adv-x="1975" 
d="M255 421q-41 0 -61 36q-9 21 -9 45q0 14 3 30l15 69h1709q42 0 62 -36q9 -19 9 -43q0 -15 -4 -31l-15 -70h-1709z" />
    <glyph glyph-name="quoteleft" unicode="&#x2018;" horiz-adv-x="524" 
d="M732 1451q-153 -185 -219 -496q-9 -44 -49 -75q-41 -33 -91 -33h-118l11 51q56 264 292 508q42 45 80 45h94z" />
    <glyph glyph-name="quoteright" unicode="&#x2019;" horiz-adv-x="509" 
d="M240 847q153 185 219 496q10 44 49 75q41 33 91 33h118l-10 -51q-57 -264 -292 -508q-43 -45 -81 -45h-94z" />
    <glyph glyph-name="quotesinglbase" unicode="&#x201a;" horiz-adv-x="509" 
d="M-19 -372q153 185 219 496q10 44 49 75q41 33 91 33h118l-11 -51q-56 -264 -292 -508q-42 -45 -80 -45h-94z" />
    <glyph glyph-name="quotedblleft" unicode="&#x201c;" horiz-adv-x="882" 
d="M732 1451q-153 -185 -219 -496q-9 -44 -49 -75q-41 -33 -91 -33h-118l11 51q56 264 292 508q42 45 80 45h94zM1130 1451q-153 -185 -219 -496q-9 -44 -49 -75q-41 -33 -91 -33h-118l11 51q56 264 292 508q42 45 80 45h94z" />
    <glyph glyph-name="quotedblright" unicode="&#x201d;" horiz-adv-x="882" 
d="M240 847q153 185 219 496q10 44 49 75q41 33 91 33h118l-10 -51q-57 -264 -292 -508q-43 -45 -81 -45h-94zM638 847q153 185 219 496q10 44 49 75q41 33 91 33h118l-10 -51q-57 -264 -292 -508q-43 -45 -81 -45h-94z" />
    <glyph glyph-name="quotedblbase" unicode="&#x201e;" horiz-adv-x="882" 
d="M240 -302q153 185 219 496q10 44 49 75q41 33 91 33h118l-10 -51q-57 -264 -292 -508q-43 -45 -81 -45h-94zM638 -302q153 185 219 496q10 44 49 75q41 33 91 33h118l-10 -51q-57 -264 -292 -508q-43 -45 -81 -45h-94z" />
    <glyph glyph-name="dagger" unicode="&#x2020;" horiz-adv-x="1178" 
d="M697 1118l44 207q9 43 49 76q39 32 87 32h122l-67 -315h271q48 0 73 -32q19 -25 19 -54q0 -11 -2 -22l-25 -117h-384l-171 -805q-9 -43 -49 -76q-39 -32 -87 -32h-122l194 913h-271q-48 0 -73 32q-19 25 -19 54q0 11 2 22l25 117h384z" />
    <glyph glyph-name="daggerdbl" unicode="&#x2021;" horiz-adv-x="1179" 
d="M531 335h-272q-48 0 -73 32q-19 25 -19 54q0 11 2 22l25 117h385l71 333h-271q-48 0 -73 32q-19 25 -19 54q0 11 2 22l25 117h384l44 207q9 43 49 76q39 32 87 32h122l-67 -315h271q48 0 73 -32q19 -25 19 -54q0 -11 -2 -22l-25 -117h-384l-71 -333h270q48 0 73 -32
q19 -25 19 -54q0 -11 -2 -22l-25 -117h-383l-52 -247q-9 -43 -49 -76q-39 -32 -87 -32h-122z" />
    <glyph glyph-name="bullet" unicode="&#x2022;" horiz-adv-x="991" 
d="M947 822q68 -87 68 -198q0 -42 -10 -87q-35 -165 -179 -284t-315 -119t-264 119q-68 86 -68 197q0 42 10 87q35 166 179 284.5t315 118.5t264 -118z" />
    <glyph glyph-name="ellipsis" unicode="&#x2026;" horiz-adv-x="1751" 
d="M101 124q10 44 49 75q41 33 91 33h118l-30 -144q-10 -44 -49 -76q-42 -32 -92 -32h-117zM784 124q10 44 49 75q41 33 91 33h118l-30 -144q-10 -44 -49 -76q-42 -32 -92 -32h-117zM1467 124q10 44 49 75q41 33 91 33h118l-30 -144q-10 -44 -49 -76q-42 -32 -92 -32h-117z
" />
    <glyph glyph-name="guilsinglleft" unicode="&#x2039;" horiz-adv-x="551" 
d="M494 343q5 -15 5 -44q0 -71 -33 -227l-288 411l20 94l463 411q-47 -219 -88 -271l-167 -187z" />
    <glyph glyph-name="guilsinglright" unicode="&#x203a;" horiz-adv-x="551" 
d="M346 530l-89 187q-5 15 -5 44q0 71 33 227l289 -411l-20 -94l-464 -411q47 219 88 271z" />
    <glyph glyph-name="fraction" unicode="&#x2044;" horiz-adv-x="532" 
d="M215 65q-16 -34 -42 -57q-34 -28 -79 -28h-77l571 1367q17 34 42 57q34 28 79 28h77z" />
    <glyph glyph-name="fraction" unicode="&#x2215;" horiz-adv-x="532" 
d="M215 65q-16 -34 -42 -57q-34 -28 -79 -28h-77l571 1367q17 34 42 57q34 28 79 28h77z" />
    <glyph glyph-name="franc" unicode="&#x20a3;" horiz-adv-x="1385" 
d="M286 443l97 454q55 259 252 409q192 146 459 146q230 0 479 -97l-16 -73q-9 -45 -49 -78q-42 -34 -97 -34q-201 67 -363 67q-160 0 -275 -87q-121 -92 -155 -253l-15 -68h652q49 0 74 -31q19 -24 19 -53q0 -12 -3 -24l-21 -99h-765l-38 -179h350q37 0 53 -38q6 -17 6 -37
q0 -17 -4 -35l-15 -70h-428l-36 -171q-10 -45 -51 -79q-40 -33 -91 -33h-117l60 283h-89q-37 0 -53 38q-6 18 -6 38q0 17 4 35l15 69h167z" />
    <glyph glyph-name="lira" unicode="&#x20a4;" horiz-adv-x="1312" 
d="M585 352q-37 -104 -90 -164h617q48 0 73 -32q19 -25 19 -54q0 -11 -2 -22l-21 -100h-1137l24 114q19 89 121 89q117 59 159 169h-127q-41 0 -62 36q-9 21 -9 45q0 14 3 30l15 69h218q2 -15 3 -15v1q5 21 8 42l5 63h-124q-41 0 -61 36q-9 21 -9 45q0 14 3 30l15 69h186
q3 83 22 170q50 237 209 334q180 145 428 145q180 0 429 -97l-16 -73q-9 -45 -49 -78q-42 -34 -97 -34q-201 67 -313 67q-139 0 -245 -87q-82 -57 -112 -201q-16 -72 -17 -146h493q42 0 62 -36q9 -19 9 -43q0 -15 -4 -31l-15 -70h-554l-6 -61q-4 -26 -5 -30h455q42 0 62 -36
q9 -20 9 -44q0 -14 -3 -30l-15 -70h-554z" />
    <glyph glyph-name="peseta" unicode="&#x20a7;" horiz-adv-x="2389" 
d="M455 773h210q320 0 375 256q5 25 5 48q0 70 -52 112q-61 48 -173 48h-5q-108 0 -189 -48q-94 -55 -116 -160zM1191 848q-142 -283 -570 -283h-210l-124 -585h-216l223 1049q42 201 218 318q158 105 351 105h4q194 -1 306 -106q96 -90 96 -215q0 -36 -8 -75h28l35 163
q9 44 48 75q40 33 88 33h113l-58 -271h304q48 0 74 -32q0 -1 1 -1v1q0 2 -4 10q73 34 195 34q224 0 378 -107l-20 -93q-15 -72 -87 -72q-19 0 -43 7q-147 58 -272 58q-75 0 -124 -38q-46 -34 -57 -85q-2 -8 -2 -16q0 -46 63 -67l189 -38q140 -26 197 -84q56 -56 56 -147
q0 -37 -9 -80l-2 -9q-30 -133 -149 -226q-130 -102 -408 -133q-53 -6 -107 -6q-220 0 -434 103q-118 75 -118 241q0 59 15 129l94 443h-54zM1671 848h-200l-94 -443q-9 -41 -9 -74q0 -98 74 -134q142 -71 287 -71q78 0 157 22q218 57 237 149q3 12 3 23q0 51 -58 75
q-23 9 -189 40q-138 27 -194 77q-63 56 -63 151q0 35 9 75q16 74 40 110z" />
    <glyph glyph-name="Euro" unicode="&#x20ac;" horiz-adv-x="1157" 
d="M471 458q-4 -30 -4 -58q0 -74 28 -132q61 -85 195 -85q137 0 333 67q51 0 73 -36q16 -22 16 -50q0 -13 -3 -26l-15 -72q-253 -98 -450 -98q-230 0 -337 147q-83 103 -83 248q0 46 8 95h-59q-39 0 -58 37q-9 19 -9 43q0 15 4 31l15 69h144l25 120h-57q-39 0 -58 37
q-9 19 -9 43q0 15 4 31l14 69h145q53 224 227 367q170 147 400 147q197 0 408 -98l-16 -72q-9 -44 -45 -76q-37 -36 -88 -36q-168 67 -305 67q-134 0 -231 -85q-80 -86 -113 -214h557q40 0 60 -37q8 -18 8 -41q0 -15 -4 -32l-15 -70h-645l-25 -120h558q40 0 59 -37
q8 -18 8 -41q0 -15 -4 -32l-15 -70h-641z" />
    <glyph glyph-name="uni2116" unicode="&#x2116;" horiz-adv-x="2302" 
d="M357 1328q10 45 51 79q40 33 90 33h206l378 -1171l249 1171h235l-286 -1348q-10 -45 -51 -79q-40 -33 -90 -33h-206l-378 1171l-225 -1059q-10 -45 -51 -79q-40 -33 -91 -33h-117zM1990.58 986.96q-108.235 0 -165.653 -57.5977q-50.1582 -48.5986 -73.2568 -148.194
q-10.5596 -46.1982 -10.5596 -82.1963q0 -40.1982 13.8594 -66.5977q31.0186 -57.5977 139.255 -57.5977q108.235 0 165.652 57.5977q49.498 49.1982 72.5977 148.794q11.2197 47.3984 11.2197 82.7969q0 39.5986 -13.8594 65.3975q-31.0195 57.5977 -139.255 57.5977z
M2019.62 1111.15q276.528 0 276.528 -218.99q0 -49.7988 -14.5195 -110.996q-77.2168 -329.986 -416.442 -329.986q-277.189 0 -277.189 218.991q0 49.7979 14.5195 110.995q77.2168 329.986 417.104 329.986zM1569 477q-20.5 0 -31 36q-4.5 21 -4.5 45q0 14 1.5 30l7.5 69
h498q21 0 31 -36q4.5 -19 4.5 -43q0 -15 -2 -31l-7 -70h-498z" />
    <glyph glyph-name="trademark" unicode="&#x2122;" horiz-adv-x="1595" 
d="M229.956 829.251q-21.6006 0 -33.3008 13.2002q-8.10059 9.20117 -8.10059 21.2012q0 4.00098 0.900391 8.80078l9.90039 40.0029h424.812q21.6006 0 32.8506 -12.8008q8.55078 -10.001 8.55078 -21.6016q0 -4.40039 -0.900391 -8.80078l-9.90039 -40.002h-184.955
l-108.453 -454.828q-4.0498 -17.2012 -22.0498 -30.4014q-17.5508 -12.8008 -39.1514 -12.8008h-54.9014l118.803 498.03h-134.104zM313.209 331.221l128.703 539.232q4.5 18.001 22.9502 31.6016q18.001 13.2012 40.501 13.2012h42.752q50.4014 -0.400391 59.4014 -43.6025
l85.9521 -436.827l295.208 436.827q29.7012 43.2021 80.1025 43.6025h42.751q22.501 0 34.2012 -13.2012q9 -10 9 -22.4014q0 -4.39941 -1.35059 -9.2002l-128.703 -539.232h-52.6514q-22.9502 0 -34.6514 13.2002q-9 10.001 -9 22.4014q0 4.40039 1.35059 9.20117
l94.0518 394.424l-269.557 -399.225q-27.001 -40.002 -70.6523 -40.002h-29.251q-43.6504 0 -51.751 40.002l-78.752 399.225l-94.0527 -394.424q-4.5 -18.002 -22.9512 -31.6025q-18 -13.2002 -40.9502 -13.2002h-52.6514z" />
    <glyph glyph-name="minus" unicode="&#x2212;" horiz-adv-x="1184" 
d="M294 604q-41 0 -61 36q-9 21 -9 45q0 14 3 30l15 69h918q42 0 62 -36q9 -19 9 -43q0 -15 -4 -31l-15 -70h-918z" />
    <glyph glyph-name="approxequal" unicode="&#x2248;" horiz-adv-x="1009" 
d="M481 586q-44 0 -100 -25q-26 -12 -58 -35q-4 -3 -6 -5q-28 -23 -63 -23q-24 0 -50 18l24 112q89 82 159.5 110.5t131.5 28.5q69 0 168.5 -44t147.5 -44q44 0 100 25q26 12 58 35q4 3 6 5q28 23 63 23q24 0 50 -18l-23 -112q-90 -82 -160.5 -110.5t-131.5 -28.5
q-63 0 -165.5 44t-150.5 44zM481 357q-44 0 -100 -25q-26 -12 -58 -35q-4 -3 -6 -5q-28 -23 -63 -23q-24 0 -50 18l24 112q89 82 159.5 110.5t131.5 28.5q69 0 168.5 -44t147.5 -44q44 0 100 25q26 12 58 35q4 3 6 5q28 23 63 23q24 0 50 -18l-23 -112
q-90 -82 -160.5 -110.5t-131.5 -28.5q-63 0 -165.5 44t-150.5 44z" />
    <glyph glyph-name="lessequal" unicode="&#x2264;" horiz-adv-x="1170" 
d="M238 788l1111 505v-17q0 -58 -6 -90q-25 -118 -144 -155l-653 -295l527 -296q83 -30 83 -112q0 -20 -5 -43q-7 -36 -39 -107l-896 505zM295 -20q-41 0 -61 36q-9 21 -9 45q0 14 3 30l15 69h918q42 0 62 -36q9 -19 9 -43q0 -15 -4 -31l-15 -70h-918z" />
    <glyph glyph-name="greaterequal" unicode="&#x2265;" horiz-adv-x="1170" 
d="M1236 683l-1110 -505v30q0 49 5 77q25 118 144 155l653 295l-527 296q-83 30 -83 112q0 20 5 43q7 36 40 107l895 -505zM295 -20q-41 0 -61 36q-9 21 -9 45q0 14 3 30l15 69h918q42 0 62 -36q9 -19 9 -43q0 -15 -4 -31l-15 -70h-918z" />
    <glyph glyph-name="uniF001" unicode="&#xf001;" horiz-adv-x="1172" 
d="M1167 1056q49 0 74 -34q19 -22 19 -52q0 -11 -2 -22l-206 -968h-113q-48 0 -74 33q-19 22 -19 52q0 11 3 23l161 760h-475l-161 -760q-10 -44 -48 -75q-40 -33 -88 -33h-113l184 868h-29q-49 0 -74 34q-18 22 -18 52q0 10 2 22l21 100h142q46 216 184 307q119 80 339 80
q100 0 217 -28l-21 -100q-19 -88 -131 -88q-58 10 -109 10q-117 0 -168 -32q-61 -38 -85 -149h588zM1112 1325q9 43 49 76q39 32 87 32h113l-31 -145q-9 -43 -49 -76q-39 -32 -87 -32h-113z" />
    <glyph glyph-name="uniF001" unicode="&#xfb01;" horiz-adv-x="1172" 
d="M1167 1056q49 0 74 -34q19 -22 19 -52q0 -11 -2 -22l-206 -968h-113q-48 0 -74 33q-19 22 -19 52q0 11 3 23l161 760h-475l-161 -760q-10 -44 -48 -75q-40 -33 -88 -33h-113l184 868h-29q-49 0 -74 34q-18 22 -18 52q0 10 2 22l21 100h142q46 216 184 307q119 80 339 80
q100 0 217 -28l-21 -100q-19 -88 -131 -88q-58 10 -109 10q-117 0 -168 -32q-61 -38 -85 -149h588zM1112 1325q9 43 49 76q39 32 87 32h113l-31 -145q-9 -43 -49 -76q-39 -32 -87 -32h-113z" />
    <glyph glyph-name="uniF002" unicode="&#xf002;" horiz-adv-x="1239" 
d="M1031 1229q-149 8 -199 8q-117 0 -168 -32q-61 -38 -85 -149h232q49 0 74 -34q19 -22 19 -52q0 -11 -2 -22l-22 -100h-345l-161 -760q-10 -44 -48 -75q-40 -33 -88 -33h-113l184 868h-29q-49 0 -74 34q-18 22 -18 52q0 10 2 22l21 100h142q46 216 184 307q119 80 339 80
q96 0 327 -23q37 -7 58 -41q16 -22 16 -49q0 -12 -3 -24l-204 -959q-17 -79 -17 -118q0 -35 13 -39q20 -7 49 -7q21 0 49 4q96 0 96 -65q0 -11 -3 -24l-21 -100q-104 -23 -185 -23q-25 0 -50 2q-112 8 -156 87q-23 39 -23 110t22 173z" />
    <glyph glyph-name="uniF002" unicode="&#xfb02;" horiz-adv-x="1239" 
d="M1031 1229q-149 8 -199 8q-117 0 -168 -32q-61 -38 -85 -149h232q49 0 74 -34q19 -22 19 -52q0 -11 -2 -22l-22 -100h-345l-161 -760q-10 -44 -48 -75q-40 -33 -88 -33h-113l184 868h-29q-49 0 -74 34q-18 22 -18 52q0 10 2 22l21 100h142q46 216 184 307q119 80 339 80
q96 0 327 -23q37 -7 58 -41q16 -22 16 -49q0 -12 -3 -24l-204 -959q-17 -79 -17 -118q0 -35 13 -39q20 -7 49 -7q21 0 49 4q96 0 96 -65q0 -11 -3 -24l-21 -100q-104 -23 -185 -23q-25 0 -50 2q-112 8 -156 87q-23 39 -23 110t22 173z" />
    <glyph glyph-name="perthousand" unicode="&#x2030;" horiz-adv-x="2414" 
d="M836 927q-72 -253.5 -390 -253.5q-260 0 -260 168.75q0 38.25 13 84.75l48 168.75q72 253.5 391 253.5q259 0 259 -168.75q0 -38.25 -13 -84.75zM729 1095.75q9 33.75 9 59.25q0 30 -12 48.75q-25 40.5 -118 40.5t-142 -40.5q-43 -35.25 -63 -108l-48 -168.75
q-10 -35.25 -10 -61.5q0 -28.5 12 -46.5q27 -41.25 119 -41.25t141 41.25q43 34.5 64 108zM693 65q-16 -34 -42 -57q-34 -28 -79 -28h-77l571 1367q17 34 42 57q34 28 79 28h77zM1626 329.25q-72 -253.5 -390 -253.5q-260 0 -260 168.75q0 38.25 13 84.75l48 168.75
q72 253.5 391 253.5q259 0 259 -168.75q0 -38.25 -13 -84.75zM1519 498q9 33.75 9 59.25q0 30 -12 48.75q-25 40.5 -118 40.5t-142 -40.5q-43 -35.25 -63 -108l-48 -168.75q-10 -35.25 -10 -61.5q0 -28.5 12 -46.5q27 -41.25 119 -41.25t141 41.25q43 34.5 64 108z
M2438 329.25q-72 -253.5 -390 -253.5q-260 0 -260 168.75q0 38.25 13 84.75l48 168.75q72 253.5 391 253.5q259 0 259 -168.75q0 -38.25 -13 -84.75zM2331 498q9 33.75 9 59.25q0 30 -12 48.75q-25 40.5 -118 40.5t-142 -40.5q-43 -35.25 -63 -108l-48 -168.75
q-10 -35.25 -10 -61.5q0 -28.5 12 -46.5q27 -41.25 119 -41.25t141 41.25q43 34.5 64 108z" />
    <glyph glyph-name="uni2031" unicode="&#x2031;" horiz-adv-x="3226" 
d="M836 927q-72 -253.5 -390 -253.5q-260 0 -260 168.75q0 38.25 13 84.75l48 168.75q72 253.5 391 253.5q259 0 259 -168.75q0 -38.25 -13 -84.75zM729 1095.75q9 33.75 9 59.25q0 30 -12 48.75q-25 40.5 -118 40.5t-142 -40.5q-43 -35.25 -63 -108l-48 -168.75
q-10 -35.25 -10 -61.5q0 -28.5 12 -46.5q27 -41.25 119 -41.25t141 41.25q43 34.5 64 108zM693 65q-16 -34 -42 -57q-34 -28 -79 -28h-77l571 1367q17 34 42 57q34 28 79 28h77zM1626 329.25q-72 -253.5 -390 -253.5q-260 0 -260 168.75q0 38.25 13 84.75l48 168.75
q72 253.5 391 253.5q259 0 259 -168.75q0 -38.25 -13 -84.75zM1519 498q9 33.75 9 59.25q0 30 -12 48.75q-25 40.5 -118 40.5t-142 -40.5q-43 -35.25 -63 -108l-48 -168.75q-10 -35.25 -10 -61.5q0 -28.5 12 -46.5q27 -41.25 119 -41.25t141 41.25q43 34.5 64 108z
M2438 329.25q-72 -253.5 -390 -253.5q-260 0 -260 168.75q0 38.25 13 84.75l48 168.75q72 253.5 391 253.5q259 0 259 -168.75q0 -38.25 -13 -84.75zM2331 498q9 33.75 9 59.25q0 30 -12 48.75q-25 40.5 -118 40.5t-142 -40.5q-43 -35.25 -63 -108l-48 -168.75
q-10 -35.25 -10 -61.5q0 -28.5 12 -46.5q27 -41.25 119 -41.25t141 41.25q43 34.5 64 108zM3250 329.25q-72 -253.5 -390 -253.5q-260 0 -260 168.75q0 38.25 13 84.75l48 168.75q72 253.5 391 253.5q259 0 259 -168.75q0 -38.25 -13 -84.75zM3143 498q9 33.75 9 59.25
q0 30 -12 48.75q-25 40.5 -118 40.5t-142 -40.5q-43 -35.25 -63 -108l-48 -168.75q-10 -35.25 -10 -61.5q0 -28.5 12 -46.5q27 -41.25 119 -41.25t141 41.25q43 34.5 64 108z" />
    <glyph glyph-name="uni2070" unicode="&#x2070;" horiz-adv-x="812" 
d="M895 861q-72 -338 -390 -338q-260 0 -260 225q0 51 13 113l48 225q72 338 391 338q259 0 259 -225q0 -51 -13 -113zM788 1086q9 45 9 79q0 40 -12 65q-25 54 -118 54t-142 -54q-43 -47 -63 -144l-48 -225q-10 -47 -10 -82q0 -38 12 -62q27 -55 119 -55t141 55
q43 46 64 144z" />
    <glyph glyph-name="uni2074" unicode="&#x2074;" horiz-adv-x="848" 
d="M827 877h28q34 0 52 -25q13 -14 13 -34q0 -8 -2 -16l-14 -68h-107l-43 -204h-83q-34 0 -52 23q-12 16 -12 35q0 7 2 15l28 131h-326q-35 0 -52 22q-13 17 -13 38q0 8 1 15l14 66l406 476q57 66 128 66h69q33 0 53 -22q12 -15 12 -35q0 -8 -2 -16zM446 877h221l74 346z
" />
    <glyph glyph-name="uni2075" unicode="&#x2075;" horiz-adv-x="803" 
d="M468 1098q78 32 166 32q164 0 222 -72q36 -44 36 -124q0 -47 -13 -107q-64 -302 -400 -304q-123 0 -280 61l11 49q6 30 34 53q26 22 65 22q134 -44 200 -44q175 1 210 163q9 43 9 73q0 38 -14 56q-22 29 -111 29t-166 -35l-6 -26q-6 -29 -30 -49q-28 -24 -63 -24h-82
l105 493q6 30 33 52q25 21 60 21h550l-14 -67q-6 -29 -32 -51q-30 -24 -63 -24h-389z" />
    <glyph glyph-name="uni2076" unicode="&#x2076;" horiz-adv-x="804" 
d="M880 827q-65 -304 -376 -304h-4q-162 0 -222 74q-39 48 -39 130q0 45 12 100l63 299q34 156 135 228q94 70 258 70q110 0 267 -61l-11 -49q-6 -29 -32 -52q-29 -24 -69 -24q-120 41 -186 41q-92 0 -135 -31q-47 -35 -67 -127l-5 -26q88 35 166 35q164 0 221 -72
q37 -45 37 -125q0 -47 -13 -106zM412 827q-9 -40 -9 -69q0 -37 15 -57q25 -37 112 -37q88 0 129 37q40 35 60 126q9 44 9 74q0 37 -13 55q-23 29 -111 29q-77 0 -167 -38z" />
    <glyph glyph-name="uni2077" unicode="&#x2077;" horiz-adv-x="806" 
d="M928 1417q35 0 54 -24q11 -16 11 -35q0 -7 -2 -15l-13 -65l-496 -748h-178l494 745h-372q-35 0 -52 22q-13 17 -13 38q0 8 1 15l14 67h552z" />
    <glyph glyph-name="uni2078" unicode="&#x2078;" horiz-adv-x="882" 
d="M888 993q72 -26 72 -123q0 -36 -10 -81q-57 -266 -411 -266q-304 0 -304 197q0 32 8 69q36 169 148 204q-40 22 -40 94q0 39 11 92q26 123 140 191q101 59 230 59q131 0 204 -59q67 -52 67 -137q0 -26 -6 -54q-33 -153 -109 -186zM738 700q38 27 51 89q4 21 4 38
q0 34 -17 51q-36 37 -154 37q-117 0 -167 -37q-38 -26 -51 -89q-4 -21 -4 -38q0 -33 17 -51q35 -36 152 -36q118 0 169 36zM792 1095q31 25 44 84q2 12 2 22q0 39 -32 60q-36 25 -103 26q-68 0 -116 -25q-53 -28 -64 -83q-5 -22 -5 -39q0 -29 14 -45q26 -35 120 -39
q97 4 140 39z" />
    <glyph glyph-name="uni2079" unicode="&#x2079;" horiz-adv-x="804" 
d="M313 1119q65 305 377 305h2q162 -1 223 -75q39 -48 39 -130q0 -45 -12 -100l-64 -299q-34 -156 -133 -228q-96 -69 -259 -69q-110 0 -267 61l10 48q7 31 35 54q26 22 67 22q120 -40 186 -40q92 0 135 31q47 34 66 126l6 26q-89 -35 -167 -35q-163 0 -220 71
q-37 45 -37 126q0 47 13 106zM781 1119q8 40 8 69q0 38 -14 58q-26 36 -113 37q-88 -1 -128 -37q-41 -35 -60 -127q-10 -44 -10 -74q0 -37 14 -55q22 -29 110 -29q77 0 167 38z" />
    <glyph glyph-name="uni207A" unicode="&#x207a;" horiz-adv-x="800" 
d="M513 904h-181q-31 0 -45 26q-6 14 -6 29q0 10 2 20l11 49h246l39 187q6 26 35 44q27 15 57 15h55l-52 -246h181q31 0 45 -25q5 -13 5 -28q0 -10 -2 -21l-11 -50h-245l-39 -185q-5 -25 -34 -44q-27 -16 -59 -16h-54z" />
    <glyph glyph-name="uni207B" unicode="&#x207b;" horiz-adv-x="800" 
d="M332 904q-31 0 -45 26q-6 14 -6 29q0 10 2 20l11 49h561q31 0 45 -25q5 -13 5 -28q0 -10 -2 -21l-11 -50h-560z" />
    <glyph glyph-name="uni207C" unicode="&#x207c;" horiz-adv-x="800" 
d="M353 1002q-31 0 -45 26q-6 14 -6 29q0 10 2 20l10 49h561q31 0 46 -26q5 -14 5 -29q0 -9 -2 -19l-11 -50h-560zM309 795q-31 0 -46 25q-5 13 -5 28q0 10 2 21l10 50h561q31 0 46 -27q5 -12 5 -27q0 -10 -2 -20l-11 -50h-560z" />
    <glyph glyph-name="uni207D" unicode="&#x207d;" horiz-adv-x="529" 
d="M303 1073q46 214 162 338q114 123 291 127l-25 -117q-103 -17 -165 -84q-72 -76 -112 -264l-66 -310q-20 -94 -20 -160t20 -104q34 -67 129 -84l-24 -116q-175 4 -238 126q-37 72 -37 175q0 74 19 163z" />
    <glyph glyph-name="uni207E" unicode="&#x207e;" horiz-adv-x="529" 
d="M591 763q-45 -214 -162 -338q-116 -122 -290 -126l24 116q102 17 165 84q71 76 111 264l66 310q20 95 20 162q0 64 -19 102q-35 67 -129 84l25 117q173 -4 237 -127q37 -72 37 -175q0 -74 -19 -163z" />
    <glyph glyph-name="uni207F" unicode="&#x207f;" horiz-adv-x="760" 
d="M773 530h-78q-33 0 -51 23q-13 16 -13 36q0 7 1 14l75 354q4 18 4 32q0 70 -87 70q-129 0 -191 -110l-74 -346q-6 -29 -32 -49q-27 -24 -61 -24h-78l140 662h78q34 0 51 -24q14 -15 14 -35q0 -7 -2 -14l11 51q20 29 190 29q204 0 204 -158q0 -32 -8 -70z" />
    <glyph glyph-name="uni2080" unicode="&#x2080;" horiz-adv-x="812" 
d="M688 -112q-72 -338 -390 -338q-260 0 -260 225q0 51 13 113l48 224q72 338 391 338q259 0 259 -225q0 -51 -13 -113zM581 112q10 47 10 82q0 38 -12 63q-26 53 -119 53t-141 -53q-43 -47 -64 -145l-48 -224q-10 -47 -10 -82q0 -38 12 -63q26 -54 119 -54t141 54
q43 47 64 145z" />
    <glyph glyph-name="uni2081" unicode="&#x2081;" horiz-adv-x="778" 
d="M393 -303h143q34 0 50 -21q14 -17 14 -38q0 -7 -2 -14l-14 -68h-525q-32 0 -52 22q-13 16 -13 36q0 7 2 15l15 68h221l120 566l-104 -105h-37q-41 0 -56 33q-6 12 -6 23q0 5 1 10q3 14 15 29l111 124q56 67 127 67h70q33 0 52 -23q13 -16 13 -36q0 -7 -2 -14z" />
    <glyph glyph-name="uni2082" unicode="&#x2082;" horiz-adv-x="778" 
d="M58 -449q-32 0 -50 20q-14 17 -14 39q0 7 1 14l5 24q21 98 112 176q55 48 181 119q123 68 168 106q77 63 93 139q3 15 3 28q0 39 -29 61q-36 27 -105 27q-58 0 -195 -40q-39 0 -59 23q-13 16 -13 37q0 8 2 16l11 49q182 60 284 60q130 0 205 -63q64 -54 64 -140
q0 -27 -7 -58q-38 -178 -280 -317q-148 -84 -165 -95q-76 -52 -88 -85l353 1q34 0 51 -24q13 -16 13 -35q0 -7 -2 -14l-14 -68h-525z" />
    <glyph glyph-name="uni2083" unicode="&#x2083;" horiz-adv-x="809" 
d="M452 453q132 0 206 -65q62 -55 62 -139q0 -27 -6 -57q-30 -141 -109 -174q74 -24 74 -122q0 -35 -9 -79q-57 -270 -411 -270q-110 0 -267 61l10 49q6 30 34 52q28 23 68 23q133 -44 185 -44q117 0 169 37q38 29 51 92q4 20 4 37q0 33 -17 50q-35 35 -154 35h-126l30 141
h125q100 5 139 34q31 22 43 78q3 14 3 26q0 40 -30 63q-36 27 -106 27q-40 0 -176 -40q-39 0 -59 23q-13 16 -13 37q0 7 2 15l10 49q183 61 267 61h1z" />
    <glyph glyph-name="uni2084" unicode="&#x2084;" horiz-adv-x="848" 
d="M620 -97h28q34 0 52 -22q13 -17 13 -37q0 -8 -2 -16l-14 -68h-107l-43 -204h-83q-34 0 -52 23q-12 16 -12 35q0 7 2 15l28 131h-326q-35 0 -54 25q-12 15 -12 35q0 7 2 15l14 66l406 476q57 67 128 67h69q33 0 52 -23q13 -16 13 -36q0 -7 -2 -14zM239 -97h221l74 346z
" />
    <glyph glyph-name="uni2085" unicode="&#x2085;" horiz-adv-x="803" 
d="M262 128q78 32 166 32q164 0 222 -72q36 -44 36 -124q0 -47 -13 -107q-65 -302 -400 -304q-123 0 -280 61l10 49q7 30 35 53q26 22 65 22q134 -44 200 -44q175 1 210 163q9 43 9 73q0 38 -14 56q-22 29 -111 29t-166 -35l-6 -26q-6 -29 -30 -49q-28 -24 -63 -24h-82
l104 493q7 30 34 52q25 21 60 21h550l-14 -67q-6 -29 -32 -51q-30 -24 -63 -24h-389z" />
    <glyph glyph-name="uni2086" unicode="&#x2086;" horiz-adv-x="804" 
d="M673 -146q-65 -304 -376 -304h-4q-162 0 -222 74q-39 48 -39 130q0 45 12 100l64 299q33 155 134 227q94 70 258 70q110 0 267 -61l-11 -49q-6 -28 -32 -51q-29 -24 -69 -24q-120 40 -186 40q-92 0 -135 -30q-47 -36 -67 -128l-5 -25q88 35 166 35q164 0 221 -72
q37 -45 37 -125q0 -47 -13 -106zM205 -146q-8 -39 -8 -68q0 -39 14 -59q25 -36 112 -37q88 1 129 37t60 127q9 44 9 74q0 37 -13 54q-23 29 -111 29q-77 0 -167 -37z" />
    <glyph glyph-name="uni2087" unicode="&#x2087;" horiz-adv-x="806" 
d="M721 444q35 0 54 -25q11 -14 11 -33q0 -8 -2 -17l-13 -64l-496 -749h-178l494 745h-372q-35 0 -52 22q-13 17 -13 38q0 8 1 15l14 68h552z" />
    <glyph glyph-name="uni2088" unicode="&#x2088;" horiz-adv-x="882" 
d="M682 18q70 -25 70 -122q0 -37 -10 -83q-56 -266 -410 -266q-305 0 -305 198q0 32 8 68q36 170 148 205q-40 21 -40 95q0 38 11 91q26 122 141 190q100 59 229 59q131 0 205 -59q66 -52 66 -136q0 -26 -6 -54q-32 -154 -107 -186zM530 -276q38 27 51 89q5 22 5 39
q0 33 -18 50q-35 37 -153 37q-117 0 -168 -37q-37 -26 -51 -89q-4 -21 -4 -38q0 -33 17 -51q36 -36 153 -36q118 0 168 36zM584 118q32 27 44 86q3 12 3 23q0 37 -32 58q-36 25 -104 26q-68 0 -115 -25q-53 -28 -65 -82q-4 -21 -4 -39q0 -30 13 -47q27 -34 121 -38
q97 4 139 38z" />
    <glyph glyph-name="uni2089" unicode="&#x2089;" horiz-adv-x="804" 
d="M106 145q65 305 377 305h2q162 -1 223 -74q39 -48 39 -130q0 -45 -12 -101l-64 -298q-34 -156 -133 -228q-96 -69 -259 -69q-110 0 -267 61l11 48q6 29 32 52q29 24 70 24q119 -40 185 -40q92 0 135 31q47 34 67 126l5 26q-88 -35 -166 -35q-163 0 -221 71
q-37 45 -37 125q0 47 13 106zM574 145q8 40 8 69q0 39 -14 59q-26 35 -113 37q-88 -2 -128 -37q-41 -36 -60 -128q-9 -42 -9 -72q0 -38 14 -56q21 -29 109 -29q77 0 167 37z" />
    <glyph glyph-name="uni208A" unicode="&#x208a;" horiz-adv-x="800" 
d="M308 -62h-181q-31 0 -46 25q-5 13 -5 28q0 10 2 21l10 50h246l40 186q5 26 33 44q27 16 58 16h55l-52 -246h181q31 0 45 -27q5 -12 5 -27q0 -9 -2 -20l-10 -50h-245l-40 -186q-5 -24 -35 -44q-24 -16 -57 -16h-54z" />
    <glyph glyph-name="uni208B" unicode="&#x208b;" horiz-adv-x="800" 
d="M127 -62q-31 0 -46 26q-5 13 -5 28q0 10 2 21l10 49h561q31 0 45 -27q5 -12 5 -27q0 -9 -2 -20l-10 -50h-560z" />
    <glyph glyph-name="uni208C" unicode="&#x208c;" horiz-adv-x="800" 
d="M149 42q-31 0 -46 25q-5 13 -5 28q0 10 2 21l10 50h561q31 0 46 -27q5 -13 5 -26q0 -11 -3 -22l-10 -49h-560zM105 -166q-31 0 -46 26q-5 13 -5 28q0 10 2 21l10 49h561q31 0 46 -26q5 -13 5 -26q0 -11 -3 -22l-10 -50h-560z" />
    <glyph glyph-name="uni208D" unicode="&#x208d;" horiz-adv-x="529" 
d="M147 340q46 214 162 338q115 122 291 126l-25 -116q-102 -17 -165 -84q-72 -76 -112 -264l-66 -310q-20 -94 -20 -161q0 -66 20 -104q34 -67 129 -84l-24 -116q-175 4 -238 126q-37 73 -37 176q0 74 19 163z" />
    <glyph glyph-name="uni208E" unicode="&#x208e;" horiz-adv-x="529" 
d="M435 30q-45 -214 -162 -339q-116 -122 -290 -126l24 116q102 17 165 84q71 76 111 265l66 310q20 95 20 162q0 64 -19 102q-34 67 -129 84l25 116q173 -4 237 -126q37 -72 37 -175q0 -74 -19 -163z" />
    <glyph glyph-name="uni0237" unicode="&#x237;" horiz-adv-x="460" 
d="M315 -22q-41 -194 -155 -288q-101 -83 -283 -97q-47 0 -72 32q-17 22 -17 51q0 9 2 20l22 100q142 0 192 32q62 38 85 150l207 970q9 44 47 75q40 33 88 33h113z" />
    <glyph glyph-name="uni02BB" unicode="&#x2bb;" horiz-adv-x="439" 
d="M676 1585q-113 -136 -159 -353q-7 -33 -37 -56q-32 -25 -70 -25h-90l8 41q40 187 207 359q32 34 63 34h78z" />
    <glyph glyph-name="uni02BC" unicode="&#x2bc;" horiz-adv-x="424" 
d="M305 1151q113 136 159 353q7 33 37 56q32 25 70 25h90l-9 -41q-40 -187 -206 -359q-32 -34 -63 -34h-78z" />
    <glyph glyph-name="uni02CA" unicode="&#x2ca;" horiz-adv-x="650" 
d="M370 1079l-55 85l359 265q39 17 69 17q82 0 82 -128q0 -13 -1 -27z" />
    <glyph glyph-name="uni02CB" unicode="&#x2cb;" horiz-adv-x="655" 
d="M347 1291q57 155 147 155q30 0 63 -17l245 -265l-91 -85z" />
    <glyph glyph-name="uni02CD" unicode="&#x2cd;" horiz-adv-x="1121" 
d="M93 -343q-41 0 -61 36q-9 21 -9 45q0 14 3 30l14 69h855q42 0 63 -36q9 -19 9 -43q0 -15 -4 -31l-15 -70h-855z" />
    <glyph glyph-name="uni02F7" unicode="&#x2f7;" horiz-adv-x="844" 
d="M690 -252q-130 -126 -242 -126q-66 0 -125 42q-65 47 -128 47q-59 0 -156 -70l-18 116q123 115 230 115q67 0 129 -42q62 -44 123 -44q66 0 169 79z" />
    <glyph glyph-name="gravecomb" unicode="&#x300;" horiz-adv-x="32" 
d="M-453 1291q57 155 147 155q30 0 63 -17l245 -265l-91 -85z" />
    <glyph glyph-name="acutecomb" unicode="&#x301;" horiz-adv-x="27" 
d="M-400 1079l-55 85l359 265q39 17 69 17q82 0 82 -128q0 -13 -1 -27z" />
    <glyph glyph-name="uni0302" unicode="&#x302;" horiz-adv-x="32" 
d="M-207 1225l-312 -146l-56 85q172 125 365 269h95l249 -269l-91 -85z" />
    <glyph glyph-name="tildecomb" unicode="&#x303;" horiz-adv-x="27" 
d="M148 1240q-131 -125 -243 -125q-66 0 -125 42q-65 46 -128 46q-59 0 -156 -69l-17 116q122 115 229 115q67 0 129 -43t123 -43q66 0 169 78z" />
    <glyph glyph-name="uni0304" unicode="&#x304;" horiz-adv-x="25" 
d="M-438 1110q-41 0 -61 36q-9 21 -9 45q0 14 3 30l14 69h561q42 0 63 -36q9 -19 9 -43q0 -15 -4 -31l-15 -70h-561z" />
    <glyph glyph-name="uni0305" unicode="&#x305;" horiz-adv-x="25" 
d="M1629 1533q-41 0 -61 36q-10 22 -10 47q0 13 3 28l15 69h996q42 0 62 -36q9 -20 9 -44q0 -14 -3 -30l-15 -70h-996z" />
    <glyph glyph-name="uni0306" unicode="&#x306;" horiz-adv-x="28" 
d="M143 1450l59 -90q-173 -274 -412 -274q-240 0 -288 274l97 90q106 -204 229 -204t315 204z" />
    <glyph glyph-name="uni0307" unicode="&#x307;" horiz-adv-x="25" 
d="M-374 1229q9 43 51 76q39 32 90 32h117l-31 -145q-9 -43 -51 -76q-39 -32 -89 -32h-118z" />
    <glyph glyph-name="uni0308" unicode="&#x308;" horiz-adv-x="25" 
d="M-534 1229q9 43 51 76q39 32 90 32h117l-31 -145q-9 -43 -51 -76q-39 -32 -89 -32h-118zM3 1084h-118q-50 0 -75 32q-21 25 -21 56q0 10 2 20l31 145h117q51 0 76 -32q21 -25 21 -56q0 -10 -2 -20z" />
    <glyph glyph-name="uni0310" unicode="&#x310;" horiz-adv-x="28" 
d="M-164 1450l59 -90q-173 -274 -412 -274q-240 0 -288 274l97 90q106 -204 229 -204t315 204zM-535 1538q9 43 51 76q39 32 90 32h117l-31 -145q-9 -43 -51 -76q-39 -32 -89 -32h-118z" />
    <glyph glyph-name="uni0315" unicode="&#x315;" horiz-adv-x="424" 
d="M222 998q113 137 159 353q7 33 40 59q30 23 68 23h90l-9 -42q-40 -186 -205 -358q-34 -35 -65 -35h-78z" />
    <glyph glyph-name="dotbelowcomb" unicode="&#x323;" horiz-adv-x="25" 
d="M-635 -237q8 38 42 65q37 30 81 30h104l-27 -126q-8 -38 -45 -67q-35 -28 -79 -28h-103z" />
    <glyph glyph-name="uni0324" unicode="&#x324;" horiz-adv-x="25" 
d="M-775 -234q9 43 51 76q39 32 90 32h117l-31 -145q-9 -43 -51 -76q-39 -32 -89 -32h-118zM-238 -379h-118q-50 0 -75 32q-21 25 -21 56q0 10 2 20l31 145h117q51 0 76 -32q21 -25 21 -56q0 -10 -2 -20z" />
    <glyph glyph-name="uni0325" unicode="&#x325;" horiz-adv-x="25" 
d="M-294 -97q33 -43 33 -97q0 -21 -5 -44q-17 -81 -88.5 -140.5t-158.5 -59.5t-133 60q-35 43 -35 98q0 20 5 42q18 82 89.5 141t158.5 59t134 -59zM-457 -174q-23 0 -44.5 -18t-27.5 -46q-1 -7 -1 -14q0 -18 10 -31q13 -18 36 -18t45 18t27 45q2 8 2 16q0 17 -10 30
q-14 18 -37 18z" />
    <glyph glyph-name="uni0326" unicode="&#x326;" horiz-adv-x="25" 
d="M-669 -438q126 123 165 306q7 31 42 52q32 20 72 20h99l-8 -38q-34 -163 -216 -311q-34 -29 -65 -29h-89z" />
    <glyph glyph-name="Amacron" unicode="&#x100;" horiz-adv-x="1243" 
d="M853 1230l-363 -721h442l-57 721h-22zM386 301l-99 -196q-58 -125 -187 -125h-122l673 1339q59 124 188 124h142q129 0 134 -125l105 -1338h-122q-129 0 -135 126l-16 195h-561zM604 1487q-41 0 -61 36q-9 21 -9 45q0 14 3 30l14 69h561q42 0 63 -36q9 -19 9 -43
q0 -15 -4 -31l-15 -70h-561z" />
    <glyph glyph-name="amacron" unicode="&#x101;" horiz-adv-x="1169" 
d="M956 518q17 79 17 138q0 66 -21 109q-47 97 -211 97t-251 -97q-76 -81 -111 -247q-18 -83 -18 -144q0 -63 19 -104q45 -96 207 -96q228 0 337 195zM516 -32q-386 0 -386 355q0 87 23 195q117 550 632 550q419 0 419 -365q0 -83 -22 -185l-114 -538h-113q-48 0 -74 33
q-19 22 -19 52q0 11 3 23q-116 -120 -349 -120zM559 1110q-41 0 -61 36q-9 21 -9 45q0 14 3 30l14 69h561q42 0 63 -36q9 -19 9 -43q0 -15 -4 -31l-15 -70h-561z" />
    <glyph glyph-name="Abreve" unicode="&#x102;" horiz-adv-x="1243" 
d="M853 1230l-363 -721h442l-57 721h-22zM386 301l-99 -196q-58 -125 -187 -125h-122l673 1339q59 124 188 124h142q129 0 134 -125l105 -1338h-122q-129 0 -135 126l-16 195h-561zM1184 1827l59 -90q-173 -274 -412 -274q-240 0 -288 274l97 90q106 -204 229 -204t315 204z
" />
    <glyph glyph-name="abreve" unicode="&#x103;" horiz-adv-x="1169" 
d="M956 518q17 79 17 138q0 66 -21 109q-47 97 -211 97t-251 -97q-76 -81 -111 -247q-18 -83 -18 -144q0 -63 19 -104q45 -96 207 -96q228 0 337 195zM516 -32q-386 0 -386 355q0 87 23 195q117 550 632 550q419 0 419 -365q0 -83 -22 -185l-114 -538h-113q-48 0 -74 33
q-19 22 -19 52q0 11 3 23q-116 -120 -349 -120zM1138 1450l59 -90q-173 -274 -412 -274q-240 0 -288 274l97 90q106 -204 229 -204t315 204z" />
    <glyph glyph-name="Aogonek" unicode="&#x104;" horiz-adv-x="1243" 
d="M853 1230l-363 -721h442l-57 721h-22zM386 301l-99 -196q-58 -125 -187 -125h-122l673 1339q59 124 188 124h142q129 0 134 -125l105 -1338h-122q-129 0 -135 126l-16 195h-561zM1254 20q-233 -171 -249 -245q-2 -7 -2 -13q0 -14 8 -24q10 -6 32 -6q50 0 146 42
q19 5 31 5q43 0 43 -34q0 -6 -2 -14l-12 -57q-155 -85 -256 -85q-48 0 -88 19q-71 48 -71 112q0 13 3 27q24 112 259 273h158z" />
    <glyph glyph-name="aogonek" unicode="&#x105;" horiz-adv-x="1169" 
d="M956 518q17 79 17 138q0 66 -21 109q-47 97 -211 97t-251 -97q-76 -81 -111 -247q-18 -83 -18 -144q0 -63 19 -104q45 -96 207 -96q228 0 337 195zM516 -32q-386 0 -386 355q0 87 23 195q117 550 632 550q419 0 419 -365q0 -83 -22 -185l-114 -538h-113q-48 0 -74 33
q-19 22 -19 52q0 11 3 23q-116 -120 -349 -120zM1108 20q-233 -171 -249 -245q-2 -7 -2 -13q0 -14 8 -24q10 -6 32 -6q50 0 146 42q19 5 31 5q43 0 43 -34q0 -6 -2 -14l-12 -57q-155 -85 -256 -85q-48 0 -88 19q-71 48 -71 112q0 13 3 27q24 112 259 273h158z" />
    <glyph glyph-name="Cacute" unicode="&#x106;" horiz-adv-x="1145" 
d="M202 897q55 259 252 409q192 146 459 146q230 0 479 -97l-16 -73q-9 -45 -50 -78q-41 -34 -96 -34q-201 67 -363 67q-160 0 -275 -87q-121 -92 -155 -253l-80 -374q-10 -47 -10 -89q0 -100 58 -164q78 -87 238 -87q162 0 391 67q55 0 82 -34q20 -24 20 -55q0 -11 -3 -23
l-15 -73q-291 -97 -521 -97q-267 0 -397 146q-94 105 -94 266q0 67 16 143zM687 1456l-55 85l359 265q39 17 69 17q82 0 82 -128q0 -13 -1 -27z" />
    <glyph glyph-name="cacute" unicode="&#x107;" horiz-adv-x="1001" 
d="M1000 74q-200 -106 -449 -106q-420 0 -420 365q0 83 22 185q117 550 632 550q249 0 403 -106l-20 -94q-15 -71 -87 -71q-20 0 -43 6q-146 59 -297 59q-164 0 -251 -97q-76 -81 -111 -247q-16 -76 -16 -135q0 -68 22 -112q46 -97 210 -97q151 0 322 59q26 6 46 6
q60 0 60 -49q0 -10 -3 -22zM643 1079l-55 85l359 265q39 17 69 17q82 0 82 -128q0 -13 -1 -27z" />
    <glyph glyph-name="Ccircumflex" unicode="&#x108;" horiz-adv-x="1145" 
d="M202 897q55 259 252 409q192 146 459 146q230 0 479 -97l-16 -73q-9 -45 -50 -78q-41 -34 -96 -34q-201 67 -363 67q-160 0 -275 -87q-121 -92 -155 -253l-80 -374q-10 -47 -10 -89q0 -100 58 -164q78 -87 238 -87q162 0 391 67q55 0 82 -34q20 -24 20 -55q0 -11 -3 -23
l-15 -73q-291 -97 -521 -97q-267 0 -397 146q-94 105 -94 266q0 67 16 143zM818 1602l-312 -146l-56 85q172 125 365 269h95l249 -269l-91 -85z" />
    <glyph glyph-name="ccircumflex" unicode="&#x109;" horiz-adv-x="1001" 
d="M1000 74q-200 -106 -449 -106q-420 0 -420 365q0 83 22 185q117 550 632 550q249 0 403 -106l-20 -94q-15 -71 -87 -71q-20 0 -43 6q-146 59 -297 59q-164 0 -251 -97q-76 -81 -111 -247q-16 -76 -16 -135q0 -68 22 -112q46 -97 210 -97q151 0 322 59q26 6 46 6
q60 0 60 -49q0 -10 -3 -22zM774 1225l-312 -146l-56 85q172 125 365 269h95l249 -269l-91 -85z" />
    <glyph glyph-name="Cdotaccent" unicode="&#x10a;" horiz-adv-x="1145" 
d="M202 897q55 259 252 409q192 146 459 146q230 0 479 -97l-16 -73q-9 -45 -50 -78q-41 -34 -96 -34q-201 67 -363 67q-160 0 -275 -87q-121 -92 -155 -253l-80 -374q-10 -47 -10 -89q0 -100 58 -164q78 -87 238 -87q162 0 391 67q55 0 82 -34q20 -24 20 -55q0 -11 -3 -23
l-15 -73q-291 -97 -521 -97q-267 0 -397 146q-94 105 -94 266q0 67 16 143zM701 1606q9 43 51 76q39 32 90 32h117l-31 -145q-9 -43 -51 -76q-39 -32 -89 -32h-118z" />
    <glyph glyph-name="cdotaccent" unicode="&#x10b;" horiz-adv-x="1001" 
d="M1000 74q-200 -106 -449 -106q-420 0 -420 365q0 83 22 185q117 550 632 550q249 0 403 -106l-20 -94q-15 -71 -87 -71q-20 0 -43 6q-146 59 -297 59q-164 0 -251 -97q-76 -81 -111 -247q-16 -76 -16 -135q0 -68 22 -112q46 -97 210 -97q151 0 322 59q26 6 46 6
q60 0 60 -49q0 -10 -3 -22zM657 1229q9 43 51 76q39 32 90 32h117l-31 -145q-9 -43 -51 -76q-39 -32 -89 -32h-118z" />
    <glyph glyph-name="Ccaron" unicode="&#x10c;" horiz-adv-x="1145" 
d="M202 897q55 259 252 409q192 146 459 146q230 0 479 -97l-16 -73q-9 -45 -50 -78q-41 -34 -96 -34q-201 67 -363 67q-160 0 -275 -87q-121 -92 -155 -253l-80 -374q-10 -47 -10 -89q0 -100 58 -164q78 -87 238 -87q162 0 391 67q55 0 82 -34q20 -24 20 -55q0 -11 -3 -23
l-15 -73q-291 -97 -521 -97q-267 0 -397 146q-94 105 -94 266q0 67 16 143zM1145 1817l55 -85l-364 -269h-95q-132 144 -250 269l92 85l250 -146z" />
    <glyph glyph-name="ccaron" unicode="&#x10d;" horiz-adv-x="1001" 
d="M1000 74q-200 -106 -449 -106q-420 0 -420 365q0 83 22 185q117 550 632 550q249 0 403 -106l-20 -94q-15 -71 -87 -71q-20 0 -43 6q-146 59 -297 59q-164 0 -251 -97q-76 -81 -111 -247q-16 -76 -16 -135q0 -68 22 -112q46 -97 210 -97q151 0 322 59q26 6 46 6
q60 0 60 -49q0 -10 -3 -22zM1101 1440l55 -85l-364 -269h-95q-132 144 -250 269l92 85l250 -146z" />
    <glyph glyph-name="Dcaron" unicode="&#x10e;" horiz-adv-x="1356" 
d="M1344 535q-56 -260 -252 -409q-192 -146 -458 -146h-593l195 917q55 259 252 409q192 146 459 146q266 0 396 -146q94 -106 94 -267q0 -66 -16 -142zM678 188q159 0 273 87q122 91 156 252l79 370q10 47 10 88q0 100 -59 165q-77 87 -236 87q-160 0 -275 -87
q-121 -92 -155 -253l-151 -709h358zM1225 1817l55 -85l-364 -269h-95q-132 144 -250 269l92 85l250 -146z" />
    <glyph glyph-name="dcaron" unicode="&#x10f;" horiz-adv-x="1579" 
d="M1018 811q-129 51 -277 51q-159 0 -247 -91q-78 -81 -115 -253q-18 -82 -18 -143q0 -68 22 -110q46 -91 204 -91q227 0 337 195zM516 -32q-386 0 -386 355q0 87 23 195q117 550 632 550q175 0 279 -43l64 300q9 43 49 76q39 32 87 32h113l-309 -1453h-113q-48 0 -74 33
q-19 22 -19 52q0 11 3 23q-106 -120 -349 -120zM1402 998q113 137 159 353q7 33 40 59q30 23 68 23h90l-9 -42q-40 -186 -205 -358q-34 -35 -65 -35h-78z" />
    <glyph glyph-name="Dcroat" unicode="&#x110;" horiz-adv-x="1401" 
d="M458 626l-93 -438h358q159 0 273 87q122 91 156 252l79 370q10 47 10 88q0 100 -59 165q-77 87 -236 87q-160 0 -275 -87q-121 -92 -155 -253l-20 -91h201q42 0 63 -36q9 -19 9 -43q0 -15 -4 -31l-15 -70h-292zM261 806l20 91q55 259 252 409q192 146 459 146
q266 0 396 -146q94 -106 94 -267q0 -66 -16 -142l-77 -362q-56 -260 -252 -409q-192 -146 -458 -146h-593l137 646h-59q-41 0 -61 36q-9 21 -9 45q0 14 3 30l14 69h150z" />
    <glyph glyph-name="dcroat" unicode="&#x111;" horiz-adv-x="1180" 
d="M1076 811q-129 51 -277 51q-159 0 -247 -91q-78 -81 -115 -253q-18 -82 -18 -143q0 -68 22 -110q46 -91 204 -91q227 0 337 195zM574 -32q-386 0 -386 355q0 87 23 195q117 550 632 550q175 0 279 -43l64 300q9 43 49 76q39 32 87 32h113l-309 -1453h-113q-48 0 -74 33
q-19 22 -19 52q0 11 3 23q-106 -120 -349 -120zM240 1083q-41 0 -62 36q-9 21 -9 45q0 14 3 30l15 69h996q42 0 62 -36q9 -19 9 -43q0 -15 -4 -31l-14 -70h-996z" />
    <glyph glyph-name="Emacron" unicode="&#x112;" horiz-adv-x="1133" 
d="M191 897q55 259 252 409q192 146 458 146q231 0 480 -97l-16 -73q-9 -45 -50 -78q-41 -34 -96 -34q-200 67 -364 67q-159 0 -274 -87q-121 -92 -155 -253l-15 -68h652q49 0 74 -31q19 -24 19 -53q0 -12 -3 -24l-21 -99h-765l-21 -99q-10 -47 -10 -89q0 -100 58 -164
q78 -87 237 -87q164 0 392 67q55 0 82 -34q20 -24 20 -55q0 -11 -3 -23l-15 -73q-291 -97 -522 -97q-266 0 -396 146q-94 105 -94 266q0 67 16 143zM548 1487q-41 0 -61 36q-9 21 -9 45q0 14 3 30l14 69h561q42 0 63 -36q9 -19 9 -43q0 -15 -4 -31l-15 -70h-561z" />
    <glyph glyph-name="emacron" unicode="&#x113;" horiz-adv-x="1065" 
d="M894 626q5 40 5 72q0 58 -17 93q-36 71 -170 71q-137 0 -211 -71q-61 -59 -92 -165h485zM552 -32q-420 0 -420 365q0 83 22 185q117 550 602 550q264 0 341 -166q32 -68 32 -170q0 -93 -26 -213q-21 -101 -134 -101h-605q-7 -35 -7 -64q0 -180 239 -180q151 0 322 59
q26 6 46 6q60 0 60 -49q0 -10 -3 -22l-20 -94q-200 -106 -449 -106zM520 1110q-41 0 -61 36q-9 21 -9 45q0 14 3 30l14 69h561q42 0 63 -36q9 -19 9 -43q0 -15 -4 -31l-15 -70h-561z" />
    <glyph glyph-name="Ebreve" unicode="&#x114;" horiz-adv-x="1133" 
d="M191 897q55 259 252 409q192 146 458 146q231 0 480 -97l-16 -73q-9 -45 -50 -78q-41 -34 -96 -34q-200 67 -364 67q-159 0 -274 -87q-121 -92 -155 -253l-15 -68h652q49 0 74 -31q19 -24 19 -53q0 -12 -3 -24l-21 -99h-765l-21 -99q-10 -47 -10 -89q0 -100 58 -164
q78 -87 237 -87q164 0 392 67q55 0 82 -34q20 -24 20 -55q0 -11 -3 -23l-15 -73q-291 -97 -522 -97q-266 0 -396 146q-94 105 -94 266q0 67 16 143zM1127 1827l59 -90q-173 -274 -412 -274q-240 0 -288 274l97 90q106 -204 229 -204t315 204z" />
    <glyph glyph-name="ebreve" unicode="&#x115;" horiz-adv-x="1065" 
d="M894 626q5 40 5 72q0 58 -17 93q-36 71 -170 71q-137 0 -211 -71q-61 -59 -92 -165h485zM552 -32q-420 0 -420 365q0 83 22 185q117 550 602 550q264 0 341 -166q32 -68 32 -170q0 -93 -26 -213q-21 -101 -134 -101h-605q-7 -35 -7 -64q0 -180 239 -180q151 0 322 59
q26 6 46 6q60 0 60 -49q0 -10 -3 -22l-20 -94q-200 -106 -449 -106zM1099 1450l59 -90q-173 -274 -412 -274q-240 0 -288 274l97 90q106 -204 229 -204t315 204z" />
    <glyph glyph-name="Edotaccent" unicode="&#x116;" horiz-adv-x="1133" 
d="M191 897q55 259 252 409q192 146 458 146q231 0 480 -97l-16 -73q-9 -45 -50 -78q-41 -34 -96 -34q-200 67 -364 67q-159 0 -274 -87q-121 -92 -155 -253l-15 -68h652q49 0 74 -31q19 -24 19 -53q0 -12 -3 -24l-21 -99h-765l-21 -99q-10 -47 -10 -89q0 -100 58 -164
q78 -87 237 -87q164 0 392 67q55 0 82 -34q20 -24 20 -55q0 -11 -3 -23l-15 -73q-291 -97 -522 -97q-266 0 -396 146q-94 105 -94 266q0 67 16 143zM690 1606q9 43 51 76q39 32 90 32h117l-31 -145q-9 -43 -51 -76q-39 -32 -89 -32h-118z" />
    <glyph glyph-name="edotaccent" unicode="&#x117;" horiz-adv-x="1065" 
d="M894 626q5 40 5 72q0 58 -17 93q-36 71 -170 71q-137 0 -211 -71q-61 -59 -92 -165h485zM552 -32q-420 0 -420 365q0 83 22 185q117 550 602 550q264 0 341 -166q32 -68 32 -170q0 -93 -26 -213q-21 -101 -134 -101h-605q-7 -35 -7 -64q0 -180 239 -180q151 0 322 59
q26 6 46 6q60 0 60 -49q0 -10 -3 -22l-20 -94q-200 -106 -449 -106zM662 1229q9 43 51 76q39 32 90 32h117l-31 -145q-9 -43 -51 -76q-39 -32 -89 -32h-118z" />
    <glyph glyph-name="Eogonek" unicode="&#x118;" horiz-adv-x="1133" 
d="M191 897q55 259 252 409q192 146 458 146q231 0 480 -97l-16 -73q-9 -45 -50 -78q-41 -34 -96 -34q-200 67 -364 67q-159 0 -274 -87q-121 -92 -155 -253l-15 -68h652q49 0 74 -31q19 -24 19 -53q0 -12 -3 -24l-21 -99h-765l-21 -99q-10 -47 -10 -89q0 -100 58 -164
q78 -87 237 -87q164 0 392 67q55 0 82 -34q20 -24 20 -55q0 -11 -3 -23l-15 -73q-291 -97 -522 -97q-266 0 -396 146q-94 105 -94 266q0 67 16 143zM1081 82q-233 -171 -249 -245q-2 -7 -2 -13q0 -14 8 -24q10 -6 32 -6q50 0 146 42q19 5 31 5q43 0 43 -34q0 -6 -2 -14
l-12 -57q-155 -85 -256 -85q-48 0 -88 19q-71 48 -71 112q0 13 3 27q24 112 259 273h158z" />
    <glyph glyph-name="eogonek" unicode="&#x119;" horiz-adv-x="1065" 
d="M894 626q5 40 5 72q0 58 -17 93q-36 71 -170 71q-137 0 -211 -71q-61 -59 -92 -165h485zM552 -32q-420 0 -420 365q0 83 22 185q117 550 602 550q264 0 341 -166q32 -68 32 -170q0 -93 -26 -213q-21 -101 -134 -101h-605q-7 -35 -7 -64q0 -180 239 -180q151 0 322 59
q26 6 46 6q60 0 60 -49q0 -10 -3 -22l-20 -94q-200 -106 -449 -106zM960 73q-233 -171 -249 -245q-2 -7 -2 -13q0 -14 8 -24q10 -6 32 -6q50 0 146 42q19 5 31 5q43 0 43 -34q0 -6 -2 -14l-12 -57q-155 -85 -256 -85q-48 0 -88 19q-71 48 -71 112q0 13 3 27q24 112 259 273
h158z" />
    <glyph glyph-name="Ecaron" unicode="&#x11a;" horiz-adv-x="1133" 
d="M191 897q55 259 252 409q192 146 458 146q231 0 480 -97l-16 -73q-9 -45 -50 -78q-41 -34 -96 -34q-200 67 -364 67q-159 0 -274 -87q-121 -92 -155 -253l-15 -68h652q49 0 74 -31q19 -24 19 -53q0 -12 -3 -24l-21 -99h-765l-21 -99q-10 -47 -10 -89q0 -100 58 -164
q78 -87 237 -87q164 0 392 67q55 0 82 -34q20 -24 20 -55q0 -11 -3 -23l-15 -73q-291 -97 -522 -97q-266 0 -396 146q-94 105 -94 266q0 67 16 143zM1134 1817l55 -85l-364 -269h-95q-132 144 -250 269l92 85l250 -146z" />
    <glyph glyph-name="ecaron" unicode="&#x11b;" horiz-adv-x="1065" 
d="M894 626q5 40 5 72q0 58 -17 93q-36 71 -170 71q-137 0 -211 -71q-61 -59 -92 -165h485zM552 -32q-420 0 -420 365q0 83 22 185q117 550 602 550q264 0 341 -166q32 -68 32 -170q0 -93 -26 -213q-21 -101 -134 -101h-605q-7 -35 -7 -64q0 -180 239 -180q151 0 322 59
q26 6 46 6q60 0 60 -49q0 -10 -3 -22l-20 -94q-200 -106 -449 -106zM1106 1440l55 -85l-364 -269h-95q-132 144 -250 269l92 85l250 -146z" />
    <glyph glyph-name="Gcircumflex" unicode="&#x11c;" horiz-adv-x="1266" 
d="M1151 -20h-121q-49 0 -76 34q-17 22 -17 51q0 11 3 23l6 28q-142 -148 -419 -148q-261 0 -368 147q-66 92 -66 235q0 79 20 173l80 374q55 259 252 409q192 146 458 146q231 0 480 -97l-16 -73q-9 -45 -50 -78q-41 -34 -96 -34q-200 67 -364 67q-159 0 -274 -87
q-121 -92 -155 -253l-80 -374q-14 -66 -14 -120q0 -220 239 -220q215 0 427 188l53 251q9 43 46 74q41 34 90 34h121zM839 1602l-312 -146l-56 85q172 125 365 269h95l249 -269l-91 -85z" />
    <glyph glyph-name="gcircumflex" unicode="&#x11d;" 
d="M956 518q17 79 17 138q0 66 -21 109q-47 97 -211 97t-251 -97q-76 -81 -111 -247q-18 -83 -18 -144q0 -63 19 -104q45 -96 207 -96q227 0 337 195zM516 -32q-386 0 -386 355q0 87 23 195q117 550 632 550q419 0 419 -365q0 -83 -22 -185l-80 -375q-117 -550 -631 -550
q-250 0 -404 107l20 93q15 72 87 72q19 0 44 -7q145 -59 297 -59q164 0 252 97q74 81 109 247q-137 -175 -360 -175zM818 1225l-312 -146l-56 85q172 125 365 269h95l249 -269l-91 -85z" />
    <glyph glyph-name="Gbreve" unicode="&#x11e;" horiz-adv-x="1266" 
d="M1151 -20h-121q-49 0 -76 34q-17 22 -17 51q0 11 3 23l6 28q-142 -148 -419 -148q-261 0 -368 147q-66 92 -66 235q0 79 20 173l80 374q55 259 252 409q192 146 458 146q231 0 480 -97l-16 -73q-9 -45 -50 -78q-41 -34 -96 -34q-200 67 -364 67q-159 0 -274 -87
q-121 -92 -155 -253l-80 -374q-14 -66 -14 -120q0 -220 239 -220q215 0 427 188l53 251q9 43 46 74q41 34 90 34h121zM1159 1827l59 -90q-173 -274 -412 -274q-240 0 -288 274l97 90q106 -204 229 -204t315 204z" />
    <glyph glyph-name="gbreve" unicode="&#x11f;" 
d="M956 518q17 79 17 138q0 66 -21 109q-47 97 -211 97t-251 -97q-76 -81 -111 -247q-18 -83 -18 -144q0 -63 19 -104q45 -96 207 -96q227 0 337 195zM516 -32q-386 0 -386 355q0 87 23 195q117 550 632 550q419 0 419 -365q0 -83 -22 -185l-80 -375q-117 -550 -631 -550
q-250 0 -404 107l20 93q15 72 87 72q19 0 44 -7q145 -59 297 -59q164 0 252 97q74 81 109 247q-137 -175 -360 -175zM1138 1450l59 -90q-173 -274 -412 -274q-240 0 -288 274l97 90q106 -204 229 -204t315 204z" />
    <glyph glyph-name="Gdotaccent" unicode="&#x120;" horiz-adv-x="1266" 
d="M1151 -20h-121q-49 0 -76 34q-17 22 -17 51q0 11 3 23l6 28q-142 -148 -419 -148q-261 0 -368 147q-66 92 -66 235q0 79 20 173l80 374q55 259 252 409q192 146 458 146q231 0 480 -97l-16 -73q-9 -45 -50 -78q-41 -34 -96 -34q-200 67 -364 67q-159 0 -274 -87
q-121 -92 -155 -253l-80 -374q-14 -66 -14 -120q0 -220 239 -220q215 0 427 188l53 251q9 43 46 74q41 34 90 34h121zM722 1606q9 43 51 76q39 32 90 32h117l-31 -145q-9 -43 -51 -76q-39 -32 -89 -32h-118z" />
    <glyph glyph-name="gdotaccent" unicode="&#x121;" 
d="M956 518q17 79 17 138q0 66 -21 109q-47 97 -211 97t-251 -97q-76 -81 -111 -247q-18 -83 -18 -144q0 -63 19 -104q45 -96 207 -96q227 0 337 195zM516 -32q-386 0 -386 355q0 87 23 195q117 550 632 550q419 0 419 -365q0 -83 -22 -185l-80 -375q-117 -550 -631 -550
q-250 0 -404 107l20 93q15 72 87 72q19 0 44 -7q145 -59 297 -59q164 0 252 97q74 81 109 247q-137 -175 -360 -175zM701 1229q9 43 51 76q39 32 90 32h117l-31 -145q-9 -43 -51 -76q-39 -32 -89 -32h-118z" />
    <glyph glyph-name="uni0122" unicode="&#x122;" horiz-adv-x="1266" 
d="M1151 -20h-121q-49 0 -76 34q-17 22 -17 51q0 11 3 23l6 28q-142 -148 -419 -148q-261 0 -368 147q-66 92 -66 235q0 79 20 173l80 374q55 259 252 409q192 146 458 146q231 0 480 -97l-16 -73q-9 -45 -50 -78q-41 -34 -96 -34q-200 67 -364 67q-159 0 -274 -87
q-121 -92 -155 -253l-80 -374q-14 -66 -14 -120q0 -220 239 -220q215 0 427 188l53 251q9 43 46 74q41 34 90 34h121zM326 -438q126 123 165 306q7 31 42 52q32 20 72 20h99l-8 -38q-34 -163 -216 -311q-34 -29 -65 -29h-89z" />
    <glyph glyph-name="uni0123" unicode="&#x123;" 
d="M956 518q17 79 17 138q0 66 -21 109q-47 97 -211 97t-251 -97q-76 -81 -111 -247q-18 -83 -18 -144q0 -63 19 -104q45 -96 207 -96q227 0 337 195zM516 -32q-386 0 -386 355q0 87 23 195q117 550 632 550q419 0 419 -365q0 -83 -22 -185l-80 -375q-117 -550 -631 -550
q-250 0 -404 107l20 93q15 72 87 72q19 0 44 -7q145 -59 297 -59q164 0 252 97q74 81 109 247q-137 -175 -360 -175zM1034 1585q-113 -136 -159 -353q-7 -33 -37 -56q-32 -25 -70 -25h-90l8 41q40 187 207 359q32 34 63 34h78z" />
    <glyph glyph-name="Hcircumflex" unicode="&#x124;" horiz-adv-x="1301" 
d="M323 88q-9 -43 -49 -76q-39 -32 -87 -32h-122l309 1453h122q48 0 73 -32q19 -25 19 -54q0 -11 -2 -22l-110 -515h618l110 515q9 43 49 76q39 32 87 32h122l-309 -1453h-122q-48 0 -73 32q-19 25 -19 54q0 11 2 22l109 514h-618zM874 1602l-312 -146l-56 85
q172 125 365 269h95l249 -269l-91 -85z" />
    <glyph glyph-name="hcircumflex" unicode="&#x125;" horiz-adv-x="1144" 
d="M1030 -20h-113q-48 0 -74 33q-19 22 -19 52q0 11 3 23l125 590q7 31 7 57q0 127 -161 127q-227 0 -337 -194l-123 -580q-10 -44 -48 -75q-40 -33 -88 -33h-113l309 1453h113q48 0 73 -32q19 -25 19 -54q0 -11 -2 -22l-82 -383q128 126 350 126q327 0 327 -255
q0 -51 -13 -112zM824 1584l-312 -146l-56 85q172 125 365 269h95l249 -269l-91 -85z" />
    <glyph glyph-name="Hbar" unicode="&#x126;" horiz-adv-x="1301" 
d="M323 88q-9 -43 -49 -76q-39 -32 -87 -32h-122l309 1453h122q48 0 73 -32q19 -25 19 -54q0 -11 -2 -22l-110 -515h618l110 515q9 43 49 76q39 32 87 32h122l-309 -1453h-122q-48 0 -73 32q-19 25 -19 54q0 11 2 22l109 514h-618zM-149.499 958q-53.2988 0 -80.5986 36
q-11.7002 21 -11.7002 45q0 14 3.90039 30l19.499 69h1294.79q54.5996 0 80.5996 -36q11.7002 -19 11.7002 -43q0 -15 -5.2002 -31l-18.2002 -70h-1294.79z" />
    <glyph glyph-name="hbar" unicode="&#x127;" horiz-adv-x="1144" 
d="M1030 -20h-113q-48 0 -74 33q-19 22 -19 52q0 11 3 23l125 590q7 31 7 57q0 127 -161 127q-227 0 -337 -194l-123 -580q-10 -44 -48 -75q-40 -33 -88 -33h-113l309 1453h113q48 0 73 -32q19 -25 19 -54q0 -11 -2 -22l-82 -383q128 126 350 126q327 0 327 -255
q0 -51 -13 -112zM-66 1083q-41 0 -62 36q-9 21 -9 45q0 14 3 30l15 69h996q42 0 62 -36q9 -19 9 -43q0 -15 -4 -31l-14 -70h-996z" />
    <glyph glyph-name="Itilde" unicode="&#x128;" horiz-adv-x="449" 
d="M567 1325q9 43 49 76q39 32 87 32h122l-286 -1345q-9 -43 -49 -76q-39 -32 -87 -32h-122zM1002 1617q-131 -125 -243 -125q-66 0 -125 42q-65 46 -128 46q-59 0 -156 -69l-17 116q122 115 229 115q67 0 129 -43t123 -43q66 0 169 78z" />
    <glyph glyph-name="itilde" unicode="&#x129;" horiz-adv-x="376" 
d="M497 948q9 44 47 75q40 33 88 33h113l-205 -968q-10 -44 -48 -75q-40 -33 -88 -33h-113zM1008 1240q-131 -125 -243 -125q-66 0 -125 42q-65 46 -128 46q-59 0 -156 -69l-17 116q122 115 229 115q67 0 129 -43t123 -43q66 0 169 78z" />
    <glyph glyph-name="Imacron" unicode="&#x12a;" horiz-adv-x="449" 
d="M559 1325q9 43 49 76q39 32 87 32h122l-286 -1345q-9 -43 -49 -76q-39 -32 -87 -32h-122zM396 1487q-41 0 -61 36q-9 21 -9 45q0 14 3 30l14 69h561q42 0 63 -36q9 -19 9 -43q0 -15 -4 -31l-15 -70h-561z" />
    <glyph glyph-name="imacron" unicode="&#x12b;" horiz-adv-x="376" 
d="M490 948q9 44 47 75q40 33 88 33h113l-205 -968q-10 -44 -48 -75q-40 -33 -88 -33h-113zM402 1110q-41 0 -61 36q-9 21 -9 45q0 14 3 30l14 69h561q42 0 63 -36q9 -19 9 -43q0 -15 -4 -31l-15 -70h-561z" />
    <glyph glyph-name="Ibreve" unicode="&#x12c;" horiz-adv-x="449" 
d="M581 1325q9 43 49 76q39 32 87 32h122l-286 -1345q-9 -43 -49 -76q-39 -32 -87 -32h-122zM997 1827l59 -90q-173 -274 -412 -274q-240 0 -288 274l97 90q106 -204 229 -204t315 204z" />
    <glyph glyph-name="ibreve" unicode="&#x12d;" horiz-adv-x="376" 
d="M511 948q9 44 47 75q40 33 88 33h113l-205 -968q-10 -44 -48 -75q-40 -33 -88 -33h-113zM1003 1450l59 -90q-173 -274 -412 -274q-240 0 -288 274l97 90q106 -204 229 -204t315 204z" />
    <glyph glyph-name="Iogonek" unicode="&#x12e;" horiz-adv-x="449" 
d="M543 1325q9 43 49 76q39 32 87 32h122l-286 -1345q-9 -43 -49 -76q-39 -32 -87 -32h-122zM438 20q-233 -171 -249 -245q-2 -7 -2 -13q0 -14 8 -24q10 -6 32 -6q50 0 146 42q19 5 31 5q43 0 43 -34q0 -6 -2 -14l-12 -57q-155 -85 -256 -85q-48 0 -88 19q-71 48 -71 112
q0 13 3 27q24 112 259 273h158z" />
    <glyph glyph-name="iogonek" unicode="&#x12f;" horiz-adv-x="408" 
d="M494 948q9 44 47 75q40 33 88 33h113l-205 -968q-10 -44 -48 -75q-40 -33 -88 -33h-113zM574 1325q9 43 49 76q39 32 87 32h113l-31 -145q-9 -43 -49 -76q-39 -32 -87 -32h-113zM469 20q-233 -171 -249 -245q-2 -7 -2 -13q0 -14 8 -24q10 -6 32 -6q50 0 146 42q19 5 31 5
q43 0 43 -34q0 -6 -2 -14l-12 -57q-155 -85 -256 -85q-48 0 -88 19q-71 48 -71 112q0 13 3 27q24 112 259 273h158z" />
    <glyph glyph-name="Idotaccent" unicode="&#x130;" horiz-adv-x="449" 
d="M351 1325q9 43 49 76q39 32 87 32h122l-286 -1345q-9 -43 -49 -76q-39 -32 -87 -32h-122zM330 1606q9 43 51 76q39 32 90 32h117l-31 -145q-9 -43 -51 -76q-39 -32 -89 -32h-118z" />
    <glyph glyph-name="IJ" unicode="&#x132;" horiz-adv-x="1367" 
d="M351 1325q9 43 49 76q39 32 87 32h122l-286 -1345q-9 -43 -49 -76q-39 -32 -87 -32h-122zM1285 1325q9 43 45 74q42 34 91 34h121l-194 -910q-55 -260 -251 -409q-193 -146 -459 -146q-87 0 -207 20l20 92q9 44 49 77q39 32 90 32q54 -6 94 -6q159 0 273 87
q123 91 157 253z" />
    <glyph glyph-name="ij" unicode="&#x133;" horiz-adv-x="843" 
d="M293 948q9 44 47 75q40 33 88 33h113l-205 -968q-10 -44 -48 -75q-40 -33 -88 -33h-113zM373 1325q9 43 49 76q39 32 87 32h113l-31 -145q-9 -43 -49 -76q-39 -32 -87 -32h-113zM723 -22q-41 -194 -155 -288q-101 -83 -283 -97q-47 0 -72 32q-17 22 -17 51q0 9 2 20
l22 100q142 0 192 32q62 38 85 150l207 970q9 44 47 75q40 33 88 33h113zM784 1325q9 43 49 76q39 32 87 32h113l-31 -145q-9 -43 -47 -74q-40 -34 -89 -34h-113z" />
    <glyph glyph-name="Jcircumflex" unicode="&#x134;" horiz-adv-x="918" 
d="M836 1325q9 43 45 74q42 34 91 34h121l-194 -910q-55 -260 -251 -409q-193 -146 -459 -146q-87 0 -207 20l20 92q9 44 49 77q39 32 90 32q54 -6 94 -6q159 0 273 87q123 91 157 253zM918 1602l-312 -146l-56 85q172 125 365 269h95l249 -269l-91 -85z" />
    <glyph glyph-name="jcircumflex" unicode="&#x135;" horiz-adv-x="435" 
d="M330 -22q-41 -194 -155 -288q-101 -83 -283 -97q-47 0 -72 32q-17 22 -17 51q0 9 2 20l22 100q142 0 192 32q62 38 85 150l207 970q9 44 47 75q40 33 88 33h113zM463 1225l-312 -146l-56 85q172 125 365 269h95l249 -269l-91 -85z" />
    <glyph glyph-name="uni0136" unicode="&#x136;" horiz-adv-x="1193" 
d="M753 810q92 1 122 18q38 22 84 115l204 409q39 81 143 81h126l-279 -574q-42 -88 -83 -110q46 -35 55 -213l34 -556h-126q-104 0 -108 80l-33 457q-5 60 -28 74q-18 11 -93 11h-339l-109 -514q-9 -43 -49 -76q-39 -32 -87 -32h-122l309 1453h122q48 0 73 -32
q19 -25 19 -54q0 -11 -2 -22l-110 -515h277zM360 -438q126 123 165 306q7 31 42 52q32 20 72 20h99l-8 -38q-34 -163 -216 -311q-34 -29 -65 -29h-89z" />
    <glyph glyph-name="uni0137" unicode="&#x137;" horiz-adv-x="1036" 
d="M400 1433h113q48 0 73 -32q19 -25 19 -54q0 -11 -2 -22l-150 -703h233q72 0 97 41l171 309q45 84 152 84h121l-214 -388q-54 -97 -80 -113q37 -32 49 -123l58 -452h-121q-107 0 -117 78l-40 314q-5 42 -60 42h-293l-69 -326q-10 -44 -48 -75q-40 -33 -88 -33h-113z
M313 -438q126 123 165 306q7 31 42 52q32 20 72 20h99l-8 -38q-34 -163 -216 -311q-34 -29 -65 -29h-89z" />
    <glyph glyph-name="kgreenlandic" unicode="&#x138;" horiz-adv-x="1036" 
d="M400 1433h113q48 0 73 -32q19 -25 19 -54q0 -11 -2 -22l-150 -703h233q72 0 97 41l171 309q45 84 152 84h121l-214 -388q-54 -97 -80 -113q37 -32 49 -123l58 -452h-121q-107 0 -117 78l-40 314q-5 42 -60 42h-293l-69 -326q-10 -44 -48 -75q-40 -33 -88 -33h-113z" />
    <glyph glyph-name="Lacute" unicode="&#x139;" 
d="M351 1440h117q51 0 77 -33q20 -25 20 -56q0 -11 -3 -23l-171 -805q-10 -47 -10 -89q0 -100 58 -164q78 -87 238 -87q162 0 391 67q55 0 83 -34q19 -24 19 -54q0 -11 -3 -24l-15 -73q-291 -97 -521 -97q-267 0 -397 146q-94 105 -94 266q0 67 16 143zM721 1456l-55 85
l359 265q39 17 69 17q82 0 82 -128q0 -13 -1 -27z" />
    <glyph glyph-name="lacute" unicode="&#x13a;" horiz-adv-x="532" 
d="M396 1433h113q48 0 73 -32q19 -25 19 -54q0 -11 -2 -22l-208 -978q-17 -79 -17 -118q0 -35 13 -39q20 -7 49 -7q21 0 49 4q96 0 96 -65q0 -11 -3 -24l-21 -100q-104 -23 -185 -23q-25 0 -50 2q-112 8 -156 87q-23 39 -23 110t22 173zM383 1425l-55 85l359 265
q39 17 69 17q82 0 82 -128q0 -13 -1 -27z" />
    <glyph glyph-name="uni013B" unicode="&#x13b;" 
d="M351 1440h117q51 0 77 -33q20 -25 20 -56q0 -11 -3 -23l-171 -805q-10 -47 -10 -89q0 -100 58 -164q78 -87 238 -87q162 0 391 67q55 0 83 -34q19 -24 19 -54q0 -11 -3 -24l-15 -73q-291 -97 -521 -97q-267 0 -397 146q-94 105 -94 266q0 67 16 143zM339 -438
q126 123 165 306q7 31 42 52q32 20 72 20h99l-8 -38q-34 -163 -216 -311q-34 -29 -65 -29h-89z" />
    <glyph glyph-name="uni013C" unicode="&#x13c;" horiz-adv-x="532" 
d="M393 1433h113q48 0 73 -32q19 -25 19 -54q0 -11 -2 -22l-208 -978q-17 -79 -17 -118q0 -35 13 -39q20 -7 49 -7q21 0 49 4q96 0 96 -65q0 -11 -3 -24l-21 -100q-104 -23 -185 -23q-25 0 -50 2q-112 8 -156 87q-23 39 -23 110t22 173zM68 -438q126 123 165 306q7 31 42 52
q32 20 72 20h99l-8 -38q-34 -163 -216 -311q-34 -29 -65 -29h-89z" />
    <glyph glyph-name="Lcaron" unicode="&#x13d;" 
d="M351 1440h117q51 0 77 -33q20 -25 20 -56q0 -11 -3 -23l-171 -805q-10 -47 -10 -89q0 -100 58 -164q78 -87 238 -87q162 0 391 67q55 0 83 -34q19 -24 19 -54q0 -11 -3 -24l-15 -73q-291 -97 -521 -97q-267 0 -397 146q-94 105 -94 266q0 67 16 143zM1086 998
q113 137 159 353q7 33 40 59q30 23 68 23h90l-9 -42q-40 -186 -205 -358q-34 -35 -65 -35h-78z" />
    <glyph glyph-name="lcaron" unicode="&#x13e;" horiz-adv-x="931" 
d="M393 1433h113q48 0 73 -32q19 -25 19 -54q0 -11 -2 -22l-208 -978q-17 -79 -17 -118q0 -35 13 -39q20 -7 49 -7q21 0 49 4q96 0 96 -65q0 -11 -3 -24l-21 -100q-104 -23 -185 -23q-25 0 -50 2q-112 8 -156 87q-23 39 -23 110t22 173zM754 998q113 137 159 353q7 33 40 59
q30 23 68 23h90l-9 -42q-40 -186 -205 -358q-34 -35 -65 -35h-78z" />
    <glyph glyph-name="Ldot" unicode="&#x13f;" 
d="M351 1440h117q51 0 77 -33q20 -25 20 -56q0 -11 -3 -23l-171 -805q-10 -47 -10 -89q0 -100 58 -164q78 -87 238 -87q162 0 391 67q55 0 83 -34q19 -24 19 -54q0 -11 -3 -24l-15 -73q-291 -97 -521 -97q-267 0 -397 146q-94 105 -94 266q0 67 16 143zM905.445 626.982
q8.5 37.3984 41.6494 63.748q34.8486 28.0488 77.3477 28.0488h100.297l-25.499 -122.396q-8.5 -37.3984 -41.6484 -64.5977q-35.6992 -27.1992 -78.1982 -27.1992h-99.4473z" />
    <glyph glyph-name="ldot" unicode="&#x140;" horiz-adv-x="689" 
d="M393 1433h113q48 0 73 -32q19 -25 19 -54q0 -11 -2 -22l-208 -978q-17 -79 -17 -118q0 -35 13 -39q20 -7 49 -7q21 0 49 4q96 0 96 -65q0 -11 -3 -24l-21 -100q-104 -23 -185 -23q-25 0 -50 2q-112 8 -156 87q-23 39 -23 110t22 173zM526.445 626.982
q8.5 37.3984 41.6494 63.748q34.8486 28.0488 77.3477 28.0488h100.297l-25.499 -122.396q-8.5 -37.3984 -41.6484 -64.5977q-35.6992 -27.1992 -78.1982 -27.1992h-99.4473z" />
    <glyph glyph-name="Lslash" unicode="&#x141;" horiz-adv-x="1193" 
d="M351 1440h117q51 0 77 -33q20 -25 20 -56q0 -11 -3 -23l-171 -805q-10 -47 -10 -89q0 -100 58 -164q78 -87 238 -87q162 0 391 67q55 0 83 -34q19 -24 19 -54q0 -11 -3 -24l-15 -73q-291 -97 -521 -97q-267 0 -397 146q-94 105 -94 266q0 67 16 143zM-4 535
q-17 -6 -34 -6q-22 0 -43 13q-31 22 -41 61l-14 60l992 401q19 8 36 8q24 0 44 -13q29 -22 39 -61l13 -61z" />
    <glyph glyph-name="lslash" unicode="&#x142;" horiz-adv-x="563" 
d="M704 1433h113q48 0 73 -32q19 -25 19 -54q0 -11 -2 -22l-208 -978q-17 -79 -17 -118q0 -35 13 -39q20 -7 49 -7q21 0 49 4q96 0 96 -65q0 -11 -3 -24l-21 -100q-104 -23 -185 -23q-25 0 -50 2q-112 8 -156 87q-23 39 -23 110t22 173zM283 430q-19 -8 -36 -8q-22 0 -42 11
q-33 20 -43 59l-18 59l981 443q20 9 39 9q21 0 42 -11q30 -20 41 -59l18 -60z" />
    <glyph glyph-name="Nacute" unicode="&#x143;" horiz-adv-x="1397" 
d="M350 1328q10 45 51 79q40 33 90 33h206l378 -1171l249 1171h235l-286 -1348q-10 -45 -51 -79q-40 -33 -90 -33h-206l-378 1171l-225 -1059q-10 -45 -51 -79q-40 -33 -91 -33h-117zM790 1456l-55 85l359 265q39 17 69 17q82 0 82 -128q0 -13 -1 -27z" />
    <glyph glyph-name="nacute" unicode="&#x144;" horiz-adv-x="1134" 
d="M1023 -20h-113q-48 0 -74 33q-19 22 -19 52q0 11 3 23l125 590q7 31 7 57q0 127 -161 127q-227 0 -337 -195l-123 -579q-10 -44 -48 -75q-40 -33 -88 -33h-113l228 1076h113q48 0 74 -33q19 -23 19 -53q0 -11 -2 -22q126 120 348 120q327 0 327 -255q0 -51 -13 -112z
M686 1079l-55 85l359 265q39 17 69 17q82 0 82 -128q0 -13 -1 -27z" />
    <glyph glyph-name="uni0145" unicode="&#x145;" horiz-adv-x="1397" 
d="M350 1328q10 45 51 79q40 33 90 33h206l378 -1171l249 1171h235l-286 -1348q-10 -45 -51 -79q-40 -33 -90 -33h-206l-378 1171l-225 -1059q-10 -45 -51 -79q-40 -33 -91 -33h-117zM408 -438q126 123 165 306q7 31 42 52q32 20 72 20h99l-8 -38q-34 -163 -216 -311
q-34 -29 -65 -29h-89z" />
    <glyph glyph-name="uni0146" unicode="&#x146;" horiz-adv-x="1134" 
d="M1023 -20h-113q-48 0 -74 33q-19 22 -19 52q0 11 3 23l125 590q7 31 7 57q0 127 -161 127q-227 0 -337 -195l-123 -579q-10 -44 -48 -75q-40 -33 -88 -33h-113l228 1076h113q48 0 74 -33q19 -23 19 -53q0 -11 -2 -22q126 120 348 120q327 0 327 -255q0 -51 -13 -112z
M304 -438q126 123 165 306q7 31 42 52q32 20 72 20h99l-8 -38q-34 -163 -216 -311q-34 -29 -65 -29h-89z" />
    <glyph glyph-name="Ncaron" unicode="&#x147;" horiz-adv-x="1397" 
d="M350 1328q10 45 51 79q40 33 90 33h206l378 -1171l249 1171h235l-286 -1348q-10 -45 -51 -79q-40 -33 -90 -33h-206l-378 1171l-225 -1059q-10 -45 -51 -79q-40 -33 -91 -33h-117zM1248 1817l55 -85l-364 -269h-95q-132 144 -250 269l92 85l250 -146z" />
    <glyph glyph-name="ncaron" unicode="&#x148;" horiz-adv-x="1134" 
d="M1023 -20h-113q-48 0 -74 33q-19 22 -19 52q0 11 3 23l125 590q7 31 7 57q0 127 -161 127q-227 0 -337 -195l-123 -579q-10 -44 -48 -75q-40 -33 -88 -33h-113l228 1076h113q48 0 74 -33q19 -23 19 -53q0 -11 -2 -22q126 120 348 120q327 0 327 -255q0 -51 -13 -112z
M1144 1440l55 -85l-364 -269h-95q-132 144 -250 269l92 85l250 -146z" />
    <glyph glyph-name="napostrophe" unicode="&#x149;" horiz-adv-x="1222" 
d="M305 1151q113 136 159 353q7 33 37 56q32 25 70 25h90l-9 -41q-40 -187 -206 -359q-32 -34 -63 -34h-78zM1111 -20h-113q-48 0 -74 33q-19 22 -19 52q0 11 3 23l125 590q7 31 7 57q0 127 -161 127q-227 0 -337 -195l-123 -579q-10 -44 -48 -75q-40 -33 -88 -33h-113
l228 1076h113q48 0 74 -33q19 -23 19 -53q0 -11 -2 -22q126 120 348 120q327 0 327 -255q0 -51 -13 -112z" />
    <glyph glyph-name="Eng" unicode="&#x14a;" horiz-adv-x="1422" 
d="M1012 -20h10l-472 1182l-227 -1070q-10 -45 -51 -79q-40 -33 -91 -33h-117l286 1348q10 45 51 79q40 33 90 33h206l406 -1039l221 1039h235l-286 -1348q-3 -14 -9 -25q-66 -229 -275 -444q-43 -45 -81 -45h-94q138 167 198 402z" />
    <glyph glyph-name="eng" unicode="&#x14b;" horiz-adv-x="1159" 
d="M819 86l126 592q7 31 7 57q0 127 -161 127q-227 0 -337 -195l-123 -579q-10 -44 -48 -75q-40 -33 -88 -33h-113l228 1076h113q48 0 74 -33q19 -23 19 -53q0 -11 -2 -22l2 14q74 106 346 106q327 0 327 -255q0 -51 -13 -112l-122 -576q-57 -264 -292 -508q-43 -45 -81 -45
h-94q154 186 227 496q3 10 5 18z" />
    <glyph glyph-name="Omacron" unicode="&#x14c;" horiz-adv-x="1324" 
d="M1307 523q-55 -260 -252 -409q-192 -146 -459 -146q-266 0 -396 146q-94 105 -94 266q0 67 16 143l80 374q55 259 252 409q192 146 458 146q267 0 397 -146q94 -106 94 -267q0 -66 -16 -142zM592 1150q-121 -92 -155 -253l-80 -374q-10 -47 -10 -89q0 -100 58 -164
q78 -87 237 -87q160 0 274 87q122 91 156 253l80 374q10 47 10 88q0 100 -59 165q-77 87 -237 87q-159 0 -274 -87zM605 1487q-41 0 -61 36q-9 21 -9 45q0 14 3 30l14 69h561q42 0 63 -36q9 -19 9 -43q0 -15 -4 -31l-15 -70h-561z" />
    <glyph glyph-name="omacron" unicode="&#x14d;" horiz-adv-x="1151" 
d="M741 861q-164 0 -251 -96q-76 -81 -111 -247q-16 -77 -16 -137q0 -67 21 -111q47 -96 211 -96t251 96q75 82 110 248q17 79 17 138q0 66 -21 109q-47 96 -211 96zM785 1068q419 0 419 -365q0 -83 -22 -185q-117 -550 -631 -550q-420 0 -420 365q0 83 22 185
q117 550 632 550zM559 1110q-41 0 -61 36q-9 21 -9 45q0 14 3 30l14 69h561q42 0 63 -36q9 -19 9 -43q0 -15 -4 -31l-15 -70h-561z" />
    <glyph glyph-name="Obreve" unicode="&#x14e;" horiz-adv-x="1324" 
d="M1307 523q-55 -260 -252 -409q-192 -146 -459 -146q-266 0 -396 146q-94 105 -94 266q0 67 16 143l80 374q55 259 252 409q192 146 458 146q267 0 397 -146q94 -106 94 -267q0 -66 -16 -142zM592 1150q-121 -92 -155 -253l-80 -374q-10 -47 -10 -89q0 -100 58 -164
q78 -87 237 -87q160 0 274 87q122 91 156 253l80 374q10 47 10 88q0 100 -59 165q-77 87 -237 87q-159 0 -274 -87zM1184 1827l59 -90q-173 -274 -412 -274q-240 0 -288 274l97 90q106 -204 229 -204t315 204z" />
    <glyph glyph-name="obreve" unicode="&#x14f;" horiz-adv-x="1151" 
d="M741 861q-164 0 -251 -96q-76 -81 -111 -247q-16 -77 -16 -137q0 -67 21 -111q47 -96 211 -96t251 96q75 82 110 248q17 79 17 138q0 66 -21 109q-47 96 -211 96zM785 1068q419 0 419 -365q0 -83 -22 -185q-117 -550 -631 -550q-420 0 -420 365q0 83 22 185
q117 550 632 550zM1138 1450l59 -90q-173 -274 -412 -274q-240 0 -288 274l97 90q106 -204 229 -204t315 204z" />
    <glyph glyph-name="Ohungarumlaut" unicode="&#x150;" horiz-adv-x="1324" 
d="M1307 523q-55 -260 -252 -409q-192 -146 -459 -146q-266 0 -396 146q-94 105 -94 266q0 67 16 143l80 374q55 259 252 409q192 146 458 146q267 0 397 -146q94 -106 94 -267q0 -66 -16 -142zM592 1150q-121 -92 -155 -253l-80 -374q-10 -47 -10 -89q0 -100 58 -164
q78 -87 237 -87q160 0 274 87q122 91 156 253l80 374q10 47 10 88q0 100 -59 165q-77 87 -237 87q-159 0 -274 -87zM451 1456l-55 85l359 265q39 17 69 17q82 0 82 -128q0 -13 -1 -27zM874 1456l-55 85l359 265q39 17 69 17q82 0 82 -128q0 -13 -1 -27z" />
    <glyph glyph-name="ohungarumlaut" unicode="&#x151;" horiz-adv-x="1151" 
d="M741 861q-164 0 -251 -96q-76 -81 -111 -247q-16 -77 -16 -137q0 -67 21 -111q47 -96 211 -96t251 96q75 82 110 248q17 79 17 138q0 66 -21 109q-47 96 -211 96zM785 1068q419 0 419 -365q0 -83 -22 -185q-117 -550 -631 -550q-420 0 -420 365q0 83 22 185
q117 550 632 550zM405 1079l-55 85l359 265q39 17 69 17q82 0 82 -128q0 -13 -1 -27zM828 1079l-55 85l359 265q39 17 69 17q82 0 82 -128q0 -13 -1 -27z" />
    <glyph glyph-name="OE" unicode="&#x152;" horiz-adv-x="2119" 
d="M1112 161q-10 -12 -57 -47q-192 -146 -459 -146q-266 0 -396 146q-94 105 -94 266q0 67 16 143l80 374q55 259 252 409q192 146 458 146q267 0 397 -146q31 -35 37 -47q11 12 58 47q192 146 458 146q231 0 480 -97l-16 -73q-9 -45 -50 -78q-41 -34 -96 -34
q-200 67 -364 67q-159 0 -274 -87q-121 -92 -155 -253l-15 -68h652q49 0 74 -31q19 -24 19 -53q0 -12 -3 -24l-21 -99h-765l-21 -99q-10 -47 -10 -89q0 -100 58 -164q78 -87 237 -87q164 0 392 67q55 0 82 -34q20 -24 20 -55q0 -11 -3 -23l-15 -73q-291 -97 -522 -97
q-266 0 -396 146q-31 35 -38 47zM1152 897q10 47 10 88q0 100 -59 165q-77 87 -237 87q-159 0 -274 -87q-121 -92 -155 -253l-80 -374q-10 -47 -10 -89q0 -100 58 -164q78 -87 237 -87q160 0 274 87q122 91 156 253z" />
    <glyph glyph-name="oe" unicode="&#x153;" horiz-adv-x="1888" 
d="M1692 626q5 40 5 72q0 58 -17 93q-36 71 -170 71q-137 0 -211 -71q-61 -59 -92 -165h485zM983 120q-138 -152 -432 -152q-420 0 -420 365q0 83 22 185q117 550 632 550q290 0 364 -148q130 148 405 148q264 0 341 -166q32 -68 32 -170q0 -93 -26 -213q-21 -101 -134 -101
h-605q-7 -35 -7 -64q0 -180 239 -180q151 0 322 59q26 6 46 6q60 0 60 -49q0 -10 -3 -22l-20 -94q-200 -106 -449 -106q-295 0 -367 152zM941 456q4 30 11 62q7 33 15 63q5 41 5 75q0 66 -20 109q-47 96 -211 96t-251 -96q-76 -81 -111 -247q-16 -77 -16 -137q0 -67 21 -111
q47 -96 211 -96t251 96q60 66 95 186z" />
    <glyph glyph-name="Racute" unicode="&#x154;" horiz-adv-x="1206" 
d="M461 773h236q358 0 413 256q5 23 5 43q0 72 -61 116q-70 49 -196 49h-5q-123 0 -212 -49q-103 -55 -125 -159zM1102 376l95 -396h-156q-89 0 -109 77l-75 319l-24 101q-14 88 -155 88h-261l-124 -585h-235l223 1049q43 202 236 319q171 104 384 104h4q214 -1 340 -105
q110 -90 110 -231q0 -41 -10 -87q-67 -313 -319 -401q31 -22 66 -212zM755 1456l-55 85l359 265q39 17 69 17q82 0 82 -128q0 -13 -1 -27z" />
    <glyph glyph-name="racute" unicode="&#x155;" horiz-adv-x="840" 
d="M310 1056h113q48 0 74 -32q19 -25 19 -54q0 -11 -2 -22q116 120 295 120q99 0 217 -28l-21 -100q-19 -88 -131 -88q-59 9 -136 9q-174 0 -284 -194l-123 -579q-10 -44 -48 -76q-40 -32 -88 -32h-113zM575 1079l-55 85l359 265q39 17 69 17q82 0 82 -128q0 -13 -1 -27z
" />
    <glyph glyph-name="uni0156" unicode="&#x156;" horiz-adv-x="1206" 
d="M461 773h236q358 0 413 256q5 23 5 43q0 72 -61 116q-70 49 -196 49h-5q-123 0 -212 -49q-103 -55 -125 -159zM1102 376l95 -396h-156q-89 0 -109 77l-75 319l-24 101q-14 88 -155 88h-261l-124 -585h-235l223 1049q43 202 236 319q171 104 384 104h4q214 -1 340 -105
q110 -90 110 -231q0 -41 -10 -87q-67 -313 -319 -401q31 -22 66 -212zM373 -438q126 123 165 306q7 31 42 52q32 20 72 20h99l-8 -38q-34 -163 -216 -311q-34 -29 -65 -29h-89z" />
    <glyph glyph-name="uni0157" unicode="&#x157;" horiz-adv-x="840" 
d="M310 1056h113q48 0 74 -32q19 -25 19 -54q0 -11 -2 -22q116 120 295 120q99 0 217 -28l-21 -100q-19 -88 -131 -88q-59 9 -136 9q-174 0 -284 -194l-123 -579q-10 -44 -48 -76q-40 -32 -88 -32h-113zM193 -438q126 123 165 306q7 31 42 52q32 20 72 20h99l-8 -38
q-34 -163 -216 -311q-34 -29 -65 -29h-89z" />
    <glyph glyph-name="Rcaron" unicode="&#x158;" horiz-adv-x="1206" 
d="M461 773h236q358 0 413 256q5 23 5 43q0 72 -61 116q-70 49 -196 49h-5q-123 0 -212 -49q-103 -55 -125 -159zM1102 376l95 -396h-156q-89 0 -109 77l-75 319l-24 101q-14 88 -155 88h-261l-124 -585h-235l223 1049q43 202 236 319q171 104 384 104h4q214 -1 340 -105
q110 -90 110 -231q0 -41 -10 -87q-67 -313 -319 -401q31 -22 66 -212zM1214 1817l55 -85l-364 -269h-95q-132 144 -250 269l92 85l250 -146z" />
    <glyph glyph-name="rcaron" unicode="&#x159;" horiz-adv-x="840" 
d="M310 1056h113q48 0 74 -32q19 -25 19 -54q0 -11 -2 -22q116 120 295 120q99 0 217 -28l-21 -100q-19 -88 -131 -88q-59 9 -136 9q-174 0 -284 -194l-123 -579q-10 -44 -48 -76q-40 -32 -88 -32h-113zM1033 1440l55 -85l-364 -269h-95q-132 144 -250 269l92 85l250 -146z
" />
    <glyph glyph-name="Sacute" unicode="&#x15a;" horiz-adv-x="1140" 
d="M795 236q104 58 126 160q5 24 5 46q0 86 -85 125q-51 23 -268 57q-201 31 -280 95q-88 70 -88 198q0 46 11 100q43 203 222 323q164 112 373 112q230 0 479 -97l-16 -73q-9 -45 -50 -79q-40 -33 -95 -33q-201 67 -364 67q-108 0 -195 -55q-97 -61 -119 -165
q-4 -19 -4 -36q0 -80 89 -115q38 -15 274 -51q199 -31 280 -102t81 -197q0 -49 -12 -107l-3 -12q-47 -202 -232 -321q-168 -108 -378 -108q-230 0 -479 97l15 73q10 45 51 79q40 33 95 33q201 -67 364 -67q110 0 203 53zM665 1456l-55 85l359 265q39 17 69 17q82 0 82 -128
q0 -13 -1 -27z" />
    <glyph glyph-name="sacute" unicode="&#x15b;" horiz-adv-x="907" 
d="M1016 961l-20 -93q-15 -72 -87 -72q-19 0 -43 7q-147 58 -272 58q-75 0 -124 -38q-46 -34 -57 -85q-2 -8 -2 -16q0 -46 63 -67l189 -38q140 -26 197 -84q56 -56 56 -147q0 -37 -9 -80l-2 -9q-30 -133 -149 -226q-132 -103 -316 -103q-225 0 -379 106l19 93q16 72 89 72
q19 0 43 -6q146 -59 272 -59q76 0 131 39q51 35 61 84q3 12 3 23q0 51 -58 75q-23 9 -189 40q-138 27 -194 77q-63 56 -63 151q0 35 9 75q28 134 142 226q127 104 312 104q224 0 378 -107zM564 1079l-55 85l359 265q39 17 69 17q82 0 82 -128q0 -13 -1 -27z" />
    <glyph glyph-name="Scircumflex" unicode="&#x15c;" horiz-adv-x="1140" 
d="M795 236q104 58 126 160q5 24 5 46q0 86 -85 125q-51 23 -268 57q-201 31 -280 95q-88 70 -88 198q0 46 11 100q43 203 222 323q164 112 373 112q230 0 479 -97l-16 -73q-9 -45 -50 -79q-40 -33 -95 -33q-201 67 -364 67q-108 0 -195 -55q-97 -61 -119 -165
q-4 -19 -4 -36q0 -80 89 -115q38 -15 274 -51q199 -31 280 -102t81 -197q0 -49 -12 -107l-3 -12q-47 -202 -232 -321q-168 -108 -378 -108q-230 0 -479 97l15 73q10 45 51 79q40 33 95 33q201 -67 364 -67q110 0 203 53zM797 1602l-312 -146l-56 85q172 125 365 269h95
l249 -269l-91 -85z" />
    <glyph glyph-name="scircumflex" unicode="&#x15d;" horiz-adv-x="907" 
d="M1016 961l-20 -93q-15 -72 -87 -72q-19 0 -43 7q-147 58 -272 58q-75 0 -124 -38q-46 -34 -57 -85q-2 -8 -2 -16q0 -46 63 -67l189 -38q140 -26 197 -84q56 -56 56 -147q0 -37 -9 -80l-2 -9q-30 -133 -149 -226q-132 -103 -316 -103q-225 0 -379 106l19 93q16 72 89 72
q19 0 43 -6q146 -59 272 -59q76 0 131 39q51 35 61 84q3 12 3 23q0 51 -58 75q-23 9 -189 40q-138 27 -194 77q-63 56 -63 151q0 35 9 75q28 134 142 226q127 104 312 104q224 0 378 -107zM695 1225l-312 -146l-56 85q172 125 365 269h95l249 -269l-91 -85z" />
    <glyph glyph-name="Scedilla" unicode="&#x15e;" horiz-adv-x="1165" 
d="M467 -30q-174 7 -400 95l15 73q10 45 51 79q40 33 95 33q201 -67 364 -67q110 0 203 53q104 58 126 160q5 24 5 46q0 86 -85 125q-51 23 -268 57q-201 31 -280 95q-88 70 -88 198q0 46 11 100q43 203 222 323q164 112 373 112q230 0 479 -97l-16 -73q-9 -45 -50 -79
q-40 -33 -95 -33q-201 67 -364 67q-108 0 -195 -55q-97 -61 -119 -165q-4 -19 -4 -36q0 -80 89 -115q38 -15 274 -51q199 -31 280 -102t81 -197q0 -49 -12 -107l-3 -12q-47 -202 -232 -321q-144 -92 -306 -105l-17 -20q107 -59 107 -146q0 -16 -4 -33q-13 -57 -75 -123
q-75 -59 -162 -59q-95 0 -211 77l7 61l1 5q10 45 60 49h5q10 0 24 -3q85 -37 134 -37q28 0 40 10q6 10 9 22q1 4 1 8q0 52 -140 95z" />
    <glyph glyph-name="scedilla" unicode="&#x15f;" horiz-adv-x="932" 
d="M365 -29q-164 6 -304 103l19 93q16 72 89 72q19 0 43 -6q146 -59 272 -59q76 0 131 39q51 35 61 84q3 12 3 23q0 51 -58 75q-23 9 -189 40q-138 27 -194 77q-63 56 -63 151q0 35 9 75q28 134 142 226q127 104 312 104q224 0 378 -107l-20 -93q-15 -72 -87 -72
q-19 0 -43 7q-147 58 -272 58q-75 0 -124 -38q-46 -34 -57 -85q-2 -8 -2 -16q0 -46 63 -67l189 -38q140 -26 197 -84q56 -56 56 -147q0 -37 -9 -80l-2 -9q-30 -133 -149 -226q-108 -85 -239 -98l-18 -22q107 -59 107 -146q0 -16 -4 -33q-13 -57 -75 -123q-75 -59 -162 -59
q-95 0 -211 77l7 61l1 5q10 45 60 49h5q10 0 24 -3q85 -37 134 -37q28 0 40 10q6 10 9 22q1 4 1 8q0 52 -140 95z" />
    <glyph glyph-name="Scaron" unicode="&#x160;" horiz-adv-x="1140" 
d="M795 236q104 58 126 160q5 24 5 46q0 86 -85 125q-51 23 -268 57q-201 31 -280 95q-88 70 -88 198q0 46 11 100q43 203 222 323q164 112 373 112q230 0 479 -97l-16 -73q-9 -45 -50 -79q-40 -33 -95 -33q-201 67 -364 67q-108 0 -195 -55q-97 -61 -119 -165
q-4 -19 -4 -36q0 -80 89 -115q38 -15 274 -51q199 -31 280 -102t81 -197q0 -49 -12 -107l-3 -12q-47 -202 -232 -321q-168 -108 -378 -108q-230 0 -479 97l15 73q10 45 51 79q40 33 95 33q201 -67 364 -67q110 0 203 53zM1124 1817l55 -85l-364 -269h-95q-132 144 -250 269
l92 85l250 -146z" />
    <glyph glyph-name="scaron" unicode="&#x161;" horiz-adv-x="907" 
d="M1016 961l-20 -93q-15 -72 -87 -72q-19 0 -43 7q-147 58 -272 58q-75 0 -124 -38q-46 -34 -57 -85q-2 -8 -2 -16q0 -46 63 -67l189 -38q140 -26 197 -84q56 -56 56 -147q0 -37 -9 -80l-2 -9q-30 -133 -149 -226q-132 -103 -316 -103q-225 0 -379 106l19 93q16 72 89 72
q19 0 43 -6q146 -59 272 -59q76 0 131 39q51 35 61 84q3 12 3 23q0 51 -58 75q-23 9 -189 40q-138 27 -194 77q-63 56 -63 151q0 35 9 75q28 134 142 226q127 104 312 104q224 0 378 -107zM1022 1440l55 -85l-364 -269h-95q-132 144 -250 269l92 85l250 -146z" />
    <glyph glyph-name="uni0162" unicode="&#x162;" horiz-adv-x="976" 
d="M356 1225q-48 0 -74 33q-18 23 -18 53q0 10 2 22l22 100h944q48 0 73 -32q19 -25 19 -54q0 -11 -2 -22l-22 -100h-411l-241 -1137q-9 -43 -49 -76q-39 -32 -87 -32h-122l264 1245h-298zM564 21l-61 -71q107 -59 107 -146q0 -16 -4 -33q-13 -57 -75 -123q-75 -59 -162 -59
q-95 0 -211 77l7 61l1 5q10 45 60 49h5q10 0 24 -3q85 -37 134 -37q28 0 40 10q6 10 9 22q1 4 1 8q0 52 -140 95l109 145h156z" />
    <glyph glyph-name="uni0163" unicode="&#x163;" horiz-adv-x="813" 
d="M301 848q-48 0 -74 33q-18 23 -18 53q0 10 2 22l21 100h145l35 163q9 44 48 75q40 33 88 33h113l-58 -271h304q48 0 74 -32q19 -25 19 -54q0 -11 -2 -22l-22 -100h-417l-105 -493q-8 -38 -8 -67q0 -58 30 -83q38 -31 155 -31q51 0 113 9q96 0 96 -64q0 -11 -3 -24
l-21 -100q-129 -27 -229 -27q-221 0 -306 80q-67 62 -67 184q0 55 14 123l105 493h-32zM674 22l-61 -71q107 -59 107 -146q0 -16 -4 -33q-13 -57 -75 -123q-75 -59 -162 -59q-95 0 -211 77l7 61l1 5q10 45 60 49h5q10 0 24 -3q85 -37 134 -37q28 0 40 10q6 10 9 22q1 4 1 8
q0 52 -140 95l109 145h156z" />
    <glyph glyph-name="Tcaron" unicode="&#x164;" horiz-adv-x="976" 
d="M356 1225q-48 0 -74 33q-18 23 -18 53q0 10 2 22l22 100h944q48 0 73 -32q19 -25 19 -54q0 -11 -2 -22l-22 -100h-411l-241 -1137q-9 -43 -49 -76q-39 -32 -87 -32h-122l264 1245h-298zM1099 1817l55 -85l-364 -269h-95q-132 144 -250 269l92 85l250 -146z" />
    <glyph glyph-name="tcaron" unicode="&#x165;" horiz-adv-x="1212" 
d="M301 848q-48 0 -74 33q-18 23 -18 53q0 10 2 22l21 100h145l35 163q9 44 48 75q40 33 88 33h113l-58 -271h304q48 0 74 -32q19 -25 19 -54q0 -11 -2 -22l-22 -100h-417l-105 -493q-8 -38 -8 -67q0 -58 30 -83q38 -31 155 -31q51 0 113 9q96 0 96 -64q0 -11 -3 -24
l-21 -100q-129 -27 -229 -27q-221 0 -306 80q-67 62 -67 184q0 55 14 123l105 493h-32zM1035 998q113 137 159 353q7 33 40 59q30 23 68 23h90l-9 -42q-40 -186 -205 -358q-34 -35 -65 -35h-78z" />
    <glyph glyph-name="Tbar" unicode="&#x166;" horiz-adv-x="976" 
d="M371 1225q-48 0 -74 33q-18 23 -18 53q0 10 2 22l22 100h944q48 0 73 -32q19 -25 19 -54q0 -11 -2 -22l-22 -100h-411l-241 -1137q-9 -43 -49 -76q-39 -32 -87 -32h-122l264 1245h-298zM23 617q-41 0 -62 36q-9 21 -9 45q0 14 3 30l15 69h996q42 0 62 -36q9 -19 9 -43
q0 -15 -4 -31l-14 -70h-996z" />
    <glyph glyph-name="tbar" unicode="&#x167;" horiz-adv-x="813" 
d="M421 848q-48 0 -74 33q-18 23 -18 53q0 10 2 22l21 100h145l35 163q9 44 48 75q40 33 88 33h113l-58 -271h304q48 0 74 -32q19 -25 19 -54q0 -11 -2 -22l-22 -100h-417l-105 -493q-8 -38 -8 -67q0 -58 30 -83q38 -31 155 -31q51 0 113 9q96 0 96 -64q0 -11 -3 -24
l-21 -100q-129 -27 -229 -27q-221 0 -306 80q-67 62 -67 184q0 55 14 123l105 493h-32zM10 426q-41 0 -62 36q-9 21 -9 45q0 14 3 30l15 69h996q42 0 62 -36q9 -19 9 -43q0 -15 -4 -31l-14 -70h-996z" />
    <glyph glyph-name="Utilde" unicode="&#x168;" horiz-adv-x="1237" 
d="M1204 391q-43 -201 -234 -318q-171 -104 -386 -105q-216 0 -344 104q-110 90 -110 230q0 42 10 89l222 1042h235l-222 -1042q-5 -23 -5 -43q0 -73 62 -116q69 -49 192 -49h5q126 0 216 49q102 56 124 159l222 1042h235zM1189 1617q-131 -125 -243 -125q-66 0 -125 42
q-65 46 -128 46q-59 0 -156 -69l-17 116q122 115 229 115q67 0 129 -43t123 -43q66 0 169 78z" />
    <glyph glyph-name="utilde" unicode="&#x169;" horiz-adv-x="1138" 
d="M469 -32q-327 0 -327 255q0 51 13 112l153 721h113q48 0 74 -32q19 -25 19 -54q0 -11 -2 -22l-126 -590q-7 -31 -7 -57q0 -127 161 -127q234 0 334 178l127 596q9 43 49 76q38 32 86 32h113l-228 -1076h-113q-48 0 -74 32q-19 23 -19 53q0 11 3 23q-116 -120 -349 -120z
M1154 1240q-131 -125 -243 -125q-66 0 -125 42q-65 46 -128 46q-59 0 -156 -69l-17 116q122 115 229 115q67 0 129 -43t123 -43q66 0 169 78z" />
    <glyph glyph-name="Umacron" unicode="&#x16a;" horiz-adv-x="1237" 
d="M1204 391q-43 -201 -234 -318q-171 -104 -386 -105q-216 0 -344 104q-110 90 -110 230q0 42 10 89l222 1042h235l-222 -1042q-5 -23 -5 -43q0 -73 62 -116q69 -49 192 -49h5q126 0 216 49q102 56 124 159l222 1042h235zM590 1487q-41 0 -61 36q-9 21 -9 45q0 14 3 30
l14 69h561q42 0 63 -36q9 -19 9 -43q0 -15 -4 -31l-15 -70h-561z" />
    <glyph glyph-name="umacron" unicode="&#x16b;" horiz-adv-x="1138" 
d="M469 -32q-327 0 -327 255q0 51 13 112l153 721h113q48 0 74 -32q19 -25 19 -54q0 -11 -2 -22l-126 -590q-7 -31 -7 -57q0 -127 161 -127q234 0 334 178l127 596q9 43 49 76q38 32 86 32h113l-228 -1076h-113q-48 0 -74 32q-19 23 -19 53q0 11 3 23q-116 -120 -349 -120z
M556 1110q-41 0 -61 36q-9 21 -9 45q0 14 3 30l14 69h561q42 0 63 -36q9 -19 9 -43q0 -15 -4 -31l-15 -70h-561z" />
    <glyph glyph-name="Ubreve" unicode="&#x16c;" horiz-adv-x="1237" 
d="M1204 391q-43 -201 -234 -318q-171 -104 -386 -105q-216 0 -344 104q-110 90 -110 230q0 42 10 89l222 1042h235l-222 -1042q-5 -23 -5 -43q0 -73 62 -116q69 -49 192 -49h5q126 0 216 49q102 56 124 159l222 1042h235zM1170 1827l59 -90q-173 -274 -412 -274
q-240 0 -288 274l97 90q106 -204 229 -204t315 204z" />
    <glyph glyph-name="ubreve" unicode="&#x16d;" horiz-adv-x="1138" 
d="M469 -32q-327 0 -327 255q0 51 13 112l153 721h113q48 0 74 -32q19 -25 19 -54q0 -11 -2 -22l-126 -590q-7 -31 -7 -57q0 -127 161 -127q234 0 334 178l127 596q9 43 49 76q38 32 86 32h113l-228 -1076h-113q-48 0 -74 32q-19 23 -19 53q0 11 3 23q-116 -120 -349 -120z
M1135 1450l59 -90q-173 -274 -412 -274q-240 0 -288 274l97 90q106 -204 229 -204t315 204z" />
    <glyph glyph-name="Uring" unicode="&#x16e;" horiz-adv-x="1237" 
d="M1204 391q-43 -201 -234 -318q-171 -104 -386 -105q-216 0 -344 104q-110 90 -110 230q0 42 10 89l222 1042h235l-222 -1042q-5 -23 -5 -43q0 -73 62 -116q69 -49 192 -49h5q126 0 216 49q102 56 124 159l222 1042h235zM1028 1751q33 -43 33 -97q0 -21 -5 -44
q-17 -81 -88.5 -140.5t-158.5 -59.5t-133 60q-35 43 -35 98q0 20 5 42q18 82 89.5 141t158.5 59t134 -59zM865 1674q-23 0 -44.5 -18t-27.5 -46q-2 -8 -2 -15q0 -17 10 -30q14 -18 37 -18t44.5 18t27.5 45q2 8 2 16q0 17 -10 30q-14 18 -37 18z" />
    <glyph glyph-name="uring" unicode="&#x16f;" horiz-adv-x="1138" 
d="M469 -32q-327 0 -327 255q0 51 13 112l153 721h113q48 0 74 -32q19 -25 19 -54q0 -11 -2 -22l-126 -590q-7 -31 -7 -57q0 -127 161 -127q234 0 334 178l127 596q9 43 49 76q38 32 86 32h113l-228 -1076h-113q-48 0 -74 32q-19 23 -19 53q0 11 3 23q-116 -120 -349 -120z
M994 1374q33 -43 33 -97q0 -21 -5 -44q-17 -81 -88.5 -140.5t-158.5 -59.5t-133 60q-35 43 -35 98q0 20 5 42q18 82 89.5 141t158.5 59t134 -59zM831 1297q-23 0 -44.5 -18t-27.5 -46q-2 -8 -2 -15q0 -17 10 -30q14 -18 37 -18t44.5 18t27.5 45q2 8 2 16q0 17 -10 30
q-14 18 -37 18z" />
    <glyph glyph-name="Uhungarumlaut" unicode="&#x170;" horiz-adv-x="1237" 
d="M1204 391q-43 -201 -234 -318q-171 -104 -386 -105q-216 0 -344 104q-110 90 -110 230q0 42 10 89l222 1042h235l-222 -1042q-5 -23 -5 -43q0 -73 62 -116q69 -49 192 -49h5q126 0 216 49q102 56 124 159l222 1042h235zM436 1456l-55 85l359 265q39 17 69 17
q82 0 82 -128q0 -13 -1 -27zM859 1456l-55 85l359 265q39 17 69 17q82 0 82 -128q0 -13 -1 -27z" />
    <glyph glyph-name="uhungarumlaut" unicode="&#x171;" horiz-adv-x="1138" 
d="M469 -32q-327 0 -327 255q0 51 13 112l153 721h113q48 0 74 -32q19 -25 19 -54q0 -11 -2 -22l-126 -590q-7 -31 -7 -57q0 -127 161 -127q234 0 334 178l127 596q9 43 49 76q38 32 86 32h113l-228 -1076h-113q-48 0 -74 32q-19 23 -19 53q0 11 3 23q-116 -120 -349 -120z
M402 1079l-55 85l359 265q39 17 69 17q82 0 82 -128q0 -13 -1 -27zM825 1079l-55 85l359 265q39 17 69 17q82 0 82 -128q0 -13 -1 -27z" />
    <glyph glyph-name="Uogonek" unicode="&#x172;" horiz-adv-x="1237" 
d="M1204 391q-43 -201 -234 -318q-171 -104 -386 -105q-216 0 -344 104q-110 90 -110 230q0 42 10 89l222 1042h235l-222 -1042q-5 -23 -5 -43q0 -73 62 -116q69 -49 192 -49h5q126 0 216 49q102 56 124 159l222 1042h235zM696 20q-233 -171 -249 -245q-2 -7 -2 -13
q0 -14 8 -24q10 -6 32 -6q50 0 146 42q19 5 31 5q43 0 43 -34q0 -6 -2 -14l-12 -57q-155 -85 -256 -85q-48 0 -88 19q-71 48 -71 112q0 13 3 27q24 112 259 273h158z" />
    <glyph glyph-name="uogonek" unicode="&#x173;" horiz-adv-x="1138" 
d="M469 -32q-327 0 -327 255q0 51 13 112l153 721h113q48 0 74 -32q19 -25 19 -54q0 -11 -2 -22l-126 -590q-7 -31 -7 -57q0 -127 161 -127q234 0 334 178l127 596q9 43 49 76q38 32 86 32h113l-228 -1076h-113q-48 0 -74 32q-19 23 -19 53q0 11 3 23q-116 -120 -349 -120z
M1061 20q-233 -171 -249 -245q-2 -7 -2 -13q0 -14 8 -24q10 -6 32 -6q50 0 146 42q19 5 31 5q43 0 43 -34q0 -6 -2 -14l-12 -57q-155 -85 -256 -85q-48 0 -88 19q-71 48 -71 112q0 13 3 27q24 112 259 273h158z" />
    <glyph glyph-name="Wcircumflex" unicode="&#x174;" horiz-adv-x="2083" 
d="M610 254l521 1053q56 125 182 125h89q125 0 130 -124l73 -1054l521 1053q58 125 183 125h119l-660 -1337q-59 -126 -185 -126h-78q-125 0 -129 124l-74 1072l-530 -1070q-59 -126 -184 -126h-78q-126 0 -130 124l-93 1339h119q126 0 131 -124zM1314 1602l-312 -146
l-56 85q172 125 365 269h95l249 -269l-91 -85z" />
    <glyph glyph-name="wcircumflex" unicode="&#x175;" horiz-adv-x="1538" 
d="M321 1056q113 0 120 -106l21 -711l308 711q51 106 163 106h76q112 0 119 -106l28 -711l301 711q51 106 164 106h98l-401 -969q-51 -107 -164 -107h-103q-112 0 -119 106l-25 684l-284 -683q-51 -107 -164 -107h-102q-113 0 -120 106l-36 970h120zM997 1225l-312 -146
l-56 85q172 125 365 269h95l249 -269l-91 -85z" />
    <glyph glyph-name="Ycircumflex" unicode="&#x176;" horiz-adv-x="1136" 
d="M701 88q-9 -43 -49 -76q-39 -32 -87 -32h-122l132 623q-140 1 -190 48q-56 50 -65 226l-33 556h126q104 0 108 -81l33 -456q4 -61 28 -74q18 -12 92 -12h125q73 0 97 12q28 13 59 74l227 456q39 81 143 81h126l-271 -556q-81 -169 -158 -221q-73 -49 -212 -52zM825 1602
l-312 -146l-56 85q172 125 365 269h95l249 -269l-91 -85z" />
    <glyph glyph-name="ycircumflex" unicode="&#x177;" horiz-adv-x="1141" 
d="M1054 143q-117 -550 -631 -550q-250 0 -404 106l20 93q15 72 88 72q19 0 43 -6q145 -59 297 -59q164 0 252 97q74 81 109 247q-137 -175 -360 -175q-327 0 -327 255q0 51 13 112l153 721h113q48 0 74 -32q19 -25 19 -54q0 -11 -2 -22l-126 -590q-7 -31 -7 -57
q0 -127 161 -127q227 0 337 195l124 579q9 43 49 76q38 32 86 32h113zM814 1225l-312 -146l-56 85q172 125 365 269h95l249 -269l-91 -85z" />
    <glyph glyph-name="Ydieresis" unicode="&#x178;" horiz-adv-x="1136" 
d="M701 88q-9 -43 -49 -76q-39 -32 -87 -32h-122l132 623q-140 1 -190 48q-56 50 -65 226l-33 556h126q104 0 108 -81l33 -456q4 -61 28 -74q18 -12 92 -12h125q73 0 97 12q28 13 59 74l227 456q39 81 143 81h126l-271 -556q-81 -169 -158 -221q-73 -49 -212 -52zM541 1606
q9 43 51 76q39 32 90 32h117l-31 -145q-9 -43 -51 -76q-39 -32 -89 -32h-118zM1078 1461h-118q-50 0 -75 32q-21 25 -21 56q0 10 2 20l31 145h117q51 0 76 -32q21 -25 21 -56q0 -10 -2 -20z" />
    <glyph glyph-name="Zacute" unicode="&#x179;" horiz-adv-x="1100" 
d="M1258 1432q50 0 76 -32q19 -25 19 -57q0 -10 -2 -22l-23 -107l-1006 -1024h671q50 0 76 -32q19 -25 19 -57q0 -10 -2 -22l-21 -99h-940q-50 0 -76 35q-19 23 -19 54q0 10 2 22l23 107l1006 1024h-672q-50 0 -76 35q-19 23 -19 54q0 10 2 22l21 99h941zM671 1456l-55 85
l359 265q39 17 69 17q82 0 82 -128q0 -13 -1 -27z" />
    <glyph glyph-name="zacute" unicode="&#x17a;" horiz-adv-x="874" 
d="M955 1056q48 0 74 -32q19 -25 19 -54q0 -11 -2 -22l-19 -86l-684 -675h428q48 0 74 -32q18 -24 18 -53q0 -11 -2 -23l-21 -99h-713q-48 0 -74 32q-19 23 -19 53q0 11 3 23l18 85l684 675h-428q-48 0 -74 33q-18 23 -18 53q0 10 2 22l21 100h713zM560 1079l-55 85l359 265
q39 17 69 17q82 0 82 -128q0 -13 -1 -27z" />
    <glyph glyph-name="Zdotaccent" unicode="&#x17b;" horiz-adv-x="1100" 
d="M1258 1432q50 0 76 -32q19 -25 19 -57q0 -10 -2 -22l-23 -107l-1006 -1024h671q50 0 76 -32q19 -25 19 -57q0 -10 -2 -22l-21 -99h-940q-50 0 -76 35q-19 23 -19 54q0 10 2 22l23 107l1006 1024h-672q-50 0 -76 35q-19 23 -19 54q0 10 2 22l21 99h941zM685 1606
q9 43 51 76q39 32 90 32h117l-31 -145q-9 -43 -51 -76q-39 -32 -89 -32h-118z" />
    <glyph glyph-name="zdotaccent" unicode="&#x17c;" horiz-adv-x="874" 
d="M955 1056q48 0 74 -32q19 -25 19 -54q0 -11 -2 -22l-19 -86l-684 -675h428q48 0 74 -32q18 -24 18 -53q0 -11 -2 -23l-21 -99h-713q-48 0 -74 32q-19 23 -19 53q0 11 3 23l18 85l684 675h-428q-48 0 -74 33q-18 23 -18 53q0 10 2 22l21 100h713zM575 1229q9 43 51 76
q39 32 90 32h117l-31 -145q-9 -43 -51 -76q-39 -32 -89 -32h-118z" />
    <glyph glyph-name="Zcaron" unicode="&#x17d;" horiz-adv-x="1100" 
d="M1258 1432q50 0 76 -32q19 -25 19 -57q0 -10 -2 -22l-23 -107l-1006 -1024h671q50 0 76 -32q19 -25 19 -57q0 -10 -2 -22l-21 -99h-940q-50 0 -76 35q-19 23 -19 54q0 10 2 22l23 107l1006 1024h-672q-50 0 -76 35q-19 23 -19 54q0 10 2 22l21 99h941zM1129 1817l55 -85
l-364 -269h-95q-132 144 -250 269l92 85l250 -146z" />
    <glyph glyph-name="zcaron" unicode="&#x17e;" horiz-adv-x="874" 
d="M955 1056q48 0 74 -32q19 -25 19 -54q0 -11 -2 -22l-19 -86l-684 -675h428q48 0 74 -32q18 -24 18 -53q0 -11 -2 -23l-21 -99h-713q-48 0 -74 32q-19 23 -19 53q0 11 3 23l18 85l684 675h-428q-48 0 -74 33q-18 23 -18 53q0 10 2 22l21 100h713zM1019 1440l55 -85
l-364 -269h-95q-132 144 -250 269l92 85l250 -146z" />
    <glyph glyph-name="longs" unicode="&#x17f;" horiz-adv-x="707" 
d="M374 88q-10 -44 -48 -75q-40 -33 -88 -33h-113l228 1076q46 216 184 307q119 80 339 80q100 0 217 -28l-21 -100q-19 -88 -131 -88q-58 10 -109 10q-117 0 -168 -32q-61 -38 -85 -149z" />
    <glyph glyph-name="uni0218" unicode="&#x218;" horiz-adv-x="1140" 
d="M795 236q104 58 126 160q5 24 5 46q0 86 -85 125q-51 23 -268 57q-201 31 -280 95q-88 70 -88 198q0 46 11 100q43 203 222 323q164 112 373 112q230 0 479 -97l-16 -73q-9 -45 -50 -79q-40 -33 -95 -33q-201 67 -364 67q-108 0 -195 -55q-97 -61 -119 -165
q-4 -19 -4 -36q0 -80 89 -115q38 -15 274 -51q199 -31 280 -102t81 -197q0 -49 -12 -107l-3 -12q-47 -202 -232 -321q-168 -108 -378 -108q-230 0 -479 97l15 73q10 45 51 79q40 33 95 33q201 -67 364 -67q110 0 203 53zM283 -438q126 123 165 306q7 31 42 52q32 20 72 20
h99l-8 -38q-34 -163 -216 -311q-34 -29 -65 -29h-89z" />
    <glyph glyph-name="uni0219" unicode="&#x219;" horiz-adv-x="907" 
d="M1016 961l-20 -93q-15 -72 -87 -72q-19 0 -43 7q-147 58 -272 58q-75 0 -124 -38q-46 -34 -57 -85q-2 -8 -2 -16q0 -46 63 -67l189 -38q140 -26 197 -84q56 -56 56 -147q0 -37 -9 -80l-2 -9q-30 -133 -149 -226q-132 -103 -316 -103q-225 0 -379 106l19 93q16 72 89 72
q19 0 43 -6q146 -59 272 -59q76 0 131 39q51 35 61 84q3 12 3 23q0 51 -58 75q-23 9 -189 40q-138 27 -194 77q-63 56 -63 151q0 35 9 75q28 134 142 226q127 104 312 104q224 0 378 -107zM182 -438q126 123 165 306q7 31 42 52q32 20 72 20h99l-8 -38q-34 -163 -216 -311
q-34 -29 -65 -29h-89z" />
    <glyph glyph-name="uni021A" unicode="&#x21a;" horiz-adv-x="976" 
d="M356 1225q-48 0 -74 33q-18 23 -18 53q0 10 2 22l22 100h944q48 0 73 -32q19 -25 19 -54q0 -11 -2 -22l-22 -100h-411l-241 -1137q-9 -43 -49 -76q-39 -32 -87 -32h-122l264 1245h-298zM259 -438q126 123 165 306q7 31 42 52q32 20 72 20h99l-8 -38q-34 -163 -216 -311
q-34 -29 -65 -29h-89z" />
    <glyph glyph-name="uni021B" unicode="&#x21b;" horiz-adv-x="813" 
d="M301 848q-48 0 -74 33q-18 23 -18 53q0 10 2 22l21 100h145l35 163q9 44 48 75q40 33 88 33h113l-58 -271h304q48 0 74 -32q19 -25 19 -54q0 -11 -2 -22l-22 -100h-417l-105 -493q-8 -38 -8 -67q0 -58 30 -83q38 -31 155 -31q51 0 113 9q96 0 96 -64q0 -11 -3 -24
l-21 -100q-129 -27 -229 -27q-221 0 -306 80q-67 62 -67 184q0 55 14 123l105 493h-32zM141 -438q126 123 165 306q7 31 42 52q32 20 72 20h99l-8 -38q-34 -163 -216 -311q-34 -29 -65 -29h-89z" />
    <glyph glyph-name="uni0232" unicode="&#x232;" horiz-adv-x="1136" 
d="M701 88q-9 -43 -49 -76q-39 -32 -87 -32h-122l132 623q-140 1 -190 48q-56 50 -65 226l-33 556h126q104 0 108 -81l33 -456q4 -61 28 -74q18 -12 92 -12h125q73 0 97 12q28 13 59 74l227 456q39 81 143 81h126l-271 -556q-81 -169 -158 -221q-73 -49 -212 -52zM565 1487
q-41 0 -61 36q-9 21 -9 45q0 14 3 30l14 69h561q42 0 63 -36q9 -19 9 -43q0 -15 -4 -31l-15 -70h-561z" />
    <glyph glyph-name="uni0233" unicode="&#x233;" horiz-adv-x="1141" 
d="M1054 143q-117 -550 -631 -550q-250 0 -404 106l20 93q15 72 88 72q19 0 43 -6q145 -59 297 -59q164 0 252 97q74 81 109 247q-137 -175 -360 -175q-327 0 -327 255q0 51 13 112l153 721h113q48 0 74 -32q19 -25 19 -54q0 -11 -2 -22l-126 -590q-7 -31 -7 -57
q0 -127 161 -127q227 0 337 195l124 579q9 43 49 76q38 32 86 32h113zM555 1110q-41 0 -61 36q-9 21 -9 45q0 14 3 30l14 69h561q42 0 63 -36q9 -19 9 -43q0 -15 -4 -31l-15 -70h-561z" />
    <glyph glyph-name="uni1E0C" unicode="&#x1e0c;" horiz-adv-x="1356" 
d="M1344 535q-56 -260 -252 -409q-192 -146 -458 -146h-593l195 917q55 259 252 409q192 146 459 146q266 0 396 -146q94 -106 94 -267q0 -66 -16 -142zM678 188q159 0 273 87q122 91 156 252l79 370q10 47 10 88q0 100 -59 165q-77 87 -236 87q-160 0 -275 -87
q-121 -92 -155 -253l-151 -709h358zM484 -237q8 38 42 65q37 30 81 30h104l-27 -126q-8 -38 -45 -67q-35 -28 -79 -28h-103z" />
    <glyph glyph-name="uni1E0D" unicode="&#x1e0d;" horiz-adv-x="1180" 
d="M1018 811q-129 51 -277 51q-159 0 -247 -91q-78 -81 -115 -253q-18 -82 -18 -143q0 -68 22 -110q46 -91 204 -91q227 0 337 195zM516 -32q-386 0 -386 355q0 87 23 195q117 550 632 550q175 0 279 -43l64 300q9 43 49 76q39 32 87 32h113l-309 -1453h-113q-48 0 -74 33
q-19 22 -19 52q0 11 3 23q-106 -120 -349 -120zM404 -237q8 38 42 65q37 30 81 30h104l-27 -126q-8 -38 -45 -67q-35 -28 -79 -28h-103z" />
    <glyph glyph-name="uni1E24" unicode="&#x1e24;" horiz-adv-x="1301" 
d="M323 88q-9 -43 -49 -76q-39 -32 -87 -32h-122l309 1453h122q48 0 73 -32q19 -25 19 -54q0 -11 -2 -22l-110 -515h618l110 515q9 43 49 76q39 32 87 32h122l-309 -1453h-122q-48 0 -73 32q-19 25 -19 54q0 11 2 22l109 514h-618zM459 -237q8 38 42 65q37 30 81 30h104
l-27 -126q-8 -38 -45 -67q-35 -28 -79 -28h-103z" />
    <glyph glyph-name="uni1E25" unicode="&#x1e25;" horiz-adv-x="1144" 
d="M1030 -20h-113q-48 0 -74 33q-19 22 -19 52q0 11 3 23l125 590q7 31 7 57q0 127 -161 127q-227 0 -337 -194l-123 -580q-10 -44 -48 -75q-40 -33 -88 -33h-113l309 1453h113q48 0 73 -32q19 -25 19 -54q0 -11 -2 -22l-82 -383q128 126 350 126q327 0 327 -255
q0 -51 -13 -112zM410 -237q8 38 42 65q37 30 81 30h104l-27 -126q-8 -38 -45 -67q-35 -28 -79 -28h-103z" />
    <glyph glyph-name="uni1E32" unicode="&#x1e32;" horiz-adv-x="1193" 
d="M753 810q92 1 122 18q38 22 84 115l204 409q39 81 143 81h126l-279 -574q-42 -88 -83 -110q46 -35 55 -213l34 -556h-126q-104 0 -108 80l-33 457q-5 60 -28 74q-18 11 -93 11h-339l-109 -514q-9 -43 -49 -76q-39 -32 -87 -32h-122l309 1453h122q48 0 73 -32
q19 -25 19 -54q0 -11 -2 -22l-110 -515h277zM459 -237q8 38 42 65q37 30 81 30h104l-27 -126q-8 -38 -45 -67q-35 -28 -79 -28h-103z" />
    <glyph glyph-name="uni1E33" unicode="&#x1e33;" horiz-adv-x="1036" 
d="M400 1433h113q48 0 73 -32q19 -25 19 -54q0 -11 -2 -22l-150 -703h233q72 0 97 41l171 309q45 84 152 84h121l-214 -388q-54 -97 -80 -113q37 -32 49 -123l58 -452h-121q-107 0 -117 78l-40 314q-5 42 -60 42h-293l-69 -326q-10 -44 -48 -75q-40 -33 -88 -33h-113z
M412 -237q8 38 42 65q37 30 81 30h104l-27 -126q-8 -38 -45 -67q-35 -28 -79 -28h-103z" />
    <glyph glyph-name="uni1E36" unicode="&#x1e36;" 
d="M351 1440h117q51 0 77 -33q20 -25 20 -56q0 -11 -3 -23l-171 -805q-10 -47 -10 -89q0 -100 58 -164q78 -87 238 -87q162 0 391 67q55 0 83 -34q19 -24 19 -54q0 -11 -3 -24l-15 -73q-291 -97 -521 -97q-267 0 -397 146q-94 105 -94 266q0 67 16 143zM438 -237q8 38 42 65
q37 30 81 30h104l-27 -126q-8 -38 -45 -67q-35 -28 -79 -28h-103z" />
    <glyph glyph-name="uni1E37" unicode="&#x1e37;" horiz-adv-x="532" 
d="M393 1433h113q48 0 73 -32q19 -25 19 -54q0 -11 -2 -22l-208 -978q-17 -79 -17 -118q0 -35 13 -39q20 -7 49 -7q21 0 49 4q96 0 96 -65q0 -11 -3 -24l-21 -100q-104 -23 -185 -23q-25 0 -50 2q-112 8 -156 87q-23 39 -23 110t22 173zM167 -237q8 38 42 65q37 30 81 30
h104l-27 -126q-8 -38 -45 -67q-35 -28 -79 -28h-103z" />
    <glyph glyph-name="uni1E38" unicode="&#x1e38;" 
d="M351 1440h117q51 0 77 -33q20 -25 20 -56q0 -11 -3 -23l-171 -805q-10 -47 -10 -89q0 -100 58 -164q78 -87 238 -87q162 0 391 67q55 0 83 -34q19 -24 19 -54q0 -11 -3 -24l-15 -73q-291 -97 -521 -97q-267 0 -397 146q-94 105 -94 266q0 67 16 143zM593 1487
q-41 0 -61 36q-9 21 -9 45q0 14 3 30l14 69h561q42 0 63 -36q9 -19 9 -43q0 -15 -4 -31l-15 -70h-561zM438 -237q8 38 42 65q37 30 81 30h104l-27 -126q-8 -38 -45 -67q-35 -28 -79 -28h-103z" />
    <glyph glyph-name="uni1E39" unicode="&#x1e39;" horiz-adv-x="532" 
d="M486 1433h113q48 0 73 -32q19 -25 19 -54q0 -11 -2 -22l-208 -978q-17 -79 -17 -118q0 -35 13 -39q20 -7 49 -7q21 0 49 4q96 0 96 -65q0 -11 -3 -24l-21 -100q-104 -23 -185 -23q-25 0 -50 2q-112 8 -156 87q-23 39 -23 110t22 173zM415 1487q-41 0 -61 36q-9 21 -9 45
q0 14 3 30l14 69h561q42 0 63 -36q9 -19 9 -43q0 -15 -4 -31l-15 -70h-561zM260 -237q8 38 42 65q37 30 81 30h104l-27 -126q-8 -38 -45 -67q-35 -28 -79 -28h-103z" />
    <glyph glyph-name="uni1E3A" unicode="&#x1e3a;" 
d="M351 1440h117q51 0 77 -33q20 -25 20 -56q0 -11 -3 -23l-171 -805q-10 -47 -10 -89q0 -100 58 -164q78 -87 238 -87q162 0 391 67q55 0 83 -34q19 -24 19 -54q0 -11 -3 -24l-15 -73q-291 -97 -521 -97q-267 0 -397 146q-94 105 -94 266q0 67 16 143zM137 -343
q-41 0 -61 36q-9 21 -9 45q0 14 3 30l14 69h855q42 0 63 -36q9 -19 9 -43q0 -15 -4 -31l-15 -70h-855z" />
    <glyph glyph-name="uni1E3B" unicode="&#x1e3b;" horiz-adv-x="532" 
d="M633 1433h113q48 0 73 -32q19 -25 19 -54q0 -11 -2 -22l-208 -978q-17 -79 -17 -118q0 -35 13 -39q20 -7 49 -7q21 0 49 4q96 0 96 -65q0 -11 -3 -24l-21 -100q-104 -23 -185 -23q-25 0 -50 2q-112 8 -156 87q-23 39 -23 110t22 173zM106 -343q-41 0 -61 36q-9 21 -9 45
q0 14 3 30l14 69h855q42 0 63 -36q9 -19 9 -43q0 -15 -4 -31l-15 -70h-855z" />
    <glyph glyph-name="uni1E40" unicode="&#x1e40;" horiz-adv-x="1791" 
d="M64 -20l286 1348q10 45 51 79q40 33 90 33h95q112 -1 132 -109l191 -1092l656 1092q66 108 178 109h95q50 0 76 -33q20 -25 20 -56q0 -11 -3 -23l-286 -1348h-117q-51 0 -77 33q-20 25 -20 56q0 11 3 23l209 986l-599 -998q-60 -100 -157 -100h-65q-97 0 -115 100
l-175 998l-209 -986q-10 -45 -51 -79q-40 -33 -91 -33h-117zM1002 1606q9 43 51 76q39 32 90 32h117l-31 -145q-9 -43 -51 -76q-39 -32 -89 -32h-118z" />
    <glyph glyph-name="uni1E41" unicode="&#x1e41;" horiz-adv-x="1676" 
d="M857 678q10 47 10 81q0 47 -19 70q-26 33 -110 33q-174 0 -284 -194l-123 -580q-10 -44 -48 -75q-40 -33 -88 -33h-113l228 1076h113q48 0 74 -33q19 -23 19 -53q0 -11 -2 -22q116 120 295 120q280 0 289 -168q127 168 338 168q294 0 294 -247q0 -54 -14 -120l-153 -721
h-113q-49 0 -74 34q-19 22 -19 51q0 11 3 23l125 590q10 47 10 81q0 47 -19 70q-27 33 -111 33q-174 0 -284 -194l-123 -580q-10 -44 -48 -76q-39 -32 -88 -32h-113zM970 1229q9 43 51 76q39 32 90 32h117l-31 -145q-9 -43 -51 -76q-39 -32 -89 -32h-118z" />
    <glyph glyph-name="uni1E42" unicode="&#x1e42;" horiz-adv-x="1791" 
d="M64 -20l286 1348q10 45 51 79q40 33 90 33h95q112 -1 132 -109l191 -1092l656 1092q66 108 178 109h95q50 0 76 -33q20 -25 20 -56q0 -11 -3 -23l-286 -1348h-117q-51 0 -77 33q-20 25 -20 56q0 11 3 23l209 986l-599 -998q-60 -100 -157 -100h-65q-97 0 -115 100
l-175 998l-209 -986q-10 -45 -51 -79q-40 -33 -91 -33h-117zM705 -237q8 38 42 65q37 30 81 30h104l-27 -126q-8 -38 -45 -67q-35 -28 -79 -28h-103z" />
    <glyph glyph-name="uni1E43" unicode="&#x1e43;" horiz-adv-x="1676" 
d="M857 678q10 47 10 81q0 47 -19 70q-26 33 -110 33q-174 0 -284 -194l-123 -580q-10 -44 -48 -75q-40 -33 -88 -33h-113l228 1076h113q48 0 74 -33q19 -23 19 -53q0 -11 -2 -22q116 120 295 120q280 0 289 -168q127 168 338 168q294 0 294 -247q0 -54 -14 -120l-153 -721
h-113q-49 0 -74 34q-19 22 -19 51q0 11 3 23l125 590q10 47 10 81q0 47 -19 70q-27 33 -111 33q-174 0 -284 -194l-123 -580q-10 -44 -48 -76q-39 -32 -88 -32h-113zM673 -237q8 38 42 65q37 30 81 30h104l-27 -126q-8 -38 -45 -67q-35 -28 -79 -28h-103z" />
    <glyph glyph-name="uni1E44" unicode="&#x1e44;" horiz-adv-x="1397" 
d="M350 1328q10 45 51 79q40 33 90 33h206l378 -1171l249 1171h235l-286 -1348q-10 -45 -51 -79q-40 -33 -90 -33h-206l-378 1171l-225 -1059q-10 -45 -51 -79q-40 -33 -91 -33h-117zM804 1606q9 43 51 76q39 32 90 32h117l-31 -145q-9 -43 -51 -76q-39 -32 -89 -32h-118z
" />
    <glyph glyph-name="uni1E45" unicode="&#x1e45;" horiz-adv-x="1134" 
d="M1023 -20h-113q-48 0 -74 33q-19 22 -19 52q0 11 3 23l125 590q7 31 7 57q0 127 -161 127q-227 0 -337 -195l-123 -579q-10 -44 -48 -75q-40 -33 -88 -33h-113l228 1076h113q48 0 74 -33q19 -23 19 -53q0 -11 -2 -22q126 120 348 120q327 0 327 -255q0 -51 -13 -112z
M700 1229q9 43 51 76q39 32 90 32h117l-31 -145q-9 -43 -51 -76q-39 -32 -89 -32h-118z" />
    <glyph glyph-name="uni1E46" unicode="&#x1e46;" horiz-adv-x="1397" 
d="M350 1328q10 45 51 79q40 33 90 33h206l378 -1171l249 1171h235l-286 -1348q-10 -45 -51 -79q-40 -33 -90 -33h-206l-378 1171l-225 -1059q-10 -45 -51 -79q-40 -33 -91 -33h-117zM507 -237q8 38 42 65q37 30 81 30h104l-27 -126q-8 -38 -45 -67q-35 -28 -79 -28h-103z
" />
    <glyph glyph-name="uni1E47" unicode="&#x1e47;" horiz-adv-x="1134" 
d="M1023 -20h-113q-48 0 -74 33q-19 22 -19 52q0 11 3 23l125 590q7 31 7 57q0 127 -161 127q-227 0 -337 -195l-123 -579q-10 -44 -48 -75q-40 -33 -88 -33h-113l228 1076h113q48 0 74 -33q19 -23 19 -53q0 -11 -2 -22q126 120 348 120q327 0 327 -255q0 -51 -13 -112z
M403 -237q8 38 42 65q37 30 81 30h104l-27 -126q-8 -38 -45 -67q-35 -28 -79 -28h-103z" />
    <glyph glyph-name="uni1E48" unicode="&#x1e48;" horiz-adv-x="1397" 
d="M350 1328q10 45 51 79q40 33 90 33h206l378 -1171l249 1171h235l-286 -1348q-10 -45 -51 -79q-40 -33 -90 -33h-206l-378 1171l-225 -1059q-10 -45 -51 -79q-40 -33 -91 -33h-117zM206 -343q-41 0 -61 36q-9 21 -9 45q0 14 3 30l14 69h855q42 0 63 -36q9 -19 9 -43
q0 -15 -4 -31l-15 -70h-855z" />
    <glyph glyph-name="uni1E49" unicode="&#x1e49;" horiz-adv-x="1134" 
d="M1025 -20h-113q-48 0 -74 33q-19 22 -19 52q0 11 3 23l125 590q7 31 7 57q0 127 -161 127q-227 0 -337 -195l-123 -579q-10 -44 -48 -75q-40 -33 -88 -33h-113l228 1076h113q48 0 74 -33q19 -23 19 -53q0 -11 -2 -22q126 120 348 120q327 0 327 -255q0 -51 -13 -112z
M104 -343q-41 0 -61 36q-9 21 -9 45q0 14 3 30l14 69h855q42 0 63 -36q9 -19 9 -43q0 -15 -4 -31l-15 -70h-855z" />
    <glyph glyph-name="uni1E58" unicode="&#x1e58;" horiz-adv-x="1206" 
d="M461 773h236q358 0 413 256q5 23 5 43q0 72 -61 116q-70 49 -196 49h-5q-123 0 -212 -49q-103 -55 -125 -159zM1102 376l95 -396h-156q-89 0 -109 77l-75 319l-24 101q-14 88 -155 88h-261l-124 -585h-235l223 1049q43 202 236 319q171 104 384 104h4q214 -1 340 -105
q110 -90 110 -231q0 -41 -10 -87q-67 -313 -319 -401q31 -22 66 -212zM770 1606q9 43 51 76q39 32 90 32h117l-31 -145q-9 -43 -51 -76q-39 -32 -89 -32h-118z" />
    <glyph glyph-name="uni1E59" unicode="&#x1e59;" horiz-adv-x="840" 
d="M310 1056h113q48 0 74 -32q19 -25 19 -54q0 -11 -2 -22q116 120 295 120q99 0 217 -28l-21 -100q-19 -88 -131 -88q-59 9 -136 9q-174 0 -284 -194l-123 -579q-10 -44 -48 -76q-40 -32 -88 -32h-113zM589 1229q9 43 51 76q39 32 90 32h117l-31 -145q-9 -43 -51 -76
q-39 -32 -89 -32h-118z" />
    <glyph glyph-name="uni1E5A" unicode="&#x1e5a;" horiz-adv-x="1206" 
d="M461 773h236q358 0 413 256q5 23 5 43q0 72 -61 116q-70 49 -196 49h-5q-123 0 -212 -49q-103 -55 -125 -159zM1102 376l95 -396h-156q-89 0 -109 77l-75 319l-24 101q-14 88 -155 88h-261l-124 -585h-235l223 1049q43 202 236 319q171 104 384 104h4q214 -1 340 -105
q110 -90 110 -231q0 -41 -10 -87q-67 -313 -319 -401q31 -22 66 -212zM472 -237q8 38 42 65q37 30 81 30h104l-27 -126q-8 -38 -45 -67q-35 -28 -79 -28h-103z" />
    <glyph glyph-name="uni1E5B" unicode="&#x1e5b;" horiz-adv-x="840" 
d="M310 1056h113q48 0 74 -32q19 -25 19 -54q0 -11 -2 -22q116 120 295 120q99 0 217 -28l-21 -100q-19 -88 -131 -88q-59 9 -136 9q-174 0 -284 -194l-123 -579q-10 -44 -48 -76q-40 -32 -88 -32h-113zM178 -237q8 38 42 65q37 30 81 30h104l-27 -126q-8 -38 -45 -67
q-35 -28 -79 -28h-103z" />
    <glyph glyph-name="uni1E5C" unicode="&#x1e5c;" horiz-adv-x="1206" 
d="M461 773h236q358 0 413 256q5 23 5 43q0 72 -61 116q-70 49 -196 49h-5q-123 0 -212 -49q-103 -55 -125 -159zM1102 376l95 -396h-156q-89 0 -109 77l-75 319l-24 101q-14 88 -155 88h-261l-124 -585h-235l223 1049q43 202 236 319q171 104 384 104h4q214 -1 340 -105
q110 -90 110 -231q0 -41 -10 -87q-67 -313 -319 -401q31 -22 66 -212zM627 1487q-41 0 -61 36q-9 21 -9 45q0 14 3 30l14 69h561q42 0 63 -36q9 -19 9 -43q0 -15 -4 -31l-15 -70h-561zM472 -237q8 38 42 65q37 30 81 30h104l-27 -126q-8 -38 -45 -67q-35 -28 -79 -28h-103z
" />
    <glyph glyph-name="uni1E5D" unicode="&#x1e5d;" horiz-adv-x="840" 
d="M310 1056h113q48 0 74 -32q19 -25 19 -54q0 -11 -2 -22q116 120 295 120q99 0 217 -28l-21 -100q-19 -88 -131 -88q-59 9 -136 9q-174 0 -284 -194l-123 -579q-10 -44 -48 -76q-40 -32 -88 -32h-113zM447 1110q-41 0 -61 36q-9 21 -9 45q0 14 3 30l14 69h561q42 0 63 -36
q9 -19 9 -43q0 -15 -4 -31l-15 -70h-561zM178 -237q8 38 42 65q37 30 81 30h104l-27 -126q-8 -38 -45 -67q-35 -28 -79 -28h-103z" />
    <glyph glyph-name="uni1E5E" unicode="&#x1e5e;" horiz-adv-x="1206" 
d="M461 773h236q358 0 413 256q5 23 5 43q0 72 -61 116q-70 49 -196 49h-5q-123 0 -212 -49q-103 -55 -125 -159zM1102 376l95 -396h-156q-89 0 -109 77l-75 319l-24 101q-14 88 -155 88h-261l-124 -585h-235l223 1049q43 202 236 319q171 104 384 104h4q214 -1 340 -105
q110 -90 110 -231q0 -41 -10 -87q-67 -313 -319 -401q31 -22 66 -212zM171 -343q-41 0 -61 36q-9 21 -9 45q0 14 3 30l14 69h855q42 0 63 -36q9 -19 9 -43q0 -15 -4 -31l-15 -70h-855z" />
    <glyph glyph-name="uni1E5F" unicode="&#x1e5f;" horiz-adv-x="840" 
d="M537 1056h113q48 0 74 -32q19 -25 19 -54q0 -11 -2 -22q116 120 295 120q99 0 217 -28l-21 -100q-19 -88 -131 -88q-59 9 -136 9q-174 0 -284 -194l-123 -579q-10 -44 -48 -76q-40 -32 -88 -32h-113zM104 -343q-41 0 -61 36q-9 21 -9 45q0 14 3 30l14 69h855q42 0 63 -36
q9 -19 9 -43q0 -15 -4 -31l-15 -70h-855z" />
    <glyph glyph-name="uni1E62" unicode="&#x1e62;" horiz-adv-x="1140" 
d="M795 236q104 58 126 160q5 24 5 46q0 86 -85 125q-51 23 -268 57q-201 31 -280 95q-88 70 -88 198q0 46 11 100q43 203 222 323q164 112 373 112q230 0 479 -97l-16 -73q-9 -45 -50 -79q-40 -33 -95 -33q-201 67 -364 67q-108 0 -195 -55q-97 -61 -119 -165
q-4 -19 -4 -36q0 -80 89 -115q38 -15 274 -51q199 -31 280 -102t81 -197q0 -49 -12 -107l-3 -12q-47 -202 -232 -321q-168 -108 -378 -108q-230 0 -479 97l15 73q10 45 51 79q40 33 95 33q201 -67 364 -67q110 0 203 53zM382 -237q8 38 42 65q37 30 81 30h104l-27 -126
q-8 -38 -45 -67q-35 -28 -79 -28h-103z" />
    <glyph glyph-name="uni1E63" unicode="&#x1e63;" horiz-adv-x="907" 
d="M1016 961l-20 -93q-15 -72 -87 -72q-19 0 -43 7q-147 58 -272 58q-75 0 -124 -38q-46 -34 -57 -85q-2 -8 -2 -16q0 -46 63 -67l189 -38q140 -26 197 -84q56 -56 56 -147q0 -37 -9 -80l-2 -9q-30 -133 -149 -226q-132 -103 -316 -103q-225 0 -379 106l19 93q16 72 89 72
q19 0 43 -6q146 -59 272 -59q76 0 131 39q51 35 61 84q3 12 3 23q0 51 -58 75q-23 9 -189 40q-138 27 -194 77q-63 56 -63 151q0 35 9 75q28 134 142 226q127 104 312 104q224 0 378 -107zM281 -237q8 38 42 65q37 30 81 30h104l-27 -126q-8 -38 -45 -67q-35 -28 -79 -28
h-103z" />
    <glyph glyph-name="uni1E6C" unicode="&#x1e6c;" horiz-adv-x="976" 
d="M356 1225q-48 0 -74 33q-18 23 -18 53q0 10 2 22l22 100h944q48 0 73 -32q19 -25 19 -54q0 -11 -2 -22l-22 -100h-411l-241 -1137q-9 -43 -49 -76q-39 -32 -87 -32h-122l264 1245h-298zM358 -237q8 38 42 65q37 30 81 30h104l-27 -126q-8 -38 -45 -67q-35 -28 -79 -28
h-103z" />
    <glyph glyph-name="uni1E6D" unicode="&#x1e6d;" horiz-adv-x="813" 
d="M301 848q-48 0 -74 33q-18 23 -18 53q0 10 2 22l21 100h145l35 163q9 44 48 75q40 33 88 33h113l-58 -271h304q48 0 74 -32q19 -25 19 -54q0 -11 -2 -22l-22 -100h-417l-105 -493q-8 -38 -8 -67q0 -58 30 -83q38 -31 155 -31q51 0 113 9q96 0 96 -64q0 -11 -3 -24
l-21 -100q-129 -27 -229 -27q-221 0 -306 80q-67 62 -67 184q0 55 14 123l105 493h-32zM240 -237q8 38 42 65q37 30 81 30h104l-27 -126q-8 -38 -45 -67q-35 -28 -79 -28h-103z" />
    <glyph glyph-name="Wgrave" unicode="&#x1e80;" horiz-adv-x="2083" 
d="M610 254l521 1053q56 125 182 125h89q125 0 130 -124l73 -1054l521 1053q58 125 183 125h119l-660 -1337q-59 -126 -185 -126h-78q-125 0 -129 124l-74 1072l-530 -1070q-59 -126 -184 -126h-78q-126 0 -130 124l-93 1339h119q126 0 131 -124zM1019 1668q57 155 147 155
q30 0 63 -17l245 -265l-91 -85z" />
    <glyph glyph-name="wgrave" unicode="&#x1e81;" horiz-adv-x="1538" 
d="M321 1056q113 0 120 -106l21 -711l308 711q51 106 163 106h76q112 0 119 -106l28 -711l301 711q51 106 164 106h98l-401 -969q-51 -107 -164 -107h-103q-112 0 -119 106l-25 684l-284 -683q-51 -107 -164 -107h-102q-113 0 -120 106l-36 970h120zM702 1291
q57 155 147 155q30 0 63 -17l245 -265l-91 -85z" />
    <glyph glyph-name="Wacute" unicode="&#x1e82;" horiz-adv-x="2083" 
d="M610 254l521 1053q56 125 182 125h89q125 0 130 -124l73 -1054l521 1053q58 125 183 125h119l-660 -1337q-59 -126 -185 -126h-78q-125 0 -129 124l-74 1072l-530 -1070q-59 -126 -184 -126h-78q-126 0 -130 124l-93 1339h119q126 0 131 -124zM1183 1456l-55 85l359 265
q39 17 69 17q82 0 82 -128q0 -13 -1 -27z" />
    <glyph glyph-name="wacute" unicode="&#x1e83;" horiz-adv-x="1538" 
d="M321 1056q113 0 120 -106l21 -711l308 711q51 106 163 106h76q112 0 119 -106l28 -711l301 711q51 106 164 106h98l-401 -969q-51 -107 -164 -107h-103q-112 0 -119 106l-25 684l-284 -683q-51 -107 -164 -107h-102q-113 0 -120 106l-36 970h120zM866 1079l-55 85
l359 265q39 17 69 17q82 0 82 -128q0 -13 -1 -27z" />
    <glyph glyph-name="Wdieresis" unicode="&#x1e84;" horiz-adv-x="2083" 
d="M610 254l521 1053q56 125 182 125h89q125 0 130 -124l73 -1054l521 1053q58 125 183 125h119l-660 -1337q-59 -126 -185 -126h-78q-125 0 -129 124l-74 1072l-530 -1070q-59 -126 -184 -126h-78q-126 0 -130 124l-93 1339h119q126 0 131 -124zM1031 1606q9 43 51 76
q39 32 90 32h117l-31 -145q-9 -43 -51 -76q-39 -32 -89 -32h-118zM1568 1461h-118q-50 0 -75 32q-21 25 -21 56q0 10 2 20l31 145h117q51 0 76 -32q21 -25 21 -56q0 -10 -2 -20z" />
    <glyph glyph-name="wdieresis" unicode="&#x1e85;" horiz-adv-x="1538" 
d="M321 1056q113 0 120 -106l21 -711l308 711q51 106 163 106h76q112 0 119 -106l28 -711l301 711q51 106 164 106h98l-401 -969q-51 -107 -164 -107h-103q-112 0 -119 106l-25 684l-284 -683q-51 -107 -164 -107h-102q-113 0 -120 106l-36 970h120zM714 1229q9 43 51 76
q39 32 90 32h117l-31 -145q-9 -43 -51 -76q-39 -32 -89 -32h-118zM1251 1084h-118q-50 0 -75 32q-21 25 -21 56q0 10 2 20l31 145h117q51 0 76 -32q21 -25 21 -56q0 -10 -2 -20z" />
    <glyph glyph-name="uni1E88" unicode="&#x1e88;" horiz-adv-x="2083" 
d="M610 254l521 1053q56 125 182 125h89q125 0 130 -124l73 -1054l521 1053q58 125 183 125h119l-660 -1337q-59 -126 -185 -126h-78q-125 0 -129 124l-74 1072l-530 -1070q-59 -126 -184 -126h-78q-126 0 -130 124l-93 1339h119q126 0 131 -124zM900 -237q8 38 42 65
q37 30 81 30h104l-27 -126q-8 -38 -45 -67q-35 -28 -79 -28h-103z" />
    <glyph glyph-name="uni1E89" unicode="&#x1e89;" horiz-adv-x="1538" 
d="M321 1056q113 0 120 -106l21 -711l308 711q51 106 163 106h76q112 0 119 -106l28 -711l301 711q51 106 164 106h98l-401 -969q-51 -107 -164 -107h-103q-112 0 -119 106l-25 684l-284 -683q-51 -107 -164 -107h-102q-113 0 -120 106l-36 970h120zM583 -237q8 38 42 65
q37 30 81 30h104l-27 -126q-8 -38 -45 -67q-35 -28 -79 -28h-103z" />
    <glyph glyph-name="uni1E92" unicode="&#x1e92;" horiz-adv-x="1100" 
d="M1258 1432q50 0 76 -32q19 -25 19 -57q0 -10 -2 -22l-23 -107l-1006 -1024h671q50 0 76 -32q19 -25 19 -57q0 -10 -2 -22l-21 -99h-940q-50 0 -76 35q-19 23 -19 54q0 10 2 22l23 107l1006 1024h-672q-50 0 -76 35q-19 23 -19 54q0 10 2 22l21 99h941zM388 -237
q8 38 42 65q37 30 81 30h104l-27 -126q-8 -38 -45 -67q-35 -28 -79 -28h-103z" />
    <glyph glyph-name="uni1E93" unicode="&#x1e93;" horiz-adv-x="874" 
d="M955 1056q48 0 74 -32q19 -25 19 -54q0 -11 -2 -22l-19 -86l-684 -675h428q48 0 74 -32q18 -24 18 -53q0 -11 -2 -23l-21 -99h-713q-48 0 -74 32q-19 23 -19 53q0 11 3 23l18 85l684 675h-428q-48 0 -74 33q-18 23 -18 53q0 10 2 22l21 100h713zM277 -237q8 38 42 65
q37 30 81 30h104l-27 -126q-8 -38 -45 -67q-35 -28 -79 -28h-103z" />
    <glyph glyph-name="uni1EBC" unicode="&#x1ebc;" horiz-adv-x="1133" 
d="M191 897q55 259 252 409q192 146 458 146q231 0 480 -97l-16 -73q-9 -45 -50 -78q-41 -34 -96 -34q-200 67 -364 67q-159 0 -274 -87q-121 -92 -155 -253l-15 -68h652q49 0 74 -31q19 -24 19 -53q0 -12 -3 -24l-21 -99h-765l-21 -99q-10 -47 -10 -89q0 -100 58 -164
q78 -87 237 -87q164 0 392 67q55 0 82 -34q20 -24 20 -55q0 -11 -3 -23l-15 -73q-291 -97 -522 -97q-266 0 -396 146q-94 105 -94 266q0 67 16 143zM1146 1617q-131 -125 -243 -125q-66 0 -125 42q-65 46 -128 46q-59 0 -156 -69l-17 116q122 115 229 115q67 0 129 -43
t123 -43q66 0 169 78z" />
    <glyph glyph-name="uni1EBD" unicode="&#x1ebd;" horiz-adv-x="1065" 
d="M894 626q5 40 5 72q0 58 -17 93q-36 71 -170 71q-137 0 -211 -71q-61 -59 -92 -165h485zM552 -32q-420 0 -420 365q0 83 22 185q117 550 602 550q264 0 341 -166q32 -68 32 -170q0 -93 -26 -213q-21 -101 -134 -101h-605q-7 -35 -7 -64q0 -180 239 -180q151 0 322 59
q26 6 46 6q60 0 60 -49q0 -10 -3 -22l-20 -94q-200 -106 -449 -106zM1118 1240q-131 -125 -243 -125q-66 0 -125 42q-65 46 -128 46q-59 0 -156 -69l-17 116q122 115 229 115q67 0 129 -43t123 -43q66 0 169 78z" />
    <glyph glyph-name="Ygrave" unicode="&#x1ef2;" horiz-adv-x="1136" 
d="M701 88q-9 -43 -49 -76q-39 -32 -87 -32h-122l132 623q-140 1 -190 48q-56 50 -65 226l-33 556h126q104 0 108 -81l33 -456q4 -61 28 -74q18 -12 92 -12h125q73 0 97 12q28 13 59 74l227 456q39 81 143 81h126l-271 -556q-81 -169 -158 -221q-73 -49 -212 -52zM529 1668
q57 155 147 155q30 0 63 -17l245 -265l-91 -85z" />
    <glyph glyph-name="ygrave" unicode="&#x1ef3;" horiz-adv-x="1141" 
d="M1054 143q-117 -550 -631 -550q-250 0 -404 106l20 93q15 72 88 72q19 0 43 -6q145 -59 297 -59q164 0 252 97q74 81 109 247q-137 -175 -360 -175q-327 0 -327 255q0 51 13 112l153 721h113q48 0 74 -32q19 -25 19 -54q0 -11 -2 -22l-126 -590q-7 -31 -7 -57
q0 -127 161 -127q227 0 337 195l124 579q9 43 49 76q38 32 86 32h113zM519 1291q57 155 147 155q30 0 63 -17l245 -265l-91 -85z" />
    <glyph glyph-name="uni1EF4" unicode="&#x1ef4;" horiz-adv-x="1136" 
d="M701 88q-9 -43 -49 -76q-39 -32 -87 -32h-122l132 623q-140 1 -190 48q-56 50 -65 226l-33 556h126q104 0 108 -81l33 -456q4 -61 28 -74q18 -12 92 -12h125q73 0 97 12q28 13 59 74l227 456q39 81 143 81h126l-271 -556q-81 -169 -158 -221q-73 -49 -212 -52zM410 -237
q8 38 42 65q37 30 81 30h104l-27 -126q-8 -38 -45 -67q-35 -28 -79 -28h-103z" />
    <glyph glyph-name="_1" horiz-adv-x="0" 
 />
    <glyph glyph-name="uni1EF5" unicode="&#x1ef5;" horiz-adv-x="1141" 
d="M1054 143q-117 -550 -631 -550q-250 0 -404 106l20 93q15 72 88 72q19 0 43 -6q145 -59 297 -59q164 0 252 97q74 81 109 247q-137 -175 -360 -175q-327 0 -327 255q0 51 13 112l153 721h113q48 0 74 -32q19 -25 19 -54q0 -11 -2 -22l-126 -590q-7 -31 -7 -57
q0 -127 161 -127q227 0 337 195l124 579q9 43 49 76q38 32 86 32h113zM900 -237q8 38 42 65q37 30 81 30h104l-27 -126q-8 -38 -45 -67q-35 -28 -79 -28h-103z" />
    <glyph glyph-name="uni2010" unicode="&#x2010;" horiz-adv-x="928" 
d="M289 421q-41 0 -61 36q-9 21 -9 45q0 14 3 30l15 69h561q42 0 62 -36q9 -19 9 -43q0 -15 -4 -31l-15 -70h-561z" />
    <glyph glyph-name="uni2011" unicode="&#x2011;" horiz-adv-x="928" 
d="M289 421q-41 0 -61 36q-9 21 -9 45q0 14 3 30l15 69h561q42 0 62 -36q9 -19 9 -43q0 -15 -4 -31l-15 -70h-561z" />
    <glyph glyph-name="figuredash" unicode="&#x2012;" horiz-adv-x="1240" 
d="M165 617q-41 0 -61 36q-9 21 -9 45q0 14 3 30l15 69h1058q42 0 62 -36q9 -19 9 -43q0 -15 -4 -31l-15 -70h-1058z" />
    <glyph glyph-name="twodotenleader" unicode="&#x2025;" horiz-adv-x="1365" 
d="M153 124q10 44 49 75q41 33 91 33h118l-30 -144q-10 -44 -49 -76q-42 -32 -92 -32h-117zM836 124q10 44 49 75q41 33 91 33h118l-30 -144q-10 -44 -49 -76q-42 -32 -92 -32h-117z" />
    <glyph glyph-name="uni203D" unicode="&#x203d;" horiz-adv-x="976" 
d="M427 1211q-58 -11 -165 -42q-55 0 -81 33q-19 25 -19 57q0 11 2 23l16 73q290 96 520 96q209 0 326 -111q95 -90 95 -226q0 -46 -11 -97q-47 -223 -237 -318q-103 -49 -333 -82l-49 -189q-9 -44 -48 -76q-40 -32 -88 -32h-81zM215 124q10 44 49 75q41 33 92 33h117
l-30 -144q-10 -44 -49 -76q-42 -32 -91 -32h-118zM598 838q244 20 278 179q5 24 5 46q0 72 -55 119q-57 48 -125 52z" />
    <glyph glyph-name="uni204C" unicode="&#x204c;" horiz-adv-x="966" 
d="M947 822q68 -87 68 -198q0 -42 -10 -87q-35 -165 -179 -284t-315 -119t-264 119q-68 86 -68 197q0 42 10 87q35 166 179 284.5t315 118.5t264 -118z" />
    <glyph glyph-name="uni204D" unicode="&#x204d;" horiz-adv-x="966" 
d="M19 822q-68 -87 -68 -198q0 -42 10 -87q35 -165 179 -284t315 -119t264 119q68 86 68 197q0 42 -10 87q-35 166 -179 284.5t-315 118.5t-264 -118z" />
    <glyph glyph-name="uni2053" unicode="&#x2053;" horiz-adv-x="1413" 
d="M646.5 676q-66 0 -150 -25q-39 -12 -87 -35q-6 -3 -9 -5q-42 -23 -94.5 -23q-36 0 -75 18l36 112q133.5 82 239.25 110.5t197.25 28.5q103.5 0 252.75 -44t221.25 -44q66 0 150 25q39 12 87 35q6 3 9 5q42 23 94.5 23q36 0 75 -18l-34.5 -112q-135 -82 -240.75 -110.5
t-197.25 -28.5q-94.5 0 -248.25 44t-225.75 44z" />
    <glyph glyph-name="uni20AF" unicode="&#x20af;" horiz-adv-x="2570" 
d="M1344 535q-56 -260 -252 -409q-192 -146 -458 -146h-593l195 917q55 259 252 409q192 146 459 146q266 0 396 -146q94 -106 94 -267q0 -66 -16 -142zM678 188q159 0 273 87q122 91 156 252l79 370q10 47 10 88q0 100 -59 165q-77 87 -236 87q-160 0 -275 -87
q-121 -92 -155 -253l-151 -709h358zM1737 225q130 -51 278 -51q159 0 246 90q79 82 115 254q18 82 18 143q0 68 -22 110q-45 90 -204 90q-233 0 -334 -177zM2239 1068q386 0 386 -355q0 -87 -23 -195q-117 -550 -631 -550q-175 0 -280 43l-63 -300q-10 -43 -50 -76
q-38 -32 -86 -32h-113l308 1453h113q48 0 74 -32q19 -25 19 -54q0 -11 -2 -22q116 120 348 120z" />
    <glyph glyph-name="uni2100" unicode="&#x2100;" horiz-adv-x="2158" 
d="M729.75 858.75q12.75 59.25 12.75 103.5q0 49.5 -15.75 81.75q-35.25 72.75 -158.25 72.75t-188.25 -72.75q-57 -60.75 -83.25 -185.25q-13.5 -62.25 -13.5 -108q0 -47.25 14.25 -78q33.75 -72 155.25 -72q171 0 252.75 146.25zM399.75 446.25q-289.5 0 -289.5 266.25
q0 65.25 17.25 146.25q87.75 412.5 474 412.5q314.25 0 314.25 -273.75q0 -62.25 -16.5 -138.75l-85.5 -403.5h-84.75q-36 0 -55.5 24.75q-14.25 16.5 -14.25 39q0 8.25 2.25 17.25q-87 -90 -261.75 -90zM1109 65q-16 -34 -42 -57q-34 -28 -79 -28h-77l571 1367q17 34 42 57
q34 28 79 28h77zM1797.75 55.5q-150 -79.5 -336.75 -79.5q-315 0 -315 273.75q0 62.25 16.5 138.75q87.75 412.5 474 412.5q186.75 0 302.25 -79.5l-15 -70.5q-11.25 -53.25 -65.25 -53.25q-15 0 -32.25 4.5q-109.5 44.25 -222.75 44.25q-123 0 -188.25 -72.75
q-57 -60.75 -83.25 -185.25q-12 -57 -12 -101.25q0 -51 16.5 -84q34.5 -72.75 157.5 -72.75q113.25 0 241.5 44.25q19.5 4.5 34.5 4.5q45 0 45 -36.75q0 -7.5 -2.25 -16.5z" />
    <glyph glyph-name="uni2105" unicode="&#x2105;" horiz-adv-x="2160" 
d="M762.75 525.75q-150 -79.5 -336.75 -79.5q-315 0 -315 273.75q0 62.25 16.5 138.75q87.75 412.5 474 412.5q186.75 0 302.25 -79.5l-15 -70.5q-11.25 -53.25 -65.25 -53.25q-15 0 -32.25 4.5q-109.5 44.25 -222.75 44.25q-123 0 -188.25 -72.75
q-57 -60.75 -83.25 -185.25q-12 -57 -12 -101.25q0 -51 16.5 -84q34.5 -72.75 157.5 -72.75q113.25 0 241.5 44.25q19.5 4.5 34.5 4.5q45 0 45 -36.75q0 -7.5 -2.25 -16.5zM983 65q-16 -34 -42 -57q-34 -28 -79 -28h-77l571 1367q17 34 42 57q34 28 79 28h77zM1509 645.75
q-123 0 -188.25 -72q-57 -60.75 -83.25 -185.25q-12 -57.75 -12 -102.75q0 -50.25 15.75 -83.25q35.25 -72 158.25 -72t188.25 72q56.25 61.5 82.5 186q12.75 59.25 12.75 103.5q0 49.5 -15.75 81.75q-35.25 72 -158.25 72zM1542 801q314.25 0 314.25 -273.75
q0 -62.25 -16.5 -138.75q-87.75 -412.5 -473.25 -412.5q-315 0 -315 273.75q0 62.25 16.5 138.75q87.75 412.5 474 412.5z" />
    <glyph glyph-name="uni2106" unicode="&#x2106;" horiz-adv-x="2159" 
d="M762.75 525.75q-150 -79.5 -336.75 -79.5q-315 0 -315 273.75q0 62.25 16.5 138.75q87.75 412.5 474 412.5q186.75 0 302.25 -79.5l-15 -70.5q-11.25 -53.25 -65.25 -53.25q-15 0 -32.25 4.5q-109.5 44.25 -222.75 44.25q-123 0 -188.25 -72.75
q-57 -60.75 -83.25 -185.25q-12 -57 -12 -101.25q0 -51 16.5 -84q34.5 -72.75 157.5 -72.75q113.25 0 241.5 44.25q19.5 4.5 34.5 4.5q45 0 45 -36.75q0 -7.5 -2.25 -16.5zM983 65q-16 -34 -42 -57q-34 -28 -79 -28h-77l571 1367q17 34 42 57q34 28 79 28h77zM1305 -24
q-245.25 0 -245.25 191.25q0 38.25 9.75 84l114.75 540.75h84.75q36 0 55.5 -24q14.25 -18.75 14.25 -40.5q0 -8.25 -1.5 -16.5l-94.5 -442.5q-5.25 -23.25 -5.25 -42.75q0 -95.25 120.75 -95.25q175.5 0 250.5 133.5l95.25 447q6.75 32.25 36.75 57q28.5 24 64.5 24h84.75
l-171 -807h-84.75q-36 0 -55.5 24q-14.25 17.25 -14.25 39.75q0 8.25 2.25 17.25q-87 -90 -261.75 -90z" />
    <glyph glyph-name="estimated" unicode="&#x212e;" horiz-adv-x="1090" 
d="M457 626h385l37 173q-35 63 -167 63q-137 0 -211 -71l-11 -11zM381 266q44 -92 215 -92q151 0 322 59q26 6 46 6q60 0 60 -49q0 -10 -3 -22l-20 -94q-200 -106 -449 -106q-420 0 -420 365q0 83 22 185q117 550 602 550q264 0 341 -166q32 -68 32 -170q0 -93 -26 -213
q-21 -101 -134 -101h-556z" />
    <glyph glyph-name="onethird" unicode="&#x2153;" horiz-adv-x="2041" 
d="M600 671h143q34 0 51 -24q13 -15 13 -34q0 -7 -2 -15l-14 -68h-525q-32 0 -52 22q-13 16 -13 36q0 7 2 15l14 67h221l121 566l-105 -105h-37q-41 0 -55 34q-6 12 -6 23q0 5 1 10q3 15 15 28l111 125q56 66 127 66h70q33 0 53 -22q12 -15 12 -35q0 -8 -2 -16zM968 65
q-16 -34 -42 -57q-34 -28 -79 -28h-77l571 1367q17 34 42 57q34 28 79 28h77zM1916 856q132 0 206 -65q62 -54 62 -138q0 -28 -7 -59q-29 -139 -109 -173q74 -24 74 -123q0 -35 -9 -79q-57 -269 -411 -269q-110 0 -267 61l10 48q7 31 35 53q27 23 67 23q133 -44 185 -44
q117 0 169 36q38 29 51 92q5 21 5 38q0 33 -18 50q-35 35 -154 35h-126l30 141h125q101 5 140 34q30 22 42 77q3 15 3 28q0 39 -30 62q-35 27 -105 27q-40 0 -177 -41q-40 0 -58 23q-13 17 -13 38q0 8 1 15l11 49q183 61 267 61h1z" />
    <glyph glyph-name="twothirds" unicode="&#x2154;" horiz-adv-x="2041" 
d="M266 530q-32 0 -52 22q-13 16 -13 36q0 7 2 15l5 24q21 98 112 176q55 48 181 119q124 69 169 106q76 64 92 139q3 15 3 28q0 40 -29 62q-36 27 -105 27q-58 0 -195 -41q-40 0 -58 23q-13 17 -13 38q0 8 1 15l11 49q183 61 285 61q131 0 204 -64q64 -54 64 -140
q0 -27 -7 -58q-38 -177 -281 -317q-147 -83 -164 -95q-75 -51 -88 -85l353 1q34 0 51 -24q13 -15 13 -34q0 -7 -2 -15l-14 -68h-525zM968 65q-16 -34 -42 -57q-34 -28 -79 -28h-77l571 1367q17 34 42 57q34 28 79 28h77zM1916 856q132 0 206 -65q62 -54 62 -138
q0 -28 -7 -59q-29 -139 -109 -173q74 -24 74 -123q0 -35 -9 -79q-57 -269 -411 -269q-110 0 -267 61l10 48q7 31 35 53q27 23 67 23q133 -44 185 -44q117 0 169 36q38 29 51 92q5 21 5 38q0 33 -18 50q-35 35 -154 35h-126l30 141h125q101 5 140 34q30 22 42 77q3 15 3 28
q0 39 -30 62q-35 27 -105 27q-40 0 -177 -41q-40 0 -58 23q-13 17 -13 38q0 8 1 15l11 49q183 61 267 61h1z" />
    <glyph glyph-name="equivalence" unicode="&#x2261;" horiz-adv-x="1159" 
d="M294 604q-41 0 -61 36q-9 21 -9 45q0 14 3 30l15 69h918q42 0 62 -36q9 -19 9 -43q0 -15 -4 -31l-15 -70h-918zM294 324q-41 0 -61 36q-9 21 -9 45q0 14 3 30l15 69h918q42 0 62 -36q9 -19 9 -43q0 -15 -4 -31l-15 -70h-918zM294 884q-41 0 -61 36q-9 21 -9 45q0 14 3 30
l15 69h918q42 0 62 -36q9 -19 9 -43q0 -15 -4 -31l-15 -70h-918z" />
    <glyph glyph-name="uniFB00" unicode="&#xfb00;" horiz-adv-x="1389" 
d="M535 848l-161 -760q-10 -44 -48 -75q-40 -33 -88 -33h-113l184 868h-29q-49 0 -74 34q-18 22 -18 52q0 10 2 22l21 100h142q46 216 184 307q119 80 339 80q100 0 217 -28l-21 -100q-19 -88 -131 -88q-58 10 -109 10q-117 0 -168 -32q-61 -38 -85 -149h456q46 216 184 307
q119 80 339 80q100 0 217 -28l-21 -100q-19 -88 -131 -88q-58 10 -109 10q-117 0 -168 -32q-61 -38 -85 -149h232q49 0 74 -34q19 -22 19 -52q0 -11 -2 -22l-22 -100h-345l-161 -760q-10 -44 -48 -75q-40 -33 -88 -33h-113l184 868h-456z" />
    <glyph glyph-name="uniFB03" unicode="&#xfb03;" horiz-adv-x="1894" 
d="M535 848l-161 -760q-10 -44 -48 -75q-40 -33 -88 -33h-113l184 868h-29q-49 0 -74 34q-18 22 -18 52q0 10 2 22l21 100h142q46 216 184 307q119 80 339 80q100 0 217 -28l-21 -100q-19 -88 -131 -88q-58 10 -109 10q-117 0 -168 -32q-61 -38 -85 -149h456q46 216 184 307
q119 80 339 80q100 0 217 -28l-21 -100q-19 -88 -131 -88q-58 10 -109 10q-117 0 -168 -32q-61 -38 -85 -149h628q49 0 74 -34q19 -22 19 -52q0 -11 -2 -22l-206 -968h-113q-48 0 -74 33q-19 22 -19 52q0 11 3 23l161 760h-515l-161 -760q-10 -44 -48 -75q-40 -33 -88 -33
h-113l184 868h-456zM1834 1325q9 43 49 76q39 32 87 32h113l-31 -145q-9 -43 -49 -76q-39 -32 -87 -32h-113z" />
    <glyph glyph-name="uniFB04" unicode="&#xfb04;" horiz-adv-x="1921" 
d="M535 848l-161 -760q-10 -44 -48 -75q-40 -33 -88 -33h-113l184 868h-29q-49 0 -74 34q-18 22 -18 52q0 10 2 22l21 100h142q46 216 184 307q119 80 339 80q100 0 217 -28l-21 -100q-19 -88 -131 -88q-58 10 -109 10q-117 0 -168 -32q-61 -38 -85 -149h456q46 216 184 307
q119 80 339 80q96 0 327 -23q37 -7 58 -41q16 -22 16 -49q0 -12 -3 -24l-204 -959q-17 -79 -17 -118q0 -35 13 -39q20 -7 49 -7q21 0 49 4q96 0 96 -65q0 -11 -3 -24l-21 -100q-104 -23 -185 -23q-25 0 -50 2q-112 8 -156 87q-23 39 -23 110t22 173l187 882q-149 8 -199 8
q-117 0 -168 -32q-61 -38 -85 -149h232q49 0 74 -34q19 -22 19 -52q0 -11 -2 -22l-22 -100h-345l-161 -760q-10 -44 -48 -75q-40 -33 -88 -33h-113l184 868h-456z" />
    <glyph glyph-name="uniFB05" unicode="&#xfb05;" horiz-adv-x="1520" 
d="M535 848l-161 -760q-10 -44 -48 -75q-40 -33 -88 -33h-113l184 868h-29q-49 0 -74 34q-18 22 -18 52q0 10 2 22l21 100h142q46 216 184 307q119 80 339 80q100 0 217 -28l-21 -100q-19 -88 -131 -88q-58 10 -109 10q-117 0 -168 -32q-61 -38 -85 -149h480l35 163
q9 44 48 75q40 33 88 33h113l-58 -271h304q48 0 74 -32q19 -25 19 -54q0 -11 -2 -22l-22 -100h-417l-105 -493q-8 -38 -8 -67q0 -58 30 -83q38 -31 155 -31q51 0 113 9q96 0 96 -64q0 -11 -3 -24l-21 -100q-129 -27 -229 -27q-221 0 -306 80q-67 62 -67 184q0 55 14 123
l105 493h-480z" />
    <glyph glyph-name="uniFB06" unicode="&#xfb06;" horiz-adv-x="1745" 
d="M602 861h-8q-75 0 -124 -38q-46 -34 -57 -85q-2 -8 -2 -16q0 -46 63 -67l189 -38q140 -26 197 -84q56 -56 56 -147q0 -37 -9 -80l-2 -9q-30 -133 -149 -226q-132 -103 -316 -103q-225 0 -379 106l19 93q16 72 89 72q19 0 43 -6q146 -59 272 -59q76 0 131 39q51 35 61 84
q3 12 3 23q0 51 -58 75q-23 9 -189 40q-138 27 -194 77q-63 56 -63 151q0 35 9 75q28 134 142 226q127 104 312 104h8q97 -1 132 -10q-2 8 -2 26q0 21 3 55q3 16 5 29q26 121 137 198q108 73 245 73q298 0 399 -125l-55 -258h304q48 0 74 -32q19 -25 19 -54q0 -11 -2 -22
l-22 -100h-417l-105 -493q-8 -38 -8 -67q0 -58 30 -83q38 -31 155 -31q51 0 113 9q96 0 96 -64q0 -11 -3 -24l-21 -100q-129 -27 -229 -27q-221 0 -306 80q-67 62 -67 184q0 55 14 123l105 493h-26q-48 0 -74 33q-18 23 -18 53q0 10 2 22l21 100h139l33 153q-28 49 -163 49
q-74 0 -113 -28q-45 -34 -58 -94q-6 -27 -6 -52q0 -67 38 -127l-19 -89q-15 -72 -87 -72q-19 0 -43 7q-142 56 -264 58z" />
    <glyph glyph-name="uniEEC5" unicode="&#xeec5;" horiz-adv-x="1839" 
d="M721 861v1q-156 -13 -231 -97q-76 -81 -111 -247q-16 -76 -16 -135q0 -68 22 -112q46 -97 210 -97q151 0 322 59q26 6 46 6q60 0 60 -49q0 -10 -3 -22l-20 -94q-200 -106 -449 -106q-420 0 -420 365q0 83 22 185q111 524 562 548v2q122 -1 157 -10q-2 8 -2 26q0 21 3 55
q3 16 5 29q26 121 137 198q108 73 245 73q298 0 399 -125l-55 -258h304q48 0 74 -32q19 -25 19 -54q0 -11 -2 -22l-22 -100h-417l-105 -493q-8 -38 -8 -67q0 -58 30 -83q38 -31 155 -31q51 0 113 9q96 0 96 -64q0 -11 -3 -24l-21 -100q-129 -27 -229 -27q-221 0 -306 80
q-67 62 -67 184q0 55 14 123l105 493h-22q-48 0 -74 33q-18 23 -18 53q0 10 2 22l21 100h135l33 153q-28 49 -163 49q-74 0 -113 -28q-45 -34 -58 -94q-6 -27 -6 -52q0 -67 38 -127l-19 -89q-15 -72 -87 -72q-19 0 -43 7q-142 56 -239 58z" />
    </font>
</defs>
</svg>
