<?xml version="1.0" encoding="UTF-8" standalone="no"?>
<!-- Created with Inkscape (http://www.inkscape.org/) -->

<svg
   xmlns:dc="http://purl.org/dc/elements/1.1/"
   xmlns:cc="http://creativecommons.org/ns#"
   xmlns:rdf="http://www.w3.org/1999/02/22-rdf-syntax-ns#"
   xmlns:svg="http://www.w3.org/2000/svg"
   xmlns="http://www.w3.org/2000/svg"
   xmlns:sodipodi="http://sodipodi.sourceforge.net/DTD/sodipodi-0.dtd"
   xmlns:inkscape="http://www.inkscape.org/namespaces/inkscape"
   width="35.245827mm"
   height="37.508415mm"
   viewBox="0 0 124.88679 132.90383"
   id="svg3469"
   version="1.1"
   inkscape:version="0.91 r13725"
   sodipodi:docname="logo.svg">
  <defs
     id="defs3471" />
  <sodipodi:namedview
     id="base"
     pagecolor="#ffffff"
     bordercolor="#666666"
     borderopacity="1.0"
     inkscape:pageopacity="0.0"
     inkscape:pageshadow="2"
     inkscape:zoom="6.9147742"
     inkscape:cx="62.443394"
     inkscape:cy="66.451917"
     inkscape:document-units="px"
     inkscape:current-layer="layer1"
     showgrid="false"
     fit-margin-top="0"
     fit-margin-left="0"
     fit-margin-right="0"
     fit-margin-bottom="0"
     inkscape:window-width="1877"
     inkscape:window-height="1056"
     inkscape:window-x="43"
     inkscape:window-y="24"
     inkscape:window-maximized="1" />
  <metadata
     id="metadata3474">
    <rdf:RDF>
      <cc:Work
         rdf:about="">
        <dc:format>image/svg+xml</dc:format>
        <dc:type
           rdf:resource="http://purl.org/dc/dcmitype/StillImage" />
        <dc:title></dc:title>
      </cc:Work>
    </rdf:RDF>
  </metadata>
  <g
     inkscape:label="Calque 1"
     inkscape:groupmode="layer"
     id="layer1"
     transform="translate(376.72911,88.375426)">
    <path
       inkscape:connector-curvature="0"
       d="m -311.81035,-86.992577 c -2.125,1.125 -3.375,3 -4,6.5 -1.25,7 -0.25,11 3.875,14.875 l 3.375,3.25 2.625,-3.5 c 1.875,-2.625 2.75,-5.875 3,-12.125 0.5,-7.5 0.25,-8.625 -2,-9.5 -3.375,-1.25 -3.375,-1.25 -6.875,0.5 z m 6.375,9.75 c -0.25,8.25 -2,10.875 -5.25,7.875 -5.25,-4.75 -0.875,-19.875 4.375,-15.375 0.625,0.625 1,4 0.875,7.5 z"
       id="path8" />
    <path
       inkscape:connector-curvature="0"
       d="m -300.56035,-77.742577 c 0,6.25 -0.625,8.25 -3.5,12.375 l -3.625,4.875 2.75,4.375 c 3.375,5.375 5.25,6.875 9.75,8 2.75,0.625 4.125,0.125 6.625,-2.5 2.875,-2.75 3.25,-4 2.75,-9.125 -0.75,-7.375 -5.125,-16.25 -10.625,-21.5 l -4.125,-4.125 0,7.625 z m 8,6 c 3.25,5.5 4.75,16 2.75,19.25 -2.25,3.5 -9.75,0.625 -12.5,-4.75 -1.75,-3.25 -1.625,-3.875 1.125,-7.75 2.125,-2.625 3.125,-5.75 3.125,-9 0,-5.75 1.125,-5.25 5.5,2.25 z"
       id="path10" />
    <path
       inkscape:connector-curvature="0"
       d="m -346.18535,-71.742577 c -8.875,2.375 -14.375,8.625 -14.375,16.375 l 0,5.75 4.75,-4 c 2.5,-2.125 8,-6.625 12.125,-10.125 4.125,-3.375 8.75,-6.5 10.375,-7 1.5,-0.375 2.75,-1.125 2.75,-1.75 0,-1.625 -8.375,-1.25 -15.625,0.75 z m 2.5,4.625 c -1.875,1.625 -4.5,3.75 -5.625,4.75 -1.125,1 -3.625,3.25 -5.375,4.875 l -3.375,3 0,-2.75 c 0,-4.5 9.125,-12.625 14,-12.625 l 4,0 -3.625,2.75 z"
       id="path12" />
    <path
       inkscape:connector-curvature="0"
       d="m -333.93535,-68.242577 c -9.5,5.875 -25.25,19.875 -25.25,22.625 -0.125,3.875 8.625,11.125 19.75,16 6.625,3 10.125,4 9.75,2.875 -0.375,-0.875 0.25,-6 1.5,-11.25 2.375,-9.75 9.875,-22.875 13.75,-24.125 1,-0.375 -0.125,1.875 -2.625,4.875 -2.375,3 -5.125,6.875 -6,8.625 -2.375,4.5 -5,15 -5,20.125 0,4.25 0.5,4.75 5,6.625 6,2.375 8.375,2.5 12.25,0.25 7.125,-3.875 9.75,-15.25 6.5,-27.25 -1.5,-5.25 -9.375,-15.75 -14.625,-19.5 -5.875,-4.125 -8,-4.125 -15,0.125 z m 13.625,4.375 c 2.5,2.375 2.5,2.5 -1.875,8.125 -4,5.125 -7.625,14.25 -8.75,21.875 -0.625,4.125 -1.25,4.25 -9,1.375 -7.25,-2.75 -16.875,-10.125 -16.875,-13 0,-1.375 10.125,-10.875 19.875,-18.5 3.625,-2.75 5.375,-3.375 9.375,-2.875 2.625,0.25 6,1.625 7.25,3 z m 12.375,13.375 c 1.5,3.125 2.375,8 2.375,12.875 0,6.875 -0.375,8.25 -3.125,10.75 -3.75,3.5 -9.5,4.625 -13.5,2.75 -5.625,-2.875 -3.5,-17.875 4.125,-28.875 3.375,-5 4.25,-5.5 5.875,-4.125 1.125,0.875 3,3.875 4.25,6.625 z"
       id="path14" />
    <path
       inkscape:connector-curvature="0"
       d="m -289.56035,-45.367577 c -9.75,3 -14,11.375 -8.375,16.5 2.625,2.5 12.75,5.75 21.74999,7 4.875,0.625 5.125,0.5 9.25,-5.875 2.875,-4.375 4.25,-8.125 4.375,-11.5 0.125,-4.625 -0.25,-5.125 -4.25,-6.5 -5.875,-2 -15.49999,-1.875 -22.74999,0.375 z m 22.99999,3.125 c 2.875,1.625 2.875,6.25 -0.125,9.375 -1.25,1.375 -3,3.75 -3.75,5.25 -1.75,3.25 -5.375,3.5 -14.87499,1 -7.5,-2 -12.75,-5 -12.75,-7.375 0.125,-3.375 4.875,-7.5 10.75,-9.125 6.375,-1.75 16.62499,-1.375 20.74999,0.875 z"
       id="path34" />
    <path
       inkscape:connector-curvature="0"
       d="m -260.56036,-38.992577 c 0,3.875 -1,6.375 -4.5,10.875 -2.5,3.25 -4.25,6.25 -3.875,6.625 1.25,1.125 15.75,-7.375 16.5,-9.75 0.875,-2.75 -0.625,-5.75 -4.875,-9.75 l -3.25,-3 0,5 z m 2.375,9.25 c -3.875,2.875 -4.125,2.375 -1.625,-2.625 1.875,-3.625 2.25,-3.875 3.375,-1.875 0.875,1.75 0.5,2.75 -1.75,4.5 z"
       id="path36" />
    <path
       inkscape:connector-curvature="0"
       d="m -363.93535,-28.992577 c -3.375,0.625 -3.625,2 -0.75,4.25 2.75,2.375 12,14.9999999 11.375,15.6249999 -0.25,0.25 -3.625,-3.6249999 -7.375,-8.4999999 -3.75,-4.875 -7.375,-9.125 -8.125,-9.375 -0.75,-0.25 -2.875,0.75 -4.75,2.25 -3.375,2.625 -3.5,3.125 -2.875,11 1,13.24999995 2.625,17.9999999 9,24.875 2.875,3.250001 6.25,5.500001 10,6.500001 6.125,1.75 19.875,1.25 22,-0.875 0.875,-0.875 -1.375,-4.5 -7,-11.7500011 -4.625,-5.74999995 -8.625,-10.5 -9.125,-10.5 -0.5,0.125 -4.875,1.375 -9.875,3 -6.75,2.12500005 -9.5,2.50000005 -11.25,1.50000005 -1.875,-1.12500005 -1.625,-1.25000005 1.875,-1.37500005 2.375,0 7.625,-1.375 11.875,-3 4.25,-1.625 11.125,-4.125 15.375,-5.6249999 4.125,-1.5 8.875,-4 10.625,-5.5 3.5,-3.125 6.125,-4 6.125,-2.125 0,1.75 -11.75,8.25 -18.125,9.9999999 l -5.375,1.5 8.875,11.125 c 9.625,11.8750011 10.375,12.2500011 17.125,7.5000001 5.375,-3.7500001 8.75,-10.0000001 8.75,-15.8750001 0,-9.2499999 -8.875,-16.8749999 -27.375,-23.1249999 -6.25,-2.25 -14.375,-2.75 -21,-1.5 z m 16.5,3 c 8.25,2.25 14.25,5.125 13.625,6.75 -0.75,1.75 -5.25,4 -12.625,6.375 l -5.25,1.625 -5,-6.625 c -2.875,-3.625 -5.125,-6.875 -5.125,-7.375 0,-0.625 3.5,-1.625 7.5,-2 1,0 4.125,0.5 6.875,1.25 z m -14.25,10.25 4.5,6.6249999 -3.625,1.625 c -6.5,2.875 -10.75,3 -12.125,0.25 -3.25,-5.8749999 -0.25,-15.1249999 4.75,-15.1249999 1.125,0 4,3 6.5,6.625 z m 40.375,3.5 c 3.75,4.3749999 4.125,9.4999999 1.375,15.3749999 -1.875,3.75 -8.625,8.3750001 -12.25,8.2500001 -0.875,-0.125 -4.25,-3.7500001 -7.625,-8.2500001 -6.75,-9 -6.75,-9.25 1.875,-11.875 2.5,-0.75 6.25,-2.7499999 8.125,-4.3749999 2,-1.625 4,-2.875 4.5,-3 0.375,0 2.25,1.75 4,3.875 z m -23.75,16.9999999 c 3.125,4 5.75,7.8750011 5.75,8.6250011 0,2.875 -7.75,3.875 -16.25,2.25 -4,-0.875 -13.75,-8.8750011 -13.75,-11.5000011 0,-1.125 13.375,-6.25 17.125,-6.375 0.75,-0.125 4,3.12500005 7.125,7 z"
       id="path54" />
    <path
       inkscape:connector-curvature="0"
       d="m -307.56035,-19.492577 c -2.625,2.25 -3.375,4.25 -3.875,9.7499999 -0.375,3.75 -1.5,9.12500005 -2.5,12 -2.5,7 -1.375,12.7500011 3.75,17.6250011 4.125,4 12.75,7.75 18,7.75 11,0 24.12499,-13 24.12499,-24.1250011 0,-5.75 -3.5,-15.8749999 -6.75,-19.3749999 l -2.62499,-3 -3.875,4.5 c -2.125,2.5 -5.375,8.2499999 -7.25,12.8749999 -2,4.75 -5.125,11.8750001 -7.125,15.8750011 -2,4 -3.625,8.25 -3.625,9.375 -0.125,1.75 -0.25,1.625 -1.375,-0.25 -1,-1.75 -0.625,-3.375 1.75,-7.5 1.75,-2.875 4.625,-9.2500011 6.5,-14.0000011 4.125,-10.625 7.625,-16.7499999 11,-19.4999999 2.5,-2 2.25,-2.125 -4,-3.5 -10.75,-2.25 -18.25,-1.75 -22.125,1.5 z m 20.75,1.75 c 0.25,0.25 -1.5,4.625 -3.875,9.4999999 -2.5,5 -6.625,13.375 -9.25,18.6250001 -2.625,5.375001 -4.875,9.750001 -5.125,9.750001 -0.25,0 -1.625,-1 -3,-2.125 -3.5,-3.125 -4.25,-9.0000011 -2,-16.6250011 1.125,-3.75 2,-9.125 2,-11.9999999 0,-7.25 3.875,-9.625 13.75,-8.5 3.75,0.375 7.125,1 7.5,1.375 z m 13.62499,12.8749999 c 2.5,7.75 2.625,9.25 1.125,13.375 -2.25,6.5000011 -9.49999,13.5000011 -15.62499,15.0000011 -7.625,2 -9.125,0.375 -5.625,-6 1.625,-2.75 3.75,-8.0000011 4.875,-11.5000011 2.75,-9.125 8.625,-19.6249999 11.125,-19.6249999 0.74999,0 2.62499,3.8749999 4.12499,8.7499999 z"
       id="path60" />
    <path
       inkscape:connector-curvature="0"
       d="m -253.18536,-8.9925771 c -0.125,6.625 -0.375,7.625 -1.125,4.75 -1,-3.75 -1,-3.75 -1.125,1 -0.25,7.375 -7.625,20.7500011 -15.625,28.1250011 -3.875,3.5 -6.49999,6.75 -5.74999,7.125 0.74999,0.375 1.62499,-0.125 1.99999,-1.125 0.375,-1.125 1.375,-1.625 2.125,-1.125 0.75,0.5 0.875,0.125 0.25,-0.875 -0.75,-1.125 -0.5,-1.375 0.625,-0.625 1.125,0.75 1.375,0.5 0.625,-0.625 -0.75,-1.125 -0.5,-1.375 0.625,-0.625 1.125,0.75 1.375,0.5 0.625,-0.625 -0.75,-1.125 -0.5,-1.375 0.625,-0.625 1.125,0.75 1.375,0.5 0.625,-0.625 -0.75,-1.125 -0.5,-1.375 0.625,-0.625 1.125,0.75 1.375,0.5 0.625,-0.625 -0.75,-1.125 -0.5,-1.375 0.625,-0.625 1.125,0.75 1.375,0.5 0.625,-0.625 -0.625,-1 -0.5,-1.375 0.375,-0.75 0.75,0.5 2.25,-0.75 3.375,-3 1,-2 2.25,-3.75 2.625,-3.75 0.25,0 -0.25,1.625 -1.25,3.625 -2.625,5 -13.375,14.375 -20.49999,17.75 -7.125,3.5 -19.75,4.5 -27.75,2.25 -3.125,-0.875 -6.125,-1.625 -6.625,-1.625 -1.875,-0.25 -3.375,-4 -3.25,-8.875 0,-3.875 0.25,-4.5 1.125,-2.5 1.125,2.5 1.125,2.5 1.375,0 0.125,-1.375 0.625,-0.25 1.125,2.5 0.875,4.625 0.875,4.75 1.125,1.125 0.125,-4.25 -2.375,-10.25 -5.125,-11.875 -2.875,-1.875 -9,-1.125 -14.125,1.75 -2.75,1.5 -5,3.375 -5,4.125 0,1.5 -8.875,9.5 -12.75,11.625 -1.5,0.75 -4,1.375 -5.625,1.5 -2.875,0.125 -2.875,0.125 0.25,1.125 l 3.125,1 -3.5,0.125 c -1.875,0.125 -5.5,-0.75 -8.125,-1.75 -4.25,-1.875 -4.5,-1.875 -2.625,0 1,1.125 4,2.25 6.5,2.75 7.75,1.25 12.875,-0.5 19.875,-7 7.25,-6.625 13.25,-10.125 17.25,-10.125 2.125,0 2.5,0.75 2.5,6.375 0,5.25 0.625,6.875 3.5,9.875 10.875,10.75 37.5,5.5 52.24999,-10.25 8.875,-9.5 13.25,-20.1250011 14,-34.2500011 0.375,-6.4999999 0.25,-11.7499999 -0.25,-11.7499999 -0.375,0 -0.875,3.75 -0.875,8.3749999 z m -65.99999,28.7500011 c 1.625,1.875 1.5,1.875 -1,0.25 -2.375,-1.375 -3.5,-1.375 -6.875,-0.125 -2.25,1 -4.625,1.75 -5.375,1.875 -0.625,0.25 -2,0.75 -2.875,1.375 -0.875,0.5 -2,0.75 -2.375,0.375 -1.125,-1.25 8.875,-5.75 12.875,-5.875 2.25,0 4.75,0.875 5.625,2.125 z m -22.625,9.5 c 0,0.25 -1.5,1.75 -3.375,3.5 l -3.5,3 3,-3.5 c 2.875,-3.125 3.875,-4 3.875,-3 z"
       id="path62" />
  </g>
</svg>
